<svg width="24" height="24" viewBox="0 0 24 24" fill="none" xmlns="http://www.w3.org/2000/svg">
<path d="M19.9747 8.81725C18.628 9.63075 17.7992 11.0703 17.7807 12.6283C17.786 14.3915 18.8557 15.9823 20.5 16.6725C20.1827 17.6823 19.7132 18.6393 19.1075 19.5113C18.2405 20.7428 17.334 21.974 15.9547 21.974C14.5754 21.974 14.2207 21.1833 12.6309 21.1833C11.0411 21.1833 10.5288 22 9.26783 22C8.00681 22 7.12655 20.8593 6.11503 19.4593C4.77876 17.4983 4.04425 15.1982 4 12.8355C4 8.94675 6.56179 6.88575 9.08408 6.88575C10.4241 6.88575 11.5409 7.75425 12.3816 7.75425C13.2224 7.75425 14.4312 6.834 15.9549 6.834C17.546 6.7935 19.0532 7.537 19.975 8.81725H19.9747ZM15.2322 5.18775C15.9039 4.408 16.2842 3.4245 16.3094 2.4015C16.3107 2.26675 16.2974 2.132 16.2699 2C15.1162 2.11125 14.0492 2.65375 13.2876 3.5165C12.6094 4.26525 12.2149 5.22225 12.1709 6.2255C12.1714 6.3475 12.1846 6.46925 12.2104 6.5885C12.3014 6.6055 12.3936 6.61425 12.4864 6.6145C13.5611 6.53 14.5537 6.01425 15.2322 5.18775Z" fill="black"/>
</svg>
