<svg width="24" height="24" viewBox="0 0 24 24" fill="none" xmlns="http://www.w3.org/2000/svg">
<path fill-rule="evenodd" clip-rule="evenodd" d="M20.5 6C20.5 4.6215 19.3785 3.5 18 3.5H6C4.6215 3.5 3.5 4.6215 3.5 6V18C3.5 19.3785 4.6215 20.5 6 20.5H18C19.3785 20.5 20.5 19.3785 20.5 18V6ZM6 2H18C20.2093 2 22 3.79075 22 6V18C22 20.2093 20.2093 22 18 22H6C3.79075 22 2 20.2093 2 18V6C2 3.79075 3.79075 2 6 2ZM13.6553 7.61436L10.3854 13.4999L10.3862 13.4994H12.4708L13.304 14.9993H7.00003C6.58576 14.9993 6.25 14.6636 6.25 14.2494C6.25 13.8351 6.58576 13.4994 7.00003 13.4994H8.66985L11.1422 9.04956L10.3447 7.61411C10.1434 7.25212 10.2739 6.79564 10.6359 6.5944C10.998 6.39341 11.4545 6.5239 11.6557 6.88589L12 7.50561L12.3443 6.88589C12.5453 6.5239 13.002 6.39341 13.3641 6.59465C13.7261 6.79564 13.8566 7.25237 13.6553 7.61436ZM15.3301 13.4999H17V13.5001C17.4142 13.5001 17.75 13.8359 17.75 14.2501C17.75 14.6643 17.4142 15.0001 17 15.0001H16.1634L16.6555 15.8858C16.8567 16.2478 16.7262 16.7043 16.3642 16.9055C16.2489 16.9695 16.1239 17 16.0007 17C15.7372 17 15.4814 16.8608 15.3444 16.614L14.4476 15.0001L13.7716 13.7834L12.5718 11.6237L13.4296 10.0793L15.3301 13.4999ZM7.63558 16.9053C7.75083 16.9693 7.87584 16.9998 7.99909 16.9998C8.2626 16.9998 8.51836 16.8605 8.65537 16.6138L8.99663 15.9998H7.29281C7.17256 16.3388 7.31081 16.7248 7.63558 16.9053Z" fill="black"/>
</svg>
