<svg width="24" height="24" viewBox="0 0 24 24" fill="none" xmlns="http://www.w3.org/2000/svg">
<path fill-rule="evenodd" clip-rule="evenodd" d="M19.4696 8.53035C19.7625 8.82325 20.2374 8.82325 20.5303 8.53035C20.8232 8.23746 20.8232 7.76259 20.5303 7.46969L17.591 4.53044C16.7123 3.6518 15.2877 3.6518 14.409 4.53044L11.4697 7.46969C11.1768 7.76259 11.1768 8.23746 11.4697 8.53035C11.7626 8.82325 12.2375 8.82325 12.5304 8.53035L15.25 5.81079L15.25 19C15.25 19.4142 15.5858 19.75 16 19.75C16.4142 19.75 16.75 19.4142 16.75 19V5.81079L19.4696 8.53035ZM12.5303 15.4697C12.8232 15.7626 12.8232 16.2375 12.5303 16.5304L9.59098 19.4696C8.71232 20.3482 7.28768 20.3482 6.40902 19.4696L3.46968 16.5304C3.17678 16.2375 3.17677 15.7626 3.46966 15.4697C3.76255 15.1768 4.23742 15.1768 4.53032 15.4697L7.25 18.1893L7.25 5.00002C7.25 4.58581 7.58579 4.25002 8 4.25002C8.41421 4.25002 8.75 4.58581 8.75 5.00002L8.75 18.1893L11.4697 15.4697C11.7626 15.1768 12.2374 15.1768 12.5303 15.4697Z" fill="black"/>
</svg>
