<svg width="24" height="24" viewBox="0 0 24 24" fill="none" xmlns="http://www.w3.org/2000/svg">
<path fill-rule="evenodd" clip-rule="evenodd" d="M9.25 20.5H5.25C4.2835 20.5 3.5 19.7165 3.5 18.75V5.25C3.5 4.2835 4.2835 3.5 5.25 3.5H9.25C9.66425 3.5 10 3.16425 10 2.75C10 2.33575 9.66425 2 9.25 2H5.25C3.455 2 2 3.455 2 5.25V18.75C2 20.545 3.455 22 5.25 22H9.25C9.66425 22 10 21.6643 10 21.25C10 20.8358 9.66425 20.5 9.25 20.5ZM14.5945 6.46966C14.8873 6.17677 15.3619 6.17678 15.6546 6.46968L19.5914 10.409C20.4695 11.2877 20.4695 12.7123 19.5914 13.591L15.6546 17.5303C15.3619 17.8232 14.8873 17.8232 14.5945 17.5303C14.3018 17.2374 14.3018 16.7626 14.5945 16.4697L18.3119 12.75H7C6.58579 12.75 6.25 12.4142 6.25 12C6.25 11.5858 6.58579 11.25 7 11.25H18.3119L14.5945 7.53032C14.3018 7.23743 14.3018 6.76255 14.5945 6.46966Z" fill="black"/>
</svg>
