<svg width="24" height="24" viewBox="0 0 24 24" fill="none" xmlns="http://www.w3.org/2000/svg">
<path fill-rule="evenodd" clip-rule="evenodd" d="M19.5 17V15.75C19.5 15.3358 19.8358 15 20.25 15C20.6643 15 21 15.3358 21 15.75V17C21 19.2093 19.2093 21 17 21H7C4.79075 21 3 19.2093 3 17V7C3 4.79075 4.79075 3 7 3H8.25C8.66425 3 9 3.33575 9 3.75C9 4.16425 8.66425 4.5 8.25 4.5H7C5.61925 4.5 4.5 5.61925 4.5 7V17C4.5 18.3807 5.61925 19.5 7 19.5H17C18.3807 19.5 19.5 18.3807 19.5 17ZM12 3.75C12 3.33579 12.3358 3 12.75 3H18.75C19.9927 3 21 4.00729 21 5.25V11.25C21 11.6642 20.6642 12 20.25 12C19.8358 12 19.5 11.6642 19.5 11.25V5.56066L12.2803 12.7803C11.9874 13.0732 11.5126 13.0732 11.2197 12.7803C10.9268 12.4874 10.9268 12.0126 11.2197 11.7197L18.4393 4.5H12.75C12.3358 4.5 12 4.16421 12 3.75Z" fill="black"/>
</svg>
