<svg width="24" height="24" viewBox="0 0 24 24" fill="none" xmlns="http://www.w3.org/2000/svg">
<path fill-rule="evenodd" clip-rule="evenodd" d="M17.7678 4.35366C16.7915 3.37739 15.2085 3.37739 14.2322 4.35366L11.2929 7.29291C10.9024 7.68344 10.9024 8.31661 11.2929 8.70713C11.6834 9.09765 12.3166 9.09765 12.7071 8.70713L15 6.41433L15 19C15 19.5523 15.4477 20 16 20C16.5523 20 17 19.5523 17 19V6.41433L19.2929 8.70713C19.6834 9.09765 20.3166 9.09765 20.7071 8.70713C21.0976 8.31661 21.0976 7.68344 20.7071 7.29291L17.7678 4.35366ZM8 4.00002C7.44772 4.00002 7 4.44774 7 5.00002L7 17.5857L4.7071 15.2929C4.31657 14.9024 3.6834 14.9024 3.29288 15.2929C2.90236 15.6835 2.90237 16.3166 3.2929 16.7071L6.23225 19.6464C7.20854 20.6227 8.79146 20.6227 9.76775 19.6464L12.7071 16.7071C13.0976 16.3166 13.0976 15.6835 12.7071 15.2929C12.3166 14.9024 11.6834 14.9024 11.2929 15.2929L9 17.5857L9 5.00002C9 4.44774 8.55228 4.00002 8 4.00002Z" fill="black"/>
</svg>
