<svg width="24" height="24" viewBox="0 0 24 24" fill="none" xmlns="http://www.w3.org/2000/svg">
<path fill-rule="evenodd" clip-rule="evenodd" d="M5.25 20H9.5C10.0523 20 10.5 20.4477 10.5 21C10.5 21.5523 10.0523 22 9.5 22H5.25C3.455 22 2 20.545 2 18.75V5.25C2 3.455 3.455 2 5.25 2H9.5C10.0523 2 10.5 2.44775 10.5 3C10.5 3.55225 10.0523 4 9.5 4H5.25C4.55975 4 4 4.55975 4 5.25V18.75C4 19.4402 4.55975 20 5.25 20ZM14.9143 7.7071L18.2071 11L7.5 11C6.94771 11 6.5 11.4477 6.5 12C6.5 12.5523 6.94771 13 7.5 13L18.2071 13L14.9143 16.2929C14.5238 16.6834 14.5238 17.3166 14.9143 17.7071C15.3049 18.0976 15.938 18.0976 16.3286 17.7071L20.2678 13.7677C21.2441 12.7915 21.2441 11.2085 20.2678 10.2323L16.3286 6.2929C15.938 5.90237 15.3049 5.90236 14.9143 6.29288C14.5238 6.6834 14.5238 7.31657 14.9143 7.7071Z" fill="black"/>
</svg>
