<svg width="24" height="24" viewBox="0 0 24 24" fill="none" xmlns="http://www.w3.org/2000/svg">
<path fill-rule="evenodd" clip-rule="evenodd" d="M12.548 4.35576C14.2077 2.69611 16.8988 2.69611 18.5584 4.35576C20.2181 6.0154 20.2181 8.70652 18.5584 10.3662L13.2552 15.6694C12.1813 16.7433 10.4399 16.7433 9.36603 15.6694C8.29213 14.5955 8.29213 12.8541 9.36603 11.7803L12.9015 8.24476C13.1944 7.95186 13.6693 7.95186 13.9622 8.24476C14.2551 8.53765 14.2551 9.01252 13.9622 9.30542L10.4267 12.8409C9.93858 13.329 9.93858 14.1206 10.4267 14.6088C10.9148 15.0969 11.7064 15.0969 12.1945 14.6088L17.4978 9.30551C18.5716 8.23165 18.5716 6.49027 17.4978 5.41642C16.4239 4.34256 14.6825 4.34256 13.6087 5.41642L6.89119 12.1339C5.23158 13.7935 5.23158 16.4846 6.89119 18.1443C8.5508 19.8039 11.2419 19.8039 12.9015 18.1443L17.8513 13.1945C18.1441 12.9016 18.619 12.9016 18.9119 13.1945C19.2048 13.4874 19.2048 13.9623 18.9119 14.2552L13.9622 19.2049C11.7168 21.4503 8.07592 21.4503 5.83053 19.2049C3.58514 16.9595 3.58514 13.3186 5.83053 11.0733L12.548 4.35576Z" fill="black"/>
</svg>
