<svg width="24" height="24" viewBox="0 0 24 24" fill="none" xmlns="http://www.w3.org/2000/svg">
<path fill-rule="evenodd" clip-rule="evenodd" d="M12.3966 4.17898C14.1539 2.4217 17.0033 2.4217 18.7606 4.17898C20.5179 5.93625 20.5179 8.78567 18.7606 10.5429L13.4573 15.8462C12.2858 17.0177 10.3862 17.0177 9.21464 15.8462C8.04312 14.6747 8.04312 12.775 9.21464 11.6035L12.7501 8.06798C13.1407 7.67745 13.7738 7.67745 14.1644 8.06798C14.5549 8.4585 14.5549 9.09167 14.1644 9.48219L10.6289 13.0177C10.2384 13.4082 10.2384 14.0415 10.6289 14.432C11.0193 14.8225 11.6527 14.8225 12.0431 14.432L17.3464 9.12873C18.3226 8.1525 18.3226 6.56942 17.3464 5.59319C16.3702 4.61697 14.7871 4.61697 13.8108 5.59319L7.09336 12.3107C5.53138 13.8727 5.53138 16.4055 7.09336 17.9675C8.65533 19.5295 11.1882 19.5295 12.7501 17.9675L17.6999 13.0177C18.0904 12.6272 18.7236 12.6272 19.1141 13.0177C19.5046 13.4083 19.5046 14.0414 19.1141 14.4319L14.1644 19.3817C11.8213 21.7247 8.02217 21.7247 5.67914 19.3817C3.33612 17.0387 3.33612 13.2395 5.67914 10.8965L12.3966 4.17898Z" fill="black"/>
</svg>
