<svg width="24" height="24" viewBox="0 0 24 24" fill="none" xmlns="http://www.w3.org/2000/svg">
<path d="M18.7502 17.5386V11.0001H19.1925C19.7265 11.0001 20.222 10.8318 20.6247 10.5138C20.9954 10.221 21.2642 9.82255 21.4017 9.36154C21.5382 8.90429 21.5324 8.42829 21.3852 7.98528C21.2249 7.50303 20.9064 7.09453 20.4639 6.80378L14.1208 2.635C12.8326 1.7885 11.1676 1.7885 9.87937 2.635L3.53623 6.80378C3.09374 7.09453 2.77525 7.50303 2.615 7.98528C2.46775 8.42854 2.462 8.90429 2.5985 9.36154C2.73599 9.82255 3.00474 10.2208 3.37549 10.5138C3.77848 10.8321 4.27372 11.0001 4.80771 11.0001H5.24995V17.5386C3.69448 17.7798 2.5 19.1281 2.5 20.7501C2.5 21.4394 3.06074 22.0001 3.74998 22.0001H20.2497C20.9389 22.0001 21.4997 21.4394 21.4997 20.7501C21.4997 19.1281 20.3052 17.7798 18.7497 17.5386H18.7502ZM17.2503 11.0001V17.5001H14.7503V11.0001H17.2503ZM13.2503 11.0001V17.5001H10.7504V11.0001H13.2503ZM9.25039 11.0001V17.5001H6.75043V11.0001H9.25039Z" fill="black"/>
</svg>
