<svg width="24" height="24" viewBox="0 0 24 24" fill="none" xmlns="http://www.w3.org/2000/svg">
<path fill-rule="evenodd" clip-rule="evenodd" d="M10.25 22H13.75C15.2663 22 16.5 20.7663 16.5 19.25V13.0522C16.5 12.2037 16.2083 11.372 15.6783 10.7095L14.9163 9.757C14.6313 9.401 14.463 8.9725 14.4293 8.51775L14.0529 3.43631C14.3163 3.31993 14.5 3.05644 14.5 2.75C14.5 2.33575 14.1643 2 13.75 2H13.25H10.75H10.25C9.83575 2 9.5 2.33575 9.5 2.75C9.5 3.05644 9.68374 3.31993 9.94707 3.43632L9.57075 8.518C9.537 8.97275 9.3685 9.40125 9.08375 9.75725L8.32175 10.7098C7.79175 11.372 7.5 12.204 7.5 13.0522V19.25C7.5 20.7663 8.73375 22 10.25 22ZM11.4465 3.5L11.0665 8.6285C11.0103 9.3865 10.7298 10.1008 10.255 10.694L9.493 11.6465C9.175 12.044 9 12.543 9 13.052V19.2498C9 19.939 9.56075 20.4998 10.25 20.4998H13.75C14.4393 20.4998 15 19.939 15 19.2498V13.052C15 12.543 14.825 12.0438 14.507 11.6465L13.745 10.694C13.2703 10.1005 12.9897 9.38625 12.9335 8.6285L12.5535 3.5H11.4465Z" fill="black"/>
</svg>
