<svg width="24" height="24" viewBox="0 0 24 24" fill="none" xmlns="http://www.w3.org/2000/svg">
<path fill-rule="evenodd" clip-rule="evenodd" d="M6.75 21.9998H10.25V22C11.7662 22 13 20.7663 13 19.25V13.0522C13 12.2037 12.7083 11.372 12.1783 10.7095L11.4163 9.757C11.1313 9.401 10.963 8.9725 10.9293 8.51775L10.5529 3.4363C10.8163 3.3199 11 3.05641 11 2.75C11 2.33579 10.6642 2 10.25 2H9.75H7.25H6.75C6.33579 2 6 2.33579 6 2.75C6 3.05641 6.18375 3.3199 6.44706 3.4363L6.07075 8.51775C6.037 8.9725 5.8685 9.401 5.58375 9.757L4.82175 10.7095C4.29175 11.3718 4 12.2038 4 13.052V19.2498C4 20.766 5.23375 21.9998 6.75 21.9998ZM13.75 2C13.3358 2 13 2.33579 13 2.75C13 3.05641 13.1837 3.3199 13.4471 3.4363L13.0707 8.51767C13.0527 8.76017 12.996 8.99516 12.9042 9.21591L13.3495 9.77265C14.0915 10.6999 14.5 11.8646 14.5 13.0524V19.25C14.5 20.2925 14.1225 21.2483 13.4975 21.9882C13.5807 21.9957 13.665 22 13.75 22H17.25C18.7662 22 20 20.7663 20 19.25V13.0524C20 12.2041 19.7082 11.3721 19.1782 10.7096V10.7094L18.4162 9.7569C18.1315 9.40091 17.963 8.97241 17.9292 8.51767L17.5529 3.4363C17.8163 3.31991 18 3.05641 18 2.75C18 2.33579 17.6642 2 17.25 2H16.75H14.25H13.75Z" fill="black"/>
</svg>
