<svg width="24" height="24" viewBox="0 0 24 24" fill="none" xmlns="http://www.w3.org/2000/svg">
<path fill-rule="evenodd" clip-rule="evenodd" d="M5.00024 22H8.25051L8.24976 21.9998C9.90414 21.9998 11.25 20.654 11.25 18.9998V13.4413C11.25 12.3988 11.0037 11.355 10.5374 10.4225C9.67212 8.69225 9.14083 6.838 8.95831 4.912L8.83255 3.58475C8.79155 3.15025 8.59103 2.74925 8.26801 2.4555C7.94523 2.16175 7.52695 2 7.09041 2H5.95382C5.01799 2 4.24993 2.7325 4.20568 3.66725L4.14542 4.93725C4.05442 6.8575 3.57238 8.70325 2.71256 10.4228C2.24652 11.3552 2 12.399 2 13.4415V19C2 20.6542 3.34586 22 5.00024 22ZM5.7043 3.73825C5.71055 3.60475 5.82031 3.5 5.95407 3.5V3.50025H7.09066C7.22042 3.50025 7.32743 3.59775 7.33968 3.72675L7.46544 5.054C7.66546 7.165 8.24801 9.197 9.19633 11.0938C9.53032 11.7617 9.71937 12.5034 9.74707 13.25H3.50368C3.53137 12.5032 3.72043 11.7617 4.05442 11.0935C5.00824 9.186 5.54304 7.1385 5.64405 5.00825L5.7043 3.73825ZM3.50012 14.75H9.75063V17H3.50012V14.75ZM9.75063 19V18.5H3.50012V19C3.50012 19.827 4.17318 20.5 5.00024 20.5H8.25051C9.07757 20.5 9.75063 19.827 9.75063 19ZM19.6707 6.33547C19.8559 5.96502 19.7057 5.51456 19.3353 5.32934C18.9649 5.14411 18.5144 5.29427 18.3292 5.66472L17.4116 7.5H15.75C14.0931 7.5 12.75 8.84315 12.75 10.5V19C12.75 20.6569 14.0931 22 15.75 22H19C20.6569 22 22 20.6569 22 19V10.5C22 8.87251 20.704 7.54771 19.0878 7.50126L19.6707 6.33547ZM14.25 10.5C14.25 9.67157 14.9216 9 15.75 9H19C19.8284 9 20.5 9.67157 20.5 10.5V11.8693C20.461 11.8271 20.4211 11.7856 20.3803 11.7448C19.9905 11.355 19.536 11.0488 19.0298 10.8345C18.5048 10.6125 17.948 10.5 17.375 10.5C16.802 10.5 16.2453 10.6125 15.7203 10.8345C15.214 11.0488 14.7595 11.3548 14.3697 11.7448C14.3289 11.7856 14.289 11.8271 14.25 11.8694V10.5ZM20.3803 17.7553C20.4211 17.7144 20.461 17.6729 20.5 17.6306V19C20.5 19.8284 19.8284 20.5 19 20.5H15.75C14.9216 20.5 14.25 19.8284 14.25 19V17.6307C14.289 17.6729 14.3289 17.7144 14.3697 17.7553C14.7595 18.145 15.214 18.4512 15.7203 18.6655C16.2453 18.8875 16.802 19 17.375 19C17.948 19 18.5048 18.8875 19.0298 18.6655C19.536 18.4512 19.9905 18.1453 20.3803 17.7553ZM17.375 12C18.8938 12 20.125 13.2313 20.125 14.75C20.125 16.2688 18.8938 17.5 17.375 17.5C15.8563 17.5 14.625 16.2688 14.625 14.75C14.625 13.2313 15.8563 12 17.375 12Z" fill="black"/>
</svg>
