<svg width="24" height="24" viewBox="0 0 24 24" fill="none" xmlns="http://www.w3.org/2000/svg">
<path fill-rule="evenodd" clip-rule="evenodd" d="M19.0169 12.8718C19.0169 13.5938 19.2126 14.3023 19.5836 14.9223H19.5834L20.2134 15.9747C21.0114 17.308 20.0484 19 18.4921 19H15C15 20.6568 13.6568 22 12 22C10.3433 22 9 20.6568 9 19H5.50777C3.9515 19 2.98875 17.3078 3.7865 15.9747L4.41651 14.9223C4.78726 14.3023 4.98326 13.5938 4.98326 12.8718V9C4.98326 5.134 8.12479 2 12.0001 2C12.5176 2 13.0218 2.0565 13.5073 2.1625C13.2396 2.49125 13.0206 2.85475 12.8543 3.248C12.6193 3.80375 12.5001 4.39325 12.5001 5C12.5001 5.60675 12.6193 6.19625 12.8543 6.752C13.0811 7.288 13.4053 7.76925 13.8181 8.182C14.2308 8.59475 14.7121 8.919 15.2481 9.14575C15.8039 9.38075 16.3934 9.5 17.0001 9.5C17.6069 9.5 18.1964 9.38075 18.7521 9.14575C18.8421 9.10775 18.9301 9.06675 19.0169 9.02325V12.8718ZM10.5 19C10.5 19.827 11.173 20.5 12 20.5C12.827 20.5 13.5 19.827 13.5 19H10.5ZM17 8C18.6569 8 20 6.65685 20 5C20 3.34315 18.6569 2 17 2C15.3431 2 14 3.34315 14 5C14 6.65685 15.3431 8 17 8Z" fill="black"/>
</svg>
