<svg width="24" height="24" viewBox="0 0 24 24" fill="none" xmlns="http://www.w3.org/2000/svg">
<path fill-rule="evenodd" clip-rule="evenodd" d="M15.9024 5.11225C14.8601 4.0725 13.4743 3.5 12.0001 3.5C10.5258 3.5 9.1398 4.0725 8.09779 5.11225C7.05678 6.15075 6.48327 7.5315 6.48327 9V12.8718C6.48327 13.8647 6.21352 14.84 5.70352 15.6925L5.07351 16.745C4.94426 16.961 5.01426 17.1507 5.06751 17.2447C5.12176 17.34 5.25076 17.5 5.50777 17.5H9H15H18.4924C18.7496 17.5 18.8786 17.34 18.9326 17.2447C18.9859 17.1507 19.0559 16.961 18.9266 16.745L18.2966 15.6925C17.7866 14.84 17.5169 13.8647 17.5169 12.8718V9C17.5169 7.53175 16.9436 6.151 15.9024 5.11225ZM15 19H18.4921C20.0484 19 21.0114 17.308 20.2134 15.9747L19.5834 14.9223C19.2124 14.3023 19.0166 13.5938 19.0166 12.8718V9C19.0166 5.134 15.8751 2 11.9998 2H12.0001C8.12479 2 4.98326 5.134 4.98326 9V12.8718C4.98326 13.5938 4.78751 14.3023 4.41651 14.9223L3.7865 15.9747C2.98875 17.3078 3.9515 19 5.50777 19H9C9 20.6568 10.3433 22 12 22C13.6568 22 15 20.6568 15 19ZM13.5 19H10.5C10.5 19.827 11.173 20.5 12 20.5C12.827 20.5 13.5 19.827 13.5 19Z" fill="black"/>
</svg>
