<svg width="24" height="24" viewBox="0 0 24 24" fill="none" xmlns="http://www.w3.org/2000/svg">
<path fill-rule="evenodd" clip-rule="evenodd" d="M15.3083 4.16725C14.2613 3.7245 13.1482 3.5 12 3.5C10.8518 3.5 9.73875 3.7245 8.69175 4.16725C7.67975 4.59525 6.7705 5.2085 5.9895 5.9895C5.20825 6.7705 4.59525 7.67975 4.16725 8.69175C3.7245 9.7385 3.5 10.8515 3.5 11.9997C3.5 13.148 3.7245 14.261 4.16725 15.308C4.49779 16.0896 4.93882 16.8098 5.48227 17.4571L17.4572 5.48216C16.81 4.93875 16.0898 4.49777 15.3083 4.16725ZM18.5178 6.54282L6.54295 18.5177C7.19012 19.0611 7.9103 19.502 8.69175 19.8325C9.73875 20.2753 10.8518 20.4998 12 20.4998C13.1482 20.4998 14.2613 20.2753 15.3083 19.8325C16.3203 19.4045 17.2295 18.7912 18.0105 18.0102C18.7915 17.2292 19.4048 16.32 19.8328 15.308C20.2755 14.261 20.5 13.1477 20.5 11.9997C20.5 10.8518 20.2755 9.73875 19.8328 8.69175C19.5022 7.91025 19.0612 7.19002 18.5178 6.54282ZM2 12C2 6.47725 6.47725 2 12 2C17.5228 2 22 6.47725 22 12C22 17.5228 17.5228 22 12 22C6.47725 22 2 17.5228 2 12Z" fill="black"/>
</svg>
