<svg width="24" height="24" viewBox="0 0 24 24" fill="none" xmlns="http://www.w3.org/2000/svg">
<path fill-rule="evenodd" clip-rule="evenodd" d="M13 3.5C14.2073 3.5 15.2175 4.36025 15.4497 5.5H10H6.5C5.9485 5.5 5.5 5.0515 5.5 4.5C5.5 3.9485 5.9485 3.5 6.5 3.5H13ZM13 2C15.0816 2 16.7917 3.58979 16.9823 5.6215C18.7166 6.05933 20 7.6297 20 9.5V18C20 20.2093 18.2093 22 16 22H8C5.79075 22 4 20.2093 4 18V4.5C4 3.11925 5.11925 2 6.5 2H13ZM8.5 10.25C8.5 10.1119 8.61193 10 8.75 10H15.25C15.3881 10 15.5 10.1119 15.5 10.25V11.25C15.5 11.3881 15.3881 11.5 15.25 11.5H8.75C8.61193 11.5 8.5 11.3881 8.5 11.25V10.25ZM8.75 8.5C7.7835 8.5 7 9.2835 7 10.25V11.25C7 12.2165 7.7835 13 8.75 13H15.25C16.2165 13 17 12.2165 17 11.25V10.25C17 9.2835 16.2165 8.5 15.25 8.5H8.75Z" fill="black"/>
</svg>
