<svg width="24" height="24" viewBox="0 0 24 24" fill="none" xmlns="http://www.w3.org/2000/svg">
<path fill-rule="evenodd" clip-rule="evenodd" d="M15.0629 4.42783L15.2042 4.33158C15.4839 4.14108 15.8282 4.11958 16.1249 4.27433C16.2654 4.34758 16.5927 4.56933 16.5989 5.04733C16.6069 5.67358 16.8547 6.26183 17.2964 6.70383C17.7382 7.14558 18.3264 7.39333 18.9529 7.40133C19.4309 7.40733 19.6527 7.73483 19.7259 7.87508C19.8804 8.17183 19.8589 8.51608 19.6684 8.79583L19.5722 8.93708C19.4512 9.11483 19.3572 9.30358 19.2897 9.49833C19.1194 9.98858 19.4839 10.5003 20.0027 10.5003C20.3352 10.5003 20.6264 10.2823 20.7247 9.96458C20.7442 9.90133 20.7722 9.83983 20.8122 9.78108L20.9084 9.63983C21.4074 8.90683 21.4639 7.96508 21.0562 7.18208C20.8629 6.81083 20.5764 6.49658 20.2279 6.27358C19.8567 6.03583 19.4224 5.90708 18.9719 5.90133C18.4884 5.89508 18.1049 5.51158 18.0987 5.02808C18.0929 4.57758 17.9642 4.14333 17.7264 3.77208C17.5032 3.42358 17.1889 3.13733 16.8179 2.94383C16.0349 2.53608 15.0932 2.59258 14.3602 3.09158L14.2189 3.18783C13.8287 3.45358 13.2982 3.37383 13.0114 3.00658L12.9412 2.91658C12.4089 2.23483 11.5784 1.90183 10.7197 2.02533C9.85341 2.15008 9.14391 2.71058 8.82141 3.52508L8.67791 3.88733C8.50991 4.31133 8.05241 4.54758 7.61366 4.43658L7.27291 4.35033C6.44541 4.14108 5.58966 4.37783 4.98366 4.98358C4.37766 5.58958 4.14091 6.44533 4.35041 7.27283L4.43666 7.61383C4.54766 8.05258 4.31141 8.51008 3.88741 8.67808L3.52516 8.82158C2.71066 9.14408 2.15016 9.85358 2.02541 10.7198C1.90166 11.5786 2.23491 12.4088 2.91666 12.9413L3.00641 13.0116C3.37366 13.2983 3.45341 13.8288 3.18766 14.2191L3.09141 14.3603C2.59241 15.0933 2.53591 16.0351 2.94366 16.8181C3.13691 17.1893 3.42341 17.5036 3.77191 17.7266C4.14316 17.9643 4.57741 18.0931 5.02791 18.0988C5.51141 18.1051 5.89491 18.4886 5.90116 18.9721C5.90691 19.4226 6.03566 19.8568 6.27341 20.2281C6.49666 20.5766 6.81091 20.8628 7.18191 21.0563C7.91416 21.4378 8.78516 21.4128 9.49441 21.0001C9.54366 20.9716 9.59191 20.9411 9.63941 20.9086L9.78066 20.8123C9.87766 20.7463 9.98341 20.6788 10.0917 20.6241C10.3397 20.4991 10.4997 20.2491 10.4997 19.9716V19.9641C10.4997 19.4968 10.0647 19.1511 9.60966 19.2571C9.57941 19.2641 9.55191 19.2716 9.52816 19.2796C9.34566 19.3403 9.16816 19.4238 8.99991 19.5311C8.97866 19.5446 8.95766 19.5583 8.93666 19.5726L8.79541 19.6688C8.51566 19.8593 8.17141 19.8808 7.87466 19.7261C7.73416 19.6528 7.40691 19.4311 7.40066 18.9531C7.39266 18.3268 7.14491 17.7386 6.70316 17.2966C6.26141 16.8546 5.67316 16.6071 5.04666 16.5991C4.56866 16.5931 4.34691 16.2656 4.27366 16.1253C4.11916 15.8286 4.14066 15.4843 4.33116 15.2046L4.42741 15.0631C5.13641 14.0216 4.91766 12.6011 3.92941 11.8293L3.83966 11.7591C3.47566 11.4748 3.48791 11.0871 3.50991 10.9336C3.55691 10.6063 3.76916 10.3381 4.07716 10.2161L4.43941 10.0726C5.56191 9.62808 6.18566 8.41283 5.89066 7.24608L5.80441 6.90508C5.69116 6.45758 5.93441 6.15408 6.04416 6.04433C6.15391 5.93458 6.45766 5.69133 6.90491 5.80458L7.24591 5.89083C7.44091 5.94008 7.63691 5.96383 7.83066 5.96383C8.79716 5.96383 9.70241 5.37458 10.0727 4.43958L10.2162 4.07733C10.3382 3.76908 10.6064 3.55708 10.9337 3.51008C11.0872 3.48808 11.4749 3.47583 11.7592 3.83983L11.8294 3.92983C12.6012 4.91808 14.0217 5.13683 15.0632 4.42783H15.0629ZM14 12H15.5C16.6046 12 17.5 12.8954 17.5 14V15.5C17.5 16.6046 16.6046 17.5 15.5 17.5H14C12.8954 17.5 12 16.6046 12 15.5V14C12 12.8954 12.8954 12 14 12ZM14 18.5H15.5C16.6046 18.5 17.5 19.3954 17.5 20.5V22C17.5 23.1046 16.6046 24 15.5 24H14C12.8954 24 12 23.1046 12 22V20.5C12 19.3954 12.8954 18.5 14 18.5ZM22 12H20.5C19.3954 12 18.5 12.8954 18.5 14V15.5C18.5 16.6046 19.3954 17.5 20.5 17.5H22C23.1046 17.5 24 16.6046 24 15.5V14C24 12.8954 23.1046 12 22 12ZM20 18.5H19.25C18.8358 18.5 18.5 18.8358 18.5 19.25V20C18.5 20.4143 18.8358 20.75 19.25 20.75H20C20.4143 20.75 20.75 20.4143 20.75 20V19.25C20.75 18.8358 20.4143 18.5 20 18.5ZM23.25 18.5H22.5C22.0858 18.5 21.75 18.8358 21.75 19.25V20C21.75 20.4143 22.0858 20.75 22.5 20.75H23.25C23.6643 20.75 24 20.4143 24 20V19.25C24 18.8358 23.6643 18.5 23.25 18.5ZM20 21.75H19.25C18.8358 21.75 18.5 22.0858 18.5 22.5V23.25C18.5 23.6643 18.8358 24 19.25 24H20C20.4143 24 20.75 23.6643 20.75 23.25V22.5C20.75 22.0858 20.4143 21.75 20 21.75ZM23.25 21.75H22.5C22.0858 21.75 21.75 22.0858 21.75 22.5V23.25C21.75 23.6643 22.0858 24 22.5 24H23.25C23.6643 24 24 23.6643 24 23.25V22.5C24 22.0858 23.6643 21.75 23.25 21.75ZM7.49975 12.0003C7.49975 12.9833 7.81275 13.918 8.3915 14.6908L8.392 14.6902C8.61675 14.9905 8.59075 15.4093 8.3255 15.6745C8.00475 15.9953 7.472 15.9625 7.19975 15.6C6.44625 14.5973 6 13.3507 6 12C6 8.6765 8.6765 6 12 6C13.3508 6 14.5973 6.44625 15.6 7.1995C15.9625 7.47175 15.995 8.00475 15.6745 8.32525C15.4115 8.58825 14.9945 8.6205 14.6973 8.397C13.923 7.81475 12.9855 7.5 11.9997 7.5C10.798 7.5 9.662 7.97425 8.818 8.818C7.974 9.66175 7.49975 10.807 7.49975 12.0003Z" fill="black"/>
</svg>
