<svg width="24" height="24" viewBox="0 0 24 24" fill="none" xmlns="http://www.w3.org/2000/svg">
<path fill-rule="evenodd" clip-rule="evenodd" d="M21.9948 8.05881C21.996 8.07981 21.9973 8.10081 21.998 8.12206L21.9982 8.12156C21.9992 8.15381 22 8.18631 22 8.21906V10.4576C22 11.0111 21.421 11.3738 20.923 11.1326C20.6758 11.0126 20.515 10.7676 20.5015 10.4951H20.5003V8.21956C20.5003 8.14181 20.493 8.06506 20.4793 7.99056L12.7503 11.2826V12.4026C12.7503 12.5598 12.701 12.7131 12.609 12.8408C12.1835 13.4318 11.2503 13.1308 11.2503 12.4026V11.2826L3.52125 7.99056C3.5075 8.06531 3.50025 8.14181 3.50025 8.21956V15.6146C3.50025 16.5228 4.04075 17.3376 4.87725 17.6901L10.558 20.0836C10.7312 20.1566 10.8707 20.2921 10.949 20.4631C11.2262 21.0698 10.633 21.7096 10.007 21.4791C10.0023 21.4776 10 21.4766 10 21.4766V21.4783L4.29475 19.0743C2.90075 18.4871 2 17.1296 2 15.6161V8.21931C2 8.18681 2.0005 8.15431 2.00175 8.12181C2.00248 8.10115 2.00368 8.08072 2.0049 8.06008L2.005 8.05831C2.00537 8.05319 2.00562 8.04806 2.00587 8.04294C2.00613 8.03781 2.00638 8.03269 2.00675 8.02756C2.0085 8.00006 2.011 7.97281 2.01375 7.94556C2.01425 7.94206 2.0145 7.93856 2.01475 7.93506C2.01775 7.90681 2.02125 7.87856 2.025 7.85056C2.02512 7.84956 2.02525 7.8485 2.02537 7.84744C2.0255 7.84638 2.02563 7.84531 2.02575 7.84431C2.156 6.88981 2.77725 6.06531 3.6825 5.68381L10.5445 2.79231C11.4695 2.40256 12.5302 2.40256 13.4552 2.79231L20.3172 5.68381C21.2225 6.06531 21.8437 6.88981 21.974 7.84431C21.9742 7.84631 21.9745 7.84856 21.9748 7.85056C21.9787 7.87856 21.982 7.90681 21.985 7.93506C21.9853 7.93691 21.9855 7.93876 21.9856 7.94061C21.9858 7.94226 21.9859 7.94391 21.986 7.94556L21.986 7.9458C21.9885 7.97297 21.991 8.00014 21.993 8.02756C21.9938 8.03806 21.9943 8.04856 21.9948 8.05881ZM4.724 6.87331L11.9997 9.97231V9.97206L14.9225 8.72731L7.43325 5.73156L4.724 6.87331ZM9.40025 4.90306L16.8785 7.89431V7.89456L19.2755 6.87356L12.8728 4.17556C12.5953 4.05881 12.2975 4.00031 11.9997 4.00031C11.702 4.00031 11.4042 4.05856 11.1267 4.17556L9.40025 4.90306ZM12 18C12 14.6863 14.6863 12 18 12C21.3137 12 24 14.6863 24 18C24 21.3137 21.3137 24 18 24C14.6863 24 12 21.3137 12 18ZM18.0605 19.854L21.3535 16.561C21.5488 16.3655 21.5488 16.049 21.3535 15.8538C21.158 15.6585 20.8415 15.6585 20.6462 15.8538L17.3533 19.1468C17.1585 19.3417 16.8412 19.3417 16.6462 19.1468L15.3533 17.8538C15.1578 17.6585 14.8412 17.6585 14.646 17.8538C14.4507 18.0493 14.4507 18.3658 14.646 18.561L15.939 19.854C16.2315 20.1462 16.6155 20.2925 16.9997 20.2925C17.384 20.2925 17.768 20.1465 18.0605 19.854Z" fill="black"/>
</svg>
