<svg width="24" height="24" viewBox="0 0 24 24" fill="none" xmlns="http://www.w3.org/2000/svg">
<path d="M20.3173 5.68369L13.4553 2.79219C12.5303 2.40244 11.4695 2.40244 10.5445 2.79219L3.68251 5.68369C2.66026 6.11444 1.99976 7.10994 1.99976 8.21969V15.6159C1.99976 17.1294 2.90051 18.4869 4.29451 19.0742L10.5445 21.7077C11.007 21.9024 11.5035 21.9999 11.9998 21.9999C12.496 21.9999 12.9928 21.9024 13.455 21.7077L19.705 19.0742C21.099 18.4869 21.9998 17.1294 21.9998 15.6159V8.21969C21.9998 7.10994 21.3393 6.11444 20.317 5.68369H20.3173ZM11.127 4.17494C11.4045 4.05794 11.7023 3.99969 12 3.99969C12.2978 3.99969 12.5955 4.05819 12.873 4.17494L19.2758 6.87294L16.8788 7.89394L9.40051 4.90269L11.127 4.17519V4.17494ZM12 9.97169L4.72426 6.87269L7.43351 5.73094L14.9228 8.72669L12 9.97144V9.97169ZM4.87701 17.6914C4.04051 17.3389 3.50001 16.5242 3.50001 15.6157V8.21944C3.50001 8.14169 3.50726 8.06519 3.52101 7.99044L11.25 11.2824V20.3719C11.2088 20.3574 11.1675 20.3419 11.127 20.3247L4.87701 17.6912V17.6914ZM20.5 15.6157C20.5 16.5242 19.9595 17.3389 19.123 17.6914L12.873 20.3249C12.8325 20.3419 12.7913 20.3574 12.75 20.3722V11.2827L20.479 7.99069C20.4928 8.06519 20.5 8.14194 20.5 8.21969V15.6159V15.6157Z" fill="black"/>
</svg>
