<svg width="24" height="24" viewBox="0 0 24 24" fill="none" xmlns="http://www.w3.org/2000/svg">
<path fill-rule="evenodd" clip-rule="evenodd" d="M10.2446 19.9536C10.5736 20.0923 10.7594 20.4441 10.6884 20.7941H10.6886C10.5944 21.2583 10.0987 21.5201 9.66216 21.3361L4.29472 19.0743C2.90074 18.4871 2 17.1296 2 15.6161V8.21981C2 7.11006 2.66049 6.11456 3.68273 5.68381L10.5446 2.79231C11.4696 2.40256 12.5304 2.40256 13.4554 2.79231L20.3173 5.68381C21.3395 6.11456 22 7.11006 22 8.21981V12.5861C22 13.3361 21.021 13.6218 20.6178 12.9896C20.5408 12.8691 20.5 12.7291 20.5 12.5861V8.21981C20.5 8.14206 20.4928 8.06531 20.479 7.99081L12.7501 11.2828V16.8986C12.7501 17.0413 12.7094 17.1811 12.6326 17.3016C12.2294 17.9341 11.2501 17.6486 11.2501 16.8986V11.2828L3.52123 7.99081C3.50748 8.06556 3.50023 8.14206 3.50023 8.21981V15.6161C3.50023 16.5246 4.04072 17.3393 4.87721 17.6918L10.2446 19.9536ZM11.9999 4.00006C11.7021 4.00006 11.4044 4.05831 11.1269 4.17531V4.17556L9.40041 4.90306L16.8786 7.89431L19.2755 6.87331L12.8729 4.17531C12.5954 4.05856 12.2976 4.00006 11.9999 4.00006ZM14.9226 8.72731L7.43343 5.73156V5.73131L4.72422 6.87306L11.9999 9.97206L14.9226 8.72731ZM19.3197 13.7407L23.7895 20.755H23.7897C24.3837 21.7502 23.6492 23 22.47 23H13.5302C12.351 23 11.6162 21.7502 12.2105 20.755L16.6802 13.7407C17.27 12.7532 18.7302 12.7532 19.3197 13.7407ZM18 15.25C17.7237 15.25 17.5 15.4737 17.5 15.75V18.25C17.5 18.5262 17.7237 18.75 18 18.75C18.2762 18.75 18.5 18.5262 18.5 18.25V15.75C18.5 15.4737 18.2762 15.25 18 15.25ZM17.25 20.5C17.25 20.9142 17.5857 21.25 18 21.25C18.4142 21.25 18.75 20.9142 18.75 20.5C18.75 20.0857 18.4142 19.75 18 19.75C17.5857 19.75 17.25 20.0857 17.25 20.5Z" fill="black"/>
</svg>
