<svg width="24" height="24" viewBox="0 0 24 24" fill="none" xmlns="http://www.w3.org/2000/svg">
<path fill-rule="evenodd" clip-rule="evenodd" d="M16.5 6H18C20.2093 6 22 7.79075 22 10V11C22 12.3785 20.8785 13.5 19.5 13.5H14.25C14.25 12.6715 13.5785 12 12.75 12H11.25C10.4215 12 9.75 12.6715 9.75 13.5H4.5C3.1215 13.5 2 12.3785 2 11V10C2 7.79075 3.79075 6 6 6H7.5V4C7.5 2.8955 8.3955 2 9.5 2H14.5C15.6045 2 16.5 2.8955 16.5 4V6ZM9.5 3.5C9.22425 3.5 9 3.72425 9 4V6H15V4C15 3.72425 14.7758 3.5 14.5 3.5H9.5ZM14.25 15H19.5C20.446 15 21.3152 14.6713 22 14.1223V18C22 20.2093 20.2093 22 18 22H6C3.79075 22 2 20.2093 2 18V14.1223C2.68475 14.6713 3.554 15 4.5 15H9.75C9.75 15.8285 10.4215 16.5 11.25 16.5H12.75C13.5785 16.5 14.25 15.8285 14.25 15Z" fill="black"/>
</svg>
