<svg width="24" height="24" viewBox="0 0 24 24" fill="none" xmlns="http://www.w3.org/2000/svg">
<path fill-rule="evenodd" clip-rule="evenodd" d="M15 4C15 3.72425 14.7758 3.5 14.5 3.5H9.5C9.22425 3.5 9 3.72425 9 4V6H15V4ZM7.5 4V6H6C3.79075 6 2 7.79075 2 10V11V18C2 20.2093 3.79075 22 6 22H18C20.2093 22 22 20.2093 22 18V11V10C22 7.79075 20.2093 6 18 6H16.5V4C16.5 2.8955 15.6045 2 14.5 2H9.5C8.3955 2 7.5 2.8955 7.5 4ZM3.5 18V14.1228C4.18478 14.6717 5.05403 15 6 15H9.75C9.75 15.8285 10.4215 16.5 11.25 16.5H12.75C13.5785 16.5 14.25 15.8285 14.25 15H18C18.946 15 19.8152 14.6717 20.5 14.1228V18C20.5 19.3785 19.3785 20.5 18 20.5H6C4.6215 20.5 3.5 19.3785 3.5 18ZM14.25 13.5H18C19.3785 13.5 20.5 12.3785 20.5 11V10C20.5 8.6215 19.3785 7.5 18 7.5H16.5H7.5H6C4.6215 7.5 3.5 8.6215 3.5 10V11C3.5 12.3785 4.6215 13.5 6 13.5H9.75C9.75 12.6715 10.4215 12 11.25 12H12.75C13.5785 12 14.25 12.6715 14.25 13.5Z" fill="black"/>
</svg>
