<svg width="24" height="24" viewBox="0 0 24 24" fill="none" xmlns="http://www.w3.org/2000/svg">
<path fill-rule="evenodd" clip-rule="evenodd" d="M8.75012 2C8.75012 1.58579 8.41434 1.25 8.00012 1.25C7.58591 1.25 7.25012 1.58579 7.25012 2V6C7.25012 6.41421 7.58591 6.75 8.00012 6.75C8.41434 6.75 8.75012 6.41421 8.75012 6V2ZM23.922 16.5276C24.106 17.0804 23.9595 17.6771 23.5398 18.0846L23.5403 18.0844L21.9983 19.5812C21.924 19.6532 21.8906 19.7584 21.9086 19.8624L22.2728 21.9777C22.349 22.4215 22.225 22.8715 21.9321 23.2125C21.6386 23.554 21.2128 23.7498 20.7633 23.7498C20.5163 23.7498 20.2688 23.6885 20.0473 23.5725L18.1311 22.5692C18.0901 22.548 18.0461 22.537 18.0004 22.537C17.9546 22.537 17.9106 22.5477 17.8696 22.5692L15.9534 23.5727C15.7319 23.6888 15.4844 23.75 15.2374 23.75C14.7879 23.75 14.3619 23.5542 14.0687 23.2127C13.7757 22.8717 13.6515 22.4217 13.728 21.978L14.0922 19.8627C14.1102 19.7584 14.0764 19.6534 14.0024 19.5814L12.4605 18.0846C12.0407 17.6771 11.8942 17.0806 12.0782 16.5276C12.261 15.9786 12.7332 15.5856 13.311 15.5021L15.4479 15.1928C15.5422 15.1793 15.6244 15.1183 15.6684 15.0296L16.6254 13.0983C16.8846 12.575 17.4114 12.25 18.0001 12.25C18.5889 12.25 19.1156 12.575 19.3748 13.0983L20.3318 15.0296C20.3758 15.1181 20.4583 15.1793 20.5523 15.1928L22.6893 15.5021C23.267 15.5856 23.7393 15.9786 23.922 16.5276ZM16.0001 1.25C16.4143 1.25 16.7501 1.58579 16.7501 2V6C16.7501 6.41421 16.4143 6.75 16.0001 6.75C15.5859 6.75 15.2501 6.41421 15.2501 6V2C15.2501 1.58579 15.5859 1.25 16.0001 1.25ZM12.5081 20.221L12.2494 21.7227L12.2496 21.7233C12.2336 21.8155 12.2224 21.9078 12.2151 22H6.00012C3.79087 22 2.00012 20.2093 2.00012 18V7C2.00012 4.79075 3.79087 3 6.00012 3H6.25012V6C6.25012 6.965 7.03512 7.75 8.00012 7.75C8.96512 7.75 9.75012 6.965 9.75012 6V3H14.2501V6C14.2501 6.965 15.0351 7.75 16.0001 7.75C16.9651 7.75 17.7501 6.965 17.7501 6V3H18.0001C20.2094 3 22.0001 4.79075 22.0001 7V13.8865L21.3964 13.799L20.7189 12.432C20.4669 11.9235 20.0794 11.498 19.5986 11.2013C19.1201 10.906 18.5674 10.75 18.0001 10.75C17.4329 10.75 16.8801 10.906 16.4016 11.2013C15.9206 11.4978 15.5334 11.9235 15.2814 12.432L14.6039 13.799L13.0961 14.0173C12.5386 14.0978 12.0166 14.3295 11.5871 14.6867C11.1554 15.046 10.8329 15.5185 10.6549 16.0535C10.4751 16.5935 10.4514 17.169 10.5861 17.7177C10.7206 18.2652 11.0074 18.7643 11.4156 19.1605L12.5081 20.221Z" fill="black"/>
</svg>
