<svg width="24" height="24" viewBox="0 0 24 24" fill="none" xmlns="http://www.w3.org/2000/svg">
<path fill-rule="evenodd" clip-rule="evenodd" d="M15.308 4.16725C14.2613 3.7245 13.1482 3.5 12 3.5C10.852 3.5 9.739 3.7245 8.692 4.16725C7.68 4.59525 6.77075 5.2085 5.98975 5.9895C5.20875 6.7705 4.5955 7.67975 4.1675 8.69175C3.72475 9.73875 3.50025 10.852 3.50025 12C3.50025 13.148 3.72475 14.261 4.1675 15.308C4.5955 16.32 5.20875 17.2292 5.98975 18.0102C6.77075 18.7912 7.68 19.4045 8.692 19.8325C9.73875 20.2753 10.852 20.4998 12 20.4998C13.148 20.4998 14.261 20.2753 15.308 19.8325C16.32 19.4045 17.2292 18.7912 18.0102 18.0102C18.7915 17.2292 19.4045 16.32 19.8325 15.308C20.2753 14.2613 20.4998 13.1482 20.4998 12C20.4998 10.8518 20.2753 9.73875 19.8325 8.69175C19.4045 7.67975 18.7912 6.7705 18.0102 5.9895C17.2292 5.20825 16.32 4.59525 15.308 4.16725ZM2 12C2 6.47725 6.47725 2 12 2C17.5228 2 22 6.47725 22 12C22 17.5228 17.5228 22 12 22C6.47725 22 2 17.5228 2 12ZM16.5762 9.72089C16.8413 9.40268 16.7983 8.92976 16.4801 8.66458C16.1619 8.39941 15.689 8.4424 15.4238 8.76061L11.1247 13.9195C11.0308 14.0322 10.86 14.0401 10.7561 13.9362L8.53033 11.7104C8.23744 11.4175 7.76256 11.4175 7.46967 11.7104C7.17678 12.0033 7.17678 12.4782 7.46967 12.7711L9.69542 14.9968C10.423 15.7244 11.6187 15.6703 12.2773 14.8795L16.5762 9.72089Z" fill="black"/>
</svg>
