<svg width="24" height="24" viewBox="0 0 24 24" fill="none" xmlns="http://www.w3.org/2000/svg">
<path fill-rule="evenodd" clip-rule="evenodd" d="M15 4C15 3.72425 14.7758 3.5 14.5 3.5H9.5C9.22425 3.5 9 3.72425 9 4V5C9 5.27575 9.22425 5.5 9.5 5.5H14.5C14.7758 5.5 15 5.27575 15 5V4ZM9.5 2H14.5C15.2431 2 15.8915 2.4053 16.2364 3.00687C18.3356 3.12917 20 4.8701 20 7V18C20 20.2093 18.2093 22 16 22H8C5.79075 22 4 20.2093 4 18V7C4 4.8701 5.66443 3.12917 7.76364 3.00687C8.10849 2.4053 8.75695 2 9.5 2ZM8.25 17C8.25 16.5858 8.58579 16.25 9 16.25H15C15.4142 16.25 15.75 16.5858 15.75 17C15.75 17.4142 15.4142 17.75 15 17.75H9C8.58579 17.75 8.25 17.4142 8.25 17ZM9 12.25C8.58579 12.25 8.25 12.5858 8.25 13C8.25 13.4142 8.58579 13.75 9 13.75H15C15.4142 13.75 15.75 13.4142 15.75 13C15.75 12.5858 15.4142 12.25 15 12.25H9Z" fill="black"/>
</svg>
