<svg width="24" height="24" viewBox="0 0 24 24" fill="none" xmlns="http://www.w3.org/2000/svg">
<path fill-rule="evenodd" clip-rule="evenodd" d="M15 4C15 3.72425 14.7758 3.5 14.5 3.5H9.5C9.22425 3.5 9 3.72425 9 4V5C9 5.27575 9.22425 5.5 9.5 5.5H14.5C14.7758 5.5 15 5.27575 15 5V4ZM9.5 2H14.5C15.2431 2 15.8915 2.4053 16.2364 3.00687C18.3356 3.12917 20 4.8701 20 7V9.75C20 10.1643 19.6643 10.5 19.25 10.5C18.8358 10.5 18.5 10.1643 18.5 9.75V7C18.5 5.79048 17.6411 4.78163 16.5 4.55001V5C16.5 6.1045 15.6045 7 14.5 7H9.5C8.3955 7 7.5 6.1045 7.5 5V4.55023C6.36026 4.7825 5.5 5.79268 5.5 7V18C5.5 19.3785 6.6215 20.5 8 20.5H9.75C10.1643 20.5 10.5 20.8358 10.5 21.25C10.5 21.6643 10.1643 22 9.75 22H8C5.79075 22 4 20.2093 4 18V7C4 4.8701 5.66443 3.12917 7.76364 3.00687C8.10849 2.4053 8.75695 2 9.5 2ZM12 18C12 14.6863 14.6863 12 18 12C21.3137 12 24 14.6863 24 18C24 21.3137 21.3137 24 18 24C14.6863 24 12 21.3137 12 18ZM18.5 18.5H20.75C21.0262 18.5 21.25 18.2762 21.25 18C21.25 17.7238 21.0262 17.5 20.75 17.5H18.5V15.25C18.5 14.9738 18.2762 14.75 18 14.75C17.7238 14.75 17.5 14.9738 17.5 15.25V17.5H15.25C14.9738 17.5 14.75 17.7238 14.75 18C14.75 18.2762 14.9738 18.5 15.25 18.5H17.5V20.75C17.5 21.0262 17.7238 21.25 18 21.25C18.2762 21.25 18.5 21.0262 18.5 20.75V18.5Z" fill="black"/>
</svg>
