<svg width="24" height="24" viewBox="0 0 24 24" fill="none" xmlns="http://www.w3.org/2000/svg">
<path d="M12 2C6.47725 2 2 6.47725 2 12C2 17.5228 6.47725 22 12 22C17.5228 22 22 17.5228 22 12C22 6.47725 17.5228 2 12 2ZM16.0695 15.488C15.9213 15.661 15.711 15.75 15.4997 15.75C15.327 15.75 15.1535 15.6908 15.012 15.5695L12.2105 13.1682C11.6003 12.645 11.2503 11.884 11.2503 11.0802V7.5C11.2503 7.08575 11.586 6.75 12.0003 6.75C12.4145 6.75 12.7503 7.08575 12.7503 7.5V11.0802C12.7503 11.4455 12.9092 11.7915 13.1867 12.0293L15.9883 14.4305C16.3028 14.7 16.3393 15.1735 16.0695 15.488Z" fill="black"/>
</svg>
