<svg width="24" height="24" viewBox="0 0 24 24" fill="none" xmlns="http://www.w3.org/2000/svg">
<path fill-rule="evenodd" clip-rule="evenodd" d="M15.6892 5.29561C15.8523 4.91489 15.676 4.47399 15.2953 4.31083C14.9146 4.14767 14.4737 4.32403 14.3105 4.70474L8.31083 18.7044C8.14767 19.0851 8.32403 19.526 8.70473 19.6892C9.08543 19.8523 9.52632 19.676 9.68948 19.2953L15.6892 5.29561ZM6.90888 7.46966C7.20178 7.76255 7.20179 8.23742 6.9089 8.53032L3.96965 11.4697C3.67678 11.7625 3.67678 12.2375 3.96965 12.5303L6.9089 15.4697C7.20179 15.7626 7.20178 16.2374 6.90888 16.5303C6.61599 16.8232 6.14111 16.8232 5.84822 16.5303L2.90897 13.591C2.03034 12.7123 2.03034 11.2877 2.90897 10.409L5.84822 7.46968C6.14111 7.17678 6.61599 7.17677 6.90888 7.46966ZM17.0912 7.46966C17.3841 7.17677 17.8589 7.17678 18.1518 7.46968L21.0911 10.409C21.9697 11.2877 21.9697 12.7123 21.0911 13.591L18.1518 16.5303C17.8589 16.8232 17.3841 16.8232 17.0912 16.5303C16.7983 16.2374 16.7983 15.7626 17.0912 15.4697L20.0304 12.5303C20.3233 12.2375 20.3233 11.7625 20.0304 11.4697L17.0912 8.53032C16.7983 8.23742 16.7983 7.76255 17.0912 7.46966Z" fill="black"/>
</svg>
