<svg width="24" height="24" viewBox="0 0 24 24" fill="none" xmlns="http://www.w3.org/2000/svg">
<path fill-rule="evenodd" clip-rule="evenodd" d="M15.9189 5.39413C16.1364 4.88652 15.9013 4.29866 15.3937 4.08111C14.8861 3.86356 14.2983 4.0987 14.0807 4.60632L8.08111 18.6059C7.86356 19.1135 8.0987 19.7013 8.6063 19.9189C9.1139 20.1364 9.70174 19.9013 9.91928 19.3937L15.9189 5.39413ZM7.08567 7.2929C7.47619 7.68343 7.47619 8.31662 7.08567 8.70715L4.14642 11.6465C3.95119 11.8417 3.95119 12.1583 4.14642 12.3535L7.08567 15.2929C7.47619 15.6834 7.47619 16.3166 7.08567 16.7071C6.69514 17.0976 6.06198 17.0976 5.67146 16.7071L2.73221 13.7678C1.75593 12.7915 1.75593 11.2085 2.73221 10.2322L5.67146 7.2929C6.06198 6.90237 6.69514 6.90237 7.08567 7.2929ZM16.9144 7.2929C17.3049 6.90237 17.9381 6.90237 18.3286 7.2929L21.2679 10.2322C22.2441 11.2085 22.2441 12.7915 21.2679 13.7678L18.3286 16.7071C17.9381 17.0976 17.3049 17.0976 16.9144 16.7071C16.5239 16.3166 16.5239 15.6834 16.9144 15.2929L19.8536 12.3535C20.0489 12.1583 20.0489 11.8417 19.8536 11.6465L16.9144 8.70715C16.5239 8.31662 16.5239 7.68343 16.9144 7.2929Z" fill="black"/>
</svg>
