<svg width="24" height="24" viewBox="0 0 24 24" fill="none" xmlns="http://www.w3.org/2000/svg">
<path fill-rule="evenodd" clip-rule="evenodd" d="M2 12C2 6.47725 6.47725 2 12 2C17.5228 2 22 6.47725 22 12C22 17.5228 17.5228 22 12 22C6.47725 22 2 17.5228 2 12ZM8.55 6.9C8.88137 6.65147 9.35147 6.71863 9.6 7.05L12 10.25L14.4 7.05C14.6485 6.71863 15.1186 6.65147 15.45 6.9C15.7814 7.14853 15.8485 7.61863 15.6 7.95L13.3125 11H14.5C14.9142 11 15.25 11.3358 15.25 11.75C15.25 12.1642 14.9142 12.5 14.5 12.5H12.75V13.5H14.5C14.9142 13.5 15.25 13.8358 15.25 14.25C15.25 14.6642 14.9142 15 14.5 15H12.75V16.5C12.75 16.9142 12.4142 17.25 12 17.25C11.5858 17.25 11.25 16.9142 11.25 16.5V15H9.5C9.08579 15 8.75 14.6642 8.75 14.25C8.75 13.8358 9.08579 13.5 9.5 13.5H11.25V12.5H9.5C9.08579 12.5 8.75 12.1642 8.75 11.75C8.75 11.3358 9.08579 11 9.5 11H10.6875L8.4 7.95C8.15147 7.61863 8.21863 7.14853 8.55 6.9Z" fill="black"/>
</svg>
