<svg width="24" height="24" viewBox="0 0 24 24" fill="none" xmlns="http://www.w3.org/2000/svg">
<path fill-rule="evenodd" clip-rule="evenodd" d="M17.9853 4H6.01475C3.7975 4 2 5.7975 2 8.01475V15.9852C2 18.2025 3.7975 20 6.01475 20H17.9853C20.2025 20 22 18.2025 22 15.9852V8.01475C22 5.7975 20.2025 4 17.9853 4ZM8.5 11C9.32843 11 10 10.3284 10 9.5C10 8.67157 9.32843 8 8.5 8C7.67157 8 7 8.67157 7 9.5C7 10.3284 7.67157 11 8.5 11ZM5.5 13C5.5 14.6567 6.84325 16 8.5 16C10.1567 16 11.5 14.6567 11.5 13C11.5 12.4478 11.0523 12 10.5 12H6.5C5.94775 12 5.5 12.4478 5.5 13ZM13.25 10C13.25 9.58579 13.5858 9.25 14 9.25H18C18.4142 9.25 18.75 9.58579 18.75 10C18.75 10.4142 18.4142 10.75 18 10.75H14C13.5858 10.75 13.25 10.4142 13.25 10ZM14 13.25C13.5858 13.25 13.25 13.5858 13.25 14C13.25 14.4142 13.5858 14.75 14 14.75H18C18.4142 14.75 18.75 14.4142 18.75 14C18.75 13.5858 18.4142 13.25 18 13.25H14Z" fill="black"/>
</svg>
