<svg width="24" height="24" viewBox="0 0 24 24" fill="none" xmlns="http://www.w3.org/2000/svg">
<path fill-rule="evenodd" clip-rule="evenodd" d="M22 8.01475V9H2V8.01475C2 5.7975 3.7975 4 6.01475 4H17.9853C20.2025 4 22 5.7975 22 8.01475ZM11.09 15.0803C10.6985 16.0058 10.5 16.9883 10.5 18C10.5 18.683 10.5908 19.3523 10.77 20H6.01475C3.7975 20 2 18.2025 2 15.9852V10.5H18C16.9883 10.5 16.0057 10.6985 15.0802 11.09C14.187 11.468 13.385 12.0085 12.6968 12.6968C12.0085 13.385 11.4677 14.187 11.09 15.0803ZM18 10.5H22V11.6545C21.6572 11.4383 21.2968 11.2495 20.9198 11.09C19.9943 10.6985 19.0117 10.5 18 10.5ZM12 18C12 14.6863 14.6863 12 18 12C21.3137 12 24 14.6863 24 18C24 21.3137 21.3137 24 18 24C14.6863 24 12 21.3137 12 18ZM20.3535 20.3538C20.5488 20.1583 20.5488 19.8417 20.3535 19.6465L18.707 18L20.3535 16.3535C20.5488 16.158 20.5488 15.8415 20.3535 15.6462C20.1583 15.451 19.8417 15.451 19.6465 15.6462L18 17.2928L16.3535 15.6462C16.1583 15.451 15.8417 15.4507 15.6465 15.6462C15.4512 15.8417 15.4512 16.1583 15.6465 16.3535L17.293 18L15.6465 19.6465C15.4512 19.842 15.4512 20.1585 15.6465 20.3538C15.744 20.4515 15.872 20.5003 16 20.5003C16.128 20.5003 16.2558 20.4515 16.3535 20.3538L18 18.7072L19.6465 20.3538C19.744 20.4515 19.872 20.5003 20 20.5003C20.128 20.5003 20.2558 20.4515 20.3535 20.3538Z" fill="black"/>
</svg>
