<svg width="24" height="24" viewBox="0 0 24 24" fill="none" xmlns="http://www.w3.org/2000/svg">
<path fill-rule="evenodd" clip-rule="evenodd" d="M20 4.5C20.2758 4.5 20.5 4.72425 20.5 5V6C20.5 6.27575 20.2758 6.5 20 6.5H4C3.72425 6.5 3.5 6.27575 3.5 6V5C3.5 4.72425 3.72425 4.5 4 4.5H20ZM20 3H4C2.8955 3 2 3.8955 2 5V6C2 7.1045 2.8955 8 4 8H20C21.1045 8 22 7.1045 22 6V5C22 3.8955 21.1045 3 20 3ZM15 11C15.2758 11 15.5 11.2243 15.5 11.5V12.5C15.5 12.7758 15.2758 13 15 13H4C3.72425 13 3.5 12.7758 3.5 12.5V11.5C3.5 11.2243 3.72425 11 4 11H15ZM15 9.5H4C2.8955 9.5 2 10.3955 2 11.5V12.5C2 13.6045 2.8955 14.5 4 14.5H15C16.1045 14.5 17 13.6045 17 12.5V11.5C17 10.3955 16.1045 9.5 15 9.5ZM10.5 18C10.5 17.7242 10.2758 17.5 10 17.5H4C3.72425 17.5 3.5 17.7242 3.5 18V19C3.5 19.2758 3.72425 19.5 4 19.5H10C10.2758 19.5 10.5 19.2758 10.5 19V18ZM4 16H10C11.1045 16 12 16.8955 12 18V19C12 20.1045 11.1045 21 10 21H4C2.8955 21 2 20.1045 2 19V18C2 16.8955 2.8955 16 4 16Z" fill="black"/>
</svg>
