<svg width="24" height="24" viewBox="0 0 24 24" fill="none" xmlns="http://www.w3.org/2000/svg">
<path fill-rule="evenodd" clip-rule="evenodd" d="M6 2H5C3.8955 2 3 2.8955 3 4V20C3 21.1045 3.8955 22 5 22H6C7.1045 22 8 21.1045 8 20V4C8 2.8955 7.1045 2 6 2ZM19 12H18C16.8955 12 16 12.8955 16 14V20C16 21.1045 16.8955 22 18 22H19C20.1045 22 21 21.1045 21 20V14C21 12.8955 20.1045 12 19 12ZM11.5 7H12.5C13.6045 7 14.5 7.8955 14.5 9V20C14.5 21.1045 13.6045 22 12.5 22H11.5C10.3955 22 9.5 21.1045 9.5 20V9C9.5 7.8955 10.3955 7 11.5 7Z" fill="black"/>
</svg>
