<svg width="24" height="24" viewBox="0 0 24 24" fill="none" xmlns="http://www.w3.org/2000/svg">
<path fill-rule="evenodd" clip-rule="evenodd" d="M20 4.5C20.2758 4.5 20.5 4.72425 20.5 5V6C20.5 6.27575 20.2758 6.5 20 6.5H4C3.72425 6.5 3.5 6.27575 3.5 6V5C3.5 4.72425 3.72425 4.5 4 4.5H20ZM20 3H4C2.8955 3 2 3.8955 2 5V6C2 7.1045 2.8955 8 4 8H20C21.1045 8 22 7.1045 22 6V5C22 3.8955 21.1045 3 20 3ZM17.5 11C17.7758 11 18 11.2243 18 11.5V12.5C18 12.7758 17.7758 13 17.5 13H6.5C6.22425 13 6 12.7758 6 12.5V11.5C6 11.2243 6.22425 11 6.5 11H17.5ZM17.5 9.5H6.5C5.3955 9.5 4.5 10.3955 4.5 11.5V12.5C4.5 13.6045 5.3955 14.5 6.5 14.5H17.5C18.6045 14.5 19.5 13.6045 19.5 12.5V11.5C19.5 10.3955 18.6045 9.5 17.5 9.5ZM15.5 18C15.5 17.7242 15.2758 17.5 15 17.5H9C8.72425 17.5 8.5 17.7242 8.5 18V19C8.5 19.2758 8.72425 19.5 9 19.5H15C15.2758 19.5 15.5 19.2758 15.5 19V18ZM9 16H15C16.1045 16 17 16.8955 17 18V19C17 20.1045 16.1045 21 15 21H9C7.8955 21 7 20.1045 7 19V18C7 16.8955 7.8955 16 9 16Z" fill="black"/>
</svg>
