<svg width="24" height="24" viewBox="0 0 24 24" fill="none" xmlns="http://www.w3.org/2000/svg">
<path fill-rule="evenodd" clip-rule="evenodd" d="M4.75 22H21.25C21.6643 22 22 21.6643 22 21.25C22 20.8358 21.6643 20.5 21.25 20.5H4.75C4.06075 20.5 3.5 19.9393 3.5 19.25V2.75C3.5 2.33575 3.16425 2 2.75 2C2.33575 2 2 2.33575 2 2.75V19.25C2 20.7663 3.23375 22 4.75 22ZM20 19H5V8.1896L7.5315 6.16437C7.80525 5.94512 8.1945 5.94512 8.4685 6.16437L12.955 9.75359L18.7305 4.20914C18.9472 4.00089 19.2675 3.94214 19.544 4.06014C19.8205 4.17814 20 4.44963 20 4.75013V19Z" fill="black"/>
</svg>
