<svg width="24" height="24" viewBox="0 0 24 24" fill="none" xmlns="http://www.w3.org/2000/svg">
<path fill-rule="evenodd" clip-rule="evenodd" d="M12.75 3.5C12.75 2.6715 13.4215 2 14.25 2C18.5303 2 22 5.46975 22 9.75C22 10.5785 21.3285 11.25 20.5 11.25H13.75C13.1977 11.25 12.75 10.8022 12.75 10.25V3.5ZM9.4585 3.67849C9.55697 3.65925 9.65443 3.65 9.7504 3.65C10.5584 3.65 11.2472 4.30655 11.2472 5.15055V11.7531C11.2472 12.3052 11.6948 12.7528 12.2469 12.7528H18.8499C19.7941 12.7528 20.5032 13.6148 20.3215 14.5415C19.4882 18.7927 15.7423 22 11.2472 22C6.14075 22 2 17.8595 2 12.7528C2 8.25762 5.20754 4.51174 9.4585 3.67849Z" fill="black"/>
</svg>
