<svg width="24" height="24" viewBox="0 0 24 24" fill="none" xmlns="http://www.w3.org/2000/svg">
<path fill-rule="evenodd" clip-rule="evenodd" d="M16 8H17H20V17.9852C20 20.2025 18.2025 22 15.9852 22H8.01475C5.7975 22 4 20.2025 4 17.9852V6.01475C4 3.7975 5.7975 2 8.01475 2H14V6C14 7.1045 14.8955 8 16 8ZM9 16.75H15C15.4143 16.75 15.75 16.4143 15.75 16C15.75 15.5858 15.4143 15.25 15 15.25H9C8.58575 15.25 8.25 15.5858 8.25 16C8.25 16.4143 8.58575 16.75 9 16.75ZM9 12.75H15C15.4143 12.75 15.75 12.4143 15.75 12C15.75 11.5857 15.4143 11.25 15 11.25H9C8.58575 11.25 8.25 11.5857 8.25 12C8.25 12.4143 8.58575 12.75 9 12.75ZM15.5 6V3.623V2.02775C15.9085 2.09575 16.289 2.289 16.5858 2.58575L19.4143 5.41425C19.711 5.711 19.9043 6.0915 19.9723 6.5H16C15.7242 6.5 15.5 6.27575 15.5 6Z" fill="black"/>
</svg>
