<svg width="24" height="24" viewBox="0 0 24 24" fill="none" xmlns="http://www.w3.org/2000/svg">
<path fill-rule="evenodd" clip-rule="evenodd" d="M15.1715 2H14H8.01475C5.7975 2 4 3.7975 4 6.01475V17.9852C4 20.2025 5.7975 22 8.01475 22H15.9852C18.2025 22 20 20.2025 20 17.9852V8V6.8285C20 6.298 19.7893 5.78925 19.4143 5.41425L16.5858 2.58575C16.2107 2.21075 15.702 2 15.1715 2ZM18.5 17.9852V8H16C14.8955 8 14 7.1045 14 6V3.5H8.01475C6.628 3.5 5.5 4.628 5.5 6.01475V17.9852C5.5 19.372 6.628 20.5 8.01475 20.5H15.9852C17.372 20.5 18.5 19.372 18.5 17.9852ZM15.525 3.6465C15.5169 3.63839 15.5086 3.63059 15.5 3.62312V6C15.5 6.27575 15.7242 6.5 16 6.5H18.3769C18.3694 6.49145 18.3616 6.48311 18.3535 6.475L15.525 3.6465ZM12.1707 12.5196C12.7239 12.6491 13.2959 12.7834 13.7791 13.0929C14.414 13.4996 14.7495 14.1374 14.7495 14.9374C14.7495 15.7899 14.2908 16.4722 13.4911 16.8097C13.2199 16.9242 12.9527 16.9812 12.7497 17.0095V17.75C12.7497 18.1642 12.414 18.5 11.9997 18.5C11.5855 18.5 11.2498 18.1642 11.2498 17.75V17.0185C10.6651 16.955 10.2559 16.7367 9.97568 16.4957C9.51698 16.1282 9.25975 15.5969 9.2505 14.9722C9.25 14.9574 9.25 14.9459 9.25 14.9374C9.25 14.5232 9.58572 14.1874 9.99993 14.1874C10.4141 14.1874 10.7499 14.5232 10.7499 14.9374C10.7499 14.9374 10.7504 14.9324 10.7499 14.9229C10.7499 14.923 10.7499 14.9233 10.7499 14.9238C10.7509 14.9375 10.7626 15.11 10.8641 15.2597C10.8851 15.2907 10.9091 15.3179 10.9348 15.3424C10.9713 15.3687 11.0146 15.3932 11.0661 15.4167C11.2751 15.5114 11.5235 15.5362 11.6043 15.5377H12.3962C12.477 15.5362 12.7257 15.5114 12.9344 15.4167C13.1976 15.2972 13.2504 15.1449 13.2504 14.9377C13.2504 14.4127 13.0244 14.2606 11.8293 13.9804C11.2761 13.8509 10.7041 13.7166 10.2209 13.4071C9.58597 13.0004 9.2505 12.3626 9.2505 11.5626C9.2505 10.7101 9.70921 10.0278 10.5089 9.69029C10.7801 9.57579 11.0473 9.51879 11.2503 9.49054V8.75002C11.2503 8.33576 11.586 8 12.0002 8C12.4145 8 12.7502 8.33576 12.7502 8.75002V9.48153C13.3349 9.54504 13.7441 9.76329 14.0243 10.0043C14.483 10.3718 14.7402 10.9031 14.7495 11.5278C14.75 11.5426 14.75 11.5541 14.75 11.5626C14.75 11.9768 14.4143 12.3126 14.0001 12.3126C13.5859 12.3126 13.2501 11.9768 13.2501 11.5626C13.2501 11.5626 13.2496 11.5676 13.2501 11.5771C13.2501 11.577 13.2501 11.5767 13.2501 11.5762C13.2491 11.5625 13.2374 11.39 13.1359 11.2403C13.1149 11.2093 13.0909 11.1821 13.0652 11.1576C13.0287 11.1313 12.9854 11.1068 12.9339 11.0833C12.7249 10.9886 12.4765 10.9638 12.3957 10.9623H11.6038C11.523 10.9638 11.2743 10.9886 11.0656 11.0833C10.8024 11.2028 10.7496 11.3551 10.7496 11.5623C10.7496 12.0873 10.9756 12.2394 12.1707 12.5196Z" fill="black"/>
</svg>
