<svg width="24" height="24" viewBox="0 0 24 24" fill="none" xmlns="http://www.w3.org/2000/svg">
<path fill-rule="evenodd" clip-rule="evenodd" d="M20.4291 13.1069C19.7747 13.6639 18.9266 14 18 14C17.174 14 16.4106 13.7325 15.7908 13.2801C15.2571 14.8615 13.7616 16 12 16C10.2384 16 8.74293 14.8615 8.20918 13.2801C7.58944 13.7328 6.82597 14 6 14C5.07894 14 4.23046 13.6679 3.57219 13.1169C3.67069 13.8708 3.86968 14.6043 4.16725 15.308C4.59525 16.32 5.2085 17.2292 5.9895 18.0102C6.7705 18.7912 7.67975 19.4045 8.69175 19.8325C9.73875 20.2753 10.8518 20.4998 12 20.4998C13.1482 20.4998 14.2613 20.2753 15.3083 19.8325C16.3203 19.4045 17.2295 18.7912 18.0105 18.0102C18.7915 17.2292 19.4048 16.32 19.8328 15.308C20.1317 14.6013 20.3311 13.8645 20.4291 13.1069ZM2 12C2 6.47725 6.47725 2 12 2C17.5228 2 22 6.47725 22 12C22 17.5228 17.5228 22 12 22C6.47725 22 2 17.5228 2 12ZM7.53033 9.03033C7.82322 8.73744 7.82322 8.26256 7.53033 7.96967C7.23744 7.67678 6.76256 7.67678 6.46967 7.96967L5.96967 8.46967C5.67678 8.76256 5.67678 9.23744 5.96967 9.53033C6.26256 9.82322 6.73744 9.82322 7.03033 9.53033L7.53033 9.03033ZM14.7803 5.21967C15.0732 5.51256 15.0732 5.98744 14.7803 6.28033L14.2803 6.78033C13.9874 7.07322 13.5126 7.07322 13.2197 6.78033C12.9268 6.48744 12.9268 6.01256 13.2197 5.71967L13.7197 5.21967C14.0126 4.92678 14.4874 4.92678 14.7803 5.21967ZM17.5303 7.96967C17.2374 7.67678 16.7626 7.67678 16.4697 7.96967C16.1768 8.26256 16.1768 8.73744 16.4697 9.03033L16.9697 9.53033C17.2626 9.82322 17.7374 9.82322 18.0303 9.53033C18.3232 9.23744 18.3232 8.76256 18.0303 8.46967L17.5303 7.96967ZM9.21967 5.21967C9.51256 4.92678 9.98744 4.92678 10.2803 5.21967L10.7803 5.71967C11.0732 6.01256 11.0732 6.48744 10.7803 6.78033C10.4874 7.07322 10.0126 7.07322 9.71967 6.78033L9.21967 6.28033C8.92678 5.98744 8.92678 5.51256 9.21967 5.21967ZM14.5 12C14.5 10.6215 13.3785 9.5 12 9.5C10.6215 9.5 9.5 10.6215 9.5 12C9.5 13.3785 10.6215 14.5 12 14.5C13.3785 14.5 14.5 13.3785 14.5 12ZM9.5855 11.351C9.59574 11.3178 9.60523 11.2843 9.61471 11.2509L9.61472 11.2509L9.61475 11.2508C9.60425 11.2838 9.59475 11.3173 9.5855 11.351ZM14.4145 11.351C14.4055 11.3173 14.3957 11.284 14.3852 11.2508C14.3945 11.2843 14.4042 11.3178 14.4145 11.351Z" fill="black"/>
</svg>
