<svg width="24" height="24" viewBox="0 0 24 24" fill="none" xmlns="http://www.w3.org/2000/svg">
<path fill-rule="evenodd" clip-rule="evenodd" d="M7.0179 5.2929C6.62737 4.90237 5.99421 4.90237 5.60368 5.2929C5.21316 5.68343 5.21316 6.31661 5.60368 6.70714L10.5429 11.6465C10.7382 11.8417 10.7382 12.1583 10.5429 12.3535L5.60368 17.2929C5.21316 17.6834 5.21316 18.3166 5.60368 18.7071C5.99421 19.0976 6.62737 19.0976 7.0179 18.7071L11.9571 13.7678C12.9334 12.7915 12.9334 11.2085 11.9571 10.2322L7.0179 5.2929ZM13.0179 5.2929C12.6274 4.90237 11.9942 4.90237 11.6037 5.2929C11.2132 5.68343 11.2132 6.31661 11.6037 6.70714L16.5429 11.6465C16.7382 11.8417 16.7382 12.1583 16.5429 12.3535L11.6037 17.2929C11.2132 17.6834 11.2132 18.3166 11.6037 18.7071C11.9942 19.0976 12.6274 19.0976 13.0179 18.7071L17.9571 13.7678C18.9334 12.7915 18.9334 11.2085 17.9571 10.2322L13.0179 5.2929Z" fill="black"/>
</svg>
