<svg width="24" height="24" viewBox="0 0 24 24" fill="none" xmlns="http://www.w3.org/2000/svg">
<path fill-rule="evenodd" clip-rule="evenodd" d="M12 3.5C13.1482 3.5 14.2613 3.7245 15.3083 4.16725C15.4309 4.21914 15.5521 4.27375 15.6718 4.33106C15.4475 4.57429 15.1959 4.85414 14.943 5.14925C14.488 5.68025 14.1228 6.15125 13.8573 6.5495C13.446 7.1665 13.2625 7.61775 13.2625 8.0125C13.2625 8.75025 13.7218 9.18325 14.057 9.49925L14.0576 9.49979C14.4513 9.87128 14.7625 10.1649 14.7625 11.0125C14.7625 11.816 14.3453 12.67 14.3418 12.677C14.2255 12.9095 14.2378 13.1855 14.3745 13.4068C14.5113 13.628 14.7525 13.7625 15.0125 13.7625H16.8503C17.0775 13.7625 17.2625 13.9475 17.2625 14.1747C17.2625 14.3525 17.1492 14.5095 16.9807 14.5658L16.963 14.5718C16.2063 14.824 15.5973 15.3913 15.292 16.1283C14.9867 16.8653 15.0162 17.697 15.373 18.4105L15.936 19.5364C15.7315 19.6433 15.5222 19.742 15.3083 19.8325C14.2613 20.2753 13.1482 20.4998 12 20.4998C10.8518 20.4998 9.73875 20.2753 8.69175 19.8325C8.24714 19.6445 7.82235 19.4207 7.41957 19.1626C7.3162 18.9131 7.20761 18.5742 7.17075 18.191C7.07475 17.1948 7.5095 16.3273 8.46225 15.6125C9.549 14.7973 10.0998 14.0173 10.1953 13.1578C10.2823 12.375 9.964 11.7385 9.68325 11.177C9.468 10.7467 9.28225 10.375 9.32025 10.0328C9.3655 9.62475 9.74975 9.14675 10.4623 8.6125C11.439 7.87975 11.9688 6.99175 12.037 5.97275C12.1005 5.02436 11.7332 4.15779 11.3461 3.52452C11.5627 3.50819 11.7807 3.5 12 3.5ZM17.2053 18.7211C17.4868 18.5024 17.7555 18.2653 18.0105 18.0102C18.7915 17.2292 19.4048 16.32 19.8328 15.308C20.2755 14.2613 20.5 13.1482 20.5 12C20.5 10.8518 20.2755 9.73875 19.8328 8.69175C19.4048 7.67975 18.7915 6.7705 18.0105 5.9895C17.6912 5.67021 17.3505 5.37895 16.9901 5.11693C16.7443 5.37848 16.4423 5.70799 16.139 6.05925C14.9258 7.4645 14.779 7.9535 14.7633 8.0245C14.771 8.0995 14.852 8.18725 15.086 8.408L15.0863 8.40828C15.5548 8.85003 16.2628 9.51756 16.2628 11.0125C16.2628 11.4538 16.183 11.8893 16.0825 12.2625H16.8505C17.905 12.2625 18.7628 13.1203 18.7628 14.1747C18.7628 14.9993 18.2373 15.7283 17.4553 15.989L17.4375 15.995C17.0935 16.1098 16.8167 16.3675 16.678 16.7025C16.5393 17.0375 16.5528 17.4155 16.7148 17.74L17.2053 18.7211ZM7.5625 14.4125C6.1594 15.4646 5.72483 16.671 5.66518 17.6678C5.0371 16.9674 4.53412 16.1755 4.16725 15.308C3.7245 14.261 3.5 13.148 3.5 12C3.5 10.852 3.7245 9.73875 4.16725 8.69175C4.59525 7.67975 5.2085 6.7705 5.9895 5.9895C6.7705 5.2085 7.67975 4.59525 8.69175 4.16725C9.02674 4.02559 9.36848 3.90628 9.71597 3.80951C10.0427 4.21465 10.5967 5.03385 10.5405 5.87275C10.5023 6.444 10.1825 6.9475 9.5625 7.4125C8.47575 8.22775 7.925 9.00775 7.8295 9.86725C7.7425 10.65 8.06075 11.2865 8.3415 11.848C8.55675 12.2782 8.7425 12.65 8.7045 12.9923C8.65925 13.4003 8.275 13.8783 7.5625 14.4125ZM12 2C6.47725 2 2 6.47725 2 12C2 17.5228 6.47725 22 12 22C17.5228 22 22 17.5228 22 12C22 6.47725 17.5228 2 12 2Z" fill="black"/>
</svg>
