<svg width="24" height="24" viewBox="0 0 24 24" fill="none" xmlns="http://www.w3.org/2000/svg">
<path fill-rule="evenodd" clip-rule="evenodd" d="M2 12C2 6.47725 6.47725 2 12 2C17.5228 2 22 6.47725 22 12C22 17.5228 17.5228 22 12 22C6.47725 22 2 17.5228 2 12ZM10 9.76075C10 10.4511 9.44036 11.0107 8.75 11.0107C8.05964 11.0107 7.5 10.4511 7.5 9.76075C7.5 9.07039 8.05964 8.51075 8.75 8.51075C9.44036 8.51075 10 9.07039 10 9.76075ZM15.25 11.0107C15.9404 11.0107 16.5 10.4511 16.5 9.76075C16.5 9.07039 15.9404 8.51075 15.25 8.51075C14.5596 8.51075 14 9.07039 14 9.76075C14 10.4511 14.5596 11.0107 15.25 11.0107ZM8 14.25C7.58579 14.25 7.25 14.5858 7.25 15C7.25 15.4142 7.58579 15.75 8 15.75H16C16.4142 15.75 16.75 15.4142 16.75 15C16.75 14.5858 16.4142 14.25 16 14.25H8Z" fill="black"/>
</svg>
