<svg width="24" height="24" viewBox="0 0 24 24" fill="none" xmlns="http://www.w3.org/2000/svg">
<path fill-rule="evenodd" clip-rule="evenodd" d="M15.3083 4.16725C14.2613 3.7245 13.1482 3.5 12 3.5C10.8518 3.5 9.73875 3.7245 8.69175 4.16725C7.67975 4.59525 6.7705 5.2085 5.9895 5.9895C5.2085 6.7705 4.59525 7.67975 4.16725 8.69175C3.7245 9.7385 3.5 10.8518 3.5 11.9997C3.5 13.1477 3.7245 14.2607 4.16725 15.3078C4.59525 16.3197 5.2085 17.229 5.9895 18.01C6.7705 18.791 7.67975 19.4042 8.69175 19.8322C9.73875 20.275 10.8518 20.4995 12 20.4995C13.1482 20.4995 14.2613 20.275 15.3083 19.8322C16.3203 19.4042 17.2295 18.791 18.0105 18.01C18.7915 17.229 19.4048 16.3197 19.8328 15.3078C20.2755 14.261 20.5 13.1477 20.5 11.9997C20.5 10.8518 20.2755 9.73875 19.8328 8.69175C19.4048 7.67975 18.7915 6.7705 18.0105 5.9895C17.2295 5.2085 16.3203 4.59525 15.3083 4.16725ZM2 12C2 6.47725 6.47725 2 12 2C17.5228 2 22 6.47725 22 12C22 17.5228 17.5228 22 12 22C6.47725 22 2 17.5228 2 12ZM10 9.76075C10 10.4511 9.44036 11.0107 8.75 11.0107C8.05964 11.0107 7.5 10.4511 7.5 9.76075C7.5 9.07039 8.05964 8.51075 8.75 8.51075C9.44036 8.51075 10 9.07039 10 9.76075ZM15.25 11.0107C15.9404 11.0107 16.5 10.4511 16.5 9.76075C16.5 9.07039 15.9404 8.51075 15.25 8.51075C14.5596 8.51075 14 9.07039 14 9.76075C14 10.4511 14.5596 11.0107 15.25 11.0107ZM8.6 16.2C8.3515 16.5313 7.88125 16.5985 7.55 16.35C7.21875 16.1015 7.1515 15.6313 7.4 15.3C8.101 14.3658 9.07825 13.6747 10.2263 13.3018C11.088 13.0218 11.8018 13 12 13C13.168 13 14.307 13.3673 15.2943 14.062C16.0355 14.5835 16.481 15.1415 16.6 15.3C16.8485 15.6315 16.7813 16.1015 16.45 16.35C16.1188 16.5985 15.6485 16.5313 15.4 16.2C15.2695 16.026 14.0653 14.5 12 14.5C11.7825 14.5 9.83925 14.5478 8.6 16.2Z" fill="black"/>
</svg>
