<svg width="24" height="24" viewBox="0 0 24 24" fill="none" xmlns="http://www.w3.org/2000/svg">
<path fill-rule="evenodd" clip-rule="evenodd" d="M2 12C2 6.47725 6.47725 2 12 2C17.5228 2 22 6.47725 22 12C22 17.5228 17.5228 22 12 22C6.47725 22 2 17.5228 2 12ZM10 9.75C10 10.4404 9.44036 11 8.75 11C8.05964 11 7.5 10.4404 7.5 9.75C7.5 9.05964 8.05964 8.5 8.75 8.5C9.44036 8.5 10 9.05964 10 9.75ZM16.5 9.75C16.5 10.4404 15.9404 11 15.25 11C14.5596 11 14 10.4404 14 9.75C14 9.05964 14.5596 8.5 15.25 8.5C15.9404 8.5 16.5 9.05964 16.5 9.75ZM16.45 14.15C16.1187 13.9015 15.6485 13.9687 15.4 14.3C14.1607 15.9522 12.2175 16 12 16C9.93475 16 8.7305 14.474 8.6 14.3C8.3515 13.9687 7.88125 13.9015 7.55 14.15C7.21875 14.3985 7.1515 14.8685 7.4 15.2C7.519 15.3585 7.96451 15.9165 8.70576 16.438C9.69301 17.1327 10.832 17.5 12 17.5C12.1982 17.5 12.912 17.4782 13.7738 17.1982C14.9218 16.8252 15.899 16.1342 16.6 15.2C16.8485 14.8687 16.7812 14.3985 16.45 14.15Z" fill="black"/>
</svg>
