<svg width="24" height="24" viewBox="0 0 24 24" fill="none" xmlns="http://www.w3.org/2000/svg">
<path fill-rule="evenodd" clip-rule="evenodd" d="M13 8C13 9.65685 11.6569 11 10 11C8.60212 11 7.42755 10.0439 7.09451 8.75H5C4.58579 8.75 4.25 8.41421 4.25 8C4.25 7.58579 4.58579 7.25 5 7.25H7.09451C7.42755 5.95608 8.60212 5 10 5C11.6569 5 13 6.34315 13 8ZM16.9055 16.75C16.5725 18.0439 15.3979 19 14 19C12.3431 19 11 17.6569 11 16C11 14.3431 12.3431 13 14 13C15.3979 13 16.5725 13.9561 16.9055 15.25H19C19.4142 15.25 19.75 15.5858 19.75 16C19.75 16.4142 19.4142 16.75 19 16.75H16.9055ZM19 7.25H13.9295C13.9763 7.4955 14 7.746 14 8C14 8.254 13.9763 8.5045 13.9295 8.75H19C19.4143 8.75 19.75 8.41425 19.75 8C19.75 7.58575 19.4143 7.25 19 7.25ZM10.0705 15.25C10.0238 15.4955 10 15.746 10 16C10 16.254 10.0238 16.5045 10.0705 16.75H5C4.58575 16.75 4.25 16.4143 4.25 16C4.25 15.5857 4.58575 15.25 5 15.25H10.0705Z" fill="black"/>
</svg>
