<svg width="24" height="24" viewBox="0 0 24 24" fill="none" xmlns="http://www.w3.org/2000/svg">
<path fill-rule="evenodd" clip-rule="evenodd" d="M21.1867 5.0515C21.4792 5.34375 21.7607 5.6525 22.0232 5.9695L22.0228 5.97C22.1693 6.147 22.25 6.372 22.25 6.60375V6.61375C22.25 7.03925 21.9915 7.40725 21.5912 7.55125C21.4782 7.592 21.3625 7.61175 21.2485 7.61175C20.9585 7.61175 20.6797 7.484 20.4847 7.24825C20.2617 6.97875 20.0222 6.71575 19.7732 6.467C17.6962 4.3925 14.9357 3.25025 12.0001 3.25025C10.5438 3.25025 9.12833 3.5315 7.79256 4.08675C7.41606 4.24325 6.98705 4.15875 6.6998 3.8715C6.46329 3.635 6.36104 3.29825 6.42604 2.97025C6.49129 2.64175 6.71455 2.369 7.0238 2.2405C8.60382 1.58325 10.2781 1.25 12.0004 1.25C15.4694 1.25 18.732 2.6 21.1867 5.0515ZM2.40801 7.55899C2.52126 7.59975 2.63701 7.6195 2.75101 7.6195C3.04227 7.6195 3.32227 7.491 3.51802 7.254C4.05228 6.6075 4.66079 6.02125 5.32705 5.51125C5.55655 5.33549 5.69905 5.07 5.71805 4.7825C5.7368 4.49725 5.6318 4.21749 5.42979 4.0155L5.42229 4.008C5.0713 3.657 4.50979 3.619 4.11628 3.92C3.32827 4.52275 2.60826 5.21625 1.97625 5.98075C1.83025 6.15725 1.75 6.382 1.75 6.61349V6.622C1.75 7.0475 2.00826 7.41525 2.40776 7.55899H2.40801ZM19.067 7.17425C19.9315 8.0375 20.6222 9.03525 21.1202 10.1393C21.3977 10.7542 21.6127 11.399 21.7595 12.0558C21.8408 12.4198 21.7235 12.7955 21.4537 13.0363C21.2657 13.2038 21.031 13.292 20.79 13.292C20.6865 13.292 20.582 13.2757 20.4795 13.2428C20.1382 13.1328 19.8885 12.858 19.811 12.5083C19.483 11.0265 18.737 9.67125 17.6537 8.5895C16.4672 7.4045 14.9734 6.63375 13.3339 6.3605C12.8511 6.28 12.5006 5.86525 12.5006 5.37425C12.5006 5.08 12.6294 4.80225 12.8539 4.612C13.0796 4.42075 13.3769 4.339 13.6694 4.388C15.7179 4.73025 17.5844 5.69375 19.067 7.17425ZM4.32327 17.4502C4.02351 15.8467 4.00026 14.5955 4.00026 14.25C4.00026 12.3505 4.68052 10.5078 5.91603 9.06175C7.1378 7.6315 8.82432 6.67275 10.6651 6.36225C11.1491 6.2805 11.5006 5.86575 11.5006 5.37575C11.5006 5.08075 11.3714 4.802 11.1459 4.6115C10.9208 4.42125 10.6251 4.34 10.3348 4.389C8.03281 4.77675 5.92378 5.97475 4.39626 7.76275C3.63876 8.64925 3.04749 9.649 2.63874 10.7342C2.21548 11.858 2.00073 13.0407 2.00073 14.2503C2.00073 14.6525 2.02824 16.1073 2.38124 17.9403C2.47174 18.4095 2.88449 18.7502 3.36325 18.7502C3.66425 18.7502 3.94651 18.6168 4.13726 18.3835C4.32777 18.1507 4.40302 17.8483 4.34377 17.5535C4.33601 17.5153 4.32926 17.4805 4.32351 17.4502H4.32327ZM18.2487 17.75H18.2552V17.7495C18.8042 17.7502 19.2505 18.1973 19.2505 18.7463V18.7528C19.2505 19.3022 18.8035 19.7495 18.2537 19.7495H18.2215C17.279 19.7495 16.4972 19.5087 15.8969 19.0337C15.3872 18.6305 14.9647 18.0373 14.6412 17.2705C14.0347 15.8333 14.0017 14.3068 14.0007 14.2425V14.2395C13.9979 13.6717 13.7637 13.1485 13.3414 12.7655C12.9967 12.453 12.5501 12.2705 12.0839 12.2515C11.5346 12.2287 11.0131 12.4265 10.6164 12.8075C10.2191 13.1888 10.0004 13.701 10.0004 14.2497C10.0004 14.375 10.0101 15.5138 10.3471 16.9445C10.5446 17.7833 10.8176 18.5683 11.1584 19.277C11.4806 19.9473 11.8676 20.5568 12.3091 21.088C12.5736 21.3815 12.6384 21.7898 12.4774 22.1535C12.3146 22.5215 11.9641 22.75 11.5626 22.75H11.5589C11.2626 22.75 10.9844 22.621 10.7959 22.3958C10.2389 21.731 9.75436 20.9732 9.3556 20.1437C8.95235 19.3048 8.63084 18.3827 8.40009 17.4033C8.01933 15.787 8.00008 14.493 8.00008 14.25C8.00008 12.0493 9.79061 10.255 11.9911 10.25H11.9999C13.0524 10.25 14.0822 10.676 14.8269 11.4198C15.5734 12.1652 15.9899 13.1565 16.0002 14.211C16.0027 14.287 16.0459 15.456 16.4837 16.4935C16.6722 16.9403 16.8982 17.2765 17.1377 17.466C17.376 17.6545 17.7402 17.75 18.2205 17.75H18.2487ZM18.2467 20.75H18.2505H18.2507C18.8 20.75 19.2487 21.197 19.2507 21.7463C19.2527 22.2975 18.806 22.748 18.2545 22.75H18.2215C16.3134 22.75 14.7247 22.131 13.4991 20.91C11.0291 18.449 11.0006 14.4202 11.0006 14.25C11.0006 13.6985 11.4501 13.25 12.0006 13.25C12.5511 13.25 12.9999 13.698 13.0006 14.2485C13.0006 14.2653 13.0184 15.9975 13.7199 17.6598C14.1094 18.5833 14.6332 19.3095 15.2764 19.8185C16.0577 20.4368 17.0482 20.75 18.221 20.75H18.2467ZM7.42706 17.6325C7.27331 16.9795 7.15831 16.3097 7.08531 15.6418C7.02981 15.1333 6.60255 14.75 6.09155 14.75C5.80804 14.75 5.53704 14.871 5.34779 15.082C5.15828 15.2935 5.06703 15.5768 5.09803 15.8595C5.18003 16.6113 5.30878 17.3623 5.48054 18.0913C5.64254 18.779 5.84504 19.4533 6.08229 20.0955C6.22705 20.487 6.60405 20.75 7.02081 20.75C7.34781 20.75 7.65432 20.59 7.84107 20.3218C8.02782 20.0535 8.07182 19.7103 7.95857 19.4038C7.74957 18.838 7.57082 18.2423 7.42731 17.6325H7.42706ZM19.0475 14.5625C19.0975 14.852 19.0252 15.147 18.8495 15.3717V15.371C18.676 15.5928 18.4235 15.726 18.1385 15.7467C18.1135 15.7485 18.0885 15.7495 18.0637 15.7495C17.574 15.7495 17.1567 15.3988 17.0772 14.907C17.0162 14.5305 17.0022 14.2445 17 14.191V14.184C16.983 12.8722 16.4622 11.6392 15.5334 10.7118C15.0667 10.2458 14.5204 9.88125 13.9097 9.629C13.3004 9.37725 12.6581 9.24975 12.0001 9.24975H11.9951C10.8666 9.25075 9.80111 9.6205 8.91385 10.3187C8.05334 10.996 7.42983 11.9487 7.15833 13.0013C7.04457 13.442 6.65007 13.7497 6.19906 13.7497H6.18556C5.87481 13.7497 5.58706 13.609 5.39655 13.3633C5.20755 13.1198 5.14305 12.8092 5.2193 12.5117C5.59805 11.0345 6.47107 9.69775 7.67758 8.74775C8.28159 8.27225 8.95335 7.902 9.67436 7.64725C10.4204 7.38375 11.2031 7.25 12.0004 7.25C13.8684 7.25 15.6252 7.977 16.947 9.297C18.24 10.5885 18.969 12.3055 18.9995 14.1317V14.136C18.9995 14.2035 19.0077 14.3322 19.0475 14.5625Z" fill="black"/>
</svg>
