<svg width="24" height="24" viewBox="0 0 24 24" fill="none" xmlns="http://www.w3.org/2000/svg">
<path fill-rule="evenodd" clip-rule="evenodd" d="M18 0.5C18.4142 0.5 18.75 0.835786 18.75 1.25V2.5C18.75 2.91421 18.4142 3.25 18 3.25C17.5858 3.25 17.25 2.91421 17.25 2.5V1.25C17.25 0.835786 17.5858 0.5 18 0.5ZM14.4245 4.37121C14.1815 4.1285 13.8716 4 13.5279 3.99997C13.1842 4 12.8742 4.12825 12.6313 4.37121L11.4162 5.58619C11.327 5.67534 11.2462 5.7706 11.174 5.87101L18.1293 12.8263C18.23 12.754 18.3256 12.673 18.415 12.5835L19.63 11.3686C19.8685 11.1301 20 10.8116 20 10.4723C20 10.1331 19.8685 9.8146 19.63 9.5761L14.4245 4.37121ZM16.4314 13.2498L10.75 7.56834V9.6891L14.3108 13.2498H16.4314ZM11.5705 3.31073C12.0933 2.78799 12.7885 2.5 13.5277 2.5C14.267 2.5 14.9623 2.78799 15.485 3.31073L20.6905 8.51563C21.7697 9.59461 21.7697 11.3503 20.6905 12.4295L19.4755 13.6445C18.7625 14.3575 17.8148 14.75 16.8065 14.75H14.25L7.87855 21.1212C7.29278 21.707 6.52501 22 5.75724 22C4.98946 22 4.22169 21.707 3.63592 21.1212L2.87865 20.364C1.70712 19.1923 1.70712 17.2927 2.87865 16.1212L9.25 9.74985V7.1944C9.25 6.18642 9.6425 5.23844 10.3555 4.52571L11.5705 3.31073ZM6.81802 20.0605L12.909 13.9697L10.0303 11.0911L3.93918 17.182C3.35442 17.7668 3.35442 18.7185 3.93918 19.3033L4.69646 20.0605C4.97996 20.3438 5.35648 20.4998 5.75724 20.4998C6.158 20.4998 6.53476 20.3438 6.81802 20.0605ZM10.5303 13.4697C10.8232 13.7626 10.8232 14.2374 10.5303 14.5303L9.53033 15.5303C9.23744 15.8232 8.76256 15.8232 8.46967 15.5303C8.17678 15.2374 8.17678 14.7626 8.46967 14.4697L9.46967 13.4697C9.76256 13.1768 10.2374 13.1768 10.5303 13.4697ZM22.75 5.25H21.5C21.0858 5.25 20.75 5.58579 20.75 6C20.75 6.41421 21.0858 6.75 21.5 6.75H22.75C23.1642 6.75 23.5 6.41421 23.5 6C23.5 5.58579 23.1642 5.25 22.75 5.25ZM21.2198 1.71975C21.3603 1.579 21.551 1.5 21.75 1.5C22.1643 1.5 22.5 1.83575 22.5 2.25C22.5 2.44875 22.421 2.6395 22.2802 2.78025L20.7802 4.28025C20.6397 4.421 20.449 4.5 20.25 4.5C19.8358 4.5 19.5 4.16425 19.5 3.75C19.5 3.55125 19.579 3.3605 19.7198 3.21975L21.2198 1.71975Z" fill="black"/>
</svg>
