<svg width="24" height="24" viewBox="0 0 24 24" fill="none" xmlns="http://www.w3.org/2000/svg">
<path fill-rule="evenodd" clip-rule="evenodd" d="M16 5V6C16 7.1045 16.8955 8 18 8H19C19.5523 8 20 8.44775 20 9C20 9.55225 19.5523 10 19 10H18C15.7908 10 14 8.20925 14 6V5C14 4.44775 14.4477 4 15 4C15.5523 4 16 4.44775 16 5ZM16 18V19C16 19.5523 15.5523 20 15 20C14.4477 20 14 19.5523 14 19V18C14 15.7908 15.7908 14 18 14H19C19.5523 14 20 14.4477 20 15C20 15.5523 19.5523 16 19 16H18C16.8955 16 16 16.8955 16 18ZM8 18V19C8 19.5523 8.44775 20 9 20C9.55225 20 10 19.5523 10 19V18C10 15.7908 8.20925 14 6 14H5C4.44775 14 4 14.4477 4 15C4 15.5523 4.44775 16 5 16H6C7.1045 16 8 16.8955 8 18ZM8 6V5C8 4.44775 8.44775 4 9 4C9.55225 4 10 4.44775 10 5V6C10 8.20925 8.20925 10 6 10H5C4.44775 10 4 9.55225 4 9C4 8.44775 4.44775 8 5 8H6C7.1045 8 8 7.1045 8 6Z" fill="black"/>
</svg>
