<svg width="24" height="24" viewBox="0 0 24 24" fill="none" xmlns="http://www.w3.org/2000/svg">
<path fill-rule="evenodd" clip-rule="evenodd" d="M12.077 20.4997C12.0514 20.4999 12.0257 20.5 12 20.5C11.981 20.5 11.962 20.4999 11.9431 20.4998C11.8359 20.3929 11.7305 20.2832 11.627 20.171C10.7137 19.1818 9.98374 18.0383 9.45449 16.7688C10.278 16.9175 11.133 16.996 12.01 16.996C12.887 16.996 13.742 16.9175 14.5655 16.7688C14.036 18.0383 13.3062 19.1818 12.393 20.171C12.2895 20.2832 12.1842 20.3928 12.077 20.4997ZM15.4383 21.3932C15.5644 21.347 15.6894 21.2984 15.8131 21.2473C15.8129 21.2474 15.8128 21.2474 15.8127 21.2475C19.2815 19.8157 21.7688 16.489 21.9847 12.5571C21.9949 12.3727 22 12.1869 22 12C22 11.3959 21.9464 10.8044 21.8438 10.2298C21.8329 10.1688 21.8214 10.1079 21.8094 10.0472C21.6409 9.19592 21.3644 8.38352 20.9947 7.62487C20.7709 7.16565 20.5129 6.72612 20.2242 6.30958C20.2203 6.30404 20.2165 6.2985 20.2126 6.29297C18.6978 4.1171 16.3404 2.5717 13.613 2.12942C13.0879 2.04426 12.5491 2 12 2C11.4822 2 10.9737 2.03935 10.4771 2.11522C10.4523 2.11901 10.4276 2.12288 10.4029 2.12684C5.63921 2.89145 2 7.02073 2 12C2 17.5013 6.44224 21.965 11.9353 21.9998C11.9569 21.9999 11.9784 22 12 22C13.2081 22 14.3662 21.7858 15.4383 21.3932ZM9.68717 20.1816C6.84803 19.3806 4.61192 17.1415 3.81503 14.3007C4.92971 15.1694 6.2434 15.863 7.693 16.329L7.69275 16.3292C8.15351 17.7412 8.83303 19.0413 9.68717 20.1816ZM3.50006 11.967C3.50462 10.7683 3.75732 9.628 4.20948 8.59495C5.08382 9.21872 6.06711 9.73955 7.13225 10.135C7.05175 10.743 7.01 11.3642 7.01 11.996C7.01 12.8765 7.091 13.7365 7.245 14.568C6.222 14.1445 5.2955 13.5902 4.485 12.9147C4.12665 12.6161 3.79796 12.2997 3.50006 11.967ZM4.9367 7.2698C5.68121 7.82155 6.51144 8.27936 7.41475 8.637C7.85445 6.85099 8.63637 5.21631 9.6799 3.8205C7.71846 4.37577 6.04538 5.61754 4.9367 7.2698ZM12.0856 3.50042C12.0571 3.50014 12.0286 3.5 12 3.5C11.9785 3.5 11.9571 3.50008 11.9356 3.50024C11.8312 3.60473 11.7285 3.71156 11.6275 3.821H11.627C10.6525 4.87675 9.8865 6.10825 9.3505 7.48125C9.14425 8.00975 8.97575 8.5505 8.845 9.1015C9.86325 9.3635 10.9237 9.49575 12.0102 9.49575C13.0967 9.49575 14.157 9.3635 15.1755 9.1015C15.0447 8.5505 14.8762 8.0095 14.67 7.48125C14.134 6.10825 13.368 4.87675 12.3935 3.821C12.2926 3.71166 12.19 3.60475 12.0856 3.50042ZM14.3458 3.82782C15.3864 5.22202 16.1664 6.85391 16.6055 8.63675C17.5033 8.2815 18.3289 7.82696 19.0699 7.27967C17.9661 5.62971 16.3 4.38774 14.3458 3.82782ZM19.7953 8.60586C18.9248 9.22487 17.9467 9.74201 16.8878 10.135C16.9683 10.7427 17.01 11.364 17.01 11.996C17.01 12.8765 16.929 13.7365 16.775 14.568C17.798 14.1445 18.7245 13.5902 19.535 12.9147C19.8854 12.6228 20.2074 12.3139 20.5 11.9893C20.4985 10.7866 20.2472 9.64242 19.7953 8.60586ZM20.1793 14.321C19.0702 15.1803 17.7656 15.8669 16.3273 16.3292C15.8675 17.7384 15.1899 19.0358 14.3383 20.1743C17.1586 19.3691 19.3798 17.1437 20.1793 14.321ZM8.58825 10.5835C8.5365 11.049 8.51025 11.5203 8.51025 11.996C8.51025 13.0628 8.64125 14.107 8.90075 15.1153C9.902 15.3678 10.9438 15.496 12.0103 15.496C13.0768 15.496 14.1185 15.368 15.1198 15.1153C15.3793 14.1068 15.5103 13.0628 15.5103 11.996C15.5103 11.5203 15.484 11.049 15.4323 10.5835C14.3478 10.852 13.1993 10.996 12.0103 10.996C10.8213 10.996 9.67275 10.852 8.58825 10.5835Z" fill="black"/>
</svg>
