<svg width="24" height="24" viewBox="0 0 24 24" fill="none" xmlns="http://www.w3.org/2000/svg">
<path d="M20.963 10.4431C20.6755 9.94464 20.2488 9.53539 19.7285 9.26039L7.16425 2.61264C6.197 2.10089 5.06 2.13239 4.1225 2.69689C3.18475 3.26164 2.625 4.25214 2.625 5.34689V18.6531C2.625 19.7481 3.18525 20.7391 4.1235 21.3036C4.61725 21.6009 5.16625 21.7499 5.7165 21.7499C6.2115 21.7499 6.708 21.6291 7.166 21.3861L19.7303 14.7274C20.2503 14.4519 20.6767 14.0424 20.9637 13.5436C21.233 13.0759 21.3753 12.5396 21.375 11.9929C21.375 11.4461 21.2323 10.9101 20.9628 10.4424L20.963 10.4431ZM4.8965 3.98189C5.15075 3.82864 5.43375 3.75164 5.71725 3.75164C5.972 3.75164 6.227 3.81364 6.46275 3.93839L14.5738 8.22964L11.5768 11.0124L4.472 4.35189C4.588 4.20714 4.73075 4.08164 4.8965 3.98189ZM10.475 12.0356L4.12525 17.9319V6.08289L10.475 12.0359V12.0356ZM6.46375 20.0611C5.96575 20.3251 5.38 20.3091 4.897 20.0186C4.733 19.9199 4.5915 19.7959 4.476 19.6531L11.5718 13.0641L14.495 15.8046L6.4635 20.0611H6.46375ZM19.028 13.4024L15.8963 15.0621L12.6735 12.0409L15.9777 8.97264L19.0268 10.5859C19.5578 10.8666 19.8748 11.3931 19.875 11.9939C19.875 12.5946 19.5585 13.1211 19.0277 13.4024H19.028Z" fill="black"/>
</svg>
