<svg width="24" height="24" viewBox="0 0 24 24" fill="none" xmlns="http://www.w3.org/2000/svg">
<path d="M16.4282 3.00025C15.1075 3.00025 13.7805 3.4615 12.7155 4.40325L12.0005 5.0355L11.3055 4.41775C10.238 3.469 8.90524 3.00425 7.57849 3.00425C5.98374 3.00425 4.39774 3.676 3.29274 4.9855C2.45774 5.975 2.00049 7.22225 2.00049 8.51025C2.00049 13.88 5.31698 18.7065 10.37 20.69L10.3792 20.6935C10.9 20.898 11.4502 21 12.0005 21C12.5507 21 13.1012 20.8978 13.6217 20.6935C18.6802 18.7077 22.0005 13.876 22.0005 8.50025C22.0005 7.21825 21.547 5.9765 20.7185 4.9895C19.6145 3.67475 18.0262 3 16.4285 3L16.4282 3.00025Z" fill="black"/>
</svg>
