<svg width="24" height="24" viewBox="0 0 24 24" fill="none" xmlns="http://www.w3.org/2000/svg">
<path fill-rule="evenodd" clip-rule="evenodd" d="M12 2C6.47725 2 2 6.47725 2 12C2 17.5228 6.47725 22 12 22C17.5228 22 22 17.5228 22 12C22 6.47725 17.5228 2 12 2ZM12 6.5C11.269 6.5 10.5795 6.787 10.0583 7.30825C9.537 7.8295 9.25 8.519 9.25 9.25C9.25 9.66425 9.58575 10 10 10C10.4143 10 10.75 9.66425 10.75 9.25C10.75 8.91975 10.881 8.60675 11.119 8.369C11.357 8.131 11.6698 8 12 8C12.7368 8 13.25 8.65875 13.25 9.25C13.25 9.93909 12.9397 10.2496 12.4701 10.7194L12.4698 10.7198C11.9263 11.2633 11.25 11.9395 11.25 13.25C11.25 13.6643 11.5857 14 12 14C12.4143 14 12.75 13.6643 12.75 13.25C12.75 12.5609 13.0604 12.2504 13.5299 11.7806L13.5302 11.7802C14.0737 11.2368 14.75 10.5605 14.75 9.25C14.75 8.566 14.4685 7.87675 13.9778 7.359C13.4525 6.805 12.7503 6.5 12 6.5ZM10.75 16.5C10.75 15.8098 11.3098 15.25 12 15.25C12.6902 15.25 13.25 15.8098 13.25 16.5C13.25 17.1902 12.6902 17.75 12 17.75C11.3098 17.75 10.75 17.1902 10.75 16.5Z" fill="black"/>
</svg>
