<svg width="24" height="24" viewBox="0 0 24 24" fill="none" xmlns="http://www.w3.org/2000/svg">
<path fill-rule="evenodd" clip-rule="evenodd" d="M19.071 4.929C19.9893 5.847 20.71 6.91625 21.2137 8.10725C21.7355 9.34075 22 10.6505 22 12C22 13.3495 21.7355 14.6593 21.2137 15.8928C20.71 17.0835 19.989 18.1528 19.071 19.071C18.153 19.9893 17.0838 20.71 15.8928 21.2137C14.6593 21.7355 13.3495 22 12 22C10.6505 22 9.34075 21.7355 8.10725 21.2137C6.9165 20.71 5.84725 19.989 4.929 19.071C4.01075 18.153 3.29 17.0838 2.78625 15.8928C2.40825 14.9988 2.16525 14.065 2.06 13.105C1.9955 12.5145 2.46075 11.9997 3.05475 11.9997C3.5665 11.9997 3.993 12.3868 4.04925 12.8955C4.2485 14.6938 5.0455 16.359 6.34325 17.6568C7.85425 19.1678 9.86325 20 12 20C14.1367 20 16.1458 19.1678 17.6568 17.6568C19.1678 16.1458 20 14.1367 20 12C20 9.86325 19.1678 7.85425 17.6568 6.34325C16.1458 4.83225 14.1367 4 12 4C9.86325 4 7.85425 4.83225 6.34325 6.34325C5.98404 6.70228 5.66361 7.08961 5.38344 7.5H8C8.55228 7.5 9 7.94772 9 8.5C9 9.05228 8.55228 9.5 8 9.5H4.5C3.11922 9.5 2 8.38078 2 7V3.5C2 2.94772 2.44772 2.5 3 2.5C3.55228 2.5 4 2.94772 4 3.5V5.99447C4.27842 5.62534 4.58695 5.27115 4.929 4.929C5.847 4.01075 6.91625 3.29 8.10725 2.78625C9.34075 2.2645 10.6505 2 12 2C13.3495 2 14.6593 2.2645 15.8928 2.78625C17.0835 3.29 18.1528 4.011 19.071 4.929ZM12 6.5C12.5523 6.5 13 6.94772 13 7.5V11.0802C13 11.3719 13.1276 11.6494 13.3493 11.8395L13.3494 11.8396L16.1508 14.2407C16.5701 14.6002 16.6187 15.2315 16.2593 15.6508C15.8998 16.0701 15.2685 16.1187 14.8492 15.7593L12.0476 13.3579C11.3829 12.7881 11 11.9561 11 11.0802V7.5C11 6.94772 11.4477 6.5 12 6.5Z" fill="black"/>
</svg>
