<svg width="24" height="24" viewBox="0 0 24 24" fill="none" xmlns="http://www.w3.org/2000/svg">
<path fill-rule="evenodd" clip-rule="evenodd" d="M9.4385 3.56101C10.146 2.85375 11.073 2.5 12 2.5C12.927 2.5 13.8543 2.85375 14.5615 3.56101L19.2428 8.24232C20.3678 9.36759 21 10.8939 21 12.4851V17.9999C21 20.209 19.2093 22 17 22H7C4.79075 22 3 20.2092 3 17.9999V12.4851C3 10.8939 3.632 9.36759 4.75725 8.24232L9.4385 3.56101ZM12.75 15C12.75 14.5858 12.4142 14.25 12 14.25C11.5858 14.25 11.25 14.5858 11.25 15V18C11.25 18.4142 11.5858 18.75 12 18.75C12.4142 18.75 12.75 18.4142 12.75 18V15Z" fill="black"/>
</svg>
