<svg width="24" height="24" viewBox="0 0 24 24" fill="none" xmlns="http://www.w3.org/2000/svg">
<path fill-rule="evenodd" clip-rule="evenodd" d="M14.25 17.5H15.5C17.1568 17.5 18.5 16.1568 18.5 14.5V8.5C18.5 4.91025 15.5897 2 12 2C8.41025 2 5.5 4.91025 5.5 8.5V14.5C5.5 16.1568 6.84325 17.5 8.5 17.5H9.75V19.75C9.75 20.9928 10.7573 22 12 22C13.2428 22 14.25 20.9928 14.25 19.75V17.5ZM12.75 17.5H11.25V19.75C11.25 20.1635 11.5865 20.5 12 20.5C12.4135 20.5 12.75 20.1635 12.75 19.75V17.5ZM10.75 8C10.75 7.58579 10.4142 7.25 10 7.25C9.58579 7.25 9.25 7.58579 9.25 8V13C9.25 13.4142 9.58579 13.75 10 13.75C10.4142 13.75 10.75 13.4142 10.75 13V8ZM14 7.25C14.4142 7.25 14.75 7.58579 14.75 8V13C14.75 13.4142 14.4142 13.75 14 13.75C13.5858 13.75 13.25 13.4142 13.25 13V8C13.25 7.58579 13.5858 7.25 14 7.25Z" fill="black"/>
</svg>
