<svg width="24" height="24" viewBox="0 0 24 24" fill="none" xmlns="http://www.w3.org/2000/svg">
<g clip-path="url(#clip0_1_364)">
<path fill-rule="evenodd" clip-rule="evenodd" d="M0.469748 23.53C0.615996 23.6765 0.807993 23.7498 0.999991 23.7498L1.00024 23.75C1.19199 23.75 1.38399 23.6767 1.53048 23.5303L14.381 10.6798L17.6797 7.38125L17.6797 7.38104L20.2165 4.84426L20.2167 4.84475L21.3092 3.75225L21.3089 3.7518L23.5303 1.53049C23.8232 1.23749 23.8232 0.762745 23.5303 0.469748C23.2373 0.176751 22.7625 0.176751 22.4695 0.469748L20.2482 2.69101C19.6076 2.25489 18.8337 2 18.0002 2H6.00005C3.79077 2 2 3.79075 2 6V18C2 18.8335 2.25493 19.6073 2.69107 20.248L0.469748 22.4693C0.176751 22.7623 0.176751 23.237 0.469748 23.53ZM18.0002 3.5C18.4168 3.5 18.81 3.60245 19.1557 3.78348L16.913 6.0262C16.4177 5.54597 15.7428 5.25 15 5.25C13.4837 5.25 12.25 6.48375 12.25 8C12.25 8.74269 12.546 9.41762 13.0262 9.91296L9.99986 12.9393L8.59108 11.5305V11.5302C8.16608 11.1052 7.60107 10.8713 7.00006 10.8713C6.39906 10.8713 5.83405 11.1052 5.40904 11.5302L3.50002 13.4393V6C3.50002 4.6215 4.62153 3.5 6.00005 3.5H18.0002ZM20.5002 7.00375C20.5002 6.79875 20.5842 6.6025 20.7327 6.461L20.7325 6.46125C21.21 6.006 22 6.3445 22 7.004V18C22 20.2093 20.2092 22 17.9999 22H5.9998C5.74404 22 5.49404 21.9758 5.25154 21.9298L12.1214 15.0605L12.4696 15.4088C12.6176 15.5568 12.8166 15.6353 13.0269 15.628C13.2211 15.6213 13.4041 15.535 13.5414 15.3978L15.4092 13.5303C15.8342 13.1053 16.3992 12.8713 17.0002 12.8713C17.6012 12.8713 18.1662 13.1053 18.5912 13.5303L20.5002 15.4393V7.00375Z" fill="black"/>
</g>
<defs>
<clipPath id="clip0_1_364">
<rect width="24" height="24" fill="white"/>
</clipPath>
</defs>
</svg>
