<svg width="24" height="24" viewBox="0 0 24 24" fill="none" xmlns="http://www.w3.org/2000/svg">
<path fill-rule="evenodd" clip-rule="evenodd" d="M18 3.5C19.3785 3.5 20.5 4.6215 20.5 6V15.4406L18.591 13.5326C17.7124 12.6544 16.2878 12.6544 15.4091 13.5326L13.5303 15.4104C13.2375 15.7031 12.7626 15.7031 12.4697 15.4104L8.5909 11.5336C7.71224 10.6555 6.28762 10.6555 5.40897 11.5336L3.5 13.4416V6C3.5 4.6215 4.6215 3.5 6 3.5H18ZM18 2H6C3.79075 2 2 3.79075 2 6V18C2 20.2093 3.79075 22 6 22H18C20.2093 22 22 20.2093 22 18V6C22 3.79075 20.2093 2 18 2ZM12.25 8C12.25 6.48122 13.4812 5.25 15 5.25C16.5188 5.25 17.75 6.48122 17.75 8C17.75 9.51878 16.5188 10.75 15 10.75C13.4812 10.75 12.25 9.51878 12.25 8Z" fill="black"/>
</svg>
