<svg width="24" height="24" viewBox="0 0 24 24" fill="none" xmlns="http://www.w3.org/2000/svg">
<path fill-rule="evenodd" clip-rule="evenodd" d="M13.0582 3.5C14.7773 3.5 15.1423 3.5125 16.0365 3.55225H16.0373H16.038C17.0555 3.59625 17.6153 3.768 17.9893 3.91275L17.9903 3.91325L17.9913 3.91375C18.4925 4.107 18.8678 4.35 19.245 4.72575C19.6225 5.10225 19.8673 5.47675 20.0635 5.97875C20.2095 6.35225 20.3833 6.91175 20.4318 7.93C20.4813 8.97225 20.493 9.3195 20.498 11.9838C20.503 14.648 20.4925 14.9955 20.447 16.039C20.4025 17.0578 20.231 17.6167 20.0863 17.9908C19.892 18.4938 19.6488 18.8693 19.2728 19.2468C18.898 19.6233 18.5235 19.8678 18.0213 20.0643C17.6473 20.2103 17.0875 20.384 16.07 20.4328C15.012 20.483 14.6947 20.4938 12.015 20.4988C11.5897 20.4995 11.2377 20.5 10.9392 20.5C9.22244 20.5 8.85719 20.4875 7.96168 20.448C6.94218 20.4033 6.38267 20.2318 6.00942 20.0875C5.50566 19.8928 5.13016 19.6495 4.75316 19.2738C4.37565 18.8978 4.1309 18.5233 3.9354 18.022V18.0212L3.9349 18.0205C3.78915 17.6485 3.6159 17.0908 3.5669 16.0705C3.51665 15.0137 3.50565 14.6968 3.50065 12.016C3.4954 9.3365 3.50515 9.0195 3.5514 7.96275C3.5964 6.941 3.7679 6.382 3.91215 6.009C4.1064 5.5065 4.34965 5.13125 4.72616 4.7535C5.10216 4.37575 5.47641 4.1315 5.97717 3.93625L5.97842 3.93575L5.97967 3.93525C6.35217 3.78925 6.91043 3.6155 7.93018 3.5675C8.97944 3.51725 9.2952 3.50625 11.9835 3.50125C12.4084 3.5005 12.7598 3.5 13.0582 3.5ZM13.0582 3.5C13.0583 3.5 13.0584 3.5 13.0585 3.5H13.058C13.0581 3.5 13.0582 3.5 13.0582 3.5ZM13.0585 2C12.7462 2 12.3905 2.0005 11.9807 2.00125C9.26545 2.0065 8.92494 2.018 7.85843 2.06925C6.79442 2.1195 6.06767 2.29 5.43266 2.53875C4.77516 2.795 4.2179 3.1385 3.66365 3.695C3.10864 4.252 2.76789 4.81025 2.51339 5.46825C2.26714 6.105 2.10039 6.832 2.05338 7.89675C2.00663 8.9635 1.99613 9.3035 2.00113 12.019C2.00638 14.7343 2.01838 15.075 2.06913 16.142C2.11989 17.2057 2.28989 17.9323 2.53864 18.5675C2.79514 19.225 3.13839 19.7818 3.6954 20.3365C4.25215 20.8913 4.81066 21.2318 5.46891 21.4865C6.10492 21.7325 6.83242 21.9 7.89668 21.9465C8.80219 21.9865 9.18444 22 10.94 22C11.2525 22 11.6082 21.9995 12.0187 21.9988C14.7347 21.9935 15.0755 21.9815 16.142 21.931C17.206 21.8802 17.932 21.7098 18.5678 21.4615C19.2253 21.2043 19.7825 20.8618 20.3368 20.3048C20.891 19.748 21.232 19.1895 21.4863 18.5313C21.7325 17.8953 21.9 17.1677 21.9463 16.1042C21.993 15.037 22.004 14.696 21.9988 11.981C21.9936 9.2655 21.9813 8.92525 21.9308 7.859C21.8803 6.79425 21.7098 6.06825 21.4613 5.4325C21.2043 4.775 20.8615 4.2185 20.305 3.6635C19.7483 3.109 19.1898 2.76775 18.5315 2.514C17.8953 2.26775 17.168 2.1 16.1038 2.054C15.1982 2.01375 14.8157 2.00025 13.0587 2.00025L13.0585 2ZM12 8.5C12.935 8.5 13.8137 8.864 14.475 9.525C15.136 10.186 15.5 11.065 15.5 12C15.5 12.935 15.136 13.8137 14.475 14.475C13.814 15.136 12.935 15.5 12 15.5C11.065 15.5 10.1863 15.136 9.525 14.475C8.864 13.814 8.5 12.935 8.5 12C8.5 11.065 8.864 10.1863 9.525 9.525C10.186 8.864 11.065 8.5 12 8.5ZM12 7C9.2385 7 7 9.2385 7 12C7 14.7615 9.2385 17 12 17C14.7615 17 17 14.7615 17 12C17 9.2385 14.7615 7 12 7ZM18.5 6.75C18.5 7.44036 17.9404 8 17.25 8C16.5596 8 16 7.44036 16 6.75C16 6.05964 16.5596 5.5 17.25 5.5C17.9404 5.5 18.5 6.05964 18.5 6.75Z" fill="black"/>
</svg>
