<svg width="24" height="24" viewBox="0 0 24 24" fill="none" xmlns="http://www.w3.org/2000/svg">
<path fill-rule="evenodd" clip-rule="evenodd" d="M15.2704 3.57299C15.5728 3.86349 15.5768 4.34674 15.2806 4.64349C14.9917 4.93274 14.5263 4.93474 14.2311 4.65174C13.6485 4.09349 12.8592 3.74999 11.9914 3.74999C10.2071 3.74974 8.74713 5.24449 8.74713 7.03249V7.99999H16C18.2093 7.99999 20 9.79074 20 12V18C20 20.2092 18.2093 22 16 22H8C5.79075 22 4 20.2092 4 18V12C4 10.0471 5.39928 8.4212 7.25 8.07018V7.03974C7.25 4.40899 9.39838 2.23199 12.0239 2.24999C13.2822 2.25874 14.4255 2.76099 15.2704 3.57299ZM16 9.49999C17.3785 9.49999 18.5 10.6215 18.5 12V18C18.5 19.3785 17.3785 20.5 16 20.5H8C6.6215 20.5 5.5 19.3785 5.5 18V12C5.5 10.6215 6.6215 9.49999 8 9.49999H16ZM12 12.5C12.4142 12.5 12.75 12.8358 12.75 13.25V16.75C12.75 17.1642 12.4142 17.5 12 17.5C11.5858 17.5 11.25 17.1642 11.25 16.75V13.25C11.25 12.8358 11.5858 12.5 12 12.5Z" fill="black"/>
</svg>
