<svg width="24" height="24" viewBox="0 0 24 24" fill="none" xmlns="http://www.w3.org/2000/svg">
<path fill-rule="evenodd" clip-rule="evenodd" d="M20.5 8.01475C20.5 6.628 19.372 5.5 17.9852 5.5H6.01475C4.628 5.5 3.5 6.628 3.5 8.01475V15.9852C3.5 17.372 4.628 18.5 6.01475 18.5H17.9852C19.372 18.5 20.5 17.372 20.5 15.9852V8.01475ZM6.01475 4H17.9852C20.2025 4 22 5.7975 22 8.01475V15.9852C22 18.2025 20.2025 20 17.9852 20H6.01475C3.7975 20 2 18.2025 2 15.9852V8.01475C2 5.7975 3.7975 4 6.01475 4ZM6.4803 7.42397C6.16217 7.15871 5.68923 7.20157 5.42397 7.5197C5.15871 7.83783 5.20157 8.31077 5.5197 8.57603L10.5595 12.7782L10.5595 12.7782C11.3939 13.4739 12.6061 13.4739 13.4405 12.7782L13.4405 12.7782L18.4803 8.57603C18.7984 8.31077 18.8413 7.83783 18.576 7.5197C18.3108 7.20157 17.8378 7.15871 17.5197 7.42397L12.48 11.6261C12.2019 11.858 11.7981 11.858 11.52 11.6261L6.4803 7.42397Z" fill="black"/>
</svg>
