<svg width="24" height="24" viewBox="0 0 24 24" fill="none" xmlns="http://www.w3.org/2000/svg">
<path fill-rule="evenodd" clip-rule="evenodd" d="M20.4995 13.2496V9.7014L20.5003 9.7019C20.5003 9.42716 20.6518 9.17516 20.8945 9.04666C20.8999 9.04372 20.9056 9.04077 20.9112 9.03782L20.9115 9.03766C21.405 8.77542 22 9.13416 22 9.6929V13.2501C22 15.8733 19.8733 18.0001 17.2501 18.0001H10.0227C9.41616 18.0001 8.82642 18.25 8.40492 18.686L5.87196 21.3063C5.54221 21.6493 5.12797 21.8758 4.67348 21.9615C4.53673 21.9873 4.39873 22 4.26048 22C3.97224 22 3.68424 21.9445 3.41099 21.8345C3.00625 21.6718 2.66075 21.401 2.41151 21.0515C2.14226 20.674 2 20.2225 2 19.7458V6.74994C2 4.12672 4.12672 2 6.74994 2H14.3071C14.8661 2 15.2246 2.59499 14.9623 3.08849C14.961 3.09106 14.9597 3.09358 14.9583 3.09609C14.9567 3.0992 14.955 3.10231 14.9533 3.10549C14.8248 3.34823 14.5726 3.49973 14.2981 3.49973H6.74994C4.95496 3.49973 3.49998 4.95471 3.49998 6.74969V19.7455C3.49998 20.2168 3.85998 20.398 3.97048 20.4425C4.08073 20.4868 4.46523 20.605 4.79072 20.2658L4.79273 20.2638L7.32619 17.6431C8.02868 16.9163 9.01141 16.4996 10.0222 16.4996H17.2496C19.0445 16.4996 20.4995 15.0446 20.4995 13.2496ZM22 5C22 6.65685 20.6569 8 19 8C17.3431 8 16 6.65685 16 5C16 3.34315 17.3431 2 19 2C20.6569 2 22 3.34315 22 5Z" fill="black"/>
</svg>
