<svg width="24" height="24" viewBox="0 0 24 24" fill="none" xmlns="http://www.w3.org/2000/svg">
<path fill-rule="evenodd" clip-rule="evenodd" d="M12 2C9.2385 2 7 4.2385 7 7V10.5C7 13.2615 9.2385 15.5 12 15.5C14.7615 15.5 17 13.2615 17 10.5V7C17 4.2385 14.7615 2 12 2ZM4.5 10.25C4.91421 10.25 5.25 10.5858 5.25 11C5.25 14.4518 8.04821 17.25 11.5 17.25H12H12.5C15.9518 17.25 18.75 14.4518 18.75 11C18.75 10.5858 19.0858 10.25 19.5 10.25C19.9142 10.25 20.25 10.5858 20.25 11C20.25 15.1966 16.9145 18.6141 12.75 18.746V21.25C12.75 21.6642 12.4142 22 12 22C11.5858 22 11.25 21.6642 11.25 21.25V18.746C7.08549 18.6141 3.75 15.1966 3.75 11C3.75 10.5858 4.08579 10.25 4.5 10.25Z" fill="black"/>
</svg>
