<svg width="24" height="24" viewBox="0 0 24 24" fill="none" xmlns="http://www.w3.org/2000/svg">
<path fill-rule="evenodd" clip-rule="evenodd" d="M15.5298 6.00975C14.7293 5.67125 13.8783 5.4995 13 5.4995V5.5C11.8518 5.5 10.7388 5.7245 9.69175 6.16725C9.21379 6.36939 8.75874 6.61286 8.3293 6.8958L12.609 9.34144L12.6091 9.34148C13.9436 10.1039 14.6078 11.6608 14.2351 13.1517C13.8534 14.6788 12.4814 15.75 10.9073 15.75H4.5V15.9997C4.5 17.3783 5.6215 18.4997 7 18.4997H13C13.8783 18.4997 14.7293 18.328 15.5298 17.9895C16.3035 17.6622 16.9987 17.1935 17.5962 16.596C18.1938 15.9985 18.6627 15.3033 18.99 14.5295C19.3285 13.729 19.5003 12.878 19.5003 11.9997C19.5003 11.1215 19.3285 10.2705 18.99 9.47C18.6625 8.69625 18.1938 8.001 17.5962 7.4035C16.999 6.806 16.3035 6.337 15.5298 6.00975ZM4.5 14.25H10.9073C11.7931 14.25 12.5651 13.6472 12.7799 12.7879L12.7799 12.7879C12.9897 11.9489 12.6159 11.0729 11.865 10.6439L11.8649 10.6438L7.07402 7.90612C7.04568 7.9337 7.01751 7.96149 6.9895 7.9895C6.2085 8.7705 5.59525 9.67975 5.16725 10.6917C4.7245 11.7385 4.5 12.8515 4.5 13.9997V14.25ZM3 14C3 8.47725 7.47725 4 13 4C17.4182 4 21 7.58175 21 12C21 16.4182 17.4182 20 13 20H7C4.79075 20 3 18.2093 3 16V14Z" fill="black"/>
</svg>
