<svg width="24" height="24" viewBox="0 0 24 24" fill="none" xmlns="http://www.w3.org/2000/svg">
<path fill-rule="evenodd" clip-rule="evenodd" d="M10.4995 3.72377V7.50882C10.2125 7.59607 9.93276 7.70482 9.66226 7.83432L7.18401 5.35604C7.67726 4.95929 8.21352 4.61953 8.78777 4.33978C9.33852 4.07153 9.91051 3.86577 10.4995 3.72377ZM11.9995 2C9.23576 2.13625 6.76701 3.39602 5.03926 5.33254L9.44077 9.7341C10.1498 9.16684 11.034 8.80984 11.9995 8.75683V2ZM14.4998 6.35588V7.68632C15.4528 8.07158 16.2975 8.69933 16.9493 9.51959C17.891 10.7049 18.3468 12.1936 18.2323 13.7116C18.1783 14.4264 17.9843 15.1269 17.6555 15.7944C17.3458 16.4232 16.9298 16.9962 16.4188 17.4974C15.908 17.9985 15.3273 18.4037 14.6928 18.7017C14.0195 19.018 13.3155 19.199 12.6005 19.24C12.4838 19.2465 12.3658 19.25 12.2495 19.25C11.4743 19.25 10.7168 19.1027 10.01 18.818L9.04702 19.781C9.26527 19.8782 9.4875 19.9662 9.7135 20.0447L9.7405 20.0545C10.4315 20.3095 11.1575 20.4565 11.8988 20.4917C11.9083 20.492 11.9175 20.4925 11.927 20.4932C11.9417 20.4942 11.9557 20.4951 11.9692 20.4959L11.979 20.4965H11.9995C12.0135 20.4965 12.0275 20.4965 12.0415 20.497C12.1135 20.499 12.1835 20.5 12.2495 20.5C13.2288 20.5 14.1783 20.3087 15.071 19.931C15.9343 19.566 16.7098 19.043 17.376 18.3767C18.0423 17.7104 18.5653 16.9349 18.9303 16.0717C19.308 15.1789 19.4995 14.2297 19.4995 13.2501C19.4995 11.4219 18.8173 9.6761 17.578 8.33383C16.7271 7.41238 15.6674 6.7364 14.4998 6.35588ZM12.9998 8.81234V4.53153H13C17.4815 4.91204 21 8.67008 21 13.2499C21 18.0825 17.0825 22 12.25 22C12.1088 22 11.9688 21.999 11.828 21.9898C10.9158 21.9462 10.04 21.7632 9.22175 21.4615C8.28025 21.1345 7.40301 20.6705 6.61301 20.0937L9.729 16.9777C10.4483 17.4649 11.3155 17.7497 12.2498 17.7497C12.3375 17.7497 12.426 17.7472 12.5148 17.7422C14.6565 17.6194 16.5753 15.7382 16.7365 13.5989C16.9163 11.2156 15.238 9.18784 12.9998 8.81234ZM7.00476 16.1664C6.88476 15.9512 6.77851 15.7287 6.68601 15.5002V15.4999H4.74875C4.86526 15.7579 4.995 16.0109 5.1375 16.2574C5.35175 16.6277 5.5925 16.9802 5.85825 17.3129L7.00476 16.1664ZM2.69927 13.9999H7.81226C7.96176 14.8917 8.37377 15.6944 8.96602 16.3264L5.83152 19.461C4.25927 18.0512 3.13477 16.1509 2.69927 13.9999ZM6.83401 10.6631L4.72427 8.55333C4.31352 9.47959 4.07301 10.4736 4.01401 11.5004H6.50852C6.59577 11.2134 6.70451 10.9336 6.83401 10.6631ZM2.5 12.0004C2.5 9.80135 3.20827 7.76782 4.40852 6.11605H4.40901L8.73452 10.4416C8.16727 11.1506 7.81 12.0351 7.75725 13.0004H2.54951C2.51676 12.6714 2.5 12.3379 2.5 12.0004Z" fill="black"/>
</svg>
