<svg width="24" height="24" viewBox="0 0 24 24" fill="none" xmlns="http://www.w3.org/2000/svg">
<path d="M12 2C6.47725 2 2 6.47725 2 12C2 17.5228 6.47725 22 12 22C17.5228 22 22 17.5228 22 12C22 6.47725 17.5228 2 12 2ZM8.89475 14.177C8.69375 14.5128 8.267 14.6355 7.917 14.4605C7.52525 14.2647 7.38725 13.778 7.611 13.4018C7.85525 12.991 7.99575 12.5118 7.99575 12C7.99575 11.4883 7.85525 11.009 7.611 10.5982C7.387 10.222 7.52525 9.73525 7.917 9.5395C8.267 9.3645 8.6935 9.4875 8.89475 9.823C9.2765 10.46 9.496 11.2048 9.496 12C9.496 12.7953 9.27625 13.5398 8.89475 14.177ZM12.3475 15.2115C12.2732 15.3873 12.193 15.5598 12.1073 15.7288C11.922 16.094 11.475 16.2392 11.1088 16.056L11.104 16.0538C10.7318 15.8675 10.5865 15.4145 10.7745 15.0432C11.2463 14.1112 11.4963 13.0747 11.4963 11.9997C11.4963 10.9247 11.2465 9.88825 10.7745 8.95625C10.5865 8.585 10.7318 8.13175 11.104 7.94575L11.1088 7.9435C11.475 7.76025 11.922 7.90575 12.1073 8.27075C12.193 8.44 12.2732 8.61225 12.3475 8.78825C12.778 9.80575 12.9962 10.8862 12.9962 11.9997C12.9962 13.1132 12.778 14.1938 12.3475 15.2113V15.2115ZM15.533 16.7685C15.458 16.9457 15.379 17.121 15.2962 17.2938C15.1145 17.673 14.659 17.8315 14.2828 17.6432C13.917 17.4602 13.7645 17.0178 13.9415 16.649C14.015 16.496 14.085 16.341 14.1515 16.184C14.7118 14.8592 14.996 13.4515 14.996 11.9997C14.996 10.548 14.7118 9.1405 14.1515 7.8155C14.085 7.6585 14.015 7.5035 13.9415 7.3505C13.7645 6.98175 13.917 6.53925 14.2828 6.35625C14.6588 6.16825 15.1145 6.32675 15.2962 6.70575C15.379 6.8785 15.458 7.05375 15.533 7.231C16.172 8.74175 16.496 10.346 16.496 11.9995C16.496 13.653 16.172 15.2572 15.533 16.768V16.7685Z" fill="black"/>
</svg>
