<svg width="24" height="24" viewBox="0 0 24 24" fill="none" xmlns="http://www.w3.org/2000/svg">
<path fill-rule="evenodd" clip-rule="evenodd" d="M12 6.5C12 8.433 10.433 10 8.5 10C6.567 10 5 8.433 5 6.5C5 4.567 6.567 3 8.5 3C10.433 3 12 4.567 12 6.5ZM2 14.5C2 18.0897 4.91025 21 8.5 21C12.0898 21 15 18.0897 15 14.5C15 12.8432 13.6568 11.5 12 11.5H5C3.34325 11.5 2 12.8432 2 14.5ZM16.5 10C18.1569 10 19.5 8.65685 19.5 7C19.5 5.34315 18.1569 4 16.5 4C14.8431 4 13.5 5.34315 13.5 7C13.5 8.65685 14.8431 10 16.5 10ZM15.3537 11.5H19.4997H19.5C20.8807 11.5 22 12.6192 22 14C22 17.0375 19.5375 19.5 16.5 19.5C15.952 19.5 15.4227 19.4195 14.9232 19.2703C15.3032 18.7598 15.6202 18.206 15.8705 17.6145C16.288 16.6273 16.4997 15.5792 16.4997 14.5C16.4997 13.8932 16.3805 13.3038 16.1455 12.748C15.9515 12.2888 15.6855 11.87 15.3537 11.5Z" fill="black"/>
</svg>
