<svg width="24" height="24" viewBox="0 0 24 24" fill="none" xmlns="http://www.w3.org/2000/svg">
<path fill-rule="evenodd" clip-rule="evenodd" d="M8.25 7.5C7.83579 7.5 7.5 7.83579 7.5 8.25C7.5 8.66421 7.83579 9 8.25 9C8.66421 9 9 8.66421 9 8.25C9 7.83579 8.66421 7.5 8.25 7.5ZM5.5 8.25C5.5 6.73122 6.73122 5.5 8.25 5.5C9.76878 5.5 11 6.73122 11 8.25C11 9.76878 9.76878 11 8.25 11C6.73122 11 5.5 9.76878 5.5 8.25ZM17.7071 6.29289C18.0976 6.68342 18.0976 7.31658 17.7071 7.70711L7.70711 17.7071C7.31658 18.0976 6.68342 18.0976 6.29289 17.7071C5.90237 17.3166 5.90237 16.6834 6.29289 16.2929L16.2929 6.29289C16.6834 5.90237 17.3166 5.90237 17.7071 6.29289ZM15 15.75C15 15.3358 15.3358 15 15.75 15C16.1642 15 16.5 15.3358 16.5 15.75C16.5 16.1642 16.1642 16.5 15.75 16.5C15.3358 16.5 15 16.1642 15 15.75ZM15.75 13C14.2312 13 13 14.2312 13 15.75C13 17.2688 14.2312 18.5 15.75 18.5C17.2688 18.5 18.5 17.2688 18.5 15.75C18.5 14.2312 17.2688 13 15.75 13Z" fill="black"/>
</svg>
