<svg width="24" height="24" viewBox="0 0 24 24" fill="none" xmlns="http://www.w3.org/2000/svg">
<path fill-rule="evenodd" clip-rule="evenodd" d="M12 4.5C13.1027 4.5 14 5.39725 14 6.5C14 7.60275 13.1027 8.5 12 8.5C10.8973 8.5 10 7.60275 10 6.5C10 5.39725 10.8973 4.5 12 4.5ZM12 3C10.067 3 8.5 4.567 8.5 6.5C8.5 8.433 10.067 10 12 10C13.933 10 15.5 8.433 15.5 6.5C15.5 4.567 13.933 3 12 3ZM23.5396 18.0846C23.9594 17.6771 24.1059 17.0804 23.9219 16.5276C23.7391 15.9786 23.2669 15.5856 22.6892 15.5021L20.5522 15.1928C20.4582 15.1793 20.3757 15.1181 20.3317 15.0296L19.3747 13.0983C19.1155 12.575 18.5887 12.25 18 12.25C17.4113 12.25 16.8845 12.575 16.6253 13.0983L15.6683 15.0296C15.6243 15.1183 15.542 15.1793 15.4478 15.1928L13.3108 15.5021C12.7331 15.5856 12.2609 15.9786 12.0781 16.5276C11.8941 17.0806 12.0406 17.6771 12.4604 18.0846L14.0023 19.5814C14.0763 19.6534 14.1101 19.7584 14.0921 19.8627L13.7278 21.978C13.6513 22.4217 13.7756 22.8717 14.0686 23.2127C14.3618 23.5542 14.7878 23.75 15.2373 23.75C15.4843 23.75 15.7318 23.6888 15.9533 23.5727L17.8695 22.5692C17.9105 22.5477 17.9545 22.537 18.0002 22.537C18.046 22.537 18.09 22.548 18.131 22.5692L20.0472 23.5725C20.2687 23.6885 20.5162 23.7498 20.7632 23.7498C21.2127 23.7498 21.6384 23.554 21.9319 23.2125C22.2249 22.8715 22.3489 22.4215 22.2727 21.9777L21.9084 19.8624C21.8904 19.7584 21.9239 19.6532 21.9982 19.5812L23.5401 18.0844L23.5396 18.0846ZM11.2788 19.489C11.5755 19.4985 11.8388 19.6815 11.9505 19.9565L11.9502 19.9568C12.1527 20.4555 11.7792 20.9987 11.241 20.9885C11.1255 20.9862 11.0367 20.9837 11 20.981C7.64375 20.7257 5 17.9215 5 14.5C5 12.8432 6.34325 11.5 8 11.5H14.5862C15.1615 11.5 15.5167 12.127 15.2215 12.6207C15.218 12.6267 15.2143 12.6328 15.2108 12.6387C15.077 12.8625 14.8355 12.9997 14.5747 12.9997H8C7.17825 12.9997 6.50275 13.661 6.5 14.4828C6.4955 15.8245 7.016 17.0867 7.9645 18.0352C8.79 18.8608 9.85325 19.3622 11 19.4753C11.0562 19.4807 11.1627 19.4852 11.2788 19.489Z" fill="black"/>
</svg>
