<svg width="24" height="24" viewBox="0 0 24 24" fill="none" xmlns="http://www.w3.org/2000/svg">
<path fill-rule="evenodd" clip-rule="evenodd" d="M12 10C13.933 10 15.5 8.433 15.5 6.5C15.5 4.567 13.933 3 12 3C10.067 3 8.5 4.567 8.5 6.5C8.5 8.433 10.067 10 12 10ZM23.443 19.2711L22.9262 18.9763C22.555 18.7646 22.555 18.2354 22.9262 18.0237L23.443 17.7289C23.9757 17.4252 24.1582 16.7525 23.8505 16.2263L23.2937 15.2736C22.9862 14.7476 22.3053 14.5671 21.7725 14.8709L21.2558 15.1656C20.8846 15.3773 20.4206 15.1126 20.4206 14.6894V14.0999C20.4206 13.4925 19.9221 13 19.3069 13H18.1931C17.5782 13 17.0794 13.4925 17.0794 14.0999V14.6894C17.0794 15.1129 16.6154 15.3773 16.2442 15.1656L15.7275 14.8709C15.1947 14.5671 14.5138 14.7474 14.2063 15.2736L13.6495 16.2263C13.342 16.7522 13.5245 17.4249 14.057 17.7289L14.5737 18.0237C14.945 18.2354 14.945 18.7646 14.5737 18.9763L14.057 19.2711C13.5243 19.5748 13.3418 20.2475 13.6495 20.7737L14.2063 21.7264C14.5138 22.2524 15.1947 22.4329 15.7275 22.1291L16.2442 21.8344C16.6154 21.6227 17.0794 21.8874 17.0794 22.3106V22.9001C17.0794 23.5075 17.5779 24 18.1931 24H19.3069C19.9218 24 20.4206 23.5075 20.4206 22.9001V22.3106C20.4206 21.8871 20.8846 21.6227 21.2558 21.8344L21.7725 22.1291C22.3053 22.4329 22.9862 22.2526 23.2937 21.7264L23.8505 20.7737C24.158 20.2478 23.9755 19.5751 23.443 19.2711ZM18.7501 20.3333C17.7397 20.3333 16.9207 19.5126 16.9207 18.5001C16.9207 17.4877 17.7397 16.667 18.7501 16.667C19.7606 16.667 20.5796 17.4877 20.5796 18.5001C20.5796 19.5126 19.7606 20.3333 18.7501 20.3333ZM12.656 18.4997C12.39 18.7982 12.1957 19.1565 12.0892 19.5537L12.0895 19.554C11.96 20.037 11.9722 20.5348 12.1195 21H11.5C7.91025 21 5 18.0898 5 14.5C5 12.8432 6.34325 11.5 8 11.5H16C16.402 11.5 16.7855 11.5792 17.136 11.7227C16.4677 12.018 15.946 12.5837 15.713 13.28C15.5358 13.2425 15.3545 13.2233 15.1723 13.2233C14.7247 13.2233 14.282 13.3382 13.8918 13.556C13.4855 13.7828 13.1467 14.115 12.912 14.5165L12.3553 15.4693C12.0035 16.071 11.909 16.773 12.0892 17.4457C12.1957 17.8428 12.39 18.2012 12.656 18.4997Z" fill="black"/>
</svg>
