<svg width="24" height="24" viewBox="0 0 24 24" fill="none" xmlns="http://www.w3.org/2000/svg">
<path fill-rule="evenodd" clip-rule="evenodd" d="M18 3.5H17C16.5858 3.5 16.25 3.16425 16.25 2.75C16.25 2.33575 16.5858 2 17 2H18C20.2093 2 22 3.79075 22 6V7C22 7.41425 21.6643 7.75 21.25 7.75C20.8358 7.75 20.5 7.41425 20.5 7V6C20.5 4.61925 19.3807 3.5 18 3.5ZM6 20.5H7C7.41425 20.5 7.75 20.8358 7.75 21.25C7.75 21.6643 7.41425 22 7 22H6C3.79075 22 2 20.2093 2 18V17C2 16.5858 2.33575 16.25 2.75 16.25C3.16425 16.25 3.5 16.5858 3.5 17V18C3.5 19.3807 4.61925 20.5 6 20.5ZM3.5 7V6C3.5 4.61925 4.61925 3.5 6 3.5H7C7.41425 3.5 7.75 3.16425 7.75 2.75C7.75 2.33575 7.41425 2 7 2H6C3.79075 2 2 3.79075 2 6V7C2 7.41425 2.33575 7.75 2.75 7.75C3.16425 7.75 3.5 7.41425 3.5 7ZM20.5 18V17C20.5 16.5858 20.8358 16.25 21.25 16.25C21.6643 16.25 22 16.5858 22 17V18C22 20.2093 20.2093 22 18 22H17C16.5858 22 16.25 21.6643 16.25 21.25C16.25 20.8358 16.5858 20.5 17 20.5H18C19.3807 20.5 20.5 19.3807 20.5 18ZM12 5C10.3433 5 9 6.34325 9 8C9 9.65675 10.3433 11 12 11C13.6568 11 15 9.65675 15 8C15 6.34325 13.6568 5 12 5ZM8.91274 12H15C16.1045 12 17 12.8955 17 14C17 16.7615 14.7615 19 12 19C9.2385 19 7 16.7615 7 14V13.9128C7 12.8565 7.85624 12 8.91274 12Z" fill="black"/>
</svg>
