<svg width="24" height="24" viewBox="0 0 24 24" fill="none" xmlns="http://www.w3.org/2000/svg">
<path fill-rule="evenodd" clip-rule="evenodd" d="M12 3.50023C12.6545 3.50023 13.2685 3.75398 13.7293 4.21472L16.5305 7.01588C15.9087 7.08248 15.3326 7.3569 14.884 7.805L12.5302 10.2823C12.2377 10.5745 11.7619 10.5745 11.4694 10.2823L9.1156 7.805C8.66705 7.35672 8.09103 7.08247 7.46928 7.01588L10.2707 4.21447C10.7315 3.75373 11.3455 3.49998 12 3.49998V3.50023ZM16.829 8.49925H18.0139L19.7858 10.2711C20.7393 11.2246 20.7393 12.7761 19.7858 13.7294L17.0143 16.5008H16.829C16.4949 16.5008 16.1812 16.3708 15.9449 16.1348L13.5911 13.6575C13.1526 13.219 12.5762 13 11.9999 13C11.4236 13 10.8476 13.2192 10.4088 13.6575L8.05496 16.1348C7.81893 16.3708 7.50491 16.5008 7.17087 16.5008H6.98565L4.2142 13.7294C3.75345 13.2686 3.49969 12.6546 3.49969 12.0001C3.49969 11.3456 3.75345 10.7316 4.2142 10.2709L5.98588 8.49925H7.17087C7.50491 8.49925 7.8187 8.62925 8.05498 8.86525L10.4087 11.3425C10.8473 11.781 11.4236 12 11.9999 12C12.5762 12 13.1523 11.7808 13.5911 11.3425L15.9449 8.86525C16.1809 8.62925 16.4949 8.49925 16.829 8.49925ZM8.26125 17.7763L10.2707 19.7858C10.7315 20.2465 11.3455 20.5003 12 20.5003C12.6545 20.5003 13.2685 20.2465 13.7293 19.7858L15.7386 17.7765C15.4236 17.6406 15.134 17.4448 14.884 17.195L12.5302 14.7178C12.2377 14.4255 11.7619 14.4255 11.4694 14.7178L9.11558 17.195C8.86566 17.4447 8.57617 17.6404 8.26125 17.7763ZM12 2C10.9897 2 9.97924 2.3845 9.21023 3.15374L3.1537 9.21016C1.61543 10.7484 1.61543 13.2514 3.1537 14.7898L9.21023 20.8463C9.97949 21.6155 10.9897 22 12 22C13.0103 22 14.0208 21.6155 14.7898 20.8463L20.8463 14.7898C22.3846 13.2516 22.3846 10.7486 20.8463 9.21016L14.7898 3.15374C14.0205 2.3845 13.0103 2 12 2Z" fill="black"/>
</svg>
