<svg width="24" height="24" viewBox="0 0 24 24" fill="none" xmlns="http://www.w3.org/2000/svg">
<path d="M12 3.5C13.1483 3.5 14.2613 3.7245 15.308 4.16725C16.32 4.59525 17.2292 5.2085 18.0102 5.9895C18.7912 6.7705 19.4045 7.67975 19.8325 8.69175C20.2752 9.73875 20.4998 10.8517 20.4998 11.9997C20.4998 13.1477 20.2752 14.261 19.8325 15.3078C19.4045 16.3198 18.7915 17.229 18.0102 18.01C17.2292 18.791 16.32 19.4042 15.308 19.8322C14.261 20.275 13.148 20.4995 12 20.4995C10.852 20.4995 9.73875 20.275 8.69175 19.8322C7.67975 19.4042 6.7705 18.791 5.9895 18.01C5.2085 17.229 4.59525 16.3198 4.16725 15.3078C3.7245 14.2608 3.5 13.1477 3.5 11.9997C3.5 10.8517 3.7245 9.7385 4.16725 8.69175C4.59525 7.67975 5.20825 6.7705 5.9895 5.9895C6.7705 5.2085 7.67975 4.59525 8.69175 4.16725C9.73875 3.7245 10.8518 3.5 12 3.5ZM12 2C6.47725 2 2 6.47725 2 12C2 17.5228 6.47725 22 12 22C17.5228 22 22 17.5228 22 12C22 6.47725 17.5228 2 12 2Z" fill="black"/>
</svg>
