<svg width="24" height="24" viewBox="0 0 24 24" fill="none" xmlns="http://www.w3.org/2000/svg">
<path fill-rule="evenodd" clip-rule="evenodd" d="M5.5 17C4.67157 17 4 16.3284 4 15.5V14.5C4 13.6716 4.67157 13 5.5 13H6.5C7.32843 13 8 13.6716 8 14.5V15.5C8 16.3284 7.32843 17 6.5 17H5.5ZM5.5 11C4.67157 11 4 10.3284 4 9.5L4 8.5C4 7.67157 4.67157 7 5.5 7L6.5 7C7.32843 7 8 7.67157 8 8.5V9.5C8 10.3284 7.32843 11 6.5 11H5.5ZM11.5 17C10.6716 17 10 16.3284 10 15.5V14.5C10 13.6716 10.6716 13 11.5 13H12.5C13.3284 13 14 13.6716 14 14.5V15.5C14 16.3284 13.3284 17 12.5 17H11.5ZM11.5 11C10.6716 11 10 10.3284 10 9.5V8.5C10 7.67157 10.6716 7 11.5 7H12.5C13.3284 7 14 7.67157 14 8.5V9.5C14 10.3284 13.3284 11 12.5 11H11.5ZM17.5 17C16.6716 17 16 16.3284 16 15.5V14.5C16 13.6716 16.6716 13 17.5 13H18.5C19.3284 13 20 13.6716 20 14.5V15.5C20 16.3284 19.3284 17 18.5 17H17.5ZM17.5 11C16.6716 11 16 10.3284 16 9.5V8.5C16 7.67157 16.6716 7 17.5 7H18.5C19.3284 7 20 7.67157 20 8.5V9.5C20 10.3284 19.3284 11 18.5 11H17.5Z" fill="black"/>
</svg>
