<svg width="24" height="24" viewBox="0 0 24 24" fill="none" xmlns="http://www.w3.org/2000/svg">
<path fill-rule="evenodd" clip-rule="evenodd" d="M17.2961 5.29249C17.6851 4.9025 18.3185 4.9025 18.7078 5.29249H18.708C19.0973 5.68249 19.0973 6.31673 18.708 6.70672L6.70393 18.707C6.51527 18.896 6.26472 19 5.99795 19C5.73118 19 5.48063 18.896 5.29197 18.707C4.90268 18.317 4.90268 17.6828 5.29197 17.2928L17.2961 5.29249ZM18.0059 11.5C18.2719 11.5 18.5219 11.6042 18.7099 11.7935C19.0967 12.183 19.0967 12.817 18.7099 13.2065L13.1974 18.7072C13.0104 18.8958 12.7601 19 12.4941 19C12.2281 19 11.9781 18.8958 11.7901 18.7065C11.4033 18.317 11.4033 17.683 11.7901 17.2935L17.3026 11.7927C17.4896 11.6042 17.7399 11.5 18.0059 11.5Z" fill="black"/>
</svg>
