<svg width="24" height="24" viewBox="0 0 24 24" fill="none" xmlns="http://www.w3.org/2000/svg">
<path fill-rule="evenodd" clip-rule="evenodd" d="M2.50019 11.4395L1.28032 10.2197C0.987416 9.92677 0.512543 9.92678 0.219657 10.2197C-0.0732292 10.5126 -0.0732174 10.9875 0.219683 11.2803L1.659 12.7196C2.53767 13.5982 3.96233 13.5982 4.84099 12.7196L6.28032 11.2803C6.57322 10.9875 6.57323 10.5126 6.28034 10.2197C5.98746 9.92678 5.51258 9.92677 5.21968 10.2197L4.00048 11.4388C4.0083 10.3797 4.21937 9.35314 4.62825 8.3865C5.031 7.434 5.60825 6.57825 6.34325 5.84325C7.0785 5.108 7.93425 4.531 8.8865 4.12825C9.40434 3.90921 9.93938 3.74694 10.4874 3.64227L10.0708 9.26781L10.0708 9.26786C10.0372 9.72072 9.86753 10.1527 9.58388 10.5072L9.58385 10.5072L8.82204 11.4595L8.82193 11.4596L8.82185 11.4597C8.28958 12.1246 8 12.9509 8 13.8023V19.4307C7.39701 19.0823 6.84218 18.6559 6.34304 18.1568C5.74879 17.5625 5.25779 16.8895 4.87879 16.1503C4.83979 16.0743 4.76629 15.9113 4.69179 15.7397C4.56079 15.4387 4.24829 15.2583 3.92229 15.297L3.91277 15.2981C3.90949 15.2985 3.90623 15.2989 3.90304 15.2992C3.40404 15.3572 3.10579 15.8825 3.30904 16.342C3.32029 16.3678 3.33179 16.3933 3.34354 16.4188C4.83604 19.7105 8.15054 22 12 22C17.2266 22 21.4673 17.7794 21.4999 12.5606L22.7197 13.7803C23.0126 14.0732 23.4875 14.0732 23.7803 13.7803C24.0732 13.4874 24.0732 13.0125 23.7803 12.7197L22.341 11.2804C21.4623 10.4018 20.0377 10.4018 19.159 11.2804L17.7197 12.7197C17.4268 13.0125 17.4268 13.4874 17.7197 13.7803C18.0125 14.0732 18.4874 14.0732 18.7803 13.7803L19.9993 12.5614C19.9915 13.6204 19.7804 14.6469 19.3715 15.6135C18.9688 16.566 18.3915 17.4218 17.6565 18.1568C17.1574 18.6559 16.6027 19.0821 16 19.4304V13.8023C16 12.9505 15.7099 12.1246 15.1782 11.4598L14.4161 10.5072L14.4161 10.5072C14.1325 10.1527 13.9628 9.72072 13.9292 9.26786L13.9292 9.26781L13.5126 3.64227C14.0606 3.74693 14.5957 3.90921 15.1135 4.12825C16.066 4.531 16.9218 5.10825 17.6568 5.84325C18.291 6.4775 18.8078 7.2015 19.1963 8C19.2185 8.0455 19.2618 8.1435 19.3103 8.257C19.44 8.5595 19.7527 8.7415 20.0798 8.70275C20.0834 8.70233 20.087 8.70191 20.0906 8.7015C20.0934 8.70116 20.0962 8.70083 20.099 8.7005C20.5968 8.64275 20.8945 8.1185 20.6917 7.66C19.2167 4.32625 15.88 2 12 2C6.77344 2 2.53275 6.22058 2.50019 11.4395Z" fill="black"/>
</svg>
