<svg width="24" height="24" viewBox="0 0 24 24" fill="none" xmlns="http://www.w3.org/2000/svg">
<path fill-rule="evenodd" clip-rule="evenodd" d="M15.1715 3H15V8C15 9.1045 14.1045 10 13 10H9C7.8955 10 7 9.1045 7 8V3C4.79075 3 3 4.79075 3 7V17C3 19.0399 4.52676 20.723 6.5 20.9691V14C6.5 12.8955 7.3955 12 8.5 12H15.5C16.6045 12 17.5 12.8955 17.5 14V20.9691C19.4732 20.723 21 19.0399 21 17V8.8285C21 8.298 20.7892 7.78925 20.4142 7.41425L16.5858 3.58575C16.2108 3.21075 15.702 3 15.1715 3ZM16 21V14C16 13.7242 15.7758 13.5 15.5 13.5H8.5C8.22425 13.5 8 13.7242 8 14V21H16ZM13.5 8V3H8.5V8C8.5 8.27575 8.72425 8.5 9 8.5H13C13.2758 8.5 13.5 8.27575 13.5 8Z" fill="black"/>
</svg>
