<svg width="24" height="24" viewBox="0 0 24 24" fill="none" xmlns="http://www.w3.org/2000/svg">
<path fill-rule="evenodd" clip-rule="evenodd" d="M14.389 6.611C13.3503 5.572 11.969 5 10.5 5C9.031 5 7.64975 5.57225 6.611 6.611C5.572 7.64975 5 9.031 5 10.5C5 11.969 5.57225 13.3503 6.611 14.389C7.64975 15.428 9.031 16 10.5 16C11.969 16 13.3503 15.4277 14.389 14.389C15.428 13.3503 16 11.969 16 10.5C16 9.031 15.4277 7.64975 14.389 6.611ZM3 10.5C3 6.35775 6.35775 3 10.5 3C14.6423 3 18 6.35775 18 10.5C18 12.2106 17.4274 13.7874 16.4634 15.0492L20.9571 19.5429C21.3476 19.9334 21.3476 20.5666 20.9571 20.9571C20.5666 21.3476 19.9334 21.3476 19.5429 20.9571L15.0492 16.4634C13.7874 17.4274 12.2106 18 10.5 18C6.35775 18 3 14.6423 3 10.5Z" fill="black"/>
</svg>
