<svg width="24" height="24" viewBox="0 0 24 24" fill="none" xmlns="http://www.w3.org/2000/svg">
<path fill-rule="evenodd" clip-rule="evenodd" d="M6.88862 2.78132C4.46377 1.51959 1.84115 4.0972 3.05773 6.54593L5.24541 10.9479C5.5748 11.6105 5.5748 12.3893 5.24541 13.0519C5.24348 13.0558 5.24158 13.0597 5.23972 13.0636L3.05777 17.454C1.84072 19.903 4.46398 22.4804 6.88863 21.2187L19.7019 14.5514L19.7019 14.5514C21.766 13.4775 21.766 10.5226 19.7019 9.44869L19.7019 9.44866L6.88862 2.78132ZM6.19704 4.11217C5.0597 3.52039 3.82934 4.72927 4.4 5.87808L6.58757 10.2798L6.5876 10.2799C6.74206 10.5906 6.85222 10.917 6.91807 11.25H13C13.4142 11.25 13.75 11.5858 13.75 12C13.75 12.4142 13.4142 12.75 13 12.75H6.91803C6.85306 13.0785 6.74499 13.4004 6.59383 13.7073C6.5918 13.7116 6.58972 13.7159 6.5876 13.7201L4.4 18.122C3.8292 19.2706 5.05948 20.4798 6.19704 19.8879L19.0104 13.2205L19.0104 13.2205C19.9978 12.7068 19.9978 11.2933 19.0104 10.7796L19.0104 10.7795L6.19704 4.11217Z" fill="black"/>
</svg>
