<svg width="24" height="24" viewBox="0 0 24 24" fill="none" xmlns="http://www.w3.org/2000/svg">
<path d="M12 2C12.2388 2 12.4574 2.11415 12.5986 2.30664C12.6336 2.35045 13.1521 2.98738 14.2773 3.62402C15.2866 4.19492 16.9922 4.87543 19.501 4.99023L20.0137 5.00586C20.5574 5.01384 20.9999 5.46166 21 6.00488V11.0645C21 12.6994 20.5839 14.3207 19.7969 15.7539C19.0099 17.1871 17.8644 18.4084 16.4844 19.2861L12.4023 21.8828C12.2794 21.9609 12.1399 22 12 22C11.86 22 11.7194 21.9611 11.5967 21.8828L7.51562 19.2861C6.13587 18.4084 4.99013 17.1871 4.20312 15.7539C3.41614 14.3207 3.00003 12.6994 3 11.0645V6.00488C3.00015 5.46166 3.44261 5.0136 3.98633 5.00586C6.77697 4.96712 8.64607 4.23296 9.72266 3.62402C10.8513 2.98559 11.3703 2.34723 11.4023 2.30664C11.5433 2.11418 11.7613 2.00004 12 2ZM15.5303 8.46973C15.2373 8.17677 14.7627 8.17682 14.4697 8.46973L12 10.9395L9.53027 8.46973C9.23729 8.17682 8.76268 8.17677 8.46973 8.46973C8.17677 8.76268 8.17682 9.23729 8.46973 9.53027L10.9395 12L8.46973 14.4697C8.17682 14.7627 8.17677 15.2373 8.46973 15.5303C8.61597 15.6768 8.80826 15.75 9 15.75C9.19172 15.75 9.3838 15.6768 9.53027 15.5303L12 13.0605L14.4697 15.5303C14.6159 15.6766 14.8084 15.75 15 15.75C15.1915 15.7499 15.383 15.6765 15.5293 15.5303C15.8223 15.2373 15.8223 14.7627 15.5293 14.4697H15.5303L13.0605 12L15.5303 9.53027C15.8232 9.23729 15.8232 8.76268 15.5303 8.46973Z" fill="black"/>
</svg>
