<svg width="24" height="24" viewBox="0 0 24 24" fill="none" xmlns="http://www.w3.org/2000/svg">
<path fill-rule="evenodd" clip-rule="evenodd" d="M10.0903 19.1475C10.41 19.351 10.5278 19.761 10.3645 20.103H10.3643C10.1705 20.5093 9.665 20.6542 9.28525 20.4128L7.51525 19.2868C6.1355 18.409 4.99 17.1875 4.203 15.7543C3.416 14.321 3 12.6995 3 11.0645V6.00525C3 5.46175 3.44275 5.01325 3.98675 5.00575C6.77775 4.967 8.6465 4.23275 9.723 3.62375C10.8517 2.98525 11.3698 2.34675 11.4018 2.30625C11.5428 2.11375 11.7613 2 12 2C12.2387 2 12.457 2.11375 12.5982 2.30625C12.6305 2.34675 13.1485 2.98525 14.277 3.62375C15.3535 4.23275 17.2223 4.967 20.0133 5.00575C20.5573 5.0135 21 5.46175 21 6.00525L20.9995 9.9005C20.9995 10.3145 20.6637 10.6502 20.2498 10.6502C19.8358 10.6502 19.5 10.3145 19.5 9.9005V6.4915C15.3363 6.3195 13.0055 4.7415 12 3.83575C10.9945 4.7415 8.66375 6.3195 4.5 6.4915V11.0645C4.5 12.4477 4.852 13.82 5.518 15.0328C6.184 16.2455 7.15325 17.279 8.32075 18.0218L10.0903 19.1475ZM12 18C12 14.6863 14.6863 12 18 12C21.3137 12 24 14.6863 24 18C24 21.3137 21.3137 24 18 24C14.6863 24 12 21.3137 12 18ZM20 20.5C20.128 20.5 20.2557 20.4512 20.3535 20.3535H20.3537C20.549 20.1583 20.549 19.8417 20.3537 19.6465L18.793 18.0858C18.604 17.8968 18.5 17.6455 18.5 17.3785V14.9997C18.5 14.7235 18.2762 14.4997 18 14.4997C17.7238 14.4997 17.5 14.7235 17.5 14.9997V17.3785C17.5 17.9128 17.708 18.415 18.0857 18.7928L19.6465 20.3535C19.744 20.4512 19.872 20.5 20 20.5Z" fill="black"/>
</svg>
