<svg width="24" height="24" viewBox="0 0 24 24" fill="none" xmlns="http://www.w3.org/2000/svg">
<path fill-rule="evenodd" clip-rule="evenodd" d="M11.5 18.5206V21.0237L11.4997 21.0239C11.4997 21.3208 11.5285 21.6134 11.585 21.9L7.51525 19.3081C6.1355 18.4292 4.99 17.2062 4.203 15.7712C3.416 14.3362 3 12.7127 3 11.0757V6.01019C3 5.46602 3.44275 5.01696 3.98675 5.00946C6.77775 4.97066 8.6465 4.2355 9.723 3.62575C10.8518 2.98646 11.3698 2.34718 11.4018 2.30663C11.5428 2.11389 11.7613 2 12 2C12.2387 2 12.457 2.11389 12.5982 2.30663C12.6305 2.34718 13.1485 2.98646 14.277 3.62575C15.3535 4.2355 17.2223 4.97066 20.0133 5.00946C20.5573 5.01721 21 5.46602 21 6.01019V11.0757C21 11.2659 20.9943 11.4561 20.983 11.6459C20.1883 10.94 19.1432 10.5107 18 10.5107C15.6018 10.5107 13.6355 12.3988 13.5068 14.7685C13.0588 15.0668 12.666 15.4453 12.3455 15.8914C11.7923 16.6611 11.5 17.5702 11.5 18.5206ZM21 15V15.671C22.1652 16.0828 23 17.1938 23 18.5V21C23 22.6568 21.6568 24 20 24H16C14.3432 24 13 22.6568 13 21V18.5C13 17.1938 13.8348 16.0828 15 15.671V15C15 13.3458 16.3458 12 18 12C19.6542 12 21 13.3458 21 15ZM18 21C18.4143 21 18.75 20.6643 18.75 20.25V19.25C18.75 18.8358 18.4143 18.5 18 18.5C17.5858 18.5 17.25 18.8358 17.25 19.25V20.25C17.25 20.6643 17.5858 21 18 21ZM16.5 15.5H19.5V15C19.5 14.173 18.827 13.5 18 13.5C17.173 13.5 16.5 14.173 16.5 15V15.5Z" fill="black"/>
</svg>
