<svg width="24" height="24" viewBox="0 0 24 24" fill="none" xmlns="http://www.w3.org/2000/svg">
<path d="M20.0135 5.00567C17.2224 4.96693 15.3537 4.23269 14.2772 3.62371C13.1486 2.98523 12.6306 2.34674 12.5984 2.30624C12.4571 2.11375 12.2389 2 12.0001 2C11.7614 2 11.5429 2.11375 11.4019 2.30624C11.3699 2.34674 10.8519 2.98523 9.72309 3.62371C8.64658 4.23269 6.7778 4.96693 3.98676 5.00567C3.44276 5.01317 3 5.46166 3 6.00515V11.0643C3 12.6992 3.41601 14.3207 4.20302 15.7539C4.99003 17.1871 6.13554 18.4086 7.51531 19.2863L11.5971 21.8828C11.7199 21.961 11.8599 22 11.9999 22C12.1399 22 12.2796 21.961 12.4026 21.8828L16.4847 19.2863C17.8647 18.4086 19.01 17.1871 19.797 15.7539C20.584 14.3207 21 12.6992 21 11.0643V6.00515C21 5.46166 20.5572 5.01342 20.0132 5.00567H20.0135Z" fill="black"/>
</svg>
