<svg width="24" height="24" viewBox="0 0 24 24" fill="none" xmlns="http://www.w3.org/2000/svg">
<path fill-rule="evenodd" clip-rule="evenodd" d="M20.013 5.002C17.2221 4.96325 15.3533 4.229 14.2768 3.61975C13.1486 2.98125 12.6306 2.34275 12.5984 2.302C12.4584 2.111 12.2391 2.00175 12.0021 2H11.9969C11.7609 2 11.5416 2.11525 11.3999 2.30425C11.3954 2.31025 10.9134 2.9295 9.80241 3.57425C8.71767 4.20375 6.8282 4.9625 3.98674 5.002C3.44274 5.0095 3 5.458 3 6.0015V11.0617C3 12.697 3.41599 14.319 4.20298 15.7525C4.98997 17.186 6.13546 18.4077 7.51519 19.2857L10.3474 21.0877C10.8466 21.4053 11.4999 21.0467 11.4999 20.455C11.4999 20.1985 11.3689 19.96 11.1526 19.8222L8.32093 18.0205C7.15344 17.2777 6.18421 16.2437 5.51822 15.031C4.85222 13.818 4.50023 12.4455 4.50023 11.062V6.48825C8.66392 6.31625 10.9946 4.738 12.0001 3.832C13.0056 4.738 15.3363 6.31625 19.5 6.48825V10.327C19.5 10.5935 19.6415 10.84 19.8715 10.9745C20.3715 11.2667 21 10.906 21 10.327V6.002C21 5.45825 20.557 5.0095 20.013 5.002ZM21 15.671V15C21 13.3458 19.6542 12 18 12C16.3458 12 15 13.3458 15 15V15.671C13.8348 16.0828 13 17.1938 13 18.5V21C13 22.6567 14.3432 24 16 24H20C21.6567 24 23 22.6567 23 21V18.5C23 17.1938 22.1652 16.0828 21 15.671ZM16.5 15.5H19.5V15C19.5 14.173 18.827 13.5 18 13.5C17.173 13.5 16.5 14.173 16.5 15V15.5ZM18.75 20.25C18.75 20.6642 18.4142 21 18 21C17.5858 21 17.25 20.6642 17.25 20.25V19.25C17.25 18.8358 17.5858 18.5 18 18.5C18.4142 18.5 18.75 18.8358 18.75 19.25V20.25Z" fill="black"/>
</svg>
