<svg width="24" height="24" viewBox="0 0 24 24" fill="none" xmlns="http://www.w3.org/2000/svg">
<path fill-rule="evenodd" clip-rule="evenodd" d="M12.5083 20.2215L12.2495 21.7232V21.724C12.2335 21.8162 12.2223 21.9085 12.215 22.0007H7.00004C4.79079 22.0007 3.00004 20.21 3.00004 18.0007V11.2997C2.94029 11.235 2.88229 11.1682 2.82654 11.099C2.11079 10.207 1.84229 9.05448 2.09029 7.93748L2.58229 5.72048C2.81554 4.66948 3.40604 3.71948 4.24504 3.04573C5.08404 2.37198 6.13879 2.00073 7.21454 2.00073H16.7855C17.8613 2.00073 18.916 2.37173 19.755 3.04573C20.594 3.71948 21.1845 4.66948 21.4178 5.72048L21.9098 7.93748C22.1578 9.05448 21.8893 10.2067 21.1735 11.099C21.1178 11.1682 21.0598 11.235 21 11.2997V13.0005L20.7188 12.4327C20.4668 11.9242 20.0793 11.4987 19.5985 11.202C19.3893 11.0727 19.1658 10.9702 18.933 10.8957C19.3495 10.7637 19.7218 10.511 20.0035 10.16C20.4333 9.62448 20.5943 8.93273 20.4455 8.26223L19.9535 6.04523C19.794 5.32598 19.39 4.67598 18.816 4.21498C18.2423 3.75423 17.5213 3.50048 16.7858 3.50048H7.21479C6.47929 3.50048 5.75829 3.75423 5.18454 4.21498C4.61079 4.67598 4.20679 5.32598 4.04704 6.04523L3.55504 8.26223C3.40629 8.93273 3.56729 9.62448 3.99704 10.16C4.42579 10.6942 5.06379 11.0005 5.74804 11.0005H5.75829C6.99679 11.0005 8.00454 9.99123 8.00454 8.75048V8.00048C8.00454 7.58623 8.34029 7.25048 8.75454 7.25048C9.16879 7.25048 9.50454 7.58623 9.50454 8.00048V8.75048C9.50454 9.99123 10.512 11.0005 11.7508 11.0005H12.25C13.4885 11.0005 14.4963 9.99123 14.4963 8.75048V8.00048C14.4963 7.58623 14.832 7.25048 15.2463 7.25048C15.6605 7.25048 15.9963 7.58623 15.9963 8.00048V8.75048C15.9963 9.67673 16.558 10.4737 17.358 10.8185C17.0205 10.8907 16.697 11.0195 16.4018 11.2017C15.9208 11.4982 15.5335 11.924 15.2815 12.4325L14.604 13.7995L13.0963 14.0177C12.5388 14.0982 12.0168 14.33 11.5873 14.6872C11.1555 15.0465 10.833 15.519 10.655 16.054C10.4753 16.594 10.4515 17.1695 10.5863 17.7182C10.7208 18.2657 11.0075 18.7647 11.4158 19.161L12.5083 20.2215ZM23.9219 16.5276C24.1059 17.0803 23.9594 17.6771 23.5397 18.0846L23.5402 18.0844L21.9982 19.5811C21.924 19.6531 21.8905 19.7584 21.9085 19.8624L22.2727 21.9777C22.349 22.4215 22.225 22.8715 21.932 23.2125C21.6385 23.554 21.2127 23.7497 20.7632 23.7497C20.5162 23.7497 20.2687 23.6885 20.0472 23.5725L18.131 22.5692C18.09 22.548 18.046 22.537 18.0003 22.537C17.9545 22.537 17.9105 22.5477 17.8695 22.5692L15.9533 23.5727C15.7318 23.6887 15.4843 23.75 15.2373 23.75C14.7878 23.75 14.3619 23.5542 14.0686 23.2127C13.7756 22.8717 13.6514 22.4217 13.7279 21.9779L14.0921 19.8626C14.1101 19.7584 14.0764 19.6534 14.0024 19.5814L12.4604 18.0846C12.0406 17.6771 11.8942 17.0806 12.0781 16.5276C12.2609 15.9786 12.7331 15.5856 13.3109 15.5021L15.4478 15.1928C15.5421 15.1793 15.6243 15.1183 15.6683 15.0295L16.6253 13.0982C16.8846 12.575 17.4113 12.25 18 12.25C18.5888 12.25 19.1155 12.575 19.3748 13.0982L20.3317 15.0295C20.3757 15.118 20.4582 15.1793 20.5522 15.1928L22.6892 15.5021C23.2669 15.5856 23.7392 15.9786 23.9219 16.5276Z" fill="black"/>
</svg>
