<svg width="24" height="24" viewBox="0 0 24 24" fill="none" xmlns="http://www.w3.org/2000/svg">
<path fill-rule="evenodd" clip-rule="evenodd" d="M12.2504 12.4997C13.4744 12.4997 14.5632 11.909 15.2472 10.9975C15.2877 11.0515 15.33 11.1045 15.3732 11.1565C15.6065 11.4347 16.0065 11.5062 16.3185 11.3205C16.3243 11.317 16.3303 11.3135 16.336 11.31C16.727 11.0787 16.8225 10.5495 16.529 10.2027C16.1968 9.8105 15.9963 9.30325 15.9963 8.75V8C15.9963 7.58575 15.6608 7.25 15.247 7.25C14.8332 7.25 14.4977 7.58575 14.4977 8V8.75C14.4977 9.99075 13.4894 11 12.2501 11H11.7506C10.5113 11 9.50304 9.99075 9.50304 8.75V8C9.50304 7.58575 9.16752 7.25 8.75376 7.25C8.33999 7.25 8.00448 7.58575 8.00448 8V8.75C8.00448 9.99075 6.9962 11 5.75691 11H5.74666C5.06138 11 4.42236 10.693 3.99359 10.158C3.56483 9.62275 3.40408 8.93175 3.55283 8.262L4.04485 6.045C4.2046 5.32575 4.60862 4.676 5.18264 4.215C5.75666 3.754 6.47818 3.50025 7.21396 3.50025H16.786C17.5221 3.50025 18.2433 3.75425 18.8174 4.215C19.3914 4.67575 19.7954 5.326 19.9551 6.045L20.4472 8.262C20.5959 8.93175 20.4352 9.62275 20.0064 10.158C19.9466 10.2325 19.8829 10.3025 19.8154 10.368C19.4904 10.6835 19.5256 11.213 19.8934 11.4775C19.9076 11.4877 19.9219 11.498 19.9356 11.5082C20.2202 11.716 20.6127 11.6847 20.8647 11.4387C20.9742 11.332 21.0777 11.2177 21.1749 11.0965C21.8897 10.2045 22.1575 9.05275 21.9097 7.9365L21.4177 5.7195C21.1844 4.6685 20.5939 3.7185 19.7549 3.04475C18.9159 2.371 17.8616 2 16.786 2H7.21396C6.13842 2 5.08388 2.371 4.2451 3.04475C3.40607 3.7185 2.81555 4.6685 2.58229 5.7195L2.09028 7.9365C1.84252 9.05275 2.11028 10.2045 2.82505 11.0965C2.88125 11.1666 2.93961 11.2344 3 11.2998V18C3 20.2093 4.79075 22 7 22H11.5835C11.9453 22 12.254 21.7383 12.3128 21.3813C12.3133 21.3779 12.3139 21.3745 12.3144 21.3712C12.315 21.3673 12.3156 21.3635 12.3162 21.3598C12.3907 20.9095 12.0432 20.5 11.587 20.5H7C5.61925 20.5 4.5 19.3807 4.5 18V12.288C4.89481 12.427 5.31536 12.5 5.74691 12.5H5.75716C6.9812 12.5 8.06998 11.9093 8.75376 10.9978C9.43778 11.9093 10.5266 12.5 11.7506 12.5H12.2501L12.2504 12.4997ZM23.5397 18.0846C23.9594 17.6771 24.1059 17.0804 23.9219 16.5276C23.7391 15.9786 23.2669 15.5856 22.6892 15.5021L20.5522 15.1928C20.4582 15.1793 20.3757 15.1181 20.3317 15.0296L19.3747 13.0983C19.1155 12.575 18.5887 12.25 18 12.25C17.4113 12.25 16.8845 12.575 16.6253 13.0983L15.6683 15.0296C15.6243 15.1183 15.542 15.1793 15.4478 15.1928L13.3108 15.5021C12.7331 15.5856 12.2609 15.9786 12.0781 16.5276C11.8941 17.0806 12.0406 17.6771 12.4603 18.0846L14.0023 19.5814C14.0763 19.6534 14.1101 19.7584 14.0921 19.8627L13.7278 21.978C13.6513 22.4217 13.7756 22.8717 14.0686 23.2127C14.3618 23.5542 14.7878 23.75 15.2373 23.75C15.4843 23.75 15.7318 23.6888 15.9533 23.5727L17.8695 22.5692C17.9105 22.5477 17.9545 22.537 18.0003 22.537C18.046 22.537 18.09 22.548 18.131 22.5692L20.0472 23.5725C20.2687 23.6885 20.5162 23.7498 20.7632 23.7498C21.2127 23.7498 21.6384 23.554 21.9319 23.2125C22.2249 22.8715 22.3489 22.4215 22.2727 21.9777L21.9084 19.8624C21.8904 19.7584 21.9239 19.6532 21.9982 19.5812L23.5402 18.0844L23.5397 18.0846Z" fill="black"/>
</svg>
