<svg width="24" height="24" viewBox="0 0 24 24" fill="none" xmlns="http://www.w3.org/2000/svg">
<g clip-path="url(#clip0_1_687)">
<path fill-rule="evenodd" clip-rule="evenodd" d="M18.2532 12.5H18.2437C17.0197 12.5 15.9309 11.9092 15.2469 10.9977C14.5629 11.9095 13.4741 12.5 12.2501 12.5H11.7506C10.5266 12.5 9.43785 11.9092 8.75384 10.9977C8.06983 11.9095 6.98107 12.5 5.75706 12.5H5.74681C5.31527 12.5 4.89475 12.427 4.5 12.288V18C4.5 19.3807 5.61925 20.5 7 20.5H11.25C11.6642 20.5 12 20.8357 12 21.25C12 21.6642 11.6642 22 11.25 22H7C4.79075 22 3 20.2092 3 18V11.2998C2.9396 11.2345 2.88123 11.1667 2.82503 11.0965C2.11028 10.2045 1.84252 9.05275 2.09028 7.9365L2.58228 5.7195C2.81553 4.6685 3.40604 3.7185 4.24505 3.04475C5.08406 2.371 6.13832 2 7.21408 2H16.7859C17.8614 2 18.9159 2.371 19.7549 3.04475C20.594 3.7185 21.1845 4.6685 21.4177 5.7195L21.9097 7.9365C22.1575 9.05275 21.8897 10.2045 21.175 11.0965C20.4602 11.9885 19.3952 12.5 18.2532 12.5ZM15.9964 8V8.75C15.9964 9.99075 17.0047 11 18.2439 11H18.2542C18.9394 11 19.5784 10.693 20.0072 10.158C20.436 9.62275 20.5967 8.93175 20.448 8.262L19.9559 6.045C19.7962 5.32575 19.3922 4.67575 18.8182 4.215C18.2442 3.754 17.5227 3.50025 16.7869 3.50025H7.21508C6.47907 3.50025 5.75781 3.75425 5.18381 4.215C4.6098 4.676 4.2058 5.326 4.04604 6.045L3.55404 8.262C3.40529 8.93175 3.56604 9.62275 3.9948 10.158C4.42355 10.6932 5.06256 11 5.74781 11H5.75806C6.99733 11 8.00558 9.99075 8.00558 8.75V8C8.00558 7.58575 8.34109 7.25 8.75484 7.25C9.1686 7.25 9.5041 7.58575 9.5041 8V8.75C9.5041 9.99075 10.5124 11 11.7516 11H12.2511C13.4904 11 14.4986 9.99075 14.4986 8.75V8C14.4986 7.58575 14.8341 7.25 15.2479 7.25C15.6617 7.25 15.9972 7.58575 15.9972 8H15.9964ZM22.6926 17.4856L23.4454 16.7328C24.1849 15.9933 24.1849 14.7944 23.4454 14.0546C22.7059 13.3151 21.5069 13.3151 20.7671 14.0546L20.0143 14.8074L22.6926 17.4856ZM19.3076 15.5146L14.2898 20.5323C13.974 20.848 13.7647 21.2545 13.6912 21.695L13.515 22.7522C13.3942 23.4772 14.0228 24.106 14.7478 23.985L15.805 23.8087C16.2455 23.7352 16.652 23.5262 16.9678 23.2102L21.9856 18.1926L19.3076 15.5146Z" fill="black"/>
</g>
<defs>
<clipPath id="clip0_1_687">
<rect width="24" height="24" fill="white"/>
</clipPath>
</defs>
</svg>
