<svg width="24" height="24" viewBox="0 0 24 24" fill="none" xmlns="http://www.w3.org/2000/svg">
<path fill-rule="evenodd" clip-rule="evenodd" d="M5.75 3C5.75 2.58579 5.41421 2.25 5 2.25C4.58579 2.25 4.25 2.58579 4.25 3C4.25 4.12936 5.03011 4.7118 5.49974 5.06242C5.51693 5.07525 5.5337 5.08777 5.55 5.1C6.08826 5.5037 6.25 5.67069 6.25 6C6.25 6.41421 6.58579 6.75 7 6.75C7.41421 6.75 7.75 6.41421 7.75 6C7.75 4.87064 6.96989 4.2882 6.50026 3.93758C6.48307 3.92475 6.4663 3.91223 6.45 3.9C5.91174 3.4963 5.75 3.32931 5.75 3ZM11.5 22C14.5756 22 17.2187 20.1489 18.376 17.5H19.5C21.43 17.5 23 15.93 23 14C23 12.07 21.43 10.5 19.5 10.5H19C18.9861 10.5 18.9724 10.5004 18.9587 10.5011C18.7211 9.08178 17.4868 8 16 8H15.9997H13.4997V11.5H13.963C14.8118 11.5 15.4997 12.188 15.4997 13.0367V15.963C15.4997 16.8118 14.8118 17.4997 13.963 17.4997H11.5368C10.688 17.4997 10 16.8118 10 15.963V13.0367C10 12.188 10.688 11.5 11.5368 11.5H12V8H7C5.34325 8 4 9.34325 4 11V14.5C4 18.6423 7.35775 22 11.5 22ZM19 14.5V12H19.5C20.6027 12 21.5 12.8973 21.5 14C21.5 15.1027 20.6027 16 19.5 16H18.85C18.9484 15.5153 19 15.0137 19 14.5ZM9 2.25C9.41421 2.25 9.75 2.58579 9.75 3C9.75 3.32931 9.91174 3.4963 10.45 3.9C10.4663 3.91223 10.4831 3.92475 10.5003 3.93758C10.9699 4.2882 11.75 4.87064 11.75 6C11.75 6.41421 11.4142 6.75 11 6.75C10.5858 6.75 10.25 6.41421 10.25 6C10.25 5.67069 10.0883 5.5037 9.55 5.1C9.5337 5.08777 9.51693 5.07525 9.49974 5.06242C9.03011 4.7118 8.25 4.12936 8.25 3C8.25 2.58579 8.58579 2.25 9 2.25ZM13.75 3C13.75 2.58579 13.4142 2.25 13 2.25C12.5858 2.25 12.25 2.58579 12.25 3C12.25 4.12936 13.0301 4.7118 13.4997 5.06242L13.5 5.0626L13.5006 5.06303L13.5008 5.06319C13.5176 5.07576 13.534 5.08802 13.55 5.1C14.0883 5.5037 14.25 5.67069 14.25 6C14.25 6.41421 14.5858 6.75 15 6.75C15.4142 6.75 15.75 6.41421 15.75 6C15.75 4.87064 14.9699 4.2882 14.5003 3.93758L14.5 3.9374L14.4994 3.93697L14.4992 3.93681C14.4824 3.92424 14.466 3.91198 14.45 3.9C13.9117 3.4963 13.75 3.32931 13.75 3ZM11.5368 13H13.9633C13.9835 13 14 13.0165 14 13.0367V15.9633C14 15.9835 13.9835 16 13.9633 16H11.5368C11.5165 16 11.5 15.9835 11.5 15.9633V13.0367C11.5 13.0165 11.5165 13 11.5368 13Z" fill="black"/>
</svg>
