<svg width="24" height="24" viewBox="0 0 24 24" fill="none" xmlns="http://www.w3.org/2000/svg">
<path fill-rule="evenodd" clip-rule="evenodd" d="M9 21H16.2075H16.2077C17.2482 21 18.2372 20.6688 19.068 20.0423C19.8987 19.4155 20.489 18.5555 20.7748 17.555L21.8532 13.7803C22.1795 12.6386 21.9563 11.4399 21.2413 10.4919C20.5263 9.54389 19.435 9.00015 18.2475 9.00015H16.421C16.1882 9.00015 15.973 8.8949 15.8298 8.71165C15.6865 8.52841 15.6368 8.29366 15.6933 8.06816L16.57 4.56096C16.7857 3.69872 16.5955 2.80273 16.0488 2.10224C15.502 1.40174 14.6785 1 13.79 1C12.7122 1 11.736 1.59524 11.2425 2.55348L8.24951 8.36341C8.04999 8.75074 7.88873 9.1575 7.76763 9.57587C7.27188 9.21374 6.66088 9 6 9H5C3.34325 9 2 10.3433 2 12V18C2 19.6568 3.34325 21 5 21H7.5H9ZM9 19.5H16.2075C16.9195 19.5 17.5963 19.2735 18.1645 18.8448C18.733 18.416 19.1367 17.8275 19.3322 17.143L20.4107 13.3683C20.6065 12.6834 20.4728 11.9641 20.0435 11.3954C19.6145 10.8266 18.9597 10.5004 18.2472 10.5004H16.4208C15.723 10.5004 15.0767 10.1849 14.6472 9.63514C14.218 9.08515 14.0687 8.38166 14.238 7.70492L15.1147 4.19771C15.2175 3.78696 15.127 3.35972 14.8663 3.02597C14.6058 2.69223 14.2132 2.50073 13.7897 2.50073C13.276 2.50073 12.8107 2.78448 12.5755 3.24097L9.58249 9.0509C9.20124 9.79114 8.99976 10.6224 8.99976 11.4551V11.9613C8.99992 11.9742 9 11.9871 9 12V19.5ZM7.5 19.5V12C7.5 11.173 6.827 10.5 6 10.5H5C4.173 10.5 3.5 11.173 3.5 12V18C3.5 18.827 4.173 19.5 5 19.5H7.5Z" fill="black"/>
</svg>
