<svg width="24" height="24" viewBox="0 0 24 24" fill="none" xmlns="http://www.w3.org/2000/svg">
<path fill-rule="evenodd" clip-rule="evenodd" d="M20.4998 8C20.4998 6.6215 19.3783 5.5 17.9998 5.5H17.9996H9.75V7C9.75 7.41421 9.41421 7.75 9 7.75C8.58579 7.75 8.25 7.41421 8.25 7V5.5H5.9997C4.62122 5.5 3.49973 6.6215 3.49973 8V9C4.28297 9.00575 5.02296 9.308 5.5862 9.8525C6.1647 10.412 6.48894 11.1605 6.49944 11.9607C6.50469 12.3688 6.42919 12.7662 6.27445 13.1417C6.1257 13.5035 5.91045 13.8285 5.63495 14.1075C5.35946 14.3868 5.03721 14.606 4.67722 14.7598C4.30397 14.9193 3.90773 15 3.49998 15V16C3.49998 17.3785 4.62147 18.5 5.99995 18.5H8.25V17C8.25 16.5858 8.58579 16.25 9 16.25C9.41421 16.25 9.75 16.5858 9.75 17V18.5H17.9998C19.3783 18.5 20.4998 17.3785 20.4998 16V15C19.6985 15 18.9453 14.6877 18.3785 14.1212C17.8118 13.5547 17.4998 12.8012 17.4998 12C17.4998 11.1988 17.8121 10.4455 18.3785 9.87875C18.945 9.312 19.6985 9 20.4998 9V8ZM5.99995 4H17.9998H18.0001C20.2093 4 22 5.79075 22 8V9C22 9.8285 21.3285 10.5 20.5 10.5C19.6715 10.5 19 11.1715 19 12C19 12.8285 19.6715 13.5 20.5 13.5C21.3285 13.5 22 14.1715 22 15V16C22 18.2093 20.2093 20 18.0001 20H6.0002C3.79098 20 2.00025 18.2093 2.00025 16V15C2.00025 14.1715 2.66524 13.5 3.50023 13.5C4.33522 13.5 5.01071 12.8175 4.99996 11.98C4.98921 11.1558 4.29397 10.5 3.47773 10.5C2.66149 10.5 2 9.83825 2 9.02225V8C2 5.79075 3.79073 4 5.99995 4ZM9 9.75C9.41421 9.75 9.75 10.0858 9.75 10.5V13.5C9.75 13.9142 9.41421 14.25 9 14.25C8.58579 14.25 8.25 13.9142 8.25 13.5V10.5C8.25 10.0858 8.58579 9.75 9 9.75Z" fill="black"/>
</svg>
