<svg width="24" height="24" viewBox="0 0 24 24" fill="none" xmlns="http://www.w3.org/2000/svg">
<path d="M20.5 10.5C21.3285 10.5 22 9.8285 22 9V8C22 5.79075 20.2093 4 18 4H9.75V7C9.75 7.41425 9.41425 7.75 9 7.75C8.58575 7.75 8.25 7.41425 8.25 7V4H6C3.79075 4 2 5.79075 2 8V9.02225C2 9.83825 2.6615 10.5 3.47775 10.5C4.30225 10.5 4.98925 11.1558 5 11.98C5.01075 12.8175 4.33525 13.5 3.50025 13.5C2.67175 13.5 2.00025 14.1715 2.00025 15V16C2.00025 18.2093 3.791 20 6.00025 20H8.25025V17C8.25025 16.5858 8.586 16.25 9.00025 16.25C9.4145 16.25 9.75025 16.5858 9.75025 17V20H18.0003C20.2095 20 22.0003 18.2093 22.0003 16V15C22.0003 14.1715 21.3288 13.5 20.5003 13.5C19.6718 13.5 19.0003 12.8285 19.0003 12C19.0003 11.1715 19.6718 10.5 20.5003 10.5H20.5ZM9.75 13.5C9.75 13.9143 9.41425 14.25 9 14.25C8.58575 14.25 8.25 13.9143 8.25 13.5V10.5C8.25 10.0858 8.58575 9.75 9 9.75C9.41425 9.75 9.75 10.0858 9.75 10.5V13.5Z" fill="black"/>
</svg>
