<svg width="24" height="24" viewBox="0 0 24 24" fill="none" xmlns="http://www.w3.org/2000/svg">
<path d="M18.136 6.009C17.0548 5.30675 16.275 4.1825 16.0315 2.8725C15.9793 2.5895 15.95 2.298 15.95 2H12.5L12.4945 15.7798C12.4365 17.323 11.1623 18.5615 9.60025 18.5615C9.1145 18.5615 8.6575 18.4405 8.25475 18.2295C7.3315 17.7455 6.7 16.7812 6.7 15.6715C6.7 14.0777 8.00125 12.781 9.59975 12.781C9.89825 12.781 10.1848 12.8303 10.4555 12.9145V9.40425C10.1753 9.366 9.89025 9.3425 9.59975 9.3425C6.0985 9.3425 3.25 12.1815 3.25 15.6715C3.25 17.8125 4.32325 19.7075 5.961 20.8533C6.99225 21.5753 8.24725 22 9.60025 22C13.1015 22 15.95 19.161 15.95 15.6715V8.68375C17.303 9.6515 18.961 10.2218 20.75 10.2218V6.78325C19.7865 6.78325 18.889 6.49775 18.136 6.00875V6.009Z" fill="black"/>
</svg>
