<svg width="24" height="24" viewBox="0 0 24 24" fill="none" xmlns="http://www.w3.org/2000/svg">
<path fill-rule="evenodd" clip-rule="evenodd" d="M6 0C2.68625 0 0 2.68625 0 6C0 9.31375 2.68625 12 6 12C9.31375 12 12 9.31375 12 6C12 2.68625 9.31375 0 6 0ZM8.78975 6.1045L6.212 9.90425C5.93625 10.3108 5.29175 10.1188 5.29175 9.6305V7.31175H3.8775C3.5665 7.31175 3.33025 7.03675 3.38225 6.73525L4.0655 2.786C4.1065 2.54875 4.31575 2.375 4.56075 2.375H7.04025C7.35725 2.375 7.595 2.66 7.53275 2.9655L7.05025 5.337H8.372C8.77325 5.337 9.0125 5.7765 8.79 6.1045H8.78975ZM17.8378 7.5C18.4845 7.5 19.0562 7.91225 19.2607 8.52575L20.269 11.5508C20.3182 11.6988 20.3598 11.8488 20.3935 12H17V7.5H17.8378ZM16.8735 6C16.603 4.94919 15.9162 4.06547 14.9995 3.53525C14.7543 3.39325 14.4925 3.27675 14.2178 3.189C14.2035 3.1845 14.1428 3.1745 14.0545 3.16125C13.5248 3.08175 13.091 3.57975 13.243 4.0935V4.09325C13.2436 4.09514 13.2441 4.09702 13.2447 4.09891L13.2456 4.10189L13.2458 4.10285C13.2468 4.10615 13.2477 4.10945 13.2488 4.11275C13.318 4.3485 13.4988 4.53775 13.7335 4.61C14.755 4.92425 15.4995 5.87675 15.4995 7V16C15.4995 16.0139 15.4994 16.0278 15.4992 16.0416C14.2434 16.2527 13.2522 17.2441 13.0415 18.5H10.9585C10.7204 17.0812 9.4864 16 8 16C6.57595 16 5.38352 16.9924 5.07665 18.3233C4.15382 17.9552 3.5 17.0525 3.5 16H3.49975V13.5573C3.49975 13.2675 3.33075 13.0045 3.0675 12.8838C3.06462 12.8824 3.06173 12.8811 3.05885 12.8797C3.05598 12.8784 3.05312 12.8771 3.05025 12.8758C2.55925 12.6505 2 13.0083 2 13.5485V16C2 17.9139 3.34394 19.5137 5.13965 19.9073C5.5242 21.1206 6.65948 22 8 22C9.30612 22 10.4174 21.1651 10.8293 20H13.1707C13.5826 21.1651 14.6939 22 16 22C17.3061 22 18.4174 21.1651 18.8293 20H19C20.6568 20 22 18.6568 22 17V13.5V12.975V12.9738C22 12.3288 21.896 11.6883 21.692 11.0765L21.5915 10.775H21.5917L20.6838 8.05125C20.4286 7.28562 19.8851 6.67576 19.198 6.32603C18.7858 6.11619 18.322 6 17.8378 6H16.8735ZM17 13.5V16.1707C18.0132 16.5289 18.7766 17.4159 18.9585 18.5H19C19.827 18.5 20.5 17.827 20.5 17V16.5H19.75C19.3358 16.5 19 16.1642 19 15.75C19 15.3358 19.3358 15 19.75 15H20.5V13.5H17ZM9.5 19C9.5 18.173 8.827 17.5 8 17.5C7.173 17.5 6.5 18.173 6.5 19C6.5 19.827 7.173 20.5 8 20.5C8.827 20.5 9.5 19.827 9.5 19ZM16 17.5C16.827 17.5 17.5 18.173 17.5 19C17.5 19.827 16.827 20.5 16 20.5C15.173 20.5 14.5 19.827 14.5 19C14.5 18.173 15.173 17.5 16 17.5Z" fill="black"/>
</svg>
