<svg width="24" height="24" viewBox="0 0 24 24" fill="none" xmlns="http://www.w3.org/2000/svg">
<path fill-rule="evenodd" clip-rule="evenodd" d="M6 0C2.68625 0 0 2.68625 0 6C0 9.31375 2.68625 12 6 12C9.31375 12 12 9.31375 12 6C12 2.68625 9.31375 0 6 0ZM9.3535 4.561L6.0605 7.854C5.768 8.1465 5.384 8.2925 4.99975 8.2925C4.6155 8.2925 4.2315 8.14625 3.939 7.854L2.646 6.561C2.45075 6.36575 2.45075 6.04925 2.646 5.85375C2.84125 5.6585 3.15775 5.6585 3.35325 5.85375L4.64625 7.14675C4.84125 7.34175 5.1585 7.34175 5.35325 7.14675L8.64625 3.85375C8.8415 3.6585 9.158 3.6585 9.3535 3.85375C9.54875 4.049 9.54875 4.3655 9.3535 4.561ZM2 16V12.3455C3.1577 13.0768 4.52942 13.5 6 13.5C10.1422 13.5 13.5 10.1422 13.5 6C13.5 4.93334 13.2773 3.91869 12.8759 3H13C14.8639 3 16.43 4.27471 16.874 6H17.8377C18.3233 6 18.7884 6.11684 19.2015 6.32778C19.8869 6.67779 20.429 7.2869 20.6838 8.05125L21.75 11.25H21.7469C21.9147 11.8089 22 12.3895 22 12.9738V12.975V13.5V17C22 18.6567 20.6567 20 19 20H18.8293C18.4174 21.1651 17.3061 22 16 22C14.6926 22 13.5804 21.1635 13.1695 19.9965C13.1133 19.9988 13.0568 20 13 20H10.8293C10.4174 21.1651 9.30612 22 8 22C6.65948 22 5.5242 21.1206 5.13965 19.9073C3.34394 19.5137 2 17.9139 2 16ZM19.2608 8.52575L20.269 11.5507C20.3183 11.6988 20.3598 11.8488 20.3935 12H17V7.5H17.8377C18.4037 7.5 18.9121 7.81563 19.1674 8.30553C19.2039 8.37552 19.2352 8.44906 19.2608 8.52575ZM8 17.5C8.827 17.5 9.5 18.173 9.5 19C9.5 19.827 8.827 20.5 8 20.5C7.173 20.5 6.5 19.827 6.5 19C6.5 18.173 7.173 17.5 8 17.5ZM17.5 19C17.5 18.173 16.827 17.5 16 17.5C15.173 17.5 14.5 18.173 14.5 19C14.5 19.827 15.173 20.5 16 20.5C16.827 20.5 17.5 19.827 17.5 19ZM19.75 16.5H20.5V15H19.75C19.3358 15 19 15.3358 19 15.75C19 16.1642 19.3358 16.5 19.75 16.5Z" fill="black"/>
</svg>
