<svg width="24" height="24" viewBox="0 0 24 24" fill="none" xmlns="http://www.w3.org/2000/svg">
<path fill-rule="evenodd" clip-rule="evenodd" d="M17.8377 6H16.874C16.43 4.27471 14.8639 3 13 3H6C3.79075 3 2 4.79075 2 7V16C2 17.9139 3.34394 19.5137 5.13965 19.9073C5.5242 21.1206 6.65948 22 8 22C9.30612 22 10.4174 21.1651 10.8293 20H13C13.0568 20 13.1133 19.9988 13.1695 19.9965C13.5804 21.1635 14.6926 22 16 22C17.3061 22 18.4174 21.1651 18.8293 20H19C20.6567 20 22 18.6567 22 17V13.5V12.975V12.9738C22 12.3895 21.9147 11.8089 21.7469 11.25H21.75L20.6838 8.05125C20.429 7.2869 19.8869 6.67779 19.2015 6.32778C18.7884 6.11684 18.3233 6 17.8377 6ZM19.2608 8.52575L20.269 11.5507C20.3183 11.6988 20.3598 11.8488 20.3935 12H17V7.5H17.8377C18.4037 7.5 18.9121 7.81563 19.1674 8.30553C19.2039 8.37552 19.2352 8.44906 19.2608 8.52575ZM8 17.5C8.827 17.5 9.5 18.173 9.5 19C9.5 19.827 8.827 20.5 8 20.5C7.173 20.5 6.5 19.827 6.5 19C6.5 18.173 7.173 17.5 8 17.5ZM17.5 19C17.5 18.173 16.827 17.5 16 17.5C15.173 17.5 14.5 18.173 14.5 19C14.5 19.827 15.173 20.5 16 20.5C16.827 20.5 17.5 19.827 17.5 19ZM19.75 16.5H20.5V15H19.75C19.3358 15 19 15.3358 19 15.75C19 16.1642 19.3358 16.5 19.75 16.5Z" fill="black"/>
</svg>
