<svg width="24" height="24" viewBox="0 0 24 24" fill="none" xmlns="http://www.w3.org/2000/svg">
<path fill-rule="evenodd" clip-rule="evenodd" d="M22.5303 2.53033C22.8232 2.23744 22.8232 1.76256 22.5303 1.46967C22.2374 1.17678 21.7626 1.17678 21.4697 1.46967L18.2589 4.68045C17.5338 3.66326 16.3444 3 15 3H4.5C3.11925 3 2 4.11925 2 5.5V9V10V17.9852C2 18.8228 2.25658 19.6005 2.69537 20.244L0.46967 22.4697C0.176777 22.7626 0.176777 23.2374 0.46967 23.5303C0.762563 23.8232 1.23744 23.8232 1.53033 23.5303L17.0607 8H17.061L18.9095 6.15175C18.9095 6.15159 18.9094 6.15143 18.9094 6.15127L22.5303 2.53033ZM17.1736 5.76579L16.4393 6.5H4.5C3.9485 6.5 3.5 6.0515 3.5 5.5C3.5 4.9485 3.9485 4.5 4.5 4.5H15C15.9299 4.5 16.7429 5.0104 17.1736 5.76579ZM14.9393 8L3.78744 19.1519C3.60392 18.8031 3.5 18.4061 3.5 17.9852V10V9V7.79199C3.80623 7.92578 4.14444 8 4.5 8H14.9393ZM17.75 15.5H20.5V13H17.75C17.0608 13 16.5 13.5608 16.5 14.25C16.5 14.9392 17.0608 15.5 17.75 15.5ZM17.75 17H20.5V17.9846C20.5 19.3736 19.374 20.4998 17.9853 20.4998H7.25C6.83575 20.4998 6.5 20.8356 6.5 21.2499C6.5 21.6642 6.83575 22 7.25 22H17.9853C20.2025 22 22 20.2022 22 17.9846V17V11.5V10.4981C22 9.31293 21.4845 8.24801 20.6655 7.51564C20.369 7.25034 19.9168 7.26335 19.6353 7.54489C19.3303 7.84994 19.345 8.34777 19.6663 8.63557C20.1778 9.09365 20.5 9.75901 20.5 10.4981V11.5H17.75C16.2313 11.5 15 12.7312 15 14.25C15 15.7688 16.2313 17 17.75 17Z" fill="black"/>
</svg>
