<svg width="24" height="24" viewBox="0 0 24 24" fill="none" xmlns="http://www.w3.org/2000/svg">
<path fill-rule="evenodd" clip-rule="evenodd" d="M2.46965 2.46967C2.76254 2.17678 3.23742 2.17678 3.53032 2.46967L13.1816 12.1209L13.1834 12.1212L16.6209 15.554L16.6174 15.5567L21.5304 20.4697C21.8233 20.7626 21.8233 21.2374 21.5304 21.5303C21.2376 21.8232 20.7627 21.8232 20.4698 21.5303L12.4648 13.5254C12.3122 13.5088 12.1572 13.5002 12.0002 13.5002C10.5322 13.5002 9.23544 14.2462 8.47019 15.3787C8.23469 15.7272 7.76144 15.82 7.41519 15.5805C7.07644 15.3462 6.98919 14.8832 7.21969 14.542C7.41569 14.252 7.63969 13.9777 7.89019 13.723C8.74343 12.8549 9.83929 12.2861 11.0225 12.0832L8.99844 10.0591C7.94591 10.4681 6.98031 11.0948 6.15768 11.9162C5.78743 12.286 5.45668 12.685 5.16768 13.1075C4.93243 13.4515 4.46269 13.5392 4.11969 13.3022C3.78144 13.0685 3.69319 12.6052 3.92494 12.2657C4.26794 11.763 4.65894 11.2917 5.09568 10.8557C5.90353 10.049 6.83134 9.39842 7.85772 8.91836L6.00083 7.06149C5.02399 7.60852 4.12783 8.28711 3.32546 9.08825C2.78421 9.6285 2.29921 10.2115 1.87246 10.8332C1.63771 11.175 1.17121 11.2642 0.829965 11.0282L0.821465 11.0222C0.484216 10.789 0.398466 10.327 0.630466 9.989C1.10971 9.29 1.65496 8.6345 2.26321 8.02725C3.06324 7.22841 3.94661 6.53826 4.90295 5.96362L2.46965 3.53033C2.17675 3.23744 2.17675 2.76256 2.46965 2.46967ZM11.9999 20C13.1061 20 14.0029 19.1046 14.0029 18C14.0029 16.8954 13.1061 16 11.9999 16C10.8937 16 9.99693 16.8954 9.99693 18C9.99693 19.1046 10.8937 20 11.9999 20ZM23.3694 9.989C22.8899 9.29 22.3446 8.6345 21.7366 8.02725C20.4724 6.76475 18.9997 5.7735 17.3599 5.08075C15.6619 4.3635 13.8584 4 11.9999 4C11.0001 4 10.0163 4.10529 9.05636 4.31427C8.48629 4.43837 8.31329 5.13664 8.72613 5.54889C8.91903 5.74152 9.19828 5.8173 9.46509 5.76133C10.2925 5.58779 11.1395 5.50025 12.0002 5.50025C13.6567 5.50025 15.2632 5.824 16.7752 6.4625C18.2359 7.0795 19.5479 7.96275 20.6746 9.088C21.2159 9.62825 21.7009 10.2115 22.1276 10.833C22.3624 11.175 22.8286 11.264 23.1701 11.028L23.1786 11.022C23.5161 10.7887 23.6014 10.3272 23.3694 9.989ZM17.8419 11.9162C16.5239 10.6002 14.839 9.78417 13.0177 9.56217C12.8218 9.53829 12.637 9.45427 12.4973 9.3148C11.9915 8.80976 12.3147 7.97917 13.0258 8.05291C13.088 8.05937 13.1501 8.06642 13.212 8.07405C14.1025 8.18389 14.9692 8.41552 15.8004 8.7665C16.9634 9.25775 18.0074 9.9605 18.9039 10.8557C19.3406 11.2917 19.7316 11.763 20.0746 12.2657C20.3064 12.6052 20.2181 13.0682 19.8799 13.3022C19.5371 13.5392 19.0671 13.4515 18.8319 13.1075C18.5429 12.685 18.2121 12.286 17.8419 11.9162Z" fill="black"/>
</svg>
