<svg width="24" height="24" viewBox="0 0 24 24" fill="none" xmlns="http://www.w3.org/2000/svg">
<path d="M12 2C6.47725 2 2 6.47725 2 12C2 17.5228 6.47725 22 12 22C17.5228 22 22 17.5228 22 12C22 6.47725 17.5228 2 12 2ZM16.2665 15.002C16.1757 15.1805 16.0208 15.313 15.8303 15.375L13.6167 16.096L13.7598 17.4193C13.7825 17.6308 13.7143 17.8427 13.5723 18.001C13.4303 18.1592 13.2268 18.25 13.0143 18.25H12.5115C12.1277 18.25 11.807 17.9622 11.7658 17.5807L11.6738 16.7292L9.73375 17.3613C9.63325 17.394 9.52925 17.4105 9.424 17.4105C9.06 17.4105 8.72425 17.2125 8.5485 16.8935L8.27275 16.394C8.0845 16.0528 8.1125 15.63 8.344 15.3165L12.5935 9.5655L8.958 9.4285C8.54475 9.413 8.22125 9.064 8.23675 8.65075L8.2555 8.151C8.263 7.95075 8.348 7.7655 8.495 7.62925C8.642 7.493 8.83325 7.42225 9.03325 7.42975L10.6745 7.49175L10.576 6.58075C10.5533 6.36925 10.6215 6.15725 10.7635 5.999C10.9055 5.84075 11.109 5.75 11.3215 5.75H11.8245C12.2083 5.75 12.5288 6.03775 12.5703 6.41925L12.6945 7.5675L13.814 7.60975C14.1875 7.62375 14.5193 7.84225 14.6798 8.18L14.9798 8.81175C15.1383 9.1455 15.1002 9.53775 14.8807 9.835L11.2357 14.768L15.211 13.4732C15.4015 13.4112 15.6048 13.427 15.7833 13.518C15.9618 13.6087 16.0943 13.7637 16.1565 13.9542L16.3113 14.4298C16.3733 14.6203 16.3575 14.8235 16.2665 15.002Z" fill="black"/>
</svg>
