<?xml version="1.0" encoding="UTF-8"?>
<svg xmlns:svg="http://www.w3.org/2000/svg" viewBox="0 0 24 24" fill="none">
<svg:path d="M2 12C2 6.47725 6.47725 2 12 2C17.5228 2 22 6.47725 22 12C22 17.5228 17.5228 22 12 22C6.47725 22 2 17.5228 2 12ZM13.5 7C13.5 7.82843 12.8284 8.5 12 8.5C11.1716 8.5 10.5 7.82843 10.5 7C10.5 6.17157 11.1716 5.5 12 5.5C12.8284 5.5 13.5 6.17157 13.5 7ZM16.9153 8.57948C16.8965 8.58873 14.7661 9.50069 11.9994 9.50069C9.23268 9.50069 7.10397 8.58948 7.08372 8.57948C6.71348 8.39574 6.26424 8.54573 6.07925 8.91572C5.894 9.28595 6.04425 9.73643 6.41474 9.92142C6.47824 9.95317 7.71771 10.4984 9.57892 10.8011C9.82141 10.8406 9.99991 11.0491 9.99991 11.2949V12.8067C9.99632 13.2205 9.94372 13.6326 9.84326 14.0345L9.84325 14.0345L9.02256 17.318C8.92212 17.7198 9.16644 18.127 9.56826 18.2274C9.81369 18.2888 10.0611 18.2215 10.2394 18.0683C10.353 17.9706 10.4386 17.8381 10.4777 17.6817L11.1744 14.8946L11.1744 14.8946C11.2692 14.5156 11.6095 14.25 12 14.25C12.3905 14.25 12.7308 14.5156 12.8256 14.8946L12.8256 14.8946L13.5222 17.6811L13.5223 17.6817C13.5725 17.8824 13.6992 18.0438 13.8635 18.1426C14.028 18.2415 14.2302 18.2776 14.4311 18.2276C14.4814 18.2151 14.5291 18.1978 14.5741 18.1763C14.8888 18.0258 15.0652 17.6703 14.9776 17.3186C14.9775 17.3184 14.9775 17.3182 14.9774 17.318L14.1569 14.0234L14.1569 14.0234C14.0527 13.6049 13.9999 13.1753 13.9999 12.7442V11.2861C14.004 11.0443 14.1811 10.8399 14.4208 10.8009C16.2818 10.4981 17.521 9.95292 17.5845 9.92117C17.955 9.73593 18.106 9.2852 17.9207 8.91497C17.7355 8.54473 17.286 8.39399 16.9155 8.57923L16.9153 8.57948Z" fill="currentColor" fillRule="evenodd" clipRule="evenodd" />
</svg>
