<?xml version="1.0" encoding="UTF-8"?>
<svg xmlns:svg="http://www.w3.org/2000/svg" viewBox="0 0 24 24" fill="none">
<svg:path d="M12 3.5C13.1482 3.5 14.2613 3.7245 15.308 4.16725C16.32 4.59525 17.2292 5.2085 18.0102 5.9895C18.7912 6.7705 19.4045 7.67975 19.8325 8.69175C20.2753 9.73875 20.4998 10.8518 20.4998 11.9997C20.4998 13.1477 20.2753 14.261 19.8325 15.3078C19.4045 16.3197 18.7915 17.229 18.0102 18.01C17.2292 18.791 16.32 19.4042 15.308 19.8322C14.261 20.275 13.148 20.4995 12 20.4995C10.852 20.4995 9.73875 20.275 8.692 19.8322C7.68 19.4042 6.77075 18.791 5.98975 18.01C5.20875 17.229 4.5955 16.3197 4.1675 15.3078C3.72475 14.2607 3.50025 13.1477 3.50025 11.9997C3.50025 10.8518 3.72475 9.7385 4.1675 8.69175C4.5955 7.67975 5.20875 6.7705 5.98975 5.9895C6.77075 5.2085 7.68 4.59525 8.692 4.16725C9.739 3.7245 10.852 3.5 12 3.5ZM12 2C6.47725 2 2 6.47725 2 12C2 17.5228 6.47725 22 12 22C17.5228 22 22 17.5228 22 12C22 6.47725 17.5228 2 12 2ZM12 7.25C12.4142 7.25 12.75 7.58579 12.75 8V11.25H16C16.4142 11.25 16.75 11.5858 16.75 12C16.75 12.4142 16.4142 12.75 16 12.75H12.75V16C12.75 16.4142 12.4142 16.75 12 16.75C11.5858 16.75 11.25 16.4142 11.25 16V12.75H8C7.58579 12.75 7.25 12.4142 7.25 12C7.25 11.5858 7.58579 11.25 8 11.25H11.25V8C11.25 7.58579 11.5858 7.25 12 7.25Z" fill="currentColor" fillRule="evenodd" clipRule="evenodd" />
</svg>
