<?xml version="1.0" encoding="UTF-8"?>
<svg xmlns:svg="http://www.w3.org/2000/svg" viewBox="0 0 24 24" fill="none">
<svg:path d="M15.4108 3.50019C15.4341 3.61244 15.4453 3.72694 15.4443 3.84168C15.4228 4.71115 15.1003 5.54712 14.5303 6.20984C13.9546 6.91257 13.1126 7.3508 12.2006 7.42255C12.1221 7.4223 12.0436 7.4148 11.9666 7.40055C11.9449 7.29905 11.9336 7.19581 11.9331 7.09206C11.9704 6.23934 12.3051 5.42587 12.8806 4.7894C13.5266 4.05617 14.4318 3.59494 15.4108 3.50019ZM15.2481 7.60754C16.5593 7.60754 17.792 8.23452 18.554 9.29448C17.4113 9.98595 16.7083 11.2094 16.6926 12.5336C16.6971 14.0323 17.6045 15.3842 18.9998 15.971C18.7305 16.8292 18.3323 17.6427 17.8183 18.3839C17.0828 19.4306 16.3136 20.4773 15.1431 20.4773C13.9726 20.4773 13.6718 19.8053 12.3231 19.8053C10.9744 19.8053 10.5396 20.4996 9.46966 20.4996C8.39968 20.4996 7.65294 19.5301 6.79445 18.3401C5.66072 16.6732 5.03748 14.7185 4.99998 12.7101C4.99998 9.40472 7.17345 7.65304 9.31367 7.65304C10.4506 7.65304 11.3981 8.39101 12.1114 8.39101C12.8246 8.39101 13.8503 7.60879 15.1431 7.60879C15.1781 7.60779 15.2131 7.60754 15.2481 7.60754ZM15.4121 2C15.3638 2 15.3156 2.00225 15.2666 2.007C14.5913 2.07225 13.9431 2.26099 13.3399 2.56848C12.7384 2.87497 12.2074 3.28595 11.7616 3.79018C11.1181 4.50441 10.6876 5.38337 10.5149 6.31909C10.1507 6.22234 9.74766 6.15309 9.31367 6.15309C8.56818 6.15309 7.83919 6.30334 7.14695 6.59933C6.43896 6.90207 5.80672 7.3423 5.26822 7.90753C4.70698 8.49651 4.26999 9.19948 3.96949 9.99645C3.658 10.8227 3.5 11.7356 3.5 12.7103C3.5 12.7198 3.5 12.7291 3.50025 12.7386C3.5435 15.0433 4.25374 17.2719 5.55422 19.1841C5.56197 19.1956 5.56997 19.2069 5.57797 19.2181C6.04497 19.8653 6.50796 20.4866 7.04045 20.9735C7.3812 21.2853 7.72294 21.519 8.08493 21.6885C8.52667 21.8953 8.99242 22 9.46966 22C10.2792 22 10.8566 21.7578 11.3209 21.563C11.6899 21.4083 11.9336 21.306 12.3231 21.306C12.7126 21.306 12.9019 21.388 13.2471 21.5373C13.6783 21.7233 14.2688 21.9783 15.1431 21.9783C16.0173 21.9783 16.8931 21.6265 17.6543 20.9325C18.186 20.4478 18.6158 19.8588 19.0455 19.2474C19.0473 19.2449 19.049 19.2424 19.0508 19.2399C19.6518 18.3734 20.1163 17.4249 20.431 16.421C20.6625 15.6827 20.2945 14.8895 19.5813 14.5895C18.7438 14.2373 18.1998 13.4341 18.1925 12.5411C18.199 12.1509 18.3058 11.7651 18.501 11.4251C18.6995 11.0797 18.9865 10.7869 19.3305 10.5787C19.6885 10.3619 19.9398 10.0057 20.0235 9.59597C20.1073 9.18598 20.0163 8.75975 19.772 8.42001C19.2595 7.70704 18.5735 7.11856 17.7885 6.71807C17.3295 6.48408 16.8373 6.31459 16.3313 6.21459C16.7111 5.49687 16.9238 4.6964 16.9438 3.87918C16.9438 3.87118 16.9441 3.86293 16.9443 3.85493C16.9461 3.63444 16.9246 3.4132 16.8798 3.19746C16.7348 2.49523 16.1161 2.001 15.4121 2.001V2Z" fill="currentColor" />
</svg>
