<svg width="24" height="24" viewBox="0 0 24 24" fill="none" xmlns="http://www.w3.org/2000/svg">
<path fill-rule="evenodd" clip-rule="evenodd" d="M10.2323 3.23175C11.2086 2.25608 12.7914 2.25608 13.7677 3.23175L17.7071 7.16861C18.0977 7.55897 18.0977 8.19194 17.7071 8.5823C17.3165 8.97257 16.6834 8.97257 16.2929 8.5823L13 5.29144L13 16C13 16.5523 12.5523 17 12 17C11.4477 17 11 16.5523 11 16L11 5.29144L7.70708 8.5823C7.31656 8.97257 6.68347 8.97257 6.29295 8.5823C5.90235 8.19194 5.90235 7.55897 6.29295 7.16861L10.2323 3.23175ZM3 20C2.44772 20 2 20.4477 2 21C2 21.5523 2.44772 22 3 22H21C21.5523 22 22 21.5523 22 21C22 20.4477 21.5523 20 21 20H3Z" fill="black"/>
</svg>
