<?xml version="1.0" encoding="UTF-8"?>
<svg xmlns:svg="http://www.w3.org/2000/svg" viewBox="0 0 24 24" fill="none">
<svg:path d="M12.75 3.75C12.75 3.33579 12.4142 3 12 3C11.5858 3 11.25 3.33579 11.25 3.75V15.0618L7.53036 11.3445C7.23746 11.0518 6.76257 11.0518 6.46967 11.3445C6.17677 11.6373 6.17677 12.1118 6.46967 12.4046L10.409 16.3414C11.2877 17.2195 12.7123 17.2195 13.591 16.3414L17.5303 12.4046C17.8232 12.1118 17.8232 11.6373 17.5303 11.3445C17.2374 11.0518 16.7625 11.0518 16.4696 11.3445L12.75 15.0618V3.75ZM2.75 20.5C2.33579 20.5 2 20.8358 2 21.25C2 21.6642 2.33579 22 2.75 22H21.25C21.6642 22 22 21.6642 22 21.25C22 20.8358 21.6642 20.5 21.25 20.5H2.75Z" fill="currentColor" fillRule="evenodd" clipRule="evenodd" />
</svg>
