<svg width="24" height="24" viewBox="0 0 24 24" fill="none" xmlns="http://www.w3.org/2000/svg">
<path fill-rule="evenodd" clip-rule="evenodd" d="M15.3083 4.16725C14.2613 3.7245 13.1482 3.5 12 3.5C10.8518 3.5 9.73875 3.7245 8.69175 4.16725C7.67975 4.59525 6.7705 5.2085 5.9895 5.9895C5.20825 6.7705 4.59525 7.67975 4.16725 8.69175C3.7245 9.73875 3.5 10.8518 3.5 12C3.5 13.1482 3.7245 14.2613 4.16725 15.3083C4.59525 16.3203 5.2085 17.2295 5.9895 18.0105C6.7705 18.7915 7.67975 19.4048 8.69175 19.8328C9.73875 20.2755 10.8518 20.5 12 20.5C13.1482 20.5 14.2613 20.2755 15.3083 19.8328C16.3203 19.4048 17.2295 18.7915 18.0105 18.0105C18.7915 17.2295 19.4048 16.3203 19.8328 15.3083C20.2755 14.2613 20.5 13.1482 20.5 12C20.5 10.8518 20.2755 9.73875 19.8328 8.69175C19.4048 7.67975 18.7915 6.7705 18.0105 5.9895C17.2295 5.2085 16.3203 4.59525 15.3083 4.16725ZM2 12C2 6.47725 6.47725 2 12 2C17.5228 2 22 6.47725 22 12C22 17.5228 17.5228 22 12 22C6.47725 22 2 17.5228 2 12ZM16.032 12.2809C16.3248 11.9879 16.7998 11.9879 17.0928 12.2809C17.3858 12.5736 17.3858 13.0486 17.0928 13.3413L13.5913 16.842C13.1525 17.2808 12.5762 17.5 12 17.5C11.4237 17.5 10.8475 17.2805 10.4087 16.842L6.90725 13.3413C6.61425 13.0486 6.61425 12.5736 6.90725 12.2809C7.2 11.9879 7.675 11.9879 7.968 12.2809L11.2497 15.5618V7.24998C11.2497 6.83574 11.5855 6.5 12 6.5C12.4145 6.5 12.7503 6.83574 12.7503 7.24998V15.5618L16.032 12.2809Z" fill="black"/>
</svg>
