<?xml version="1.0" encoding="UTF-8"?>
<svg xmlns:svg="http://www.w3.org/2000/svg" viewBox="0 0 24 24" fill="none">
<svg:path d="M15.308 4.16725C14.2613 3.7245 13.1482 3.5 12 3.5C10.852 3.5 9.739 3.7245 8.692 4.16725C7.68 4.59525 6.77075 5.2085 5.98975 5.9895C5.20875 6.7705 4.5955 7.67975 4.1675 8.69175C3.72475 9.7385 3.50025 10.8515 3.50025 11.9997C3.50025 13.148 3.72475 14.261 4.1675 15.308C4.5955 16.32 5.20875 17.2292 5.98975 18.0102C6.77075 18.7912 7.68 19.4045 8.692 19.8325C9.73875 20.2753 10.852 20.4998 12 20.4998C13.148 20.4998 14.261 20.2753 15.308 19.8325C16.32 19.4045 17.2292 18.7912 18.0102 18.0102C18.7912 17.2292 19.4045 16.32 19.8325 15.308C20.2753 14.2613 20.4998 13.1482 20.4998 12C20.4998 10.8518 20.2753 9.73875 19.8325 8.69175C19.4045 7.67975 18.7912 6.7705 18.0102 5.9895C17.2292 5.2085 16.32 4.59525 15.308 4.16725ZM2 12C2 6.47725 6.47725 2 12 2C17.5228 2 22 6.47725 22 12C22 17.5228 17.5228 22 12 22C6.47725 22 2 17.5228 2 12ZM11.7191 16.032C12.0121 16.3248 12.0121 16.7998 11.7191 17.0928C11.4264 17.3858 10.9514 17.3858 10.6587 17.0928L7.15799 13.5913C6.71925 13.1525 6.5 12.5762 6.5 12C6.5 11.4237 6.7195 10.8475 7.15799 10.4087L10.6587 6.90725C10.9514 6.61425 11.4264 6.61425 11.7191 6.90725C12.0121 7.2 12.0121 7.675 11.7191 7.968L8.43821 11.2497H16.75C17.1643 11.2497 17.5 11.5855 17.5 12C17.5 12.4145 17.1643 12.7503 16.75 12.7503H8.43821L11.7191 16.032Z" fill="currentColor" fillRule="evenodd" clipRule="evenodd" />
</svg>
