<?xml version="1.0" encoding="UTF-8"?>
<svg xmlns:svg="http://www.w3.org/2000/svg" viewBox="0 0 24 24" fill="none">
<svg:path d="M15.308 4.16725C14.2612 3.7245 13.1482 3.5 12 3.5C10.852 3.5 9.739 3.7245 8.692 4.16725C7.68 4.59525 6.77075 5.2085 5.98975 5.9895C5.20875 6.7705 4.5955 7.67975 4.1675 8.69175C3.72475 9.73875 3.50025 10.8518 3.50025 12C3.50025 13.1482 3.72475 14.2613 4.1675 15.3083C4.5955 16.3203 5.20875 17.2295 5.98975 18.0105C6.77075 18.7915 7.68 19.4048 8.692 19.8328C9.73875 20.2755 10.852 20.5 12 20.5C13.148 20.5 14.261 20.2755 15.308 19.8328C16.32 19.4048 17.2293 18.7915 18.0103 18.0105C18.7913 17.2295 19.4045 16.3203 19.8325 15.3083C20.2753 14.2613 20.4998 13.1482 20.4998 12C20.4998 10.8518 20.2753 9.73875 19.8325 8.69175C19.4045 7.67975 18.7913 6.7705 18.0103 5.9895C17.2293 5.2085 16.32 4.59525 15.308 4.16725ZM2 12C2 6.47725 6.47725 2 12 2C17.5228 2 22 6.47725 22 12C22 17.5228 17.5228 22 12 22C6.47725 22 2 17.5228 2 12ZM7.968 11.7191C7.67525 12.0121 7.20025 12.0121 6.90725 11.7191C6.61425 11.4264 6.61425 10.9514 6.90725 10.6587L10.4087 7.15799C10.8475 6.71925 11.4237 6.5 12 6.5C12.5762 6.5 13.1525 6.7195 13.5913 7.15799L17.0927 10.6587C17.3857 10.9514 17.3857 11.4264 17.0927 11.7191C16.8 12.0121 16.325 12.0121 16.032 11.7191L12.7502 8.43821V16.75C12.7502 17.1643 12.4145 17.5 12 17.5C11.5855 17.5 11.2497 17.1643 11.2497 16.75V8.43821L7.968 11.7191Z" fill="currentColor" fillRule="evenodd" clipRule="evenodd" />
</svg>
