<?xml version="1.0" encoding="UTF-8"?>
<svg xmlns:svg="http://www.w3.org/2000/svg" viewBox="0 0 24 24" fill="none">
<svg:path d="M18.0042 2.38792C18.0043 2.38791 18.0043 2.38791 18.0043 2.3879C20.2238 1.68688 22.3132 3.77618 21.6121 5.99575L17.2606 19.7754C17.2606 19.7755 17.2606 19.7755 17.2606 19.7755C16.4372 22.3836 12.759 22.4162 11.8885 19.8242L11.8885 19.8241L10.3288 15.1788C10.327 15.1739 10.3253 15.169 10.3236 15.164C10.0879 14.4622 9.53722 13.9115 8.8358 13.6761L8.83574 13.6761L4.17582 12.1115C1.58324 11.2411 1.61702 7.56288 4.22436 6.73937L4.2244 6.73936L18.0042 2.38792ZM20.1818 5.54398C20.5172 4.48229 19.5177 3.48282 18.456 3.81818L18.456 3.8182L4.6761 8.16964C4.67609 8.16964 4.67607 8.16965 4.67606 8.16965C3.45268 8.55608 3.43749 10.2814 4.65316 10.6895L4.6532 10.6895L9.3131 12.2542C10.4547 12.6374 11.3518 13.531 11.74 14.6703C11.742 14.6758 11.7439 14.6813 11.7458 14.6868L13.3104 19.3467C13.3104 19.3467 13.3104 19.3467 13.3104 19.3467C13.7189 20.5629 15.4442 20.547 15.8303 19.3239L15.8303 19.3238L20.1818 5.54403L20.1818 5.54398Z" fill="currentColor" fillRule="evenodd" clipRule="evenodd" />
</svg>
