<?xml version="1.0" encoding="UTF-8"?>
<svg xmlns:svg="http://www.w3.org/2000/svg" viewBox="0 0 24 24" fill="none">
<svg:path d="M12 2C6.47725 2 2 6.47725 2 12C2 17.5228 6.47725 22 12 22C17.5228 22 22 17.5228 22 12C22 6.47725 17.5228 2 12 2ZM17.019 13.768L13.5182 17.2695C13.1277 17.66 12.4947 17.66 12.1042 17.2695C11.7137 16.879 11.7137 16.2458 12.1042 15.855L14.9585 13H7.25C6.69775 13 6.25 12.5522 6.25 11.9997C6.25 11.4472 6.69775 10.9995 7.25 10.9995H14.9585L12.1042 8.1445C11.7137 7.754 11.7137 7.12075 12.1042 6.73C12.4947 6.33925 13.1277 6.3395 13.5182 6.73L17.019 10.2315C17.5063 10.719 17.75 11.3593 17.75 11.9995C17.75 12.6398 17.5063 13.28 17.019 13.7675V13.768Z" fill="currentColor" />
</svg>
