<?xml version="1.0" encoding="UTF-8"?>
<svg xmlns:svg="http://www.w3.org/2000/svg" viewBox="0 0 24 24" fill="none">
<svg:path d="M19 17V16.5C19 15.9477 19.4477 15.5 20 15.5C20.5523 15.5 21 15.9477 21 16.5V17C21 19.2093 19.2093 21 17 21H7C4.79075 21 3 19.2093 3 17V7C3 4.79075 4.79075 3 7 3H7.5C8.05225 3 8.5 3.44775 8.5 4C8.5 4.55225 8.05225 5 7.5 5H7C5.8955 5 5 5.8955 5 7V17C5 18.1045 5.8955 19 7 19H17C18.1045 19 19 18.1045 19 17ZM11.5 4C11.5 3.44772 11.9477 3 12.5 3H18.5C19.8808 3 21 4.11922 21 5.5V11.5C21 12.0523 20.5523 12.5 20 12.5C19.4477 12.5 19 12.0523 19 11.5V6.41421L12.2071 13.2071C11.8166 13.5976 11.1834 13.5976 10.7929 13.2071C10.4024 12.8166 10.4024 12.1834 10.7929 11.7929L17.5858 5H12.5C11.9477 5 11.5 4.55228 11.5 4Z" fill="currentColor" fillRule="evenodd" clipRule="evenodd" />
</svg>
