<?xml version="1.0" encoding="UTF-8"?>
<svg xmlns:svg="http://www.w3.org/2000/svg" viewBox="0 0 24 24" fill="none">
<svg:path d="M13.7499 4C13.3357 4 12.9999 4.33579 12.9999 4.75C12.9999 5.16421 13.3357 5.5 13.7499 5.5H17.4393L9.96967 12.9697L9 13.9393C8.99983 13.9395 8.99967 13.9397 8.9995 13.9398L5.5 17.4393V13.75C5.5 13.3358 5.16421 13 4.75 13C4.33579 13 4 13.3358 4 13.75V17.75C4 18.9927 5.00729 20 6.25 20H10.25C10.6642 20 11 19.6642 11 19.25C11 18.8358 10.6642 18.5 10.25 18.5H6.56066L10.0604 15.0003C10.0605 15.0002 10.0606 15.0001 10.0607 15L11.0303 14.0303C11.031 14.0296 11.0317 14.0289 11.0324 14.0282L18.4999 6.56066V10.25C18.4999 10.6642 18.8357 11 19.2499 11C19.6641 11 19.9999 10.6642 19.9999 10.25V6.25C19.9999 5.00729 18.9926 4 17.7499 4H13.7499Z" fill="currentColor" fillRule="evenodd" clipRule="evenodd" />
</svg>
