<svg width="24" height="24" viewBox="0 0 24 24" fill="none" xmlns="http://www.w3.org/2000/svg">
<path fill-rule="evenodd" clip-rule="evenodd" d="M19.7071 5.70711C20.0976 5.31658 20.0976 4.68342 19.7071 4.29289C19.3166 3.90237 18.6834 3.90237 18.2929 4.29289L14 8.58579V5.5C14 4.94772 13.5523 4.5 13 4.5C12.4477 4.5 12 4.94772 12 5.5V9.5C12 10.8808 13.1192 12 14.5 12H18.5C19.0523 12 19.5 11.5523 19.5 11C19.5 10.4477 19.0523 10 18.5 10H15.4142L19.7071 5.70711ZM8.58579 14L4.29289 18.2929C3.90237 18.6834 3.90237 19.3166 4.29289 19.7071C4.68342 20.0976 5.31658 20.0976 5.70711 19.7071L10 15.4142V18.5C10 19.0523 10.4477 19.5 11 19.5C11.5523 19.5 12 19.0523 12 18.5V14.5C12 13.1192 10.8808 12 9.5 12H5.5C4.94772 12 4.5 12.4477 4.5 13C4.5 13.5523 4.94772 14 5.5 14H8.58579Z" fill="black"/>
</svg>
