<?xml version="1.0" encoding="UTF-8"?>
<svg xmlns:svg="http://www.w3.org/2000/svg" viewBox="0 0 24 24" fill="none">
<svg:path d="M13.7677 16.2682C12.7914 17.2439 11.2086 17.2439 10.2323 16.2682L6.29295 12.3314C5.90235 11.941 5.90235 11.3081 6.29295 10.9177C6.68347 10.5274 7.31656 10.5274 7.70708 10.9177L11 14.2086L11 3.5C11 2.94772 11.4477 2.5 12 2.5C12.5523 2.5 13 2.94772 13 3.5L13 14.2086L16.2929 10.9177C16.6834 10.5274 17.3165 10.5274 17.707 10.9177C18.0977 11.3081 18.0977 11.941 17.707 12.3314L13.7677 16.2682ZM3 20C2.44772 20 2 20.4477 2 21C2 21.5523 2.44772 22 3 22H21C21.5523 22 22 21.5523 22 21C22 20.4477 21.5523 20 21 20H3Z" fill="currentColor" fillRule="evenodd" clipRule="evenodd" />
</svg>
