<?xml version="1.0" encoding="UTF-8"?>
<svg xmlns:svg="http://www.w3.org/2000/svg" viewBox="0 0 24 24" fill="none">
<svg:path d="M19.7803 4.21967C20.0732 4.51256 20.0732 4.98744 19.7803 5.28033L15.0607 10H18.75C19.1642 10 19.5 10.3358 19.5 10.75C19.5 11.1642 19.1642 11.5 18.75 11.5H14.75C13.5073 11.5 12.5 10.4927 12.5 9.25V5.25C12.5 4.83579 12.8358 4.5 13.25 4.5C13.6642 4.5 14 4.83579 14 5.25V8.93933L18.7197 4.21967C19.0126 3.92678 19.4874 3.92678 19.7803 4.21967ZM10 18.75V15.0607L5.28033 19.7803C4.98744 20.0732 4.51256 20.0732 4.21967 19.7803C3.92678 19.4874 3.92678 19.0126 4.21967 18.7197L8.93934 14H5.25C4.83579 14 4.5 13.6642 4.5 13.25C4.5 12.8358 4.83579 12.5 5.25 12.5H9.25C10.4927 12.5 11.5 13.5073 11.5 14.75V18.75C11.5 19.1642 11.1642 19.5 10.75 19.5C10.3358 19.5 10 19.1642 10 18.75Z" fill="currentColor" fillRule="evenodd" clipRule="evenodd" />
</svg>
