<?xml version="1.0" encoding="UTF-8"?>
<svg xmlns:svg="http://www.w3.org/2000/svg" viewBox="0 0 24 24" fill="none">
<svg:path d="M12 2C6.47725 2 2 6.47725 2 12C2 17.5228 6.47725 22 12 22C17.5228 22 22 17.5228 22 12C22 6.47725 17.5228 2 12 2ZM17.2695 13.5182L13.768 17.019C13.2805 17.5063 12.6403 17.75 12 17.75C11.3598 17.75 10.7195 17.5063 10.232 17.019L6.7305 13.5182C6.34 13.1277 6.34 12.4948 6.7305 12.1043C7.121 11.7138 7.75425 11.7138 8.145 12.1043L11 14.9585V7.25C11 6.69775 11.4478 6.25 12.0003 6.25C12.5528 6.25 13.0005 6.69775 13.0005 7.25V14.9585L15.8555 12.1043C16.246 11.7138 16.8792 11.7138 17.27 12.1043C17.6605 12.4948 17.6605 13.1277 17.27 13.5182H17.2695Z" fill="currentColor" />
</svg>
