<svg width="24" height="24" viewBox="0 0 24 24" fill="none" xmlns="http://www.w3.org/2000/svg">
<path fill-rule="evenodd" clip-rule="evenodd" d="M12.5001 5C12.5001 4.44772 12.9478 4 13.5001 4H17.5001C18.8809 4 20.0001 5.11922 20.0001 6.5V10.5C20.0001 11.0523 19.5524 11.5 19.0001 11.5C18.4478 11.5 18.0001 11.0523 18.0001 10.5V7.41421L11.4571 13.9571L9.91421 15.5L7.41421 18H10.5C11.0523 18 11.5 18.4477 11.5 19C11.5 19.5523 11.0523 20 10.5 20H6.5C5.11922 20 4 18.8808 4 17.5V13.5C4 12.9477 4.44772 12.5 5 12.5C5.55228 12.5 6 12.9477 6 13.5V16.5858L8.5 14.0858L10.0429 12.5429C10.0441 12.5417 10.0453 12.5405 10.0466 12.5392L16.5859 6H13.5001C12.9478 6 12.5001 5.55228 12.5001 5Z" fill="black"/>
</svg>
