<?xml version="1.0" encoding="UTF-8"?>
<svg xmlns:svg="http://www.w3.org/2000/svg" viewBox="0 0 24 24" fill="none">
<svg:path d="M11.25 16.25C11.25 16.6642 11.5858 17 12 17C12.4142 17 12.75 16.6642 12.75 16.25L12.75 4.93816L16.4696 8.65546C16.7625 8.94818 17.2374 8.94818 17.5303 8.65546C17.8232 8.36275 17.8232 7.88816 17.5303 7.59545L13.591 3.65858C12.7123 2.78047 11.2877 2.78047 10.409 3.65858L6.46967 7.59545C6.17677 7.88816 6.17677 8.36275 6.46967 8.65546C6.76257 8.94818 7.23746 8.94818 7.53036 8.65546L11.25 4.93816L11.25 16.25ZM2.75 20.5C2.33579 20.5 2 20.8358 2 21.25C2 21.6642 2.33579 22 2.75 22H21.25C21.6642 22 22 21.6642 22 21.25C22 20.8358 21.6642 20.5 21.25 20.5H2.75Z" fill="currentColor" fillRule="evenodd" clipRule="evenodd" />
</svg>
