<svg width="24" height="24" viewBox="0 0 24 24" fill="none" xmlns="http://www.w3.org/2000/svg">
<path fill-rule="evenodd" clip-rule="evenodd" d="M15.308 4.16725C14.2613 3.7245 13.1482 3.5 12 3.5C10.852 3.5 9.739 3.7245 8.692 4.16725C7.68 4.59525 6.77075 5.2085 5.98975 5.9895C5.20875 6.7705 4.5955 7.67975 4.1675 8.69175C3.72475 9.7385 3.50025 10.8515 3.50025 11.9997C3.50025 13.148 3.72475 14.261 4.1675 15.308C4.5955 16.32 5.20875 17.2292 5.98975 18.0102C6.77075 18.7912 7.68 19.4045 8.692 19.8325C9.73875 20.2753 10.852 20.4998 12 20.4998C13.148 20.4998 14.261 20.2753 15.308 19.8325C16.32 19.4045 17.2292 18.7912 18.0102 18.0102C18.7912 17.2292 19.4045 16.32 19.8325 15.308C20.2753 14.2613 20.4998 13.1482 20.4998 12C20.4998 10.8518 20.2753 9.73875 19.8325 8.69175C19.4045 7.67975 18.7912 6.7705 18.0102 5.9895C17.2292 5.2085 16.32 4.59525 15.308 4.16725ZM2 12C2 6.47725 6.47725 2 12 2C17.5228 2 22 6.47725 22 12C22 17.5228 17.5228 22 12 22C6.47725 22 2 17.5228 2 12ZM12.2809 7.968C11.9879 7.67525 11.9879 7.20025 12.2809 6.90725C12.5736 6.61425 13.0486 6.61425 13.3413 6.90725L16.842 10.4087C17.2808 10.8475 17.5 11.4237 17.5 12C17.5 12.5762 17.2805 13.1525 16.842 13.5913L13.3413 17.0928C13.0486 17.3858 12.5736 17.3858 12.2809 17.0928C11.9879 16.8 11.9879 16.325 12.2809 16.032L15.5618 12.7503H7.24998C6.83574 12.7503 6.5 12.4142 6.5 12C6.5 11.5855 6.83574 11.2497 7.24998 11.2497H15.5618L12.2809 7.968Z" fill="black"/>
</svg>
