<?xml version="1.0" encoding="UTF-8"?>
<svg xmlns:svg="http://www.w3.org/2000/svg" viewBox="0 0 24 24" fill="none">
<svg:path d="M16.7071 11.2929L19.6464 14.2322C20.6227 15.2085 20.6227 16.7915 19.6464 17.7678L16.7071 20.7071C16.3166 21.0976 15.6834 21.0976 15.2929 20.7071C14.9024 20.3166 14.9024 19.6834 15.2929 19.2929L17.5857 17H5.00002C4.44774 17 4.00002 16.5523 4.00002 16C4.00002 15.4477 4.44774 15 5.00002 15L17.5857 15L15.2929 12.7071C14.9024 12.3166 14.9024 11.6834 15.2929 11.2929C15.6834 10.9024 16.3166 10.9024 16.7071 11.2929ZM19 7C19.5523 7 20 7.44772 20 8C20 8.55228 19.5523 9 19 9L6.41431 9L8.70714 11.2929C9.09766 11.6834 9.09765 12.3166 8.70712 12.7071C8.31659 13.0976 7.68342 13.0976 7.2929 12.7071L4.35366 9.76775C3.37739 8.79146 3.3774 7.20854 4.35366 6.23225L7.2929 3.2929C7.68342 2.90237 8.31659 2.90236 8.70712 3.29288C9.09765 3.6834 9.09766 4.31657 8.70714 4.7071L6.41431 7L19 7Z" fill="currentColor" fillRule="evenodd" clipRule="evenodd" />
</svg>
