<svg width="24" height="24" viewBox="0 0 24 24" fill="none" xmlns="http://www.w3.org/2000/svg">
<path d="M12 2C6.47725 2 2 6.47725 2 12C2 17.5228 6.47725 22 12 22C17.5228 22 22 17.5228 22 12C22 6.47725 17.5228 2 12 2ZM16.75 13.0003H9.0415L11.8958 15.8553C12.2863 16.2458 12.2863 16.879 11.8958 17.2697C11.5053 17.6602 10.8723 17.6602 10.4818 17.2697L6.981 13.7682C6.49375 13.2807 6.25 12.6405 6.25 12.0003C6.25 11.36 6.49375 10.7198 6.981 10.2323L10.4818 6.73075C10.8723 6.34025 11.5053 6.34025 11.896 6.73075C12.2865 7.12125 12.2865 7.7545 11.896 8.14525L9.04175 11.0003H16.7503C17.3025 11.0003 17.7503 11.448 17.7503 12.0005C17.7503 12.553 17.3025 13.0008 16.7503 13.0008L16.75 13.0003Z" fill="black"/>
</svg>
