<svg width="24" height="24" viewBox="0 0 24 24" fill="none" xmlns="http://www.w3.org/2000/svg">
<path fill-rule="evenodd" clip-rule="evenodd" d="M8.53035 4.53036C8.82325 4.23746 8.82325 3.76258 8.53035 3.46968C8.23746 3.17677 7.76259 3.17677 7.46969 3.46968L4.53044 6.409C3.6518 7.28767 3.6518 8.71233 4.53044 9.591L7.46969 12.5303C7.76259 12.8232 8.23746 12.8232 8.53035 12.5303C8.82325 12.2374 8.82325 11.7625 8.53035 11.4696L5.81079 8.75H19C19.4142 8.75 19.75 8.41421 19.75 8C19.75 7.58579 19.4142 7.25 19 7.25H5.81079L8.53035 4.53036ZM15.4697 11.4697C15.7626 11.1768 16.2375 11.1768 16.5304 11.4697L19.4696 14.409C20.3482 15.2877 20.3482 16.7123 19.4696 17.591L16.5304 20.5303C16.2375 20.8232 15.7626 20.8232 15.4697 20.5303C15.1768 20.2374 15.1768 19.7626 15.4697 19.4697L18.1893 16.75H5.00002C4.58581 16.75 4.25002 16.4142 4.25002 16C4.25002 15.5858 4.58581 15.25 5.00002 15.25H18.1893L15.4697 12.5303C15.1768 12.2374 15.1768 11.7626 15.4697 11.4697Z" fill="black"/>
</svg>
