<?xml version="1.0" encoding="UTF-8"?>
<svg xmlns:svg="http://www.w3.org/2000/svg" viewBox="0 0 24 24" fill="none">
<svg:path d="M12 2C6.47725 2 2 6.47725 2 12C2 17.5228 6.47725 22 12 22C17.5228 22 22 17.5228 22 12C22 6.47725 17.5228 2 12 2ZM17.2695 11.8957C16.879 12.2862 16.2457 12.2862 15.855 11.8957L13 9.0415V16.75C13 17.3023 12.5522 17.75 11.9997 17.75C11.4472 17.75 10.9995 17.3023 10.9995 16.75V9.0415L8.1445 11.8957C7.754 12.2862 7.12075 12.2862 6.73 11.8957C6.3395 11.5052 6.3395 10.8722 6.73 10.4817L10.2315 6.981C10.719 6.49375 11.3592 6.25 11.9995 6.25C12.6397 6.25 13.28 6.49375 13.7675 6.981L17.269 10.4817C17.6595 10.8722 17.6595 11.5052 17.269 11.8957H17.2695Z" fill="currentColor" />
</svg>
