<?xml version="1.0" encoding="UTF-8"?>
<svg xmlns:svg="http://www.w3.org/2000/svg" viewBox="0 0 24 24" fill="none">
<svg:path d="M13.2973 3.88825C12.9105 3.634 12.462 3.49975 12.0003 3.49975V3.5C11.54 3.5 11.0927 3.6335 10.7067 3.88625C10.7065 3.88639 10.7063 3.88655 10.7061 3.88672L10.7053 3.88729C10.7044 3.88791 10.7035 3.8885 10.7035 3.8885L4.36012 8.05725C4.20037 8.16225 4.09211 8.29725 4.03861 8.45825C3.98836 8.61 3.98736 8.76975 4.03612 8.93275C4.08562 9.0985 4.17611 9.2345 4.30536 9.3365C4.44286 9.445 4.61187 9.5 4.80813 9.5H19.1929C19.3892 9.5 19.5581 9.445 19.6956 9.3365C19.8246 9.2345 19.9154 9.0985 19.9649 8.9325C20.0134 8.76925 20.0127 8.60975 19.9622 8.458C19.9087 8.297 19.8004 8.162 19.6407 8.057L13.2973 3.88825ZM9.87946 2.635C10.5237 2.2118 11.2618 2.00005 12 2C12.7382 2.00005 13.4763 2.2118 14.1205 2.635L20.4639 6.80375C20.9064 7.0945 21.2249 7.503 21.3852 7.98525C21.5324 8.42825 21.5382 8.90425 21.4017 9.3615C21.2642 9.8225 20.9954 10.221 20.6247 10.5137C20.2219 10.8317 19.7264 11 19.1924 11H18.7501V17.5383C20.3069 17.779 21.5001 19.1261 21.5001 20.75C21.5001 21.4402 20.9403 22 20.2501 22H3.75007C3.05986 22 2.50007 21.4402 2.50007 20.75C2.50007 19.1261 3.6932 17.779 5.25007 17.5383V11H4.80761C4.2736 11 3.77834 10.832 3.37534 10.5137C3.00458 10.2207 2.73582 9.8225 2.59832 9.3615C2.46182 8.90425 2.46757 8.4285 2.61482 7.98525C2.77508 7.503 3.0936 7.0945 3.53611 6.80375L9.87946 2.635ZM6.75007 17.5H9.25007V11H6.75007V17.5ZM10.7501 17.5H13.2501V11H10.7501V17.5ZM14.7501 17.5H17.2501V11H14.7501V17.5ZM19.9823 20.5H4.01785C4.13938 19.6526 4.86941 19 5.75007 19H18.2501C19.1307 19 19.8608 19.6526 19.9823 20.5Z" fill="currentColor" fillRule="evenodd" clipRule="evenodd" />
</svg>
