<?xml version="1.0" encoding="UTF-8"?>
<svg xmlns:svg="http://www.w3.org/2000/svg" viewBox="0 0 24 24" fill="none">
<svg:path d="M11.09 20.9197C10.6985 19.9942 10.5 19.0117 10.5 17.9999C10.5 16.9882 10.6985 16.0057 11.09 15.0802C11.4678 14.1869 12.0085 13.3849 12.6968 12.6966C12.78 12.6134 12.8648 12.5326 12.9513 12.4536C12.848 11.8189 12.5825 11.2149 12.1782 10.7096L11.4162 9.7571C11.1315 9.40109 10.963 8.97259 10.9292 8.51783L10.5529 3.4363C10.8163 3.31991 11 3.05641 11 2.75C11 2.33579 10.6642 2 10.25 2H9.75H7.25H6.75C6.33579 2 6 2.33579 6 2.75C6 3.05641 6.18375 3.31991 6.44707 3.4363L6.07075 8.51783C6.037 8.97259 5.86875 9.40109 5.58375 9.7571L4.82175 10.7096C4.29175 11.3721 4 12.2039 4 13.0521V19.25C4 20.7662 5.23375 22 6.75 22H10.25C10.6918 22 11.1095 21.895 11.48 21.7092C11.3352 21.455 11.205 21.1917 11.09 20.92V20.9197ZM13 2.75C13 2.33579 13.3358 2 13.75 2H14.2498H16.7498H17.25C17.6642 2 18 2.33579 18 2.75C18 3.0565 17.8161 3.32006 17.5527 3.43641L17.929 8.51775C17.9628 8.9725 18.1313 9.401 18.416 9.757L19.0713 10.576C18.7185 10.5255 18.361 10.4997 17.9998 10.4997C16.988 10.4997 16.0055 10.6982 15.08 11.0898C14.7983 11.209 14.5255 11.3445 14.2625 11.4957L14.2623 11.496C14.0688 10.873 13.7603 10.2865 13.3493 9.77275L12.904 9.216C12.9958 8.99525 13.0525 8.76025 13.0705 8.51775L13.4468 3.4362C13.1836 3.31975 13 3.05632 13 2.75ZM12 18C12 14.6863 14.6863 12 18 12C21.3137 12 24 14.6863 24 18C24 21.3137 21.3137 24 18 24C14.6863 24 12 21.3137 12 18ZM18.5 18.5H20.75C21.0262 18.5 21.25 18.2762 21.25 18C21.25 17.7238 21.0262 17.5 20.75 17.5H18.5V15.25C18.5 14.9738 18.2762 14.75 18 14.75C17.7238 14.75 17.5 14.9738 17.5 15.25V17.5H15.25C14.9738 17.5 14.75 17.7238 14.75 18C14.75 18.2762 14.9738 18.5 15.25 18.5H17.5V20.75C17.5 21.0262 17.7238 21.25 18 21.25C18.2762 21.25 18.5 21.0262 18.5 20.75V18.5Z" fill="currentColor" fillRule="evenodd" clipRule="evenodd" />
</svg>
