<?xml version="1.0" encoding="UTF-8"?>
<svg xmlns:svg="http://www.w3.org/2000/svg" viewBox="0 0 24 24" fill="none">
<svg:path d="M9.5708 8.51781L9.94712 3.43633C9.68377 3.31994 9.5 3.05643 9.5 2.75C9.5 2.33579 9.83579 2 10.25 2H10.75H13.25H13.75C14.1642 2 14.5 2.33579 14.5 2.75C14.5 3.05643 14.3162 3.31994 14.0529 3.43633L14.4292 8.51781L14.4292 8.51786C14.4628 8.97072 14.6325 9.40267 14.9161 9.75719L14.9162 9.75723L15.6782 10.7097L15.6782 10.7098C16.2099 11.3746 16.5 12.2005 16.5 13.0523V19.25C16.5 20.7687 15.2687 22 13.75 22H10.25C8.73129 22 7.5 20.7687 7.5 19.25V13.0523C7.5 12.2009 7.78958 11.3746 8.32185 10.7097L8.32204 10.7095L9.08385 9.75723L9.08388 9.75719C9.36753 9.40267 9.53722 8.97072 9.5708 8.51786L9.5708 8.51781Z" fill="currentColor" fillRule="evenodd" clipRule="evenodd" />
</svg>
