<?xml version="1.0" encoding="UTF-8"?>
<svg xmlns:svg="http://www.w3.org/2000/svg" viewBox="0 0 24 24" fill="none">
<svg:path d="M10.443 20.4997H10.2503C9.56 20.4997 9.00025 19.94 9.00025 19.2497V13.0519C9.00025 12.5429 9.17525 12.0436 9.49325 11.6464L10.2553 10.6939C10.73 10.1004 11.0105 9.38609 11.0668 8.62833L11.4467 3.5H12.5538L12.9338 8.62833C12.99 9.38634 13.2705 10.1006 13.7453 10.6939L13.9842 10.9926C14.1938 11.2546 14.553 11.3424 14.86 11.2074L14.8773 11.1999C15.3225 11.0046 15.462 10.4409 15.1588 10.0609C15.0218 9.8891 14.9163 9.7571 14.9163 9.7571C14.6315 9.40109 14.463 8.97259 14.4292 8.51783L14.0529 3.4363C14.3163 3.31991 14.5 3.05641 14.5 2.75C14.5 2.33579 14.1642 2 13.75 2H13.25H10.75H10.25C9.83579 2 9.5 2.33579 9.5 2.75C9.5 3.05641 9.68375 3.31991 9.94707 3.4363L9.57075 8.51783C9.537 8.97259 9.36875 9.40109 9.08375 9.7571L8.32175 10.7096C7.79175 11.3721 7.5 12.2039 7.5 13.0521V19.25C7.5 20.7687 8.73125 22 10.25 22H10.4515C10.9917 22 11.3495 21.4407 11.1243 20.9497C11.1215 20.944 11.119 20.9382 11.1163 20.9325C10.9958 20.669 10.7325 20.5002 10.4428 20.5002L10.443 20.4997ZM12 18C12 14.6863 14.6863 12 18 12C21.3137 12 24 14.6863 24 18C24 21.3137 21.3137 24 18 24C14.6863 24 12 21.3137 12 18ZM18.212 21.9042L20.7898 18.1045H20.79C21.0125 17.7765 20.7733 17.337 20.372 17.337H19.0503L19.5328 14.9655C19.595 14.66 19.3572 14.375 19.0402 14.375H16.5607C16.3158 14.375 16.1065 14.5488 16.0655 14.786L15.3822 18.7352C15.3302 19.0367 15.5665 19.3117 15.8775 19.3117H17.2917V21.6305C17.2917 22.1188 17.9362 22.3108 18.212 21.9042Z" fill="currentColor" fillRule="evenodd" clipRule="evenodd" />
</svg>
