<?xml version="1.0" encoding="UTF-8"?>
<svg xmlns:svg="http://www.w3.org/2000/svg" viewBox="0 0 24 24" fill="none">
<svg:path d="M10.5 17.9999C10.5 19.0117 10.6985 19.9942 11.09 20.9197C11.2495 21.2967 11.4383 21.6572 11.6545 22H10.25C8.73375 22 7.5 20.7662 7.5 19.25V13.0521C7.5 12.2039 7.79175 11.3721 8.32175 10.7096L9.08375 9.7571C9.36875 9.40109 9.537 8.97259 9.57075 8.51783L9.94725 3.43602C9.68375 3.31977 9.5 3.05651 9.5 2.75001C9.5 2.33575 9.83575 2 10.25 2H13.75C14.1643 2 14.5 2.33575 14.5 2.75001C14.5 3.05626 14.316 3.31952 14.0527 3.43602L14.4292 8.51783C14.463 8.97259 14.6315 9.40109 14.9163 9.7571L15.6783 10.7096C15.7113 10.7509 15.7435 10.7929 15.7747 10.8356C15.5402 10.9086 15.3085 10.9934 15.0803 11.0899C14.187 11.4679 13.385 12.0084 12.6967 12.6966C12.0085 13.3849 11.4677 14.1869 11.09 15.0802C10.6985 16.0057 10.5 16.9882 10.5 17.9999ZM12 18C12 14.6863 14.6863 12 18 12C21.3137 12 24 14.6863 24 18C24 21.3137 21.3137 24 18 24C14.6863 24 12 21.3137 12 18ZM18.212 21.9042L20.7898 18.1045H20.79C21.0125 17.7765 20.7733 17.337 20.372 17.337H19.0503L19.5328 14.9655C19.595 14.66 19.3572 14.375 19.0402 14.375H16.5607C16.3158 14.375 16.1065 14.5488 16.0655 14.786L15.3822 18.7352C15.3302 19.0367 15.5665 19.3117 15.8775 19.3117H17.2917V21.6305C17.2917 22.1188 17.9362 22.3108 18.212 21.9042Z" fill="currentColor" fillRule="evenodd" clipRule="evenodd" />
</svg>
