<?xml version="1.0" encoding="UTF-8"?>
<svg xmlns:svg="http://www.w3.org/2000/svg" viewBox="0 0 24 24" fill="none">
<svg:path d="M11.1172 20.9355C10.9892 20.6415 10.687 20.4637 10.3677 20.494C10.329 20.4977 10.2898 20.4995 10.25 20.4995H6.75C6.05975 20.4995 5.5 19.9397 5.5 19.2495V13.0516C5.5 12.5426 5.675 12.0434 5.993 11.6461L6.755 10.6936C7.22975 10.1001 7.51025 9.38584 7.5665 8.62808L7.94647 3.5H9.05353L9.4335 8.62833C9.48975 9.38634 9.77025 10.1006 10.245 10.6939L11.007 11.6464C11.1883 11.8729 11.323 12.1326 11.4055 12.4084C11.4058 12.4096 11.4061 12.4107 11.4065 12.4119C11.407 12.4138 11.4075 12.4157 11.408 12.4179C11.5533 13.0026 12.2847 13.1954 12.6842 12.7444C12.6892 12.7386 12.6945 12.7329 12.6995 12.7274C12.8677 12.5381 12.9268 12.2761 12.8578 12.0324C12.722 11.5531 12.492 11.1016 12.1782 10.7096L11.4162 9.7571C11.1315 9.40109 10.963 8.97259 10.9292 8.51783L10.5529 3.4363C10.8163 3.31991 11 3.05641 11 2.75C11 2.33579 10.6642 2 10.25 2H9.75H7.25H6.75C6.33579 2 6 2.33579 6 2.75C6 3.05641 6.18375 3.31991 6.44707 3.4363L6.07075 8.51783C6.037 8.97259 5.86875 9.40109 5.58375 9.7571L4.82175 10.7096C4.29175 11.3721 4 12.2039 4 13.0521V19.25C4 20.7687 5.23125 22 6.75 22H10.25C10.343 22 10.4348 21.9952 10.5253 21.9862C11.0233 21.9365 11.325 21.4117 11.1247 20.9532L11.1172 20.936V20.9355ZM13 2.75C13 2.33579 13.3358 2 13.75 2H14.2502H16.7502H17.25C17.6642 2 18 2.33579 18 2.75C18 3.05632 17.8164 3.31975 17.5532 3.4362L17.9295 8.51775C17.9477 8.76475 18.006 9.004 18.1007 9.22825C18.1125 9.25625 18.1422 9.30575 18.1845 9.36975C18.5105 9.86475 18.1615 10.524 17.5687 10.532C17.5641 10.5322 17.5596 10.5322 17.5551 10.5322C17.5527 10.5323 17.5504 10.5323 17.548 10.5323C17.2695 10.5365 17.0115 10.3863 16.8782 10.1418C16.6252 9.67725 16.4735 9.16375 16.4337 8.6285L16.0538 3.5H14.9467L14.5667 8.62825C14.5505 8.84625 14.5157 9.061 14.463 9.27C14.3097 9.87725 13.524 10.0383 13.148 9.5375L13.1482 9.53775C13.1462 9.53509 13.1443 9.5325 13.1423 9.52991C13.1404 9.52738 13.1385 9.52484 13.1365 9.52225C13.0017 9.34275 12.9565 9.11225 13.0107 8.8945C13.0412 8.77175 13.0615 8.64575 13.071 8.51775L13.4473 3.43641C13.1839 3.32007 13 3.0565 13 2.75ZM12 18C12 14.6863 14.6863 12 18 12C21.3137 12 24 14.6863 24 18C24 21.3137 21.3137 24 18 24C14.6863 24 12 21.3137 12 18ZM18.5 18.5H20.75C21.0262 18.5 21.25 18.2762 21.25 18C21.25 17.7238 21.0262 17.5 20.75 17.5H18.5V15.25C18.5 14.9738 18.2762 14.75 18 14.75C17.7238 14.75 17.5 14.9738 17.5 15.25V17.5H15.25C14.9738 17.5 14.75 17.7238 14.75 18C14.75 18.2762 14.9738 18.5 15.25 18.5H17.5V20.75C17.5 21.0262 17.7238 21.25 18 21.25C18.2762 21.25 18.5 21.0262 18.5 20.75V18.5Z" fill="currentColor" fillRule="evenodd" clipRule="evenodd" />
</svg>
