<?xml version="1.0" encoding="UTF-8"?>
<svg xmlns:svg="http://www.w3.org/2000/svg" viewBox="0 0 24 24" fill="none">
<svg:path d="M10.5375 10.4225C10.975 11.2978 11.219 12.2712 11.2473 13.2497L11.248 13.25H2.0035C2.03175 12.2718 2.2755 11.298 2.71325 10.4228C3.573 8.70325 4.055 6.85775 4.146 4.93725L4.20625 3.66725C4.2505 2.73225 5.01825 2 5.95425 2H7.09075C7.52725 2 7.94525 2.16175 8.26825 2.4555C8.591 2.749 8.7915 3.15025 8.83275 3.58475L8.9585 4.912C9.141 6.838 9.67225 8.692 10.5375 10.4225ZM2 14.75H11.25V17H2V14.75ZM2 18.5V19C2 20.6542 3.34575 22 5 22H8.25C9.90425 22 11.25 20.6542 11.25 19V18.5H2ZM19.3353 5.32934C19.7057 5.51456 19.8559 5.96502 19.6707 6.33547L19.0878 7.50127C20.7016 7.54787 22 8.87511 22 10.5V19C22 20.6542 20.6542 22 19 22H15.75C14.0958 22 12.75 20.6542 12.75 19V10.5C12.75 8.84575 14.0958 7.5 15.75 7.5H17.4116L18.3292 5.66472C18.5144 5.29427 18.9649 5.14411 19.3353 5.32934ZM17.375 17.5C15.8563 17.5 14.625 16.2688 14.625 14.75C14.625 13.2313 15.8563 12 17.375 12C18.8938 12 20.125 13.2313 20.125 14.75C20.125 16.2688 18.8938 17.5 17.375 17.5Z" fill="currentColor" fillRule="evenodd" clipRule="evenodd" />
</svg>
