<?xml version="1.0" encoding="UTF-8"?>
<svg xmlns:svg="http://www.w3.org/2000/svg" viewBox="0 0 24 24" fill="none">
<svg:path d="M6.75 21.9998H10.25V22C11.7662 22 13 20.7663 13 19.25V13.0522C13 12.2037 12.7082 11.372 12.1782 10.7095L11.4163 9.757C11.1313 9.401 10.963 8.9725 10.9293 8.51775L10.5529 3.4363C10.8163 3.3199 11 3.05641 11 2.75C11 2.33579 10.6642 2 10.25 2H9.75H7.25H6.75C6.33579 2 6 2.33579 6 2.75C6 3.05641 6.18375 3.3199 6.44706 3.4363L6.07075 8.51775C6.037 8.9725 5.8685 9.401 5.58375 9.757L4.82175 10.7095C4.29175 11.3718 4 12.2038 4 13.052V19.2498C4 20.766 5.23375 21.9998 6.75 21.9998ZM9.4335 8.62825L9.05354 3.5H7.94648L7.5665 8.62825C7.51025 9.38625 7.22975 10.1005 6.755 10.6938L5.993 11.6462C5.675 12.0437 5.5 12.5428 5.5 13.0518V19.2495C5.5 19.9387 6.06075 20.4995 6.75 20.4995H10.25C10.9392 20.4995 11.5 19.9387 11.5 19.2495V13.0518C11.5 12.5428 11.325 12.0435 11.007 11.6462L10.245 10.6938C9.77025 10.1003 9.48975 9.386 9.4335 8.62825ZM13.75 2C13.3358 2 13 2.33579 13 2.75C13 3.05627 13.1836 3.31967 13.4467 3.43615L13.0704 8.51775C13.0609 8.64575 13.0406 8.77175 13.0101 8.8945C12.9559 9.11225 13.0011 9.34275 13.1359 9.52225C13.1379 9.52491 13.1399 9.5275 13.1418 9.5301C13.1437 9.53263 13.1457 9.53516 13.1476 9.53775C13.5236 10.0385 14.3094 9.8775 14.4626 9.27025C14.5154 9.06125 14.5501 8.8465 14.5664 8.6285L14.9464 3.5H16.0534L16.4334 8.62875C16.4896 9.38675 16.7701 10.101 17.2449 10.6942L18.0069 11.6468C18.3249 12.0442 18.4999 12.5432 18.4999 13.0522V19.25C18.4999 19.9402 17.9401 20.5 17.2499 20.5H14.8276C14.5316 20.5 14.2644 20.676 14.1469 20.9475C14.1446 20.9527 14.1424 20.958 14.1399 20.9632C13.9259 21.4522 14.2869 22 14.8209 22H17.2499C18.7686 22 19.9999 20.7688 19.9999 19.25V13.0522C19.9999 12.2007 19.7101 11.3745 19.1781 10.7095H19.1779L18.4159 9.757C18.1311 9.401 17.9626 8.9725 17.9289 8.51775L17.5526 3.43646C17.8161 3.32014 18 3.05655 18 2.75C18 2.33579 17.6642 2 17.25 2H16.7496H14.2496H13.75Z" fill="currentColor" fillRule="evenodd" clipRule="evenodd" />
</svg>
