<svg width="24" height="24" viewBox="0 0 24 24" fill="none" xmlns="http://www.w3.org/2000/svg">
<path fill-rule="evenodd" clip-rule="evenodd" d="M22.5303 2.53033C22.8232 2.23744 22.8232 1.76256 22.5303 1.46967C22.2374 1.17678 21.7626 1.17678 21.4697 1.46967L1.46967 21.4697C1.17678 21.7626 1.17678 22.2374 1.46967 22.5303C1.76256 22.8232 2.23744 22.8232 2.53033 22.5303L6.06066 19L9 19C9 20.6568 10.3433 22 12 22C13.6568 22 15 20.6568 15 19L18.4922 19C20.0485 19 21.0115 17.308 20.2135 15.9748L19.5835 14.9223C19.2125 14.3023 19.0167 13.5938 19.0167 12.8718V9C19.0167 8.12048 18.8541 7.27888 18.5572 6.50347L22.5303 2.53033ZM9 17.5L7.56066 17.5L17.3622 7.69846C17.4643 8.11958 17.5167 8.55578 17.5167 9V12.8718C17.5167 13.8648 17.7865 14.84 18.2965 15.6925L18.9265 16.745C19.0558 16.961 18.9857 17.1508 18.9325 17.2448C18.8785 17.34 18.7495 17.5 18.4922 17.5L15 17.5H9ZM12 20.5C11.173 20.5 10.5 19.827 10.5 19H13.5C13.5 19.827 12.827 20.5 12 20.5ZM4.98349 9.0002C4.98349 5.1342 8.12499 2.0002 12.0002 2.0002L12 1.99995C13.5805 1.99995 15.039 2.52145 16.212 3.4012C16.5757 3.67395 16.6107 4.2072 16.2892 4.5287C16.026 4.79195 15.6087 4.82295 15.311 4.5992C14.361 3.88595 13.2102 3.49995 12 3.49995C10.5257 3.49995 9.13974 4.07245 8.09774 5.1122C7.05674 6.1507 6.48324 7.53145 6.48324 8.99995V12.8717C6.48324 13.2125 6.45149 13.5512 6.38899 13.8837C6.32224 14.2402 6.01349 14.5 5.65099 14.5C5.18324 14.5 4.82574 14.0757 4.91324 13.6162C4.95974 13.372 4.98349 13.1227 4.98349 12.872V9.0002Z" fill="black"/>
</svg>
