<svg width="24" height="24" viewBox="0 0 24 24" fill="none" xmlns="http://www.w3.org/2000/svg">
<path fill-rule="evenodd" clip-rule="evenodd" d="M19.0164 12.8715C19.0164 13.5935 19.2121 14.302 19.5831 14.922L19.5834 14.9223L20.2134 15.9747C21.0114 17.308 20.0484 19 18.4921 19H15C15 20.6568 13.6567 22 12 22C10.3432 22 9 20.6568 9 19H5.50777C3.95151 19 2.98874 17.3078 3.7865 15.9747L4.41651 14.9223C4.78727 14.3023 4.98327 13.5938 4.98327 12.8718V9C4.98327 5.134 8.12479 2 12.0001 2C12.1143 2 12.2278 2.00275 12.3408 2.00825C12.8766 2.034 13.2051 2.60825 12.9608 3.086C12.9595 3.08875 12.958 3.0915 12.9566 3.09425C12.9551 3.097 12.9537 3.09975 12.9523 3.1025C12.8206 3.36075 12.5503 3.5195 12.2608 3.506C12.1741 3.502 12.0871 3.5 11.9998 3.5C10.5256 3.5 9.13955 4.07275 8.09754 5.11225C7.05653 6.15075 6.48302 7.5315 6.48302 9V12.8718C6.48302 13.8647 6.21327 14.84 5.70327 15.6925L5.07327 16.745C4.94402 16.961 5.01401 17.1507 5.06726 17.2447C5.12151 17.34 5.25051 17.5 5.50751 17.5H9H15H18.4919C18.7491 17.5 18.8781 17.34 18.9321 17.2447C18.9854 17.1507 19.0554 16.961 18.9261 16.745L18.2961 15.6925C17.7861 14.84 17.5164 13.8647 17.5164 12.8718V10.0563C17.5164 9.727 17.7356 9.4395 18.0521 9.349C18.0563 9.34775 18.0604 9.34656 18.0645 9.34538C18.0686 9.34419 18.0727 9.343 18.0769 9.34175C18.5471 9.20575 19.0164 9.55775 19.0164 10.047V12.8715ZM10.5 19C10.5 19.827 11.173 20.5 12 20.5C12.827 20.5 13.5 19.827 13.5 19H10.5ZM17 8C18.6569 8 20 6.65685 20 5C20 3.34315 18.6569 2 17 2C15.3431 2 14 3.34315 14 5C14 6.65685 15.3431 8 17 8Z" fill="black"/>
</svg>
