<?xml version="1.0" encoding="UTF-8"?>
<svg xmlns:svg="http://www.w3.org/2000/svg" viewBox="0 0 24 24" fill="none">
<svg:path d="M15 19H18.4921C20.0484 19 21.0114 17.308 20.2134 15.9747L19.5834 14.9223C19.2124 14.3023 19.0166 13.5938 19.0166 12.8717V9C19.0166 5.134 15.8751 2 11.9998 2C8.12454 2 4.98326 5.134 4.98326 9V12.8717C4.98326 13.5938 4.78751 14.3023 4.41651 14.9223L3.7865 15.9747C2.98875 17.3077 3.9515 19 5.50777 19H9C9 20.6568 10.3433 22 12 22C13.6568 22 15 20.6568 15 19ZM13.5 19H10.5C10.5 19.827 11.173 20.5 12 20.5C12.827 20.5 13.5 19.827 13.5 19Z" fill="currentColor" fillRule="evenodd" clipRule="evenodd" />
</svg>
