<?xml version="1.0" encoding="UTF-8"?>
<svg xmlns:svg="http://www.w3.org/2000/svg" viewBox="0 0 24 24" fill="none">
<svg:path d="M1.46975 22.5303C1.616 22.6768 1.80799 22.75 1.99999 22.75C2.19174 22.75 2.38374 22.6768 2.53024 22.5303L6.06053 19H9C9 20.6568 10.3433 22 12 22C13.6568 22 15 20.6568 15 19H18.4923C20.0485 19 21.0115 17.308 20.2135 15.9747L19.5835 14.9223H19.5838C19.2128 14.3023 19.017 13.5938 19.017 12.8718V9C19.017 8.12046 18.8543 7.27883 18.5574 6.50334L22.5303 2.5305C22.8233 2.2375 22.8233 1.76275 22.5303 1.46975C22.2373 1.17675 21.7623 1.17675 21.4695 1.46975L17.8323 5.107L4.32275 18.616C4.32285 18.6161 4.32294 18.6161 4.32304 18.6162L1.46975 21.4695C1.17675 21.7625 1.17675 22.2373 1.46975 22.5303ZM13.5 19H10.5C10.5 19.827 11.173 20.5 12 20.5C12.827 20.5 13.5 19.827 13.5 19ZM16.8631 3.9545C15.6018 2.74425 13.8881 2 11.9998 2C8.12455 2 4.98305 5.134 4.98305 9V12.8718C4.98305 13.5938 4.78705 14.3023 4.4163 14.9223L3.7863 15.9747C3.5318 16.4003 3.45655 16.8622 3.5228 17.2943L16.8631 3.9545Z" fill="currentColor" fillRule="evenodd" clipRule="evenodd" />
</svg>
