<svg width="24" height="24" viewBox="0 0 24 24" fill="none" xmlns="http://www.w3.org/2000/svg">
<path fill-rule="evenodd" clip-rule="evenodd" d="M15.1133 4.62775C14.1283 4.21125 13.0808 4 12 4C10.9192 4 9.87175 4.21125 8.88675 4.62775C7.93425 5.0305 7.0785 5.60775 6.34325 6.343C5.608 7.07825 5.03075 7.934 4.628 8.8865C4.2115 9.8715 4.00025 10.919 4.00025 11.9997C4.00025 13.0805 4.2115 14.128 4.628 15.113C4.90047 15.7574 5.25279 16.3575 5.67986 16.9059L16.9062 5.67961C16.3577 5.25254 15.7576 4.90021 15.1133 4.62775ZM18.3204 7.09386L7.09411 18.3201C7.64249 18.7471 8.24249 19.0993 8.88675 19.3718C9.87175 19.7882 10.9192 19.9995 12 19.9995C13.0808 19.9995 14.1283 19.7882 15.1133 19.3718C16.0658 18.969 16.9215 18.3917 17.6568 17.6565C18.392 16.9213 18.9692 16.0655 19.372 15.113C19.7885 14.128 19.9998 13.0805 19.9998 11.9997C19.9998 10.919 19.7885 9.8715 19.372 8.8865C19.0996 8.24224 18.7473 7.64224 18.3204 7.09386ZM2 12C2 6.47725 6.47725 2 12 2C17.5228 2 22 6.47725 22 12C22 17.5228 17.5228 22 12 22C6.47725 22 2 17.5228 2 12Z" fill="black"/>
</svg>
