<svg width="24" height="24" viewBox="0 0 24 24" fill="none" xmlns="http://www.w3.org/2000/svg">
<path fill-rule="evenodd" clip-rule="evenodd" d="M15.4498 5.5C15.2175 4.36025 14.2072 3.5 13 3.5H6.5C5.9485 3.5 5.5 3.9485 5.5 4.5C5.5 5.0515 5.9485 5.5 6.5 5.5H10H15.4498ZM16.9823 5.6215C16.7917 3.58979 15.0816 2 13 2H6.5C5.11925 2 4 3.11925 4 4.5V18C4 20.2093 5.79075 22 8 22H16C18.2093 22 20 20.2093 20 18V9.5C20 7.6297 18.7166 6.05933 16.9823 5.6215ZM10 7H6.5C6.14444 7 5.80623 6.92578 5.5 6.79199V18C5.5 19.3785 6.6215 20.5 8 20.5H16C17.3785 20.5 18.5 19.3785 18.5 18V9.5C18.5 8.1215 17.3785 7 16 7H10ZM12 12.5C12.9665 12.5 13.75 11.7165 13.75 10.75C13.75 9.7835 12.9665 9 12 9C11.0335 9 10.25 9.7835 10.25 10.75C10.25 11.7165 11.0335 12.5 12 12.5ZM11.9949 18.5H12.0051C13.9354 18.5 15.5 16.9353 15.5 15.0053C15.5 14.174 14.8262 13.5 13.9947 13.5H10.0053C9.17402 13.5 8.5 14.1738 8.5 15.0053C8.5 16.9355 10.0648 18.5 11.9949 18.5Z" fill="black"/>
</svg>
