<svg width="24" height="24" viewBox="0 0 24 24" fill="none" xmlns="http://www.w3.org/2000/svg">
<path fill-rule="evenodd" clip-rule="evenodd" d="M19.557 5.49172C18.7403 5.1651 17.8798 4.99941 17.0001 4.99941H16.9998C16.1201 4.99941 15.2598 5.1651 14.4428 5.49172L12.75 6.16856V19.0102L13.5509 18.6916C14.6566 18.2515 15.8096 18.0286 17.0106 18.0286C18.2115 18.0286 19.3855 18.2557 20.5 18.7036V6.88392C20.5 6.58304 20.4108 6.29241 20.242 6.04325C20.0733 5.7941 19.8365 5.60343 19.557 5.49172ZM11.25 19.0073V6.16846L9.55741 5.49172C8.74067 5.1651 7.88018 4.99941 7.00044 4.99941C6.1207 4.99941 5.26046 5.1651 4.44347 5.49172C4.16397 5.60343 3.92723 5.7941 3.75848 6.04325C3.58973 6.29241 3.50048 6.58304 3.50048 6.88392V18.7076C4.61872 18.2605 5.7962 18.0338 7.00044 18.0338C8.20467 18.0338 9.38216 18.2605 10.5004 18.7076L11.25 19.0073ZM13.8856 4.09952C14.8853 3.69992 15.9426 3.5 16.9998 3.5L17.0001 3.50025C18.0576 3.50025 19.1148 3.70017 20.1143 4.09976C21.2533 4.55534 22 5.6579 22 6.88417V18.7038C22 19.565 21.294 20.2047 20.5013 20.2047C20.3165 20.2047 20.1268 20.17 19.9405 20.095C19.0005 19.7172 17.9966 19.5282 17.0106 19.5282C16.0246 19.5282 15.0383 19.7137 14.1056 20.0848L12.8344 20.5906C12.5671 20.6968 12.2861 20.75 12.0024 20.75C11.7186 20.75 11.4349 20.6963 11.1666 20.5891L9.94315 20.0998C8.99841 19.7222 7.99943 19.5332 7.00019 19.5332C6.00095 19.5332 5.00171 19.7222 4.05723 20.0998C3.87148 20.174 3.68273 20.2085 3.49873 20.2085C2.70599 20.2085 2 19.5685 2 18.7076V6.88392C2 5.65765 2.74674 4.55484 3.88573 4.09952C4.88547 3.69992 5.94245 3.5 6.99994 3.5C8.05742 3.5 9.11466 3.69992 10.1142 4.09952L11.9999 4.85347L13.8856 4.09952Z" fill="black"/>
</svg>
