<?xml version="1.0" encoding="UTF-8"?>
<svg xmlns:svg="http://www.w3.org/2000/svg" viewBox="0 0 24 24" fill="none">
<svg:path d="M11.1028 15.812C11.635 15.4148 12.365 15.4148 12.8972 15.812L17.7004 19.3969C17.8054 19.4752 17.9031 19.5 17.992 19.5C18.1192 19.5 18.2541 19.4473 18.3533 19.3534C18.4412 19.2701 18.5 19.1577 18.5 18.9979V5.99716C18.5 4.61891 17.3818 3.5 16 3.5H8C6.61817 3.5 5.5 4.61891 5.5 5.99716V18.9979C5.5 19.1579 5.5588 19.2703 5.64661 19.3534C5.74579 19.4473 5.8807 19.5 6.00801 19.5C6.09674 19.5 6.19466 19.4752 6.29956 19.3969L6.29963 19.3969L11.1028 15.812ZM7.19675 20.599C6.8265 20.8753 6.41226 21 6.00801 21C4.97176 21 4 20.1813 4 18.9979V5.99716C4 3.78948 5.79075 2 8 2H16C18.2093 2 20 3.78948 20 5.99716V18.9979C20 20.1811 19.0282 21 17.992 21C17.5875 21 17.1735 20.8753 16.8032 20.599L12 17.0141L7.19675 20.599Z" fill="currentColor" fillRule="evenodd" clipRule="evenodd" />
</svg>
