<svg width="24" height="24" viewBox="0 0 24 24" fill="none" xmlns="http://www.w3.org/2000/svg">
<path fill-rule="evenodd" clip-rule="evenodd" d="M11.0586 21.0831C11.5176 21.6711 12.1983 21.9996 12.9278 21.9996L12.9283 22.0001C13.0446 21.9999 13.1623 21.9916 13.2803 21.9746C14.1463 21.8499 14.8561 21.2894 15.1786 20.4749L15.3221 20.1127C15.4901 19.6887 15.9476 19.4524 16.3863 19.5634L16.7271 19.6497C17.5546 19.8592 18.4103 19.6224 19.0163 19.0164C19.6221 18.4104 19.8588 17.5547 19.6496 16.7272L19.5633 16.3862C19.4523 15.9475 19.6886 15.49 20.1126 15.322L20.4748 15.1785C21.2893 14.856 21.8498 14.1465 21.9746 13.2803C22.0981 12.4216 21.7651 11.5911 21.0833 11.0588L20.9933 10.9886C20.6261 10.7019 20.5463 10.1714 20.8121 9.78112L20.9083 9.63987C21.4073 8.90689 21.4638 7.96516 21.0561 7.18217C20.8626 6.81118 20.5763 6.49694 20.2278 6.27369C19.8566 6.03595 19.4223 5.9072 18.9718 5.90145C18.4883 5.8952 18.1048 5.51171 18.0986 5.02822C18.0928 4.57773 17.9641 4.14349 17.7263 3.77224C17.5033 3.42375 17.1891 3.13726 16.8178 2.94401C16.0348 2.53627 15.0931 2.59277 14.3601 3.09176L14.2188 3.18801C13.8286 3.45375 13.2981 3.374 13.0113 3.00676L12.9411 2.91676C12.4086 2.23503 11.5783 1.90178 10.7196 2.02553C9.85357 2.15028 9.14382 2.71077 8.82132 3.52525L8.67782 3.88749C8.50982 4.31148 8.05232 4.54773 7.61357 4.43673L7.27282 4.35048C6.44532 4.14099 5.58957 4.37773 4.98357 4.98372C4.37782 5.58971 4.14107 6.44544 4.35032 7.27292L4.43657 7.61392C4.54757 8.05266 4.31132 8.51015 3.88732 8.67814L3.52507 8.82164C2.71057 9.14413 2.15007 9.85362 2.02532 10.7199C1.90182 11.5786 2.23507 12.4091 2.91632 12.9411L3.00632 13.0113C3.37357 13.2981 3.45332 13.8285 3.18757 14.2188L3.09132 14.36C2.59232 15.093 2.53582 16.0347 2.94357 16.8177C3.13707 17.1887 3.42332 17.503 3.77182 17.7262C4.14307 17.964 4.57732 18.0927 5.02782 18.0985C5.51132 18.1047 5.89482 18.4882 5.90107 18.9717C5.90682 19.4222 6.03557 19.8564 6.27332 20.2277C6.49632 20.5762 6.81057 20.8626 7.18182 21.0559C7.96482 21.4636 8.90657 21.4071 9.63957 20.9081L9.78082 20.8119C10.1711 20.5462 10.7016 20.6259 10.9883 20.9931L11.0586 21.0831ZM12.1706 20.0702C11.7041 19.4727 11.0006 19.1564 10.2868 19.1564H10.2866C9.81982 19.1564 9.34857 19.2917 8.93682 19.5722L8.79557 19.6684C8.51582 19.8587 8.17157 19.8802 7.87482 19.7257C7.73432 19.6524 7.40682 19.4307 7.40082 18.9527C7.39282 18.3262 7.14507 17.738 6.70332 17.2962C6.26132 16.8545 5.67307 16.6067 5.04682 16.5987C4.56882 16.5927 4.34707 16.2655 4.27382 16.125C4.11932 15.8282 4.14082 15.484 4.33132 15.2043L4.42757 15.063C5.13657 14.0215 4.91782 12.6011 3.92957 11.8293L3.83957 11.7591C3.47557 11.4748 3.48782 11.0871 3.50982 10.9336C3.55682 10.6064 3.76882 10.3381 4.07707 10.2161L4.43932 10.0726C5.56182 9.62813 6.18557 8.41315 5.89057 7.24617L5.80432 6.90518C5.69107 6.45794 5.93432 6.1542 6.04407 6.04445C6.15382 5.9347 6.45732 5.69146 6.90482 5.8047L7.24582 5.89095C7.44057 5.9402 7.63657 5.96395 7.83032 5.96395C8.79682 5.9637 9.70207 5.37471 10.0723 4.43973L10.2158 4.07749C10.3378 3.76949 10.6061 3.5575 10.9333 3.51025C11.0868 3.48825 11.4746 3.476 11.7588 3.83999L11.8291 3.92999C12.6008 4.91822 14.0213 5.13697 15.0628 4.42798L15.2041 4.33173C15.4838 4.14149 15.8281 4.11999 16.1248 4.27448C16.2653 4.34773 16.5928 4.56948 16.5988 5.04747C16.6068 5.67396 16.8543 6.26219 17.2963 6.70393C17.7383 7.14568 18.3266 7.39342 18.9528 7.40142C19.4308 7.40742 19.6526 7.73466 19.7258 7.87516C19.8803 8.1719 19.8588 8.51615 19.6683 8.79589L19.5721 8.93714C18.8631 9.97862 19.0818 11.3991 20.0701 12.1708L20.1601 12.2411C20.5241 12.5253 20.5118 12.9131 20.4898 13.0666C20.4428 13.3938 20.2308 13.662 19.9226 13.784L19.5603 13.9275C18.4378 14.372 17.8141 15.587 18.1091 16.754L18.1953 17.095C18.3086 17.5422 18.0653 17.846 17.9556 17.9557C17.8458 18.0655 17.5423 18.3087 17.0948 18.1955L16.7538 18.1092C15.5868 17.8142 14.3718 18.4379 13.9273 19.5604L13.7838 19.9227C13.6618 20.2307 13.3936 20.4427 13.0663 20.4899C12.9128 20.5119 12.5251 20.5242 12.2408 20.1602L12.1706 20.0702ZM7.49982 12.0003C7.49982 12.9833 7.81282 13.918 8.39157 14.6908L8.39207 14.6903C8.61682 14.9905 8.59082 15.4093 8.32557 15.6745C8.00482 15.9953 7.47207 15.9625 7.19982 15.6C6.44632 14.5973 6.00007 13.3508 6.00007 12C6.00007 8.67653 8.67657 6.00003 12.0001 6.00003C13.3508 6.00003 14.5973 6.44628 15.6001 7.19953C15.9626 7.47178 15.9951 8.00478 15.6746 8.32528C15.4116 8.58828 14.9946 8.62053 14.6973 8.39703C13.9231 7.81478 12.9856 7.50003 11.9998 7.50003C10.7981 7.50003 9.66207 7.97428 8.81807 8.81803C7.97407 9.66178 7.49982 10.807 7.49982 12.0003Z" fill="#231F20"/>
</svg>
