<?xml version="1.0" encoding="UTF-8"?>
<svg xmlns:svg="http://www.w3.org/2000/svg" viewBox="0 0 24 24" fill="none">
<svg:path d="M10.4996 20.5003C10.4996 20.0286 10.5923 19.5701 10.7753 19.1376C10.9516 18.7206 11.2038 18.3466 11.5248 18.0256C11.5291 18.0213 11.5334 18.0172 11.5377 18.013C11.542 18.0088 11.5463 18.0046 11.5506 18.0003C11.5421 17.9918 11.5333 17.9836 11.5248 17.9751C11.2038 17.6541 10.9518 17.2801 10.7753 16.8631C10.5923 16.4306 10.4996 15.9721 10.4996 15.5003V14.0003C10.4996 13.5286 10.5923 13.0701 10.7753 12.6376C10.9516 12.2206 11.2038 11.8466 11.5248 11.5256C11.8458 11.2046 12.2198 10.9526 12.6368 10.7761C13.0693 10.5931 13.5278 10.5003 13.9996 10.5003H15.4996C15.9713 10.5003 16.4298 10.5931 16.8623 10.7761C17.2793 10.9523 17.6533 11.2046 17.9743 11.5256C17.9786 11.5298 17.9828 11.5341 17.987 11.5385C17.9911 11.5428 17.9953 11.5471 17.9996 11.5513L18.0122 11.5385L18.0248 11.5256C18.3458 11.2046 18.7198 10.9526 19.1368 10.7761C19.5693 10.5931 20.0278 10.5003 20.4996 10.5003H20.6803C20.6231 10.2616 20.6636 9.99933 20.8121 9.78108L20.9083 9.63983C21.4073 8.90683 21.4638 7.96508 21.0561 7.18208C20.8628 6.81083 20.5763 6.49658 20.2278 6.27358C19.8566 6.03583 19.4223 5.90708 18.9718 5.90133C18.4883 5.89508 18.1048 5.51158 18.0986 5.02808C18.0928 4.57758 17.9641 4.14333 17.7263 3.77208C17.5031 3.42358 17.1888 3.13733 16.8178 2.94383C16.0348 2.53608 15.0931 2.59258 14.3601 3.09158L14.2188 3.18783C13.8286 3.45358 13.2981 3.37383 13.0113 3.00658L12.9411 2.91658C12.4088 2.23483 11.5783 1.90183 10.7196 2.02533C9.85333 2.15008 9.14383 2.71058 8.82133 3.52508L8.67783 3.88733C8.50983 4.31133 8.05233 4.54758 7.61358 4.43658L7.27283 4.35033C6.44533 4.14108 5.58958 4.37783 4.98358 4.98358C4.37758 5.58958 4.14083 6.44533 4.35033 7.27283L4.43658 7.61383C4.54758 8.05258 4.31133 8.51008 3.88733 8.67808L3.52508 8.82158C2.71058 9.14408 2.15008 9.85358 2.02533 10.7198C1.90183 11.5786 2.23483 12.4088 2.91658 12.9413L3.00633 13.0116C3.37358 13.2983 3.45333 13.8288 3.18758 14.2191L3.09133 14.3603C2.59233 15.0933 2.53583 16.0351 2.94358 16.8181C3.13683 17.1893 3.42333 17.5036 3.77183 17.7266C4.14308 17.9643 4.57733 18.0931 5.02783 18.0988C5.51133 18.1051 5.89483 18.4886 5.90108 18.9721C5.90683 19.4226 6.03558 19.8568 6.27333 20.2281C6.49658 20.5766 6.81083 20.8628 7.18183 21.0563C7.96483 21.4641 8.90658 21.4076 9.63958 20.9086L9.78083 20.8123C9.99908 20.6638 10.2611 20.6233 10.5001 20.6806V20.4998L10.4996 20.5003ZM8.07208 8.15008C7.05508 9.18708 6.48858 10.5918 6.49983 12.0441C6.50933 13.2738 6.92008 14.4403 7.66983 15.3931C7.90508 15.6918 7.88058 16.1191 7.61183 16.3878C7.29283 16.7068 6.76783 16.6726 6.48933 16.3176C5.55608 15.1281 4.99958 13.6291 4.99958 12.0001C4.99958 8.12258 8.12208 5.00008 11.9996 5.00008C13.6286 5.00008 15.1278 5.55658 16.3173 6.48983C16.6723 6.76833 16.7066 7.29308 16.3876 7.61208C16.1198 7.87983 15.6933 7.90708 15.3958 7.67258C14.4311 6.91233 13.2471 6.49983 11.9998 6.49983C10.5126 6.49983 9.11533 7.08608 8.07233 8.14958L8.07208 8.15008ZM15.5 12H14C12.8954 12 12 12.8954 12 14V15.5C12 16.6046 12.8954 17.5 14 17.5H15.5C16.6046 17.5 17.5 16.6046 17.5 15.5V14C17.5 12.8954 16.6046 12 15.5 12ZM15.5 18.5H14C12.8954 18.5 12 19.3954 12 20.5V22C12 23.1046 12.8954 24 14 24H15.5C16.6046 24 17.5 23.1046 17.5 22V20.5C17.5 19.3954 16.6046 18.5 15.5 18.5ZM20.5 12H22C23.1046 12 24 12.8954 24 14V15.5C24 16.6046 23.1046 17.5 22 17.5H20.5C19.3954 17.5 18.5 16.6046 18.5 15.5V14C18.5 12.8954 19.3954 12 20.5 12ZM19.25 18.5H20C20.4143 18.5 20.75 18.8358 20.75 19.25V20C20.75 20.4143 20.4143 20.75 20 20.75H19.25C18.8358 20.75 18.5 20.4143 18.5 20V19.25C18.5 18.8358 18.8358 18.5 19.25 18.5ZM22.5 18.5H23.25C23.6643 18.5 24 18.8358 24 19.25V20C24 20.4143 23.6643 20.75 23.25 20.75H22.5C22.0858 20.75 21.75 20.4143 21.75 20V19.25C21.75 18.8358 22.0858 18.5 22.5 18.5ZM19.25 21.75H20C20.4143 21.75 20.75 22.0858 20.75 22.5V23.25C20.75 23.6643 20.4143 24 20 24H19.25C18.8358 24 18.5 23.6643 18.5 23.25V22.5C18.5 22.0858 18.8358 21.75 19.25 21.75ZM22.5 21.75H23.25C23.6643 21.75 24 22.0858 24 22.5V23.25C24 23.6643 23.6643 24 23.25 24H22.5C22.0858 24 21.75 23.6643 21.75 23.25V22.5C21.75 22.0858 22.0858 21.75 22.5 21.75Z" fill="currentColor" fillRule="evenodd" clipRule="evenodd" />
</svg>
