<?xml version="1.0" encoding="UTF-8"?>
<svg xmlns:svg="http://www.w3.org/2000/svg" viewBox="0 0 24 24" fill="none">
<svg:path d="M21.0836 11.0588L20.9939 10.9886C20.6266 10.7018 20.5469 10.1713 20.8126 9.78108L20.9089 9.63983C21.4079 8.90683 21.4644 7.96508 21.0566 7.18208C20.8634 6.81083 20.5769 6.49658 20.2284 6.27358C19.8571 6.03583 19.4228 5.90708 18.9723 5.90133C18.4888 5.89508 18.1053 5.51158 18.0991 5.02808C18.0933 4.57758 17.9646 4.14333 17.7268 3.77208C17.5035 3.42358 17.1893 3.13733 16.8183 2.94383C16.0352 2.53608 15.0935 2.59258 14.3604 3.09158L14.2192 3.18783C13.8289 3.45358 13.2984 3.37383 13.0117 3.00658L12.9414 2.91658C12.4091 2.23483 11.5786 1.90183 10.7198 2.02533C9.85356 2.15008 9.14404 2.71058 8.82153 3.52508L8.67803 3.88733C8.51002 4.31133 8.05251 4.54758 7.61375 4.43658L7.27299 4.35033C6.44546 4.14108 5.58969 4.37783 4.98367 4.98358C4.37765 5.58958 4.14089 6.44533 4.3504 7.27283L4.43665 7.61383C4.54766 8.05258 4.3114 8.51008 3.88739 8.67808L3.52513 8.82158C2.7106 9.14408 2.15009 9.85358 2.02533 10.7198C1.90183 11.5786 2.23484 12.4088 2.91661 12.9413L3.00636 13.0116C3.37362 13.2983 3.45337 13.8288 3.18762 14.2191L3.09136 14.3603C2.59235 15.0933 2.53585 16.0351 2.94361 16.8181C3.13687 17.1893 3.42337 17.5036 3.77188 17.7266C4.14314 17.9643 4.57741 18.0931 5.02792 18.0988C5.51143 18.1051 5.89495 18.4886 5.9012 18.9721C5.90695 19.4226 6.0357 19.8568 6.27346 20.2281C6.49671 20.5766 6.81097 20.8628 7.18198 21.0563C7.96501 21.4641 8.90678 21.4076 9.63981 20.9086L9.78106 20.8123C10.1713 20.5466 10.7018 20.6263 10.9886 20.9936L11.0588 21.0836C11.5179 21.6716 12.1986 22.0001 12.9282 22.0001C13.0444 22.0001 13.1622 21.9918 13.2802 21.9746C14.1464 21.8498 14.856 21.2893 15.1785 20.4748L15.322 20.1126C15.49 19.6886 15.9475 19.4523 16.3863 19.5633L16.727 19.6496C17.5545 19.8588 18.4103 19.6221 19.0163 19.0163C19.6224 18.4103 19.8591 17.5546 19.6496 16.7271L19.5633 16.3861C19.4523 15.9473 19.6886 15.4898 20.1126 15.3218L20.4749 15.1783C21.2894 14.8558 21.8499 14.1463 21.9747 13.2801C22.0982 12.4213 21.7652 11.5911 21.0834 11.0586L21.0836 11.0588ZM16.3878 7.61258C16.12 7.88033 15.6935 7.90758 15.396 7.67308C14.4312 6.91283 13.2472 6.50033 11.9999 6.50033C10.5126 6.50033 9.11529 7.08658 8.07226 8.15008C7.05523 9.18708 6.48871 10.5918 6.49996 12.0441C6.50946 13.2738 6.92023 14.4403 7.67 15.3931C7.90526 15.6918 7.88075 16.1191 7.612 16.3878C7.29299 16.7068 6.76797 16.6726 6.48946 16.3176C5.55619 15.1281 4.99967 13.6291 4.99967 12.0001C4.99967 8.12258 8.12226 5.00008 11.9999 5.00008C13.6289 5.00008 15.1282 5.55658 16.3178 6.48983C16.6728 6.76833 16.707 7.29308 16.388 7.61208L16.3878 7.61258Z" fill="currentColor" />
</svg>
