<svg width="24" height="24" viewBox="0 0 24 24" fill="none" xmlns="http://www.w3.org/2000/svg">
<path fill-rule="evenodd" clip-rule="evenodd" d="M21.9948 8.0599C21.996 8.08054 21.9973 8.10118 21.998 8.12206L21.9983 8.12156C21.9993 8.15381 22 8.18631 22 8.21906V10.4576C22 11.0111 21.421 11.3738 20.923 11.1326C20.6758 11.0126 20.515 10.7676 20.5015 10.4951H20.5003V8.21956C20.5003 8.14181 20.493 8.06506 20.4793 7.99056L12.7503 11.2826V12.4026C12.7503 12.5598 12.701 12.7131 12.609 12.8408C12.1835 13.4318 11.2503 13.1308 11.2503 12.4026V11.2826L3.52125 7.99056C3.5075 8.06531 3.50026 8.14181 3.50026 8.21956V15.6146C3.50026 16.5228 4.04076 17.3376 4.87726 17.6901L10.558 20.0836C10.7313 20.1566 10.8708 20.2921 10.949 20.4631C11.2263 21.0698 10.633 21.7096 10.007 21.4791C10.0023 21.4776 10 21.4766 10 21.4766V21.4783L4.29475 19.0743C2.90075 18.4871 2 17.1296 2 15.6161V8.21931C2 8.18681 2.00051 8.15431 2.00176 8.12181C2.00249 8.10103 2.0037 8.08049 2.00492 8.05972L2.005 8.05831C2.00538 8.05319 2.00563 8.04806 2.00588 8.04294C2.00613 8.03781 2.00638 8.03269 2.00675 8.02756C2.0085 8.00006 2.01101 7.97281 2.01376 7.94556C2.01426 7.94206 2.01451 7.93856 2.01476 7.93506C2.01776 7.90681 2.02125 7.87856 2.025 7.85056C2.02525 7.84856 2.02551 7.84631 2.02576 7.84431C2.15601 6.88981 2.77726 6.06531 3.68251 5.68381L10.5445 2.79231C11.4695 2.40256 12.5303 2.40256 13.4553 2.79231L20.3173 5.68381C21.2225 6.06531 21.8438 6.88981 21.974 7.84431C21.9741 7.84531 21.9743 7.84638 21.9744 7.84744C21.9745 7.8485 21.9746 7.84956 21.9748 7.85056C21.9788 7.87856 21.982 7.90681 21.985 7.93506C21.9852 7.93666 21.9854 7.93825 21.9856 7.93985C21.9857 7.94175 21.9859 7.94366 21.986 7.94556C21.9885 7.97281 21.991 8.00006 21.993 8.02756C21.9937 8.03736 21.9942 8.04716 21.9947 8.05676L21.9948 8.05881L21.9948 8.0599ZM4.72401 6.87331L11.9998 9.97231V9.97206L14.9225 8.72731L7.43325 5.73156L4.72401 6.87331ZM9.40026 4.90306L16.8785 7.89431V7.89456L19.2755 6.87356L12.8728 4.17556C12.5953 4.05881 12.2975 4.00031 11.9998 4.00031C11.702 4.00031 11.4043 4.05856 11.1268 4.17556L9.40026 4.90306ZM12 18C12 14.6863 14.6863 12 18 12C21.3137 12 24 14.6863 24 18C24 21.3137 21.3137 24 18 24C14.6863 24 12 21.3137 12 18ZM18.5 18.5H20.75C21.0262 18.5 21.25 18.2762 21.25 18C21.25 17.7238 21.0262 17.5 20.75 17.5H18.5V15.25C18.5 14.9738 18.2762 14.75 18 14.75C17.7238 14.75 17.5 14.9738 17.5 15.25V17.5H15.25C14.9738 17.5 14.75 17.7238 14.75 18C14.75 18.2762 14.9738 18.5 15.25 18.5H17.5V20.75C17.5 21.0262 17.7238 21.25 18 21.25C18.2762 21.25 18.5 21.0262 18.5 20.75V18.5Z" fill="black"/>
</svg>
