<?xml version="1.0" encoding="UTF-8"?>
<svg xmlns:svg="http://www.w3.org/2000/svg" viewBox="0 0 24 24" fill="none">
<svg:g clipPath="url(#clip0_1_555)">
<svg:path d="M17.5063 7.62656L21.033 6.12431C20.822 5.94481 20.5817 5.79531 20.3172 5.68381L13.4552 2.79231C12.5302 2.40256 11.4695 2.40256 10.5445 2.79231L8.53475 3.63931L17.5063 7.62656ZM11.09 20.9198C10.6985 19.9943 10.5 19.0118 10.5 18.0001C10.5 16.9883 10.6985 16.0058 11.09 15.0803C11.1405 14.9613 11.194 14.8438 11.25 14.7281V11.2828L2.1255 7.39656C2.04375 7.65856 2 7.93531 2 8.21981V15.6161C2 17.1296 2.90075 18.4871 4.29475 19.0743L10.5448 21.7078C10.773 21.8041 11.0095 21.8763 11.25 21.9251V21.2723C11.1938 21.1566 11.1403 21.0391 11.09 20.9201V20.9198ZM15.0802 11.0901C16.0057 10.6986 16.9883 10.5001 18 10.5001C19.0117 10.5001 19.9943 10.6986 20.9198 11.0901C21.2968 11.2496 21.6572 11.4383 22 11.6546V8.21981C22 7.93531 21.9563 7.65831 21.8745 7.39656L12.75 11.2828V12.6448C13.4262 11.9816 14.2097 11.4583 15.0802 11.0901ZM12 18.0001C12 14.6863 14.6863 12.0001 18 12.0001C21.3137 12.0001 24 14.6863 24 18.0001C24 21.3138 21.3137 24.0001 18 24.0001C14.6863 24.0001 12 21.3138 12 18.0001ZM18.5 18.5001H20.75C21.0262 18.5001 21.25 18.2763 21.25 18.0001C21.25 17.7238 21.0262 17.5001 20.75 17.5001H18.5V15.2501C18.5 14.9738 18.2762 14.7501 18 14.7501C17.7238 14.7501 17.5 14.9738 17.5 15.2501V17.5001H15.25C14.9738 17.5001 14.75 17.7238 14.75 18.0001C14.75 18.2763 14.9738 18.5001 15.25 18.5001H17.5V20.7501C17.5 21.0263 17.7238 21.2501 18 21.2501C18.2762 21.2501 18.5 21.0263 18.5 20.7501V18.5001ZM3.68275 5.68381L6.639 4.43806L15.6205 8.42981L12.0002 9.97181L2.967 6.12431C3.178 5.94506 3.418 5.79531 3.68275 5.68381Z" fill="currentColor" fillRule="evenodd" clipRule="evenodd" />
</svg:g>
<svg:defs>
<svg:clipPath id="clip0_1_555">
<svg:rect width="24" height="24" fill="currentColor" />
</svg:clipPath>
</svg:defs>
</svg>
