<svg width="24" height="24" viewBox="0 0 24 24" fill="none" xmlns="http://www.w3.org/2000/svg">
<g clip-path="url(#clip0_1_540)">
<path fill-rule="evenodd" clip-rule="evenodd" d="M21.033 6.12431L17.5063 7.62656L8.53475 3.63931L10.5445 2.79231C11.4695 2.40256 12.5303 2.40256 13.4553 2.79231L20.3173 5.68381C20.5818 5.79531 20.822 5.94481 21.033 6.12431ZM6.639 4.43806L3.68275 5.68381C3.418 5.79531 3.178 5.94506 2.967 6.12431L12.0003 9.97181L15.6205 8.42981L6.639 4.43806ZM11.09 20.9198C10.6985 19.9943 10.5 19.0118 10.5 18.0001C10.5 16.9883 10.6985 16.0058 11.09 15.0803C11.1405 14.9613 11.194 14.8438 11.25 14.7281V11.2828L2.1255 7.39656C2.04375 7.65856 2 7.93531 2 8.21981V15.6161C2 17.1296 2.90075 18.4871 4.29475 19.0743L10.5448 21.7078C10.773 21.8041 11.0095 21.8763 11.25 21.9251V21.2723C11.1938 21.1566 11.1402 21.0391 11.09 20.9201V20.9198ZM18 12.0001C14.6863 12.0001 12 14.6863 12 18.0001C12 21.3138 14.6863 24.0001 18 24.0001C21.3137 24.0001 24 21.3138 24 18.0001C24 14.6863 21.3137 12.0001 18 12.0001ZM21.3535 16.5611L18.0605 19.8541C17.768 20.1466 17.384 20.2926 16.9997 20.2926C16.6155 20.2926 16.2315 20.1463 15.939 19.8541L14.646 18.5611C14.4507 18.3658 14.4507 18.0493 14.646 17.8538C14.8412 17.6586 15.1578 17.6586 15.3533 17.8538L16.6462 19.1468C16.8412 19.3418 17.1585 19.3418 17.3533 19.1468L20.6462 15.8538C20.8415 15.6586 21.158 15.6586 21.3535 15.8538C21.5488 16.0491 21.5488 16.3656 21.3535 16.5611ZM18 10.5001C16.9883 10.5001 16.0057 10.6986 15.0802 11.0901C14.2097 11.4583 13.4262 11.9816 12.75 12.6448V11.2828L21.8745 7.39656C21.9563 7.65831 22 7.93531 22 8.21981V11.6546C21.6572 11.4383 21.2968 11.2496 20.9198 11.0901C19.9943 10.6986 19.0117 10.5001 18 10.5001Z" fill="black"/>
</g>
<defs>
<clipPath id="clip0_1_540">
<rect width="24" height="24" fill="white"/>
</clipPath>
</defs>
</svg>
