<?xml version="1.0" encoding="UTF-8"?>
<svg xmlns:svg="http://www.w3.org/2000/svg" viewBox="0 0 24 24" fill="none">
<svg:g clipPath="url(#clip0_1_545)">
<svg:path d="M17.5062 7.62656L21.033 6.12431C20.822 5.94481 20.5817 5.79531 20.3172 5.68381L13.4552 2.79231C12.5302 2.40256 11.4695 2.40256 10.5445 2.79231L8.53474 3.63931L17.5062 7.62656ZM11.09 20.9198C10.6985 19.9943 10.5 19.0118 10.5 18.0001C10.5 16.9883 10.6985 16.0058 11.09 15.0803C11.1405 14.9613 11.194 14.8438 11.25 14.7281V11.2828L2.1255 7.39656C2.04375 7.65856 2 7.93531 2 8.21981V15.6161C2 17.1296 2.90075 18.4871 4.29475 19.0743L10.5448 21.7078C10.773 21.8041 11.0095 21.8763 11.25 21.9251V21.2723C11.1938 21.1566 11.1403 21.0391 11.09 20.9201V20.9198ZM18 12.0001C14.6863 12.0001 12 14.6863 12 18.0001C12 21.3138 14.6863 24.0001 18 24.0001C21.3137 24.0001 24 21.3138 24 18.0001C24 14.6863 21.3137 12.0001 18 12.0001ZM20.3535 20.3536C20.2557 20.4513 20.128 20.5001 20 20.5001C19.872 20.5001 19.744 20.4513 19.6465 20.3536L18.0857 18.7928C17.708 18.4151 17.5 17.9128 17.5 17.3786V14.9998C17.5 14.7236 17.7238 14.4998 18 14.4998C18.2762 14.4998 18.5 14.7236 18.5 14.9998V17.3786C18.5 17.6456 18.604 17.8968 18.793 18.0858L20.3537 19.6466C20.549 19.8418 20.549 20.1583 20.3537 20.3536H20.3535ZM18 10.5001C16.9883 10.5001 16.0057 10.6986 15.0802 11.0901C14.2097 11.4583 13.4262 11.9816 12.75 12.6448V11.2828L21.8745 7.39656C21.9563 7.65831 22 7.93531 22 8.21981V11.6546C21.6572 11.4383 21.2968 11.2496 20.9198 11.0901C19.9943 10.6986 19.0117 10.5001 18 10.5001ZM3.68275 5.68381L6.639 4.43806L15.6205 8.42981L12.0002 9.97181L2.96699 6.12431C3.17799 5.94506 3.418 5.79531 3.68275 5.68381Z" fill="currentColor" fillRule="evenodd" clipRule="evenodd" />
</svg:g>
<svg:defs>
<svg:clipPath id="clip0_1_545">
<svg:rect width="24" height="24" fill="currentColor" />
</svg:clipPath>
</svg:defs>
</svg>
