<?xml version="1.0" encoding="UTF-8"?>
<svg xmlns:svg="http://www.w3.org/2000/svg" viewBox="0 0 24 24" fill="none">
<svg:g clipPath="url(#clip0_1_550)">
<svg:path d="M17.5062 7.62656L21.033 6.12431C20.822 5.94481 20.5817 5.79531 20.3172 5.68381L13.4552 2.79231C12.5302 2.40256 11.4695 2.40256 10.5445 2.79231L8.53474 3.63931L17.5062 7.62656ZM11.09 20.9198C10.6985 19.9943 10.5 19.0118 10.5 18.0001C10.5 16.9883 10.6985 16.0058 11.09 15.0803C11.1405 14.9613 11.194 14.8438 11.25 14.7281V11.2828L2.1255 7.39656C2.04375 7.65856 2 7.93531 2 8.21981V15.6161C2 17.1296 2.90075 18.4871 4.29475 19.0743L10.5448 21.7078C10.773 21.8041 11.0095 21.8763 11.25 21.9251V21.2723C11.1938 21.1566 11.1403 21.0391 11.09 20.9201V20.9198ZM15.0802 11.0901C16.0057 10.6986 16.9883 10.5001 18 10.5001C19.0117 10.5001 19.9943 10.6986 20.9198 11.0901C21.2968 11.2496 21.6572 11.4383 22 11.6546V8.21981C22 7.93531 21.9563 7.65831 21.8745 7.39656L12.75 11.2828V12.6448C13.4262 11.9816 14.2097 11.4583 15.0802 11.0901ZM12 18.0001C12 14.6863 14.6863 12.0001 18 12.0001C21.3137 12.0001 24 14.6863 24 18.0001C24 21.3138 21.3137 24.0001 18 24.0001C14.6863 24.0001 12 21.3138 12 18.0001ZM20.3535 20.3538C20.5487 20.1583 20.5487 19.8418 20.3535 19.6466L18.707 18.0001L20.3535 16.3536C20.5487 16.1581 20.5487 15.8416 20.3535 15.6463C20.1582 15.4511 19.8418 15.4511 19.6465 15.6463L18 17.2928L16.3535 15.6463C16.1582 15.4511 15.8418 15.4508 15.6465 15.6463C15.4513 15.8418 15.4513 16.1583 15.6465 16.3536L17.293 18.0001L15.6465 19.6466C15.4513 19.8421 15.4513 20.1586 15.6465 20.3538C15.744 20.4516 15.872 20.5003 16 20.5003C16.128 20.5003 16.2557 20.4516 16.3535 20.3538L18 18.7073L19.6465 20.3538C19.744 20.4516 19.872 20.5003 20 20.5003C20.128 20.5003 20.2557 20.4516 20.3535 20.3538ZM3.68275 5.68381L6.639 4.43806L15.6205 8.42981L12.0002 9.97181L2.96699 6.12431C3.17799 5.94506 3.418 5.79531 3.68275 5.68381Z" fill="currentColor" fillRule="evenodd" clipRule="evenodd" />
</svg:g>
<svg:defs>
<svg:clipPath id="clip0_1_550">
<svg:rect width="24" height="24" fill="currentColor" />
</svg:clipPath>
</svg:defs>
</svg>
