<?xml version="1.0" encoding="UTF-8"?>
<svg xmlns:svg="http://www.w3.org/2000/svg" viewBox="0 0 24 24" fill="none">
<svg:path d="M21.9948 8.03379C21.996 8.05479 21.9972 8.07579 21.998 8.09704L21.9982 8.09654C21.9992 8.12879 22 8.16129 22 8.19404V10.4325C22 10.986 21.421 11.3488 20.923 11.1075C20.6757 10.9875 20.515 10.7425 20.5015 10.47H20.5003V8.19454C20.5003 8.11679 20.493 8.04004 20.4792 7.96554L12.7503 11.2575V12.3775C12.7503 12.5348 12.701 12.688 12.609 12.8158C12.1835 13.4068 11.2503 13.1058 11.2503 12.3775V11.2575L3.52125 7.96554C3.5075 8.04029 3.50025 8.11679 3.50025 8.19454V15.5895C3.50025 16.4978 4.04075 17.3125 4.87725 17.665L10.558 20.0585C10.7313 20.1315 10.8707 20.267 10.949 20.438C11.2262 21.0448 10.633 21.6845 10.007 21.454C10.0023 21.4525 10 21.4515 10 21.4515V21.4533L4.29475 19.0493C2.90075 18.462 2 17.1045 2 15.591V8.19429C2 8.16179 2.0005 8.12929 2.00175 8.09679C2.00249 8.07601 2.00369 8.05547 2.00492 8.0347L2.005 8.03329C2.00537 8.02816 2.00562 8.02304 2.00587 8.01791C2.00613 8.01279 2.00638 8.00766 2.00675 8.00254C2.0085 7.97504 2.011 7.94779 2.01375 7.92054C2.01425 7.91704 2.0145 7.91354 2.01475 7.91004C2.01775 7.88179 2.02125 7.85354 2.025 7.82554C2.02525 7.82354 2.0255 7.82129 2.02575 7.81929C2.156 6.86479 2.77725 6.04029 3.6825 5.65879L10.5445 2.76729C11.4695 2.37754 12.5302 2.37754 13.4552 2.76729L20.3172 5.65879C21.2225 6.04029 21.8437 6.86479 21.974 7.81929C21.9741 7.82029 21.9742 7.82135 21.9744 7.82242C21.9745 7.82348 21.9746 7.82454 21.9748 7.82554C21.9787 7.85354 21.982 7.88179 21.985 7.91004C21.9852 7.91164 21.9854 7.91325 21.9856 7.91486C21.9857 7.91675 21.9859 7.91864 21.986 7.92054C21.9885 7.94779 21.991 7.97504 21.993 8.00254C21.9934 8.00853 21.9938 8.01452 21.9941 8.02046C21.9943 8.02494 21.9945 8.02938 21.9948 8.03379ZM4.724 6.84829L11.9997 9.94729V9.94704L14.9225 8.70229L7.43325 5.70654L4.724 6.84829ZM9.40025 4.87804L16.8785 7.86929V7.86954L19.2755 6.84854L12.8727 4.15054C12.5952 4.03379 12.2975 3.97529 11.9997 3.97529C11.702 3.97529 11.4043 4.03354 11.1268 4.15054L9.40025 4.87804ZM12 18C12 14.6862 14.6863 12 18 12C21.3137 12 24 14.6862 24 18C24 21.3137 21.3137 24 18 24C14.6863 24 12 21.3137 12 18ZM20.3535 20.3537C20.5487 20.1582 20.5487 19.8417 20.3535 19.6465L18.707 18L20.3535 16.3535C20.5487 16.158 20.5487 15.8415 20.3535 15.6462C20.1582 15.451 19.8418 15.451 19.6465 15.6462L18 17.2927L16.3535 15.6462C16.1582 15.451 15.8418 15.4507 15.6465 15.6462C15.4513 15.8417 15.4513 16.1582 15.6465 16.3535L17.293 18L15.6465 19.6465C15.4513 19.842 15.4513 20.1585 15.6465 20.3537C15.744 20.4515 15.872 20.5002 16 20.5002C16.128 20.5002 16.2557 20.4515 16.3535 20.3537L18 18.7072L19.6465 20.3537C19.744 20.4515 19.872 20.5002 20 20.5002C20.128 20.5002 20.2557 20.4515 20.3535 20.3537Z" fill="currentColor" fillRule="evenodd" clipRule="evenodd" />
</svg>
