<?xml version="1.0" encoding="UTF-8"?>
<svg xmlns:svg="http://www.w3.org/2000/svg" viewBox="0 0 24 24" fill="none">
<svg:path d="M17.5062 7.62656L21.033 6.12431C20.822 5.94481 20.5817 5.79531 20.3172 5.68381L13.4552 2.79231C12.5302 2.40256 11.4695 2.40256 10.5445 2.79231L8.53475 3.63931L17.5062 7.62656ZM11.25 11.2828V21.2476V21.9248C11.0095 21.8761 10.773 21.8038 10.5448 21.7076L4.29475 19.0741C2.90075 18.4868 2 17.1293 2 15.6158V8.21956C2 7.93506 2.04375 7.65831 2.1255 7.39631L11.25 11.2828ZM12.75 21.2476V11.2828L21.8745 7.39656C21.9563 7.65831 22 7.93531 22 8.21981V15.6161C22 17.1296 21.0993 18.4871 19.7053 19.0743L13.4553 21.7078C13.2273 21.8041 12.9908 21.8763 12.75 21.9251V21.2476ZM3.68275 5.68381L6.639 4.43806L15.6205 8.42981L12.0002 9.97181L2.967 6.12431C3.178 5.94506 3.418 5.79531 3.68275 5.68381Z" fill="currentColor" fillRule="evenodd" clipRule="evenodd" />
</svg>
