<svg width="24" height="24" viewBox="0 0 24 24" fill="none" xmlns="http://www.w3.org/2000/svg">
<path fill-rule="evenodd" clip-rule="evenodd" d="M13.4555 2.79231L20.3175 5.68381L20.3172 5.68356C21.3395 6.11431 22 7.10981 22 8.21956V15.6146C22 17.1278 21.0992 18.4853 19.7052 19.0726L13.4552 21.7058C13.1427 21.8373 12.8147 21.9243 12.4817 21.9668C12.4202 21.4731 12.1985 21.0163 11.841 20.6588L11.25 20.0678V11.2826L3.521 7.99056C3.50725 8.06531 3.5 8.14181 3.5 8.21956V10.1111L3.49524 10.1091C3.46374 10.4046 3.2595 10.6571 2.9705 10.7461C2.48825 10.8946 2 10.5338 2 10.0293V8.21981C2 7.11006 2.66049 6.11456 3.68274 5.68381L10.5447 2.79231C11.4697 2.40256 12.5305 2.40256 13.4555 2.79231ZM12.0002 3.99981C11.7025 3.99981 11.4047 4.05806 11.1272 4.17506V4.17531L9.40074 4.90281L16.879 7.89406L19.276 6.87306L12.8732 4.17506C12.5957 4.05831 12.298 3.99981 12.0002 3.99981ZM4.72479 6.87269L12.0002 9.97156L14.923 8.72681L7.43374 5.73106L4.72479 6.87269ZM19.1232 17.6903C19.9597 17.3378 20.5002 16.5231 20.5002 15.6148V15.6146V8.21956C20.5002 8.14181 20.493 8.06506 20.4792 7.99056L12.7502 11.2826V20.3706C12.7915 20.3561 12.8327 20.3406 12.8732 20.3236L19.1232 17.6903ZM8.16801 19.1076L10.7802 21.7198V21.7196C11.0732 22.0126 11.0732 22.4873 10.7802 22.7803C10.634 22.9268 10.4418 23.0001 10.25 23.0001C10.0582 23.0001 9.86625 22.9268 9.71975 22.7803L7.1075 20.1681C6.37175 20.6921 5.472 21.0001 4.5 21.0001C2.01475 21.0001 0 18.9853 0 16.5001C0 14.0148 2.01475 12.0001 4.5 12.0001C6.98525 12.0001 9 14.0148 9 16.5001C9 17.4721 8.69176 18.3721 8.16801 19.1076ZM1.5 16.5001C1.5 17.3013 1.812 18.0546 2.37875 18.6213C2.94525 19.1881 3.69875 19.5001 4.5 19.5001C5.30125 19.5001 6.0545 19.1878 6.62125 18.6213C7.188 18.0548 7.5 17.3013 7.5 16.5001C7.5 15.6988 7.18775 14.9456 6.62125 14.3788C6.05475 13.8121 5.30125 13.5001 4.5 13.5001C3.69875 13.5001 2.9455 13.8123 2.37875 14.3788C1.812 14.9453 1.5 15.6988 1.5 16.5001Z" fill="black"/>
</svg>
