<svg width="24" height="24" viewBox="0 0 24 24" fill="none" xmlns="http://www.w3.org/2000/svg">
<path fill-rule="evenodd" clip-rule="evenodd" d="M21.033 6.12431L17.5062 7.62656L8.53474 3.63931L10.5445 2.79231C11.4695 2.40256 12.5302 2.40256 13.4552 2.79231L20.3172 5.68381C20.5817 5.79531 20.822 5.94481 21.033 6.12431ZM6.63899 4.43806L3.68274 5.68381C3.41799 5.79531 3.17799 5.94506 2.96699 6.12431L12.0002 9.97181L15.6205 8.42981L6.63899 4.43806ZM12.75 11.2828V21.2476V21.9251C12.9908 21.8763 13.2272 21.8041 13.4552 21.7078L19.7052 19.0743C21.0992 18.4871 22 17.1296 22 15.6161V8.21981C22 7.93531 21.9563 7.65831 21.8745 7.39656L12.75 11.2828ZM10.7802 21.7198L8.16801 19.1076C8.69176 18.3721 9 17.4721 9 16.5001C9 14.0148 6.98525 12.0001 4.5 12.0001C2.01475 12.0001 0 14.0148 0 16.5001C0 18.9853 2.01475 21.0001 4.5 21.0001C5.472 21.0001 6.37175 20.6921 7.1075 20.1681L9.71975 22.7803C9.86625 22.9268 10.0582 23.0001 10.25 23.0001C10.4418 23.0001 10.634 22.9268 10.7802 22.7803C11.0732 22.4873 11.0732 22.0126 10.7802 21.7196V21.7198ZM2.37875 18.6213C1.812 18.0546 1.5 17.3013 1.5 16.5001C1.5 15.6988 1.812 14.9453 2.37875 14.3788C2.9455 13.8123 3.69875 13.5001 4.5 13.5001C5.30125 13.5001 6.05475 13.8121 6.62125 14.3788C7.18775 14.9456 7.5 15.6988 7.5 16.5001C7.5 17.3013 7.188 18.0548 6.62125 18.6213C6.0545 19.1881 5.30125 19.5001 4.5 19.5001C3.69875 19.5001 2.94525 19.1881 2.37875 18.6213ZM4.49976 10.5001C3.69026 10.5001 2.90451 10.6588 2.16376 10.9721L2.164 10.9723C2.109 10.9956 2.05425 11.0198 2 11.0448V8.21981C2 7.93531 2.04375 7.65856 2.1255 7.39656L11.25 11.2828V20.0681L10.0255 18.8436C10.338 18.1083 10.5 17.3096 10.5 16.5001C10.5 15.6906 10.341 14.9048 10.0278 14.1641C9.72551 13.4493 9.293 12.8078 8.74251 12.2573C8.19201 11.7068 7.5505 11.2743 6.83575 10.9721C6.095 10.6588 5.30926 10.5001 4.49976 10.5001Z" fill="black"/>
</svg>
