<?xml version="1.0" encoding="UTF-8"?>
<svg xmlns:svg="http://www.w3.org/2000/svg" viewBox="0 0 24 24" fill="none">
<svg:path d="M17.5062 7.62656L21.033 6.12431C20.822 5.94481 20.5817 5.79531 20.3172 5.68381L13.4552 2.79231C12.5302 2.40256 11.4695 2.40256 10.5445 2.79231L8.53474 3.63931L17.5062 7.62656ZM10.5 21.5238C10.4965 20.9866 10.6425 20.4551 10.9225 19.9863L10.9338 19.9676L10.9455 19.9491L11.25 19.4711V11.2828L2.1255 7.39656C2.04375 7.65856 2 7.93531 2 8.21981V15.6161C2 17.1296 2.90075 18.4871 4.29475 19.0743L10.5062 21.6918C10.5027 21.6358 10.5005 21.5801 10.5 21.5238ZM23.7895 20.7551L19.3197 13.7408C18.7302 12.7533 17.27 12.7533 16.6802 13.7408L12.2105 20.7551C11.6162 21.7503 12.351 23.0001 13.5302 23.0001H22.47C23.6492 23.0001 24.3837 21.7503 23.7897 20.7551H23.7895ZM17.5 15.7501C17.5 15.4738 17.7237 15.2501 18 15.2501C18.2762 15.2501 18.5 15.4738 18.5 15.7501V18.2501C18.5 18.5263 18.2762 18.7501 18 18.7501C17.7237 18.7501 17.5 18.5263 17.5 18.2501V15.7501ZM18 21.2501C17.5857 21.2501 17.25 20.9143 17.25 20.5001C17.25 20.0858 17.5857 19.7501 18 19.7501C18.4142 19.7501 18.75 20.0858 18.75 20.5001C18.75 20.9143 18.4142 21.2501 18 21.2501ZM16.5468 11.8648C16.0783 12.1176 15.684 12.4923 15.4055 12.9501V12.9503L12.75 17.1176V11.2831L21.8745 7.39681C21.9562 7.65856 22 7.93556 22 8.22006V15.1558L20.5945 12.9501C20.316 12.4923 19.922 12.1173 19.4532 11.8648C19.0105 11.6261 18.508 11.5001 18 11.5001C17.492 11.5001 16.9895 11.6263 16.5468 11.8648ZM3.68274 5.68381L6.63899 4.43806L15.6205 8.42981L12.0002 9.97181L2.96699 6.12431C3.17799 5.94506 3.41799 5.79531 3.68274 5.68381Z" fill="currentColor" fillRule="evenodd" clipRule="evenodd" />
</svg>
