<?xml version="1.0" encoding="UTF-8"?>
<svg xmlns:svg="http://www.w3.org/2000/svg" viewBox="0 0 24 24" fill="none">
<svg:path d="M8 1.25C8.41421 1.25 8.75 1.58579 8.75 2V3H15.25V2C15.25 1.58579 15.5858 1.25 16 1.25C16.4142 1.25 16.75 1.58579 16.75 2V3H18C20.2093 3 22 4.79075 22 7V18C22 20.2093 20.2093 22 18 22H6C3.79075 22 2 20.2093 2 18V7C2 4.79075 3.79075 3 6 3H7.25V2C7.25 1.58579 7.58579 1.25 8 1.25ZM15.25 4.5V6C15.25 6.41421 15.5858 6.75 16 6.75C16.4142 6.75 16.75 6.41421 16.75 6V4.5H18C19.3785 4.5 20.5 5.6215 20.5 7V18C20.5 19.3785 19.3785 20.5 18 20.5H6C4.6215 20.5 3.5 19.3785 3.5 18V7C3.5 5.6215 4.6215 4.5 6 4.5H7.25V6C7.25 6.41421 7.58579 6.75 8 6.75C8.41421 6.75 8.75 6.41421 8.75 6V4.5H15.25ZM16.75 9.5C16.75 9.19665 16.5673 8.92318 16.287 8.80709C16.0068 8.69101 15.6842 8.75517 15.4697 8.96967L13.4697 10.9697C13.1768 11.2626 13.1768 11.7374 13.4697 12.0303C13.7626 12.3232 14.2374 12.3232 14.5303 12.0303L15.25 11.3107V16.75H14.5C14.0858 16.75 13.75 17.0858 13.75 17.5C13.75 17.9142 14.0858 18.25 14.5 18.25H17.5C17.9142 18.25 18.25 17.9142 18.25 17.5C18.25 17.0858 17.9142 16.75 17.5 16.75H16.75V9.5ZM7.64681 10.8797C7.8686 10.5018 8.27952 10.25 8.73859 10.25C9.4318 10.25 10 10.821 10 11.5C10 12.179 9.4318 12.75 8.73859 12.75C8.32438 12.75 7.98859 13.0858 7.98859 13.5C7.98859 13.9142 8.32438 14.25 8.73859 14.25C9.4318 14.25 10 14.821 10 15.5C10 16.179 9.4318 16.75 8.73859 16.75C8.27932 16.75 7.86862 16.4982 7.64681 16.1203C7.43713 15.7631 6.97757 15.6435 6.62035 15.8532C6.26312 16.0629 6.14351 16.5224 6.35319 16.8797C6.83104 17.6938 7.72152 18.25 8.73859 18.25C10.2521 18.25 11.5 17.0155 11.5 15.5C11.5 14.7131 11.1635 14.0019 10.6281 13.5C11.1635 12.9981 11.5 12.2869 11.5 11.5C11.5 9.98448 10.2521 8.75 8.73859 8.75C7.72183 8.75 6.83107 9.3062 6.35319 10.1203C6.14351 10.4776 6.26312 10.9371 6.62035 11.1468C6.97757 11.3565 7.43713 11.2369 7.64681 10.8797Z" fill="currentColor" fillRule="evenodd" clipRule="evenodd" />
</svg>
