<svg width="24" height="24" viewBox="0 0 24 24" fill="none" xmlns="http://www.w3.org/2000/svg">
<g clip-path="url(#clip0_1_256)">
<path fill-rule="evenodd" clip-rule="evenodd" d="M1.53025 23.53C1.384 23.6765 1.192 23.7498 1 23.7498V23.75C0.80825 23.75 0.61625 23.6768 0.46975 23.5303C0.17675 23.2373 0.17675 22.7625 0.46975 22.4695L2.69121 20.2481L2.691 20.2478L3.78351 19.1553L3.78369 19.1556L22.4695 0.469745C22.7625 0.176752 23.2373 0.176752 23.5303 0.469745C23.8233 0.762739 23.8233 1.23748 23.5303 1.53047L20.8585 4.20219C21.5647 4.92345 22 5.9109 22 7V18C22 20.2093 20.2092 22 17.9999 22H6.00004C5.16643 22 4.39239 21.7449 3.75167 21.3086L1.53025 23.53ZM4.84404 20.2163C5.18994 20.3975 5.58323 20.5 6.00004 20.5H18.0002C19.3787 20.5 20.5002 19.3785 20.5002 18V7C20.5002 6.32609 20.2322 5.71362 19.7971 5.26359L4.84404 20.2163ZM14 3H8.75V2C8.75 1.56725 8.3835 1.22025 7.944 1.252C7.54975 1.2805 7.25 1.6195 7.25 2.01475V3H6C3.79075 3 2 4.79075 2 7V16.75C2 17.1643 2.33575 17.5 2.75 17.5C3.16425 17.5 3.5 17.1643 3.5 16.75V7C3.5 5.61925 4.61925 4.5 6 4.5H7.25V6C7.25 6.43275 7.6165 6.77975 8.056 6.748C8.45025 6.7195 8.75 6.3805 8.75 5.98525V4.5H9.74847C9.74898 4.5 9.74949 4.5 9.75 4.5H15.25C16.0785 4.5 16.75 3.8285 16.75 3V2.017C16.75 1.6075 16.429 1.261 16.0197 1.25025C15.6105 1.2395 15.25 1.57925 15.25 2V2.99875C15.25 2.99875 15.2495 3 15.2488 3L14 3Z" fill="black"/>
</g>
<defs>
<clipPath id="clip0_1_256">
<rect width="24" height="24" fill="white"/>
</clipPath>
</defs>
</svg>
