<?xml version="1.0" encoding="UTF-8"?>
<svg xmlns:svg="http://www.w3.org/2000/svg" viewBox="0 0 24 24" fill="none">
<svg:path d="M8 1.25C8.41421 1.25 8.75 1.58579 8.75 2V6C8.75 6.41421 8.41421 6.75 8 6.75C7.58579 6.75 7.25 6.41421 7.25 6V2C7.25 1.58579 7.58579 1.25 8 1.25ZM16 1.25C16.4142 1.25 16.75 1.58579 16.75 2V6C16.75 6.41421 16.4142 6.75 16 6.75C15.5858 6.75 15.25 6.41421 15.25 6V2C15.25 1.58579 15.5858 1.25 16 1.25ZM17.75 3H18C20.2093 3 22 4.79075 22 7V18C22 20.2093 20.2093 22 18 22H6C3.79075 22 2 20.2093 2 18V7C2 4.79075 3.79075 3 6 3H6.25V6C6.25 6.965 7.035 7.75 8 7.75C8.965 7.75 9.75 6.965 9.75 6V3H14.25V6C14.25 6.965 15.035 7.75 16 7.75C16.965 7.75 17.75 6.965 17.75 6V3ZM8 18C8.55225 18 9 17.5523 9 17V16C9 15.4477 8.55225 15 8 15H7C6.44775 15 6 15.4477 6 16V17C6 17.5523 6.44775 18 7 18H8ZM8 13C8.55225 13 9 12.5523 9 12V11C9 10.4478 8.55225 10 8 10H7C6.44775 10 6 10.4478 6 11V12C6 12.5523 6.44775 13 7 13H8ZM12.5 18C13.0523 18 13.5 17.5523 13.5 17V16C13.5 15.4477 13.0523 15 12.5 15H11.5C10.9478 15 10.5 15.4477 10.5 16V17C10.5 17.5523 10.9478 18 11.5 18H12.5ZM12.5 13C13.0523 13 13.5 12.5523 13.5 12V11C13.5 10.4478 13.0523 10 12.5 10H11.5C10.9478 10 10.5 10.4478 10.5 11V12C10.5 12.5523 10.9478 13 11.5 13H12.5ZM17 18C17.5523 18 18 17.5523 18 17V16C18 15.4477 17.5523 15 17 15H16C15.4477 15 15 15.4477 15 16V17C15 17.5523 15.4477 18 16 18H17ZM17 13C17.5523 13 18 12.5523 18 12V11C18 10.4478 17.5523 10 17 10H16C15.4477 10 15 10.4478 15 11V12C15 12.5523 15.4477 13 16 13H17Z" fill="currentColor" fillRule="evenodd" clipRule="evenodd" />
</svg>
