<svg width="24" height="24" viewBox="0 0 24 24" fill="none" xmlns="http://www.w3.org/2000/svg">
<path fill-rule="evenodd" clip-rule="evenodd" d="M8 1.25C8.41421 1.25 8.75 1.58579 8.75 2V3H15.25V2C15.25 1.58579 15.5858 1.25 16 1.25C16.4142 1.25 16.75 1.58579 16.75 2V3H18C20.2093 3 22 4.79075 22 7V18C22 20.2093 20.2093 22 18 22H6C3.79075 22 2 20.2093 2 18V7C2 4.79075 3.79075 3 6 3H7.25V2C7.25 1.58579 7.58579 1.25 8 1.25ZM15.25 4.5V6C15.25 6.41421 15.5858 6.75 16 6.75C16.4142 6.75 16.75 6.41421 16.75 6V4.5H18C19.3785 4.5 20.5 5.6215 20.5 7V18C20.5 19.3785 19.3785 20.5 18 20.5H6C4.6215 20.5 3.5 19.3785 3.5 18V7C3.5 5.6215 4.6215 4.5 6 4.5H7.25V6C7.25 6.41421 7.58579 6.75 8 6.75C8.41421 6.75 8.75 6.41421 8.75 6V4.5H15.25ZM12.287 8.80709C12.5673 8.92318 12.75 9.19665 12.75 9.5V16.75H13.5C13.9142 16.75 14.25 17.0858 14.25 17.5C14.25 17.9142 13.9142 18.25 13.5 18.25H10.5C10.0858 18.25 9.75 17.9142 9.75 17.5C9.75 17.0858 10.0858 16.75 10.5 16.75H11.25V11.3107L10.5303 12.0303C10.2374 12.3232 9.76256 12.3232 9.46967 12.0303C9.17678 11.7374 9.17678 11.2626 9.46967 10.9697L11.4697 8.96967C11.6842 8.75517 12.0068 8.69101 12.287 8.80709Z" fill="black"/>
</svg>
