<?xml version="1.0" encoding="UTF-8"?>
<svg xmlns:svg="http://www.w3.org/2000/svg" viewBox="0 0 24 24" fill="none">
<svg:path d="M8.75 2C8.75 1.58579 8.41421 1.25 8 1.25C7.58579 1.25 7.25 1.58579 7.25 2V6C7.25 6.41421 7.58579 6.75 8 6.75C8.41421 6.75 8.75 6.41421 8.75 6V2ZM16.75 2C16.75 1.58579 16.4142 1.25 16 1.25C15.5858 1.25 15.25 1.58579 15.25 2V6C15.25 6.41421 15.5858 6.75 16 6.75C16.4142 6.75 16.75 6.41421 16.75 6V2ZM11.09 20.9197C10.6985 19.9942 10.5 19.0117 10.5 18C10.5 16.9883 10.6985 16.0058 11.09 15.0803C11.4677 14.187 12.0085 13.385 12.6968 12.6968C13.385 12.0085 14.187 11.468 15.0803 11.09C16.0058 10.6985 16.9883 10.5 18 10.5C19.0117 10.5 19.9942 10.6985 20.9197 11.09C21.2968 11.2495 21.6572 11.4383 22 11.6545V7C22 4.79075 20.2093 3 18 3H17.75V6C17.75 6.965 16.965 7.75 16 7.75C15.035 7.75 14.25 6.965 14.25 6V3H9.75V6C9.75 6.965 8.965 7.75 8 7.75C7.035 7.75 6.25 6.965 6.25 6V3H6C3.79075 3 2 4.79075 2 7V18C2 20.2093 3.79075 22 6 22H11.6545C11.4383 21.6572 11.2495 21.2968 11.09 20.9197ZM12 18C12 14.6863 14.6863 12 18 12C21.3137 12 24 14.6863 24 18C24 21.3137 21.3137 24 18 24C14.6863 24 12 21.3137 12 18ZM20 20.5C20.128 20.5 20.2558 20.4512 20.3535 20.3535H20.3538C20.549 20.1583 20.549 19.8417 20.3538 19.6465L18.793 18.0858C18.604 17.8968 18.5 17.6455 18.5 17.3785V14.9997C18.5 14.7235 18.2762 14.4997 18 14.4997C17.7238 14.4997 17.5 14.7235 17.5 14.9997V17.3785C17.5 17.9128 17.708 18.415 18.0858 18.7928L19.6465 20.3535C19.744 20.4512 19.872 20.5 20 20.5Z" fill="currentColor" fillRule="evenodd" clipRule="evenodd" />
</svg>
