<?xml version="1.0" encoding="UTF-8"?>
<svg xmlns:svg="http://www.w3.org/2000/svg" viewBox="0 0 24 24" fill="none">
<svg:path d="M8 1.25C8.41421 1.25 8.75 1.58579 8.75 2V3H15.25V2C15.25 1.58579 15.5858 1.25 16 1.25C16.4142 1.25 16.75 1.58579 16.75 2V3H18C20.2093 3 22 4.79075 22 7V18C22 20.2093 20.2093 22 18 22H6C3.79075 22 2 20.2093 2 18V7C2 4.79075 3.79075 3 6 3H7.25V2C7.25 1.58579 7.58579 1.25 8 1.25ZM15.25 4.5V6C15.25 6.41421 15.5858 6.75 16 6.75C16.4142 6.75 16.75 6.41421 16.75 6V4.5H18C19.3785 4.5 20.5 5.6215 20.5 7V18C20.5 19.3785 19.3785 20.5 18 20.5H6C4.6215 20.5 3.5 19.3785 3.5 18V7C3.5 5.6215 4.6215 4.5 6 4.5H7.25V6C7.25 6.41421 7.58579 6.75 8 6.75C8.41421 6.75 8.75 6.41421 8.75 6V4.5H15.25ZM8 9.5H7C6.44775 9.5 6 9.94775 6 10.5V11.5C6 12.0523 6.44775 12.5 7 12.5H8C8.55225 12.5 9 12.0523 9 11.5V10.5C9 9.94775 8.55225 9.5 8 9.5ZM11.5 9.5H12.5C13.0523 9.5 13.5 9.94775 13.5 10.5V11.5C13.5 12.0523 13.0523 12.5 12.5 12.5H11.5C10.9478 12.5 10.5 12.0523 10.5 11.5V10.5C10.5 9.94775 10.9478 9.5 11.5 9.5ZM17 9.5H16C15.4477 9.5 15 9.94775 15 10.5V11.5C15 12.0523 15.4477 12.5 16 12.5H17C17.5523 12.5 18 12.0523 18 11.5V10.5C18 9.94775 17.5523 9.5 17 9.5ZM7 14.5H8C8.55225 14.5 9 14.9477 9 15.5V16.5C9 17.0523 8.55225 17.5 8 17.5H7C6.44775 17.5 6 17.0523 6 16.5V15.5C6 14.9477 6.44775 14.5 7 14.5ZM12.5 14.5H11.5C10.9478 14.5 10.5 14.9477 10.5 15.5V16.5C10.5 17.0523 10.9478 17.5 11.5 17.5H12.5C13.0523 17.5 13.5 17.0523 13.5 16.5V15.5C13.5 14.9477 13.0523 14.5 12.5 14.5ZM16 14.5H17C17.5523 14.5 18 14.9477 18 15.5V16.5C18 17.0523 17.5523 17.5 17 17.5H16C15.4477 17.5 15 17.0523 15 16.5V15.5C15 14.9477 15.4477 14.5 16 14.5Z" fill="currentColor" fillRule="evenodd" clipRule="evenodd" />
</svg>
