<?xml version="1.0" encoding="UTF-8"?>
<svg xmlns:svg="http://www.w3.org/2000/svg" viewBox="0 0 24 24" fill="none">
<svg:path d="M8.75 2C8.75 1.58579 8.41421 1.25 8 1.25C7.58579 1.25 7.25 1.58579 7.25 2V3H6C3.79075 3 2 4.79075 2 7V18C2 20.2093 3.79075 22 6 22H11.5835C11.9453 22 12.254 21.7383 12.3128 21.3813C12.3133 21.3779 12.3139 21.3745 12.3144 21.3712C12.315 21.3673 12.3156 21.3635 12.3162 21.3598C12.3907 20.9095 12.0432 20.5 11.587 20.5H6C4.61925 20.5 3.5 19.3807 3.5 18V7C3.5 5.61925 4.61925 4.5 6 4.5H7.25V6C7.25 6.41421 7.58579 6.75 8 6.75C8.41421 6.75 8.75 6.41421 8.75 6V4.5H15.25V6C15.25 6.41421 15.5858 6.75 16 6.75C16.4142 6.75 16.75 6.41421 16.75 6V4.5H18C19.3807 4.5 20.5 5.61925 20.5 7V11.8012C20.5 11.9718 20.5585 12.137 20.666 12.2692C20.668 12.2717 20.67 12.2742 20.672 12.2767C20.6749 12.2803 20.6778 12.2838 20.6807 12.2875C21.1218 12.8303 22 12.518 22 11.8188V7C22 4.79075 20.2093 3 18 3H16.75V2C16.75 1.58579 16.4142 1.25 16 1.25C15.5858 1.25 15.25 1.58579 15.25 2V3H8.75V2ZM23.5397 18.0846C23.9594 17.6771 24.1059 17.0804 23.9219 16.5276C23.7391 15.9786 23.2669 15.5856 22.6892 15.5021L20.5522 15.1928C20.4582 15.1793 20.3757 15.1181 20.3317 15.0296L19.3747 13.0983C19.1155 12.575 18.5887 12.25 18 12.25C17.4113 12.25 16.8845 12.575 16.6253 13.0983L15.6683 15.0296C15.6243 15.1183 15.542 15.1793 15.4478 15.1928L13.3108 15.5021C12.7331 15.5856 12.2609 15.9786 12.0781 16.5276C11.8941 17.0806 12.0406 17.6771 12.4603 18.0846L14.0023 19.5814C14.0763 19.6534 14.1101 19.7584 14.0921 19.8627L13.7278 21.978C13.6513 22.4217 13.7756 22.8717 14.0686 23.2127C14.3618 23.5542 14.7878 23.75 15.2373 23.75C15.4843 23.75 15.7318 23.6888 15.9533 23.5727L17.8695 22.5692C17.9105 22.5477 17.9545 22.537 18.0003 22.537C18.046 22.537 18.09 22.548 18.131 22.5692L20.0472 23.5725C20.2687 23.6885 20.5162 23.7498 20.7632 23.7498C21.2127 23.7498 21.6384 23.554 21.9319 23.2125C22.2249 22.8715 22.3489 22.4215 22.2727 21.9777L21.9084 19.8624C21.8904 19.7584 21.9239 19.6532 21.9982 19.5812L23.5402 18.0844L23.5397 18.0846Z" fill="currentColor" fillRule="evenodd" clipRule="evenodd" />
</svg>
