<?xml version="1.0" encoding="UTF-8"?>
<svg xmlns:svg="http://www.w3.org/2000/svg" viewBox="0 0 24 24" fill="none">
<svg:path d="M8.75 2C8.75 1.58579 8.41421 1.25 8 1.25C7.58579 1.25 7.25 1.58579 7.25 2V6C7.25 6.41421 7.58579 6.75 8 6.75C8.41421 6.75 8.75 6.41421 8.75 6V2ZM24 16V15.5C24 14.3955 23.1045 13.5 22 13.5H14C12.8955 13.5 12 14.3955 12 15.5V16H24ZM12 17.5V20.5C12 21.6045 12.8955 22.5 14 22.5H22C23.1045 22.5 24 21.6045 24 20.5V17.5H12ZM16 1.25C16.4142 1.25 16.75 1.58579 16.75 2V6C16.75 6.41421 16.4142 6.75 16 6.75C15.5858 6.75 15.25 6.41421 15.25 6V2C15.25 1.58579 15.5858 1.25 16 1.25ZM10.5 20.5C10.5 20.9717 10.5927 21.4303 10.7758 21.8628C10.7955 21.909 10.8158 21.9548 10.8372 22H6C3.79075 22 2 20.2092 2 18V7C2 4.79075 3.79075 3 6 3H6.25V6C6.25 6.965 7.035 7.75 8 7.75C8.965 7.75 9.75 6.965 9.75 6V3H14.25V6C14.25 6.965 15.035 7.75 16 7.75C16.965 7.75 17.75 6.965 17.75 6V3H18C20.2092 3 22 4.79075 22 7V12H14C13.5283 12 13.0697 12.0927 12.6372 12.2758C12.2203 12.4523 11.8463 12.7043 11.5253 13.0253C11.2043 13.3463 10.952 13.7203 10.7758 14.1372C10.5927 14.5697 10.5 15.0283 10.5 15.5V20.5Z" fill="currentColor" fillRule="evenodd" clipRule="evenodd" />
</svg>
