<?xml version="1.0" encoding="UTF-8"?>
<svg xmlns:svg="http://www.w3.org/2000/svg" viewBox="0 0 24 24" fill="none">
<svg:path d="M8 1.25C8.41421 1.25 8.75 1.58579 8.75 2V3H15.25V2C15.25 1.58579 15.5858 1.25 16 1.25C16.4142 1.25 16.75 1.58579 16.75 2V3H18C20.2093 3 22 4.79075 22 7V11.25C22 11.6643 21.6643 12 21.25 12C20.8358 12 20.5 11.6643 20.5 11.25V7C20.5 5.61925 19.3807 4.5 18 4.5H16.75V6C16.75 6.41421 16.4142 6.75 16 6.75C15.5858 6.75 15.25 6.41421 15.25 6V4.5H8.75V6C8.75 6.41421 8.41421 6.75 8 6.75C7.58579 6.75 7.25 6.41421 7.25 6V4.5H6C4.61925 4.5 3.5 5.61925 3.5 7V18C3.5 19.3807 4.61925 20.5 6 20.5H9.75C10.1643 20.5 10.5 20.8358 10.5 21.25C10.5 21.6643 10.1643 22 9.75 22H6C3.79075 22 2 20.2093 2 18V7C2 4.79075 3.79075 3 6 3H7.25V2C7.25 1.58579 7.58579 1.25 8 1.25ZM24 15.5V16H12V15.5C12 14.3955 12.8955 13.5 14 13.5H22C23.1045 13.5 24 14.3955 24 15.5ZM12 17.5V20.5C12 21.6045 12.8955 22.5 14 22.5H22C23.1045 22.5 24 21.6045 24 20.5V17.5H12Z" fill="currentColor" fillRule="evenodd" clipRule="evenodd" />
</svg>
