<?xml version="1.0" encoding="UTF-8"?>
<svg xmlns:svg="http://www.w3.org/2000/svg" viewBox="0 0 24 24" fill="none">
<svg:path d="M8 1.25C8.41421 1.25 8.75 1.58579 8.75 2V6C8.75 6.41421 8.41421 6.75 8 6.75C7.58579 6.75 7.25 6.41421 7.25 6V2C7.25 1.58579 7.58579 1.25 8 1.25ZM16 1.25C16.4142 1.25 16.75 1.58579 16.75 2V6C16.75 6.41421 16.4142 6.75 16 6.75C15.5858 6.75 15.25 6.41421 15.25 6V2C15.25 1.58579 15.5858 1.25 16 1.25ZM17.75 3H18C20.2093 3 22 4.79075 22 7V18C22 20.2093 20.2093 22 18 22H6C3.79075 22 2 20.2093 2 18V7C2 4.79075 3.79075 3 6 3H6.25V6C6.25 6.965 7.035 7.75 8 7.75C8.965 7.75 9.75 6.965 9.75 6V3H14.25V6C14.25 6.965 15.035 7.75 16 7.75C16.965 7.75 17.75 6.965 17.75 6V3ZM10.5 19H13.5L13.4997 19.0003C13.914 19.0003 14.2497 18.6645 14.2497 18.2503C14.2497 17.836 13.914 17.5003 13.4997 17.5003H12.7497V10.2503C12.7497 9.94675 12.567 9.67325 12.2868 9.55725C12.0065 9.441 11.684 9.50525 11.4695 9.71975L9.4695 11.7198C9.1765 12.0128 9.1765 12.4875 9.4695 12.7805C9.7625 13.0735 10.2375 13.0735 10.5302 12.7805L11.25 12.0607V17.5H10.5C10.0857 17.5 9.75 17.8358 9.75 18.25C9.75 18.6643 10.0857 19 10.5 19Z" fill="currentColor" fillRule="evenodd" clipRule="evenodd" />
</svg>
