<?xml version="1.0" encoding="UTF-8"?>
<svg xmlns:svg="http://www.w3.org/2000/svg" viewBox="0 0 24 24" fill="none">
<svg:path d="M8 1.25C8.41421 1.25 8.75 1.58579 8.75 2V3H15.25V2C15.25 1.58579 15.5858 1.25 16 1.25C16.4142 1.25 16.75 1.58579 16.75 2V3H18C20.2092 3 22 4.79075 22 7V18C22 20.2092 20.2092 22 18 22H6C3.79075 22 2 20.2092 2 18V7C2 4.79075 3.79075 3 6 3H7.25V2C7.25 1.58579 7.58579 1.25 8 1.25ZM15.25 4.5V6C15.25 6.41421 15.5858 6.75 16 6.75C16.4142 6.75 16.75 6.41421 16.75 6V4.5H18C19.3785 4.5 20.5 5.6215 20.5 7V18C20.5 19.3785 19.3785 20.5 18 20.5H6C4.6215 20.5 3.5 19.3785 3.5 18V7C3.5 5.6215 4.6215 4.5 6 4.5H7.25V6C7.25 6.41421 7.58579 6.75 8 6.75C8.41421 6.75 8.75 6.41421 8.75 6V4.5H15.25Z" fill="currentColor" fillRule="evenodd" clipRule="evenodd" />
</svg>
