<?xml version="1.0" encoding="UTF-8"?>
<svg xmlns:svg="http://www.w3.org/2000/svg" viewBox="0 0 24 24" fill="none">
<svg:g clipPath="url(#clip0_1_258)">
<svg:path d="M22.4697 0.469748C22.7627 0.176751 23.2375 0.176751 23.5305 0.469748H23.5302C23.8233 0.762745 23.8233 1.23749 23.5302 1.53049L20.8582 4.20246C21.5645 4.9237 22 5.91094 22 7.00018V18.0001C22 20.2093 20.2092 22 17.9999 22H5.99981C5.1663 22 4.39279 21.7448 3.75204 21.3085L1.53026 23.5303C1.38401 23.6767 1.19176 23.75 1.00001 23.75C0.808256 23.75 0.616254 23.6767 0.469752 23.5303C0.176749 23.2373 0.176749 22.7625 0.469752 22.4695L2.69128 20.248C2.69103 20.2478 2.69103 20.2475 2.69103 20.2475L12.0234 10.9159L22.4697 0.469748ZM8.75 6C8.75 6.41425 8.41425 6.75 8 6.75C7.58575 6.75 7.25 6.41425 7.25 6V2C7.25 1.58575 7.58575 1.25 8 1.25C8.41425 1.25 8.75 1.58575 8.75 2V6ZM16.75 2C16.75 1.58575 16.4143 1.25 16 1.25C15.5858 1.25 15.25 1.58575 15.25 2V5.56825L16.75 4.06825V2ZM14.25 3V6.56825L2.07 18.7473C2.02425 18.5053 2 18.2555 2 18V7C2 4.79075 3.79075 3 6 3H6.25V6C6.25 6.965 7.035 7.75 8 7.75C8.965 7.75 9.75 6.965 9.75 6V3H14.25Z" fill="currentColor" fillRule="evenodd" clipRule="evenodd" />
</svg:g>
<svg:defs>
<svg:clipPath id="clip0_1_258">
<svg:rect width="24" height="24" fill="currentColor" />
</svg:clipPath>
</svg:defs>
</svg>
