<svg width="24" height="24" viewBox="0 0 24 24" fill="none" xmlns="http://www.w3.org/2000/svg">
<path fill-rule="evenodd" clip-rule="evenodd" d="M8 1.25C8.41421 1.25 8.75 1.58579 8.75 2V6C8.75 6.41421 8.41421 6.75 8 6.75C7.58579 6.75 7.25 6.41421 7.25 6V2C7.25 1.58579 7.58579 1.25 8 1.25ZM16 1.25C16.4142 1.25 16.75 1.58579 16.75 2V6C16.75 6.41421 16.4142 6.75 16 6.75C15.5858 6.75 15.25 6.41421 15.25 6V2C15.25 1.58579 15.5858 1.25 16 1.25ZM17.75 3H18C20.2092 3 22 4.79075 22 7V18C22 20.2092 20.2092 22 18 22H6C3.79075 22 2 20.2092 2 18V7C2 4.79075 3.79075 3 6 3H6.25V6C6.25 6.965 7.035 7.75 8 7.75C8.965 7.75 9.75 6.965 9.75 6V3H14.25V6C14.25 6.965 15.035 7.75 16 7.75C16.965 7.75 17.75 6.965 17.75 6V3Z" fill="black"/>
</svg>
