<?xml version="1.0" encoding="UTF-8"?>
<svg xmlns:svg="http://www.w3.org/2000/svg" viewBox="0 0 24 24" fill="none">
<svg:path d="M8.75 2C8.75 1.58579 8.41421 1.25 8 1.25C7.58579 1.25 7.25 1.58579 7.25 2V3H6C3.79075 3 2 4.79075 2 7V18C2 20.2092 3.79075 22 6 22H9.75C10.1643 22 10.5 21.6643 10.5 21.25C10.5 20.8357 10.1643 20.5 9.75 20.5H6C4.61925 20.5 3.5 19.3807 3.5 18V7C3.5 5.61925 4.61925 4.5 6 4.5H7.25V6C7.25 6.41421 7.58579 6.75 8 6.75C8.41421 6.75 8.75 6.41421 8.75 6V4.5H15.25V6C15.25 6.41421 15.5858 6.75 16 6.75C16.4142 6.75 16.75 6.41421 16.75 6V4.5H18C19.3807 4.5 20.5 5.61925 20.5 7V10.25C20.5 10.6643 20.8357 11 21.25 11C21.6643 11 22 10.6643 22 10.25V7C22 4.79075 20.2092 3 18 3H16.75V2C16.75 1.58579 16.4142 1.25 16 1.25C15.5858 1.25 15.25 1.58579 15.25 2V3H8.75V2ZM12 18C12 14.6863 14.6863 12 18 12C21.3137 12 24 14.6863 24 18C24 21.3137 21.3137 24 18 24C14.6863 24 12 21.3137 12 18ZM20 20.5C20.128 20.5 20.2558 20.4512 20.3535 20.3535H20.3538C20.549 20.1583 20.549 19.8417 20.3538 19.6465L18.793 18.0858C18.604 17.8968 18.5 17.6455 18.5 17.3785V14.9998C18.5 14.7235 18.2762 14.4998 18 14.4998C17.7238 14.4998 17.5 14.7235 17.5 14.9998V17.3785C17.5 17.9127 17.708 18.415 18.0858 18.7928L19.6465 20.3535C19.744 20.4512 19.872 20.5 20 20.5Z" fill="currentColor" fillRule="evenodd" clipRule="evenodd" />
</svg>
