<?xml version="1.0" encoding="UTF-8"?>
<svg xmlns:svg="http://www.w3.org/2000/svg" viewBox="0 0 24 24" fill="none">
<svg:path d="M8 1.25C8.41421 1.25 8.75 1.58579 8.75 2V6C8.75 6.41421 8.41421 6.75 8 6.75C7.58579 6.75 7.25 6.41421 7.25 6V2C7.25 1.58579 7.58579 1.25 8 1.25ZM16 1.25C16.4142 1.25 16.75 1.58579 16.75 2V6C16.75 6.41421 16.4142 6.75 16 6.75C15.5858 6.75 15.25 6.41421 15.25 6V2C15.25 1.58579 15.5858 1.25 16 1.25ZM17.75 3H18C20.2092 3 22 4.79075 22 7V18C22 20.2092 20.2092 22 18 22H6C3.79075 22 2 20.2092 2 18V7C2 4.79075 3.79075 3 6 3H6.25V6C6.25 6.965 7.035 7.75 8 7.75C8.965 7.75 9.75 6.965 9.75 6V3H14.25V6C14.25 6.965 15.035 7.75 16 7.75C16.965 7.75 17.75 6.965 17.75 6V3ZM11.475 16.25C11.475 15.5193 11.1883 14.8298 10.6678 14.3085C10.6478 14.2888 10.6278 14.2687 10.6075 14.2495C10.6278 14.2302 10.648 14.2108 10.6678 14.191C11.1883 13.6698 11.475 12.9803 11.475 12.2495C11.475 11.5188 11.1883 10.8293 10.6678 10.308C10.147 9.78675 9.45775 9.4995 8.72725 9.4995C7.75575 9.4995 6.84575 10.0253 6.35225 10.8717C6.1435 11.2295 6.2645 11.6887 6.62225 11.8975C6.98 12.1063 7.43925 11.9853 7.648 11.6275C7.874 11.2403 8.2875 10.9998 8.72725 10.9998C9.05675 10.9998 9.369 11.1305 9.6065 11.3683C9.844 11.6063 9.975 11.9193 9.975 12.2498C9.975 12.5803 9.84425 12.8932 9.6065 13.1313C9.36925 13.3688 9.05675 13.4998 8.72725 13.4998C8.313 13.4998 7.97725 13.8355 7.97725 14.2498C7.97725 14.664 8.313 14.9998 8.72725 14.9998C9.05675 14.9998 9.369 15.1305 9.6065 15.3682C9.844 15.6063 9.975 15.9193 9.975 16.2498C9.975 16.5802 9.84425 16.8932 9.6065 17.1313C9.36925 17.3688 9.05675 17.4998 8.72725 17.4998C8.28725 17.4998 7.87375 17.2593 7.648 16.872C7.43925 16.5143 6.98 16.3933 6.62225 16.602C6.2645 16.8107 6.1435 17.27 6.35225 17.6278C6.846 18.4743 7.756 19 8.72725 19C9.45775 19 10.147 18.7127 10.6678 18.1915C11.1883 17.6703 11.475 16.9807 11.475 16.25ZM13.75 18.25C13.75 18.6643 14.0857 19 14.5 19H17.5C17.9143 19 18.2498 18.6645 18.2498 18.2502C18.2498 17.836 17.914 17.5002 17.4998 17.5002H16.7498V10.2503C16.7498 9.94675 16.567 9.67325 16.2867 9.55725C16.0065 9.441 15.684 9.50525 15.4695 9.71975L13.4695 11.7198C13.1765 12.0128 13.1765 12.4875 13.4695 12.7805C13.7625 13.0735 14.2375 13.0735 14.5303 12.7805L15.25 12.0608V17.5H14.5C14.0857 17.5 13.75 17.8357 13.75 18.25Z" fill="currentColor" fillRule="evenodd" clipRule="evenodd" />
</svg>
