<?xml version="1.0" encoding="UTF-8"?>
<svg xmlns:svg="http://www.w3.org/2000/svg" viewBox="0 0 24 24" fill="none">
<svg:path d="M6.24111 16.6982C4.99378 15.3327 3.99847 13.7808 3.27725 12.0755C2.42975 10.0715 2 7.9435 2 5.75C2 4.74825 2.39002 3.8065 3.09827 3.09825C3.80652 2.39 4.74826 2 5.74976 2H6.11775C7.749 2 9.18275 3.04275 9.68525 4.59475L10.1988 6.1805C10.3948 6.78625 10.4335 7.4365 10.3103 8.06125C10.187 8.686 9.90452 9.273 9.49302 9.759L8.2855 11.1853C8.68905 11.9145 9.16833 12.5963 9.71716 13.2222L19.4697 3.46967C19.7626 3.17678 20.2374 3.17678 20.5303 3.46967C20.8232 3.76256 20.8232 4.23744 20.5303 4.53033L2.53033 22.5303C2.23744 22.8232 1.76256 22.8232 1.46967 22.5303C1.17678 22.2374 1.17678 21.7626 1.46967 21.4697L6.24111 16.6982ZM8.65439 14.285C7.88514 13.4208 7.23449 12.4607 6.71526 11.4222C6.58101 11.154 6.61975 10.8313 6.81375 10.6023L8.34827 8.79C8.85502 8.19175 9.01325 7.389 8.77175 6.643L8.25825 5.05725C7.95675 4.12625 7.0965 3.5005 6.11775 3.5005H5.74976C5.14876 3.5005 4.58376 3.7345 4.15876 4.1595C3.73376 4.5845 3.49976 5.1495 3.49976 5.7505C3.49976 7.74225 3.8895 9.67375 4.6585 11.4918C5.30397 13.0182 6.19187 14.4095 7.3025 15.6368L8.65439 14.285ZM19.4057 14.3146L17.8352 13.8061C17.2244 13.6083 16.5689 13.5708 15.9394 13.6976C15.3102 13.8243 14.7202 14.1126 14.2337 14.5316L12.8347 15.7356C12.7089 15.6661 12.5847 15.5941 12.4619 15.5201C12.1682 15.3428 11.7909 15.3916 11.5482 15.6341C11.2042 15.9781 11.2732 16.5543 11.6894 16.8056C11.9862 16.9846 12.2902 17.1523 12.6014 17.3078C12.8719 17.4431 13.1969 17.4026 13.4262 17.2056L15.2119 15.6686C15.8029 15.1598 16.6309 14.9931 17.3727 15.2333L18.9432 15.7418C19.8744 16.0433 20.4999 16.9036 20.4999 17.8823V18.2503C20.4999 19.4876 19.5009 20.4993 18.2634 20.5003C16.2672 20.5021 14.3309 20.1121 12.5087 19.3416C11.6377 18.9731 10.8107 18.5258 10.0329 18.0031C9.73568 17.8033 9.33868 17.8428 9.08568 18.0958C8.75168 18.4298 8.80594 18.9858 9.19794 19.2491C10.0544 19.8246 10.9649 20.3171 11.9244 20.7228C13.9342 21.5728 16.0687 22.0026 18.2689 22.0001C20.3327 21.9978 21.9999 20.3138 21.9999 18.2501V17.8821C21.9999 16.2508 20.9572 14.8171 19.4052 14.3146H19.4057Z" fill="currentColor" fillRule="evenodd" clipRule="evenodd" />
</svg>
