<?xml version="1.0" encoding="UTF-8"?>
<svg xmlns:svg="http://www.w3.org/2000/svg" viewBox="0 0 24 24" fill="none">
<svg:path d="M2 5.75C2 3.67879 3.67879 2 5.75 2H6.118C7.74396 2 9.18459 3.04783 9.68552 4.59469L10.199 6.18035C10.5806 7.35818 10.355 8.64394 9.60583 9.61948C9.56958 9.66668 9.5321 9.71316 9.4934 9.75887L9.49337 9.7589L8.28572 11.1851C9.34499 13.0984 10.9214 14.6754 12.8342 15.7353L14.2333 14.5313L14.2333 14.5312C15.2251 13.6779 16.59 13.4028 17.8348 13.806L17.8348 13.806L19.4052 14.3144L19.4053 14.3145C20.9523 14.8152 22 16.2562 22 17.882V18.25C22 20.321 20.321 22 18.25 22C9.27529 22 2 14.7247 2 5.75ZM5.75 3.5C4.50721 3.5 3.5 4.50721 3.5 5.75C3.5 6.00937 3.50669 6.26718 3.51992 6.52326C3.92208 14.3101 10.3631 20.5 18.25 20.5C19.4925 20.5 20.5 19.4925 20.5 18.25V17.882C20.5 16.9064 19.8713 16.0419 18.9433 15.7416L18.9432 15.7415L17.3727 15.233L17.3727 15.233C16.626 14.9912 15.8069 15.1561 15.2117 15.6682L15.2117 15.6683L13.4257 17.2052C13.1966 17.4024 12.8715 17.4428 12.6011 17.3076C10.0542 16.0343 7.98899 13.969 6.71567 11.4221C6.6636 11.318 6.6365 11.2032 6.6365 11.0868V11.0865C6.6365 10.909 6.69944 10.7373 6.81413 10.6018L8.23602 8.92259L8.3486 8.78963L8.34863 8.7896C8.85173 8.19534 9.01196 7.38331 8.77201 6.64265L8.77198 6.64255L8.25848 5.05681C7.95791 4.12867 7.09353 3.5 6.118 3.5H5.75ZM14.25 3C14.25 2.58579 14.5858 2.25 15 2.25H19.5C20.7427 2.25 21.75 3.25729 21.75 4.5V9C21.75 9.41421 21.4142 9.75 21 9.75C20.5858 9.75 20.25 9.41421 20.25 9V4.81066L14.5303 10.5303C14.2374 10.8232 13.7626 10.8232 13.4697 10.5303C13.1768 10.2374 13.1768 9.76256 13.4697 9.46967L19.1893 3.75H15C14.5858 3.75 14.25 3.41421 14.25 3Z" fill="currentColor" fillRule="evenodd" clipRule="evenodd" />
</svg>
