<?xml version="1.0" encoding="UTF-8"?>
<svg xmlns:svg="http://www.w3.org/2000/svg" viewBox="0 0 24 24" fill="none">
<svg:path d="M2 5.75C2 3.67879 3.67879 2 5.75 2H6.11801C7.74397 2 9.18459 3.04784 9.68552 4.59469L10.199 6.18035L10.199 6.18045C10.599 7.41524 10.3318 8.76866 9.4934 9.75887L9.49337 9.7589L8.28572 11.1851C9.34499 13.0984 10.9214 14.6754 12.8341 15.7353L14.2333 14.5313L14.2333 14.5312C15.2251 13.6779 16.59 13.4028 17.8348 13.806L19.4052 14.3144C20.9523 14.8151 22 16.2561 22 17.882V18.25C22 20.321 20.321 22 18.25 22C9.27529 22 2 14.7247 2 5.75ZM5.75 3.5C4.50721 3.5 3.5 4.50721 3.5 5.75C3.5 13.8963 10.1037 20.5 18.25 20.5C19.4925 20.5 20.5 19.4925 20.5 18.25V17.882C20.5 16.9064 19.8713 16.0419 18.9433 15.7416L18.9432 15.7415L17.3727 15.233L17.3727 15.233C16.626 14.9912 15.8069 15.1561 15.2117 15.6682L15.2117 15.6683L13.4257 17.2052C13.1966 17.4024 12.8715 17.4428 12.6011 17.3076C10.0542 16.0343 7.98899 13.9691 6.71566 11.4221C6.6636 11.318 6.6365 11.2032 6.6365 11.0868V11.0865C6.6365 10.909 6.69944 10.7373 6.81412 10.6018L8.34859 8.78963L8.34862 8.7896C8.85173 8.19534 9.01196 7.38331 8.77201 6.64265L8.77198 6.64255L8.25848 5.05681C7.9579 4.12867 7.09354 3.5 6.11801 3.5H5.75Z" fill="currentColor" fillRule="evenodd" clipRule="evenodd" />
</svg>
