<?xml version="1.0" encoding="UTF-8"?>
<svg xmlns:svg="http://www.w3.org/2000/svg" viewBox="0 0 24 24" fill="none">
<svg:path d="M2 5.75C2 3.67879 3.67879 2 5.75 2H6.11801C7.74397 2 9.18459 3.04784 9.68552 4.59469L10.199 6.18035L10.199 6.18045C10.599 7.41524 10.3318 8.76866 9.4934 9.75887L9.49337 9.7589L8.28572 11.1851C9.34499 13.0984 10.9214 14.6754 12.8341 15.7353L14.2333 14.5313L14.2333 14.5312C15.2251 13.6779 16.59 13.4028 17.8348 13.806L19.4052 14.3144C20.9523 14.8151 22 16.2561 22 17.882V18.25C22 20.321 20.321 22 18.25 22C9.27529 22 2 14.7247 2 5.75Z" fill="currentColor" fillRule="evenodd" clipRule="evenodd" />
</svg>
