<?xml version="1.0" encoding="UTF-8"?>
<svg xmlns:svg="http://www.w3.org/2000/svg" viewBox="0 0 24 24" fill="none">
<svg:path d="M8.2855 11.1853C8.68905 11.9145 9.16831 12.5962 9.71712 13.2221L19.4695 3.46975C19.7623 3.17675 20.2373 3.17675 20.5303 3.46975C20.8232 3.76275 20.8232 4.2375 20.5303 4.5305L2.53023 22.5303C2.38374 22.6768 2.19174 22.75 1.99999 22.75C1.80799 22.75 1.616 22.6768 1.46975 22.5303C1.17675 22.2373 1.17675 21.7625 1.46975 21.4695L6.24107 16.6982C4.99376 15.3326 3.99847 13.7807 3.27725 12.0755C2.42975 10.0715 2 7.9435 2 5.75C2 4.74825 2.39 3.8065 3.09825 3.09825C3.8065 2.39 4.74825 2 5.74975 2H6.11775C7.749 2 9.18275 3.04275 9.68525 4.59475L10.1987 6.1805C10.3947 6.78625 10.4335 7.4365 10.3102 8.06125C10.187 8.686 9.9045 9.273 9.493 9.759L8.2855 11.1853ZM17.8347 13.806L19.4052 14.3145C20.9572 14.817 22 16.2507 22 17.882V18.25C22 20.3177 20.3177 22 18.25 22C16.0565 22 13.9282 21.5702 11.9245 20.7227C10.6842 20.1982 9.525 19.5282 8.4595 18.722L11.9732 15.2085C12.2522 15.3962 12.5392 15.572 12.8342 15.7355L14.2332 14.5315C14.7197 14.1125 15.3097 13.8242 15.939 13.6975C16.5685 13.5707 17.224 13.6082 17.8347 13.806Z" fill="currentColor" fillRule="evenodd" clipRule="evenodd" />
</svg>
