<?xml version="1.0" encoding="UTF-8"?>
<svg xmlns:svg="http://www.w3.org/2000/svg" viewBox="0 0 24 24" fill="none">
<svg:path d="M2 5.75C2 3.67879 3.67879 2 5.75 2H6.11799C7.74395 2 9.18459 3.04783 9.68552 4.59469L10.199 6.18035L10.199 6.18045C10.599 7.41524 10.3318 8.76866 9.4934 9.75887L9.49337 9.7589L8.28572 11.1851C9.34499 13.0984 10.9214 14.6754 12.8342 15.7353L14.2333 14.5312C15.2251 13.6779 16.59 13.4028 17.8348 13.806L19.4052 14.3144L19.4053 14.3145C20.9523 14.8152 22 16.2562 22 17.882V18.25C22 20.321 20.321 22 18.25 22C9.27529 22 2 14.7247 2 5.75ZM21.5303 2.46967C21.8232 2.76256 21.8232 3.23744 21.5303 3.53033L15.8107 9.25H20C20.4142 9.25 20.75 9.58579 20.75 10C20.75 10.4142 20.4142 10.75 20 10.75H15.5C14.2573 10.75 13.25 9.74271 13.25 8.5V4C13.25 3.58579 13.5858 3.25 14 3.25C14.4142 3.25 14.75 3.58579 14.75 4V8.18934L20.4697 2.46967C20.7626 2.17678 21.2374 2.17678 21.5303 2.46967Z" fill="currentColor" fillRule="evenodd" clipRule="evenodd" />
</svg>
