<?xml version="1.0" encoding="UTF-8"?>
<svg xmlns:svg="http://www.w3.org/2000/svg" viewBox="0 0 24 24" fill="none">
<svg:path d="M14.6427 5.168C14.364 4.74975 13.8975 4.5 13.3948 4.5H10.6057C10.1032 4.5 9.6365 4.74975 9.35775 5.168L8.24825 6.832C7.97 7.24925 7.50175 7.5 7.00025 7.5H6.00025C4.62175 7.5 3.50025 8.6215 3.50025 10V17C3.50025 18.3785 4.62175 19.5 6.00025 19.5H18.0003C19.3788 19.5 20.5003 18.3785 20.5003 17V10C20.5003 8.6215 19.3788 7.5 18.0003 7.5H17.0003C16.4988 7.5 16.0305 7.24925 15.7523 6.832L14.6427 5.168ZM10.6057 3H13.3943C14.3975 3 15.334 3.5015 15.8905 4.336L17 6H18C20.2093 6 22 7.79075 22 10V17C22 19.2093 20.2093 21 18 21H6C3.79075 21 2 19.2093 2 17V10C2 7.79075 3.79075 6 6 6H7L8.1095 4.336C8.666 3.50125 9.60275 3 10.6057 3ZM14.1213 10.8787C13.5548 10.312 12.8012 10 12 10C11.1988 10 10.4455 10.3122 9.87875 10.8787C9.312 11.4453 9 12.1988 9 13C9 13.8012 9.31225 14.5545 9.87875 15.1212C10.4452 15.688 11.1988 16 12 16C12.8012 16 13.5545 15.6877 14.1213 15.1212C14.688 14.5548 15 13.8012 15 13C15 12.1988 14.6878 11.4455 14.1213 10.8787ZM7.5 13C7.5 10.5148 9.51475 8.5 12 8.5C14.4853 8.5 16.5 10.5148 16.5 13C16.5 15.4853 14.4853 17.5 12 17.5C9.51475 17.5 7.5 15.4853 7.5 13Z" fill="currentColor" fillRule="evenodd" clipRule="evenodd" />
</svg>
