<?xml version="1.0" encoding="UTF-8"?>
<svg xmlns:svg="http://www.w3.org/2000/svg" viewBox="0 0 24 24" fill="none">
<svg:path d="M10.6058 3H13.3943C14.3975 3 15.334 3.5015 15.8905 4.336L17 6H18C20.2092 6 22 7.79075 22 10V17C22 19.2092 20.2092 21 18 21H6C3.79075 21 2 19.2092 2 17V10C2 7.79075 3.79075 6 6 6H7L8.1095 4.336C8.666 3.50125 9.60275 3 10.6058 3ZM14.1213 10.8787C13.5548 10.312 12.8012 10 12 10C11.1988 10 10.4455 10.3122 9.87875 10.8787C9.312 11.4452 9 12.1988 9 13C9 13.8012 9.31225 14.5545 9.87875 15.1212C10.4452 15.688 11.1988 16 12 16C12.8012 16 13.5545 15.6877 14.1213 15.1212C14.688 14.5547 15 13.8012 15 13C15 12.1988 14.6878 11.4455 14.1213 10.8787ZM7.5 13C7.5 10.5147 9.51475 8.5 12 8.5C14.4853 8.5 16.5 10.5147 16.5 13C16.5 15.4853 14.4853 17.5 12 17.5C9.51475 17.5 7.5 15.4853 7.5 13Z" fill="currentColor" fillRule="evenodd" clipRule="evenodd" />
</svg>
