<svg width="24" height="24" viewBox="0 0 24 24" fill="none" xmlns="http://www.w3.org/2000/svg">
<path fill-rule="evenodd" clip-rule="evenodd" d="M13.4999 8.53795C13.4999 7.87028 12.6303 7.45752 12.0867 7.9882L8.87342 11.1256L8.87337 11.1257C8.37562 11.6118 8.37562 12.388 8.87337 12.8742L8.87342 12.8742L12.0867 16.0117L12.0868 16.0117C12.6301 16.5424 13.4999 16.1298 13.4999 15.4619V8.53795ZM11.039 6.91434C12.4785 5.50877 15 6.46705 15 8.53795V15.4619C15 17.5325 12.4787 18.4915 11.039 17.0855L11.0389 17.0855L7.82556 13.948C6.72481 12.873 6.72481 11.1268 7.82556 10.0519L11.039 6.91434Z" fill="black"/>
</svg>
