<svg width="24" height="24" viewBox="0 0 24 24" fill="none" xmlns="http://www.w3.org/2000/svg">
<path fill-rule="evenodd" clip-rule="evenodd" d="M11.1258 9.87337L11.1258 9.87342L7.98827 13.0868C7.45763 13.6301 7.87018 14.4999 8.53809 14.4999H15.462C16.1297 14.4999 16.5425 13.6303 16.0118 13.0867L12.8744 9.87342L12.8743 9.87337C12.3882 9.37562 11.612 9.37562 11.1258 9.87337ZM10.052 8.82556C11.127 7.72481 12.8732 7.72481 13.9481 8.82556L13.9482 8.82561L17.0857 12.039C18.4912 13.4785 17.5329 16 15.462 16H8.53809C6.46746 16 5.50846 13.4787 6.91448 12.039L6.91455 12.0389L10.052 8.82556Z" fill="black"/>
</svg>
