<?xml version="1.0" encoding="UTF-8"?>
<svg xmlns:svg="http://www.w3.org/2000/svg" viewBox="0 0 24 24" fill="none">
<svg:path d="M5.15891 1.28032C5.45179 0.987416 5.45178 0.512543 5.15888 0.219657C4.86598 -0.0732292 4.39111 -0.0732174 4.09822 0.219683L2.65897 1.65901C1.78034 2.53767 1.78034 3.96233 2.65897 4.84099L4.09822 6.28032C4.39111 6.57322 4.86598 6.57323 5.15888 6.28034C5.45178 5.98746 5.45179 5.51258 5.15891 5.21968L3.93928 4H15.4607C16.664 4 17.8265 4.4645 18.6783 5.31425C19.5308 6.16475 20.0002 7.29625 20.0002 8.5V14.25C20.0002 14.6642 20.3359 14.9999 20.7501 15C21.1643 14.9999 21.5 14.6642 21.5 14.25V8.5C21.5 5.18625 18.8137 2.5 15.5 2.5C15.5 2.5 7.80544 2.5078 3.92435 2.51493L5.15891 1.28032ZM18.8412 22.7197L20.0608 21.5H8.49992C5.18621 21.5 2.5 18.8137 2.5 15.5V9.75C2.5 9.33575 2.83575 9 3.24999 9C3.66423 9 3.99998 9.33575 3.99998 9.75V15.5C3.99998 16.7038 4.46947 17.8355 5.32196 18.6858C6.1737 19.5355 7.33618 20 8.53942 20H20.0608L18.8412 18.7803C18.5483 18.4874 18.5483 18.0125 18.8412 17.7197C19.1341 17.4268 19.609 17.4268 19.9019 17.7197L21.3411 19.159C22.2197 20.0377 22.2197 21.4623 21.3411 22.341L19.9019 23.7803C19.609 24.0732 19.1341 24.0732 18.8412 23.7803C18.5483 23.4875 18.5483 23.0126 18.8412 22.7197ZM12.7499 6.75C12.7499 6.33579 12.4141 6 11.9999 6C11.5857 6 11.2499 6.33579 11.2499 6.75V7.5215C11.2198 7.52524 11.1879 7.52964 11.1543 7.53482C10.9403 7.56785 10.6425 7.63531 10.3349 7.77774C10.0257 7.92088 9.68538 8.14991 9.42259 8.51491C9.15429 8.88756 9 9.35636 9 9.91669C9 10.901 9.39039 11.5837 10.0218 12.0276C10.5574 12.4042 11.2355 12.5781 11.7554 12.7115L11.7582 12.7123L11.8131 12.7264C12.4114 12.8802 12.8274 12.997 13.1155 13.1995C13.3278 13.3488 13.4999 13.5631 13.4999 14.0833C13.4999 14.3563 13.4292 14.5125 13.36 14.6086C13.2853 14.7124 13.1756 14.7959 13.0348 14.8611C12.8925 14.927 12.7403 14.9637 12.6168 14.9827C12.5569 14.992 12.5085 14.9963 12.4778 14.9984C12.4625 14.9994 12.452 14.9998 12.447 14.9999L12.4453 15H11.5546L11.5529 14.9999C11.5479 14.9998 11.5373 14.9994 11.5221 14.9984C11.4914 14.9963 11.4429 14.992 11.3831 14.9827C11.2596 14.9637 11.1074 14.927 10.9651 14.8611C10.8242 14.7959 10.7146 14.7124 10.6399 14.6086C10.5707 14.5125 10.5 14.3563 10.5 14.0833C10.5 13.6691 10.1642 13.3333 9.74998 13.3333C9.33578 13.3333 9 13.6691 9 14.0833C9 14.6436 9.15429 15.1124 9.42259 15.4851C9.68538 15.8501 10.0257 16.0791 10.3349 16.2223C10.6425 16.3647 10.9403 16.4322 11.1543 16.4652C11.1879 16.4704 11.2198 16.4748 11.2499 16.4785V17.25C11.2499 17.6642 11.5857 18 11.9999 18C12.4141 18 12.7499 17.6642 12.7499 17.25V16.4785C12.7801 16.4748 12.812 16.4704 12.8456 16.4652C13.0596 16.4322 13.3574 16.3647 13.665 16.2223C13.9742 16.0791 14.3145 15.8501 14.5773 15.4851C14.8456 15.1124 14.9999 14.6436 14.9999 14.0833C14.9999 13.099 14.6095 12.4163 13.9781 11.9724C13.4425 11.5958 12.7644 11.4219 12.2445 11.2885L12.1868 11.2736C11.5885 11.1198 11.1725 11.003 10.8844 10.8005C10.6721 10.6512 10.5 10.4369 10.5 9.91669C10.5 9.64369 10.5707 9.48748 10.6399 9.39136C10.7146 9.28761 10.8242 9.20413 10.9651 9.13894C11.1074 9.07302 11.2596 9.03632 11.3831 9.01727C11.4429 9.00803 11.4914 9.00365 11.5221 9.00162C11.5374 9.00061 11.5479 9.00021 11.5529 9.00005L11.5546 9H12.4499C12.78 9 12.9772 9.07492 13.0966 9.14862C13.218 9.22357 13.3028 9.32452 13.365 9.4397C13.4293 9.55892 13.4651 9.68616 13.4836 9.78914C13.4926 9.83899 13.4968 9.87871 13.4986 9.90276C13.4992 9.91085 13.4996 9.91697 13.4998 9.9209L13.4999 9.9249C13.5043 10.3353 13.8384 10.6667 14.2499 10.6667C14.6641 10.6667 14.9999 10.3309 14.9999 9.91669C14.9999 9.91669 15 9.92095 15 9.91925C15 9.91791 14.9999 9.91281 14.9997 9.89885L14.9989 9.871C14.9982 9.84924 14.9967 9.82107 14.9941 9.7874C14.989 9.7203 14.979 9.62981 14.9599 9.52341C14.9222 9.31389 14.8454 9.02445 14.6848 8.72699C14.522 8.42551 14.2693 8.10978 13.8845 7.87222C13.5675 7.67658 13.1896 7.55167 12.7499 7.51291V6.75Z" fill="currentColor" fillRule="evenodd" clipRule="evenodd" />
</svg>
