<?xml version="1.0" encoding="UTF-8"?>
<svg xmlns:svg="http://www.w3.org/2000/svg" viewBox="0 0 24 24" fill="none">
<svg:g clipPath="url(#clip0_1_1310)">
<svg:path d="M5.58569 1.70709C5.9762 1.31656 5.97619 0.68339 5.58565 0.292875C5.19512 -0.097639 4.56195 -0.0976232 4.17144 0.292911L2.73219 1.73223C1.75594 2.70853 1.75594 4.29147 2.73219 5.26777L4.17144 6.70709C4.56195 7.09762 5.19512 7.09764 5.58565 6.70712C5.97619 6.31661 5.9762 5.68345 5.58569 5.29291L4.79282 4.5H15.7108C16.8528 4.5 17.961 4.95225 18.7518 5.741C19.5568 6.54425 20.0003 7.61275 20.0003 8.75V14C20.0003 14.5522 20.4479 14.9999 21.0001 15C21.5523 14.9999 22 14.5522 22 14V8.75C22 7.0805 21.35 5.511 20.1695 4.3305C18.989 3.15 17.4195 2.5 15.7498 2.5C15.7498 2.5 12.5013 2.50375 9.2515 2.5085C7.6265 2.51075 6.0015 2.5135 4.782 2.516L4.77681 2.51601L5.58569 1.70709ZM8.2895 19.5H19.2073L18.4144 18.7071C18.0239 18.3166 18.0239 17.6834 18.4144 17.2929C18.805 16.9024 19.4381 16.9024 19.8286 17.2929L21.2679 18.7322C22.2441 19.7085 22.2441 21.2915 21.2679 22.2678L19.8286 23.7071C19.4381 24.0976 18.805 24.0976 18.4144 23.7071C18.0239 23.3166 18.0239 22.6834 18.4144 22.2929L19.2073 21.5H8.25C6.5805 21.5 5.011 20.85 3.8305 19.6695C2.65 18.489 2 16.9195 2 15.25V10C2 9.44775 2.44775 9 3 9C3.55225 9 4 9.44775 4 10V15.25C4 16.387 4.4435 17.4555 5.2485 18.2588C6.03925 19.0475 7.1475 19.5 8.2895 19.5ZM12 5.75C12.5523 5.75 13 6.19771 13 6.75V7.29188C13.3807 7.35226 13.7202 7.47694 14.0159 7.65949C14.4446 7.92415 14.7253 8.27567 14.9049 8.6082C15.0816 8.93537 15.1651 9.25184 15.2061 9.47912C15.2269 9.59494 15.2378 9.6939 15.2435 9.76817C15.2492 9.84212 15.25 9.91669 15.25 9.91669C15.25 10.469 14.8023 10.9167 14.25 10.9167C13.7028 10.9167 13.2583 10.4772 13.2501 9.93204L13.2499 9.9287L13.2494 9.92199C13.2481 9.90511 13.245 9.87386 13.2377 9.83342C13.2224 9.7482 13.1934 9.64799 13.1451 9.55849C13.0997 9.47435 13.0429 9.4092 12.9654 9.36135C12.8905 9.31517 12.74 9.25 12.45 9.25C12.3515 9.25 12.2523 9.24799 12.1529 9.24598H12.1528C11.9476 9.24184 11.7415 9.23767 11.5387 9.25108C11.5141 9.2527 11.473 9.25637 11.4213 9.26434C11.3129 9.28107 11.185 9.31264 11.0701 9.3658C10.9574 9.41801 10.8861 9.47723 10.8428 9.53744C10.8068 9.58746 10.75 9.69157 10.75 9.91669C10.75 10.3596 10.8857 10.4958 11.0282 10.596C11.2717 10.7671 11.6389 10.8746 12.2491 11.0315L12.3166 11.0488C12.8285 11.18 13.5478 11.3642 14.122 11.7679C14.8232 12.2609 15.25 13.0216 15.25 14.0833C15.25 14.6915 15.0818 15.2124 14.7803 15.6312C14.4861 16.0397 14.1074 16.293 13.7701 16.4491C13.4883 16.5796 13.2158 16.6517 13 16.6923V17.25C13 17.8023 12.5523 18.25 12 18.25C11.4477 18.25 11 17.8023 11 17.25V16.6923C10.7842 16.6517 10.5117 16.5796 10.2299 16.4491C9.89263 16.293 9.51386 16.0397 9.21971 15.6312C8.91823 15.2124 8.75 14.6915 8.75 14.0833C8.75 13.531 9.19771 13.0833 9.75 13.0833C10.3023 13.0833 10.75 13.531 10.75 14.0833C10.75 14.3084 10.8068 14.4125 10.8428 14.4626C10.8861 14.5228 10.9574 14.582 11.0701 14.6342C11.185 14.6874 11.3129 14.7189 11.4213 14.7357C11.473 14.7436 11.5141 14.7473 11.5387 14.7489L11.5512 14.7497L11.5542 14.7498L11.5586 14.75C11.6561 14.75 11.7544 14.752 11.8528 14.754L11.8529 14.754C12.0562 14.7581 12.2605 14.7622 12.4613 14.7489C12.4859 14.7473 12.527 14.7436 12.5787 14.7357C12.6871 14.7189 12.815 14.6874 12.9299 14.6342C13.0426 14.582 13.1139 14.5228 13.1572 14.4626C13.1932 14.4125 13.25 14.3084 13.25 14.0833C13.25 13.6404 13.1143 13.5042 12.9718 13.404C12.7283 13.2329 12.3611 13.1254 11.7509 12.9685L11.6873 12.9522L11.6856 12.9517L11.6844 12.9514L11.6824 12.9509C11.1706 12.8198 10.4522 12.6358 9.87801 12.2321C9.17678 11.7391 8.75 10.9784 8.75 9.91669C8.75 9.30847 8.91823 8.78757 9.21971 8.36884C9.51386 7.96029 9.89263 7.707 10.2299 7.55087C10.5117 7.42041 10.7842 7.34832 11 7.30765V6.75C11 6.19771 11.4477 5.75 12 5.75Z" fill="currentColor" fillRule="evenodd" clipRule="evenodd" />
</svg:g>
<svg:defs>
<svg:clipPath id="clip0_1_1310">
<svg:rect width="24" height="24" fill="currentColor" />
</svg:clipPath>
</svg:defs>
</svg>
