<svg width="24" height="24" viewBox="0 0 24 24" fill="none" xmlns="http://www.w3.org/2000/svg">
<path fill-rule="evenodd" clip-rule="evenodd" d="M8.25 5.5C9.077 5.5 9.75 6.173 9.75 7V8.25C9.75 9.077 9.077 9.75 8.25 9.75H7C6.173 9.75 5.5 9.077 5.5 8.25V7C5.5 6.173 6.173 5.5 7 5.5H8.25ZM8.25 4H7C5.34325 4 4 5.34325 4 7V8.25C4 9.90675 5.34325 11.25 7 11.25H8.25C9.90675 11.25 11.25 9.90675 11.25 8.25V7C11.25 5.34325 9.90675 4 8.25 4ZM17 5.5C17.827 5.5 18.5 6.173 18.5 7V8.25C18.5 9.077 17.827 9.75 17 9.75H15.75C14.923 9.75 14.25 9.077 14.25 8.25V7C14.25 6.173 14.923 5.5 15.75 5.5H17ZM17 4H15.75C14.0932 4 12.75 5.34325 12.75 7V8.25C12.75 9.90675 14.0932 11.25 15.75 11.25H17C18.6568 11.25 20 9.90675 20 8.25V7C20 5.34325 18.6568 4 17 4ZM9.75 15.75C9.75 14.923 9.077 14.25 8.25 14.25H7C6.173 14.25 5.5 14.923 5.5 15.75V17C5.5 17.827 6.173 18.5 7 18.5H8.25C9.077 18.5 9.75 17.827 9.75 17V15.75ZM7 12.75H8.25C9.90675 12.75 11.25 14.0932 11.25 15.75V17C11.25 18.6568 9.90675 20 8.25 20H7C5.34325 20 4 18.6568 4 17V15.75C4 14.0932 5.34325 12.75 7 12.75ZM17.125 13.5C17.125 13.0858 16.7892 12.75 16.375 12.75C15.9608 12.75 15.625 13.0858 15.625 13.5V15.625H13.5C13.0858 15.625 12.75 15.9608 12.75 16.375C12.75 16.7892 13.0858 17.125 13.5 17.125H15.625V19.25C15.625 19.6642 15.9608 20 16.375 20C16.7892 20 17.125 19.6642 17.125 19.25V17.125H19.25C19.6642 17.125 20 16.7892 20 16.375C20 15.9608 19.6642 15.625 19.25 15.625H17.125V13.5Z" fill="black"/>
</svg>
