<svg width="24" height="24" viewBox="0 0 24 24" fill="none" xmlns="http://www.w3.org/2000/svg">
<path fill-rule="evenodd" clip-rule="evenodd" d="M7 4H8.25C9.90675 4 11.25 5.34325 11.25 7V8.25C11.25 9.90675 9.90675 11.25 8.25 11.25H7C5.34325 11.25 4 9.90675 4 8.25V7C4 5.34325 5.34325 4 7 4ZM15.75 12.75H17C18.6568 12.75 20 14.0932 20 15.75V17C20 18.6568 18.6568 20 17 20H15.75C14.0932 20 12.75 18.6568 12.75 17V15.75C12.75 14.0932 14.0932 12.75 15.75 12.75ZM17 4H15.75C14.0932 4 12.75 5.34325 12.75 7V8.25C12.75 9.90675 14.0932 11.25 15.75 11.25H17C18.6568 11.25 20 9.90675 20 8.25V7C20 5.34325 18.6568 4 17 4ZM7 12.75H8.25C9.90675 12.75 11.25 14.0932 11.25 15.75V17C11.25 18.6568 9.90675 20 8.25 20H7C5.34325 20 4 18.6568 4 17V15.75C4 14.0932 5.34325 12.75 7 12.75Z" fill="black"/>
</svg>
