<?xml version="1.0" encoding="UTF-8"?>
<svg xmlns:svg="http://www.w3.org/2000/svg" viewBox="0 0 24 24" fill="none">
<svg:path d="M8.25 4H7C5.34325 4 4 5.34325 4 7V8.25C4 9.90675 5.34325 11.25 7 11.25H8.25C9.90675 11.25 11.25 9.90675 11.25 8.25V7C11.25 5.34325 9.90675 4 8.25 4ZM17 4H15.75C14.0932 4 12.75 5.34325 12.75 7V8.25C12.75 9.90675 14.0932 11.25 15.75 11.25H17C18.6568 11.25 20 9.90675 20 8.25V7C20 5.34325 18.6568 4 17 4ZM7 12.75H8.25C9.90675 12.75 11.25 14.0932 11.25 15.75V17C11.25 18.6568 9.90675 20 8.25 20H7C5.34325 20 4 18.6568 4 17V15.75C4 14.0932 5.34325 12.75 7 12.75ZM17.125 13.5C17.125 13.0858 16.7892 12.75 16.375 12.75C15.9608 12.75 15.625 13.0858 15.625 13.5V15.625H13.5C13.0858 15.625 12.75 15.9608 12.75 16.375C12.75 16.7892 13.0858 17.125 13.5 17.125H15.625V19.25C15.625 19.6642 15.9608 20 16.375 20C16.7892 20 17.125 19.6642 17.125 19.25V17.125H19.25C19.6642 17.125 20 16.7892 20 16.375C20 15.9608 19.6642 15.625 19.25 15.625H17.125V13.5Z" fill="currentColor" fillRule="evenodd" clipRule="evenodd" />
</svg>
