<svg width="24" height="24" viewBox="0 0 24 24" fill="none" xmlns="http://www.w3.org/2000/svg">
<path fill-rule="evenodd" clip-rule="evenodd" d="M9.75 7C9.75 6.173 9.077 5.5 8.25 5.5H7C6.173 5.5 5.5 6.173 5.5 7V8.25C5.5 9.077 6.173 9.75 7 9.75H8.25C9.077 9.75 9.75 9.077 9.75 8.25V7ZM7 4H8.25C9.90675 4 11.25 5.34325 11.25 7V8.25C11.25 9.90675 9.90675 11.25 8.25 11.25H7C5.34325 11.25 4 9.90675 4 8.25V7C4 5.34325 5.34325 4 7 4ZM18.5 15.75C18.5 14.923 17.827 14.25 17 14.25H15.75C14.923 14.25 14.25 14.923 14.25 15.75V17C14.25 17.827 14.923 18.5 15.75 18.5H17C17.827 18.5 18.5 17.827 18.5 17V15.75ZM15.75 12.75H17C18.6568 12.75 20 14.0932 20 15.75V17C20 18.6568 18.6568 20 17 20H15.75C14.0932 20 12.75 18.6568 12.75 17V15.75C12.75 14.0932 14.0932 12.75 15.75 12.75ZM17 5.5C17.827 5.5 18.5 6.173 18.5 7V8.25C18.5 9.077 17.827 9.75 17 9.75H15.75C14.923 9.75 14.25 9.077 14.25 8.25V7C14.25 6.173 14.923 5.5 15.75 5.5H17ZM17 4H15.75C14.0932 4 12.75 5.34325 12.75 7V8.25C12.75 9.90675 14.0932 11.25 15.75 11.25H17C18.6568 11.25 20 9.90675 20 8.25V7C20 5.34325 18.6568 4 17 4ZM9.75 15.75C9.75 14.923 9.077 14.25 8.25 14.25H7C6.173 14.25 5.5 14.923 5.5 15.75V17C5.5 17.827 6.173 18.5 7 18.5H8.25C9.077 18.5 9.75 17.827 9.75 17V15.75ZM7 12.75H8.25C9.90675 12.75 11.25 14.0932 11.25 15.75V17C11.25 18.6568 9.90675 20 8.25 20H7C5.34325 20 4 18.6568 4 17V15.75C4 14.0932 5.34325 12.75 7 12.75Z" fill="black"/>
</svg>
