<?xml version="1.0" encoding="UTF-8"?>
<svg xmlns:svg="http://www.w3.org/2000/svg" viewBox="0 0 24 24" fill="none">
<svg:path d="M2 12C2 6.47725 6.47725 2 12 2C17.5228 2 22 6.47725 22 12C22 17.5228 17.5228 22 12 22C6.47725 22 2 17.5228 2 12ZM16.5762 9.72089C16.8413 9.40268 16.7983 8.92976 16.4801 8.66458C16.1619 8.39941 15.689 8.4424 15.4238 8.76061L11.1247 13.9195C11.0308 14.0322 10.86 14.0401 10.7561 13.9362L8.53033 11.7104C8.23744 11.4175 7.76256 11.4175 7.46967 11.7104C7.17678 12.0033 7.17678 12.4782 7.46967 12.7711L9.69542 14.9968C10.423 15.7244 11.6187 15.6703 12.2773 14.8795L16.5762 9.72089Z" fill="currentColor" fillRule="evenodd" clipRule="evenodd" />
</svg>
