<?xml version="1.0" encoding="UTF-8"?>
<svg xmlns:svg="http://www.w3.org/2000/svg" viewBox="0 0 24 24" fill="none">
<svg:path d="M12.9613 3.89825C12.6958 3.63275 12.348 3.5 12 3.5C11.652 3.5 11.3042 3.63275 11.0387 3.89825L10.0775 4.8595C9.56775 5.36925 8.876 5.65575 8.155 5.65575H7.0155C6.26475 5.65575 5.65601 6.2645 5.65601 7.01525V8.15475C5.65601 8.87575 5.36975 9.56725 4.85975 10.0773L3.8985 11.0385C3.3675 11.5693 3.3675 12.43 3.8985 12.961L4.85975 13.9223C5.3695 14.432 5.65601 15.1237 5.65601 15.8447V16.9843C5.65601 17.735 6.26475 18.3438 7.0155 18.3438H8.155C8.876 18.3438 9.5675 18.63 10.0775 19.14L11.0387 20.1012C11.3042 20.3667 11.652 20.4995 12 20.4995C12.348 20.4995 12.6958 20.3667 12.9613 20.1012L13.9225 19.14C14.4322 18.6302 15.124 18.3438 15.845 18.3438H16.9845C17.7352 18.3438 18.344 17.735 18.344 16.9843V15.8447C18.344 15.1237 18.6302 14.4323 19.1402 13.9223L20.1015 12.961C20.6325 12.4302 20.6325 11.5695 20.1015 11.0385L19.1402 10.0773C18.6305 9.5675 18.344 8.87575 18.344 8.15475V7.01525C18.344 6.2645 17.7352 5.65575 16.9845 5.65575H15.845C15.124 5.65575 14.4325 5.3695 13.9225 4.8595L12.9613 3.89825ZM9.978 2.8375C10.5183 2.2975 11.2363 2 12 2C12.7637 2 13.482 2.2975 14.022 2.8375L14.9833 3.79875C15.2135 4.029 15.5198 4.15575 15.8453 4.15575H16.9848C17.7485 4.15575 18.4668 4.45325 19.0068 4.99325C19.5468 5.5335 19.8443 6.2515 19.8443 7.01525V8.15475C19.8443 8.4805 19.971 8.7865 20.2012 9.01675L21.1625 9.978C21.7025 10.5182 22 11.2363 22 12C22 12.7637 21.7025 13.482 21.1625 14.022L20.2012 14.9833C19.971 15.2135 19.8443 15.5197 19.8443 15.8453V16.9848C19.8443 17.7485 19.5468 18.4668 19.0068 19.0068C18.4665 19.5468 17.7485 19.8443 16.9848 19.8443H15.8453C15.5195 19.8443 15.2135 19.971 14.9833 20.2012L14.022 21.1625C13.4817 21.7025 12.7637 22 12 22C11.2363 22 10.518 21.7025 9.978 21.1625L9.01675 20.2012C8.7865 19.971 8.48025 19.8443 8.15475 19.8443H7.01525C6.2515 19.8443 5.53325 19.5468 4.99325 19.0068C4.45325 18.4665 4.15575 17.7485 4.15575 16.9848V15.8453C4.15575 15.5195 4.029 15.2135 3.79875 14.9833L2.8375 14.022C2.2975 13.4818 2 12.7637 2 12C2 11.2363 2.2975 10.518 2.8375 9.978L3.79875 9.01675C4.029 8.7865 4.15575 8.48025 4.15575 8.15475V7.01525C4.15575 6.2515 4.45325 5.53325 4.99325 4.99325C5.5335 4.45325 6.2515 4.15575 7.01525 4.15575H8.15475C8.4805 4.15575 8.7865 4.029 9.01675 3.79875L9.978 2.8375ZM16.5754 9.7311C16.8411 9.41333 16.7989 8.94034 16.4811 8.67463C16.1633 8.40893 15.6903 8.45114 15.4246 8.7689L11.1255 13.9104C11.0317 14.0226 10.8595 14.0309 10.7552 13.9269L8.52944 11.7087C8.23605 11.4163 7.76117 11.4171 7.46878 11.7105C7.17638 12.0038 7.17718 12.4787 7.47057 12.7711L9.69631 14.9894C10.4235 15.7141 11.6178 15.6605 12.2765 14.8723L16.5754 9.7311Z" fill="currentColor" fillRule="evenodd" clipRule="evenodd" />
</svg>
