<svg width="24" height="24" viewBox="0 0 24 24" fill="none" xmlns="http://www.w3.org/2000/svg">
<path fill-rule="evenodd" clip-rule="evenodd" d="M9.978 2.8375C10.5183 2.2975 11.2363 2 12 2C12.7637 2 13.482 2.2975 14.022 2.8375L14.9833 3.79875C15.2135 4.029 15.5198 4.15575 15.8453 4.15575H16.9848C17.7485 4.15575 18.4668 4.45325 19.0068 4.99325C19.5468 5.5335 19.8443 6.2515 19.8443 7.01525V8.15475C19.8443 8.4805 19.971 8.7865 20.2012 9.01675L21.1625 9.978C21.7025 10.5182 22 11.2363 22 12C22 12.7637 21.7025 13.482 21.1625 14.022L20.2012 14.9833C19.971 15.2135 19.8443 15.5197 19.8443 15.8453V16.9848C19.8443 17.7485 19.5468 18.4668 19.0068 19.0068C18.4665 19.5468 17.7485 19.8443 16.9848 19.8443H15.8453C15.5195 19.8443 15.2135 19.971 14.9833 20.2012L14.022 21.1625C13.4817 21.7025 12.7637 22 12 22C11.2363 22 10.518 21.7025 9.978 21.1625L9.01675 20.2012C8.7865 19.971 8.48025 19.8443 8.15475 19.8443H7.01525C6.2515 19.8443 5.53325 19.5468 4.99325 19.0068C4.45325 18.4665 4.15575 17.7485 4.15575 16.9848V15.8453C4.15575 15.5195 4.029 15.2135 3.79875 14.9833L2.8375 14.022C2.2975 13.4818 2 12.7637 2 12C2 11.2363 2.2975 10.518 2.8375 9.978L3.79875 9.01675C4.029 8.7865 4.15575 8.48025 4.15575 8.15475V7.01525C4.15575 6.2515 4.45325 5.53325 4.99325 4.99325C5.5335 4.45325 6.2515 4.15575 7.01525 4.15575H8.15475C8.4805 4.15575 8.7865 4.029 9.01675 3.79875L9.978 2.8375ZM16.5754 9.7311C16.8411 9.41333 16.7989 8.94034 16.4811 8.67463C16.1633 8.40893 15.6903 8.45114 15.4246 8.7689L11.1255 13.9104C11.0317 14.0226 10.8595 14.0309 10.7552 13.9269L8.52944 11.7087C8.23605 11.4163 7.76117 11.4171 7.46878 11.7105C7.17638 12.0038 7.17718 12.4787 7.47057 12.7711L9.69631 14.9894C10.4235 15.7141 11.6178 15.6605 12.2765 14.8723L16.5754 9.7311Z" fill="black"/>
</svg>
