<svg width="24" height="24" viewBox="0 0 24 24" fill="none" xmlns="http://www.w3.org/2000/svg">
<path fill-rule="evenodd" clip-rule="evenodd" d="M20.5 6C20.5 4.6215 19.3785 3.5 18 3.5H6C4.6215 3.5 3.5 4.6215 3.5 6V18C3.5 19.3785 4.6215 20.5 6 20.5H18C19.3785 20.5 20.5 19.3785 20.5 18V6ZM6 2H18C20.2093 2 22 3.79075 22 6V18C22 20.2093 20.2093 22 18 22H6C3.79075 22 2 20.2093 2 18V6C2 3.79075 3.79075 2 6 2ZM16.5754 9.7311C16.8411 9.41333 16.7989 8.94034 16.4811 8.67463C16.1633 8.40893 15.6903 8.45114 15.4246 8.7689L11.1255 13.9104C11.0317 14.0226 10.8595 14.0309 10.7552 13.9269L8.52943 11.7087C8.23605 11.4163 7.76117 11.4171 7.46878 11.7105C7.17638 12.0038 7.17718 12.4787 7.47057 12.7711L9.69632 14.9894C10.4235 15.7141 11.6178 15.6605 12.2765 14.8723L16.5754 9.7311Z" fill="black"/>
</svg>
