<?xml version="1.0" encoding="UTF-8"?>
<svg xmlns:svg="http://www.w3.org/2000/svg" viewBox="0 0 24 24" fill="none">
<svg:path d="M13.8668 3.904C13.28 3.636 12.652 3.5 12 3.5C11.348 3.5 10.72 3.636 10.1333 3.904C9.56525 4.1635 9.06474 4.53225 8.646 5.00025C8.36125 5.318 7.955 5.49975 7.52824 5.49975H6.25C5.53775 5.49975 4.96275 6.0985 5.002 6.81925C5.03825 7.48525 5.60326 7.99975 6.27025 7.99975H8C8.82851 7.99975 9.5 8.67125 9.5 9.49975V15.7497C9.5 16.1822 9.86826 16.5308 10.3078 16.4975C10.7012 16.4678 11 16.129 11 15.7345V9.49975C11 8.67125 11.6715 7.99975 12.5 7.99975H17.75C18.4622 7.99975 19.0372 7.401 18.998 6.68025C18.9617 6.01425 18.3968 5.49975 17.7298 5.49975H16.4717C16.045 5.49975 15.6385 5.31825 15.354 5.00025C14.9352 4.5325 14.4348 4.1635 13.8668 3.904ZM7.52824 4C8.627 2.77275 10.223 2 12 2C13.777 2 15.373 2.77275 16.4717 4H17.75C19.2688 4 20.5 5.23125 20.5 6.75C20.5 7.68487 20.0335 8.5108 19.3205 9.00768L20.2686 9.01323C21.7776 9.02213 23 10.246 23 11.7573V16.2559C23 17.7734 21.7677 19 20.2524 19H19C19 20.6567 17.6568 22 16 22H8C6.34325 22 5 20.6567 5 19V9.20013C4.10959 8.74495 3.5 7.81864 3.5 6.75C3.5 5.23125 4.73125 4 6.25 4H7.52824ZM6.5 9.5V19C6.5 19.827 7.173 20.5 8 20.5H16C16.827 20.5 17.5 19.827 17.5 19V9.5H13H12.5V15.75C12.5 17.0185 11.4505 18.0417 10.1723 17.9987C8.95575 17.9575 8 16.9395 8 15.7225V9.5H6.5ZM19 10.5058V17.5H20.2524C20.9442 17.5 21.5013 16.9408 21.5013 16.2559V11.7573C21.5013 11.0751 20.9487 10.5173 20.2597 10.5132L19 10.5058ZM15 11.25C15.4142 11.25 15.75 11.5858 15.75 12V17C15.75 17.4142 15.4142 17.75 15 17.75C14.5858 17.75 14.25 17.4142 14.25 17V12C14.25 11.5858 14.5858 11.25 15 11.25Z" fill="currentColor" fillRule="evenodd" clipRule="evenodd" />
</svg>
