<?xml version="1.0" encoding="UTF-8"?>
<svg xmlns:svg="http://www.w3.org/2000/svg" viewBox="0 0 24 24" fill="none">
<svg:path d="M13.8667 3.904C13.28 3.636 12.652 3.5 12 3.5C11.348 3.5 10.72 3.636 10.1332 3.904C9.56525 4.1635 9.06475 4.53225 8.646 5.00025C8.36125 5.318 7.955 5.49975 7.52825 5.49975H6.25C5.53775 5.49975 4.96275 6.0985 5.002 6.81925C5.03825 7.48525 5.60325 7.99975 6.27025 7.99975H8C8.8285 7.99975 9.5 8.67125 9.5 9.49975V15.7497C9.5 16.1822 9.86825 16.5308 10.3078 16.4975C10.7012 16.4678 11 16.129 11 15.7345V9.49975C11 8.67125 11.6715 7.99975 12.5 7.99975H17.75C18.4622 7.99975 19.0372 7.401 18.998 6.68025C18.9617 6.01425 18.3968 5.49975 17.7298 5.49975H16.4718C16.045 5.49975 15.6385 5.31825 15.354 5.00025C14.9352 4.5325 14.4347 4.1635 13.8667 3.904ZM7.52825 4C8.627 2.77275 10.223 2 12 2C13.777 2 15.373 2.77275 16.4718 4H17.75C19.2688 4 20.5 5.23125 20.5 6.75C20.5 7.66951 20.0487 8.48363 19.3555 8.98293L20.2662 8.98826C21.7786 8.9972 23 10.2258 23 11.7382V16.25C23 17.7687 21.7687 19 20.25 19H19C19 20.6568 17.6568 22 16 22H8C6.34325 22 5 20.6568 5 19V9.20013C4.10959 8.74494 3.5 7.81864 3.5 6.75C3.5 5.23125 4.73125 4 6.25 4H7.52825ZM20.25 17.5H19V10.4809L20.2573 10.4882H20.2574C20.9449 10.4923 21.5 11.0508 21.5 11.7382V16.25C21.5 16.9403 20.9403 17.5 20.25 17.5ZM15.75 12C15.75 11.5858 15.4142 11.25 15 11.25C14.5858 11.25 14.25 11.5858 14.25 12V17C14.25 17.4142 14.5858 17.75 15 17.75C15.4142 17.75 15.75 17.4142 15.75 17V12Z" fill="currentColor" fillRule="evenodd" clipRule="evenodd" />
</svg>
