<?xml version="1.0" encoding="UTF-8"?>
<svg xmlns:svg="http://www.w3.org/2000/svg" viewBox="0 0 24 24" fill="none">
<svg:path d="M14.5 3.5C14.7758 3.5 15 3.72425 15 4V5C15 5.27575 14.7758 5.5 14.5 5.5H9.5C9.22425 5.5 9 5.27575 9 5V4C9 3.72425 9.22425 3.5 9.5 3.5H14.5ZM14.5 2H9.5C8.75695 2 8.10849 2.4053 7.76364 3.00687C5.66443 3.12917 4 4.8701 4 7V18C4 20.2093 5.79075 22 8 22H9.75C10.1643 22 10.5 21.6643 10.5 21.25C10.5 20.8358 10.1643 20.5 9.75 20.5H8C6.6215 20.5 5.5 19.3785 5.5 18V7C5.5 5.79268 6.36026 4.7825 7.5 4.55023V5C7.5 6.1045 8.3955 7 9.5 7H14.5C15.6045 7 16.5 6.1045 16.5 5V4.55001C17.6411 4.78163 18.5 5.79048 18.5 7V9.75C18.5 10.1643 18.8358 10.5 19.25 10.5C19.6643 10.5 20 10.1643 20 9.75V7C20 4.8701 18.3356 3.12917 16.2364 3.00687C15.8915 2.4053 15.2431 2 14.5 2ZM12 18C12 14.6863 14.6863 12 18 12C21.3137 12 24 14.6863 24 18C24 21.3137 21.3137 24 18 24C14.6863 24 12 21.3137 12 18ZM18.0605 19.854L21.3535 16.561C21.5488 16.3655 21.5488 16.049 21.3535 15.8538C21.158 15.6585 20.8415 15.6585 20.6463 15.8538L17.3532 19.1468C17.1585 19.3417 16.8413 19.3417 16.6463 19.1468L15.3532 17.8538C15.1577 17.6585 14.8412 17.6585 14.646 17.8538C14.4507 18.0493 14.4507 18.3658 14.646 18.561L15.939 19.854C16.2315 20.1462 16.6155 20.2925 16.9998 20.2925C17.384 20.2925 17.768 20.1465 18.0605 19.854Z" fill="currentColor" fillRule="evenodd" clipRule="evenodd" />
</svg>
