<?xml version="1.0" encoding="UTF-8"?>
<svg xmlns:svg="http://www.w3.org/2000/svg" viewBox="0 0 24 24" fill="none">
<svg:path d="M10.5 18C10.5 19.0117 10.6985 19.9942 11.09 20.9197C11.2495 21.2968 11.4383 21.6572 11.6545 22H8C5.79075 22 4 20.2093 4 18V7C4 4.87 5.665 3.129 7.76425 3.007C8.109 2.4055 8.757 2 9.5 2H14.5C15.243 2 15.891 2.4055 16.2358 3.007C18.3353 3.12925 20 4.87 20 7V10.77C19.3523 10.5907 18.683 10.5 18 10.5C16.9883 10.5 16.0057 10.6985 15.0802 11.09C14.187 11.4677 13.385 12.0085 12.6968 12.6968C12.0085 13.385 11.4678 14.187 11.09 15.0803C10.6985 16.0058 10.5 16.9883 10.5 18ZM9 4V5C9 5.27575 9.22425 5.5 9.5 5.5H14.5C14.7758 5.5 15 5.27575 15 5V4C15 3.72425 14.7758 3.5 14.5 3.5H9.5C9.22425 3.5 9 3.72425 9 4ZM18 12C14.6863 12 12 14.6863 12 18C12 21.3137 14.6863 24 18 24C21.3137 24 24 21.3137 24 18C24 14.6863 21.3137 12 18 12ZM21.3535 15.8534C21.5488 16.0487 21.5488 16.3653 21.3536 16.5606L18.0607 19.8536C17.475 20.4393 16.5251 20.4393 15.9394 19.8536L14.6464 18.5606C14.4512 18.3653 14.4512 18.0487 14.6465 17.8534C14.8417 17.6582 15.1583 17.6582 15.3536 17.8535L16.6465 19.1465C16.8417 19.3417 17.1584 19.3417 17.3536 19.1465L20.6464 15.8535C20.8417 15.6582 21.1583 15.6582 21.3535 15.8534Z" fill="#231F20" fillRule="evenodd" clipRule="evenodd" />
</svg>
