<?xml version="1.0" encoding="UTF-8"?>
<svg xmlns:svg="http://www.w3.org/2000/svg" viewBox="0 0 24 24" fill="none">
<svg:path d="M15 4C15 3.72425 14.7758 3.5 14.5 3.5H9.5C9.22425 3.5 9 3.72425 9 4V5C9 5.27575 9.22425 5.5 9.5 5.5H14.5C14.7758 5.5 15 5.27575 15 5V4ZM9.5 2H14.5C15.2431 2 15.8915 2.4053 16.2364 3.00687C18.3356 3.12917 20 4.8701 20 7V18C20 20.2093 18.2093 22 16 22H8C5.79075 22 4 20.2093 4 18V7C4 4.8701 5.66443 3.12917 7.76364 3.00687C8.10849 2.4053 8.75695 2 9.5 2ZM16.5 4.55023V5C16.5 6.1045 15.6045 7 14.5 7H9.5C8.3955 7 7.5 6.1045 7.5 5V4.55023C6.36026 4.7825 5.5 5.79268 5.5 7V18C5.5 19.3785 6.6215 20.5 8 20.5H16C17.3785 20.5 18.5 19.3785 18.5 18V7C18.5 5.79268 17.6397 4.7825 16.5 4.55023Z" fill="currentColor" fillRule="evenodd" clipRule="evenodd" />
</svg>
