<svg width="24" height="24" viewBox="0 0 24 24" fill="none" xmlns="http://www.w3.org/2000/svg">
<path fill-rule="evenodd" clip-rule="evenodd" d="M10.5 18C10.5 19.0117 10.6985 19.9942 11.09 20.9197C11.2495 21.2968 11.4383 21.6572 11.6545 22H8C5.79075 22 4 20.2093 4 18V7C4 4.87 5.665 3.129 7.76425 3.007C8.109 2.4055 8.757 2 9.5 2H14.5C15.243 2 15.891 2.4055 16.2358 3.007C18.3353 3.12925 20 4.87 20 7V10.77C19.3523 10.5907 18.683 10.5 18 10.5C16.9883 10.5 16.0057 10.6985 15.0802 11.09C14.187 11.4677 13.385 12.0085 12.6968 12.6968C12.0085 13.385 11.4678 14.187 11.09 15.0803C10.6985 16.0058 10.5 16.9883 10.5 18ZM9 4V5C9 5.27575 9.22425 5.5 9.5 5.5H14.5C14.7758 5.5 15 5.27575 15 5V4C15 3.72425 14.7758 3.5 14.5 3.5H9.5C9.22425 3.5 9 3.72425 9 4ZM12 18C12 14.6863 14.6863 12 18 12C21.3137 12 24 14.6863 24 18C24 21.3137 21.3137 24 18 24C14.6863 24 12 21.3137 12 18ZM18.5 15.25C18.5 14.9739 18.2761 14.75 18 14.75C17.7239 14.75 17.5 14.9739 17.5 15.25V17.5H15.25C14.9739 17.5 14.75 17.7239 14.75 18C14.75 18.2761 14.9739 18.5 15.25 18.5H17.5V20.75C17.5 21.0261 17.7239 21.25 18 21.25C18.2761 21.25 18.5 21.0261 18.5 20.75V18.5H20.75C21.0261 18.5 21.25 18.2761 21.25 18C21.25 17.7239 21.0261 17.5 20.75 17.5H18.5V15.25Z" fill="#231F20"/>
</svg>
