<?xml version="1.0" encoding="UTF-8"?>
<svg xmlns:svg="http://www.w3.org/2000/svg" viewBox="0 0 24 24" fill="none">
<svg:path d="M15.308 4.16725C14.2613 3.7245 13.1482 3.5 12 3.5C10.852 3.5 9.739 3.7245 8.692 4.16725C7.68 4.59525 6.77075 5.2085 5.98975 5.9895C5.20875 6.7705 4.5955 7.67975 4.1675 8.69175C3.72475 9.73875 3.50025 10.852 3.50025 12C3.50025 13.148 3.72475 14.261 4.1675 15.308C4.5955 16.32 5.20875 17.2292 5.98975 18.0102C6.77075 18.7912 7.68 19.4045 8.692 19.8325C9.73875 20.2753 10.852 20.4998 12 20.4998C13.148 20.4998 14.261 20.2753 15.308 19.8325C16.32 19.4045 17.2292 18.7912 18.0102 18.0102C18.7912 17.2292 19.4045 16.32 19.8325 15.308C20.2753 14.2613 20.4998 13.1482 20.4998 12C20.4998 10.8518 20.2753 9.73875 19.8325 8.69175C19.4045 7.67975 18.7912 6.7705 18.0102 5.9895C17.2292 5.2085 16.32 4.59525 15.308 4.16725ZM2 12C2 6.47725 6.47725 2 12 2C17.5228 2 22 6.47725 22 12C22 17.5228 17.5228 22 12 22C6.47725 22 2 17.5228 2 12ZM12.75 7.5C12.75 7.08579 12.4142 6.75 12 6.75C11.5858 6.75 11.25 7.08579 11.25 7.5V11.0802C11.25 11.8831 11.601 12.6457 12.2104 13.1681L12.2104 13.1682L15.0119 15.5694C15.3264 15.839 15.7999 15.8026 16.0694 15.4881C16.339 15.1736 16.3026 14.7001 15.9881 14.4306L13.1866 12.0294L13.1866 12.0293C12.9095 11.7917 12.75 11.4449 12.75 11.0802V7.5Z" fill="currentColor" fillRule="evenodd" clipRule="evenodd" />
</svg>
