<?xml version="1.0" encoding="UTF-8"?>
<svg xmlns:svg="http://www.w3.org/2000/svg" viewBox="0 0 24 24" fill="none">
<svg:path d="M15 6.5C16.469 6.5 17.8503 7.072 18.889 8.111C19.9277 9.15 20.5 10.531 20.5 12C20.5 13.469 19.928 14.8503 18.889 15.889C17.85 16.9277 16.469 17.5 15 17.5C13.531 17.5 12.1497 16.928 11.111 15.889C10.0723 14.85 9.5 13.469 9.5 12C9.5 10.531 10.072 9.14975 11.111 8.111C12.15 7.07225 13.531 6.5 15 6.5ZM15 5C11.134 5 8 8.134 8 12C8 15.866 11.134 19 15 19C18.866 19 22 15.866 22 12C22 8.134 18.866 5 15 5ZM2.25 7C2.25 6.58579 2.58579 6.25 3 6.25H7C7.41421 6.25 7.75 6.58579 7.75 7C7.75 7.41421 7.41421 7.75 7 7.75H3C2.58579 7.75 2.25 7.41421 2.25 7ZM3 11.25C2.58579 11.25 2.25 11.5858 2.25 12C2.25 12.4142 2.58579 12.75 3 12.75H5C5.41421 12.75 5.75 12.4142 5.75 12C5.75 11.5858 5.41421 11.25 5 11.25H3ZM2.25 17C2.25 16.5858 2.58579 16.25 3 16.25H7C7.41421 16.25 7.75 16.5858 7.75 17C7.75 17.4142 7.41421 17.75 7 17.75H3C2.58579 17.75 2.25 17.4142 2.25 17ZM15.75 9C15.75 8.58579 15.4142 8.25 15 8.25C14.5858 8.25 14.25 8.58579 14.25 9V11.3786C14.25 11.9753 14.487 12.5474 14.9087 12.9694L16.4697 14.5303C16.7626 14.8232 17.2375 14.8232 17.5303 14.5303C17.8232 14.2374 17.8232 13.7625 17.5303 13.4697L15.9698 11.9092L15.9697 11.9091L15.9696 11.909C15.8289 11.768 15.75 11.5773 15.75 11.3786V9Z" fill="currentColor" fillRule="evenodd" clipRule="evenodd" />
</svg>
