<?xml version="1.0" encoding="UTF-8"?>
<svg xmlns:svg="http://www.w3.org/2000/svg" viewBox="0 0 24 24" fill="none">
<svg:g clipPath="url(#clip0_1_1011)">
<svg:path d="M16.0702 5.25C16.4212 3.39929 18.0471 2 20 2V2.00025C22.2093 2.00025 24 3.79094 24 6.00012C24 8.20931 22.2093 10 20 10C19.3247 10 18.6886 9.83258 18.1308 9.53712L12.75 16.2631V20.5H16C16.4142 20.5 16.75 20.8358 16.75 21.25C16.75 21.6642 16.4142 22 16 22H8.00001C7.5858 22 7.25001 21.6642 7.25001 21.25C7.25001 20.8358 7.5858 20.5 8.00001 20.5H11.25V16.2631L3.41436 6.46852C3.23425 6.24339 3.19914 5.93496 3.32403 5.67511C3.44892 5.41526 3.7117 5.25 4.00001 5.25H16.0702ZM5.56048 6.75L7.56048 9.25H16.4395L18.4395 6.75H5.56048Z" fill="currentColor" fillRule="evenodd" clipRule="evenodd" />
</svg:g>
<svg:defs>
<svg:clipPath id="clip0_1_1011">
<svg:rect width="24" height="24" fill="currentColor" />
</svg:clipPath>
</svg:defs>
</svg>
