<svg width="24" height="24" viewBox="0 0 24 24" fill="none" xmlns="http://www.w3.org/2000/svg">
<path fill-rule="evenodd" clip-rule="evenodd" d="M5.75044 3C5.75044 2.58579 5.41467 2.25 5.00046 2.25C4.58626 2.25 4.25048 2.58579 4.25048 3C4.25048 4.12936 5.03058 4.7118 5.50019 5.06242C5.51737 5.07525 5.53415 5.08777 5.55045 5.1C6.0887 5.5037 6.25043 5.67069 6.25043 6C6.25043 6.41421 6.58621 6.75 7.00041 6.75C7.41461 6.75 7.75039 6.41421 7.75039 6C7.75039 4.87064 6.9703 4.2882 6.50069 3.93758C6.4835 3.92475 6.46673 3.91223 6.45043 3.9C5.91218 3.4963 5.75044 3.32931 5.75044 3ZM15.9997 8H6.99992C5.34322 8 4 9.34325 4 11V14.5C4 18.6423 7.35766 22 11.4998 22C14.5753 22 17.2183 20.1489 18.3756 17.5H19.5001C21.433 17.5 23 15.933 23 14C23 12.067 21.433 10.5 19.5001 10.5H19.0001C18.9861 10.5 18.9722 10.5004 18.9583 10.5011C18.7207 9.0818 17.4864 8 15.9997 8ZM19.5001 16H18.8496C18.948 15.5153 18.9996 15.0137 18.9996 14.5V12H19.0001H19.5001C20.6046 12 21.5 12.8955 21.5 14C21.5 15.1045 20.6046 16 19.5001 16ZM9.00036 2.25C9.41456 2.25 9.75034 2.58579 9.75034 3C9.75034 3.32931 9.91207 3.4963 10.4503 3.9C10.4666 3.91223 10.4834 3.92475 10.5006 3.93758C10.9702 4.2882 11.7503 4.87064 11.7503 6C11.7503 6.41421 11.4145 6.75 11.0003 6.75C10.5861 6.75 10.2503 6.41421 10.2503 6C10.2503 5.67069 10.0886 5.5037 9.55035 5.1C9.53404 5.08777 9.51727 5.07525 9.50008 5.06242C9.03047 4.7118 8.25038 4.12936 8.25038 3C8.25038 2.58579 8.58616 2.25 9.00036 2.25ZM13.7502 3C13.7502 2.58579 13.4145 2.25 13.0003 2.25C12.5861 2.25 12.2503 2.58579 12.2503 3C12.2503 4.12936 13.0304 4.7118 13.5 5.06242C13.5172 5.07525 13.5339 5.08777 13.5502 5.1C14.0885 5.5037 14.2502 5.67069 14.2502 6C14.2502 6.41421 14.586 6.75 15.0002 6.75C15.4144 6.75 15.7502 6.41421 15.7502 6C15.7502 4.87064 14.9701 4.2882 14.5005 3.93758C14.4833 3.92475 14.4665 3.91223 14.4502 3.9C13.912 3.4963 13.7502 3.32931 13.7502 3Z" fill="black"/>
</svg>
