<?xml version="1.0" encoding="UTF-8"?>
<svg xmlns:svg="http://www.w3.org/2000/svg" viewBox="0 0 24 24" fill="none">
<svg:path d="M2 12C2 6.47725 6.47725 2 12 2C17.5228 2 22 6.47725 22 12C22 17.5228 17.5228 22 12 22C6.47725 22 2 17.5228 2 12ZM14 6.5C14 6.08579 13.6642 5.75 13.25 5.75C12.8358 5.75 12.5 6.08579 12.5 6.5V7.75H11.5V6.5C11.5 6.08579 11.1642 5.75 10.75 5.75C10.3358 5.75 10 6.08579 10 6.5V7.75H8.75C8.33579 7.75 8 8.08579 8 8.5C8 8.91421 8.33579 9.25 8.75 9.25H9.5V14.75H8.75C8.33579 14.75 8 15.0858 8 15.5C8 15.9142 8.33579 16.25 8.75 16.25H10V17.5C10 17.9142 10.3358 18.25 10.75 18.25C11.1642 18.25 11.5 17.9142 11.5 17.5V16.25H12.5V17.5C12.5 17.9142 12.8358 18.25 13.25 18.25C13.6642 18.25 14 17.9142 14 17.5V16.1465C15.1542 15.82 16 14.7587 16 13.5C16 12.6541 15.618 11.8974 15.0172 11.3929C15.3195 11.0098 15.5 10.526 15.5 10C15.5 9.02027 14.8739 8.18686 14 7.87801V6.5ZM14.5 13.5C14.5 14.1903 13.9403 14.75 13.25 14.75H11V12.25H13.25C13.9403 12.25 14.5 12.8097 14.5 13.5ZM13.25 9.25H11V10.75H13.25C13.6643 10.75 14 10.4143 14 10C14 9.58571 13.6643 9.25 13.25 9.25Z" fill="currentColor" fillRule="evenodd" clipRule="evenodd" />
</svg>
