<?xml version="1.0" encoding="UTF-8"?>
<svg xmlns:svg="http://www.w3.org/2000/svg" viewBox="0 0 24 24" fill="none">
<svg:path d="M15.3083 4.16725C14.2613 3.7245 13.1482 3.5 12 3.5C10.8518 3.5 9.73875 3.7245 8.69175 4.16725C7.67975 4.59525 6.7705 5.2085 5.9895 5.9895C5.20825 6.7705 4.59525 7.67975 4.16725 8.69175C3.7245 9.7385 3.5 10.8518 3.5 11.9997C3.5 13.1477 3.7245 14.2607 4.16725 15.3078C4.59525 16.3197 5.2085 17.229 5.9895 18.01C6.7705 18.791 7.67975 19.4042 8.69175 19.8322C9.73875 20.275 10.8518 20.4995 12 20.4995C13.1482 20.4995 14.2613 20.275 15.3083 19.8322C16.3203 19.4042 17.2295 18.791 18.0105 18.01C18.7915 17.229 19.4048 16.3197 19.8328 15.3078C20.2755 14.261 20.5 13.1477 20.5 11.9997C20.5 10.8518 20.2755 9.73875 19.8328 8.69175C19.4048 7.67975 18.7915 6.7705 18.0105 5.9895C17.2295 5.2085 16.3203 4.59525 15.3083 4.16725ZM2 12C2 6.47725 6.47725 2 12 2C17.5228 2 22 6.47725 22 12C22 17.5228 17.5228 22 12 22C6.47725 22 2 17.5228 2 12ZM12.1813 11.2722C11.6058 11.1283 11.0621 10.9923 10.7045 10.7479C10.305 10.475 10.25 10.107 10.25 9.75C10.25 9.31227 10.4078 9.05004 10.7775 8.87305C11.1143 8.71181 11.4808 8.70056 11.504 8.70006H12.5C12.5035 8.70006 12.8598 8.70956 13.1923 8.85905C13.5833 9.03504 13.75 9.30127 13.75 9.75C13.75 10.1642 14.0857 10.5 14.5 10.5C14.9143 10.5 15.25 10.1642 15.25 9.75C15.25 8.71181 14.7378 7.9096 13.8078 7.49113C13.4 7.30764 12.9995 7.23964 12.75 7.21464V5.99996C12.75 5.58573 12.4143 5.25 12 5.25C11.5857 5.25 11.25 5.58573 11.25 5.99996V7.21464C11.0005 7.23989 10.6 7.30764 10.1923 7.49113C9.26225 7.9096 8.75 8.71181 8.75 9.75C8.75 10.7314 9.12275 11.4839 9.858 11.9864C10.437 12.3821 11.1377 12.5574 11.8154 12.7269L11.818 12.7276L11.8187 12.7277C12.3942 12.8717 12.9379 13.0077 13.2955 13.2521C13.695 13.525 13.75 13.893 13.75 14.25C13.75 14.6877 13.5923 14.95 13.2225 15.127C12.8857 15.2882 12.5192 15.2994 12.496 15.2999H11.5C11.4965 15.2999 11.1402 15.2904 10.8078 15.141C10.4167 14.965 10.25 14.6987 10.25 14.25C10.25 13.8358 9.91425 13.5 9.5 13.5C9.08575 13.5 8.75 13.8358 8.75 14.25C8.75 15.2882 9.26225 16.0904 10.1923 16.5089C10.6 16.6924 11.0005 16.7604 11.25 16.7854V18C11.25 18.4143 11.5857 18.75 12 18.75C12.4143 18.75 12.75 18.4143 12.75 18V16.7854C12.9995 16.7601 13.4 16.6924 13.8078 16.5089C14.7378 16.0904 15.25 15.2882 15.25 14.25C15.25 13.2686 14.8772 12.5161 14.142 12.0136C13.563 11.6179 12.8623 11.4426 12.1846 11.2731L12.182 11.2724L12.1813 11.2722Z" fill="currentColor" fillRule="evenodd" clipRule="evenodd" />
</svg>
