<svg width="24" height="24" viewBox="0 0 24 24" fill="none" xmlns="http://www.w3.org/2000/svg">
<path fill-rule="evenodd" clip-rule="evenodd" d="M15.3083 4.16725C14.2613 3.7245 13.1482 3.5 12 3.5C10.8518 3.5 9.73875 3.7245 8.69175 4.16725C7.67975 4.59525 6.7705 5.2085 5.9895 5.9895C5.2085 6.7705 4.59525 7.67975 4.16725 8.69175C3.7245 9.73875 3.5 10.8518 3.5 12C3.5 13.1482 3.7245 14.2613 4.16725 15.3083C4.59525 16.3203 5.2085 17.2295 5.9895 18.0105C6.7705 18.7915 7.67975 19.4048 8.69175 19.8328C9.73875 20.2755 10.8518 20.5 12 20.5C13.1482 20.5 14.2613 20.2755 15.3083 19.8328C16.3203 19.4048 17.2295 18.7915 18.0105 18.0105C18.7915 17.2295 19.4048 16.3203 19.8328 15.3083C20.2755 14.2613 20.5 13.1482 20.5 12C20.5 10.8518 20.2755 9.73875 19.8328 8.69175C19.4048 7.67975 18.7915 6.7705 18.0105 5.9895C17.2295 5.2085 16.3203 4.59525 15.3083 4.16725ZM2 12C2 6.47725 6.47725 2 12 2C17.5228 2 22 6.47725 22 12C22 17.5228 17.5228 22 12 22C6.47725 22 2 17.5228 2 12ZM15.2465 14.5C15.0695 14.5 14.898 14.5625 14.7628 14.6767C14.1318 15.2095 13.341 15.5 12.5053 15.5C11.5695 15.5 10.6895 15.136 10.0278 14.475C9.87957 14.327 9.7463 14.1681 9.62869 14H12.5C12.9142 14 13.25 13.6642 13.25 13.25C13.25 12.8358 12.9142 12.5 12.5 12.5H9.03675C9.01338 12.3358 9.0015 12.1688 9.0015 12C9.0015 11.8312 9.01338 11.6642 9.03675 11.5H12.5C12.9142 11.5 13.25 11.1642 13.25 10.75C13.25 10.3358 12.9142 10 12.5 10H9.62876C9.74635 9.83197 9.8796 9.67304 10.0278 9.525C10.6895 8.864 11.5693 8.5 12.5053 8.5C13.341 8.5 14.1318 8.7905 14.7628 9.32325C14.898 9.4375 15.0695 9.5 15.2465 9.5C15.9445 9.5 16.267 8.62925 15.7337 8.179C14.8587 7.44025 13.7265 6.99625 12.4903 7C10.4319 7.00606 8.67966 8.23725 7.91331 10H6.5C6.08579 10 5.75 10.3358 5.75 10.75C5.75 11.1642 6.08579 11.5 6.5 11.5H7.52446C7.50567 11.6911 7.49757 11.8854 7.50075 12.0822C7.50302 12.223 7.51112 12.3623 7.5248 12.5H6.5C6.08579 12.5 5.75 12.8358 5.75 13.25C5.75 13.6642 6.08579 14 6.5 14H7.91657C8.68894 15.7659 10.4528 17 12.5053 17C13.736 17 14.8628 16.5562 15.7345 15.8202C16.2673 15.3705 15.9443 14.5 15.2465 14.5Z" fill="black"/>
</svg>
