<?xml version="1.0" encoding="UTF-8"?>
<svg xmlns:svg="http://www.w3.org/2000/svg" viewBox="0 0 24 24" fill="none">
<svg:path d="M15.308 4.16725C14.2612 3.7245 13.1482 3.5 12 3.5C10.852 3.5 9.739 3.7245 8.692 4.16725C7.68 4.59525 6.77075 5.2085 5.98975 5.9895C5.20875 6.7705 4.5955 7.67975 4.1675 8.69175C3.72475 9.73875 3.50025 10.8518 3.50025 12C3.50025 13.1482 3.72475 14.2613 4.1675 15.3083C4.5955 16.3203 5.20875 17.2295 5.98975 18.0105C6.77075 18.7915 7.68 19.4048 8.692 19.8328C9.73875 20.2755 10.852 20.5 12 20.5C13.148 20.5 14.261 20.2755 15.308 19.8328C16.32 19.4048 17.2293 18.7915 18.0103 18.0105C18.7913 17.2295 19.4045 16.3203 19.8325 15.3083C20.2753 14.2613 20.4998 13.1482 20.4998 12C20.4998 10.8518 20.2753 9.73875 19.8325 8.69175C19.4045 7.67975 18.7913 6.7705 18.0103 5.9895C17.2293 5.2085 16.32 4.59525 15.308 4.16725ZM2 12C2 6.47725 6.47725 2 12 2C17.5228 2 22 6.47725 22 12C22 17.5228 17.5228 22 12 22C6.47725 22 2 17.5228 2 12ZM13 6.25C11.4813 6.25 10.25 7.48129 10.25 9V11.25H9C8.58579 11.25 8.25 11.5858 8.25 12C8.25 12.4142 8.58579 12.75 9 12.75H10.25V15.25H9C8.58579 15.25 8.25 15.5858 8.25 16C8.25 16.4142 8.58579 16.75 9 16.75H11H15C15.4142 16.75 15.75 16.4142 15.75 16C15.75 15.5858 15.4142 15.25 15 15.25H11.75V12.75H13C13.4142 12.75 13.75 12.4142 13.75 12C13.75 11.5858 13.4142 11.25 13 11.25H11.75V9C11.75 8.30971 12.3097 7.75 13 7.75C13.6903 7.75 14.25 8.30971 14.25 9C14.25 9.41421 14.5858 9.75 15 9.75C15.4142 9.75 15.75 9.41421 15.75 9C15.75 7.48129 14.5187 6.25 13 6.25Z" fill="currentColor" fillRule="evenodd" clipRule="evenodd" />
</svg>
