<?xml version="1.0" encoding="UTF-8"?>
<svg xmlns:svg="http://www.w3.org/2000/svg" viewBox="0 0 24 24" fill="none">
<svg:path d="M10.5 3.5H7C5.61925 3.5 4.5 4.61925 4.5 6V11.5C4.5 12.8807 5.61925 14 7 14H7.25C7.67125 14 8.01125 14.3473 7.99975 14.771C7.9885 15.1795 7.64325 15.5 7.2345 15.5H7C4.79075 15.5 3 13.7093 3 11.5V6C3 3.79075 4.79075 2 7 2H10.5C12.7093 2 14.5 3.79075 14.5 6V6.25C14.5 6.66425 14.1643 7 13.75 7C13.3357 7 13 6.66425 13 6.25V6C13 4.61925 11.8808 3.5 10.5 3.5ZM19.5 12.5C19.5 11.1215 18.3785 10 17 10H13.5C12.1215 10 11 11.1215 11 12.5V18C11 19.3785 12.1215 20.5 13.5 20.5H17C18.3785 20.5 19.5 19.3785 19.5 18V12.5ZM13.5 8.5H17C19.2093 8.5 21 10.2908 21 12.5V18C21 20.2093 19.2093 22 17 22H13.5C11.2908 22 9.5 20.2093 9.5 18V12.5C9.5 10.2908 11.2908 8.5 13.5 8.5Z" fill="currentColor" fillRule="evenodd" clipRule="evenodd" />
</svg>
