<?xml version="1.0" encoding="UTF-8"?>
<svg xmlns:svg="http://www.w3.org/2000/svg" viewBox="0 0 24 24" fill="none">
<svg:path d="M8.433 10.3585C8.14575 11.0375 8.00025 11.758 8.00025 12.4997L8 12.5V15.5H7C4.79075 15.5 3 13.7093 3 11.5V6C3 3.79075 4.79075 2 7 2H10.5C12.7093 2 14.5 3.79075 14.5 6V7H13.5C12.7582 7 12.0378 7.1455 11.3588 7.43275C10.7038 7.70975 10.1155 8.10625 9.611 8.61075C9.1065 9.11525 8.71 9.7035 8.433 10.3585ZM13.5 8.5H17C19.2091 8.5 21 10.2909 21 12.5V18C21 20.2091 19.2091 22 17 22H13.5C11.2909 22 9.5 20.2091 9.5 18V12.5C9.5 10.2909 11.2909 8.5 13.5 8.5Z" fill="currentColor" fillRule="evenodd" clipRule="evenodd" />
</svg>
