<?xml version="1.0" encoding="UTF-8"?>
<svg xmlns:svg="http://www.w3.org/2000/svg" viewBox="0 0 24 24" fill="none">
<svg:path d="M17.9853 5.5H6.01475C4.626 5.5 3.5 6.62601 3.5 8.01476V9H20.5V8.01476C20.5 6.62601 19.374 5.5 17.9853 5.5ZM20.5 10.5H3.5V15.9852C3.5 17.374 4.626 18.5 6.01475 18.5H9.75C10.1643 18.5 10.5 18.8358 10.5 19.25C10.5 19.6642 10.1643 20 9.75 20H6.01475C3.79749 20 2 18.2025 2 15.9852V8.01476C2 5.7975 3.79749 4 6.01475 4H17.9853C20.2025 4 22 5.7975 22 8.01476V9C22 9.82851 21.3285 10.5 20.5 10.5ZM18 12C14.6862 12 12 14.6862 12 18C12 21.3138 14.6862 24 18 24C21.3138 24 24 21.3138 24 18C24 14.6862 21.3138 12 18 12ZM20.3535 19.6465C20.5488 19.8418 20.5488 20.1582 20.3535 20.3537C20.2558 20.4515 20.128 20.5002 20 20.5002C19.872 20.5002 19.744 20.4515 19.6465 20.3537L18 18.7072L16.3535 20.3537C16.2558 20.4515 16.128 20.5002 16 20.5002C15.872 20.5002 15.744 20.4515 15.6465 20.3537C15.4512 20.1585 15.4512 19.842 15.6465 19.6465L17.293 18L15.6465 16.3535C15.4512 16.1582 15.4512 15.8418 15.6465 15.6463C15.8417 15.4507 16.1583 15.451 16.3535 15.6463L18 17.2928L19.6465 15.6463C19.8417 15.451 20.1583 15.451 20.3535 15.6463C20.5488 15.8415 20.5488 16.158 20.3535 16.3535L18.707 18L20.3535 19.6465Z" fill="currentColor" fillRule="evenodd" clipRule="evenodd" />
</svg>
