<svg width="24" height="24" viewBox="0 0 24 24" fill="none" xmlns="http://www.w3.org/2000/svg">
<path fill-rule="evenodd" clip-rule="evenodd" d="M22 8.01475V9H2V8.01475C2 5.7975 3.7975 4 6.01475 4H17.9852C20.2025 4 22 5.7975 22 8.01475ZM11.09 15.0803C10.6985 16.0058 10.5 16.9883 10.5 18C10.5 18.683 10.5907 19.3523 10.77 20H6.01475C3.7975 20 2 18.2025 2 15.9852V10.5H18C16.9883 10.5 16.0058 10.6985 15.0803 11.09C14.187 11.468 13.385 12.0085 12.6967 12.6967C12.0085 13.385 11.4677 14.187 11.09 15.0803ZM18 10.5H22V11.6545C21.6572 11.4383 21.2968 11.2495 20.9198 11.09C19.9942 10.6985 19.0117 10.5 18 10.5ZM12 18C12 14.6863 14.6863 12 18 12C21.3137 12 24 14.6863 24 18C24 21.3137 21.3137 24 18 24C14.6863 24 12 21.3137 12 18ZM18.5 18.5H20.75C21.0262 18.5 21.25 18.2762 21.25 18C21.25 17.7238 21.0262 17.5 20.75 17.5H18.5V15.25C18.5 14.9738 18.2762 14.75 18 14.75C17.7238 14.75 17.5 14.9738 17.5 15.25V17.5H15.25C14.9738 17.5 14.75 17.7238 14.75 18C14.75 18.2762 14.9738 18.5 15.25 18.5H17.5V20.75C17.5 21.0262 17.7238 21.25 18 21.25C18.2762 21.25 18.5 21.0262 18.5 20.75V18.5Z" fill="black"/>
</svg>
