<?xml version="1.0" encoding="UTF-8"?>
<svg xmlns:svg="http://www.w3.org/2000/svg" viewBox="0 0 24 24" fill="none">
<svg:path d="M20.5 8.01475C20.5 6.628 19.372 5.5 17.9852 5.5H6.01475C4.628 5.5 3.5 6.628 3.5 8.01475V9H20.5V8.01475ZM20.5 10.5H3.5V15.9852C3.5 17.372 4.628 18.5 6.01475 18.5H17.9852C19.372 18.5 20.5 17.372 20.5 15.9852V10.5ZM6.01475 4H17.9852C20.2025 4 22 5.7975 22 8.01475V15.9852C22 18.2025 20.2025 20 17.9852 20H6.01475C3.7975 20 2 18.2025 2 15.9852V8.01475C2 5.7975 3.7975 4 6.01475 4Z" fill="currentColor" fillRule="evenodd" clipRule="evenodd" />
</svg>
