<?xml version="1.0" encoding="UTF-8"?>
<svg xmlns:svg="http://www.w3.org/2000/svg" viewBox="0 0 24 24" fill="none">
<svg:path d="M17.9853 5.5H6.01475C4.626 5.5 3.5 6.62601 3.5 8.01476V9H20.5V8.01476C20.5 6.62601 19.374 5.5 17.9853 5.5ZM20.5 10.5H3.5V15.9852C3.5 17.374 4.626 18.5 6.01475 18.5H9.75C10.1643 18.5 10.5 18.8358 10.5 19.25C10.5 19.6642 10.1643 20 9.75 20H6.01475C3.79749 20 2 18.2025 2 15.9852V8.01476C2 5.7975 3.79749 4 6.01475 4H17.9853C20.2025 4 22 5.7975 22 8.01476V9C22 9.82851 21.3285 10.5 20.5 10.5ZM18 12C14.6862 12 12 14.6862 12 18C12 21.3138 14.6862 24 18 24C21.3138 24 24 21.3138 24 18C24 14.6862 21.3138 12 18 12ZM20.75 18.5H18.5V20.75C18.5 21.0262 18.2762 21.25 18 21.25C17.7238 21.25 17.5 21.0262 17.5 20.75V18.5H15.25C14.9737 18.5 14.75 18.2762 14.75 18C14.75 17.7238 14.9737 17.5 15.25 17.5H17.5V15.25C17.5 14.9738 17.7238 14.75 18 14.75C18.2762 14.75 18.5 14.9738 18.5 15.25V17.5H20.75C21.0262 17.5 21.25 17.7238 21.25 18C21.25 18.2762 21.0262 18.5 20.75 18.5Z" fill="currentColor" fillRule="evenodd" clipRule="evenodd" />
</svg>
