<?xml version="1.0" encoding="UTF-8"?>
<svg xmlns:svg="http://www.w3.org/2000/svg" viewBox="0 0 24 24" fill="none">
<svg:path d="M20 3H4C2.8955 3 2 3.8955 2 5V6C2 7.1045 2.8955 8 4 8H20C21.1045 8 22 7.1045 22 6V5C22 3.8955 21.1045 3 20 3ZM17.5 9.5H6.5C5.3955 9.5 4.5 10.3955 4.5 11.5V12.5C4.5 13.6045 5.3955 14.5 6.5 14.5H17.5C18.6045 14.5 19.5 13.6045 19.5 12.5V11.5C19.5 10.3955 18.6045 9.5 17.5 9.5ZM9 16H15C16.1045 16 17 16.8955 17 18V19C17 20.1045 16.1045 21 15 21H9C7.8955 21 7 20.1045 7 19V18C7 16.8955 7.8955 16 9 16Z" fill="currentColor" fillRule="evenodd" clipRule="evenodd" />
</svg>
