<?xml version="1.0" encoding="UTF-8"?>
<svg xmlns:svg="http://www.w3.org/2000/svg" viewBox="0 0 24 24" fill="none">
<svg:path d="M3.5 2.75C3.5 2.33579 3.16421 2 2.75 2C2.33579 2 2 2.33579 2 2.75V19.25C2 20.7687 3.23129 22 4.75 22H21.25C21.6642 22 22 21.6642 22 21.25C22 20.8358 21.6642 20.5 21.25 20.5H20V4.75C20 4.44944 19.8206 4.1779 19.5441 4.06006C19.2676 3.94221 18.9474 4.00081 18.7306 4.20896L12.955 9.75353L8.46852 6.16435C8.1946 5.94522 7.80539 5.94522 7.53148 6.16435L3.5 9.38953V2.75ZM3.5 11.3105V19.25C3.5 19.9403 4.05971 20.5 4.75 20.5H18.5V6.50966L13.5194 11.291C13.2479 11.5517 12.8253 11.5707 12.5315 11.3357L8 7.71047L3.5 11.3105Z" fill="currentColor" fillRule="evenodd" clipRule="evenodd" />
</svg>
