<?xml version="1.0" encoding="UTF-8"?>
<svg xmlns:svg="http://www.w3.org/2000/svg" viewBox="0 0 24 24" fill="none">
<svg:path d="M11 3.5C10.3105 3.5 9.75 4.06046 9.75 4.75V9V20.5H14.25V6V4.75C14.25 4.06046 13.6895 3.5 13 3.5H11ZM15.75 6V4.75C15.75 3.23204 14.518 2 13 2H11C9.48204 2 8.25 3.23204 8.25 4.75V9H5C3.34325 9 2 10.3433 2 12V19C2 20.6568 3.34325 22 5 22H8.25H9.75H14.25H15.75H19C20.6568 22 22 20.6568 22 19V9C22 7.34325 20.6568 6 19 6H15.75ZM15.75 7.5V20.5H19C19.827 20.5 20.5 19.827 20.5 19V9C20.5 8.173 19.827 7.5 19 7.5H15.75ZM5 10.5H8.25V20.5H5C4.173 20.5 3.5 19.827 3.5 19V12C3.5 11.173 4.173 10.5 5 10.5Z" fill="currentColor" fillRule="evenodd" clipRule="evenodd" />
</svg>
