<svg width="24" height="24" viewBox="0 0 24 24" fill="none" xmlns="http://www.w3.org/2000/svg">
<path fill-rule="evenodd" clip-rule="evenodd" d="M4 3H10C11.1045 3 12 3.8955 12 5V6C12 7.1045 11.1045 8 10 8H4C2.8955 8 2 7.1045 2 6V5C2 3.8955 2.8955 3 4 3ZM15 9.5H4C2.8955 9.5 2 10.3955 2 11.5V12.5C2 13.6045 2.8955 14.5 4 14.5H15C16.1045 14.5 17 13.6045 17 12.5V11.5C17 10.3955 16.1045 9.5 15 9.5ZM20 16H4C2.8955 16 2 16.8955 2 18V19C2 20.1045 2.8955 21 4 21H20C21.1045 21 22 20.1045 22 19V18C22 16.8955 21.1045 16 20 16Z" fill="black"/>
</svg>
