<?xml version="1.0" encoding="UTF-8"?>
<svg xmlns:svg="http://www.w3.org/2000/svg" viewBox="0 0 24 24" fill="none">
<svg:path d="M10.5 5C10.5 4.72425 10.2758 4.5 10 4.5H4C3.72425 4.5 3.5 4.72425 3.5 5V6C3.5 6.27575 3.72425 6.5 4 6.5H10C10.2758 6.5 10.5 6.27575 10.5 6V5ZM4 3H10C11.1045 3 12 3.8955 12 5V6C12 7.1045 11.1045 8 10 8H4C2.8955 8 2 7.1045 2 6V5C2 3.8955 2.8955 3 4 3ZM15 11C15.2758 11 15.5 11.2243 15.5 11.5V12.5C15.5 12.7758 15.2758 13 15 13H4C3.72425 13 3.5 12.7758 3.5 12.5V11.5C3.5 11.2243 3.72425 11 4 11H15ZM15 9.5H4C2.8955 9.5 2 10.3955 2 11.5V12.5C2 13.6045 2.8955 14.5 4 14.5H15C16.1045 14.5 17 13.6045 17 12.5V11.5C17 10.3955 16.1045 9.5 15 9.5ZM20 17.5C20.2758 17.5 20.5 17.7242 20.5 18V19C20.5 19.2758 20.2758 19.5 20 19.5H4C3.72425 19.5 3.5 19.2758 3.5 19V18C3.5 17.7242 3.72425 17.5 4 17.5H20ZM20 16H4C2.8955 16 2 16.8955 2 18V19C2 20.1045 2.8955 21 4 21H20C21.1045 21 22 20.1045 22 19V18C22 16.8955 21.1045 16 20 16Z" fill="currentColor" fillRule="evenodd" clipRule="evenodd" />
</svg>
