<?xml version="1.0" encoding="UTF-8"?>
<svg xmlns:svg="http://www.w3.org/2000/svg" viewBox="0 0 24 24" fill="none">
<svg:path d="M6 3.5C6.27575 3.5 6.5 3.72425 6.5 4V20C6.5 20.2758 6.27575 20.5 6 20.5H5C4.72425 20.5 4.5 20.2758 4.5 20V4C4.5 3.72425 4.72425 3.5 5 3.5H6ZM6 2H5C3.8955 2 3 2.8955 3 4V20C3 21.1045 3.8955 22 5 22H6C7.1045 22 8 21.1045 8 20V4C8 2.8955 7.1045 2 6 2ZM19 13.5C19.2758 13.5 19.5 13.7242 19.5 14V20C19.5 20.2758 19.2758 20.5 19 20.5H18C17.7242 20.5 17.5 20.2758 17.5 20V14C17.5 13.7242 17.7242 13.5 18 13.5H19ZM19 12H18C16.8955 12 16 12.8955 16 14V20C16 21.1045 16.8955 22 18 22H19C20.1045 22 21 21.1045 21 20V14C21 12.8955 20.1045 12 19 12ZM13 9C13 8.72425 12.7758 8.5 12.5 8.5H11.5C11.2243 8.5 11 8.72425 11 9V20C11 20.2758 11.2243 20.5 11.5 20.5H12.5C12.7758 20.5 13 20.2758 13 20V9ZM11.5 7H12.5C13.6045 7 14.5 7.8955 14.5 9V20C14.5 21.1045 13.6045 22 12.5 22H11.5C10.3955 22 9.5 21.1045 9.5 20V9C9.5 7.8955 10.3955 7 11.5 7Z" fill="currentColor" fillRule="evenodd" clipRule="evenodd" />
</svg>
