<svg width="24" height="24" viewBox="0 0 24 24" fill="none" xmlns="http://www.w3.org/2000/svg">
<path fill-rule="evenodd" clip-rule="evenodd" d="M20 3H4C2.8955 3 2 3.8955 2 5V6C2 7.1045 2.8955 8 4 8H20C21.1045 8 22 7.1045 22 6V5C22 3.8955 21.1045 3 20 3ZM15 9.5H4C2.8955 9.5 2 10.3955 2 11.5V12.5C2 13.6045 2.8955 14.5 4 14.5H15C16.1045 14.5 17 13.6045 17 12.5V11.5C17 10.3955 16.1045 9.5 15 9.5ZM4 16H10C11.1045 16 12 16.8955 12 18V19C12 20.1045 11.1045 21 10 21H4C2.8955 21 2 20.1045 2 19V18C2 16.8955 2.8955 16 4 16Z" fill="black"/>
</svg>
