<?xml version="1.0" encoding="UTF-8"?>
<svg xmlns:svg="http://www.w3.org/2000/svg" viewBox="0 0 24 24" fill="none">
<svg:path d="M16.6825 3.99075C15.913 3.66525 15.0947 3.50025 14.2502 3.50025L14.25 3.5V9.75H20.5C20.5 8.90575 20.335 8.08725 20.0095 7.31775C19.6947 6.57375 19.244 5.90525 18.6695 5.33075C18.095 4.75625 17.4265 4.3055 16.6825 3.99075ZM12.75 3.5C12.75 2.6715 13.4215 2 14.25 2C18.5303 2 22 5.46975 22 9.75C22 10.5785 21.3285 11.25 20.5 11.25H13.75C13.1977 11.25 12.75 10.8023 12.75 10.25V3.5ZM9.74816 5.1508C9.74791 5.15055 9.74792 5.15055 9.74792 5.15055L9.74742 5.15005H9.74691C8.87118 5.32175 8.03793 5.64215 7.27066 6.10202C6.51789 6.55338 5.85084 7.12521 5.28801 7.80151C4.72143 8.4828 4.27956 9.24732 3.9749 10.0743C3.65975 10.9301 3.4998 11.8313 3.4998 12.753C3.4998 13.7995 3.70449 14.8139 4.10812 15.7681C4.4985 16.6906 5.05732 17.5191 5.76936 18.2314C6.48139 18.9437 7.31014 19.5025 8.23261 19.8926C9.18683 20.2963 10.2013 20.501 11.2477 20.501C12.1697 20.501 13.0709 20.341 13.9264 20.0258C14.7534 19.7212 15.5182 19.2793 16.1992 18.7127C16.8755 18.1502 17.4473 17.4831 17.8987 16.7301C18.3588 15.9628 18.679 15.1296 18.8507 14.2538V14.2531H12.2474C10.8693 14.2531 9.74816 13.1319 9.74816 11.7538V5.1508ZM9.4585 3.67849C9.55697 3.65925 9.65443 3.65 9.7504 3.65L9.75016 3.6505C10.5582 3.6505 11.2472 4.30655 11.2472 5.15055V11.7531C11.2472 12.3052 11.6948 12.7528 12.2469 12.7528H18.8499C19.7941 12.7528 20.5032 13.6148 20.3215 14.5415C19.4882 18.7927 15.7423 22 11.2472 22C6.14075 22 2 17.8595 2 12.7528C2 8.25762 5.20754 4.51174 9.4585 3.67849Z" fill="currentColor" fillRule="evenodd" clipRule="evenodd" />
</svg>
