<?xml version="1.0" encoding="UTF-8"?>
<svg xmlns:svg="http://www.w3.org/2000/svg" viewBox="0 0 24 24" fill="none">
<svg:path d="M3.5 2.75C3.5 2.33579 3.16421 2 2.75 2C2.33579 2 2 2.33579 2 2.75V19.25C2 20.7687 3.23129 22 4.75 22H21.25C21.6642 22 22 21.6642 22 21.25C22 20.8358 21.6642 20.5 21.25 20.5H4.75C4.05971 20.5 3.5 19.9403 3.5 19.25V2.75ZM16.5 4.5C14.8432 4.5 13.5 5.84325 13.5 7.5C13.5 9.15675 14.8432 10.5 16.5 10.5C18.1568 10.5 19.5 9.15675 19.5 7.5C19.5 5.84325 18.1568 4.5 16.5 4.5ZM5 10C5 8.34325 6.34325 7 8 7C9.65675 7 11 8.34325 11 10C11 11.6567 9.65675 13 8 13C6.34325 13 5 11.6567 5 10ZM12 16C12 14.3433 13.3433 13 15 13C16.6568 13 18 14.3433 18 16C18 17.6568 16.6568 19 15 19C13.3433 19 12 17.6568 12 16Z" fill="currentColor" fillRule="evenodd" clipRule="evenodd" />
</svg>
