<?xml version="1.0" encoding="UTF-8"?>
<svg xmlns:svg="http://www.w3.org/2000/svg" viewBox="0 0 24 24" fill="none">
<svg:path d="M16.0302 7.26269C15.399 6.71269 15 5.9029 15 5C15 3.34325 16.3432 2 18 2C19.6568 2 21 3.34325 21 5C21 6.65675 19.6568 8 18 8C17.7844 8 17.5741 7.97725 17.3714 7.93403L15.801 11.075C16.2373 11.596 16.5 12.2673 16.5 13C16.5 14.6567 15.1567 16 13.5 16C12.9423 16 12.4201 15.8478 11.9727 15.5826L8.89724 18.2187C8.96426 18.4678 9 18.7297 9 19C9 20.6568 7.65675 22 6 22C4.34325 22 3 20.6568 3 19C3 17.3432 4.34325 16 6 16C6.83645 16 7.593 16.3424 8.13711 16.8947L10.9112 14.5169C10.6499 14.0718 10.5 13.5534 10.5 13C10.5 11.3433 11.8433 10 13.5 10C13.8748 10 14.2336 10.0688 14.5644 10.1943L16.0302 7.26269Z" fill="currentColor" fillRule="evenodd" clipRule="evenodd" />
</svg>
