<svg width="24" height="24" viewBox="0 0 24 24" fill="none" xmlns="http://www.w3.org/2000/svg">
<path fill-rule="evenodd" clip-rule="evenodd" d="M3.5 2.75C3.5 2.33579 3.16421 2 2.75 2C2.33579 2 2 2.33579 2 2.75V19.25C2 20.7687 3.23129 22 4.75 22H21.25C21.6642 22 22 21.6642 22 21.25C22 20.8358 21.6642 20.5 21.25 20.5H4.75C4.05971 20.5 3.5 19.9403 3.5 19.25V2.75ZM16.5 6C17.327 6 18 6.673 18 7.5C18 8.327 17.327 9 16.5 9C15.673 9 15 8.327 15 7.5C15 6.673 15.673 6 16.5 6ZM16.5 4.5C14.8432 4.5 13.5 5.84325 13.5 7.5C13.5 9.15675 14.8432 10.5 16.5 10.5C18.1568 10.5 19.5 9.15675 19.5 7.5C19.5 5.84325 18.1568 4.5 16.5 4.5ZM9.5 10C9.5 9.173 8.827 8.5 8 8.5C7.173 8.5 6.5 9.173 6.5 10C6.5 10.827 7.173 11.5 8 11.5C8.827 11.5 9.5 10.827 9.5 10ZM5 10C5 8.34325 6.34325 7 8 7C9.65675 7 11 8.34325 11 10C11 11.6567 9.65675 13 8 13C6.34325 13 5 11.6567 5 10ZM16.5 16C16.5 15.173 15.827 14.5 15 14.5C14.173 14.5 13.5 15.173 13.5 16C13.5 16.827 14.173 17.5 15 17.5C15.827 17.5 16.5 16.827 16.5 16ZM12 16C12 14.3433 13.3433 13 15 13C16.6568 13 18 14.3433 18 16C18 17.6568 16.6568 19 15 19C13.3433 19 12 17.6568 12 16Z" fill="black"/>
</svg>
