<svg width="24" height="24" viewBox="0 0 24 24" fill="none" xmlns="http://www.w3.org/2000/svg">
<path fill-rule="evenodd" clip-rule="evenodd" d="M6.01475 3H17.9852C20.2025 3 22 4.79746 22 7.01475V13.9852C22 16.2025 20.2025 18 17.9852 18H14.75V20.5H17.25C17.6643 20.5 18 20.8358 18 21.25C18 21.6643 17.6643 22 17.25 22H6.75C6.33575 22 6 21.6643 6 21.25C6 20.8358 6.33575 20.5 6.75 20.5H9.25V18H6.01475C3.79746 18 2 16.2025 2 13.9852V7.01475C2 4.79746 3.79746 3 6.01475 3ZM13.25 20.5V18H10.75V20.5H13.25Z" fill="black"/>
</svg>
