<svg width="24" height="24" viewBox="0 0 24 24" fill="none" xmlns="http://www.w3.org/2000/svg">
<path fill-rule="evenodd" clip-rule="evenodd" d="M12 3.5C13.1482 3.5 14.2613 3.7245 15.308 4.16725C16.32 4.59525 17.2292 5.2085 18.0102 5.9895C18.7912 6.7705 19.4045 7.67975 19.8325 8.69175C20.2753 9.73875 20.4998 10.8518 20.4998 11.9997C20.4998 13.1477 20.2753 14.261 19.8325 15.3078C19.4045 16.3197 18.7912 17.229 18.0102 18.01C17.2292 18.791 16.32 19.4042 15.308 19.8322C14.261 20.275 13.148 20.4995 12 20.4995C10.852 20.4995 9.73875 20.275 8.692 19.8322C7.68 19.4042 6.77075 18.791 5.98975 18.01C5.20875 17.229 4.5955 16.3197 4.1675 15.3078C3.72475 14.2607 3.50025 13.1477 3.50025 11.9997C3.50025 10.8518 3.72475 9.7385 4.1675 8.69175C4.5955 7.67975 5.20875 6.7705 5.98975 5.9895C6.77075 5.2085 7.68 4.59525 8.692 4.16725C9.739 3.7245 10.852 3.5 12 3.5ZM12 2C6.47725 2 2 6.47725 2 12C2 17.5228 6.47725 22 12 22C17.5228 22 22 17.5228 22 12C22 6.47725 17.5228 2 12 2ZM8.46967 8.46967C8.76256 8.17678 9.23744 8.17678 9.53033 8.46967L12 10.9393L14.4697 8.46967C14.7626 8.17678 15.2374 8.17678 15.5303 8.46967C15.8232 8.76256 15.8232 9.23744 15.5303 9.53033L13.0607 12L15.5303 14.4697C15.8232 14.7626 15.8232 15.2374 15.5303 15.5303C15.2374 15.8232 14.7626 15.8232 14.4697 15.5303L12 13.0607L9.53033 15.5303C9.23744 15.8232 8.76256 15.8232 8.46967 15.5303C8.17678 15.2374 8.17678 14.7626 8.46967 14.4697L10.9393 12L8.46967 9.53033C8.17678 9.23744 8.17678 8.76256 8.46967 8.46967Z" fill="black"/>
</svg>
