<?xml version="1.0" encoding="UTF-8"?>
<svg xmlns:svg="http://www.w3.org/2000/svg" viewBox="0 0 24 24" fill="none">
<svg:path d="M14 2H15.1715C15.702 2 16.2107 2.21075 16.5858 2.58575L19.4143 5.41425C19.7893 5.78925 20 6.298 20 6.8285V8V17.9852C20 20.2025 18.2025 22 15.9852 22H8.01475C5.7975 22 4 20.2025 4 17.9852V6.01475C4 3.7975 5.7975 2 8.01475 2H14ZM18.5 8V17.9852C18.5 19.372 17.372 20.5 15.9852 20.5H8.01475C6.628 20.5 5.5 19.372 5.5 17.9852V6.01475C5.5 4.628 6.628 3.5 8.01475 3.5H14V6C14 7.1045 14.8955 8 16 8H18.5ZM15.5 3.62312C15.5086 3.63059 15.5169 3.63839 15.525 3.6465L18.3535 6.475C18.3616 6.48311 18.3694 6.49145 18.3769 6.5H16C15.7243 6.5 15.5 6.27575 15.5 6V3.62312ZM8.25 12C8.25 11.5858 8.58579 11.25 9 11.25H15C15.4142 11.25 15.75 11.5858 15.75 12C15.75 12.4142 15.4142 12.75 15 12.75H9C8.58579 12.75 8.25 12.4142 8.25 12ZM9 15.25C8.58579 15.25 8.25 15.5858 8.25 16C8.25 16.4142 8.58579 16.75 9 16.75H15C15.4142 16.75 15.75 16.4142 15.75 16C15.75 15.5858 15.4142 15.25 15 15.25H9Z" fill="currentColor" fillRule="evenodd" clipRule="evenodd" />
</svg>
