<?xml version="1.0" encoding="UTF-8"?>
<svg xmlns:svg="http://www.w3.org/2000/svg" viewBox="0 0 24 24" fill="none">
<svg:path d="M15.5 3.62315C15.5086 3.63063 15.5169 3.63841 15.525 3.6465L18.3535 6.475C18.3616 6.48309 18.3694 6.49143 18.3768 6.5H16C15.7242 6.5 15.5 6.27575 15.5 6V3.62315ZM14 3.5V6C14 7.1045 14.8955 8 16 8H18.5V9.75C18.5 10.1643 18.8357 10.5 19.25 10.5C19.6643 10.5 20 10.1643 20 9.75V8V6.8285C20 6.36431 19.8386 5.91678 19.5471 5.56093C19.5054 5.51009 19.4611 5.46113 19.4142 5.41425L16.5858 2.58575C16.2342 2.23419 15.7651 2.02699 15.2707 2.00246C15.2377 2.00082 15.2047 2 15.1715 2H14H8.01475C5.7975 2 4 3.7975 4 6.01475V17.9852C4 20.2025 5.7975 22 8.01475 22H10.25C10.6643 22 11 21.6643 11 21.25C11 20.8357 10.6643 20.5 10.25 20.5H8.01475C6.626 20.5 5.5 19.374 5.5 17.9852V6.01475C5.5 4.626 6.626 3.5 8.01475 3.5H14ZM18 12C14.6863 12 12 14.6863 12 18C12 21.3137 14.6863 24 18 24C21.3137 24 24 21.3137 24 18C24 14.6863 21.3137 12 18 12ZM21.3535 16.561L18.0605 19.854C17.768 20.1465 17.384 20.2925 16.9998 20.2925C16.6155 20.2925 16.2315 20.1463 15.939 19.854L14.646 18.561C14.4507 18.3658 14.4507 18.0493 14.646 17.8538C14.8412 17.6585 15.1577 17.6585 15.3532 17.8538L16.6463 19.1467C16.8413 19.3417 17.1585 19.3417 17.3532 19.1467L20.6463 15.8538C20.8415 15.6585 21.158 15.6585 21.3535 15.8538C21.5488 16.049 21.5488 16.3655 21.3535 16.561Z" fill="currentColor" fillRule="evenodd" clipRule="evenodd" />
</svg>
