<svg width="24" height="24" viewBox="0 0 24 24" fill="none" xmlns="http://www.w3.org/2000/svg">
<path fill-rule="evenodd" clip-rule="evenodd" d="M16.5857 2.58575L19.4143 5.41425C19.7893 5.78925 20 6.298 20 6.8285V8V9.75C20 10.1713 19.6527 10.5112 19.229 10.4998C18.8205 10.4885 18.5 10.1433 18.5 9.7345V8H16C14.8955 8 14 7.1045 14 6V3.5H8.01475C6.626 3.5 5.5 4.626 5.5 6.01475V17.9852C5.5 19.374 6.626 20.5 8.01475 20.5H9.75C10.1643 20.5 10.5 20.8357 10.5 21.25C10.5 21.6643 10.1643 22 9.75 22H8.01475C5.7975 22 4 20.2025 4 17.9852V6.01475C4 3.7975 5.7975 2 8.01475 2H14H15.1715C15.702 2 16.2107 2.21075 16.5857 2.58575ZM15.5 3.62315V6C15.5 6.27575 15.7242 6.5 16 6.5H18.3769C18.3694 6.49145 18.3616 6.48311 18.3535 6.475L15.525 3.6465C15.5169 3.63841 15.5086 3.63063 15.5 3.62315ZM18 12C14.6863 12 12 14.6863 12 18C12 21.3137 14.6863 24 18 24C21.3137 24 24 21.3137 24 18C24 14.6863 21.3137 12 18 12ZM20.3535 20.3535C20.2558 20.4512 20.128 20.5 20 20.5C19.872 20.5 19.744 20.4512 19.6465 20.3535L18.0857 18.7928C17.708 18.415 17.5 17.9128 17.5 17.3785V14.9998C17.5 14.7235 17.7238 14.4998 18 14.4998C18.2762 14.4998 18.5 14.7235 18.5 14.9998V17.3785C18.5 17.6455 18.604 17.8968 18.793 18.0858L20.3538 19.6465C20.549 19.8417 20.5488 20.1583 20.3535 20.3535Z" fill="black"/>
</svg>
