<?xml version="1.0" encoding="UTF-8"?>
<svg xmlns:svg="http://www.w3.org/2000/svg" viewBox="0 0 24 24" fill="none">
<svg:path d="M11.6546 22C10.9232 20.8423 10.5 19.4706 10.5 18C10.5 13.8579 13.8579 10.5 18 10.5C18.6926 10.5 19.3633 10.5939 20 10.7696V8H16C14.8955 8 14 7.1045 14 6V2H8.01475C5.7975 2 4 3.7975 4 6.01475V17.9852C4 20.2025 5.7975 22 8.01475 22H11.6546ZM15.5 6V3.623V2.02775C15.9085 2.09575 16.289 2.289 16.5858 2.58575L19.4142 5.41425C19.711 5.711 19.9043 6.0915 19.9723 6.5H16C15.7242 6.5 15.5 6.27575 15.5 6ZM12.1219 16.7908C12.042 17.1814 12 17.5858 12 18C12 18.9561 12.2236 19.86 12.6214 20.6622C13.2577 21.9452 14.3395 22.9681 15.6645 23.5285C16.3823 23.8321 17.1716 24 18 24C18.9759 24 19.8974 23.767 20.7118 23.3537C21.9716 22.7143 22.9753 21.6434 23.5285 20.3355C23.8321 19.6177 24 18.8284 24 18C24 17.0356 23.7725 16.1244 23.3682 15.3171C22.7306 14.0438 21.6534 13.0289 20.3355 12.4715C19.6177 12.1679 18.8284 12 18 12C17.2987 12 16.6256 12.1203 16 12.3414C14.0391 13.0345 12.5461 14.7179 12.1219 16.7908ZM21.3535 16.561L18.0605 19.854C17.768 20.1465 17.384 20.2925 16.9998 20.2925C16.6155 20.2925 16.2315 20.1462 15.939 19.854L14.646 18.561C14.4508 18.3658 14.4508 18.0493 14.646 17.8538C14.8413 17.6585 15.1578 17.6585 15.3533 17.8538L16.6462 19.1467C16.8412 19.3417 17.1585 19.3417 17.3533 19.1467L20.6462 15.8538C20.8415 15.6585 21.158 15.6585 21.3535 15.8538C21.5487 16.049 21.5487 16.3655 21.3535 16.561Z" fill="currentColor" fillRule="evenodd" clipRule="evenodd" />
</svg>
