<?xml version="1.0" encoding="UTF-8"?>
<svg xmlns:svg="http://www.w3.org/2000/svg" viewBox="0 0 24 24" fill="none">
<svg:path d="M12.508 20.2215L12.2493 21.7233H12.2495C12.2335 21.8155 12.2223 21.9078 12.215 22H8.01476C5.79751 22 4 20.2025 4 17.9852V6.01475C4 3.7975 5.79751 2 8.01476 2H14V6.0005C14 7.105 14.8955 8.0005 16 8.0005H20V11.4985C19.875 11.3893 19.741 11.2898 19.5985 11.2018C19.12 10.9065 18.5673 10.7505 18 10.7505C17.4328 10.7505 16.88 10.9065 16.4015 11.2018C15.9205 11.4982 15.5333 11.924 15.2813 12.4325L14.6038 13.7995L13.096 14.0178C12.5385 14.0982 12.0165 14.33 11.587 14.6872C11.1553 15.0465 10.8328 15.519 10.6548 16.054C10.475 16.594 10.4513 17.1695 10.586 17.7182C10.7205 18.2658 11.0073 18.7648 11.4155 19.161L12.508 20.2215ZM15.5 3.623V6C15.5 6.27575 15.7242 6.5 16 6.5H19.9723C19.9043 6.0915 19.711 5.711 19.4142 5.41425L16.5858 2.58575C16.289 2.289 15.9085 2.09575 15.5 2.02775V3.623ZM23.5396 18.0846C23.9594 17.6771 24.1059 17.0804 23.9219 16.5276C23.7391 15.9786 23.2669 15.5856 22.6892 15.5021L20.5522 15.1928C20.4582 15.1793 20.3757 15.1181 20.3317 15.0296L19.3747 13.0983C19.1155 12.575 18.5887 12.25 18 12.25C17.4113 12.25 16.8845 12.575 16.6253 13.0983L15.6683 15.0296C15.6243 15.1183 15.542 15.1793 15.4478 15.1928L13.3108 15.5021C12.7331 15.5856 12.2609 15.9786 12.0781 16.5276C11.8941 17.0806 12.0406 17.6771 12.4604 18.0846L14.0023 19.5814C14.0763 19.6534 14.1101 19.7584 14.0921 19.8627L13.7278 21.978C13.6513 22.4217 13.7756 22.8717 14.0686 23.2127C14.3618 23.5542 14.7878 23.75 15.2373 23.75C15.4843 23.75 15.7318 23.6888 15.9533 23.5727L17.8695 22.5692C17.9105 22.5477 17.9545 22.537 18.0002 22.537C18.046 22.537 18.09 22.548 18.131 22.5692L20.0472 23.5725C20.2687 23.6885 20.5162 23.7498 20.7632 23.7498C21.2127 23.7498 21.6384 23.554 21.9319 23.2125C22.2249 22.8715 22.3489 22.4215 22.2727 21.9777L21.9084 19.8624C21.8904 19.7584 21.9239 19.6532 21.9982 19.5812L23.5401 18.0844L23.5396 18.0846Z" fill="currentColor" fillRule="evenodd" clipRule="evenodd" />
</svg>
