<svg width="24" height="24" viewBox="0 0 24 24" fill="none" xmlns="http://www.w3.org/2000/svg">
<path fill-rule="evenodd" clip-rule="evenodd" d="M17 8H16C14.8955 8 14 7.1045 14 6V2H8.01475C5.7975 2 4 3.7975 4 6.01475V17.9852C4 20.2025 5.7975 22 8.01475 22H15.9852C18.2025 22 20 20.2025 20 17.9852V8H17ZM13.7791 13.0929C13.2959 12.7834 12.7239 12.6491 12.1707 12.5196C10.9756 12.2394 10.7496 12.0873 10.7496 11.5623C10.7496 11.3551 10.8024 11.2028 11.0656 11.0833C11.2743 10.9886 11.523 10.9638 11.6038 10.9623H12.3957C12.4765 10.9638 12.7249 10.9886 12.9339 11.0833C12.9854 11.1068 13.0287 11.1313 13.0652 11.1576C13.0909 11.1821 13.1149 11.2093 13.1359 11.2403C13.2374 11.39 13.2491 11.5625 13.2501 11.5762L13.2501 11.5763C13.2501 11.5768 13.2501 11.577 13.2501 11.5771C13.2496 11.5676 13.2501 11.5626 13.2501 11.5626C13.2501 11.9768 13.5859 12.3126 14.0001 12.3126C14.4143 12.3126 14.75 11.9768 14.75 11.5626C14.75 11.5541 14.75 11.5426 14.7495 11.5278C14.7402 10.9031 14.483 10.3718 14.0243 10.0043C13.7441 9.76329 13.3349 9.54504 12.7502 9.48153V8.75002C12.7502 8.33576 12.4145 8 12.0002 8C11.586 8 11.2503 8.33576 11.2503 8.75002V9.49054C11.0473 9.51879 10.7801 9.57579 10.5089 9.69029C9.70921 10.0278 9.2505 10.7101 9.2505 11.5626C9.2505 12.3626 9.58597 13.0004 10.2209 13.4071C10.7041 13.7166 11.2761 13.8509 11.8293 13.9804C13.0244 14.2606 13.2504 14.4127 13.2504 14.9377C13.2504 15.1449 13.1976 15.2972 12.9344 15.4167C12.7257 15.5114 12.477 15.5362 12.3962 15.5377H11.6043C11.5235 15.5362 11.2751 15.5114 11.0661 15.4167C11.0146 15.3932 10.9713 15.3687 10.9348 15.3424C10.9091 15.3179 10.8851 15.2907 10.8641 15.2597C10.7626 15.11 10.7509 14.9375 10.7499 14.9238L10.7499 14.9237C10.7499 14.9233 10.7499 14.923 10.7499 14.9229C10.7504 14.9324 10.7499 14.9374 10.7499 14.9374C10.7499 14.5232 10.4141 14.1874 9.99993 14.1874C9.58572 14.1874 9.25 14.5232 9.25 14.9374C9.25 14.9459 9.25 14.9574 9.2505 14.9722C9.25975 15.5969 9.51698 16.1282 9.97568 16.4957C10.2559 16.7367 10.6651 16.955 11.2498 17.0185V17.75C11.2498 18.1642 11.5855 18.5 11.9997 18.5C12.414 18.5 12.7497 18.1642 12.7497 17.75V17.0095C12.9527 16.9812 13.2199 16.9242 13.4911 16.8097C14.2908 16.4722 14.7495 15.7899 14.7495 14.9374C14.7495 14.1374 14.414 13.4996 13.7791 13.0929ZM15.5 6V3.623V2.02775C15.9085 2.09575 16.289 2.289 16.5858 2.58575L19.4143 5.41425C19.711 5.711 19.9043 6.0915 19.9723 6.5H16C15.7242 6.5 15.5 6.27575 15.5 6Z" fill="black"/>
</svg>
