<?xml version="1.0" encoding="UTF-8"?>
<svg xmlns:svg="http://www.w3.org/2000/svg" viewBox="0 0 24 24" fill="none">
<svg:path d="M8.0145 20.5H11.5868H11.587C12.0433 20.5 12.3908 20.9095 12.3163 21.3598C12.3157 21.3626 12.3153 21.3655 12.3148 21.3684C12.3141 21.3727 12.3135 21.377 12.3128 21.3813C12.254 21.7383 11.9453 22 11.5835 22H8.01476C5.79751 22 4 20.2025 4 17.9852V6.01475C4 3.7975 5.79751 2 8.01476 2H14H15.1715C15.702 2 16.2108 2.21075 16.5858 2.58575L19.4143 5.41425C19.7893 5.78925 20 6.298 20 6.8285V8V10.2688C20 10.8008 19.4555 11.1593 18.9668 10.9493C18.9634 10.9479 18.96 10.9465 18.9566 10.945C18.9538 10.9438 18.951 10.9426 18.9483 10.9415C18.6758 10.8258 18.4998 10.5573 18.4998 10.261V8H16C14.8955 8 14 7.1045 14 6V3.5H8.0145C6.62575 3.5 5.49976 4.626 5.49976 6.01475V17.9852C5.49976 19.374 6.62575 20.5 8.0145 20.5ZM15.5 3.62337V6C15.5 6.27575 15.7242 6.5 16 6.5H18.3766C18.3691 6.49143 18.3613 6.48309 18.3533 6.475L15.5248 3.6465C15.5167 3.63849 15.5085 3.63077 15.5 3.62337ZM23.5396 18.0846C23.9594 17.6771 24.1059 17.0804 23.9219 16.5276C23.7391 15.9786 23.2669 15.5856 22.6892 15.5021L20.5522 15.1928C20.4582 15.1793 20.3757 15.1181 20.3317 15.0296L19.3747 13.0983C19.1155 12.575 18.5887 12.25 18 12.25C17.4113 12.25 16.8845 12.575 16.6253 13.0983L15.6683 15.0296C15.6243 15.1183 15.542 15.1793 15.4478 15.1928L13.3108 15.5021C12.7331 15.5856 12.2609 15.9786 12.0781 16.5276C11.8941 17.0806 12.0406 17.6771 12.4604 18.0846L14.0023 19.5814C14.0763 19.6534 14.1101 19.7584 14.0921 19.8627L13.7278 21.978C13.6513 22.4217 13.7756 22.8717 14.0686 23.2127C14.3618 23.5542 14.7878 23.75 15.2373 23.75C15.4843 23.75 15.7318 23.6888 15.9533 23.5727L17.8695 22.5692C17.9105 22.5477 17.9545 22.537 18.0002 22.537C18.046 22.537 18.09 22.548 18.131 22.5692L20.0472 23.5725C20.2687 23.6885 20.5162 23.7498 20.7632 23.7498C21.2127 23.7498 21.6384 23.554 21.9319 23.2125C22.2249 22.8715 22.3489 22.4215 22.2727 21.9777L21.9084 19.8624C21.8904 19.7584 21.9239 19.6532 21.9982 19.5812L23.5401 18.0844L23.5396 18.0846Z" fill="currentColor" fillRule="evenodd" clipRule="evenodd" />
</svg>
