<?xml version="1.0" encoding="UTF-8"?>
<svg xmlns:svg="http://www.w3.org/2000/svg" viewBox="0 0 24 24" fill="none">
<svg:path d="M12.3963 6.70714C12.7869 6.31661 12.7869 5.68343 12.3963 5.2929C12.0058 4.90237 11.3727 4.90237 10.9821 5.2929L6.04287 10.2322C5.0666 11.2085 5.0666 12.7915 6.04287 13.7678L10.9821 18.7071C11.3727 19.0976 12.0058 19.0976 12.3963 18.7071C12.7869 18.3166 12.7869 17.6834 12.3963 17.2929L7.45709 12.3535C7.26186 12.1583 7.26186 11.8417 7.45709 11.6465L12.3963 6.70714ZM18.3963 6.70714C18.7869 6.31661 18.7869 5.68343 18.3963 5.2929C18.0058 4.90237 17.3727 4.90237 16.9821 5.2929L12.0429 10.2322C11.0666 11.2085 11.0666 12.7915 12.0429 13.7678L16.9821 18.7071C17.3727 19.0976 18.0058 19.0976 18.3963 18.7071C18.7869 18.3166 18.7869 17.6834 18.3963 17.2929L13.4571 12.3535C13.2619 12.1583 13.2619 11.8417 13.4571 11.6465L18.3963 6.70714Z" fill="currentColor" fillRule="evenodd" clipRule="evenodd" />
</svg>
