<?xml version="1.0" encoding="UTF-8"?>
<svg xmlns:svg="http://www.w3.org/2000/svg" viewBox="0 0 24 24" fill="none">
<svg:path d="M6.84112 5.46967C6.54823 5.17678 6.07335 5.17678 5.78046 5.46967C5.48757 5.76257 5.48757 6.23746 5.78046 6.53035L10.7197 11.4697C11.0126 11.7626 11.0126 12.2374 10.7197 12.5303L5.78046 17.4696C5.48757 17.7625 5.48757 18.2374 5.78046 18.5303C6.07335 18.8232 6.54823 18.8232 6.84112 18.5303L11.7804 13.591C12.659 12.7123 12.659 11.2877 11.7804 10.409L6.84112 5.46967ZM12.8411 5.46967C12.5482 5.17678 12.0734 5.17678 11.7805 5.46967C11.4876 5.76257 11.4876 6.23746 11.7805 6.53035L16.7197 11.4697C17.0126 11.7626 17.0126 12.2374 16.7197 12.5303L11.7805 17.4696C11.4876 17.7625 11.4876 18.2374 11.7805 18.5303C12.0734 18.8232 12.5482 18.8232 12.8411 18.5303L17.7804 13.591C18.659 12.7123 18.659 11.2877 17.7804 10.409L12.8411 5.46967Z" fill="currentColor" fillRule="evenodd" clipRule="evenodd" />
</svg>
