<?xml version="1.0" encoding="UTF-8"?>
<svg xmlns:svg="http://www.w3.org/2000/svg" viewBox="0 0 24 24" fill="none">
<svg:path d="M6.53035 5.7804C6.23746 5.48751 5.76257 5.48751 5.46967 5.7804C5.17678 6.07329 5.17678 6.54817 5.46967 6.84106L10.409 11.7803C11.2877 12.659 12.7123 12.659 13.591 11.7803L18.5303 6.84106C18.8232 6.54817 18.8232 6.07329 18.5303 5.7804C18.2374 5.48751 17.7625 5.48751 17.4696 5.7804L12.5303 10.7196C12.2374 11.0125 11.7626 11.0125 11.4697 10.7196L6.53035 5.7804ZM6.53035 11.7804C6.23746 11.4875 5.76257 11.4875 5.46967 11.7804C5.17678 12.0733 5.17678 12.5482 5.46967 12.8411L10.409 17.7803C11.2877 18.659 12.7123 18.659 13.591 17.7803L18.5303 12.8411C18.8232 12.5482 18.8232 12.0733 18.5303 11.7804C18.2374 11.4875 17.7625 11.4875 17.4696 11.7804L12.5303 16.7197C12.2374 17.0125 11.7626 17.0125 11.4697 16.7197L6.53035 11.7804Z" fill="currentColor" fillRule="evenodd" clipRule="evenodd" />
</svg>
