<?xml version="1.0" encoding="UTF-8"?>
<svg xmlns:svg="http://www.w3.org/2000/svg" viewBox="0 0 24 24" fill="none">
<svg:path d="M11.4697 7.28032C11.7625 6.98745 12.2374 6.98745 12.5303 7.28032L12.9411 6.86948L12.5303 7.28032L17.4697 12.2196C17.7626 12.5125 18.2374 12.5125 18.5303 12.2196C18.8232 11.9267 18.8232 11.4518 18.5303 11.1589L13.591 6.21965C12.7123 5.34101 11.2877 5.34101 10.409 6.21965L10.9393 6.74998L10.409 6.21965L5.46968 11.1589C5.17678 11.4518 5.17677 11.9267 5.46966 12.2196C5.76256 12.5125 6.23743 12.5125 6.53032 12.2196L11.4697 7.28032ZM11.4697 13.2803C11.7625 12.9875 12.2374 12.9875 12.5303 13.2803L17.4697 18.2196C17.7626 18.5125 18.2374 18.5125 18.5303 18.2196C18.8232 17.9267 18.8232 17.4518 18.5303 17.1589L13.591 12.2196C12.7123 11.341 11.2877 11.341 10.409 12.2196L5.46968 17.1589C5.17678 17.4518 5.17677 17.9267 5.46966 18.2196C5.76256 18.5125 6.23743 18.5125 6.53032 18.2196L11.4697 13.2803Z" fill="currentColor" fillRule="evenodd" clipRule="evenodd" />
</svg>
