<?xml version="1.0" encoding="UTF-8"?>
<svg xmlns:svg="http://www.w3.org/2000/svg" viewBox="0 0 24 24" fill="none">
<svg:path d="M12.2196 6.53035C12.5125 6.23746 12.5125 5.76257 12.2196 5.46967C11.9267 5.17678 11.4518 5.17678 11.1589 5.46967L6.21965 10.409C5.34101 11.2877 5.34101 12.7123 6.21965 13.591L11.1589 18.5303C11.4518 18.8232 11.9267 18.8232 12.2196 18.5303C12.5125 18.2374 12.5125 17.7625 12.2196 17.4696L7.28031 12.5303C6.98745 12.2374 6.98745 11.7626 7.28031 11.4697L12.2196 6.53035ZM18.2196 6.53035C18.5125 6.23746 18.5125 5.76257 18.2196 5.46967C17.9267 5.17678 17.4518 5.17678 17.1589 5.46967L12.2197 10.409C11.341 11.2877 11.341 12.7123 12.2197 13.591L17.1589 18.5303C17.4518 18.8232 17.9267 18.8232 18.2196 18.5303C18.5125 18.2374 18.5125 17.7625 18.2196 17.4696L13.2803 12.5303C12.9875 12.2374 12.9875 11.7626 13.2803 11.4697L18.2196 6.53035Z" fill="currentColor" fillRule="evenodd" clipRule="evenodd" />
</svg>
