<svg width="24" height="24" viewBox="0 0 24 24" fill="none" xmlns="http://www.w3.org/2000/svg">
<path fill-rule="evenodd" clip-rule="evenodd" d="M6.7071 5.60362C6.31657 5.2131 5.68341 5.2131 5.29289 5.60363C4.90237 5.99416 4.90237 6.62732 5.2929 7.01784L10.2323 11.9571C11.2085 12.9334 12.7915 12.9334 13.7677 11.9571L18.7071 7.01784C19.0976 6.62732 19.0976 5.99416 18.7071 5.60363C18.3166 5.2131 17.6834 5.2131 17.2929 5.60362L12.3535 10.5429C12.1583 10.7381 11.8417 10.7381 11.6465 10.5429L6.7071 5.60362ZM6.7071 11.6036C6.31657 11.2131 5.68341 11.2131 5.29289 11.6036C4.90237 11.9942 4.90237 12.6273 5.2929 13.0178L10.2323 17.9571C11.2085 18.9334 12.7915 18.9334 13.7677 17.9571L18.7071 13.0178C19.0976 12.6273 19.0976 11.9942 18.7071 11.6036C18.3166 11.2131 17.6834 11.2131 17.2929 11.6036L12.3535 16.5429C12.1583 16.7381 11.8417 16.7381 11.6465 16.5429L6.7071 11.6036Z" fill="black"/>
</svg>
