<?xml version="1.0" encoding="UTF-8"?>
<svg xmlns:svg="http://www.w3.org/2000/svg" viewBox="0 0 24 24" fill="none">
<svg:path d="M11.6465 7.4571C11.8417 7.26186 12.1583 7.26186 12.3535 7.4571L17.2929 12.3963C17.6834 12.7869 18.3166 12.7869 18.7071 12.3963C19.0976 12.0058 19.0976 11.3726 18.7071 10.9821L13.7677 6.04287C12.7915 5.0666 11.2085 5.0666 10.2323 6.04287L5.2929 10.9821C4.90237 11.3726 4.90237 12.0058 5.29289 12.3963C5.68341 12.7869 6.31657 12.7869 6.7071 12.3963L11.6465 7.4571ZM11.6465 13.4571C11.8417 13.2619 12.1583 13.2619 12.3535 13.4571L17.2929 18.3964C17.6834 18.7869 18.3166 18.7869 18.7071 18.3963C19.0976 18.0058 19.0976 17.3726 18.7071 16.9821L13.7677 12.0429C12.7915 11.0666 11.2085 11.0666 10.2323 12.0429L5.2929 16.9821C4.90237 17.3726 4.90237 18.0058 5.29289 18.3963C5.68341 18.7869 6.31657 18.7869 6.7071 18.3964L11.6465 13.4571Z" fill="currentColor" fillRule="evenodd" clipRule="evenodd" />
</svg>
