<?xml version="1.0" encoding="UTF-8"?>
<svg xmlns:svg="http://www.w3.org/2000/svg" viewBox="0 0 24 24" fill="none">
<svg:path d="M12 3.5C13.1482 3.5 14.2613 3.7245 15.3083 4.16725C15.4309 4.21914 15.5521 4.27375 15.6718 4.33106C15.4475 4.57429 15.1959 4.85414 14.943 5.14925C14.488 5.68025 14.1228 6.15125 13.8573 6.5495C13.446 7.1665 13.2625 7.61775 13.2625 8.0125C13.2625 8.75025 13.7218 9.18325 14.057 9.49925C14.4507 9.87074 14.7625 10.1649 14.7625 11.0125C14.7625 11.816 14.3452 12.67 14.3418 12.677C14.2255 12.9095 14.2378 13.1855 14.3745 13.4068C14.5113 13.628 14.7525 13.7625 15.0125 13.7625H16.8503C17.0775 13.7625 17.2625 13.9475 17.2625 14.1748C17.2625 14.3525 17.1492 14.5095 16.9808 14.5658L16.963 14.5717C16.2062 14.824 15.5973 15.3913 15.292 16.1283C14.9867 16.8653 15.0162 17.697 15.373 18.4105L15.936 19.5364C15.7315 19.6433 15.5222 19.742 15.3083 19.8325C14.2613 20.2753 13.1482 20.4998 12 20.4998C10.8518 20.4998 9.73875 20.2753 8.69175 19.8325C8.24714 19.6445 7.82235 19.4207 7.41957 19.1626C7.3162 18.9131 7.20761 18.5742 7.17075 18.191C7.07475 17.1948 7.5095 16.3273 8.46225 15.6125C9.549 14.7973 10.0998 14.0173 10.1953 13.1578C10.2823 12.375 9.964 11.7385 9.68325 11.177C9.468 10.7467 9.28225 10.375 9.32025 10.0328C9.3655 9.62475 9.74975 9.14675 10.4623 8.6125C11.439 7.87975 11.9688 6.99175 12.037 5.97275C12.1005 5.02436 11.7332 4.15779 11.3461 3.52452C11.5627 3.50819 11.7807 3.5 12 3.5ZM12 2C6.47725 2 2 6.47725 2 12C2 17.5228 6.47725 22 12 22C17.5228 22 22 17.5228 22 12C22 6.47725 17.5228 2 12 2Z" fill="currentColor" fillRule="evenodd" clipRule="evenodd" />
</svg>
