<svg width="24" height="24" viewBox="0 0 24 24" fill="none" xmlns="http://www.w3.org/2000/svg">
<path fill-rule="evenodd" clip-rule="evenodd" d="M19.9089 4.09075C19.5279 3.70978 19.0215 3.50003 18.4828 3.5C17.9441 3.50003 17.4376 3.70978 17.0567 4.09075L15.6041 5.54339L18.4563 8.39563L19.9089 6.943C20.6954 6.15675 20.6954 4.87725 19.9089 4.09075ZM17.3956 9.45629L14.5434 6.60406L5.02681 16.1208C4.65931 16.4883 4.42007 16.9533 4.33457 17.466L4.00732 19.4292C3.97632 19.6143 4.04882 19.7462 4.11507 19.8245C4.15982 19.8772 4.28507 20 4.48357 20C4.51182 20 4.54107 19.9975 4.57057 19.9925L6.53379 19.6652C7.04629 19.58 7.51153 19.3405 7.87903 18.973L17.3956 9.45629ZM15.9962 3.03C16.6829 2.34325 17.5829 2 18.4829 2H18.4832C19.3832 2 20.2831 2.34325 20.9699 3.03C22.3434 4.4035 22.3434 6.63025 20.9699 8.00375L8.94002 20.0337C8.35352 20.6203 7.59853 21.0087 6.78054 21.145L4.81731 21.4723C4.70481 21.491 4.59331 21.5 4.48382 21.5C3.28508 21.5 2.32209 20.4167 2.52784 19.1828L2.85508 17.2195C2.99133 16.4015 3.37983 15.6465 3.96632 15.06L15.9962 3.03Z" fill="black"/>
</svg>
