<svg width="24" height="24" viewBox="0 0 24 24" fill="none" xmlns="http://www.w3.org/2000/svg">
<path fill-rule="evenodd" clip-rule="evenodd" d="M12 2C6.47725 2 2 6.47725 2 12C2 17.5228 6.47725 22 12 22C17.5228 22 22 17.5228 22 12C22 6.47725 17.5228 2 12 2ZM7.88581 6.85687C7.53065 6.64377 7.06998 6.75894 6.85688 7.1141C6.64378 7.46926 6.75895 7.92992 7.11411 8.14301L8.05763 8.70911C7.72147 8.93316 7.5 9.31572 7.5 9.75C7.5 10.4404 8.05964 11 8.75 11C9.44036 11 10 10.4404 10 9.75V9.74988C10.2545 9.74958 10.5025 9.61975 10.6429 9.38567C10.856 9.03051 10.7408 8.56985 10.3857 8.35676L7.88581 6.85687ZM15.25 11C15.9404 11 16.5 10.4404 16.5 9.75C16.5 9.31567 16.2785 8.93308 15.9423 8.70904L16.8857 8.14301C17.2408 7.92992 17.356 7.46926 17.1429 7.1141C16.9298 6.75894 16.4691 6.64377 16.114 6.85687L13.6141 8.35676C13.2589 8.56985 13.1438 9.03051 13.3569 9.38567C13.4974 9.61982 13.7455 9.74966 14 9.74988V9.75C14 10.4404 14.5596 11 15.25 11ZM8.6 16.2C8.3515 16.5313 7.88125 16.5985 7.55 16.35C7.21875 16.1015 7.1515 15.6313 7.4 15.3C8.101 14.3658 9.07824 13.6747 10.2262 13.3018C11.088 13.0218 11.8017 13 12 13C13.168 13 14.307 13.3673 15.2942 14.062C16.0355 14.5835 16.481 15.1415 16.6 15.3C16.8485 15.6315 16.7812 16.1015 16.45 16.35C16.1187 16.5985 15.6485 16.5313 15.4 16.2C15.2695 16.026 14.0652 14.5 12 14.5C11.7825 14.5 9.83925 14.5478 8.6 16.2Z" fill="black"/>
</svg>
