<svg width="24" height="24" viewBox="0 0 24 24" fill="none" xmlns="http://www.w3.org/2000/svg">
<path fill-rule="evenodd" clip-rule="evenodd" d="M2 12C2 6.47725 6.47725 2 12 2C17.5228 2 22 6.47725 22 12C22 17.5228 17.5228 22 12 22C6.47725 22 2 17.5228 2 12ZM10 9.76075C10 10.4511 9.44036 11.0107 8.75 11.0107C8.05964 11.0107 7.5 10.4511 7.5 9.76075C7.5 9.07039 8.05964 8.51075 8.75 8.51075C9.44036 8.51075 10 9.07039 10 9.76075ZM15.25 11.0107C15.9404 11.0107 16.5 10.4511 16.5 9.76075C16.5 9.07039 15.9404 8.51075 15.25 8.51075C14.5596 8.51075 14 9.07039 14 9.76075C14 10.4511 14.5596 11.0107 15.25 11.0107ZM16.0016 14.75C16.4151 14.7492 16.75 14.4137 16.75 14C16.75 13.5858 16.4142 13.25 16 13.25C16.0198 13.2497 15.9425 13.2497 15.8331 13.2547C15.7349 13.2591 15.5963 13.2679 15.4254 13.285C15.0842 13.3191 14.61 13.3869 14.0681 13.5224C12.9929 13.7912 11.6001 14.3393 10.4697 15.4697C10.1768 15.7626 10.1768 16.2374 10.4697 16.5303C10.7626 16.8232 11.2374 16.8232 11.5303 16.5303C12.3999 15.6607 13.5071 15.2088 14.4319 14.9776C14.89 14.8631 15.2908 14.8059 15.5746 14.7775C15.8359 14.7514 15.995 14.75 16.0016 14.75Z" fill="black"/>
</svg>
