<?xml version="1.0" encoding="UTF-8"?>
<svg xmlns:svg="http://www.w3.org/2000/svg" viewBox="0 0 24 24" fill="none">
<svg:path d="M2 12C2 6.47725 6.47725 2 12 2C17.5228 2 22 6.47725 22 12C22 17.5228 17.5228 22 12 22C6.47725 22 2 17.5228 2 12ZM7.99988 9.75409C8.00913 10.157 7.68113 10.491 7.26712 10.5V10.4995C6.85335 10.5085 6.50983 10.1893 6.50058 9.78634C6.48608 9.16416 6.74209 8.55798 7.20286 8.12304C7.65362 7.69759 8.26139 7.47161 8.87066 7.50286C10.076 7.5651 11.031 8.59048 10.9992 9.78884C10.9887 10.1853 10.6552 10.4998 10.25 10.4998C10.2478 10.4998 10.2456 10.4999 10.2434 10.4999C10.2412 10.4999 10.239 10.4998 10.2367 10.4998C10.2346 10.4998 10.2324 10.4998 10.2302 10.4998C9.8162 10.4895 9.48918 10.1545 9.49993 9.75159C9.51093 9.34314 9.18643 8.98093 8.79141 8.96069C8.59766 8.95069 8.39939 9.02743 8.24713 9.17116C8.08262 9.32664 7.99488 9.53362 7.99988 9.75409ZM14.4999 9.75409C14.5091 10.157 14.1811 10.491 13.7671 10.5V10.4995C13.3534 10.5085 13.0098 10.1893 13.0006 9.78634C12.9861 9.16416 13.2421 8.55798 13.7029 8.12304C14.1536 7.69759 14.7614 7.47161 15.3707 7.50286C16.576 7.5651 17.531 8.59048 17.4992 9.78884C17.4887 10.1853 17.1552 10.4998 16.75 10.4998C16.7493 10.4998 16.7486 10.4998 16.7478 10.4998C16.7474 10.4998 16.7469 10.4998 16.7464 10.4998C16.7447 10.4999 16.743 10.4999 16.7412 10.4999C16.7397 10.4998 16.7382 10.4998 16.7367 10.4998C16.7352 10.4998 16.7337 10.4998 16.7322 10.4998C16.7315 10.4998 16.7309 10.4998 16.7302 10.4998C16.3162 10.4895 15.9892 10.1545 15.9999 9.75159C16.0109 9.34314 15.6864 8.98093 15.2914 8.96069C15.0977 8.95069 14.8994 9.02743 14.7471 9.17116C14.5826 9.32664 14.4949 9.53362 14.4999 9.75409ZM15.9692 14C15.8602 14.879 15.4647 15.692 14.8285 16.3285C14.073 17.084 13.0685 17.5 12 17.5C10.9315 17.5 9.92701 17.084 9.17151 16.3285C8.53526 15.6923 8.13951 14.8792 8.03076 14H15.9692ZM16.5 12.5H7.5C6.94775 12.5 6.5 12.9477 6.5 13.5C6.5 16.5375 8.9625 19 12 19C15.0375 19 17.5 16.5375 17.5 13.5C17.5 12.9477 17.0523 12.5 16.5 12.5Z" fill="currentColor" fillRule="evenodd" clipRule="evenodd" />
</svg>
