<?xml version="1.0" encoding="UTF-8"?>
<svg xmlns:svg="http://www.w3.org/2000/svg" viewBox="0 0 24 24" fill="none">
<svg:path d="M12 3.5C13.1482 3.5 14.2613 3.7245 15.308 4.16725C16.32 4.59525 17.2292 5.2085 18.0102 5.9895C18.7912 6.7705 19.4045 7.67975 19.8325 8.69175C20.2753 9.73875 20.4998 10.8518 20.4998 11.9997C20.4998 13.1477 20.2753 14.261 19.8325 15.3078C19.4045 16.3197 18.7915 17.229 18.0102 18.01C17.2292 18.791 16.32 19.4042 15.308 19.8322C14.261 20.275 13.148 20.4995 12 20.4995C10.852 20.4995 9.73875 20.275 8.692 19.8322C7.68 19.4042 6.77075 18.791 5.98975 18.01C5.20875 17.229 4.5955 16.3197 4.1675 15.3078C3.72475 14.2607 3.50025 13.1477 3.50025 11.9997C3.50025 10.8518 3.72475 9.7385 4.1675 8.69175C4.5955 7.67975 5.20875 6.7705 5.98975 5.9895C6.77075 5.2085 7.68 4.59525 8.692 4.16725C9.739 3.7245 10.852 3.5 12 3.5ZM12 2C6.47725 2 2 6.47725 2 12C2 17.5228 6.47725 22 12 22C17.5228 22 22 17.5228 22 12C22 6.47725 17.5228 2 12 2ZM10 9.75C10 10.4404 9.44036 11 8.75 11C8.05964 11 7.5 10.4404 7.5 9.75C7.5 9.05964 8.05964 8.5 8.75 8.5C9.44036 8.5 10 9.05964 10 9.75ZM16.5 9.75C16.5 10.4404 15.9404 11 15.25 11C14.5596 11 14 10.4404 14 9.75C14 9.05964 14.5596 8.5 15.25 8.5C15.9404 8.5 16.5 9.05964 16.5 9.75ZM14.1305 15.1C14.4238 14.9295 14.792 14.9806 15.0303 15.2258H15.0298C15.3793 15.5851 15.3023 16.1896 14.8728 16.4407C14.5275 16.6424 14.1585 16.8097 13.77 16.9396C12.9077 17.2278 12.1934 17.25 11.9951 17.25C11.7846 17.2492 11.0793 17.2234 10.23 16.9396C9.8415 16.8099 9.47248 16.6424 9.12721 16.4407C8.69768 16.1899 8.62068 15.5851 8.9702 15.2258C9.20896 14.9801 9.57748 14.93 9.8715 15.1008C10.8533 15.6713 11.8161 15.7053 11.9954 15.7063C12.1464 15.7063 13.1289 15.6825 14.1305 15.1Z" fill="currentColor" fillRule="evenodd" clipRule="evenodd" />
</svg>
