<?xml version="1.0" encoding="UTF-8"?>
<svg xmlns:svg="http://www.w3.org/2000/svg" viewBox="0 0 24 24" fill="none">
<svg:path d="M2 12C2 6.47725 6.47725 2 12 2C17.5228 2 22 6.47725 22 12C22 17.5228 17.5228 22 12 22C6.47725 22 2 17.5228 2 12ZM10.0427 11.7676C10.3286 11.468 10.3174 10.9933 10.0177 10.7073C9.71805 10.4214 9.24333 10.4326 8.95742 10.7323C8.50128 11.2104 7.84051 11.3677 7.24758 11.1605C6.85658 11.0238 6.42884 11.23 6.29219 11.621C6.15555 12.012 6.36175 12.4397 6.75275 12.5764C7.91524 12.9826 9.19036 12.661 10.0427 11.7676ZM13.9823 10.7073C14.2819 10.4214 14.7567 10.4326 15.0426 10.7323C15.4987 11.2104 16.1595 11.3677 16.7524 11.1605C17.1434 11.0238 17.5712 11.23 17.7078 11.621C17.8445 12.012 17.6383 12.4397 17.2473 12.5764C16.0848 12.9826 14.8096 12.661 13.9573 11.7676C13.6714 11.468 13.6826 10.9933 13.9823 10.7073ZM9.86949 17.15C9.57623 17.3205 9.20796 17.2694 8.9697 17.0242H8.9702C8.62068 16.6649 8.69768 16.0604 9.1272 15.8093C9.47247 15.6076 9.8415 15.4403 10.23 15.3104C11.0923 15.0222 11.8066 15 12.0049 15C12.2154 15.0008 12.9207 15.0266 13.77 15.3104C14.1585 15.4401 14.5275 15.6076 14.8728 15.8093C15.3023 16.0601 15.3793 16.6649 15.0298 17.0242C14.791 17.2699 14.4225 17.32 14.1285 17.1492C13.1467 16.5787 12.1839 16.5447 12.0046 16.5437C11.8536 16.5437 10.8711 16.5675 9.86949 17.15Z" fill="currentColor" fillRule="evenodd" clipRule="evenodd" />
</svg>
