<svg width="24" height="24" viewBox="0 0 24 24" fill="none" xmlns="http://www.w3.org/2000/svg">
<path fill-rule="evenodd" clip-rule="evenodd" d="M12 2C6.47725 2 2 6.47725 2 12C2 17.5228 6.47725 22 12 22C17.5228 22 22 17.5228 22 12C22 6.47725 17.5228 2 12 2ZM10 9.75C10 10.4404 9.44036 11 8.75 11C8.05964 11 7.5 10.4404 7.5 9.75C7.5 9.05964 8.05964 8.5 8.75 8.5C9.44036 8.5 10 9.05964 10 9.75ZM16.5 9.75C16.5 10.4404 15.9404 11 15.25 11C14.5596 11 14 10.4404 14 9.75C14 9.05964 14.5596 8.5 15.25 8.5C15.9404 8.5 16.5 9.05964 16.5 9.75ZM14.25 15.5C14.25 16.8807 13.2426 18 12 18C10.7574 18 9.75 16.8807 9.75 15.5C9.75 14.1193 10.7574 13 12 13C13.2426 13 14.25 14.1193 14.25 15.5Z" fill="black"/>
</svg>
