<?xml version="1.0" encoding="UTF-8"?>
<svg xmlns:svg="http://www.w3.org/2000/svg" viewBox="0 0 24 24" fill="none">
<svg:path d="M2 12C2 6.47725 6.47725 2 12 2C17.5228 2 22 6.47725 22 12C22 17.5228 17.5228 22 12 22C6.47725 22 2 17.5228 2 12ZM10 9.76075C10 10.4511 9.44036 11.0107 8.75 11.0107C8.05964 11.0107 7.5 10.4511 7.5 9.76075C7.5 9.07039 8.05964 8.51075 8.75 8.51075C9.44036 8.51075 10 9.07039 10 9.76075ZM15.25 11.0107C15.9404 11.0107 16.5 10.4511 16.5 9.76075C16.5 9.07039 15.9404 8.51075 15.25 8.51075C14.5596 8.51075 14 9.07039 14 9.76075C14 10.4511 14.5596 11.0107 15.25 11.0107ZM8.6 16.2C8.3515 16.5313 7.88125 16.5985 7.55 16.35C7.21875 16.1015 7.1515 15.6313 7.4 15.3C8.101 14.3658 9.07825 13.6747 10.2263 13.3018C11.088 13.0218 11.8018 13 12 13C13.168 13 14.307 13.3673 15.2943 14.062C16.0355 14.5835 16.481 15.1415 16.6 15.3C16.8485 15.6315 16.7813 16.1015 16.45 16.35C16.1188 16.5985 15.6485 16.5313 15.4 16.2C15.2695 16.026 14.0653 14.5 12 14.5C11.7825 14.5 9.83925 14.5478 8.6 16.2Z" fill="currentColor" fillRule="evenodd" clipRule="evenodd" />
</svg>
