<?xml version="1.0" encoding="UTF-8"?>
<svg xmlns:svg="http://www.w3.org/2000/svg" viewBox="0 0 24 24" fill="none">
<svg:path d="M12 3.5C13.1482 3.5 14.2612 3.7245 15.308 4.16725C16.32 4.59525 17.2293 5.2085 18.0103 5.9895C18.7913 6.7705 19.4045 7.67975 19.8325 8.69175C20.2752 9.73875 20.4998 10.8518 20.4998 11.9997C20.4998 13.1477 20.2752 14.261 19.8325 15.3078C19.4045 16.3197 18.7915 17.229 18.0103 18.01C17.2293 18.791 16.32 19.4042 15.308 19.8322C14.261 20.275 13.148 20.4995 12 20.4995C10.852 20.4995 9.73875 20.275 8.69175 19.8322C7.67975 19.4042 6.7705 18.791 5.9895 18.01C5.2085 17.229 4.59525 16.3197 4.16725 15.3078C3.7245 14.2607 3.5 13.1477 3.5 11.9997C3.5 10.8518 3.7245 9.7385 4.16725 8.69175C4.59525 7.67975 5.20825 6.7705 5.9895 5.9895C6.7705 5.2085 7.67975 4.59525 8.69175 4.16725C9.73875 3.7245 10.8518 3.5 12 3.5ZM12 2C6.47725 2 2 6.47725 2 12C2 17.5228 6.47725 22 12 22C17.5228 22 22 17.5228 22 12C22 6.47725 17.5228 2 12 2ZM7.88581 6.85687C7.53065 6.64377 7.06998 6.75894 6.85688 7.1141C6.64378 7.46926 6.75895 7.92992 7.11411 8.14301L8.05763 8.70911C7.72147 8.93316 7.5 9.31572 7.5 9.75C7.5 10.4404 8.05964 11 8.75 11C9.44036 11 10 10.4404 10 9.75V9.74988C10.2545 9.74958 10.5025 9.61975 10.6429 9.38567C10.856 9.03051 10.7408 8.56985 10.3857 8.35676L7.88581 6.85687ZM15.25 11C15.9404 11 16.5 10.4404 16.5 9.75C16.5 9.31567 16.2785 8.93308 15.9423 8.70904L16.8857 8.14301C17.2408 7.92992 17.356 7.46926 17.1429 7.1141C16.9298 6.75894 16.4691 6.64377 16.114 6.85687L13.6141 8.35676C13.2589 8.56985 13.1438 9.03051 13.3569 9.38567C13.4974 9.61982 13.7455 9.74966 14 9.74988V9.75C14 10.4404 14.5596 11 15.25 11ZM8.6 16.2C8.3515 16.5313 7.88125 16.5985 7.55 16.35C7.21875 16.1015 7.1515 15.6313 7.4 15.3C8.101 14.3658 9.07824 13.6747 10.2262 13.3018C11.088 13.0218 11.8017 13 12 13C13.168 13 14.307 13.3673 15.2942 14.062C16.0355 14.5835 16.481 15.1415 16.6 15.3C16.8485 15.6315 16.7812 16.1015 16.45 16.35C16.1187 16.5985 15.6485 16.5313 15.4 16.2C15.2695 16.026 14.0652 14.5 12 14.5C11.7825 14.5 9.83925 14.5478 8.6 16.2Z" fill="currentColor" fillRule="evenodd" clipRule="evenodd" />
</svg>
