<?xml version="1.0" encoding="UTF-8"?>
<svg xmlns:svg="http://www.w3.org/2000/svg" viewBox="0 0 24 24" fill="none">
<svg:path d="M12 2C6.47725 2 2 6.47725 2 12C2 17.5228 6.47725 22 12 22C17.5228 22 22 17.5228 22 12C22 6.47725 17.5228 2 12 2ZM10 9.75C10 10.4404 9.44036 11 8.75 11C8.05964 11 7.5 10.4404 7.5 9.75C7.5 9.05964 8.05964 8.5 8.75 8.5C9.44036 8.5 10 9.05964 10 9.75ZM16.5 9.75C16.5 10.4404 15.9404 11 15.25 11C14.5596 11 14 10.4404 14 9.75C14 9.05964 14.5596 8.5 15.25 8.5C15.9404 8.5 16.5 9.05964 16.5 9.75ZM14.1305 15.1C14.4238 14.9295 14.792 14.9806 15.0303 15.2258H15.0298C15.3793 15.5851 15.3023 16.1896 14.8728 16.4407C14.5275 16.6424 14.1585 16.8097 13.77 16.9396C12.9077 17.2278 12.1934 17.25 11.9951 17.25C11.7846 17.2492 11.0793 17.2234 10.23 16.9396C9.8415 16.8099 9.47248 16.6424 9.12721 16.4407C8.69768 16.1899 8.62068 15.5851 8.9702 15.2258C9.20896 14.9801 9.57748 14.93 9.8715 15.1008C10.8533 15.6713 11.8161 15.7053 11.9954 15.7063C12.1464 15.7063 13.1289 15.6825 14.1305 15.1Z" fill="currentColor" fillRule="evenodd" clipRule="evenodd" />
</svg>
