<svg width="24" height="24" viewBox="0 0 24 24" fill="none" xmlns="http://www.w3.org/2000/svg">
<path fill-rule="evenodd" clip-rule="evenodd" d="M12 3.5C13.1482 3.5 14.2613 3.7245 15.3083 4.16725C16.3203 4.59525 17.2295 5.2085 18.0105 5.9895C18.7915 6.7705 19.4048 7.67975 19.8328 8.69175C20.2755 9.73875 20.5 10.8518 20.5 11.9997C20.5 13.1477 20.2755 14.261 19.8328 15.3078C19.4048 16.3197 18.7915 17.229 18.0105 18.01C17.2295 18.791 16.3203 19.4042 15.3083 19.8322C14.2613 20.275 13.1482 20.4995 12 20.4995C10.8518 20.4995 9.73875 20.275 8.69175 19.8322C7.67975 19.4042 6.7705 18.791 5.9895 18.01C5.2085 17.229 4.59525 16.3197 4.16725 15.3078C3.7245 14.2607 3.5 13.1477 3.5 11.9997C3.5 10.8518 3.7245 9.7385 4.16725 8.69175C4.59525 7.67975 5.20825 6.7705 5.9895 5.9895C6.7705 5.2085 7.67975 4.59525 8.69175 4.16725C9.73875 3.7245 10.8518 3.5 12 3.5ZM12 2C6.47725 2 2 6.47725 2 12C2 17.5228 6.47725 22 12 22C17.5228 22 22 17.5228 22 12C22 6.47725 17.5228 2 12 2ZM10 9.75C10 10.4404 9.44036 11 8.75 11C8.05964 11 7.5 10.4404 7.5 9.75C7.5 9.05964 8.05964 8.5 8.75 8.5C9.44036 8.5 10 9.05964 10 9.75ZM16.5 9.75C16.5 10.4404 15.9404 11 15.25 11C14.5596 11 14 10.4404 14 9.75C14 9.05964 14.5596 8.5 15.25 8.5C15.9404 8.5 16.5 9.05964 16.5 9.75ZM14.25 15.5C14.25 16.8807 13.2426 18 12 18C10.7574 18 9.75 16.8807 9.75 15.5C9.75 14.1193 10.7574 13 12 13C13.2426 13 14.25 14.1193 14.25 15.5Z" fill="black"/>
</svg>
