<?xml version="1.0" encoding="UTF-8"?>
<svg xmlns:svg="http://www.w3.org/2000/svg" viewBox="0 0 24 24" fill="none">
<svg:path d="M15.308 4.16725C14.2613 3.7245 13.1482 3.5 12 3.5C10.852 3.5 9.73899 3.7245 8.69199 4.16725C7.67999 4.59525 6.77075 5.2085 5.98975 5.9895C5.20875 6.7705 4.5955 7.67975 4.1675 8.69175C3.72476 9.7385 3.50024 10.8518 3.50024 11.9997C3.50024 13.1477 3.72476 14.2607 4.1675 15.3078C4.5955 16.3197 5.20875 17.229 5.98975 18.01C6.77075 18.791 7.67999 19.4042 8.69199 19.8322C9.73874 20.275 10.852 20.4995 12 20.4995C13.148 20.4995 14.261 20.275 15.308 19.8322C16.32 19.4042 17.2293 18.791 18.0103 18.01C18.7913 17.229 19.4045 16.3197 19.8325 15.3078C20.2752 14.261 20.4998 13.1477 20.4998 11.9997C20.4998 10.8518 20.2752 9.73875 19.8325 8.69175C19.4045 7.67975 18.7913 6.7705 18.0103 5.9895C17.2293 5.2085 16.32 4.59525 15.308 4.16725ZM2 12C2 6.47725 6.47725 2 12 2C17.5228 2 22 6.47725 22 12C22 17.5228 17.5228 22 12 22C6.47725 22 2 17.5228 2 12ZM10 9.75C10 10.4404 9.44036 11 8.75 11C8.05964 11 7.5 10.4404 7.5 9.75C7.5 9.05964 8.05964 8.5 8.75 8.5C9.44036 8.5 10 9.05964 10 9.75ZM16.5 9.75C16.5 10.4404 15.9404 11 15.25 11C14.5596 11 14 10.4404 14 9.75C14 9.05964 14.5596 8.5 15.25 8.5C15.9404 8.5 16.5 9.05964 16.5 9.75ZM16.45 14.15C16.1187 13.9015 15.6485 13.9687 15.4 14.3C14.1607 15.9522 12.2175 16 12 16C9.93475 16 8.7305 14.474 8.6 14.3C8.3515 13.9687 7.88125 13.9015 7.55 14.15C7.21875 14.3985 7.1515 14.8685 7.4 15.2C7.519 15.3585 7.96451 15.9165 8.70576 16.438C9.69301 17.1327 10.832 17.5 12 17.5C12.1982 17.5 12.912 17.4782 13.7738 17.1982C14.9218 16.8252 15.899 16.1342 16.6 15.2C16.8485 14.8687 16.7812 14.3985 16.45 14.15Z" fill="currentColor" fillRule="evenodd" clipRule="evenodd" />
</svg>
