<?xml version="1.0" encoding="UTF-8"?>
<svg xmlns:svg="http://www.w3.org/2000/svg" viewBox="0 0 24 24" fill="none">
<svg:path d="M6.12373 18.135C7.88077 19.3725 9.85777 20 12 20C11.9999 20 11.9998 20 11.9998 20H12.0003C12.0002 20 12.0001 20 12 20C14.1425 20 16.1195 19.3725 17.8763 18.135C19.1447 17.2415 20.2703 16.0538 21.222 14.6048C22.2609 13.023 22.2592 10.9792 21.2177 9.39825C20.2631 7.949 19.1362 6.76075 17.8683 5.867C16.1109 4.62825 14.1366 4 12 4C9.86342 4 7.88909 4.628 6.13173 5.867C4.86383 6.76075 3.73692 7.949 2.78225 9.39825C1.74084 10.9792 1.73909 13.023 2.778 14.6048C3.72967 16.0538 4.85533 17.2415 6.12373 18.135ZM12 8C9.79086 8 8 9.79086 8 12C8 14.2091 9.79086 16 12 16C14.2091 16 16 14.2091 16 12C16 9.79086 14.2091 8 12 8Z" fill="currentColor" fillRule="evenodd" clipRule="evenodd" />
</svg>
