<?xml version="1.0" encoding="UTF-8"?>
<svg xmlns:svg="http://www.w3.org/2000/svg" viewBox="0 0 24 24" fill="none">
<svg:path d="M3.00006 21.75C2.80807 21.75 2.61607 21.6768 2.46982 21.5303C2.17682 21.2373 2.17682 20.7625 2.46982 20.4695L5.37783 17.5615C4.41069 16.754 3.53886 15.7627 2.77807 14.6044C1.73907 13.0227 1.74081 10.979 2.78231 9.39808C3.73706 7.94888 4.8638 6.76066 6.1318 5.86694C7.8893 4.62823 9.86356 4 12.0001 4C13.9451 4 15.7559 4.52048 17.3907 5.54861L20.4696 2.46975C20.7623 2.17675 21.2373 2.17675 21.5303 2.46975C21.8233 2.76274 21.8233 3.23749 21.5303 3.53048L3.53055 21.5303C3.38405 21.6768 3.19205 21.75 3.00031 21.75H3.00006ZM16.2977 6.64159C14.9823 5.88369 13.5404 5.5002 12.0001 5.5002C10.1791 5.5002 8.49556 6.03619 6.99606 7.09315C5.88206 7.87838 4.8858 8.9316 4.0348 10.2236C3.32305 11.304 3.32181 12.7005 4.03156 13.7812C4.73871 14.8578 5.54798 15.7684 6.44325 16.4961L8.69243 14.2469C8.25564 13.6061 8.00007 12.8323 8.00007 12C8.00007 9.7945 9.79457 8 12.0001 8C12.8325 8 13.6062 8.25553 14.2471 8.69226L16.2977 6.64159ZM13.1558 9.78357L9.78371 13.1556C9.60259 12.8098 9.50007 12.4166 9.50007 12C9.50007 10.6215 10.6216 9.5 12.0001 9.5C12.4168 9.5 12.8099 9.60249 13.1558 9.78357ZM19.1431 8.03887C18.8698 8.31211 18.8481 8.7491 19.0948 9.04634C19.3996 9.41308 19.6898 9.80582 19.9651 10.2236C20.6768 11.304 20.6781 12.7005 19.9683 13.7812C19.1206 15.0719 18.1263 16.1241 17.0126 16.9083C15.5133 17.9643 13.8268 18.4998 11.9998 18.4998C11.1593 18.4998 10.3488 18.3863 9.57232 18.1611C9.30882 18.0846 9.02458 18.1566 8.83033 18.3506C8.42683 18.7538 8.60257 19.4433 9.15057 19.6023C10.0616 19.8668 11.0131 20 11.9998 20C14.1423 20 16.1193 19.3725 17.8763 18.1351C19.1448 17.2416 20.2703 16.0539 21.2221 14.6049C22.2608 13.0232 22.2591 10.9795 21.2178 9.39858C20.9126 8.93534 20.5898 8.49886 20.2506 8.09037C19.9686 7.75063 19.4553 7.72688 19.1431 8.03912V8.03887ZM13.8102 15.6999C12.9862 16.2829 12.0379 15.1556 12.7517 14.4419H12.7519L14.4422 12.7516C15.1559 12.0379 16.2832 12.9861 15.7002 13.8101C15.4489 14.1651 15.1602 14.5089 14.8347 14.8344C14.5089 15.1599 14.1652 15.4489 13.8102 15.6999Z" fill="currentColor" fillRule="evenodd" clipRule="evenodd" />
</svg>
