<?xml version="1.0" encoding="UTF-8"?>
<svg xmlns:svg="http://www.w3.org/2000/svg" viewBox="0 0 24 24" fill="none">
<svg:path d="M2.99999 21.75C2.80799 21.75 2.616 21.6768 2.46975 21.5303C2.17675 21.2373 2.17675 20.7625 2.46975 20.4695L5.37755 17.5617C4.41052 16.7542 3.53879 15.7629 2.77806 14.6048C1.73906 13.023 1.74081 10.9792 2.78231 9.39825C3.73706 7.949 4.86381 6.76075 6.13181 5.867C7.88931 4.62825 9.86356 4 12.0001 4C13.9451 4 15.7558 4.52048 17.3907 5.54861L20.4695 2.46975C20.7623 2.17675 21.2373 2.17675 21.5303 2.46975C21.8232 2.76275 21.8232 3.2375 21.5303 3.5305L3.53023 21.5303C3.38374 21.6768 3.19174 21.75 2.99999 21.75ZM14.247 8.69228C13.6061 8.25553 12.8325 8 12.0001 8C9.79456 8 8.00006 9.7945 8.00006 12C8.00006 12.8323 8.25562 13.606 8.69239 14.2469L14.247 8.69228ZM19.7072 7.4745L15.9295 11.252C15.9755 11.4945 16 11.7442 16 12C16 14.2055 14.2055 16 12 16C11.7442 16 11.4942 15.9755 11.2517 15.9295L7.99424 19.1867C9.24724 19.727 10.5875 20 11.9997 20C14.1422 20 16.1192 19.3725 17.8762 18.135C19.1447 17.2415 20.2702 16.0537 21.222 14.6047C22.2607 13.023 22.2592 10.9792 21.2177 9.39825C20.7537 8.694 20.249 8.0515 19.7075 7.4745H19.7072Z" fill="currentColor" fillRule="evenodd" clipRule="evenodd" />
</svg>
