<svg width="24" height="24" viewBox="0 0 24 24" fill="none" xmlns="http://www.w3.org/2000/svg">
<path fill-rule="evenodd" clip-rule="evenodd" d="M6.12373 18.135C7.88077 19.3725 9.85777 20 12 20C11.9999 20 11.9998 20 11.9998 20H12.0003C12.0002 20 12.0001 20 12 20C14.1425 20 16.1195 19.3725 17.8763 18.135C19.1447 17.2415 20.2703 16.0538 21.222 14.6048C22.2609 13.023 22.2592 10.9792 21.2177 9.39825C20.2631 7.949 19.1362 6.76075 17.8683 5.867C16.1109 4.62825 14.1366 4 12 4C9.86342 4 7.88909 4.628 6.13173 5.867C4.86383 6.76075 3.73692 7.949 2.78225 9.39825C1.74084 10.9792 1.73909 13.023 2.778 14.6048C3.72967 16.0538 4.85533 17.2415 6.12373 18.135ZM6.99616 7.093C8.49579 6.036 10.1794 5.5 12.0003 5.5C13.8214 5.5 15.505 6.036 17.0043 7.093C18.1183 7.87825 19.1147 8.9315 19.9656 10.2235C20.6773 11.304 20.6785 12.7005 19.9689 13.7813C19.1212 15.072 18.1268 16.124 17.0131 16.9085C15.5137 17.9645 13.8274 18.5 12.0003 18.5C10.1731 18.5 8.48654 17.9645 6.98741 16.9085C5.87375 16.1243 4.87933 15.072 4.03165 13.7813C3.32196 12.7005 3.32321 11.304 4.0349 10.2235C4.88608 8.9315 5.88225 7.87825 6.99616 7.093ZM9.5 12C9.5 10.6193 10.6193 9.5 12 9.5C13.3807 9.5 14.5 10.6193 14.5 12C14.5 13.3807 13.3807 14.5 12 14.5C10.6193 14.5 9.5 13.3807 9.5 12ZM12 8C9.79086 8 8 9.79086 8 12C8 14.2091 9.79086 16 12 16C14.2091 16 16 14.2091 16 12C16 9.79086 14.2091 8 12 8Z" fill="black"/>
</svg>
