<?xml version="1.0" encoding="UTF-8"?>
<svg xmlns:svg="http://www.w3.org/2000/svg" viewBox="0 0 24 24" fill="none">
<svg:path d="M15.308 4.16725C14.2612 3.7245 13.1482 3.5 12 3.5C10.852 3.5 9.739 3.7245 8.692 4.16725C7.68 4.59525 6.77075 5.2085 5.98975 5.9895C5.20875 6.7705 4.5955 7.67975 4.1675 8.69175C3.72475 9.7385 3.50025 10.8518 3.50025 11.9997C3.50025 13.1477 3.72475 14.2607 4.1675 15.3078C4.5955 16.3197 5.20875 17.229 5.98975 18.01C6.77075 18.791 7.68 19.4042 8.692 19.8322C9.25617 20.0709 9.83966 20.2461 10.4375 20.357V14.9012H7.8985V12.0107H10.4375V9.8075C10.4375 7.30125 11.9305 5.917 14.2147 5.917C15.3087 5.917 16.4533 6.11225 16.4533 6.11225V8.57325H15.1922H15.192C13.9498 8.57325 13.5622 9.34425 13.5622 10.135V12.0107H16.3358L15.8925 14.9012H13.5625V20.3569C14.1603 20.2461 14.7437 20.0709 15.308 19.8322C16.32 19.4042 17.2293 18.791 18.0103 18.01C18.7913 17.229 19.4045 16.3197 19.8325 15.3078C20.2753 14.261 20.4998 13.1477 20.4998 11.9997C20.4998 10.8518 20.2753 9.73875 19.8325 8.69175C19.4045 7.67975 18.7913 6.7705 18.0103 5.9895C17.2293 5.2085 16.32 4.59525 15.308 4.16725ZM2 12C2 6.47725 6.47725 2 12 2C17.5228 2 22 6.47725 22 12C22 17.5228 17.5228 22 12 22C6.47725 22 2 17.5228 2 12Z" fill="currentColor" fillRule="evenodd" clipRule="evenodd" />
</svg>
