<?xml version="1.0" encoding="UTF-8"?>
<svg xmlns:svg="http://www.w3.org/2000/svg" viewBox="0 0 24 24" fill="none">
<svg:path d="M11.5 8C11.5 7.173 10.827 6.5 10 6.5C9.173 6.5 8.5 7.173 8.5 8C8.5 8.827 9.173 9.5 10 9.5C10.827 9.5 11.5 8.827 11.5 8ZM5 8.75H7.09453C7.42759 10.0439 8.60222 11 10 11C11.3978 11 12.5724 10.0439 12.9055 8.75H19C19.4142 8.75 19.75 8.41421 19.75 8C19.75 7.58579 19.4142 7.25 19 7.25H12.9055C12.5724 5.95614 11.3978 5 10 5C8.60222 5 7.42759 5.95614 7.09453 7.25H5C4.58579 7.25 4.25 7.58579 4.25 8C4.25 8.41421 4.58579 8.75 5 8.75ZM15.5 16C15.5 15.173 14.827 14.5 14 14.5C13.173 14.5 12.5 15.173 12.5 16C12.5 16.827 13.173 17.5 14 17.5C14.827 17.5 15.5 16.827 15.5 16ZM11.0945 15.25C11.4276 13.9561 12.6022 13 14 13C15.3978 13 16.5724 13.9561 16.9055 15.25H19C19.4142 15.25 19.75 15.5858 19.75 16C19.75 16.4142 19.4142 16.75 19 16.75H16.9055C16.5724 18.0439 15.3978 19 14 19C12.6022 19 11.4276 18.0439 11.0945 16.75H5C4.58579 16.75 4.25 16.4142 4.25 16C4.25 15.5858 4.58579 15.25 5 15.25H11.0945Z" fill="currentColor" fillRule="evenodd" clipRule="evenodd" />
</svg>
