<?xml version="1.0" encoding="UTF-8"?>
<svg xmlns:svg="http://www.w3.org/2000/svg" viewBox="0 0 24 24" fill="none">
<svg:path d="M21.0097 5.2285C21.2985 5.517 21.5722 5.8175 21.8302 6.129C21.9405 6.26225 22 6.43025 22 6.60325V6.61325C22 7.3135 21.1237 7.628 20.6772 7.0885C20.4487 6.81225 20.206 6.54575 19.9497 6.28975C17.8255 4.16825 15.0022 3 12 3C10.4765 3 9.02275 3.3045 7.6965 3.85575C7.4155 3.9725 7.09173 3.90975 6.87648 3.6945C6.49848 3.3165 6.62599 2.6765 7.11949 2.47125C8.62349 1.84575 10.2722 1.5 12 1.5C15.4025 1.5 18.6022 2.82425 21.0097 5.2285ZM3.32524 7.0945C3.87199 6.43275 4.493 5.8345 5.175 5.3125C5.534 5.03775 5.57226 4.5115 5.25276 4.192L5.24551 4.18475C4.98226 3.9215 4.56401 3.89225 4.26826 4.1185C3.49401 4.71075 2.78949 5.38925 2.16899 6.14C2.05899 6.273 2 6.44075 2 6.6135V6.622C2 7.32425 2.87799 7.63575 3.32524 7.0945ZM18.8897 7.351C19.733 8.193 20.4065 9.16575 20.892 10.242H20.8917C21.1635 10.8442 21.3715 11.469 21.5147 12.1102C21.575 12.3797 21.4927 12.6655 21.2865 12.8495C20.8567 13.233 20.1775 13.0112 20.0542 12.454C19.7177 10.9335 18.955 9.53625 17.8297 8.4125C16.6012 7.1855 15.0537 6.39375 13.3745 6.11375C13.0135 6.05375 12.75 5.74 12.75 5.37425C12.75 4.909 13.1685 4.55775 13.6275 4.6345C15.611 4.96575 17.4385 5.90175 18.8897 7.351ZM4.07725 17.496C3.77675 15.8883 3.75 14.6386 3.75 14.2501C3.75 10.1702 6.72725 6.77327 10.623 6.11579C10.9847 6.05479 11.25 5.74255 11.25 5.3758C11.25 4.91206 10.8333 4.55857 10.3758 4.63557C5.77001 5.41105 2.25 9.42721 2.25 14.2501C2.25 14.6833 2.28025 16.0976 2.626 17.8928C2.694 18.2455 3.00325 18.5 3.3625 18.5C3.83575 18.5 4.1915 18.0668 4.098 17.6028C4.09 17.5633 4.083 17.5273 4.07725 17.496ZM18.2502 17.9998H18.2535L18.2532 18.0003C18.6657 18.0003 19 18.3345 19 18.747V18.7535C19 19.166 18.6657 19.5003 18.2532 19.5003H18.25H18.2412H18.2202C17.3362 19.5003 16.6064 19.2775 16.0514 18.8385C15.5752 18.4615 15.1779 17.9015 14.8709 17.174C14.2839 15.7828 14.2509 14.2998 14.2499 14.2388C14.2469 13.6043 13.9826 13.0105 13.5086 12.5808C13.1201 12.2288 12.6171 12.0233 12.0933 12.002C10.8103 11.9498 9.74979 12.9783 9.74979 14.25C9.74979 14.378 9.75978 15.5438 10.1033 17.002C10.305 17.8585 10.584 18.6605 10.9326 19.3855C11.2656 20.078 11.6633 20.7033 12.1196 21.2518L12.1206 21.2528C12.5556 21.7315 12.2093 22.5 11.5626 22.5H11.5588C11.3388 22.5 11.1288 22.404 10.9876 22.2353C10.4438 21.5863 9.9723 20.8495 9.58104 20.0355C9.18553 19.2128 8.87002 18.308 8.64352 17.346C8.26901 15.7565 8.25 14.488 8.25 14.25C8.25 12.185 9.92779 10.5048 11.9916 10.5C12.9866 10.4978 13.9461 10.8935 14.6501 11.5965C15.3509 12.2963 15.7414 13.226 15.7502 14.2158C15.7527 14.3 15.7959 15.5065 16.2532 16.5905C16.4579 17.0758 16.7102 17.4463 16.9824 17.6618C17.266 17.886 17.6822 17.9998 18.2202 17.9998H18.238H18.2502ZM18.2472 21H18.25C18.663 21 18.9985 21.334 19 21.7473C19.0015 22.1615 18.667 22.4985 18.2528 22.5H18.2208C16.3813 22.5 14.852 21.9055 13.675 20.7328C11.2775 18.3445 11.25 14.416 11.25 14.25C11.25 13.8358 11.5863 13.5 12 13.5C12.4137 13.5 12.7495 13.8353 12.75 14.249L12.75 14.2499C12.7505 14.2973 12.77 16.0528 13.489 17.757C13.8952 18.7198 14.4443 19.4795 15.1208 20.0148C15.953 20.6733 17.0057 21.0048 18.2472 21ZM7.18326 17.6898C7.00376 16.9278 6.89827 16.2353 6.83626 15.669C6.79476 15.2885 6.47375 15 6.091 15C5.64425 15 5.29726 15.3882 5.34601 15.8322C5.41376 16.4533 5.52877 17.208 5.72352 18.0337C5.88402 18.715 6.08251 19.3752 6.31651 20.0087C6.42551 20.3037 6.70602 20.5 7.02052 20.5C7.54252 20.5 7.90477 19.98 7.72376 19.4902C7.51077 18.914 7.33026 18.312 7.18351 17.6898H7.18326ZM6.18522 13.4999C5.70024 13.4999 5.34051 13.0437 5.461 12.5739L5.46125 12.5742C6.20847 9.66032 8.85661 7.5 12 7.5C13.8012 7.5 15.4951 8.20102 16.7696 9.47382C18.017 10.7199 18.7195 12.3747 18.7488 14.136C18.7488 14.261 18.7703 14.4292 18.8005 14.605C18.878 15.054 18.5743 15.465 18.1198 15.498C17.7273 15.5263 17.3853 15.2498 17.3236 14.8675C17.2653 14.507 17.2516 14.234 17.2493 14.1812C17.2316 12.8037 16.6851 11.5094 15.7096 10.5351C14.7247 9.55157 13.3865 8.9983 11.9945 8.9998C9.55434 9.00205 7.49916 10.6779 6.91593 12.9389C6.83118 13.2677 6.53821 13.4999 6.19872 13.4999H6.18522Z" fill="currentColor" fillRule="evenodd" clipRule="evenodd" />
</svg>
