<?xml version="1.0" encoding="UTF-8"?>
<svg xmlns:svg="http://www.w3.org/2000/svg" viewBox="0 0 24 24" fill="none">
<svg:path d="M16.4314 13.2498L10.75 7.56834V9.6891L14.3108 13.2498H16.4314ZM11.5705 3.31073C12.0933 2.78799 12.7885 2.5 13.5277 2.5C14.267 2.5 14.9623 2.78799 15.485 3.31073L20.6905 8.51563C21.7697 9.59461 21.7697 11.3503 20.6905 12.4295L19.4755 13.6445C18.7625 14.3575 17.8148 14.75 16.8065 14.75H14.25L7.87855 21.1212C7.29278 21.707 6.52501 22 5.75724 22C4.98946 22 4.22169 21.707 3.63592 21.1212L2.87865 20.364C1.70712 19.1923 1.70712 17.2927 2.87865 16.1212L9.25 9.74985V7.1944C9.25 6.18642 9.6425 5.23844 10.3555 4.52571L11.5705 3.31073ZM10.5303 13.4697C10.8232 13.7626 10.8232 14.2374 10.5303 14.5303L9.53033 15.5303C9.23744 15.8232 8.76256 15.8232 8.46967 15.5303C8.17678 15.2374 8.17678 14.7626 8.46967 14.4697L9.46967 13.4697C9.76256 13.1768 10.2374 13.1768 10.5303 13.4697Z" fill="currentColor" fillRule="evenodd" clipRule="evenodd" />
</svg>
