<?xml version="1.0" encoding="UTF-8"?>
<svg xmlns:svg="http://www.w3.org/2000/svg" viewBox="0 0 24 24" fill="none">
<svg:path d="M3.53033 2.46967C3.23744 2.17678 2.76256 2.17678 2.46967 2.46967C2.17678 2.76256 2.17678 3.23744 2.46967 3.53033L8.96971 10.0304L2.87865 16.1212C1.70712 17.2927 1.70712 19.1923 2.87865 20.364L3.63593 21.1212C4.22169 21.707 4.98947 22 5.75724 22C6.52501 22 7.29278 21.707 7.87855 21.1212L13.9697 15.0303L20.4697 21.5303C20.7626 21.8232 21.2374 21.8232 21.5303 21.5303C21.8232 21.2374 21.8232 20.7626 21.5303 20.4697L3.53033 2.46967ZM12.9091 13.9698L6.81827 20.0605C6.53501 20.3438 6.15825 20.4998 5.75749 20.4998C5.35673 20.4998 4.98021 20.3438 4.69671 20.0605L3.93943 19.3033C3.35466 18.7185 3.35466 17.7668 3.93943 17.182L10.0305 11.0911L12.9091 13.9698ZM13.5401 3.99997H13.5273V3.99972C13.1836 3.99972 12.8736 4.12797 12.6306 4.37096L11.1523 5.84918L18.1506 12.8473L19.6296 11.3686C19.8681 11.1301 19.9996 10.8116 19.9996 10.4723C19.9996 10.1331 19.8681 9.8146 19.6296 9.5761L14.4456 4.39271C14.1991 4.14622 13.8691 4.00322 13.5401 3.99997ZM11.5701 3.31073C12.0928 2.78799 12.7881 2.5 13.5273 2.5L13.5278 2.50025H13.5546C14.2883 2.50725 14.9876 2.81349 15.5066 3.33223L20.6906 8.51562C21.7698 9.5946 21.7698 11.3503 20.6906 12.4295L19.2116 13.9083C18.9186 14.201 18.5348 14.3475 18.1508 14.3475C17.7668 14.3475 17.3831 14.2013 17.0901 13.9083L10.0918 6.91016C9.50606 6.32442 9.50606 5.37469 10.0918 4.78895L11.5701 3.31073ZM10.5303 14.5303C10.8232 14.2374 10.8232 13.7626 10.5303 13.4697C10.2374 13.1768 9.76256 13.1768 9.46967 13.4697L8.46967 14.4697C8.17678 14.7626 8.17678 15.2374 8.46967 15.5303C8.76256 15.8232 9.23744 15.8232 9.53033 15.5303L10.5303 14.5303Z" fill="currentColor" fillRule="evenodd" clipRule="evenodd" />
</svg>
