<svg width="24" height="24" viewBox="0 0 24 24" fill="none" xmlns="http://www.w3.org/2000/svg">
<path fill-rule="evenodd" clip-rule="evenodd" d="M13.5279 3.99997C13.8716 4 14.1815 4.1285 14.4245 4.37121L19.63 9.5761C19.8685 9.8146 20 10.1331 20 10.4723C20 10.8116 19.8685 11.1301 19.63 11.3686L18.415 12.5835C18.3256 12.673 18.23 12.754 18.1293 12.8263L11.174 5.87101C11.2462 5.7706 11.327 5.67534 11.4162 5.58619L12.6313 4.37121C12.8742 4.12825 13.1842 4 13.5279 3.99997ZM10.75 7.56834L16.4314 13.2498H14.3108L10.75 9.6891V7.56834ZM13.5277 2.5C12.7885 2.5 12.0933 2.78799 11.5705 3.31073L10.3555 4.52571C9.6425 5.23844 9.25 6.18642 9.25 7.1944V9.74985L2.87865 16.1212C1.70712 17.2927 1.70712 19.1923 2.87865 20.364L3.63592 21.1212C4.22169 21.707 4.98946 22 5.75724 22C6.52501 22 7.29278 21.707 7.87855 21.1212L14.25 14.75H16.8065C17.8148 14.75 18.7625 14.3575 19.4755 13.6445L20.6905 12.4295C21.7697 11.3503 21.7697 9.59461 20.6905 8.51563L15.485 3.31073C14.9623 2.78799 14.267 2.5 13.5277 2.5ZM12.909 13.9697L6.81802 20.0605C6.53476 20.3438 6.158 20.4998 5.75724 20.4998C5.35648 20.4998 4.97996 20.3438 4.69646 20.0605L3.93918 19.3033C3.35442 18.7185 3.35442 17.7668 3.93918 17.182L10.0303 11.0911L12.909 13.9697ZM10.5303 14.5303C10.8232 14.2374 10.8232 13.7626 10.5303 13.4697C10.2374 13.1768 9.76256 13.1768 9.46967 13.4697L8.46967 14.4697C8.17678 14.7626 8.17678 15.2374 8.46967 15.5303C8.76256 15.8232 9.23744 15.8232 9.53033 15.5303L10.5303 14.5303Z" fill="black"/>
</svg>
