<?xml version="1.0" encoding="UTF-8"?>
<svg xmlns:svg="http://www.w3.org/2000/svg" viewBox="0 0 24 24" fill="none">
<svg:path d="M18 0.5C18.4142 0.5 18.75 0.835786 18.75 1.25V2.5C18.75 2.91421 18.4142 3.25 18 3.25C17.5858 3.25 17.25 2.91421 17.25 2.5V1.25C17.25 0.835786 17.5858 0.5 18 0.5ZM21.5 5.25H22.75C23.1642 5.25 23.5 5.58579 23.5 6C23.5 6.41421 23.1642 6.75 22.75 6.75H21.5C21.0858 6.75 20.75 6.41421 20.75 6C20.75 5.58579 21.0858 5.25 21.5 5.25ZM21.75 1.5C21.551 1.5 21.3603 1.579 21.2198 1.71975L19.7198 3.21975C19.579 3.3605 19.5 3.55125 19.5 3.75C19.5 4.16425 19.8358 4.5 20.25 4.5C20.449 4.5 20.6397 4.421 20.7802 4.28025L22.2802 2.78025C22.421 2.6395 22.5 2.44875 22.5 2.25C22.5 1.83575 22.1643 1.5 21.75 1.5ZM10.75 7.56834L16.4314 13.2498H14.3108L10.75 9.6891V7.56834ZM13.5277 2.5C12.7885 2.5 12.0933 2.78799 11.5705 3.31073L10.3555 4.52571C9.6425 5.23844 9.25 6.18642 9.25 7.1944V9.74985L2.87865 16.1212C1.70712 17.2927 1.70712 19.1923 2.87865 20.364L3.63592 21.1212C4.22169 21.707 4.98946 22 5.75724 22C6.52501 22 7.29278 21.707 7.87855 21.1212L14.25 14.75H16.8065C17.8148 14.75 18.7625 14.3575 19.4755 13.6445L20.6905 12.4295C21.7697 11.3503 21.7697 9.59461 20.6905 8.51563L15.485 3.31073C14.9623 2.78799 14.267 2.5 13.5277 2.5ZM10.5303 14.5303C10.8232 14.2374 10.8232 13.7626 10.5303 13.4697C10.2374 13.1768 9.76256 13.1768 9.46967 13.4697L8.46967 14.4697C8.17678 14.7626 8.17678 15.2374 8.46967 15.5303C8.76256 15.8232 9.23744 15.8232 9.53033 15.5303L10.5303 14.5303Z" fill="currentColor" fillRule="evenodd" clipRule="evenodd" />
</svg>
