<?xml version="1.0" encoding="UTF-8"?>
<svg xmlns:svg="http://www.w3.org/2000/svg" viewBox="0 0 24 24" fill="none">
<svg:path d="M9.75741 4.5C9.75736 4.5 9.75731 4.5 9.75725 4.5H6.00008C4.62155 4.5 3.50003 5.6215 3.50003 7V7.5H9.75741C10.1582 7.5 10.5349 7.344 10.8182 7.06075L11.8789 6.0001L10.818 4.93925C10.5456 4.66706 10.1873 4.51238 9.8041 4.50071C9.78858 4.50024 9.77301 4.5 9.75741 4.5ZM13.5002 6.49975L11.8787 8.12125C11.3162 8.684 10.5532 9 9.75741 9H3.5V16.9997C3.5 18.3783 4.6215 19.4998 6 19.4998H17.9997C19.3783 19.4998 20.4998 18.3783 20.4998 16.9997V8.99975C20.4998 7.62125 19.3783 6.49975 17.9997 6.49975H13.5002ZM2 9V7C2 6.72384 2.02798 6.45423 2.08126 6.19383C2.45423 4.37104 4.06691 3 6 3H6.00008H9.75725H9.75741C9.75744 3 9.75747 3 9.7575 3C9.82975 3 9.90173 3.00261 9.97332 3.00777C10.69 3.05947 11.3673 3.36734 11.8787 3.87875L13 5H18C20.2093 5 22 6.79075 22 9V17C22 19.2093 20.2093 21 18 21H6C3.79075 21 2 19.2093 2 17V9Z" fill="currentColor" fillRule="evenodd" clipRule="evenodd" />
</svg>
