<?xml version="1.0" encoding="UTF-8"?>
<svg xmlns:svg="http://www.w3.org/2000/svg" viewBox="0 0 24 24" fill="none">
<svg:g clipPath="url(#clip0_1_444)">
<svg:path d="M4.63225 8.42125C3.7265 9.02375 3.02575 9.8725 2.6055 10.8758L2.606 10.8755L2 12.3223V7C2 4.79075 3.79075 3 6 3H9.75725C10.5528 3 11.316 3.31625 11.8785 3.87875L12.707 4.70725C12.8945 4.895 13.1487 5.00025 13.414 5.00025H17.9997C19.794 5.00025 21.3123 6.1815 21.8193 7.80875C21.2375 7.606 20.6197 7.50025 19.9952 7.50025H7.6795C6.5915 7.50025 5.538 7.81875 4.63225 8.42125ZM7.68005 9H19.9954C22.8502 9 24.7862 11.9037 23.6882 14.5385L22.0212 18.5385C21.4002 20.029 19.9434 21 18.3284 21H6.00478C3.14701 21 1.21099 18.0905 2.31475 15.455L3.99002 11.455C4.61277 9.968 6.06753 9 7.68005 9Z" fill="currentColor" fillRule="evenodd" clipRule="evenodd" />
</svg:g>
<svg:defs>
<svg:clipPath id="clip0_1_444">
<svg:rect width="24" height="24" fill="currentColor" />
</svg:clipPath>
</svg:defs>
</svg>
