<?xml version="1.0" encoding="UTF-8"?>
<svg xmlns:svg="http://www.w3.org/2000/svg" viewBox="0 0 24 24" fill="none">
<svg:path d="M11.8789 6.00004L10.8184 4.9395C10.5349 4.65625 10.1584 4.50025 9.7576 4.50025H6.0003C5.79566 4.50025 5.59677 4.52483 5.40642 4.57121C4.49984 4.79282 3.78554 5.51016 3.56832 6.41842C3.52382 6.60511 3.50026 6.79993 3.50026 7.00025V7.5H9.75741C10.1582 7.5 10.5349 7.344 10.8182 7.06075L11.8789 6.00004ZM3.50026 9H9.75741C10.5532 9 11.3162 8.684 11.8787 8.12125L13.5 6.5H18.0002C19.381 6.5 20.5002 7.61925 20.5002 9V10.4428C20.5002 10.7325 20.6692 10.9955 20.9325 11.1163C20.9356 11.1178 20.9388 11.1192 20.9419 11.1206C20.9445 11.1218 20.9471 11.123 20.9497 11.1243C21.4407 11.3495 22 10.9917 22 10.4515V9C22 6.79075 20.2092 5 17.9999 5H13L11.8787 3.87875C11.3514 3.35141 10.6475 3.04049 9.90615 3.00369C9.85672 3.00124 9.80713 3 9.75741 3C9.75743 3 9.75739 3 9.75741 3H6.00008C5.99146 3 5.98282 3.00003 5.97421 3.00008C5.84495 3.0009 5.71715 3.00785 5.59108 3.02065C4.11184 3.17086 2.87095 4.12694 2.31433 5.44297C2.11192 5.92153 2 6.44769 2 7V9V17C2 19.2092 3.79077 21 6.00005 21H10.0894C10.5879 21 10.9439 20.517 10.7964 20.0408C10.7944 20.0343 10.7924 20.0278 10.7904 20.021C10.6949 19.711 10.4078 19.5 10.0833 19.5L6.0003 19.5002C4.61953 19.5002 3.50026 18.381 3.50026 17.0003V9ZM18 12C14.6863 12 12 14.6863 12 18C12 21.3137 14.6863 24 18 24C21.3137 24 24 21.3137 24 18C24 14.6863 21.3137 12 18 12ZM20.75 18.5H18.5V20.75C18.5 21.0262 18.2762 21.25 18 21.25C17.7238 21.25 17.5 21.0262 17.5 20.75V18.5H15.25C14.9738 18.5 14.75 18.2762 14.75 18C14.75 17.7238 14.9738 17.5 15.25 17.5H17.5V15.25C17.5 14.9738 17.7238 14.75 18 14.75C18.2762 14.75 18.5 14.9738 18.5 15.25V17.5H20.75C21.0262 17.5 21.25 17.7238 21.25 18C21.25 18.2762 21.0262 18.5 20.75 18.5Z" fill="currentColor" fillRule="evenodd" clipRule="evenodd" />
</svg>
