<?xml version="1.0" encoding="UTF-8"?>
<svg xmlns:svg="http://www.w3.org/2000/svg" viewBox="0 0 24 24" fill="none">
<svg:g clipPath="url(#clip0_1_442)">
<svg:path d="M13.414 5.00025H17.9997L18 5C20.2093 5 22 6.79075 22 9V9.53391C23.6523 10.4929 24.5005 12.5893 23.6882 14.5385L22.0212 18.5385C21.4002 20.029 19.9434 21 18.3284 21H6.00478C3.70267 21 1.99871 19.1119 2.00011 17H2V7C2 4.79075 3.79075 3 6 3H9.75725C10.5528 3 11.316 3.31625 11.8785 3.87875L12.707 4.70725C12.8945 4.895 13.1487 5.00025 13.414 5.00025ZM3.5 12.625L3.99002 11.455C4.61277 9.968 6.06753 9 7.68005 9H19.9954C20.1671 9 20.3354 9.0105 20.5 9.03081V9C20.5 7.6215 19.3785 6.5 18 6.5H13.4142C13.0842 6.5 12.7623 6.436 12.4575 6.30975C12.1528 6.1835 11.8797 6.001 11.6465 5.76775L10.818 4.93925C10.5345 4.656 10.158 4.5 9.75725 4.5H6C4.6215 4.5 3.5 5.6215 3.5 7V12.625ZM21.2044 10.807C20.8367 10.6033 20.4299 10.5 19.9954 10.5H7.68005C6.66929 10.5 5.76403 11.1023 5.37353 12.0345L3.69827 16.0345C3.53051 16.4353 3.46876 16.8505 3.51476 17.2688C3.55801 17.6628 3.69927 18.0485 3.92277 18.3845C4.14652 18.7205 4.44802 19 4.79478 19.1923C5.16278 19.3965 5.56978 19.5 6.00478 19.5H18.3284C18.8239 19.5 19.3034 19.3548 19.7157 19.08C20.1277 18.8055 20.4462 18.4185 20.6367 17.9615L22.3037 13.9615C22.4707 13.5607 22.5317 13.1458 22.4852 12.728C22.4412 12.3343 22.2999 11.949 22.0762 11.6135C21.8524 11.2778 21.5509 10.999 21.2044 10.807Z" fill="currentColor" fillRule="evenodd" clipRule="evenodd" />
</svg:g>
<svg:defs>
<svg:clipPath id="clip0_1_442">
<svg:rect width="24" height="24" fill="currentColor" />
</svg:clipPath>
</svg:defs>
</svg>
