<?xml version="1.0" encoding="UTF-8"?>
<svg xmlns:svg="http://www.w3.org/2000/svg" viewBox="0 0 24 24" fill="none">
<svg:path d="M9.75725 7.5C10.158 7.5 10.5345 7.344 10.818 7.06075L12.9392 4.9395L11.8785 3.87875C11.316 3.31625 10.5528 3 9.75725 3H6C3.79075 3 2 4.79075 2 7V7.5H9.75725ZM18 12C14.6863 12 12 14.6863 12 18C12 21.3137 14.6863 24 18 24C21.3137 24 24 21.3137 24 18C24 14.6863 21.3137 12 18 12ZM20.75 18.5H18.5V20.75C18.5 21.0262 18.2762 21.25 18 21.25C17.7238 21.25 17.5 21.0262 17.5 20.75V18.5H15.25C14.9738 18.5 14.75 18.2762 14.75 18C14.75 17.7238 14.9738 17.5 15.25 17.5H17.5V15.25C17.5 14.9738 17.7238 14.75 18 14.75C18.2762 14.75 18.5 14.9738 18.5 15.25V17.5H20.75C21.0262 17.5 21.25 17.7238 21.25 18C21.25 18.2762 21.0262 18.5 20.75 18.5ZM10.4999 18C10.4999 19.0117 10.6984 19.9942 11.0899 20.9197H11.0901C11.0983 20.9395 11.1069 20.9589 11.1156 20.9784C11.1188 20.9856 11.1219 20.9928 11.1251 21H6.00005C3.79077 21 2 19.2093 2 17V9H9.75735C10.5529 9 11.3161 8.68375 11.8786 8.12125L14.9999 5H17.9999C20.2092 5 22 6.79075 22 9V11.6545C21.6572 11.4383 21.2967 11.2495 20.9197 11.09C19.9942 10.6985 19.0117 10.5 17.9999 10.5C16.9882 10.5 16.0057 10.6985 15.0802 11.09C14.1869 11.468 13.3849 12.0085 12.6966 12.6968C12.0084 13.385 11.4676 14.187 11.0899 15.0803C10.6984 16.0058 10.4999 16.9883 10.4999 18Z" fill="currentColor" fillRule="evenodd" clipRule="evenodd" />
</svg>
