<?xml version="1.0" encoding="UTF-8"?>
<svg xmlns:svg="http://www.w3.org/2000/svg" viewBox="0 0 24 24" fill="none">
<svg:path d="M8.5 4.75V6C8.5 7.38075 7.38075 8.5 6 8.5H4.75C4.33575 8.5 4 8.83575 4 9.25C4 9.66425 4.33575 10 4.75 10H6C8.20925 10 10 8.20925 10 6V4.75C10 4.33575 9.66425 4 9.25 4C8.83575 4 8.5 4.33575 8.5 4.75ZM8.5 18V19.25C8.5 19.6643 8.83575 20 9.25 20C9.66425 20 10 19.6643 10 19.25V18C10 15.7908 8.20925 14 6 14H4.75C4.33575 14 4 14.3357 4 14.75C4 15.1643 4.33575 15.5 4.75 15.5H6C7.38075 15.5 8.5 16.6193 8.5 18ZM15.5 4.75V6C15.5 7.38075 16.6193 8.5 18 8.5H19.25C19.6643 8.5 20 8.83575 20 9.25C20 9.66425 19.6643 10 19.25 10H18C15.7908 10 14 8.20925 14 6V4.75C14 4.33575 14.3357 4 14.75 4C15.1643 4 15.5 4.33575 15.5 4.75ZM14.75 20C15.1643 20 15.5 19.6643 15.5 19.25V18C15.5 16.6193 16.6193 15.5 18 15.5H19.25C19.6643 15.5 20 15.1643 20 14.75C20 14.3357 19.6643 14 19.25 14H18C15.7908 14 14 15.7908 14 18V19.25C14 19.6643 14.3357 20 14.75 20Z" fill="currentColor" fillRule="evenodd" clipRule="evenodd" />
</svg>
