<?xml version="1.0" encoding="UTF-8"?>
<svg xmlns:svg="http://www.w3.org/2000/svg" viewBox="0 0 24 24" fill="none">
<svg:path d="M19 8V7C19 5.8955 18.1045 5 17 5H16C15.4477 5 15 4.55225 15 4C15 3.44775 15.4477 3 16 3H17C19.2093 3 21 4.79075 21 7V8C21 8.55225 20.5523 9 20 9C19.4477 9 19 8.55225 19 8ZM19 17V16C19 15.4477 19.4477 15 20 15C20.5523 15 21 15.4477 21 16V17C21 19.2093 19.2093 21 17 21H16C15.4477 21 15 20.5523 15 20C15 19.4477 15.4477 19 16 19H17C18.1045 19 19 18.1045 19 17ZM5 17V16C5 15.4477 4.55225 15 4 15C3.44775 15 3 15.4477 3 16V17C3 19.2093 4.79075 21 7 21H8C8.55225 21 9 20.5523 9 20C9 19.4477 8.55225 19 8 19H7C5.8955 19 5 18.1045 5 17ZM5 7V8C5 8.55225 4.55225 9 4 9C3.44775 9 3 8.55225 3 8V7C3 4.79075 4.79075 3 7 3H8C8.55225 3 9 3.44775 9 4C9 4.55225 8.55225 5 8 5H7C5.8955 5 5 5.8955 5 7Z" fill="currentColor" fillRule="evenodd" clipRule="evenodd" />
</svg>
