<?xml version="1.0" encoding="UTF-8"?>
<svg xmlns:svg="http://www.w3.org/2000/svg" viewBox="0 0 24 24" fill="none">
<svg:path d="M4.5 7V8.25C4.5 8.66425 4.16425 9 3.75 9C3.33575 9 3 8.66425 3 8.25V7C3 4.79075 4.79075 3 7 3H8.25C8.66425 3 9 3.33575 9 3.75C9 4.16425 8.66425 4.5 8.25 4.5H7C5.61925 4.5 4.5 5.61925 4.5 7ZM4.5 15.75V17C4.5 18.3807 5.61925 19.5 7 19.5H8.25C8.66425 19.5 9 19.8358 9 20.25C9 20.6643 8.66425 21 8.25 21H7C4.79075 21 3 19.2093 3 17V15.75C3 15.3358 3.33575 15 3.75 15C4.16425 15 4.5 15.3358 4.5 15.75ZM19.5 7V8.25C19.5 8.66425 19.8358 9 20.25 9C20.6643 9 21 8.66425 21 8.25V7C21 4.79075 19.2093 3 17 3H15.75C15.3358 3 15 3.33575 15 3.75C15 4.16425 15.3358 4.5 15.75 4.5H17C18.3807 4.5 19.5 5.61925 19.5 7ZM19.5 17V15.75C19.5 15.3358 19.8358 15 20.25 15C20.6643 15 21 15.3358 21 15.75V17C21 19.2093 19.2093 21 17 21H15.75C15.3358 21 15 20.6643 15 20.25C15 19.8358 15.3358 19.5 15.75 19.5H17C18.3807 19.5 19.5 18.3807 19.5 17Z" fill="currentColor" fillRule="evenodd" clipRule="evenodd" />
</svg>
