<svg width="24" height="24" viewBox="0 0 24 24" fill="none" xmlns="http://www.w3.org/2000/svg">
<path fill-rule="evenodd" clip-rule="evenodd" d="M9.5 3.5C10.465 3.5 11.25 4.285 11.25 5.25V6.975V7H9.5C8.535 7 7.75 6.215 7.75 5.25C7.75 4.285 8.535 3.5 9.5 3.5ZM11.25 8.5H9.5H5C4.72425 8.5 4.5 8.72425 4.5 9V10.5C4.5 10.7212 4.64429 10.9092 4.8437 10.975H11.25V8.5ZM12 3.17315C11.4039 2.45633 10.5052 2 9.5 2C7.705 2 6.25 3.455 6.25 5.25C6.25 5.89433 6.43748 6.49486 6.76087 7H5C3.8955 7 3 7.8955 3 9V10.5C3 11.2402 3.40222 11.8866 4 12.2324V18C4 20.2093 5.79075 22 8 22H16C18.2093 22 20 20.2093 20 18V12.2324C20.5978 11.8866 21 11.2402 21 10.5V9C21 7.8955 20.1045 7 19 7H17.2391C17.5625 6.49486 17.75 5.89433 17.75 5.25C17.75 3.455 16.295 2 14.5 2C13.4948 2 12.5961 2.45633 12 3.17315ZM12.75 5.25V6.975V7H14.5C15.465 7 16.25 6.215 16.25 5.25C16.25 4.285 15.465 3.5 14.5 3.5C13.535 3.5 12.75 4.285 12.75 5.25ZM14.5 8.5H12.75V10.975H19.1563C19.3557 10.9092 19.5 10.7212 19.5 10.5V9C19.5 8.72425 19.2758 8.5 19 8.5H14.5ZM12.75 20.5H16C17.3785 20.5 18.5 19.3785 18.5 18V12.5H12.75V20.5ZM11.25 12.5V20.5H8C6.6215 20.5 5.5 19.3785 5.5 18V12.5H11.25Z" fill="black"/>
</svg>
