<?xml version="1.0" encoding="UTF-8"?>
<svg xmlns:svg="http://www.w3.org/2000/svg" viewBox="0 0 24 24" fill="none">
<svg:path d="M9.5 2C7.705 2 6.25 3.455 6.25 5.25C6.25 5.89433 6.43748 6.49486 6.76087 7H5C3.8955 7 3 7.8955 3 9V10.5C3 11.6045 3.8955 12.5 5 12.5H11.25V8.5V7H12.75V8.5V12.5H19C20.1045 12.5 21 11.6045 21 10.5V9C21 7.8955 20.1045 7 19 7H17.2391C17.5625 6.49486 17.75 5.89433 17.75 5.25C17.75 3.455 16.295 2 14.5 2C13.4948 2 12.5961 2.45633 12 3.17315C11.4039 2.45633 10.5052 2 9.5 2ZM11.25 5.25V7H9.5C8.535 7 7.75 6.215 7.75 5.25C7.75 4.285 8.535 3.5 9.5 3.5C10.465 3.5 11.25 4.285 11.25 5.25ZM14.5 7C15.465 7 16.25 6.215 16.25 5.25C16.25 4.285 15.465 3.5 14.5 3.5C13.535 3.5 12.75 4.285 12.75 5.25V7H14.5ZM11.25 13.5H5C4.654 13.5 4.317 13.4417 4 13.33V18C4 20.2092 5.79075 22 8 22H11.25V13.5ZM12.75 13.5H19C19.346 13.5 19.683 13.4417 20 13.33V18C20 20.2092 18.2093 22 16 22H12.75V13.5Z" fill="currentColor" fillRule="evenodd" clipRule="evenodd" />
</svg>
