<?xml version="1.0" encoding="UTF-8"?>
<svg xmlns:svg="http://www.w3.org/2000/svg" viewBox="0 0 24 24" fill="none">
<svg:path d="M20.2226 6.28525C18.7048 4.1105 16.3436 2.56625 13.6122 2.125C13.4542 2.2285 13.299 2.3365 13.1465 2.449C14.79 4.093 16.008 6.227 16.6024 8.63675C17.6946 8.20525 18.68 7.62725 19.5366 6.9145C19.779 6.71275 20.0078 6.50275 20.2226 6.28525ZM7.39784 8.637C6.30572 8.20525 5.32023 7.6275 4.46369 6.91475C4.22132 6.71301 3.99274 6.503 3.77766 6.2855C5.29544 4.1105 7.65647 2.56625 10.3881 2.12525C10.5458 2.22875 10.7011 2.33675 10.8538 2.44925C9.21007 4.093 7.992 6.22725 7.39784 8.637ZM11.6165 3.821C10.6405 4.87675 9.87333 6.10825 9.33652 7.48125C9.12997 8.00975 8.9612 8.5505 8.83026 9.1015C9.85004 9.3635 10.9121 9.49575 12.0003 9.49575C13.0884 9.49575 14.1503 9.3635 15.1703 9.1015C15.0393 8.5505 14.8706 8.0095 14.664 7.48125C14.1272 6.10825 13.3601 4.87675 12.3841 3.821C12.2589 3.6855 12.131 3.55375 12.0005 3.426C11.8701 3.554 11.7421 3.6855 11.6169 3.821H11.6165ZM8.57313 10.5835C8.5213 11.049 8.49501 11.5203 8.49501 11.996C8.49501 13.0628 8.62622 14.107 8.8861 15.1153C9.88886 15.3678 10.9322 15.496 12.0003 15.496C13.0684 15.496 14.1117 15.368 15.1144 15.1153C15.3743 14.1068 15.5055 13.0628 15.5055 11.996C15.5055 11.5203 15.4793 11.049 15.4274 10.5835C14.3413 10.852 13.1911 10.996 12.0003 10.996C10.8095 10.996 9.65927 10.852 8.57313 10.5835ZM9.44068 16.7688C10.2654 16.9175 11.1217 16.996 12 16.996C12.8783 16.996 13.7346 16.9175 14.5594 16.7688C14.0291 18.0383 13.2982 19.1818 12.3836 20.171C12.2584 20.3065 12.1305 20.4383 12 20.566C11.8696 20.4383 11.7416 20.3065 11.6164 20.171C10.7018 19.1818 9.97071 18.0383 9.44068 16.7688ZM7.67652 16.329C5.34676 15.5812 3.36756 14.2472 2 12.544C2.25563 17.2712 5.79947 21.1255 10.3878 21.867C10.5458 21.7635 10.7011 21.6555 10.8535 21.543C9.43517 20.1242 8.33351 18.3402 7.67628 16.3292L7.67652 16.329ZM21.7341 10.2095C21.2216 11.2175 20.4822 12.1277 19.5363 12.9147C18.7246 13.5902 17.7967 14.1445 16.7722 14.568C16.9264 13.7365 17.0075 12.8765 17.0075 11.996C17.0075 11.364 16.9657 10.7428 16.8851 10.135C18.4692 9.548 19.8726 8.684 21.0063 7.61725C21.3758 8.3735 21.6525 9.183 21.8218 10.0312C21.7935 10.0908 21.7642 10.1502 21.7341 10.2095ZM22 12.5444C20.6324 14.2474 18.6534 15.5816 16.3238 16.3292C15.6665 18.3405 14.5649 20.1242 13.1465 21.543C13.2992 21.6555 13.4545 21.7635 13.6122 21.867C18.2007 21.1255 21.7442 17.2714 22 12.5444ZM7.22785 14.568C6.20333 14.1445 5.27543 13.5902 4.46372 12.9147C3.51778 12.1275 2.77818 11.2175 2.2659 10.2095C2.23586 10.1502 2.20658 10.0908 2.17828 10.0312C2.34754 9.183 2.62444 8.3735 2.99374 7.61725C4.12746 8.684 5.53081 9.54774 7.11495 10.135C7.03432 10.743 6.99251 11.3643 6.99251 11.996C6.99251 12.8765 7.07363 13.7365 7.22785 14.568Z" fill="currentColor" fillRule="evenodd" clipRule="evenodd" />
</svg>
