<?xml version="1.0" encoding="UTF-8"?>
<svg xmlns:svg="http://www.w3.org/2000/svg" viewBox="0 0 24 24" fill="none">
<svg:path d="M15.7508 7.15568L15.7512 7.15585L15.7509 7.1556L15.7508 7.15568ZM15.7508 7.15568L7.16406 2.61263C6.1968 2.10089 5.05978 2.13239 4.12227 2.69688C3.84026 2.86663 3.59276 3.07513 3.38401 3.31338L11.5919 11.0176L15.7508 7.15568ZM19.7285 9.26034C20.2487 9.53533 20.6755 9.94458 20.963 10.4431H20.9627C21.2322 10.9108 21.375 11.4468 21.375 11.9936C21.3753 12.5403 21.233 13.0766 20.9637 13.5443C20.6767 14.0431 20.2502 14.4526 19.7302 14.728L17.0549 16.1458L12.6881 12.0468L17.1552 7.89885L19.7285 9.26034ZM2.6885 4.71762C2.64675 4.92187 2.625 5.13237 2.625 5.34712V18.6533C2.625 18.8688 2.647 19.08 2.689 19.285L10.4904 12.0411L2.6885 4.71762ZM4.1235 21.3038C3.841 21.1338 3.59299 20.9248 3.38399 20.6863L3.38374 20.686L11.5864 13.0696L15.6542 16.8878L7.16604 21.3863C6.70803 21.6293 6.21153 21.75 5.71652 21.75C5.16626 21.75 4.61726 21.601 4.1235 21.3038Z" fill="currentColor" fillRule="evenodd" clipRule="evenodd" />
</svg>
