<?xml version="1.0" encoding="UTF-8"?>
<svg xmlns:svg="http://www.w3.org/2000/svg" viewBox="0 0 24 24" fill="none">
<svg:path d="M21.4185 10.1817H12.0001V14.05H17.3819C17.1502 15.3 16.4457 16.359 15.3864 17.0682C14.4909 17.6682 13.3454 18.0227 12.0001 18.0227C9.39559 18.0227 7.19107 16.2638 6.40456 13.9C6.20455 13.3 6.09105 12.659 6.09105 12C6.09105 11.341 6.20455 10.7 6.40456 10.1C7.19107 7.7365 9.39559 5.97725 12.0001 5.97725C13.4681 5.97725 14.7864 6.48175 15.8229 7.47275L18.6912 4.6045C16.9594 2.991 14.6957 2 12.0001 2C8.09108 2 4.70903 4.241 3.06351 7.509C2.38625 8.859 2 10.3863 2 12C2 13.6138 2.3865 15.141 3.06351 16.491C4.70903 19.7593 8.09083 22 12.0001 22C14.7002 22 16.9637 21.1045 18.6182 19.5773C20.5092 17.8363 21.6 15.2728 21.6 12.2273C21.6 11.5183 21.5365 10.8362 21.4182 10.1817H21.4185Z" fill="currentColor" />
</svg>
