<?xml version="1.0" encoding="UTF-8"?>
<svg xmlns:svg="http://www.w3.org/2000/svg" viewBox="0 0 24 24" fill="none">
<svg:path d="M17.6873 5.71395C16.2153 4.34247 14.2911 3.50023 12.0001 3.50023H11.9999C8.67716 3.50023 5.8027 5.40496 4.40397 8.18292C3.82848 9.33041 3.49998 10.6286 3.49998 12.0001C3.49998 13.3716 3.82848 14.6698 4.40397 15.8173C5.8027 18.5953 8.67716 20.5 11.9999 20.5C14.2948 20.5 16.2191 19.7388 17.6253 18.4408C19.2325 16.9611 20.1598 14.7818 20.1598 12.1934C20.1598 11.5906 20.1058 11.0111 20.0053 10.4546H12V13.7426H16.5743C16.3773 14.8051 15.7786 15.7053 14.8783 16.3081C14.1173 16.8181 13.1436 17.1193 12.0001 17.1193C9.78615 17.1193 7.91242 15.6241 7.24393 13.6151C7.07394 13.1051 6.97744 12.5604 6.97744 12.0001C6.97744 11.4399 7.07394 10.8951 7.24393 10.3851C7.91242 8.37617 9.78615 6.88094 12.0001 6.88094C13.2479 6.88094 14.3683 7.30968 15.2493 8.15192L17.6873 5.71395ZM6.68194 3.53023C8.27292 2.52924 10.1119 2.00025 12.0001 2.00025L11.9999 2C14.5523 2 16.8726 2.90474 18.7095 4.61647C19.0073 4.89396 19.1795 5.28046 19.1868 5.68745C19.194 6.09445 19.0355 6.48694 18.7478 6.77469L16.5678 8.95466H20.0053C20.731 8.95466 21.3525 9.47416 21.4815 10.1881C21.6 10.8439 21.66 11.5184 21.66 12.1934C21.66 13.6651 21.3985 15.0478 20.883 16.3028C20.3665 17.5598 19.6125 18.6503 18.6415 19.5443L18.6325 19.5525C17.7785 20.3383 16.7823 20.947 15.6711 21.3623C14.5383 21.7855 13.3034 22 12.0001 22C10.1119 22 8.27292 21.471 6.68194 20.47C5.13596 19.4973 3.88523 18.1218 3.06449 16.4918L3.06399 16.4908L3.06349 16.4898C2.72074 15.8068 2.45649 15.0848 2.278 14.3441C2.0935 13.5789 2 12.7901 2 12.0001C2 11.2101 2.0935 10.4214 2.278 9.65615C2.45649 8.91541 2.72074 8.19367 3.06349 7.51043C3.06374 7.50968 3.06424 7.50918 3.06449 7.50843C3.88523 5.87845 5.13596 4.50272 6.68194 3.53023Z" fill="currentColor" fillRule="evenodd" clipRule="evenodd" />
</svg>
