<svg width="24" height="24" viewBox="0 0 24 24" fill="none" xmlns="http://www.w3.org/2000/svg">
<path d="M16.4275 4.5C17.6478 4.5 18.7928 5.03 19.5688 5.954C20.169 6.669 20.4997 7.57325 20.4997 8.50025C20.4997 9.67075 20.322 10.8293 19.9713 11.9438C19.6275 13.0358 19.1228 14.0705 18.4713 15.0188C17.819 15.9678 17.031 16.8143 16.1287 17.5343C15.2067 18.27 14.1788 18.8633 13.0733 19.2973C12.7305 19.4318 12.3693 19.5 12 19.5C11.6308 19.5 11.2698 19.4318 10.9265 19.297L10.9175 19.2935C9.81326 18.86 8.7865 18.2675 7.86575 17.5328C6.96475 16.8135 6.1775 15.9683 5.526 15.0203C4.87525 14.0733 4.371 13.04 4.02775 11.9493C3.6775 10.8363 3.49974 9.67925 3.49974 8.51C3.49974 7.578 3.833 6.67 4.4385 5.9525C5.21525 5.032 6.3595 4.504 7.57775 4.504C8.58775 4.504 9.5575 4.8715 10.3083 5.53875L11.0032 6.1565L11.9973 7.04L12.9935 6.159L13.7085 5.52675C14.457 4.86475 15.4227 4.50025 16.4277 4.50025M16.4277 3.00025C15.107 3.00025 13.78 3.4615 12.715 4.40325L12 5.0355L11.305 4.41775C10.2375 3.469 8.90475 3.00425 7.578 3.00425C5.98325 3.00425 4.39725 3.676 3.29225 4.9855C2.45725 5.975 2 7.22225 2 8.51025C2 13.88 5.31649 18.7065 10.3695 20.69L10.3787 20.6935C10.8995 20.898 11.4498 21 12 21C12.5503 21 13.1008 20.8978 13.6213 20.6935C18.6798 18.7077 22 13.876 22 8.50025C22 7.21825 21.5465 5.9765 20.718 4.9895C19.614 3.67475 18.0258 3 16.428 3L16.4277 3.00025Z" fill="black"/>
</svg>
