<svg width="24" height="24" viewBox="0 0 24 24" fill="none" xmlns="http://www.w3.org/2000/svg">
<path fill-rule="evenodd" clip-rule="evenodd" d="M12 3.5C13.1482 3.5 14.2613 3.7245 15.308 4.16725C16.32 4.59525 17.2292 5.20825 18.0102 5.9895C18.7912 6.7705 19.4045 7.67975 19.8325 8.69175C20.2753 9.73875 20.4998 10.8518 20.4998 12C20.4998 13.1482 20.2753 14.2613 19.8325 15.308C19.4045 16.32 18.7912 17.2292 18.0102 18.0102C17.2292 18.7912 16.32 19.4045 15.308 19.8325C14.261 20.2753 13.148 20.4998 12 20.4998C10.852 20.4998 9.73875 20.2753 8.692 19.8325C7.68 19.4045 6.77075 18.7912 5.98975 18.0102C5.20875 17.2292 4.5955 16.32 4.1675 15.308C3.72475 14.261 3.50025 13.148 3.50025 12C3.50025 10.852 3.72475 9.73875 4.1675 8.69175C4.5955 7.67975 5.20875 6.7705 5.98975 5.9895C6.77075 5.2085 7.68 4.59525 8.692 4.16725C9.739 3.7245 10.852 3.5 12 3.5ZM12 2C6.47725 2 2 6.47725 2 12C2 17.5228 6.47725 22 12 22C17.5228 22 22 17.5228 22 12C22 6.47725 17.5228 2 12 2ZM12 6.5C11.269 6.5 10.5795 6.787 10.0583 7.30825C9.537 7.8295 9.25 8.519 9.25 9.25C9.25 9.66425 9.58575 10 10 10C10.4143 10 10.75 9.66425 10.75 9.25C10.75 8.91975 10.881 8.60675 11.119 8.369C11.357 8.131 11.6698 8 12 8C12.7368 8 13.25 8.65875 13.25 9.25C13.25 9.93909 12.9397 10.2496 12.4701 10.7194L12.4698 10.7198C11.9263 11.2633 11.25 11.9395 11.25 13.25C11.25 13.6643 11.5857 14 12 14C12.4143 14 12.75 13.6643 12.75 13.25C12.75 12.5609 13.0604 12.2504 13.5299 11.7806L13.5302 11.7802C14.0737 11.2368 14.75 10.5605 14.75 9.25C14.75 8.566 14.4685 7.87675 13.9778 7.359C13.4525 6.805 12.7503 6.5 12 6.5ZM10.75 16.5C10.75 15.8098 11.3098 15.25 12 15.25C12.6902 15.25 13.25 15.8098 13.25 16.5C13.25 17.1902 12.6902 17.75 12 17.75C11.3098 17.75 10.75 17.1902 10.75 16.5Z" fill="black"/>
</svg>
