<?xml version="1.0" encoding="UTF-8"?>
<svg xmlns:svg="http://www.w3.org/2000/svg" viewBox="0 0 24 24" fill="none">
<svg:path d="M3.06581 12.5018C3.33706 12.589 3.53456 12.825 3.57131 13.1078C3.66931 13.865 3.86881 14.6018 4.16756 15.3083C4.59556 16.3203 5.20881 17.2295 5.98981 18.0105C6.77081 18.7915 7.68006 19.4048 8.69206 19.8328C9.73906 20.2755 10.8521 20.5 12.0003 20.5C13.1486 20.5 14.2616 20.2755 15.3086 19.8328C16.3206 19.4048 17.2298 18.7915 18.0108 18.0105C18.7918 17.2295 19.4051 16.3203 19.8331 15.3083C20.2758 14.2613 20.5003 13.1482 20.5003 12C20.5003 10.8518 20.2758 9.73875 19.8331 8.69175C19.4051 7.67975 18.7918 6.7705 18.0108 5.9895C17.2298 5.2085 16.3206 4.59525 15.3086 4.16725C14.2616 3.7245 13.1486 3.5 12.0003 3.5C10.8521 3.5 9.73906 3.7245 8.69206 4.16725C7.68006 4.59525 6.77081 5.2085 5.98981 5.9895C5.60042 6.37889 5.25283 6.80008 4.94911 7.25H8.25006C8.66427 7.25 9.00006 7.58579 9.00006 8C9.00006 8.41421 8.66427 8.75 8.25006 8.75H4.75006C3.50735 8.75 2.50006 7.74271 2.50006 6.5V3C2.50006 2.58579 2.83585 2.25 3.25006 2.25C3.66427 2.25 4.00006 2.58579 4.00006 3V5.99915C5.82428 3.57104 8.72815 2.00021 11.9988 2C17.5011 1.99925 21.9896 6.4785 22.0001 11.9808C22.0106 17.5125 17.5293 22 12.0001 22C6.91656 22 2.71906 18.2068 2.08331 13.2965C2.01331 12.7567 2.52881 12.328 3.04681 12.4955C3.05306 12.4975 3.05931 12.4995 3.06581 12.5015V12.5018ZM12.7501 7.5C12.7501 7.08579 12.4143 6.75 12.0001 6.75C11.5858 6.75 11.2501 7.08579 11.2501 7.5V11.0802C11.2501 11.8831 11.6011 12.6457 12.2104 13.1681L12.2105 13.1682L15.012 15.5694C15.3265 15.839 15.7999 15.8026 16.0695 15.4881C16.3391 15.1736 16.3026 14.7001 15.9882 14.4306L13.1867 12.0294L13.1867 12.0293C12.9095 11.7917 12.7501 11.4449 12.7501 11.0802V7.5Z" fill="currentColor" fillRule="evenodd" clipRule="evenodd" />
</svg>
