<?xml version="1.0" encoding="UTF-8"?>
<svg xmlns:svg="http://www.w3.org/2000/svg" viewBox="0 0 24 24" fill="none">
<svg:path d="M13.5008 4.62178C13.1 4.22077 12.567 4.00002 12 4.00002C11.433 4.00002 10.9 4.22102 10.4993 4.62178L5.818 9.30309C5.398 9.72309 5.06975 10.2143 4.8425 10.7631C4.61525 11.3119 4.5 11.8914 4.5 12.4854V18.0002C4.5 19.3787 5.6215 20.5002 7 20.5002H17C18.3785 20.5002 19.5 19.3787 19.5 18.0002V12.4854C19.5 11.8914 19.3848 11.3119 19.1575 10.7631C18.9302 10.2143 18.602 9.72309 18.182 9.30309L13.5008 4.62178ZM9.4385 3.56101C10.146 2.85375 11.073 2.5 12 2.5C12.927 2.5 13.8543 2.85375 14.5615 3.56101L19.2428 8.24232C20.3678 9.36759 21 10.8939 21 12.4851V17.9999C21 20.209 19.2093 22 17 22H7C4.79075 22 3 20.2092 3 17.9999V12.4851C3 10.8939 3.632 9.36759 4.75725 8.24232L9.4385 3.56101ZM12.75 15C12.75 14.5858 12.4142 14.25 12 14.25C11.5858 14.25 11.25 14.5858 11.25 15V18C11.25 18.4142 11.5858 18.75 12 18.75C12.4142 18.75 12.75 18.4142 12.75 18V15Z" fill="currentColor" fillRule="evenodd" clipRule="evenodd" />
</svg>
