<svg width="24" height="24" viewBox="0 0 24 24" fill="none" xmlns="http://www.w3.org/2000/svg">
<path d="M12 4C12.567 4 13.1 4.22075 13.5008 4.62175L18.182 9.303C18.602 9.723 18.9302 10.2142 19.1575 10.763C19.3847 11.3117 19.5 11.8913 19.5 12.4853V19.0003C19.5 19.8273 18.827 20.5003 18 20.5003H15.5V15.5003C15.5 14.699 15.188 13.9455 14.6212 13.379C14.0545 12.8125 13.3013 12.5003 12.5 12.5003H11.5C10.6988 12.5003 9.94525 12.8122 9.37875 13.379C8.81225 13.9457 8.5 14.699 8.5 15.5003V20.5003H6C5.173 20.5003 4.5 19.8273 4.5 19.0003V12.4853C4.5 11.8913 4.61525 11.3117 4.8425 10.763C5.06975 10.2142 5.398 9.723 5.818 9.303L10.4993 4.62175C10.9 4.22075 11.433 4 12 4ZM12 2.5C11.073 2.5 10.146 2.85375 9.4385 3.561L4.75725 8.24225C3.632 9.3675 3 10.8937 3 12.485V19C3 20.6568 4.34325 22 6 22H9C9.55225 22 10 21.5523 10 21V15.5C10 14.6715 10.6715 14 11.5 14H12.5C13.3285 14 14 14.6715 14 15.5V21C14 21.5523 14.4478 22 15 22H18C19.6568 22 21 20.6568 21 19V12.485C21 10.8937 20.3678 9.3675 19.2428 8.24225L14.5615 3.561C13.8543 2.85375 12.927 2.5 12 2.5Z" fill="black"/>
</svg>
