<?xml version="1.0" encoding="UTF-8"?>
<svg xmlns:svg="http://www.w3.org/2000/svg" viewBox="0 0 24 24" fill="none">
<svg:path d="M12 2.5C11.073 2.5 10.146 2.85375 9.4385 3.561L4.75725 8.24225C3.632 9.3675 3 10.8937 3 12.485V19C3 20.6568 4.34325 22 6 22H9C9.55225 22 10 21.5523 10 21V15.5C10 14.6715 10.6715 14 11.5 14H12.5C13.3285 14 14 14.6715 14 15.5V21C14 21.5523 14.4478 22 15 22H18C19.6568 22 21 20.6568 21 19V12.485C21 10.8937 20.3678 9.3675 19.2428 8.24225L14.5615 3.561C13.8543 2.85375 12.927 2.5 12 2.5Z" fill="currentColor" />
</svg>
