<?xml version="1.0" encoding="UTF-8"?>
<svg xmlns:svg="http://www.w3.org/2000/svg" viewBox="0 0 24 24" fill="none">
<svg:path d="M0.469748 23.53C0.615996 23.6765 0.807993 23.7498 0.999991 23.7498L1.00024 23.75C1.19199 23.75 1.38399 23.6767 1.53048 23.5303L3.7518 21.3089L4.84427 20.2165L9.99927 15.0615L11.0597 14.0011L14.3807 10.68L17.68 7.38075L20.2165 4.84427L21.3089 3.7518L23.5303 1.53049C23.8232 1.23749 23.8232 0.762745 23.5303 0.469748C23.2373 0.176751 22.7625 0.176751 22.4695 0.469748L20.2482 2.69105C19.6075 2.25492 18.8335 2 18 2H6C3.79075 2 2 3.79075 2 6V18C2 18.8335 2.25488 19.6074 2.69096 20.2481L0.469748 22.4693C0.176751 22.7623 0.176751 23.237 0.469748 23.53ZM3.78346 19.1556L8.93817 14.0009L7.53024 12.5938C7.23738 12.301 6.76248 12.301 6.46962 12.5938L3.53033 15.5315C3.52042 15.5414 3.51031 15.5509 3.5 15.5602V18C3.5 18.4166 3.60244 18.8098 3.78346 19.1556ZM9.99856 12.9406L13.0253 9.91388C12.5454 9.41884 12.25 8.74392 12.25 8C12.25 6.48122 13.4812 5.25 15 5.25C15.7439 5.25 16.4189 5.5454 16.9139 6.02529L19.1557 3.78352C18.8099 3.60247 18.4167 3.5 18 3.5H6C4.6215 3.5 3.5 4.6215 3.5 6V13.4416L5.40897 11.5336C6.28762 10.6555 7.71224 10.6555 8.5909 11.5336L9.99856 12.9406ZM15.853 7.08623C15.6296 6.87765 15.3297 6.75 15 6.75C14.3096 6.75 13.75 7.30964 13.75 8C13.75 8.3297 13.8776 8.62959 14.0862 8.85295L15.853 7.08623ZM7.00324 22C6.34365 22 6.00527 21.2098 6.46043 20.7325C6.60197 20.584 6.79813 20.5 7.00324 20.5H18C19.3785 20.5 20.5 19.3785 20.5 18V17.5591C20.4897 17.5499 20.4796 17.5403 20.4697 17.5304L17.5304 14.5927C17.2375 14.3 16.7626 14.3 16.4698 14.5927L14.591 16.4705C13.8795 17.1816 12.8102 17.3169 11.9625 16.8765C11.8327 16.809 11.7148 16.7277 11.6039 16.6379C11.2819 16.3775 11.2977 15.8844 11.5905 15.5915C11.8833 15.2988 12.3057 15.3752 12.6778 15.5568C12.7051 15.5701 12.7333 15.5818 12.7625 15.5915C13.0234 15.6783 13.3226 15.6179 13.5303 15.4104L15.4091 13.5326C16.2878 12.6544 17.7124 12.6544 18.591 13.5326L20.5 15.4406V7.00324C20.5 6.79813 20.584 6.60197 20.7325 6.46043C21.2098 6.00527 22 6.34365 22 7.00325V18C22 20.2093 20.2093 22 18 22H7.00324Z" fill="currentColor" fillRule="evenodd" clipRule="evenodd" />
</svg>
