<svg width="24" height="24" viewBox="0 0 24 24" fill="none" xmlns="http://www.w3.org/2000/svg">
<path fill-rule="evenodd" clip-rule="evenodd" d="M11.25 3.87214L8.52277 6.52325C8.22576 6.81197 7.75094 6.80525 7.46222 6.50824C7.1735 6.21123 7.18022 5.73641 7.47723 5.44769L10.7702 2.24663C11.4523 1.58372 12.5486 1.58444 13.2296 2.2489L16.5238 5.46317C16.8202 5.75245 16.8261 6.22728 16.5368 6.52375C16.2475 6.82022 15.7727 6.82604 15.4762 6.53677L12.75 3.87666V11C12.75 11.4142 12.4142 11.75 12 11.75C11.5858 11.75 11.25 11.4142 11.25 11V3.87214ZM3.5 13.25V5.99122C3.5 4.61547 4.61525 3.49997 5.99125 3.49997H6.25875C6.668 3.49997 7 3.16822 7 2.75872V2.74122C7 2.33197 6.66825 1.99997 6.25875 1.99997H5.99125C3.787 1.99997 2 3.78697 2 5.99122V18.0087C2 20.213 3.787 22 5.99125 22H18.0088C20.213 22 22 20.213 22 18.0087V5.99122C22 3.78697 20.213 1.99997 18.0088 1.99997H17.75C17.3358 1.99997 17 2.33572 17 2.74997C17 3.16422 17.3358 3.49997 17.75 3.49997H18.0088C19.3845 3.49997 20.5 4.61522 20.5 5.99122V13.25H16C15.0335 13.25 14.25 14.0335 14.25 15C14.25 16.2425 13.2425 17.25 12 17.25C10.7575 17.25 9.75 16.2425 9.75 15C9.75 14.0335 8.96646 13.25 8 13.25H3.5ZM3.5 14.75V18.0087C3.5 19.3847 4.6155 20.5 5.99125 20.5H18.0088C19.3848 20.5 20.5 19.3845 20.5 18.0087V14.75H16C15.862 14.75 15.75 14.8619 15.75 15C15.75 17.0709 14.071 18.75 12 18.75C9.92904 18.75 8.25 17.0709 8.25 15C8.25 14.8619 8.13804 14.75 8 14.75H3.5Z" fill="black"/>
</svg>
