<?xml version="1.0" encoding="UTF-8"?>
<svg xmlns:svg="http://www.w3.org/2000/svg" viewBox="0 0 24 24" fill="none">
<svg:path d="M20.5 6C20.5 4.6215 19.3785 3.5 18 3.5H6C4.6215 3.5 3.5 4.6215 3.5 6V13.25H8C8.96646 13.25 9.75 14.0335 9.75 15C9.75 16.2425 10.7575 17.25 12 17.25C13.2425 17.25 14.25 16.2425 14.25 15C14.25 14.0335 15.0335 13.25 16 13.25H20.5V6ZM6 2H18C20.2093 2 22 3.79075 22 6V18C22 20.2093 20.2093 22 18 22H6C3.79075 22 2 20.2093 2 18V6C2 3.79075 3.79075 2 6 2Z" fill="currentColor" fillRule="evenodd" clipRule="evenodd" />
</svg>
