<svg width="24" height="24" viewBox="0 0 24 24" fill="none" xmlns="http://www.w3.org/2000/svg">
<path fill-rule="evenodd" clip-rule="evenodd" d="M12.75 2.5C12.75 2.08579 12.4142 1.75 12 1.75C11.5858 1.75 11.25 2.08579 11.25 2.5V9.62331L8.52378 6.9632C8.22732 6.67392 7.75248 6.67975 7.4632 6.97622C7.17393 7.27269 7.17975 7.74752 7.47622 8.0368L10.7704 11.251L10.7704 11.2511C11.4514 11.9155 12.5477 11.9163 13.2298 11.2533L13.2299 11.2533L16.5228 8.05228C16.8198 7.76356 16.8265 7.28874 16.5378 6.99173C16.2491 6.69472 15.7742 6.688 15.4772 6.97672L12.75 9.62783V2.5ZM18 2H16.75C16.3358 2 16 2.33575 16 2.75C16 3.16425 16.3358 3.5 16.75 3.5H18C19.3807 3.5 20.5 4.61925 20.5 6V13.25H16C15.0335 13.25 14.25 14.0335 14.25 15C14.25 16.2425 13.2425 17.25 12 17.25C10.7575 17.25 9.75 16.2425 9.75 15C9.75 14.0335 8.96646 13.25 8 13.25H3.5V6C3.5 4.61925 4.61925 3.5 6 3.5H7.25C7.66425 3.5 8 3.16425 8 2.75C8 2.33575 7.66425 2 7.25 2H6C3.79075 2 2 3.79075 2 6V18C2 20.2093 3.79075 22 6 22H18C20.2093 22 22 20.2093 22 18V6C22 3.79075 20.2093 2 18 2ZM3.5 14.75V18C3.5 19.3807 4.61925 20.5 6 20.5H18C19.3807 20.5 20.5 19.3807 20.5 18V14.75H16C15.862 14.75 15.75 14.862 15.75 15C15.75 17.071 14.071 18.75 12 18.75C9.92904 18.75 8.25 17.071 8.25 15C8.25 14.862 8.13804 14.75 8 14.75H3.5Z" fill="black"/>
</svg>
