<?xml version="1.0" encoding="UTF-8"?>
<svg xmlns:svg="http://www.w3.org/2000/svg" viewBox="0 0 24 24" fill="none">
<svg:path d="M12 2C6.47725 2 2 6.47725 2 12C2 17.5228 6.47725 22 12 22C17.5228 22 22 17.5228 22 12C22 6.47725 17.5228 2 12 2ZM9.5 11C9.5 10.5858 9.83579 10.25 10.25 10.25H11.4068C12.2867 10.25 13 10.9633 13 11.8433V17C13 17.4142 12.6642 17.75 12.25 17.75C11.8358 17.75 11.5 17.4142 11.5 17V11.8433C11.5 11.7917 11.4583 11.75 11.4068 11.75H10.25C9.83579 11.75 9.5 11.4142 9.5 11ZM10.75 7.75C10.75 7.05975 11.3098 6.5 12 6.5C12.6902 6.5 13.25 7.05975 13.25 7.75C13.25 8.44025 12.6902 9 12 9C11.3098 9 10.75 8.44025 10.75 7.75Z" fill="currentColor" fillRule="evenodd" clipRule="evenodd" />
</svg>
