<?xml version="1.0" encoding="UTF-8"?>
<svg xmlns:svg="http://www.w3.org/2000/svg" viewBox="0 0 24 24" fill="none">
<svg:path d="M12 3.5C13.1482 3.5 14.2613 3.7245 15.3083 4.16725C16.3203 4.59525 17.2295 5.20825 18.0105 5.9895C18.7915 6.7705 19.4048 7.67975 19.8328 8.69175C20.2755 9.73875 20.5 10.8518 20.5 12C20.5 13.1482 20.2755 14.2613 19.8328 15.308C19.4048 16.32 18.7915 17.2292 18.0105 18.0102C17.2295 18.7912 16.3203 19.4045 15.3083 19.8325C14.2613 20.2753 13.1482 20.4998 12 20.4998C10.8518 20.4998 9.73875 20.2753 8.69175 19.8325C7.67975 19.4045 6.7705 18.7912 5.9895 18.0102C5.2085 17.2292 4.59525 16.32 4.16725 15.308C3.7245 14.261 3.5 13.148 3.5 12C3.5 10.852 3.7245 9.73875 4.16725 8.69175C4.59525 7.67975 5.20825 6.7705 5.9895 5.9895C6.7705 5.2085 7.67975 4.59525 8.69175 4.16725C9.73875 3.7245 10.8518 3.5 12 3.5ZM12 2C6.47725 2 2 6.47725 2 12C2 17.5228 6.47725 22 12 22C17.5228 22 22 17.5228 22 12C22 6.47725 17.5228 2 12 2ZM9.5 11C9.5 10.5858 9.83579 10.25 10.25 10.25H11.4068C12.2867 10.25 13 10.9633 13 11.8433V17C13 17.4142 12.6642 17.75 12.25 17.75C11.8358 17.75 11.5 17.4142 11.5 17V11.8433C11.5 11.7917 11.4583 11.75 11.4068 11.75H10.25C9.83579 11.75 9.5 11.4142 9.5 11ZM10.75 7.75C10.75 7.05975 11.3098 6.5 12 6.5C12.6902 6.5 13.25 7.05975 13.25 7.75C13.25 8.44025 12.6902 9 12 9C11.3098 9 10.75 8.44025 10.75 7.75Z" fill="currentColor" fillRule="evenodd" clipRule="evenodd" />
</svg>
