<?xml version="1.0" encoding="UTF-8"?>
<svg xmlns:svg="http://www.w3.org/2000/svg" viewBox="0 0 24 24" fill="none">
<svg:path d="M21.9308 7.85873C21.9813 8.92498 21.9936 9.26523 21.9988 11.9807V11.981C22.0041 14.696 21.993 15.037 21.9463 16.1042C21.9 17.1677 21.7325 17.8952 21.4863 18.5312C21.232 19.1895 20.891 19.748 20.3368 20.3047C19.7825 20.8617 19.2253 21.2042 18.5678 21.4615C17.932 21.7097 17.206 21.8802 16.142 21.931C15.0755 21.9815 14.7347 21.9935 12.0187 21.9987C9.3037 22.0037 8.96319 21.9935 7.89668 21.9465C6.83242 21.9 6.10492 21.7325 5.46891 21.4865C4.81066 21.2317 4.25215 20.8912 3.6954 20.3365C3.13839 19.7817 2.79514 19.225 2.53864 18.5675C2.28989 17.9322 2.11989 17.2057 2.06913 16.142C2.01838 15.075 2.00638 14.7342 2.00113 12.019C1.99613 9.30348 2.00663 8.96348 2.05338 7.89673C2.10039 6.83198 2.26714 6.10498 2.51339 5.46823C2.76789 4.81023 3.10864 4.25198 3.66365 3.69498C4.2179 3.13848 4.77516 2.79498 5.43266 2.53873C6.06767 2.28998 6.79442 2.11948 7.85843 2.06923C8.92494 2.01798 9.26545 2.00648 11.9807 2.00123C14.6967 1.99598 15.0372 2.00648 16.1038 2.05373C17.168 2.09973 17.8953 2.26748 18.5315 2.51373C19.1898 2.76748 19.7483 3.10898 20.305 3.66323C20.8615 4.21823 21.2043 4.77473 21.4613 5.43223C21.7098 6.06798 21.8803 6.79398 21.9308 7.85873ZM6.99993 11.9997C6.99993 14.7612 9.23844 16.9997 12 16.9997C14.7615 16.9997 17 14.7612 17 11.9997C17 9.23823 14.7615 6.99973 12 6.99973C9.23844 6.99973 6.99993 9.23823 6.99993 11.9997ZM16 6.74973C16 7.43998 16.5598 7.99973 17.25 7.99973C17.9403 7.99973 18.5 7.43998 18.5 6.74973C18.5 6.05948 17.9403 5.49973 17.25 5.49973C16.5598 5.49973 16 6.05948 16 6.74973ZM9.52514 9.52525C10.1861 8.864 11.0649 8.5 11.9999 8.5C12.9349 8.5 13.8139 8.864 14.4749 9.525C15.1359 10.1863 15.4999 11.065 15.4999 12C15.4999 12.935 15.1359 13.814 14.4749 14.475C13.8136 15.136 12.9349 15.5 11.9999 15.5C11.0649 15.5 10.1859 15.136 9.52489 14.475C8.86389 13.8137 8.49989 12.9348 8.49989 12C8.49989 11.0652 8.86414 10.1863 9.52514 9.52525Z" fill="currentColor" fillRule="evenodd" clipRule="evenodd" />
</svg>
