<?xml version="1.0" encoding="UTF-8"?>
<svg xmlns:svg="http://www.w3.org/2000/svg" viewBox="0 0 24 24" fill="none">
<svg:path d="M5.25 2.99999C5.25 2.58578 5.58577 2.25 5.99996 2.25H7.36039C8.67105 2.25 9.79981 3.17531 10.0569 4.46061L10.0569 4.46064L10.5648 7H16.7217H16.722C17.9333 7 18.8671 8.06525 18.7071 9.26425L17.2384 20.2643C17.1058 21.258 16.2571 22 15.2533 22H8.74669C7.74287 22 6.89424 21.2578 6.76157 20.2643L5.29288 9.26425C5.13291 8.06525 6.0669 7 7.278 7H9.03517L8.58615 4.75485L8.58614 4.75482C8.46927 4.17065 7.95611 3.74999 7.36039 3.74999H5.99996C5.58577 3.74999 5.25 3.4142 5.25 2.99999ZM10.4851 14.25L9.33516 8.5H7.278C7.08024 8.5 6.95708 8.607 6.90125 8.67075C6.84543 8.7345 6.75556 8.87075 6.78159 9.06625L7.47372 14.25H10.4851ZM16.5258 14.25H12.0148L10.8648 8.5H16.7215C16.919 8.5 17.0424 8.607 17.0982 8.67075C17.1541 8.7345 17.2439 8.8705 17.2179 9.06625L16.5258 14.25Z" fill="currentColor" fillRule="evenodd" clipRule="evenodd" />
</svg>
