<svg width="24" height="24" viewBox="0 0 24 24" fill="none" xmlns="http://www.w3.org/2000/svg">
<path fill-rule="evenodd" clip-rule="evenodd" d="M1.46967 1.46967C1.76256 1.17678 2.23744 1.17678 2.53033 1.46967L12.1702 11.1096L16.3673 15.3063L16.3671 15.3064L21.5303 20.4697C21.8232 20.7626 21.8232 21.2374 21.5303 21.5303C21.2374 21.8232 20.7626 21.8232 20.4697 21.5303L15.5889 16.6496L15.1963 20.2188C15.0848 21.2325 14.2283 22 13.2083 22H10.7923C9.77225 22 8.91575 21.2325 8.80425 20.2188L8.391 16.4626C8.34375 16.0333 8.11325 15.6463 7.76 15.3978C5.9125 14.0986 4.689 11.9736 4.6275 9.55991C4.59819 8.41132 4.83532 7.31971 5.28067 6.34133L1.46967 2.53033C1.17678 2.23744 1.17678 1.76256 1.46967 1.46967ZM13.705 20.0548C13.677 20.3088 13.4635 20.5 13.208 20.5H10.792C10.5365 20.5 10.323 20.3085 10.295 20.0548L10.124 18.5H13.876L13.705 20.0548ZM17.4805 14.2986C17.4806 14.2985 17.4807 14.2984 17.4807 14.2983L17.4805 14.2986ZM19.375 9.36841C19.375 11.2643 18.6581 12.9926 17.4807 14.2983L7.0775 3.89548C8.3875 2.71799 10.117 2 12.002 2C12.125 2 12.2488 2.003 12.373 2.00925C16.2728 2.2035 19.375 5.42396 19.375 9.36841Z" fill="black"/>
</svg>
