<?xml version="1.0" encoding="UTF-8"?>
<svg xmlns:svg="http://www.w3.org/2000/svg" viewBox="0 0 24 24" fill="none">
<svg:path d="M12.2983 3.5075C12.1998 3.5025 12.1001 3.5 12.0018 3.5V3.50025C11.2001 3.50025 10.4216 3.661 9.68812 3.97825C8.97688 4.28575 8.33989 4.725 7.79514 5.284C7.25315 5.84025 6.83241 6.484 6.54491 7.19725C6.24716 7.93625 6.10641 8.71825 6.12691 9.5215C6.15091 10.4625 6.39091 11.356 6.83991 12.177C7.2704 12.964 7.88689 13.6535 8.62263 14.171C9.32862 14.6675 9.78737 15.443 9.88162 16.2985L9.9863 17.25H11.2499V11C11.2499 10.5858 11.5857 10.25 11.9999 10.25C12.4141 10.25 12.7499 10.5858 12.7499 11V17.25H14.0134L14.1181 16.2985C14.2123 15.4413 14.6688 14.6673 15.3705 14.1753C16.1285 13.6438 16.7583 12.9323 17.1918 12.1175C17.645 11.266 17.8748 10.341 17.8748 9.3685C17.8748 7.853 17.2983 6.4145 16.2515 5.3185C15.2078 4.2255 13.8038 3.5825 12.2983 3.5075ZM10.1513 18.75H11.9999H13.8484L13.7048 20.0548C13.6768 20.3087 13.4633 20.5 13.2078 20.5H10.7919C10.5364 20.5 10.3229 20.3085 10.2949 20.0548L10.1513 18.75ZM4.62743 9.55975C4.52143 5.40925 7.89314 2 12.0018 2H12.0021C12.1251 2 12.2488 2.003 12.3731 2.00925C16.2728 2.2035 19.375 5.424 19.375 9.3685C19.375 11.8645 18.1325 14.0708 16.232 15.4035C15.8815 15.6493 15.656 16.0367 15.6093 16.4625L15.1961 20.2188C15.0846 21.2325 14.2281 22 13.2081 22H10.7921C9.77212 22 8.91563 21.2325 8.80413 20.2188L8.39089 16.4625C8.34364 16.0333 8.11314 15.6462 7.75989 15.3977C5.91242 14.0985 4.68893 11.9735 4.62743 9.55975ZM12.7499 6.25C12.7499 5.83579 12.4141 5.5 11.9999 5.5C11.5857 5.5 11.2499 5.83579 11.2499 6.25V7.75C11.2499 8.16421 11.5857 8.5 11.9999 8.5C12.4141 8.5 12.7499 8.16421 12.7499 7.75V6.25ZM8.2196 7.71967C8.5125 7.42678 8.98737 7.42678 9.28026 7.71967L10.2803 8.71967C10.5732 9.01256 10.5732 9.48744 10.2803 9.78033C9.98737 10.0732 9.5125 10.0732 9.2196 9.78033L8.2196 8.78033C7.92671 8.48744 7.92671 8.01256 8.2196 7.71967ZM15.7803 8.78033C16.0732 8.48744 16.0732 8.01256 15.7803 7.71967C15.4874 7.42678 15.0125 7.42678 14.7196 7.71967L13.7196 8.71967C13.4267 9.01256 13.4267 9.48744 13.7196 9.78033C14.0125 10.0732 14.4874 10.0732 14.7803 9.78033L15.7803 8.78033Z" fill="currentColor" fillRule="evenodd" clipRule="evenodd" />
</svg>
