<svg width="24" height="24" viewBox="0 0 24 24" fill="none" xmlns="http://www.w3.org/2000/svg">
<path fill-rule="evenodd" clip-rule="evenodd" d="M12 2C6.47725 2 2 6.47725 2 12C2 17.5228 6.47725 22 12 22C17.5228 22 22 17.5228 22 12C22 6.47725 17.5228 2 12 2ZM17 10.158C17 11.7553 16.2958 13.1825 15.1905 14.1285C15.147 14.1657 15.1071 14.2064 15.071 14.25H8.92819C8.89183 14.206 8.85157 14.165 8.80775 14.1275C7.73425 13.208 7.0395 11.8343 7.00125 10.292C6.9995 10.2213 6.9995 10.151 7.0005 10.0808C7 10.054 6.9995 10.027 6.9995 10.0003C6.9995 7.2935 9.1505 5.08925 11.8365 5.00325C11.8391 5.00325 11.8418 5.00313 11.8444 5.003C11.847 5.00288 11.8496 5.00275 11.8523 5.00275C11.8755 5.002 11.8988 5.00167 11.922 5.00134L11.9453 5.001L11.9677 5.00075L11.9902 5.0005H11.9995C12.0253 5.0005 12.0508 5.00099 12.0766 5.00149L12.0773 5.0015C12.092 5.0015 12.1065 5.0015 12.1213 5.002C14.8265 5.06675 16.9995 7.27975 16.9995 10.0005C16.9995 10.026 16.999 10.0515 16.9985 10.077C16.999 10.104 16.9995 10.1313 16.9995 10.1585L17 10.158ZM9.34961 15.75H14.6498L14.3212 17.3923C14.1342 18.327 13.3135 19 12.36 19H11.6393C10.686 19 9.865 18.327 9.678 17.3923L9.34961 15.75Z" fill="black"/>
</svg>
