<?xml version="1.0" encoding="UTF-8"?>
<svg xmlns:svg="http://www.w3.org/2000/svg" viewBox="0 0 24 24" fill="none">
<svg:path d="M12 3.5C13.1482 3.5 14.2613 3.7245 15.308 4.16725C16.32 4.59525 17.2293 5.2085 18.0103 5.9895C18.7912 6.7705 19.4045 7.67975 19.8325 8.69175C20.2753 9.73875 20.4998 10.8518 20.4998 11.9998C20.4998 13.1477 20.2753 14.261 19.8325 15.3077C19.4045 16.3197 18.7912 17.229 18.0103 18.01C17.2293 18.791 16.32 19.4043 15.308 19.8323C14.261 20.275 13.148 20.4995 12 20.4995C10.852 20.4995 9.73875 20.275 8.692 19.8323C7.68 19.4043 6.77075 18.791 5.98975 18.01C5.20875 17.229 4.5955 16.3197 4.1675 15.3077C3.72475 14.2607 3.50025 13.1477 3.50025 11.9998C3.50025 10.8518 3.72475 9.7385 4.1675 8.69175C4.5955 7.67975 5.20875 6.7705 5.98975 5.9895C6.77075 5.2085 7.68 4.59525 8.692 4.16725C9.739 3.7245 10.852 3.5 12 3.5ZM12 2C6.47725 2 2 6.47725 2 12C2 17.5228 6.47725 22 12 22C17.5228 22 22 17.5228 22 12C22 6.47725 17.5228 2 12 2ZM10.5743 14.25C10.4452 13.7617 10.168 13.3181 9.78336 12.9885C8.9944 12.3128 8.52692 11.3165 8.50068 10.255C8.49967 10.2115 8.49942 10.1615 8.50042 10.1027V10.08V10.0573V10.037C8.49992 10.0247 8.49968 10.0128 8.49968 10.0005C8.49968 9.0855 8.85041 8.22025 9.48738 7.56375C10.1231 6.90875 10.9743 6.53175 11.8845 6.50275H11.886H11.8875L11.9003 6.50225C11.9184 6.50176 11.9394 6.50151 11.96 6.50127L11.9613 6.50125H11.9628H11.986L11.995 6.50075H12.0065C12.0152 6.50075 12.0242 6.50075 12.0327 6.501H12.0547C12.0637 6.5015 12.073 6.5015 12.082 6.50175H12.0882C13.0037 6.52425 13.8609 6.898 14.5024 7.554C15.1453 8.21175 15.4996 9.0805 15.4996 10.0005C15.4996 10.0108 15.4996 10.021 15.4991 10.0312L15.4986 10.0548V10.077V10.0993V10.119C15.4991 10.132 15.4993 10.1453 15.4993 10.1583C15.4993 11.2585 15.0311 12.2903 14.2146 12.9893C13.8305 13.3182 13.5535 13.7615 13.4244 14.25H10.5743ZM10.8791 15.75L11.1488 17.0985C11.1953 17.3315 11.4015 17.5005 11.639 17.5005H12.3597C12.5972 17.5005 12.8035 17.3315 12.85 17.0985L13.1197 15.75H10.8791ZM11.9905 5.0005H11.9998C12.0257 5.0005 12.0522 5.0005 12.078 5.001C12.0854 5.00113 12.0927 5.00119 12.1 5.00125C12.1073 5.00131 12.1146 5.00137 12.122 5.0015C14.8271 5.06625 17 7.27925 17 10C17 10.0255 16.9995 10.051 16.999 10.0765C16.9995 10.1038 17 10.1307 17 10.158C17 11.7552 16.2958 13.1825 15.1906 14.1285C15.0211 14.2735 14.9056 14.4715 14.8619 14.6903L14.3214 17.3923C14.1344 18.327 13.3134 19 12.3602 19H11.6395C10.6861 19 9.86536 18.327 9.67837 17.3923L9.13814 14.6905C9.09415 14.4712 8.97815 14.273 8.80816 14.1275C7.73471 13.208 7.03975 11.8345 7.00175 10.292C7 10.2213 7 10.1507 7.001 10.0807C7.0005 10.054 7 10.0273 7 10.0003C7 7.2935 9.15089 5.08925 11.8368 5.00325C11.8394 5.00325 11.842 5.00313 11.8446 5.003C11.8473 5.00287 11.8499 5.00275 11.8525 5.00275C11.8835 5.00175 11.9145 5.00125 11.9455 5.001C11.953 5.001 11.9605 5.00088 11.968 5.00075C11.9755 5.00062 11.983 5.0005 11.9905 5.0005Z" fill="currentColor" fillRule="evenodd" clipRule="evenodd" />
</svg>
