<?xml version="1.0" encoding="UTF-8"?>
<svg xmlns:svg="http://www.w3.org/2000/svg" viewBox="0 0 24 24" fill="none">
<svg:path d="M12.3728 2.00925C12.2486 2.003 12.1248 2 12.0018 2C7.89314 2 4.52143 5.40925 4.62743 9.55975C4.68893 11.9735 5.91242 14.0985 7.75989 15.3977C8.11314 15.6462 8.34364 16.0333 8.39089 16.4625L8.80413 20.2188C8.91563 21.2325 9.77212 22 10.7921 22H13.2081C14.2281 22 15.0846 21.2325 15.1961 20.2188L15.6093 16.4625C15.656 16.0368 15.8815 15.6493 16.232 15.4035C18.1325 14.0708 19.375 11.8645 19.375 9.3685C19.375 5.424 16.2728 2.2035 12.3731 2.00925H12.3728ZM13.2078 20.5H10.7919C10.5364 20.5 10.3229 20.3085 10.2949 20.0548L10.1239 18.5H13.8758L13.7048 20.0548C13.6768 20.3088 13.4633 20.5 13.2078 20.5Z" fill="currentColor" />
</svg>
