<?xml version="1.0" encoding="UTF-8"?>
<svg xmlns:svg="http://www.w3.org/2000/svg" viewBox="0 0 24 24" fill="none">
<svg:path d="M12.3728 2.00925C12.2486 2.003 12.1248 2 12.0018 2C7.89314 2 4.52143 5.40925 4.62743 9.55975C4.68893 11.9735 5.91242 14.0985 7.75989 15.3977C8.11314 15.6462 8.34364 16.0333 8.39089 16.4625L8.80413 20.2188C8.91563 21.2325 9.77212 22 10.7921 22H13.2081C14.2281 22 15.0846 21.2325 15.1961 20.2188L15.6093 16.4625C15.656 16.0368 15.8815 15.6493 16.232 15.4035C18.1325 14.0708 19.375 11.8645 19.375 9.3685C19.375 5.424 16.2728 2.2035 12.3731 2.00925H12.3728ZM11.2499 5.125C11.2499 4.71075 11.5856 4.375 11.9998 4.375C12.4141 4.375 12.7498 4.71075 12.7498 5.125V7.375C12.7498 7.78925 12.4141 8.125 11.9998 8.125C11.5856 8.125 11.2499 7.78925 11.2499 7.375V5.125ZM12.0208 10.2503C12.4293 10.2615 12.7498 10.607 12.7498 11.0155V16.25C12.7498 16.6643 12.4141 17 11.9998 17C11.5856 17 11.2499 16.6643 11.2499 16.25V11C11.2499 10.5788 11.5971 10.2388 12.0208 10.2503ZM9.49987 9.75C9.30787 9.75 9.11588 9.67675 8.96963 9.53025L7.46965 8.03025C7.17665 7.73725 7.17665 7.2625 7.46965 6.9695C7.76264 6.6765 8.23739 6.6765 8.53038 6.9695L10.0304 8.4695C10.3234 8.7625 10.3234 9.23725 10.0304 9.53025C9.88387 9.67675 9.69187 9.75 9.50012 9.75H9.49987ZM13.7048 20.0548C13.6768 20.3088 13.4633 20.5 13.2078 20.5H10.7919C10.5364 20.5 10.3229 20.3085 10.2949 20.0548L10.1239 18.5H13.8758L13.7048 20.0548ZM16.53 8.03025L15.0301 9.53025C14.8836 9.67675 14.6916 9.75 14.4998 9.75C14.3081 9.75 14.1158 9.67675 13.9696 9.53025C13.6766 9.23725 13.6766 8.7625 13.9696 8.4695L15.4695 6.9695C15.7625 6.6765 16.2373 6.6765 16.5303 6.9695C16.8233 7.2625 16.8233 7.73725 16.5303 8.03025H16.53Z" fill="currentColor" />
</svg>
