<?xml version="1.0" encoding="UTF-8"?>
<svg xmlns:svg="http://www.w3.org/2000/svg" viewBox="0 0 24 24" fill="none">
<svg:path d="M2.53033 1.46967C2.23744 1.17678 1.76256 1.17678 1.46967 1.46967C1.17678 1.76256 1.17678 2.23744 1.46967 2.53033L5.28067 6.34133C4.83532 7.31971 4.59819 8.41132 4.6275 9.55991C4.689 11.9736 5.9125 14.0986 7.76 15.3978C8.11325 15.6463 8.34375 16.0333 8.391 16.4626L8.80425 20.2188C8.91575 21.2325 9.77225 22 10.7923 22H13.2083C14.2283 22 15.0848 21.2325 15.1963 20.2188L15.5889 16.6496L20.4697 21.5303C20.7626 21.8232 21.2374 21.8232 21.5303 21.5303C21.8232 21.2374 21.8232 20.7626 21.5303 20.4697L16.3671 15.3064C16.3672 15.3064 16.3672 15.3064 16.3673 15.3063L15.293 14.2321H15.2928L2.53033 1.46967ZM14.355 15.4156L6.43437 7.49503C6.21261 8.14516 6.10923 8.82543 6.127 9.52166C6.151 10.4626 6.391 11.3561 6.84 12.1771C7.2705 12.9641 7.887 13.6536 8.62275 14.1711C9.32875 14.6676 9.7875 15.4431 9.88175 16.2986L9.98643 17.25H14.0136L14.1183 16.2986C14.1522 15.9904 14.2329 15.693 14.355 15.4156ZM13.8486 18.75H10.1515L10.295 20.0548C10.323 20.3085 10.5365 20.5 10.792 20.5H13.208C13.4635 20.5 13.677 20.3088 13.705 20.0548L13.8486 18.75ZM7.66975 4.48772C7.92625 4.74422 8.33125 4.78247 8.62775 4.57297C8.95875 4.33922 9.31325 4.14022 9.68825 3.97798C10.4218 3.66073 11.2003 3.49998 12.002 3.49998C12.1003 3.49998 12.2 3.50248 12.2985 3.50748C13.804 3.58248 15.208 4.22547 16.2518 5.31846C17.2985 6.41444 17.875 7.85293 17.875 9.36841C17.875 10.3409 17.6453 11.2659 17.192 12.1174C17.0768 12.3339 16.9478 12.5431 16.806 12.7434C16.5953 13.0414 16.6303 13.4481 16.8885 13.7064C17.2158 14.0336 17.7615 13.9913 18.0285 13.6134C18.8768 12.4134 19.375 10.9491 19.375 9.36841C19.375 5.42396 16.2728 2.2035 12.373 2.00925C12.2488 2.003 12.125 2 12.002 2C10.43 2 8.966 2.49949 7.76325 3.34823C7.385 3.61523 7.3425 4.16047 7.66975 4.48772Z" fill="currentColor" fillRule="evenodd" clipRule="evenodd" />
</svg>
