<svg width="24" height="24" viewBox="0 0 24 24" fill="none" xmlns="http://www.w3.org/2000/svg">
<path fill-rule="evenodd" clip-rule="evenodd" d="M20.5 4.775C20.5 4.07075 19.9292 3.5 19.225 3.5H4.775C4.07075 3.5 3.5 4.07075 3.5 4.775V19.225C3.5 19.9292 4.07075 20.5 4.775 20.5H19.225C19.9292 20.5 20.5 19.9292 20.5 19.225V4.775ZM4.775 2H19.225C19.9663 2 20.663 2.2885 21.1873 2.81275C21.7113 3.337 22 4.03375 22 4.775V19.225C22 19.9663 21.7115 20.6632 21.1873 21.1873C20.663 21.7113 19.9663 22 19.225 22H4.775C4.03375 22 3.33675 21.7115 2.81275 21.1873C2.28875 20.663 2 19.9663 2 19.225V4.775C2 4.03375 2.2885 3.337 2.81275 2.81275C3.337 2.28875 4.03375 2 4.775 2ZM6.05 10.3V17.95H8.6V10.3H6.05ZM5.8805 7.283C5.85725 8.10425 6.50375 8.789 7.325 8.8125V8.81225C8.15725 8.82175 8.841 8.157 8.855 7.32475C8.85475 6.52 8.2145 5.8615 7.41 5.8385C6.58875 5.81525 5.904 6.46175 5.8805 7.283ZM15.4 17.95H17.95L17.916 13.326C17.916 10.946 16.3775 10.215 15.06 10.215C14.14 10.185 13.2708 10.6358 12.765 11.405V10.3H10.3V17.95H12.85V13.9805C12.8458 13.941 12.8458 13.901 12.85 13.8615C12.8497 13.8593 12.8495 13.8568 12.8495 13.8545C12.7952 13.0395 13.412 12.3348 14.227 12.2805C14.89 12.2805 15.4 12.714 15.4 13.921V17.95Z" fill="black"/>
</svg>
