<?xml version="1.0" encoding="UTF-8"?>
<svg xmlns:svg="http://www.w3.org/2000/svg" viewBox="0 0 24 24" fill="none">
<svg:path d="M20.5 2H3.5C2.6715 2 2 2.6715 2 3.5V20.5C2 21.3285 2.6715 22 3.5 22H20.5C21.3285 22 22 21.3285 22 20.5V3.5C22 2.6715 21.3285 2 20.5 2ZM8 19H5V10H8V19ZM6.5 8.25C5.534 8.2225 4.773 7.41675 4.80075 6.45075C4.82825 5.48475 5.634 4.72375 6.6 4.7515C7.54625 4.7785 8.2995 5.55325 8.3 6.5C8.2835 7.47925 7.47925 8.26125 6.5 8.25ZM19 19H16V14.26C16 12.84 15.4 12.33 14.62 12.33C13.6612 12.3938 12.9355 13.223 12.9995 14.1817C12.9995 14.1845 12.9998 14.1873 13 14.19C12.995 14.2365 12.995 14.2835 13 14.33V19H10V10H12.9V11.3C13.4948 10.395 14.5178 9.86475 15.6 9.9C17.15 9.9 18.96 10.76 18.96 13.56L19 19Z" fill="currentColor" />
</svg>
