<?xml version="1.0" encoding="UTF-8"?>
<svg xmlns:svg="http://www.w3.org/2000/svg" viewBox="0 0 24 24" fill="none">
<svg:path d="M6 4.5H5C4.173 4.5 3.5 5.173 3.5 6V7C3.5 7.827 4.173 8.5 5 8.5H6C6.827 8.5 7.5 7.827 7.5 7V6C7.5 5.173 6.827 4.5 6 4.5ZM6 10H5C4.173 10 3.5 10.673 3.5 11.5V12.5C3.5 13.327 4.173 14 5 14H6C6.827 14 7.5 13.327 7.5 12.5V11.5C7.5 10.673 6.827 10 6 10ZM5 15.5H6C6.827 15.5 7.5 16.173 7.5 17V18C7.5 18.827 6.827 19.5 6 19.5H5C4.173 19.5 3.5 18.827 3.5 18V17C3.5 16.173 4.173 15.5 5 15.5ZM10 5.5C9.44772 5.5 9 5.94772 9 6.5C9 7.05228 9.44772 7.5 10 7.5H19C19.5523 7.5 20 7.05228 20 6.5C20 5.94772 19.5523 5.5 19 5.5H10ZM9 12C9 11.4477 9.44772 11 10 11H19C19.5523 11 20 11.4477 20 12C20 12.5523 19.5523 13 19 13H10C9.44772 13 9 12.5523 9 12ZM10 16.5C9.44772 16.5 9 16.9477 9 17.5C9 18.0523 9.44772 18.5 10 18.5H19C19.5523 18.5 20 18.0523 20 17.5C20 16.9477 19.5523 16.5 19 16.5H10Z" fill="currentColor" fillRule="evenodd" clipRule="evenodd" />
</svg>
