<?xml version="1.0" encoding="UTF-8"?>
<svg xmlns:svg="http://www.w3.org/2000/svg" viewBox="0 0 24 24" fill="none">
<svg:path d="M5 5H6C6.55225 5 7 5.44775 7 6V7C7 7.55225 6.55225 8 6 8H5C4.44775 8 4 7.55225 4 7V6C4 5.44775 4.44775 5 5 5ZM5 10.5H6C6.55225 10.5 7 10.9478 7 11.5V12.5C7 13.0523 6.55225 13.5 6 13.5H5C4.44775 13.5 4 13.0523 4 12.5V11.5C4 10.9478 4.44775 10.5 5 10.5ZM6 16H5C4.44775 16 4 16.4478 4 17V18C4 18.5523 4.44775 19 5 19H6C6.55225 19 7 18.5523 7 18V17C7 16.4478 6.55225 16 6 16ZM10 5.75C9.58579 5.75 9.25 6.08579 9.25 6.5C9.25 6.91421 9.58579 7.25 10 7.25H19C19.4142 7.25 19.75 6.91421 19.75 6.5C19.75 6.08579 19.4142 5.75 19 5.75H10ZM9.25 12C9.25 11.5858 9.58579 11.25 10 11.25H19C19.4142 11.25 19.75 11.5858 19.75 12C19.75 12.4142 19.4142 12.75 19 12.75H10C9.58579 12.75 9.25 12.4142 9.25 12ZM10 16.75C9.58579 16.75 9.25 17.0858 9.25 17.5C9.25 17.9142 9.58579 18.25 10 18.25H19C19.4142 18.25 19.75 17.9142 19.75 17.5C19.75 17.0858 19.4142 16.75 19 16.75H10Z" fill="currentColor" fillRule="evenodd" clipRule="evenodd" />
</svg>
