<?xml version="1.0" encoding="UTF-8"?>
<svg xmlns:svg="http://www.w3.org/2000/svg" viewBox="0 0 24 24" fill="none">
<svg:path d="M7.05191 5.81312C9.78511 3.06231 14.2146 3.06227 16.9481 5.81312C19.684 8.56663 19.684 13.0331 16.9481 15.7866L12.8771 19.8839C12.3921 20.372 11.6079 20.372 11.1229 19.8839L7.05191 15.7866C4.31603 13.0331 4.31603 8.56663 7.05191 5.81312ZM18.0121 4.75585C14.6921 1.41473 9.30763 1.4147 5.98784 4.75588C2.67072 8.09437 2.67072 13.5054 5.98784 16.8439L10.0589 20.9411C11.1304 22.0195 12.8696 22.0195 13.9412 20.9411L18.0122 16.8439C21.3293 13.5054 21.3293 8.09437 18.0122 4.75588L18.0121 4.75585ZM10.25 9.5C10.25 8.5335 11.0335 7.75 12 7.75C12.9665 7.75 13.75 8.5335 13.75 9.5C13.75 10.4665 12.9665 11.25 12 11.25C11.0335 11.25 10.25 10.4665 10.25 9.5ZM12 6.25C10.2051 6.25 8.75 7.70507 8.75 9.5C8.75 11.2949 10.2051 12.75 12 12.75C13.7949 12.75 15.25 11.2949 15.25 9.5C15.25 7.70507 13.7949 6.25 12 6.25Z" fill="currentColor" fillRule="evenodd" clipRule="evenodd" />
</svg>
