<svg width="24" height="24" viewBox="0 0 24 24" fill="none" xmlns="http://www.w3.org/2000/svg">
<path fill-rule="evenodd" clip-rule="evenodd" d="M18.0121 4.75585C14.6921 1.41473 9.30763 1.4147 5.98784 4.75588C2.67072 8.09437 2.67072 13.5054 5.98784 16.8439L10.0589 20.9411C11.1304 22.0195 12.8696 22.0195 13.9412 20.9411L18.0122 16.8439C21.3293 13.5054 21.3293 8.09437 18.0122 4.75588L18.0121 4.75585ZM12 6.25C10.2051 6.25 8.75 7.70507 8.75 9.5C8.75 11.2949 10.2051 12.75 12 12.75C13.7949 12.75 15.25 11.2949 15.25 9.5C15.25 7.70507 13.7949 6.25 12 6.25Z" fill="black"/>
</svg>
