<?xml version="1.0" encoding="UTF-8"?>
<svg xmlns:svg="http://www.w3.org/2000/svg" viewBox="0 0 24 24" fill="none">
<svg:path d="M12 3.75C10.205 3.75 8.75 5.20496 8.75 7V8H15.25V7C15.25 5.20496 13.795 3.75 12 3.75ZM7.25 7V8.07019C5.39928 8.42121 4 10.0471 4 12V18C4 20.2093 5.79075 22 8 22H16C18.2093 22 20 20.2093 20 18V12C20 10.0471 18.6007 8.42121 16.75 8.07019V7C16.75 4.37654 14.6235 2.25 12 2.25C9.37654 2.25 7.25 4.37654 7.25 7ZM16 9.5C17.3785 9.5 18.5 10.6215 18.5 12V18C18.5 19.3785 17.3785 20.5 16 20.5H8C6.6215 20.5 5.5 19.3785 5.5 18V12C5.5 10.6215 6.6215 9.5 8 9.5H16ZM12.75 13.25C12.75 12.8358 12.4142 12.5 12 12.5C11.5858 12.5 11.25 12.8358 11.25 13.25V16.75C11.25 17.1642 11.5858 17.5 12 17.5C12.4142 17.5 12.75 17.1642 12.75 16.75V13.25Z" fill="currentColor" fillRule="evenodd" clipRule="evenodd" />
</svg>
