<svg width="24" height="24" viewBox="0 0 24 24" fill="none" xmlns="http://www.w3.org/2000/svg">
<path fill-rule="evenodd" clip-rule="evenodd" d="M20.1469 2.23555C20.5531 2.15432 20.8165 1.75922 20.7353 1.35306C20.6541 0.946899 20.259 0.683483 19.8528 0.764705L16.0485 1.52547C15.0391 1.72756 14.2269 2.4765 13.944 3.4665L13.944 3.46653L13.7201 4.25H7C5.48129 4.25 4.25 5.48129 4.25 7V8.25V9C4.25 10.8141 5.53838 12.3275 7.25 12.675V13C7.25 15.3683 8.98293 17.3316 11.25 17.6911V20.5H9C8.58579 20.5 8.25 20.8358 8.25 21.25C8.25 21.6642 8.58579 22 9 22H15C15.4142 22 15.75 21.6642 15.75 21.25C15.75 20.8358 15.4142 20.5 15 20.5H12.75V17.6911C15.0171 17.3316 16.75 15.3683 16.75 13V12.675C18.4616 12.3275 19.75 10.8141 19.75 9V8.25V7C19.75 5.48129 18.5187 4.25 17 4.25H15.2801L15.3862 3.87864L15.3862 3.8786C15.5148 3.42871 15.8839 3.08822 16.3428 2.99628L16.343 2.99624L20.1469 2.23555ZM13.2915 5.75H7C6.30971 5.75 5.75 6.30971 5.75 7V7.5H12.7915L13.2915 5.75ZM14.3515 7.5L14.8515 5.75H17C17.6903 5.75 18.25 6.30971 18.25 7V7.5H14.3515ZM12.363 9L11.279 12.7938C11.1653 13.1921 11.3959 13.6072 11.7941 13.721C12.1924 13.8347 12.6075 13.6041 12.7213 13.2059L13.9229 9H18.25C18.25 10.2425 17.2425 11.25 16 11.25C15.5858 11.25 15.25 11.5858 15.25 12V13C15.25 14.795 13.795 16.25 12 16.25C10.205 16.25 8.75 14.795 8.75 13V12C8.75 11.5858 8.41421 11.25 8 11.25C6.75746 11.25 5.75 10.2425 5.75 9H12.363Z" fill="black"/>
</svg>
