<svg width="24" height="24" viewBox="0 0 24 24" fill="none" xmlns="http://www.w3.org/2000/svg">
<path fill-rule="evenodd" clip-rule="evenodd" d="M3.41098 21.8345C3.68448 21.9443 3.97248 22 4.26047 22V21.9998C4.39872 21.9998 4.53697 21.987 4.67347 21.9613C5.12771 21.8755 5.54196 21.6493 5.87145 21.3065L8.40492 18.686C8.82666 18.25 9.41616 18 10.0226 18H17.2501C19.8693 18 22 15.8693 22 13.25V6.75C22 4.13075 19.8693 2 17.2501 2H6.75019C4.13097 2 2.00025 4.13075 2 6.75V19.7458C2 20.2225 2.14225 20.674 2.41149 21.0515C2.66074 21.401 3.00624 21.6718 3.41098 21.8345ZM8.46967 6.46967C8.76256 6.17678 9.23744 6.17678 9.53033 6.46967L12 8.93934L14.4697 6.46967C14.7626 6.17678 15.2374 6.17678 15.5303 6.46967C15.8232 6.76256 15.8232 7.23744 15.5303 7.53033L13.0607 10L15.5303 12.4697C15.8232 12.7626 15.8232 13.2374 15.5303 13.5303C15.2374 13.8232 14.7626 13.8232 14.4697 13.5303L12 11.0607L9.53033 13.5303C9.23744 13.8232 8.76256 13.8232 8.46967 13.5303C8.17678 13.2374 8.17678 12.7626 8.46967 12.4697L10.9393 10L8.46967 7.53033C8.17678 7.23744 8.17678 6.76256 8.46967 6.46967Z" fill="black"/>
</svg>
