<svg width="24" height="24" viewBox="0 0 24 24" fill="none" xmlns="http://www.w3.org/2000/svg">
<path fill-rule="evenodd" clip-rule="evenodd" d="M3.41098 21.8345C3.68448 21.9443 3.97248 22 4.26047 22V21.9998C4.39872 21.9998 4.53697 21.987 4.67347 21.9613C5.12771 21.8755 5.54196 21.6493 5.87145 21.3065L8.40492 18.686C8.82666 18.25 9.41616 18 10.0226 18H17.2501C19.8693 18 22 15.8693 22 13.25V6.75C22 4.13075 19.8693 2 17.2501 2H6.75019C4.13097 2 2.00025 4.13075 2 6.75V19.7458C2 20.2225 2.14225 20.674 2.41149 21.0515C2.66074 21.401 3.00624 21.6718 3.41098 21.8345ZM3.50023 6.75C3.50023 4.958 4.95821 3.5 6.75019 3.5H17.2498C19.0418 3.5 20.4998 4.958 20.4998 6.75V13.25C20.4998 15.042 19.0418 16.5 17.2498 16.5H10.0224C9.01166 16.5 8.02892 16.9167 7.32643 17.6435L4.79296 20.264L4.79096 20.266C4.46572 20.6053 4.08097 20.487 3.97073 20.4428C3.86048 20.3983 3.50023 20.2168 3.50023 19.7458V6.75ZM12 5.5C12.4142 5.5 12.75 5.83579 12.75 6.25V10C12.75 10.4142 12.4142 10.75 12 10.75C11.5858 10.75 11.25 10.4142 11.25 10V6.25C11.25 5.83579 11.5858 5.5 12 5.5ZM12 12C11.3098 12 10.75 12.5598 10.75 13.25C10.75 13.9402 11.3098 14.5 12 14.5C12.6902 14.5 13.25 13.9402 13.25 13.25C13.25 12.5598 12.6902 12 12 12Z" fill="black"/>
</svg>
