<svg width="24" height="24" viewBox="0 0 24 24" fill="none" xmlns="http://www.w3.org/2000/svg">
<path fill-rule="evenodd" clip-rule="evenodd" d="M21.9998 22.75C21.8078 22.75 21.6158 22.6768 21.4695 22.5303L16.9393 18H10.0228C9.41625 18 8.8265 18.25 8.405 18.686L5.872 21.3062C5.54225 21.6492 5.128 21.8757 4.6735 21.9615C4.53675 21.9873 4.39875 22 4.2605 22C3.97225 22 3.68425 21.9445 3.411 21.8345C3.00625 21.6717 2.66075 21.401 2.4115 21.0515C2.14225 20.674 2 20.2225 2 19.7457V6.75C2 5.71049 2.33567 4.74798 2.90433 3.96507L0.469748 1.53049C0.176751 1.23749 0.176751 0.762744 0.469748 0.469748C0.762744 0.176751 1.23749 0.176751 1.53049 0.469748L11.2619 10.2012L18.8012 17.7397L18.8007 17.7399L22.5303 21.4695C22.8233 21.7625 22.8233 22.2373 22.5303 22.5303C22.3838 22.6768 22.1918 22.75 22 22.75H21.9998ZM22 13.25C22 14.7673 21.2847 16.1208 20.1737 16.991L5.3825 2.201C5.81575 2.0705 6.27475 2 6.75 2H17.25C19.8692 2 22 4.13075 22 6.75V13.25Z" fill="black"/>
</svg>
