<?xml version="1.0" encoding="UTF-8"?>
<svg xmlns:svg="http://www.w3.org/2000/svg" viewBox="0 0 24 24" fill="none">
<svg:path d="M21.9998 22.75C21.8078 22.75 21.6158 22.6768 21.4695 22.5303L16.9393 18H10.0227C9.41625 18 8.8265 18.25 8.405 18.686L5.872 21.3063C5.54225 21.6493 5.128 21.8758 4.6735 21.9615C4.537 21.9873 4.39875 22 4.2605 22C3.97225 22 3.68425 21.9445 3.411 21.8345C3.00625 21.6718 2.66075 21.401 2.4115 21.0515C2.14225 20.674 2 20.2225 2 19.7458V6.75C2 5.7105 2.33567 4.74798 2.90433 3.96507L0.469748 1.53049C0.176751 1.23749 0.176751 0.762744 0.469748 0.469748C0.762744 0.176751 1.23749 0.176751 1.53048 0.469748L17.547 16.4863H17.5477L18.8013 17.7398C18.8011 17.7398 18.8009 17.7399 18.8007 17.7399L22.5303 21.4695C22.8232 21.7625 22.8232 22.2373 22.5303 22.5303C22.3838 22.6768 22.1918 22.75 22 22.75H21.9998ZM15.4393 16.5L3.9841 5.04483C3.6771 5.54082 3.49975 6.12509 3.49975 6.75V19.7458C3.49975 20.217 3.85975 20.3983 3.97025 20.4428C4.08025 20.487 4.465 20.6053 4.7905 20.266L4.7925 20.264L7.326 17.6435C8.0285 16.9168 9.01125 16.5 10.022 16.5H15.4393ZM6.53331 3.29778C6.66861 3.42753 6.84893 3.49978 7.03625 3.49978H17.2483C19.0411 3.49978 20.4996 4.95778 20.4996 6.74978V13.2498C20.4996 14.0965 20.174 14.8685 19.6413 15.4475C19.3699 15.7425 19.3815 16.1995 19.6648 16.483C19.9652 16.783 20.4564 16.7763 20.744 16.464C21.5236 15.6175 22 14.4885 22 13.25V6.75003C22 4.12678 19.8724 2.00003 17.2481 2.00003H6.99399H6.97948C6.32647 1.99428 6.00209 2.78928 6.47353 3.24103L6.53281 3.29803L6.53331 3.29778Z" fill="currentColor" fillRule="evenodd" clipRule="evenodd" />
</svg>
