<?xml version="1.0" encoding="UTF-8"?>
<svg xmlns:svg="http://www.w3.org/2000/svg" viewBox="0 0 24 24" fill="none">
<svg:path d="M3.41098 21.8345C3.68448 21.9443 3.97248 22 4.26047 22V21.9998C4.39872 21.9998 4.53697 21.987 4.67347 21.9613C5.12771 21.8755 5.54196 21.6493 5.87145 21.3065L8.40492 18.686C8.82666 18.25 9.41616 18 10.0226 18H17.2501C19.8693 18 22 15.8693 22 13.25V6.75C22 4.13075 19.8693 2 17.2501 2H6.75019C4.13097 2 2.00025 4.13075 2 6.75V19.7458C2 20.2225 2.14225 20.674 2.41149 21.0515C2.66074 21.401 3.00624 21.6718 3.41098 21.8345ZM3.50023 6.75C3.50023 4.958 4.95821 3.5 6.75019 3.5H17.2498C19.0418 3.5 20.4998 4.958 20.4998 6.75V13.25C20.4998 15.042 19.0418 16.5 17.2498 16.5H10.0224C9.01166 16.5 8.02892 16.9167 7.32643 17.6435L4.79296 20.264L4.79096 20.266C4.46572 20.6053 4.08097 20.487 3.97073 20.4428C3.86048 20.3983 3.50023 20.2168 3.50023 19.7458V6.75ZM7.25 8C7.25 7.58579 7.58579 7.25 8 7.25H16C16.4142 7.25 16.75 7.58579 16.75 8C16.75 8.41421 16.4142 8.75 16 8.75H8C7.58579 8.75 7.25 8.41421 7.25 8ZM7.25 12C7.25 11.5858 7.58579 11.25 8 11.25H12C12.4142 11.25 12.75 11.5858 12.75 12C12.75 12.4142 12.4142 12.75 12 12.75H8C7.58579 12.75 7.25 12.4142 7.25 12Z" fill="currentColor" fillRule="evenodd" clipRule="evenodd" />
</svg>
