<svg width="24" height="24" viewBox="0 0 24 24" fill="none" xmlns="http://www.w3.org/2000/svg">
<path fill-rule="evenodd" clip-rule="evenodd" d="M6.75 3.49988C4.95497 3.49988 3.5 4.95473 3.5 6.74965V19.7445C3.5 20.422 4.32369 20.7516 4.79076 20.2647L4.79178 20.2637L7.32625 17.6424C8.03259 16.9117 9.00572 16.4989 10.0223 16.4989H17.2498C19.0448 16.4989 20.4998 15.0441 20.4998 13.2492V12.4992H20.5V6.74965C20.5 4.95473 19.045 3.49988 17.25 3.49988H6.75ZM21.9409 13.9991H22V6.74965C22 4.12639 19.8735 2 17.25 2H6.75C4.12653 2 2 4.12639 2 6.74965V19.7445C2 21.7701 4.46737 22.7664 5.87201 21.3043C5.87242 21.3039 5.87284 21.3035 5.87325 21.303L8.40471 18.6848L8.40475 18.6848C8.82842 18.2465 9.41231 17.9988 10.0223 17.9988H17.2498C19.618 17.9988 21.5813 16.266 21.9409 13.9991Z" fill="black"/>
</svg>
