<?xml version="1.0" encoding="UTF-8"?>
<svg xmlns:svg="http://www.w3.org/2000/svg" viewBox="0 0 24 24" fill="none">
<svg:path d="M3.41098 21.8345C3.68448 21.9443 3.97248 22 4.26047 22V21.9998C4.39872 21.9998 4.53697 21.987 4.67347 21.9613C5.12771 21.8755 5.54196 21.6493 5.87145 21.3065L8.40492 18.686C8.82666 18.25 9.41616 18 10.0226 18H17.2501C19.8693 18 22 15.8693 22 13.25V6.75C22 4.13075 19.8693 2 17.2501 2H6.75019C4.13097 2 2.00025 4.13075 2 6.75V19.7458C2 20.2225 2.14225 20.674 2.41149 21.0515C2.66074 21.401 3.00624 21.6718 3.41098 21.8345ZM16.5749 7.98165C16.8409 7.66414 16.7992 7.1911 16.4816 6.92509C16.1641 6.65909 15.6911 6.70084 15.4251 7.01835L11.4766 11.7314C11.1943 12.0684 10.6798 12.092 10.3674 11.7812L8.52891 9.95252C8.23524 9.66041 7.76037 9.66168 7.46826 9.95535C7.17615 10.249 7.17741 10.7239 7.47109 11.016L9.30959 12.8447C10.2447 13.7748 11.7792 13.7059 12.6264 12.6947L16.5749 7.98165Z" fill="currentColor" fillRule="evenodd" clipRule="evenodd" />
</svg>
