<?xml version="1.0" encoding="UTF-8"?>
<svg xmlns:svg="http://www.w3.org/2000/svg" viewBox="0 0 24 24" fill="none">
<svg:path d="M18.9998 9.5C19.6065 9.5 20.196 9.38075 20.7518 9.14575H20.752C21.2113 8.95175 21.63 8.68575 22 8.354V13.25C22 15.8693 19.8693 18 17.2501 18H10.0226C9.41616 18 8.82642 18.25 8.40492 18.686L5.87195 21.3063C5.54221 21.6492 5.12796 21.8758 4.67347 21.9615C4.53672 21.9873 4.39872 22 4.26047 22C3.97223 22 3.68423 21.9445 3.41098 21.8345C3.00624 21.6718 2.66074 21.401 2.41149 21.0515C2.14225 20.674 2 20.2225 2 19.7458V6.75C2 4.13075 4.13072 2 6.74994 2H15.6458C15.3143 2.37025 15.0483 2.78875 14.8541 3.248C14.6191 3.80375 14.4998 4.39325 14.4998 5C14.4998 5.60675 14.6191 6.19625 14.8541 6.752C15.0808 7.288 15.4051 7.76925 15.8178 8.182C16.2306 8.59475 16.7118 8.919 17.2478 9.14575C17.8036 9.38075 18.393 9.5 18.9998 9.5ZM22 5C22 6.65685 20.6569 8 19 8C17.3431 8 16 6.65685 16 5C16 3.34315 17.3431 2 19 2C20.6569 2 22 3.34315 22 5Z" fill="currentColor" fillRule="evenodd" clipRule="evenodd" />
</svg>
