<?xml version="1.0" encoding="UTF-8"?>
<svg xmlns:svg="http://www.w3.org/2000/svg" viewBox="0 0 24 24" fill="none">
<svg:path d="M3.41098 21.8345C3.68448 21.9443 3.97248 22 4.26047 22V21.9998C4.39872 21.9998 4.53697 21.987 4.67347 21.9613C5.12771 21.8755 5.54196 21.6493 5.87145 21.3065L8.40492 18.686C8.82666 18.25 9.41616 18 10.0226 18H17.2501C19.8693 18 22 15.8693 22 13.25V6.75C22 4.13075 19.8693 2 17.2501 2H6.75019C4.13097 2 2.00025 4.13075 2 6.75V19.7458C2 20.2225 2.14225 20.674 2.41149 21.0515C2.66074 21.401 3.00624 21.6718 3.41098 21.8345ZM12 6C12.4142 6 12.75 6.33579 12.75 6.75V9.25H15.25C15.6642 9.25 16 9.58579 16 10C16 10.4142 15.6642 10.75 15.25 10.75H12.75V13.25C12.75 13.6642 12.4142 14 12 14C11.5858 14 11.25 13.6642 11.25 13.25V10.75H8.75C8.33579 10.75 8 10.4142 8 10C8 9.58579 8.33579 9.25 8.75 9.25H11.25V6.75C11.25 6.33579 11.5858 6 12 6Z" fill="currentColor" fillRule="evenodd" clipRule="evenodd" />
</svg>
