<?xml version="1.0" encoding="UTF-8"?>
<svg xmlns:svg="http://www.w3.org/2000/svg" viewBox="0 0 24 24" fill="none">
<svg:path d="M12 3.5C12.935 3.5 13.8138 3.864 14.4748 4.52525C15.1358 5.18625 15.5 6.06525 15.5 7V10.5C15.5 11.435 15.136 12.3137 14.4748 12.9747C13.8138 13.6357 12.9348 13.9997 11.9998 13.9997C11.0648 13.9997 10.186 13.6357 9.525 12.9747C8.864 12.3137 8.49976 11.4348 8.49976 10.5V7C8.49976 6.065 8.86375 5.18625 9.525 4.52525C10.186 3.86425 11.065 3.5 12 3.5ZM12 2C9.2385 2 7 4.2385 7 7V10.5C7 13.2615 9.2385 15.5 12 15.5C14.7615 15.5 17 13.2615 17 10.5V7C17 4.2385 14.7615 2 12 2ZM4.5 10.25C4.91421 10.25 5.25 10.5858 5.25 11C5.25 14.4518 8.04821 17.25 11.5 17.25H12H12.5C15.9518 17.25 18.75 14.4518 18.75 11C18.75 10.5858 19.0858 10.25 19.5 10.25C19.9142 10.25 20.25 10.5858 20.25 11C20.25 15.1966 16.9145 18.6141 12.75 18.746V21.25C12.75 21.6642 12.4142 22 12 22C11.5858 22 11.25 21.6642 11.25 21.25V18.746C7.08549 18.6141 3.75 15.1966 3.75 11C3.75 10.5858 4.08579 10.25 4.5 10.25Z" fill="currentColor" fillRule="evenodd" clipRule="evenodd" />
</svg>
