<?xml version="1.0" encoding="UTF-8"?>
<svg xmlns:svg="http://www.w3.org/2000/svg" viewBox="0 0 24 24" fill="none">
<svg:path d="M1.46975 22.5303C1.616 22.6768 1.80799 22.75 1.99999 22.75C2.19174 22.75 2.38374 22.6768 2.53024 22.5303L11.4675 13.5931L17 8.061V8.06068L22.5303 2.5305C22.8233 2.2375 22.8233 1.76275 22.5303 1.46975C22.2373 1.17675 21.7623 1.17675 21.4695 1.46975L16.9065 6.03274C16.456 3.73416 14.4306 2 12 2C9.2385 2 7 4.2385 7 7V10.5C7 11.9925 7.65406 13.3321 8.69111 14.2481L7.30546 15.6338C7.22901 15.5644 7.154 15.493 7.0805 15.4195C5.9 14.239 5.25 12.6695 5.25 11C5.25 10.5857 4.91425 10.25 4.5 10.25C4.08575 10.25 3.75 10.5857 3.75 11C3.75 13.07 4.55625 15.0163 6.02 16.48C6.09344 16.5534 6.16811 16.6252 6.24395 16.6953L1.46975 21.4695C1.17675 21.7625 1.17675 22.2373 1.46975 22.5303ZM11.6917 15.4903C11.7937 15.4965 11.8965 15.5 12 15.5C14.7615 15.5 17 13.2615 17 10.5V10.1825L11.6917 15.4903ZM11.25 18.7461C10.9007 18.7351 10.5554 18.7011 10.2157 18.6447C9.61349 18.5447 9.37624 17.8055 9.80799 17.3737C9.97999 17.2015 10.2247 17.125 10.4647 17.1647C10.8035 17.221 11.1495 17.2497 11.5 17.2497H12.4587C14.1117 17.2497 15.7077 16.6132 16.8852 15.453C18.0845 14.2717 18.747 12.6927 18.75 11.0117C18.7507 10.5972 19.094 10.2452 19.5085 10.25C19.9187 10.2547 20.25 10.5887 20.25 11C20.25 13.07 19.4437 15.0162 17.98 16.48C16.5753 17.8847 14.7263 18.6838 12.75 18.7461V21.25C12.75 21.6642 12.4142 22 12 22C11.5858 22 11.25 21.6642 11.25 21.25V18.7461Z" fill="currentColor" fillRule="evenodd" clipRule="evenodd" />
</svg>
