<?xml version="1.0" encoding="UTF-8"?>
<svg xmlns:svg="http://www.w3.org/2000/svg" viewBox="0 0 24 24" fill="none">
<svg:path d="M1.99999 22.7498C1.80799 22.7498 1.616 22.6765 1.46975 22.53C1.17675 22.237 1.17675 21.7623 1.46975 21.4693L6.24386 16.6952C6.16805 16.6252 6.09342 16.5534 6.02001 16.48C4.55626 15.0163 3.75 13.07 3.75 11C3.75 10.5857 4.08575 10.25 4.5 10.25C4.91425 10.25 5.25 10.5857 5.25 11C5.25 12.6695 5.90001 14.239 7.08051 15.4195C7.15397 15.493 7.22895 15.5644 7.30538 15.6337L8.69103 14.2481C7.65402 13.332 7 11.9924 7 10.5V7C7 4.2385 9.2385 2 12 2C14.4306 2 16.456 3.73413 16.9065 6.03269L21.4695 1.46975C21.7623 1.17675 22.2373 1.17675 22.5303 1.46975C22.8232 1.76274 22.8232 2.23749 22.5303 2.53049L17 8.06074V8.061L15.5 9.56075L2.53049 22.5303C2.38399 22.6768 2.19198 22.75 2.00023 22.75L1.99999 22.7498ZM15.5 7.43918L9.75448 13.1846C9.67551 13.1184 9.59903 13.0483 9.52524 12.9745C8.86424 12.3135 8.50024 11.4345 8.50024 10.4997V6.99975C8.50024 6.06475 8.86424 5.186 9.52524 4.525C10.1862 3.864 11.0652 3.49975 12.0002 3.49975C12.9352 3.49975 13.814 3.86375 14.475 4.525C15.136 5.186 15.5 6.065 15.5 6.99975V7.43918ZM11.25 18.7461C10.9007 18.7351 10.5554 18.7011 10.2157 18.6447C9.61349 18.5447 9.37624 17.8055 9.80799 17.3737C9.97999 17.2015 10.2247 17.125 10.4647 17.1647C10.8035 17.221 11.1495 17.2497 11.5 17.2497H12.4587C14.1117 17.2497 15.7077 16.6132 16.8852 15.453C18.0845 14.2717 18.747 12.6927 18.75 11.0117C18.7507 10.5972 19.094 10.2452 19.5085 10.25C19.9187 10.2547 20.25 10.5887 20.25 11C20.25 13.07 19.4437 15.0162 17.98 16.48C16.5753 17.8847 14.7263 18.6838 12.75 18.7461V21.25C12.75 21.6642 12.4142 22 12 22C11.5858 22 11.25 21.6642 11.25 21.25V18.7461ZM13.2383 14.1762L15.1778 12.2368C15.4707 11.9439 15.9455 11.9439 16.2384 12.2368C16.5313 12.5297 16.5313 13.0046 16.2384 13.2975L14.299 15.2369C14.0061 15.5298 13.5312 15.5298 13.2383 15.2369C12.9454 14.944 12.9454 14.4691 13.2383 14.1762Z" fill="currentColor" fillRule="evenodd" clipRule="evenodd" />
</svg>
