<svg width="24" height="24" viewBox="0 0 24 24" fill="none" xmlns="http://www.w3.org/2000/svg">
<path fill-rule="evenodd" clip-rule="evenodd" d="M15.3082 4.16725C14.2612 3.7245 13.1482 3.5 12 3.5C10.8517 3.5 9.73875 3.7245 8.69175 4.16725C7.67975 4.59525 6.7705 5.2085 5.9895 5.9895C5.2085 6.7705 4.59525 7.67975 4.16725 8.69175C3.7245 9.7385 3.5 10.8515 3.5 11.9997C3.5 13.148 3.7245 14.261 4.16725 15.308C4.59525 16.32 5.2085 17.2292 5.9895 18.0102C6.7705 18.7915 7.67975 19.4045 8.69175 19.8325C9.73875 20.2752 10.8517 20.4997 12 20.4997C13.1482 20.4997 14.2612 20.2752 15.3082 19.8325C16.3202 19.4045 17.2295 18.7912 18.0105 18.0102C18.7915 17.2292 19.4047 16.32 19.8327 15.308C20.2755 14.261 20.5 13.1477 20.5 11.9997C20.5 10.8517 20.2755 9.73875 19.8327 8.69175C19.4047 7.67975 18.7915 6.7705 18.0105 5.9895C17.2295 5.2085 16.3202 4.59525 15.3082 4.16725ZM2 12C2 6.47725 6.47725 2 12 2C17.5228 2 22 6.47725 22 12C22 17.5228 17.5228 22 12 22C6.47725 22 2 17.5228 2 12ZM8 11.25C7.58579 11.25 7.25 11.5858 7.25 12C7.25 12.4142 7.58579 12.75 8 12.75H16C16.4142 12.75 16.75 12.4142 16.75 12C16.75 11.5858 16.4142 11.25 16 11.25H8Z" fill="black"/>
</svg>
