<?xml version="1.0" encoding="UTF-8"?>
<svg xmlns:svg="http://www.w3.org/2000/svg" viewBox="0 0 24 24" fill="none">
<svg:path d="M20.5 9.01475C20.5 7.628 19.372 6.5 17.9853 6.5H6.01475C4.628 6.5 3.5 7.628 3.5 9.01475V14.9852C3.5 16.372 4.628 17.5 6.01475 17.5H17.9853C19.372 17.5 20.5 16.372 20.5 14.9852V9.01475ZM6.01475 5H17.9853C20.2025 5 22 6.7975 22 9.01475V14.9852C22 17.2025 20.2025 19 17.9853 19H6.01475C3.7975 19 2 17.2025 2 14.9852V9.01475C2 6.7975 3.7975 5 6.01475 5ZM13.25 12C13.25 11.3107 12.6893 10.75 12 10.75C11.3107 10.75 10.75 11.3107 10.75 12C10.75 12.6893 11.3107 13.25 12 13.25C12.6893 13.25 13.25 12.6893 13.25 12ZM9.25 12C9.25 10.4813 10.4813 9.25 12 9.25C13.5188 9.25 14.75 10.4813 14.75 12C14.75 13.5188 13.5188 14.75 12 14.75C10.4813 14.75 9.25 13.5188 9.25 12ZM4.75 10C4.75 8.75729 5.75729 7.75 7 7.75C7.41421 7.75 7.75 8.08579 7.75 8.5C7.75 8.91421 7.41421 9.25 7 9.25C6.58571 9.25 6.25 9.58571 6.25 10C6.25 10.4142 5.91421 10.75 5.5 10.75C5.08579 10.75 4.75 10.4142 4.75 10ZM17 7.75C16.5858 7.75 16.25 8.08579 16.25 8.5C16.25 8.91421 16.5858 9.25 17 9.25C17.4143 9.25 17.75 9.58571 17.75 10C17.75 10.4142 18.0858 10.75 18.5 10.75C18.9142 10.75 19.25 10.4142 19.25 10C19.25 8.75729 18.2427 7.75 17 7.75ZM18.5 13.25C18.9142 13.25 19.25 13.5858 19.25 14C19.25 15.2427 18.2427 16.25 17 16.25C16.5858 16.25 16.25 15.9142 16.25 15.5C16.25 15.0858 16.5858 14.75 17 14.75C17.4143 14.75 17.75 14.4143 17.75 14C17.75 13.5858 18.0858 13.25 18.5 13.25ZM6.25 14C6.25 13.5858 5.91421 13.25 5.5 13.25C5.08579 13.25 4.75 13.5858 4.75 14C4.75 15.2427 5.75729 16.25 7 16.25C7.41421 16.25 7.75 15.9142 7.75 15.5C7.75 15.0858 7.41421 14.75 7 14.75C6.58571 14.75 6.25 14.4143 6.25 14Z" fill="currentColor" fillRule="evenodd" clipRule="evenodd" />
</svg>
