<svg width="24" height="24" viewBox="0 0 24 24" fill="none" xmlns="http://www.w3.org/2000/svg">
<path fill-rule="evenodd" clip-rule="evenodd" d="M5.5 10H6.5C7.327 10 8 10.673 8 11.5V12.5C8 13.327 7.327 14 6.5 14H5.5C4.673 14 4 13.327 4 12.5V11.5C4 10.673 4.673 10 5.5 10ZM11.5 10H12.5C13.327 10 14 10.673 14 11.5V12.5C14 13.327 13.327 14 12.5 14H11.5C10.673 14 10 13.327 10 12.5V11.5C10 10.673 10.673 10 11.5 10ZM17.5 10H18.5C19.327 10 20 10.673 20 11.5V12.5C20 13.327 19.327 14 18.5 14H17.5C16.673 14 16 13.327 16 12.5V11.5C16 10.673 16.673 10 17.5 10Z" fill="black"/>
</svg>
