<?xml version="1.0" encoding="UTF-8"?>
<svg xmlns:svg="http://www.w3.org/2000/svg" viewBox="0 0 24 24" fill="none">
<svg:path d="M12.5 4.5H11.5C10.9478 4.5 10.5 4.94775 10.5 5.5V6.5C10.5 7.05225 10.9478 7.5 11.5 7.5H12.5C13.0523 7.5 13.5 7.05225 13.5 6.5V5.5C13.5 4.94775 13.0523 4.5 12.5 4.5ZM12.5 10.5H11.5C10.9478 10.5 10.5 10.9478 10.5 11.5V12.5C10.5 13.0523 10.9478 13.5 11.5 13.5H12.5C13.0523 13.5 13.5 13.0523 13.5 12.5V11.5C13.5 10.9478 13.0523 10.5 12.5 10.5ZM11.5 16.5H12.5C13.0523 16.5 13.5 16.9477 13.5 17.5V18.5C13.5 19.0523 13.0523 19.5 12.5 19.5H11.5C10.9478 19.5 10.5 19.0523 10.5 18.5V17.5C10.5 16.9477 10.9478 16.5 11.5 16.5Z" fill="currentColor" fillRule="evenodd" clipRule="evenodd" />
</svg>
