<svg width="24" height="24" viewBox="0 0 24 24" fill="none" xmlns="http://www.w3.org/2000/svg">
<path d="M12 2C6.47725 2 2 6.47725 2 12C2 17.5228 6.47725 22 12 22C17.5228 22 22 17.5228 22 12C22 6.47725 17.5228 2 12 2ZM8.5 12.5C8.5 13.0523 8.05225 13.5 7.5 13.5H6.5C5.94775 13.5 5.5 13.0523 5.5 12.5V11.5C5.5 10.9478 5.94775 10.5 6.5 10.5H7.5C8.05225 10.5 8.5 10.9478 8.5 11.5V12.5ZM13.5 12.5C13.5 13.0523 13.0523 13.5 12.5 13.5H11.5C10.9478 13.5 10.5 13.0523 10.5 12.5V11.5C10.5 10.9478 10.9478 10.5 11.5 10.5H12.5C13.0523 10.5 13.5 10.9478 13.5 11.5V12.5ZM18.5 12.5C18.5 13.0523 18.0523 13.5 17.5 13.5H16.5C15.9478 13.5 15.5 13.0523 15.5 12.5V11.5C15.5 10.9478 15.9478 10.5 16.5 10.5H17.5C18.0523 10.5 18.5 10.9478 18.5 11.5V12.5Z" fill="black"/>
</svg>
