<svg width="24" height="24" viewBox="0 0 24 24" fill="none" xmlns="http://www.w3.org/2000/svg">
<path fill-rule="evenodd" clip-rule="evenodd" d="M11.5 4H12.5C13.327 4 14 4.673 14 5.5V6.5C14 7.327 13.327 8 12.5 8H11.5C10.673 8 10 7.327 10 6.5V5.5C10 4.673 10.673 4 11.5 4ZM11.5 10H12.5C13.327 10 14 10.673 14 11.5V12.5C14 13.327 13.327 14 12.5 14H11.5C10.673 14 10 13.327 10 12.5V11.5C10 10.673 10.673 10 11.5 10ZM11.5 16H12.5C13.327 16 14 16.673 14 17.5V18.5C14 19.327 13.327 20 12.5 20H11.5C10.673 20 10 19.327 10 18.5V17.5C10 16.673 10.673 16 11.5 16Z" fill="black"/>
</svg>
