<?xml version="1.0" encoding="UTF-8"?>
<svg xmlns:svg="http://www.w3.org/2000/svg" viewBox="0 0 24 24" fill="none">
<svg:path d="M15.308 4.16725C14.2613 3.7245 13.1482 3.5 12 3.5C10.852 3.5 9.739 3.7245 8.692 4.16725C7.68 4.59525 6.77075 5.2085 5.98975 5.9895C5.20875 6.7705 4.5955 7.67975 4.1675 8.69175C3.72475 9.7385 3.50025 10.8518 3.50025 11.9997C3.50025 13.1477 3.72475 14.2607 4.1675 15.3078C4.5955 16.3197 5.20875 17.229 5.98975 18.01C6.77075 18.791 7.68 19.4042 8.692 19.8322C9.73875 20.275 10.852 20.4995 12 20.4995C13.148 20.4995 14.261 20.275 15.308 19.8322C16.32 19.4042 17.2292 18.791 18.0102 18.01C18.7915 17.229 19.4045 16.3197 19.8325 15.3078C20.2753 14.261 20.4998 13.1477 20.4998 11.9997C20.4998 10.8518 20.2753 9.73875 19.8325 8.69175C19.4045 7.67975 18.7912 6.7705 18.0102 5.9895C17.2292 5.2085 16.32 4.59525 15.308 4.16725ZM2 12C2 6.47725 6.47725 2 12 2C17.5228 2 22 6.47725 22 12C22 17.5228 17.5228 22 12 22C6.47725 22 2 17.5228 2 12ZM10.5 11.5C10.5 10.9478 10.9478 10.5 11.5 10.5H12.5C13.0523 10.5 13.5 10.9478 13.5 11.5V12.5C13.5 13.0523 13.0523 13.5 12.5 13.5H11.5C10.9478 13.5 10.5 13.0523 10.5 12.5V11.5ZM17.5 10.5H16.5C15.9477 10.5 15.5 10.9478 15.5 11.5V12.5C15.5 13.0523 15.9477 13.5 16.5 13.5H17.5C18.0523 13.5 18.5 13.0523 18.5 12.5V11.5C18.5 10.9478 18.0523 10.5 17.5 10.5ZM6.5 10.5H7.5C8.05225 10.5 8.5 10.9478 8.5 11.5V12.5C8.5 13.0523 8.05225 13.5 7.5 13.5H6.5C5.94775 13.5 5.5 13.0523 5.5 12.5V11.5C5.5 10.9478 5.94775 10.5 6.5 10.5Z" fill="currentColor" fillRule="evenodd" clipRule="evenodd" />
</svg>
