<?xml version="1.0" encoding="UTF-8"?>
<svg xmlns:svg="http://www.w3.org/2000/svg" viewBox="0 0 24 24" fill="none">
<svg:path d="M4.5 14.25H10.9073C11.7931 14.25 12.5651 13.6472 12.7799 12.7879L12.7799 12.7879C12.9897 11.9489 12.6159 11.0729 11.865 10.6439L11.8649 10.6438L7.07402 7.90612C7.04568 7.9337 7.01751 7.96149 6.9895 7.9895C6.2085 8.7705 5.59525 9.67975 5.16725 10.6917C4.7245 11.7385 4.5 12.8515 4.5 13.9997V14.25ZM3 14C3 8.47725 7.47725 4 13 4C17.4182 4 21 7.58175 21 12C21 16.4182 17.4182 20 13 20H7C4.79075 20 3 18.2093 3 16V14Z" fill="currentColor" fillRule="evenodd" clipRule="evenodd" />
</svg>
