<?xml version="1.0" encoding="UTF-8"?>
<svg xmlns:svg="http://www.w3.org/2000/svg" viewBox="0 0 24 24" fill="none">
<svg:path d="M12 2C12.4142 2 12.75 2.33579 12.75 2.75V4.53703C16.2934 4.88881 19.1112 7.7066 19.463 11.25H21.25C21.6642 11.25 22 11.5858 22 12C22 12.4142 21.6642 12.75 21.25 12.75H19.463C19.1112 16.2934 16.2934 19.1112 12.75 19.463V21.25C12.75 21.6642 12.4142 22 12 22C11.5858 22 11.25 21.6642 11.25 21.25V19.463C7.7066 19.1112 4.88881 16.2934 4.53703 12.75H2.75C2.33579 12.75 2 12.4142 2 12C2 11.5858 2.33579 11.25 2.75 11.25H4.53703C4.88881 7.7066 7.7066 4.88881 11.25 4.53703V2.75C11.25 2.33579 11.5858 2 12 2ZM14.335 6.471C13.5963 6.1585 12.8107 6 12 6C11.1893 6 10.4037 6.1585 9.665 6.471C8.9505 6.77325 8.30875 7.206 7.75725 7.7575C7.20575 8.30925 6.773 8.951 6.47075 9.66525C6.15825 10.404 5.99975 11.1895 5.99975 12.0003C5.99975 12.811 6.15825 13.5965 6.47075 14.3352C6.773 15.0497 7.20575 15.6915 7.75725 16.243C8.309 16.7945 8.95075 17.2275 9.665 17.5295C10.4037 17.842 11.1893 18.0005 12 18.0005C12.8107 18.0005 13.5963 17.842 14.335 17.5295C15.0495 17.2272 15.6913 16.7945 16.2428 16.243C16.7943 15.6912 17.2272 15.0495 17.5292 14.3352C17.8417 13.5965 18.0003 12.811 18.0003 12.0003C18.0003 11.1895 17.8417 10.404 17.5292 9.66525C17.227 8.95075 16.7943 8.309 16.2428 7.7575C15.691 7.206 15.0493 6.773 14.335 6.471ZM16 12C16 14.2091 14.2091 16 12 16C9.79086 16 8 14.2091 8 12C8 9.79086 9.79086 8 12 8C14.2091 8 16 9.79086 16 12Z" fill="currentColor" fillRule="evenodd" clipRule="evenodd" />
</svg>
