<?xml version="1.0" encoding="UTF-8"?>
<svg xmlns:svg="http://www.w3.org/2000/svg" viewBox="0 0 24 24" fill="none">
<svg:path d="M13 3C13 2.44772 12.5523 2 12 2C11.4477 2 11 2.44772 11 3V4.06155C10.2727 4.15196 9.56484 4.34171 8.886 4.629C7.93325 5.032 7.07775 5.60875 6.34325 6.34325C5.60875 7.07775 5.032 7.93325 4.629 8.886C4.34188 9.56484 4.15206 10.2727 4.0616 11H3C2.44772 11 2 11.4477 2 12C2 12.5523 2.44772 13 3 13H4.06155C4.15196 13.7273 4.34171 14.4352 4.629 15.114C5.032 16.0667 5.60875 16.9223 6.34325 17.6568C7.07775 18.3913 7.93325 18.968 8.886 19.371C9.56484 19.6581 10.2727 19.8479 11 19.9384V21C11 21.5523 11.4477 22 12 22C12.5523 22 13 21.5523 13 21V19.9385C13.7273 19.848 14.4352 19.6583 15.114 19.371C16.0667 18.968 16.9223 18.3913 17.6568 17.6568C18.3913 16.9223 18.968 16.0667 19.371 15.114C19.6581 14.4352 19.8479 13.7273 19.9384 13H21C21.5523 13 22 12.5523 22 12C22 11.4477 21.5523 11 21 11H19.9385C19.848 10.2727 19.6583 9.56484 19.371 8.886C18.968 7.93325 18.3913 7.07775 17.6568 6.34325C16.9223 5.60875 16.0667 5.032 15.114 4.629C14.4352 4.34188 13.7273 4.15206 13 4.0616V3ZM18.0002 11.9791C17.9975 11.176 17.8391 10.3974 17.5292 9.665C17.227 8.95075 16.7943 8.309 16.2428 7.7575C15.691 7.206 15.0493 6.77325 14.335 6.471C13.5963 6.1585 12.8107 6 12 6C11.1893 6 10.4037 6.1585 9.665 6.471C8.9505 6.77325 8.30875 7.206 7.75725 7.7575C7.20575 8.30925 6.77275 8.951 6.47075 9.66525C6.16097 10.3976 6.00252 11.1761 5.99979 11.9791C5.99993 11.9861 6 11.993 6 12C6 12.007 5.99993 12.014 5.99978 12.021C6.00246 12.8241 6.16091 13.6028 6.47075 14.3352C6.773 15.0495 7.20575 15.6913 7.75725 16.2428C8.309 16.7943 8.95075 17.227 9.665 17.5292C10.3974 17.8391 11.1757 17.9975 11.9791 18.0002C11.986 18.0001 11.993 18 12 18C12.007 18 12.014 18.0001 12.0209 18.0002C12.8243 17.9975 13.6026 17.8391 14.335 17.5292C15.0495 17.227 15.6913 16.7943 16.2428 16.2428C16.7943 15.691 17.2272 15.0493 17.5292 14.335C17.8391 13.6026 17.9975 12.824 18.0002 12.0209C18.0001 12.014 18 12.007 18 12C18 11.993 18.0001 11.986 18.0002 11.9791ZM16 12C16 14.2091 14.2091 16 12 16C9.79086 16 8 14.2091 8 12C8 9.79086 9.79086 8 12 8C14.2091 8 16 9.79086 16 12Z" fill="currentColor" fillRule="evenodd" clipRule="evenodd" />
</svg>
