<svg width="24" height="24" viewBox="0 0 24 24" fill="none" xmlns="http://www.w3.org/2000/svg">
<path fill-rule="evenodd" clip-rule="evenodd" d="M12.8566 17.1536C13.133 17.3655 13.4343 17.54 13.7575 17.6748C14.2745 17.8905 14.8367 18 15.4285 18C16.0202 18 16.6215 17.8803 17.1622 17.6443C17.491 17.5008 17.7992 17.3162 18.0837 17.0932C18.7192 17.022 19.3357 16.8098 19.8899 16.4693C20.5814 16.0443 21.1404 15.441 21.5066 14.7245C21.7939 14.163 21.9469 13.5485 21.9879 12.7915C21.9879 12.7893 21.9879 12.7867 21.9881 12.7842C22.0056 12.4565 22.0001 12.1485 21.9946 11.8507L21.9944 11.849L21.9939 11.823C21.9918 11.7029 21.9896 11.5796 21.9896 11.464V7.48325C21.9896 6.665 21.3271 6.00175 20.5099 6.00175C17.2889 6.00175 17.5493 6 14.6943 6L12.4788 6.002C11.8896 6.00254 11.3811 6.34772 11.1435 6.84702C10.867 6.63489 10.5654 6.46022 10.2421 6.32525C9.72509 6.1095 9.16285 6 8.57111 6C7.97937 6 7.37813 6.11975 6.83739 6.356C6.50865 6.4995 6.2004 6.684 5.91616 6.907C5.28067 6.9785 4.66393 7.1905 4.10994 7.53125C3.4187 7.95625 2.85971 8.55975 2.49347 9.2765C2.20622 9.838 2.05347 10.4525 2.01222 11.2095C1.99446 11.5358 1.99983 11.8427 2.00502 12.1397L2.00523 12.1518V12.1547C2.00772 12.2885 2.00998 12.415 2.00998 12.537V16.5185C2.00998 17.3368 2.67246 18 3.4897 18C6.16632 18 8.84294 17.9995 11.5196 17.9995C12.1096 17.9995 12.619 17.6538 12.8566 17.1536ZM11.5198 12.7295C11.5206 11.796 11.5211 10.9897 11.4548 10.418C11.2506 8.65725 10.1823 7.482 8.57111 7.482C7.74412 7.482 7.04014 7.8075 6.5094 8.3645C6.47215 8.363 6.4344 8.36225 6.39665 8.36225C5.31717 8.36225 4.30468 8.98475 3.81069 9.95175C3.5947 10.3737 3.5147 10.828 3.4897 11.2903C3.4747 11.5675 3.4797 11.8475 3.4847 12.1252L3.48474 12.1275C3.5112 13.5907 3.4897 15.0556 3.4897 16.519H5.70541C5.70684 14.9214 5.70739 13.3239 5.70301 11.7263C5.70133 11.1127 5.70006 10.6502 5.70541 10.517C5.74491 9.53475 6.0114 8.8925 6.50915 8.36725C8.15862 8.3685 9.2266 9.501 9.2861 11.3032C9.2996 11.717 9.3041 13.9313 9.3041 13.9313V16.5182H11.5198V12.7295ZM20.1889 14.0495C20.4049 13.6272 20.4849 13.173 20.5099 12.711C20.5249 12.4338 20.5196 12.154 20.5146 11.8763L20.5146 11.8752C20.5121 11.7376 20.5096 11.6004 20.5096 11.4643V7.4835H18.2939C18.2925 9.08093 18.292 10.6784 18.2963 12.2758C18.298 12.8889 18.2993 13.3511 18.2939 13.4843C18.2547 14.466 17.9879 15.1083 17.4902 15.6335C15.8407 15.6323 14.7727 14.5 14.7133 12.698C14.6997 12.2842 14.694 11.2577 14.694 10.0685V7.48175L12.4798 7.48375V11.272C12.479 12.2055 12.4785 13.0115 12.5448 13.5833C12.7488 15.3438 13.817 16.5188 15.4282 16.5188C16.2555 16.5188 16.9595 16.1935 17.4902 15.6365C17.5275 15.638 17.5652 15.6388 17.603 15.6388C18.6822 15.6388 19.6947 15.0162 20.1889 14.0495Z" fill="black"/>
</svg>
