<?xml version="1.0" encoding="UTF-8"?>
<svg xmlns:svg="http://www.w3.org/2000/svg" viewBox="0 0 24 24" fill="none">
<svg:path d="M5.61041 7.54927C6.24289 6.88701 7.08187 6.5 8.06735 6.5C9.9873 6.5 11.2603 7.89778 11.5038 9.99133C11.5827 10.6702 11.582 11.6271 11.5813 12.7356L11.5813 12.7399V13.0862V17.2452H8.94083V14.1689C8.94083 14.1689 8.93558 11.5361 8.91933 11.0441C8.84833 8.90105 7.57586 7.55452 5.61016 7.55302C5.01692 8.17754 4.69918 8.94131 4.65243 10.1091C4.64593 10.2718 4.64743 10.8493 4.64968 11.6101C4.65093 12.0044 4.65218 12.4479 4.65243 12.9086C4.65443 14.9137 4.65243 17.2457 4.65243 17.2457H2.012V12.5114C2.012 12.3499 2.00903 12.1871 2.00604 12.0236L2.006 12.0214C2 11.6909 1.994 11.3581 2.012 11.0284C2.042 10.4786 2.13725 9.93833 2.39449 9.43657C2.98323 8.28679 4.1897 7.54652 5.47591 7.54652C5.52091 7.54652 5.56591 7.54752 5.61041 7.54927ZM21.9937 11.9769L21.9937 11.9791C21.9997 12.3094 22.006 12.6421 21.988 12.9716C21.958 13.5214 21.8627 14.0614 21.6055 14.5634C21.0168 15.7132 19.8103 16.4535 18.5241 16.4535C18.4793 16.4535 18.4343 16.4525 18.3898 16.4507C17.7573 17.113 16.9184 17.5 15.9329 17.5C14.0129 17.5 12.74 16.1025 12.497 14.0089C12.4181 13.33 12.4187 12.3731 12.4195 11.2646L12.4195 11.2604V10.9141V6.75501L15.0579 6.75251V9.82882C15.0579 11.2431 15.0647 12.4641 15.0809 12.9561C15.1517 15.0992 16.4244 16.446 18.3898 16.4472C18.9828 15.8227 19.3006 15.0589 19.3476 13.8912C19.3541 13.7284 19.3526 13.1512 19.3503 12.3901C19.3491 11.9961 19.3478 11.5526 19.3476 11.0919C19.3456 9.08681 19.3476 6.75476 19.3476 6.75476H21.9877V11.4891C21.9877 11.6506 21.9907 11.8134 21.9937 11.9769Z" fill="currentColor" fillRule="evenodd" clipRule="evenodd" />
</svg>
