<?xml version="1.0" encoding="UTF-8"?>
<svg xmlns:svg="http://www.w3.org/2000/svg" viewBox="0 0 24 24" fill="none">
<svg:path d="M11.9995 2C9.23576 2.13625 6.76701 3.39602 5.03926 5.33254L9.44077 9.7341C10.1498 9.16684 11.034 8.80984 11.9995 8.75683V2ZM12.9998 8.81234V4.53153H13C17.4815 4.91204 21 8.67008 21 13.2499C21 18.0825 17.0825 22 12.25 22C12.1088 22 11.9688 21.999 11.828 21.9898C10.9158 21.9462 10.04 21.7632 9.22175 21.4615C8.28025 21.1345 7.40301 20.6705 6.61301 20.0937L9.729 16.9777C10.4483 17.4649 11.3155 17.7497 12.2498 17.7497C12.3375 17.7497 12.426 17.7472 12.5148 17.7422C14.6565 17.6194 16.5753 15.7382 16.7365 13.5989C16.9163 11.2156 15.238 9.18784 12.9998 8.81234ZM2.69927 13.9999H7.81226C7.96176 14.8917 8.37377 15.6944 8.96602 16.3264L5.83152 19.461C4.25927 18.0512 3.13477 16.1509 2.69927 13.9999ZM2.5 12.0004C2.5 9.80135 3.20827 7.76782 4.40852 6.11605H4.40901L8.73452 10.4416C8.16727 11.1506 7.81 12.0351 7.75725 13.0004H2.54951C2.51676 12.6714 2.5 12.3379 2.5 12.0004Z" fill="currentColor" fillRule="evenodd" clipRule="evenodd" />
</svg>
