<?xml version="1.0" encoding="UTF-8"?>
<svg xmlns:svg="http://www.w3.org/2000/svg" viewBox="0 0 24 24" fill="none">
<svg:path d="M15.3083 4.16725C14.2613 3.7245 13.1482 3.5 12 3.5C10.8518 3.5 9.73875 3.7245 8.69175 4.16725C7.67975 4.59525 6.7705 5.2085 5.9895 5.9895C5.2085 6.7705 4.59525 7.67975 4.16725 8.69175C3.7245 9.7385 3.5 10.8518 3.5 11.9997C3.5 13.1477 3.7245 14.2607 4.16725 15.3078C4.59525 16.3197 5.2085 17.229 5.9895 18.01C6.7705 18.791 7.67975 19.4042 8.69175 19.8322C9.73875 20.275 10.8518 20.4995 12 20.4995C13.1482 20.4995 14.2613 20.275 15.3083 19.8322C16.3203 19.4042 17.2295 18.791 18.0105 18.01C18.7915 17.229 19.4048 16.3197 19.8328 15.3078C20.2755 14.261 20.5 13.1477 20.5 11.9997C20.5 10.8518 20.2755 9.73875 19.8328 8.69175C19.4048 7.67975 18.7915 6.7705 18.0105 5.9895C17.2295 5.2085 16.3203 4.59525 15.3083 4.16725ZM2 12C2 6.47725 6.47725 2 12 2C17.5228 2 22 6.47725 22 12C22 17.5228 17.5228 22 12 22C6.47725 22 2 17.5228 2 12ZM14.996 11.9974C14.996 10.5456 14.7118 9.13788 14.1515 7.81313V7.81363C14.085 7.65663 14.015 7.50163 13.9415 7.34863C13.7645 6.97988 13.917 6.53738 14.2828 6.35438C14.659 6.16613 15.1145 6.32463 15.2963 6.70388C15.379 6.87663 15.458 7.05188 15.533 7.22913C16.172 8.73988 16.496 10.3441 16.496 11.9976C16.496 13.6511 16.172 15.2554 15.533 16.7661C15.458 16.9434 15.379 17.1186 15.2963 17.2914C15.1145 17.6704 14.6588 17.8289 14.2828 17.6409C13.917 17.4579 13.7645 17.0154 13.9415 16.6466C14.015 16.4936 14.085 16.3386 14.1515 16.1816C14.7118 14.8566 14.996 13.4491 14.996 11.9974ZM11.496 11.9976C11.496 13.0725 11.2462 14.1089 10.7742 15.0409C10.5862 15.4121 10.7315 15.8651 11.1037 16.0514L11.1082 16.0536C11.4745 16.2369 11.9215 16.0914 12.1067 15.7264C12.1925 15.5571 12.2727 15.3849 12.347 15.2091C12.7775 14.1916 12.9957 13.1111 12.9957 11.9976C12.9957 10.8841 12.7775 9.80363 12.347 8.78613C12.2727 8.61038 12.1925 8.43788 12.1067 8.26888C11.9215 7.90363 11.4745 7.75838 11.1082 7.94163L11.1037 7.94388C10.7315 8.13013 10.5862 8.58313 10.7742 8.95438C11.246 9.88631 11.496 10.9227 11.496 11.9976ZM7.61125 13.3991C7.8555 12.9884 7.996 12.5089 7.996 11.9974C7.996 11.4856 7.8555 11.0064 7.61125 10.5956C7.3875 10.2194 7.5255 9.73263 7.91725 9.53688C8.26725 9.36188 8.694 9.48463 8.895 9.82038C9.27675 10.4576 9.49625 11.2021 9.49625 11.9974C9.49625 12.7926 9.27675 13.5374 8.895 14.1744C8.69375 14.5099 8.26725 14.6329 7.91725 14.4579C7.5255 14.2621 7.38725 13.7754 7.61125 13.3991Z" fill="currentColor" fillRule="evenodd" clipRule="evenodd" />
</svg>
