<?xml version="1.0" encoding="UTF-8"?>
<svg xmlns:svg="http://www.w3.org/2000/svg" viewBox="0 0 24 24" fill="none">
<svg:path d="M10.5 6.5C10.5 5.39725 9.60275 4.5 8.5 4.5C7.39725 4.5 6.5 5.39725 6.5 6.5C6.5 7.60275 7.39725 8.5 8.5 8.5C9.60275 8.5 10.5 7.60275 10.5 6.5ZM5 6.5C5 4.567 6.567 3 8.5 3C10.433 3 12 4.567 12 6.5C12 8.433 10.433 10 8.5 10C6.567 10 5 8.433 5 6.5ZM13.5 14.5C13.5 13.673 12.827 13 12 13H5C4.173 13 3.5 13.673 3.5 14.5C3.5 15.8355 4.02 17.0912 4.9645 18.0355C5.90875 18.98 7.1645 19.5 8.5 19.5C9.8355 19.5 11.0913 18.98 12.0355 18.0355C12.98 17.0912 13.5 15.8355 13.5 14.5ZM5 11.5H12C13.6567 11.5 15 12.8432 15 14.5C15 18.0897 12.0897 21 8.5 21C4.91025 21 2 18.0897 2 14.5C2 12.8432 3.34325 11.5 5 11.5ZM16.5 5.5C17.327 5.5 18 6.173 18 7C18 7.827 17.327 8.5 16.5 8.5C15.673 8.5 15 7.827 15 7C15 6.173 15.673 5.5 16.5 5.5ZM16.5 4C14.8432 4 13.5 5.34325 13.5 7C13.5 8.65675 14.8432 10 16.5 10C18.1567 10 19.5 8.65675 19.5 7C19.5 5.34325 18.1567 4 16.5 4ZM16.6926 11.5003H19.4998L19.5001 11.5C20.8808 11.5 22.0001 12.6192 22.0001 14C22.0001 17.0375 19.5376 19.5 16.5001 19.5C16.3601 19.5 16.2213 19.4947 16.0838 19.4845C15.5463 19.444 15.2336 18.8557 15.4953 18.3843C15.4966 18.382 15.4978 18.3797 15.4991 18.3774C15.5003 18.3751 15.5016 18.3728 15.5028 18.3705C15.6436 18.1158 15.9203 17.969 16.2108 17.9898C16.3066 17.9965 16.4028 18 16.4998 18C17.5648 18.0003 18.5878 17.5742 19.3383 16.8185C20.0858 16.0658 20.4981 15.068 20.4998 14.0068C20.5008 13.4518 20.0546 13 19.4998 13H16.7016C16.4268 13 16.1748 12.8485 16.0463 12.6058C16.0433 12.6003 16.0403 12.5945 16.0373 12.5888C15.7751 12.0953 16.1338 11.5003 16.6926 11.5003Z" fill="currentColor" fillRule="evenodd" clipRule="evenodd" />
</svg>
