<?xml version="1.0" encoding="UTF-8"?>
<svg xmlns:svg="http://www.w3.org/2000/svg" viewBox="0 0 24 24" fill="none">
<svg:path d="M8.25 7.25C7.69772 7.25 7.25 7.69772 7.25 8.25C7.25 8.80228 7.69772 9.25 8.25 9.25C8.80228 9.25 9.25 8.80228 9.25 8.25C9.25 7.69772 8.80228 7.25 8.25 7.25ZM5.75 8.25C5.75 6.86929 6.86929 5.75 8.25 5.75C9.63071 5.75 10.75 6.86929 10.75 8.25C10.75 9.63071 9.63071 10.75 8.25 10.75C6.86929 10.75 5.75 9.63071 5.75 8.25ZM17.5303 6.46967C17.8232 6.76256 17.8232 7.23744 17.5303 7.53033L7.53033 17.5303C7.23744 17.8232 6.76256 17.8232 6.46967 17.5303C6.17678 17.2374 6.17678 16.7626 6.46967 16.4697L16.4697 6.46967C16.7626 6.17678 17.2374 6.17678 17.5303 6.46967ZM14.75 15.75C14.75 15.1977 15.1977 14.75 15.75 14.75C16.3023 14.75 16.75 15.1977 16.75 15.75C16.75 16.3023 16.3023 16.75 15.75 16.75C15.1977 16.75 14.75 16.3023 14.75 15.75ZM15.75 13.25C14.3693 13.25 13.25 14.3693 13.25 15.75C13.25 17.1307 14.3693 18.25 15.75 18.25C17.1307 18.25 18.25 17.1307 18.25 15.75C18.25 14.3693 17.1307 13.25 15.75 13.25Z" fill="currentColor" fillRule="evenodd" clipRule="evenodd" />
</svg>
