<?xml version="1.0" encoding="UTF-8"?>
<svg xmlns:svg="http://www.w3.org/2000/svg" viewBox="0 0 24 24" fill="none">
<svg:path d="M12 4.5C13.1027 4.5 14 5.39725 14 6.5C14 7.60275 13.1027 8.5 12 8.5C10.8973 8.5 10 7.60275 10 6.5C10 5.39725 10.8973 4.5 12 4.5ZM12 3C10.067 3 8.5 4.567 8.5 6.5C8.5 8.433 10.067 10 12 10C13.933 10 15.5 8.433 15.5 6.5C15.5 4.567 13.933 3 12 3ZM23.443 19.2711L22.9262 18.9763C22.555 18.7646 22.555 18.2354 22.9262 18.0237L23.443 17.7289C23.9757 17.4252 24.1582 16.7525 23.8505 16.2263L23.2937 15.2736C22.9862 14.7476 22.3053 14.5671 21.7725 14.8709L21.2558 15.1656C20.8846 15.3773 20.4206 15.1126 20.4206 14.6894V14.0999C20.4206 13.4925 19.9221 13 19.3069 13H18.1931C17.5782 13 17.0794 13.4925 17.0794 14.0999V14.6894C17.0794 15.1129 16.6154 15.3773 16.2442 15.1656L15.7275 14.8709C15.1947 14.5671 14.5138 14.7474 14.2063 15.2736L13.6495 16.2263C13.342 16.7522 13.5245 17.4249 14.057 17.7289L14.5738 18.0237C14.945 18.2354 14.945 18.7646 14.5738 18.9763L14.057 19.2711C13.5243 19.5748 13.3418 20.2475 13.6495 20.7737L14.2063 21.7264C14.5138 22.2524 15.1947 22.4329 15.7275 22.1291L16.2442 21.8344C16.6154 21.6227 17.0794 21.8874 17.0794 22.3106V22.9001C17.0794 23.5075 17.5779 24 18.1931 24H19.3069C19.9218 24 20.4206 23.5075 20.4206 22.9001V22.3106C20.4206 21.8871 20.8846 21.6227 21.2558 21.8344L21.7725 22.1291C22.3053 22.4329 22.9862 22.2526 23.2937 21.7264L23.8505 20.7737C24.158 20.2478 23.9755 19.5751 23.443 19.2711ZM18.7501 20.3333C17.7397 20.3333 16.9207 19.5126 16.9207 18.5001C16.9207 17.4877 17.7397 16.667 18.7501 16.667C19.7606 16.667 20.5796 17.4877 20.5796 18.5001C20.5796 19.5126 19.7606 20.3333 18.7501 20.3333ZM7.9645 18.0355C8.64775 18.7188 9.494 19.18 10.4155 19.3828C10.7578 19.458 11 19.7635 11 20.114C11 20.5917 10.559 20.9503 10.0925 20.8473C7.17925 20.204 5 17.6065 5 14.5C5 12.8432 6.34325 11.5 8 11.5H14.75C15.1643 11.5 15.5 11.8357 15.5 12.25C15.5 12.6643 15.1643 13 14.75 13H8C7.17825 13 6.50275 13.6613 6.5 14.483C6.4955 15.8247 7.016 17.087 7.9645 18.0355Z" fill="currentColor" fillRule="evenodd" clipRule="evenodd" />
</svg>
