<?xml version="1.0" encoding="UTF-8"?>
<svg xmlns:svg="http://www.w3.org/2000/svg" viewBox="0 0 24 24" fill="none">
<svg:path d="M12 2C6.47725 2 2 6.47725 2 12C2 17.5228 6.47725 22 12 22C17.5228 22 22 17.5228 22 12C22 6.47725 17.5228 2 12 2ZM12 10.5C13.2426 10.5 14.25 9.49264 14.25 8.25C14.25 7.00736 13.2426 6 12 6C10.7574 6 9.75 7.00736 9.75 8.25C9.75 9.49264 10.7574 10.5 12 10.5ZM7.5 13.5C7.5 15.9853 9.51475 18 12 18C14.4853 18 16.5 15.9853 16.5 13.5C16.5 12.6715 15.8285 12 15 12H9C8.1715 12 7.5 12.6715 7.5 13.5Z" fill="currentColor" fillRule="evenodd" clipRule="evenodd" />
</svg>
