<svg width="24" height="24" viewBox="0 0 24 24" fill="none" xmlns="http://www.w3.org/2000/svg">
<path fill-rule="evenodd" clip-rule="evenodd" d="M12 10C13.933 10 15.5 8.433 15.5 6.5C15.5 4.567 13.933 3 12 3C10.067 3 8.5 4.567 8.5 6.5C8.5 8.433 10.067 10 12 10ZM23.5396 18.0846C23.9594 17.6771 24.1059 17.0804 23.9219 16.5276C23.7391 15.9786 23.2669 15.5856 22.6892 15.5021L20.5522 15.1928C20.4582 15.1793 20.3757 15.1181 20.3317 15.0296L19.3747 13.0983C19.1155 12.575 18.5887 12.25 18 12.25C17.4113 12.25 16.8845 12.575 16.6253 13.0983L15.6683 15.0296C15.6243 15.1183 15.542 15.1793 15.4478 15.1928L13.3108 15.5021C12.7331 15.5856 12.2609 15.9786 12.0781 16.5276C11.8941 17.0806 12.0406 17.6771 12.4604 18.0846L14.0023 19.5814C14.0763 19.6534 14.1101 19.7584 14.0921 19.8627L13.7278 21.978C13.6513 22.4217 13.7756 22.8717 14.0686 23.2127C14.3618 23.5542 14.7878 23.75 15.2373 23.75C15.4843 23.75 15.7318 23.6888 15.9533 23.5727L17.8695 22.5692C17.9105 22.5477 17.9545 22.537 18.0002 22.537C18.046 22.537 18.09 22.548 18.131 22.5692L20.0472 23.5725C20.2687 23.6885 20.5162 23.7498 20.7632 23.7498C21.2127 23.7498 21.6384 23.554 21.9319 23.2125C22.2249 22.8715 22.3489 22.4215 22.2727 21.9777L21.9084 19.8624C21.8904 19.7584 21.9239 19.6532 21.9982 19.5812L23.5401 18.0844L23.5396 18.0846ZM11.4155 19.1608L12.508 20.2212V20.2215L12.374 21H11.5C7.91025 21 5 18.0897 5 14.5C5 12.8432 6.34325 11.5 8 11.5H15.9978C15.702 11.7595 15.4582 12.0752 15.2812 12.4322L14.6038 13.7992L13.096 14.0175C12.5385 14.098 12.0165 14.3298 11.587 14.687C11.1552 15.0462 10.8327 15.5187 10.6547 16.0537C10.475 16.5937 10.4512 17.1692 10.586 17.718C10.7205 18.2655 11.0072 18.7645 11.4155 19.1608Z" fill="black"/>
</svg>
