<?xml version="1.0" encoding="UTF-8"?>
<svg xmlns:svg="http://www.w3.org/2000/svg" viewBox="0 0 24 24" fill="none">
<svg:path d="M12 3.5C13.1482 3.5 14.2613 3.7245 15.3083 4.16725C16.3203 4.59525 17.2295 5.2085 18.0105 5.9895C18.7915 6.7705 19.4047 7.67975 19.8327 8.69175C20.2755 9.73875 20.5 10.8518 20.5 11.9997C20.5 13.1477 20.2755 14.261 19.8327 15.3078C19.4047 16.3197 18.7915 17.229 18.0105 18.01C17.2295 18.791 16.3203 19.4042 15.3083 19.8322C14.2613 20.275 13.1482 20.4995 12 20.4995C10.8518 20.4995 9.73875 20.275 8.69175 19.8322C7.67975 19.4042 6.7705 18.791 5.9895 18.01C5.2085 17.229 4.59526 16.3197 4.16726 15.3078C3.72451 14.2607 3.5 13.1477 3.5 11.9997C3.5 10.8518 3.72451 9.7385 4.16726 8.69175C4.59526 7.67975 5.2085 6.7705 5.9895 5.9895C6.7705 5.2085 7.67975 4.59525 8.69175 4.16725C9.73875 3.7245 10.8518 3.5 12 3.5ZM12 2C6.47725 2 2 6.47725 2 12C2 17.5228 6.47725 22 12 22C17.5228 22 22 17.5228 22 12C22 6.47725 17.5228 2 12 2ZM12 10.5C13.2426 10.5 14.25 9.49264 14.25 8.25C14.25 7.00736 13.2426 6 12 6C10.7574 6 9.75 7.00736 9.75 8.25C9.75 9.49264 10.7574 10.5 12 10.5ZM7.5 13.5C7.5 15.9853 9.51475 18 12 18C14.4853 18 16.5 15.9853 16.5 13.5C16.5 12.6715 15.8285 12 15 12H9C8.1715 12 7.5 12.6715 7.5 13.5Z" fill="currentColor" fillRule="evenodd" clipRule="evenodd" />
</svg>
