<svg width="24" height="24" viewBox="0 0 24 24" fill="none" xmlns="http://www.w3.org/2000/svg">
<path fill-rule="evenodd" clip-rule="evenodd" d="M14 6.5C14 5.39725 13.1027 4.5 12 4.5C10.8973 4.5 10 5.39725 10 6.5C10 7.60275 10.8973 8.5 12 8.5C13.1027 8.5 14 7.60275 14 6.5ZM8.5 6.5C8.5 4.567 10.067 3 12 3C13.933 3 15.5 4.567 15.5 6.5C15.5 8.433 13.933 10 12 10C10.067 10 8.5 8.433 8.5 6.5ZM17.5 14.5C17.5 13.673 16.827 13 16 13H8C7.173 13 6.5 13.673 6.5 14.5C6.5 15.8355 7.02025 17.091 7.9645 18.0355C8.90875 18.98 10.1645 19.5 11.5 19.5H12.5C13.8355 19.5 15.091 18.9798 16.0355 18.0355C16.98 17.0912 17.5 15.8355 17.5 14.5ZM8 11.5H16C17.6568 11.5 19 12.8432 19 14.5C19 18.0897 16.0897 21 12.5 21H11.5C7.91025 21 5 18.0897 5 14.5C5 12.8432 6.34325 11.5 8 11.5Z" fill="black"/>
</svg>
