<?xml version="1.0" encoding="UTF-8"?>
<svg xmlns:svg="http://www.w3.org/2000/svg" viewBox="0 0 24 24" fill="none">
<svg:path d="M23.5395 6.08463C23.9593 5.67712 24.1058 5.08036 23.9218 4.52759C23.739 3.97858 23.2668 3.58557 22.689 3.50207L20.5521 3.19281C20.4581 3.17931 20.3756 3.11806 20.3316 3.02956L19.3746 1.09827C19.1154 0.575007 18.5886 0.25 17.9999 0.25C17.4111 0.25 16.8844 0.575007 16.6252 1.09827L15.6682 3.02956C15.6242 3.11831 15.5419 3.17931 15.4477 3.19281L13.3107 3.50207C12.733 3.58557 12.2607 3.97858 12.078 4.52759C11.894 5.08061 12.0405 5.67712 12.4602 6.08463L14.0022 7.58141C14.0762 7.65341 14.11 7.75841 14.0919 7.86267L13.7277 9.97796C13.6512 10.4217 13.7755 10.8717 14.0685 11.2127C14.3617 11.5542 14.7877 11.75 15.2372 11.75C15.4842 11.75 15.7317 11.6887 15.9532 11.5727L17.8694 10.5692C17.9104 10.5477 17.9544 10.537 18.0001 10.537C18.0459 10.537 18.0899 10.548 18.1309 10.5692L20.0471 11.5725C20.2686 11.6885 20.5161 11.7498 20.7631 11.7498C21.2126 11.7498 21.6383 11.554 21.9318 11.2125C22.2248 10.8715 22.3488 10.4215 22.2725 9.97771L21.9083 7.86242C21.8903 7.75841 21.9238 7.65316 21.9981 7.58116L23.54 6.08438L23.5395 6.08463ZM12.5 16H11.5C10.9478 16 10.5 16.4477 10.5 17V18C10.5 18.5523 10.9478 19 11.5 19H12.5C13.0523 19 13.5 18.5523 13.5 18V17C13.5 16.4477 13.0523 16 12.5 16ZM17.5 18V13.3483C17.5 12.8825 17.9203 12.5295 18.379 12.6095C18.738 12.672 19 12.9837 19 13.3483V18C19 20.2093 17.2093 22 15 22H9C6.79075 22 5 20.2093 5 18V6C5 3.79075 6.79075 2 9 2H10.6815C11.4285 2 11.7162 2.97275 11.0895 3.37925C10.968 3.458 10.8263 3.5 10.6815 3.5H9C7.61925 3.5 6.5 4.61925 6.5 6V18C6.5 19.3807 7.61925 20.5 9 20.5H15C16.3807 20.5 17.5 19.3807 17.5 18Z" fill="currentColor" fillRule="evenodd" clipRule="evenodd" />
</svg>
