<?xml version="1.0" encoding="UTF-8"?>
<svg xmlns:svg="http://www.w3.org/2000/svg" viewBox="0 0 24 24" fill="none">
<svg:path d="M23.9218 4.52759C24.1058 5.08036 23.9593 5.67712 23.5395 6.08463L23.54 6.08438L21.9981 7.58116C21.9238 7.65316 21.8903 7.75841 21.9083 7.86242L22.2725 9.97771C22.3488 10.4215 22.2248 10.8715 21.9318 11.2125C21.6383 11.554 21.2126 11.7498 20.7631 11.7498C20.5161 11.7498 20.2686 11.6885 20.0471 11.5725L18.1309 10.5692C18.0899 10.548 18.0459 10.537 18.0001 10.537C17.9544 10.537 17.9104 10.5477 17.8694 10.5692L15.9532 11.5727C15.7317 11.6887 15.4842 11.75 15.2372 11.75C14.7877 11.75 14.3617 11.5542 14.0685 11.2127C13.7755 10.8717 13.6512 10.4217 13.7277 9.97796L14.0919 7.86267C14.11 7.75841 14.0762 7.65341 14.0022 7.58141L12.4602 6.08463C12.0405 5.67712 11.894 5.08061 12.078 4.52759C12.2607 3.97858 12.733 3.58557 13.3107 3.50207L15.4477 3.19281C15.5419 3.17931 15.6242 3.11831 15.6682 3.02956L16.6252 1.09827C16.8844 0.575007 17.4111 0.25 17.9999 0.25C18.5886 0.25 19.1154 0.575007 19.3746 1.09827L20.3316 3.02956C20.3756 3.11806 20.4581 3.17931 20.5521 3.19281L22.689 3.50207C23.2668 3.58557 23.739 3.97858 23.9218 4.52759ZM16.6485 12.9015L17.9997 12.194L18 12.1942L19 12.7177V18C19 20.2093 17.2093 22 15 22H9C6.79075 22 5 20.2093 5 18V6C5 3.79075 6.79075 2 9 2H13.2165L13.096 2.0175C12.5385 2.098 12.0165 2.32975 11.587 2.687C11.1552 3.04625 10.8328 3.51875 10.6548 4.05375C10.475 4.59375 10.4513 5.16925 10.586 5.718C10.7205 6.2655 11.0073 6.7645 11.4155 7.16075L12.508 8.22125L12.2493 9.723C12.0968 10.609 12.3447 11.5082 12.9302 12.1898C13.5087 12.8635 14.3495 13.2497 15.2367 13.2497C15.725 13.2497 16.2133 13.1295 16.6485 12.9015ZM12.4997 19.4998C13.052 19.4998 13.4997 19.052 13.4997 18.4998V17.4998C13.4997 16.9475 13.052 16.4997 12.4997 16.4997H11.4997C10.9475 16.4997 10.4997 16.9475 10.4997 17.4998V18.4998C10.4997 19.052 10.9475 19.4998 11.4997 19.4998H12.4997Z" fill="currentColor" fillRule="evenodd" clipRule="evenodd" />
</svg>
