<svg width="24" height="24" viewBox="0 0 24 24" fill="none" xmlns="http://www.w3.org/2000/svg">
<path fill-rule="evenodd" clip-rule="evenodd" d="M16.6863 2.96516C14.9566 1.23547 12.0118 1.93104 11.2383 4.25121L11.2383 4.25124L9.77993 8.62646L9.7799 8.62656C9.68926 8.89861 9.45571 9.09817 9.17279 9.14528L9.17272 9.14529L6.90262 9.52352C5.07789 9.82753 4.36042 12.0669 5.66838 13.3749L7.61641 15.3229L2.46967 20.4697C2.17678 20.7626 2.17678 21.2374 2.46967 21.5303C2.76256 21.8232 3.23744 21.8232 3.53033 21.5303L8.67707 16.3836L10.6251 18.3316C11.9332 19.6397 14.1721 18.9219 14.4764 17.0975L14.4764 17.0974L14.8547 14.8272L14.8547 14.8272C14.9018 14.5444 15.1015 14.3107 15.3735 14.22L19.7487 12.7616C22.0692 11.9881 22.7645 9.04299 21.0347 7.31358L16.6863 2.96516Z" fill="black"/>
</svg>
