<?xml version="1.0" encoding="UTF-8"?>
<svg xmlns:svg="http://www.w3.org/2000/svg" viewBox="0 0 24 24" fill="none">
<svg:path d="M10.6243 18.3328C11.0588 18.7673 11.636 19 12.2288 19L12.2285 18.9998C12.4613 18.9998 12.6965 18.964 12.9263 18.8903C13.7413 18.629 14.3348 17.9423 14.4755 17.0983L14.854 14.8281C14.9013 14.5446 15.1003 14.3118 15.373 14.2208L19.7485 12.7624C20.8383 12.3991 21.6465 11.5147 21.9105 10.3967C22.1745 9.2787 21.847 8.12622 21.0348 7.31399L16.686 2.96533C15.8738 2.15309 14.7213 1.8256 13.6033 2.08959C12.4853 2.35359 11.6008 3.16182 11.2375 4.25155L9.77901 8.62696C9.68801 8.89996 9.45551 9.0987 9.17176 9.14595L6.90151 9.52444C6.05726 9.66519 5.37076 10.2587 5.10951 11.0737C4.84851 11.8886 5.06201 12.7706 5.66726 13.3759L7.61539 15.324L2.46967 20.4697C2.17678 20.7626 2.17678 21.2374 2.46967 21.5303C2.76256 21.8232 3.23744 21.8232 3.53033 21.5303L8.67606 16.3846L10.6243 18.3328ZM13.948 3.54981C14.0865 3.51706 14.226 3.50107 14.3643 3.50107L14.3648 3.50131C14.8328 3.50131 15.2845 3.68531 15.6258 4.02655L19.9745 8.37522C20.4165 8.81721 20.5945 9.44419 20.451 10.0527C20.3073 10.6609 19.8675 11.1422 19.2745 11.3399L14.899 12.7984C14.0978 13.0656 13.5135 13.7489 13.3748 14.5821L12.9963 16.8523C12.9475 17.144 12.7505 17.372 12.4688 17.4623C12.1873 17.5525 11.8943 17.4818 11.685 17.2725L6.72801 12.3156C6.51901 12.1066 6.44801 11.8136 6.53826 11.5319C6.62851 11.2502 6.85651 11.0529 7.14826 11.0044L9.41851 10.6259C10.2518 10.4869 10.9353 9.90293 11.2023 9.1017L12.6608 4.72629C12.8585 4.1333 13.3395 3.69331 13.948 3.54981Z" fill="currentColor" fillRule="evenodd" clipRule="evenodd" />
</svg>
