<svg width="24" height="24" viewBox="0 0 24 24" fill="none" xmlns="http://www.w3.org/2000/svg">
<path fill-rule="evenodd" clip-rule="evenodd" d="M16.8951 13.7135L19.7484 12.7625C20.8381 12.3992 21.6463 11.5147 21.9103 10.3967C22.1743 9.27874 21.8468 8.12624 21.0346 7.31399L16.6859 2.96524C15.8736 2.15299 14.7212 1.82574 13.6032 2.08949C12.4852 2.35349 11.6007 3.16174 11.2374 4.25149L10.2862 7.10499L16.8951 13.7135ZM20.4697 21.5302C20.616 21.6767 20.808 21.75 21 21.75H21.0002C21.192 21.75 21.384 21.6767 21.5305 21.5302C21.8235 21.2372 21.8235 20.7625 21.5305 20.4695L3.5305 2.46949C3.2375 2.17649 2.7625 2.17649 2.46975 2.46949C2.17675 2.76249 2.17675 3.23724 2.46975 3.53024L8.2405 9.301L6.90148 9.52424C6.05724 9.66499 5.37074 10.2585 5.10949 11.0735C4.84825 11.8885 5.062 12.7707 5.66724 13.3757L7.61541 15.3239L2.46967 20.4697C2.17678 20.7626 2.17678 21.2374 2.46967 21.5303C2.76256 21.8232 3.23744 21.8232 3.53033 21.5303L8.67606 16.3846L10.6242 18.3327C11.0587 18.7672 11.6359 19 12.2287 19C12.4614 19 12.6967 18.964 12.9264 18.8905C13.7414 18.6292 14.3349 17.9427 14.4757 17.0985L14.6988 15.7593L20.4697 21.5302Z" fill="black"/>
</svg>
