<?xml version="1.0" encoding="UTF-8"?>
<svg xmlns:svg="http://www.w3.org/2000/svg" viewBox="0 0 24 24" fill="none">
<svg:path d="M10.6141 7.43292C11.0084 7.82716 11.6796 7.66866 11.8559 7.13967L12.6604 4.72595C12.8582 4.13296 13.3394 3.69322 13.9477 3.54947C14.0862 3.51672 14.2259 3.50072 14.3639 3.50072C14.8322 3.50072 15.2837 3.68472 15.6252 4.02596L19.974 8.37465C20.416 8.81665 20.5943 9.44364 20.4505 10.0521C20.307 10.6606 19.8673 11.1416 19.274 11.3394L16.8605 12.1438C16.3315 12.3201 16.173 12.9913 16.5672 13.3856C16.768 13.5863 17.0652 13.6566 17.3347 13.5668L19.7483 12.7623C20.8381 12.3991 21.6463 11.5146 21.9103 10.3966C22.1743 9.27864 21.8468 8.12616 21.0346 7.31392L16.6857 2.96523C15.8735 2.15299 14.7209 1.82575 13.6029 2.08949C12.4849 2.35349 11.6004 3.16173 11.2371 4.25146L10.4326 6.66518C10.3428 6.93467 10.4128 7.23192 10.6138 7.43267L10.6141 7.43292ZM3.53033 2.46967C3.23744 2.17678 2.76256 2.17678 2.46967 2.46967C2.17678 2.76256 2.17678 3.23744 2.46967 3.53033L8.2405 9.30116L6.90154 9.52438C6.05727 9.66513 5.37075 10.2586 5.1095 11.0736C4.84824 11.8886 5.062 12.7708 5.66726 13.3758L7.61542 15.3239L2.46967 20.4697C2.17678 20.7626 2.17678 21.2374 2.46967 21.5303C2.76256 21.8232 3.23744 21.8232 3.53033 21.5303L8.6761 16.3846L10.6244 18.3328C11.0589 18.7673 11.6361 19 12.2289 19C12.4616 19 12.6969 18.964 12.9267 18.8905C13.7417 18.6293 14.3352 17.9428 14.4759 17.0985L14.699 15.7597L20.4697 21.5303C20.7626 21.8232 21.2374 21.8232 21.5303 21.5303C21.8232 21.2374 21.8232 20.7626 21.5303 20.4697L3.53033 2.46967ZM13.3985 14.4592L9.54109 10.6017C9.50064 10.6108 9.4598 10.6187 9.41859 10.6256L7.14829 11.0041C6.85654 11.0529 6.62852 11.2499 6.53827 11.5316C6.44802 11.8131 6.51878 12.1061 6.72803 12.3153L11.6851 17.2723C11.8941 17.4813 12.1874 17.5523 12.4689 17.462C12.7506 17.3718 12.9477 17.1438 12.9964 16.852L13.3747 14.5818C13.3815 14.5406 13.3895 14.4997 13.3985 14.4592Z" fill="currentColor" fillRule="evenodd" clipRule="evenodd" />
</svg>
