<svg width="24" height="24" viewBox="0 0 24 24" fill="none" xmlns="http://www.w3.org/2000/svg">
<path fill-rule="evenodd" clip-rule="evenodd" d="M9.11599 7.805C8.59649 7.286 7.906 7 7.1715 7H5.36375L9.20999 3.15375C10.7485 1.6155 13.2515 1.6155 14.7897 3.15375L18.636 7H16.8282C16.0937 7 15.4032 7.28575 14.8837 7.805L12.5302 10.2822C12.2377 10.5745 11.762 10.5745 11.4695 10.2822L9.11599 7.805ZM20.1353 8.49925H16.8284C16.4944 8.49925 16.1807 8.62925 15.9444 8.86525L13.591 11.3425C13.1525 11.781 12.5762 12 12 12C11.4238 12 10.8478 11.7807 10.409 11.3425L8.05557 8.86525C7.81958 8.62925 7.50559 8.49925 7.17159 8.49925H3.86466L3.15367 9.21025C1.61544 10.7485 1.61544 13.2515 3.15367 14.79L4.86464 16.501H7.17159C7.50559 16.501 7.81933 16.371 8.05557 16.135L10.409 13.6577C10.8475 13.2192 11.4238 13.0002 12 13.0002C12.5762 13.0002 13.1522 13.2195 13.591 13.6577L15.9444 16.135C16.1804 16.371 16.4944 16.501 16.8284 16.501H19.1354L20.8463 14.79C22.3846 13.2517 22.3846 10.7487 20.8463 9.21025L20.1353 8.49925ZM16.8285 18C16.094 18 15.4035 17.714 14.884 17.195L12.5305 14.7177C12.238 14.4255 11.7623 14.4255 11.4698 14.7177L9.11626 17.195C8.59676 17.7142 7.90627 18 7.17177 18H6.36401L9.21026 20.8462C9.97951 21.6155 10.9898 22 12 22C13.0103 22 14.0208 21.6155 14.7898 20.8462L17.636 18H16.8285Z" fill="black"/>
</svg>
