<?xml version="1.0" encoding="UTF-8"?>
<svg xmlns:svg="http://www.w3.org/2000/svg" viewBox="0 0 24 24" fill="none">
<svg:path d="M20.0341 8.44116L20.2797 8.71366H20.2792C20.8062 9.2984 21.0582 10.0456 20.9887 10.8174C20.9184 11.5966 20.5309 12.2951 19.8976 12.7839L19.7019 12.9349C19.6976 12.9299 19.6934 12.9249 19.6889 12.9199L19.3954 12.5941C17.4738 10.4626 15.1765 8.71691 12.5677 7.40543C9.9614 6.09519 7.15433 5.27395 4.22501 4.96445C4.15 4.9567 4.075 4.9512 4 4.94795V4.83396C4 4.05172 4.34001 3.29722 4.93302 2.76348C5.56029 2.19899 6.40931 1.92674 7.26258 2.01699C9.72839 2.27749 12.0912 2.96898 14.2853 4.07197C16.4818 5.1762 18.4161 6.64618 20.0341 8.44116ZM11.8944 8.74591C14.3363 9.97339 16.4853 11.6061 18.2818 13.5989L18.2821 13.5991L18.5121 13.8543L16 15.7931V19C16 19.5523 15.5523 20 15 20C14.4477 20 14 19.5523 14 19V17.3366L13.9787 17.3531C13.9157 17.1488 13.7257 17.0003 13.5007 17.0003C13.2245 17.0003 13.0007 17.2241 13.0007 17.5003V18.1078L13 18.1084V20C13 20.5523 12.5523 21 12 21C11.4477 21 11 20.5523 11 20V19.6519L8.61611 21.4918C8.59786 21.506 8.57886 21.5193 8.55936 21.5315C8.06759 21.843 7.50608 22 6.94332 22C6.44105 22 5.93779 21.8753 5.48128 21.624C4.55401 21.1138 4.00024 20.1943 4.00024 19.164V6.45043C4.02274 6.45219 4.04525 6.45419 4.06775 6.45644C6.81681 6.74693 9.45013 7.51717 11.8944 8.74591ZM7.00057 15.9998C7.00057 16.5521 7.44833 16.9998 8.00059 16.9998C8.55286 16.9998 9.00062 16.5521 9.00062 15.9998C9.00062 15.4476 8.55286 14.9998 8.00059 14.9998C7.44833 14.9998 7.00057 15.4476 7.00057 15.9998ZM7.00057 9.99989C7.00057 10.5521 7.44833 10.9999 8.00059 10.9999C8.55286 10.9999 9.00062 10.5521 9.00062 9.99989C9.00062 9.44765 8.55286 8.99991 8.00059 8.99991C7.44833 8.99991 7.00057 9.44765 7.00057 9.99989ZM11.5007 12.9999C11.5007 13.5521 11.9484 13.9998 12.5007 13.9998C13.053 13.9998 13.5007 13.5521 13.5007 12.9999C13.5007 12.4476 13.053 11.9999 12.5007 11.9999C11.9484 11.9999 11.5007 12.4476 11.5007 12.9999Z" fill="currentColor" fillRule="evenodd" clipRule="evenodd" />
</svg>
