<svg width="24" height="24" viewBox="0 0 24 24" fill="none" xmlns="http://www.w3.org/2000/svg">
<path fill-rule="evenodd" clip-rule="evenodd" d="M7.2626 2.01697C5.56309 1.83726 4 3.10575 4 4.83442V19.1664C4 21.4888 6.66022 22.7378 8.55876 21.5342C8.57826 21.5218 8.59719 21.5086 8.61548 21.4944L10.3596 20.1481C10.7212 20.6654 11.3211 21.0038 12 21.0038C12.7911 21.0038 13.4751 20.5442 13.7995 19.8775C14.0175 19.959 14.2535 20.0036 14.5 20.0036C15.6045 20.0036 16.5 19.1079 16.5 18.0032V15.4082L19.8977 12.7853C21.19 11.7877 21.3779 9.94982 20.2924 8.7294C20.2881 8.72445 20.2838 8.71955 20.2795 8.71469L20.0338 8.44222L20.0337 8.44213C16.7803 4.83277 12.2144 2.54016 7.2626 2.01697ZM14.5 18.5033C14.224 18.5033 14 18.2793 14 18.0032V17C14 16.5858 13.6642 16.25 13.25 16.25C12.8358 16.25 12.5 16.5858 12.5 17V18.0032V19V19.0034C12.5 19.2795 12.276 19.5035 12 19.5035C11.724 19.5035 11.5 19.2795 11.5 19.0034V18.8991C11.5 18.6131 11.3374 18.352 11.0808 18.2259C10.8242 18.0997 10.5181 18.1305 10.2918 18.3053L7.729 20.2836C6.72008 20.8968 5.5 20.1645 5.5 19.1664V6.6533C10.0755 7.4297 14.2714 9.56907 17.4792 12.7571L15.2918 14.4457C15.1078 14.5877 15 14.8071 15 15.0396V18.0032C15 18.2793 14.776 18.5033 14.5 18.5033ZM18.6762 11.8331L18.9813 11.5976C19.5988 11.1209 19.6706 10.28 19.1653 9.71946C19.1641 9.71817 19.163 9.71689 19.1618 9.7156L19.1598 9.71332C19.1589 9.71232 19.158 9.71133 19.1572 9.71033C19.1562 9.7092 19.1552 9.70808 19.1542 9.70695L18.9198 9.44694L18.9197 9.44685C15.9217 6.12079 11.7002 3.99451 7.10496 3.50899L7.1049 3.50898C6.20791 3.41414 5.5 4.07855 5.5 4.83442V5.13321C10.5364 5.9341 15.1673 8.28468 18.6762 11.8331ZM8 11C8.55229 11 9 10.5523 9 10C9 9.44771 8.55229 9 8 9C7.44772 9 7 9.44771 7 10C7 10.5523 7.44772 11 8 11ZM13.5 13C13.5 13.5523 13.0523 14 12.5 14C11.9477 14 11.5 13.5523 11.5 13C11.5 12.4477 11.9477 12 12.5 12C13.0523 12 13.5 12.4477 13.5 13ZM8 17C8.55229 17 9 16.5523 9 16C9 15.4477 8.55229 15 8 15C7.44772 15 7 15.4477 7 16C7 16.5523 7.44772 17 8 17Z" fill="black"/>
</svg>
