<svg width="24" height="24" viewBox="0 0 24 24" fill="none" xmlns="http://www.w3.org/2000/svg">
<path d="M18 2H6C3.79075 2 2 3.79075 2 6V18C2 20.2093 3.79075 22 6 22H18C20.2093 22 22 20.2093 22 18V6C22 3.79075 20.2093 2 18 2ZM3.5 10.5C3.5 10.0858 3.83575 9.75 4.25 9.75C4.66425 9.75 5 10.0858 5 10.5V13.5C5 13.9143 4.66425 14.25 4.25 14.25C3.83575 14.25 3.5 13.9143 3.5 13.5V10.5ZM7.5 20.5H6C4.61925 20.5 3.5 19.3808 3.5 18V16.5C3.5 16.0858 3.83575 15.75 4.25 15.75C4.66425 15.75 5 16.0858 5 16.5V18C5 18.5523 5.44775 19 6 19H7.5C7.91425 19 8.25 19.3358 8.25 19.75C8.25 20.1643 7.91425 20.5 7.5 20.5ZM7.5 5H6C5.44775 5 5 5.44775 5 6V7.5C5 7.91425 4.66425 8.25 4.25 8.25C3.83575 8.25 3.5 7.91425 3.5 7.5V6C3.5 4.61925 4.61925 3.5 6 3.5H7.5C7.91425 3.5 8.25 3.83575 8.25 4.25C8.25 4.66425 7.91425 5 7.5 5ZM13.5 20.5H10.5C10.0858 20.5 9.75 20.1643 9.75 19.75C9.75 19.3358 10.0858 19 10.5 19H13.5C13.9143 19 14.25 19.3358 14.25 19.75C14.25 20.1643 13.9143 20.5 13.5 20.5ZM13.5 5H10.5C10.0858 5 9.75 4.66425 9.75 4.25C9.75 3.83575 10.0858 3.5 10.5 3.5H13.5C13.9143 3.5 14.25 3.83575 14.25 4.25C14.25 4.66425 13.9143 5 13.5 5ZM20.5 18C20.5 19.3808 19.3808 20.5 18 20.5H16.5C16.0858 20.5 15.75 20.1643 15.75 19.75C15.75 19.3358 16.0858 19 16.5 19H18C18.5523 19 19 18.5523 19 18V16.5C19 16.0858 19.3358 15.75 19.75 15.75C20.1643 15.75 20.5 16.0858 20.5 16.5V18ZM20.5 13.5C20.5 13.9143 20.1643 14.25 19.75 14.25C19.3358 14.25 19 13.9143 19 13.5V10.5C19 10.0858 19.3358 9.75 19.75 9.75C20.1643 9.75 20.5 10.0858 20.5 10.5V13.5ZM20.5 7.5C20.5 7.91425 20.1643 8.25 19.75 8.25C19.3358 8.25 19 7.91425 19 7.5V6C19 5.44775 18.5523 5 18 5H16.5C16.0858 5 15.75 4.66425 15.75 4.25C15.75 3.83575 16.0858 3.5 16.5 3.5H18C19.3808 3.5 20.5 4.61925 20.5 6V7.5Z" fill="black"/>
</svg>
