<?xml version="1.0" encoding="UTF-8"?>
<svg xmlns:svg="http://www.w3.org/2000/svg" viewBox="0 0 24 24" fill="none">
<svg:path d="M18 3.5H17C16.5858 3.5 16.25 3.16425 16.25 2.75C16.25 2.33575 16.5858 2 17 2H18C20.2093 2 22 3.79075 22 6V7C22 7.41425 21.6643 7.75 21.25 7.75C20.8358 7.75 20.5 7.41425 20.5 7V6C20.5 4.61925 19.3807 3.5 18 3.5ZM21.25 9.25C21.6642 9.25 22 9.58579 22 10V14C22 14.4142 21.6642 14.75 21.25 14.75C20.8358 14.75 20.5 14.4142 20.5 14V10C20.5 9.58579 20.8358 9.25 21.25 9.25ZM14 20.5H10C9.58579 20.5 9.25 20.8358 9.25 21.25C9.25 21.6642 9.58579 22 10 22H14C14.4142 22 14.75 21.6642 14.75 21.25C14.75 20.8358 14.4142 20.5 14 20.5ZM10 2H14C14.4142 2 14.75 2.33579 14.75 2.75C14.75 3.16421 14.4142 3.5 14 3.5H10C9.58579 3.5 9.25 3.16421 9.25 2.75C9.25 2.33579 9.58579 2 10 2ZM7 20.5H6C4.61925 20.5 3.5 19.3807 3.5 18V17C3.5 16.5858 3.16425 16.25 2.75 16.25C2.33575 16.25 2 16.5858 2 17V18C2 20.2093 3.79075 22 6 22H7C7.41425 22 7.75 21.6643 7.75 21.25C7.75 20.8358 7.41425 20.5 7 20.5ZM3.5 6V7C3.5 7.41425 3.16425 7.75 2.75 7.75C2.33575 7.75 2 7.41425 2 7V6C2 3.79075 3.79075 2 6 2H7C7.41425 2 7.75 2.33575 7.75 2.75C7.75 3.16425 7.41425 3.5 7 3.5H6C4.61925 3.5 3.5 4.61925 3.5 6ZM20.5 17V18C20.5 19.3807 19.3807 20.5 18 20.5H17C16.5858 20.5 16.25 20.8358 16.25 21.25C16.25 21.6643 16.5858 22 17 22H18C20.2093 22 22 20.2093 22 18V17C22 16.5858 21.6643 16.25 21.25 16.25C20.8358 16.25 20.5 16.5858 20.5 17ZM2.75 9.25C3.16421 9.25 3.5 9.58579 3.5 10V14C3.5 14.4142 3.16421 14.75 2.75 14.75C2.33579 14.75 2 14.4142 2 14V10C2 9.58579 2.33579 9.25 2.75 9.25Z" fill="currentColor" fillRule="evenodd" clipRule="evenodd" />
</svg>
