<?xml version="1.0" encoding="UTF-8"?>
<svg xmlns:svg="http://www.w3.org/2000/svg" viewBox="0 0 24 24" fill="none">
<svg:path d="M9.75 5C9.75 4.173 9.077 3.5 8.25 3.5H5C4.173 3.5 3.5 4.173 3.5 5V8.25C3.5 9.077 4.173 9.75 5 9.75H8.25C9.077 9.75 9.75 9.077 9.75 8.25V5ZM5 2H8.25C9.90675 2 11.25 3.34325 11.25 5V8.25C11.25 9.90675 9.90675 11.25 8.25 11.25H5C3.34325 11.25 2 9.90675 2 8.25V5C2 3.34325 3.34325 2 5 2ZM6.125 5.125H7.125C7.67729 5.125 8.125 5.57272 8.125 6.125V7.125C8.125 7.67729 7.67729 8.125 7.125 8.125H6.125C5.57272 8.125 5.125 7.67729 5.125 7.125V6.125C5.125 5.57272 5.57272 5.125 6.125 5.125ZM8.25 14.25C9.077 14.25 9.75 14.923 9.75 15.75V19C9.75 19.827 9.077 20.5 8.25 20.5H5C4.173 20.5 3.5 19.827 3.5 19V15.75C3.5 14.923 4.173 14.25 5 14.25H8.25ZM8.25 12.75H5C3.34325 12.75 2 14.0932 2 15.75V19C2 20.6568 3.34325 22 5 22H8.25C9.90675 22 11.25 20.6568 11.25 19V15.75C11.25 14.0932 9.90675 12.75 8.25 12.75ZM6.125 15.875H7.125C7.67729 15.875 8.125 16.3227 8.125 16.875V17.875C8.125 18.4273 7.67729 18.875 7.125 18.875H6.125C5.57272 18.875 5.125 18.4273 5.125 17.875V16.875C5.125 16.3227 5.57272 15.875 6.125 15.875ZM19 3.5C19.827 3.5 20.5 4.173 20.5 5V8.25C20.5 9.077 19.827 9.75 19 9.75H15.75C14.923 9.75 14.25 9.077 14.25 8.25V5C14.25 4.173 14.923 3.5 15.75 3.5H19ZM19 2H15.75C14.0932 2 12.75 3.34325 12.75 5V8.25C12.75 9.90675 14.0932 11.25 15.75 11.25H19C20.6568 11.25 22 9.90675 22 8.25V5C22 3.34325 20.6568 2 19 2ZM16.875 5.125H17.875C18.4273 5.125 18.875 5.57272 18.875 6.125V7.125C18.875 7.67729 18.4273 8.125 17.875 8.125H16.875C16.3227 8.125 15.875 7.67729 15.875 7.125V6.125C15.875 5.57272 16.3227 5.125 16.875 5.125ZM15.5 13.5H14.5C13.9477 13.5 13.5 13.9477 13.5 14.5V15.5C13.5 16.0523 13.9477 16.5 14.5 16.5H15.5C16.0523 16.5 16.5 16.0523 16.5 15.5V14.5C16.5 13.9477 16.0523 13.5 15.5 13.5ZM19.5 13.5H20.5C21.0523 13.5 21.5 13.9477 21.5 14.5V15.5C21.5 16.0523 21.0523 16.5 20.5 16.5H19.5C18.9477 16.5 18.5 16.0523 18.5 15.5V14.5C18.5 13.9477 18.9477 13.5 19.5 13.5ZM15.5 18.5H14.5C13.9477 18.5 13.5 18.9477 13.5 19.5V20.5C13.5 21.0523 13.9477 21.5 14.5 21.5H15.5C16.0523 21.5 16.5 21.0523 16.5 20.5V19.5C16.5 18.9477 16.0523 18.5 15.5 18.5ZM19.5 18.5H20.5C21.0523 18.5 21.5 18.9477 21.5 19.5V20.5C21.5 21.0523 21.0523 21.5 20.5 21.5H19.5C18.9477 21.5 18.5 21.0523 18.5 20.5V19.5C18.5 18.9477 18.9477 18.5 19.5 18.5Z" fill="currentColor" fillRule="evenodd" clipRule="evenodd" />
</svg>
