<?xml version="1.0" encoding="UTF-8"?>
<svg xmlns:svg="http://www.w3.org/2000/svg" viewBox="0 0 24 24" fill="none">
<svg:path d="M8.25 2H5C3.34325 2 2 3.34325 2 5V8.25C2 9.90675 3.34325 11.25 5 11.25H8.25C9.90675 11.25 11.25 9.90675 11.25 8.25V5C11.25 3.34325 9.90675 2 8.25 2ZM8.125 7.125C8.125 7.67725 7.67725 8.125 7.125 8.125H6.125C5.57275 8.125 5.125 7.67725 5.125 7.125V6.125C5.125 5.57275 5.57275 5.125 6.125 5.125H7.125C7.67725 5.125 8.125 5.57275 8.125 6.125V7.125ZM8.25 12.75H5C3.34325 12.75 2 14.0932 2 15.75V19C2 20.6568 3.34325 22 5 22H8.25C9.90675 22 11.25 20.6568 11.25 19V15.75C11.25 14.0932 9.90675 12.75 8.25 12.75ZM8.125 17.875C8.125 18.4273 7.67725 18.875 7.125 18.875H6.125C5.57275 18.875 5.125 18.4273 5.125 17.875V16.875C5.125 16.3227 5.57275 15.875 6.125 15.875H7.125C7.67725 15.875 8.125 16.3227 8.125 16.875V17.875ZM15.75 2H19C20.6568 2 22 3.34325 22 5V8.25C22 9.90675 20.6568 11.25 19 11.25H15.75C14.0932 11.25 12.75 9.90675 12.75 8.25V5C12.75 3.34325 14.0932 2 15.75 2ZM17.875 8.125C18.4273 8.125 18.875 7.67725 18.875 7.125V6.125C18.875 5.57275 18.4273 5.125 17.875 5.125H16.875C16.3227 5.125 15.875 5.57275 15.875 6.125V7.125C15.875 7.67725 16.3227 8.125 16.875 8.125H17.875ZM15.5 13.5H14.5C13.9477 13.5 13.5 13.9477 13.5 14.5V15.5C13.5 16.0523 13.9477 16.5 14.5 16.5H15.5C16.0523 16.5 16.5 16.0523 16.5 15.5V14.5C16.5 13.9477 16.0523 13.5 15.5 13.5ZM19.5 13.5H20.5C21.0523 13.5 21.5 13.9477 21.5 14.5V15.5C21.5 16.0523 21.0523 16.5 20.5 16.5H19.5C18.9477 16.5 18.5 16.0523 18.5 15.5V14.5C18.5 13.9477 18.9477 13.5 19.5 13.5ZM15.5 18.5H14.5C13.9477 18.5 13.5 18.9477 13.5 19.5V20.5C13.5 21.0523 13.9477 21.5 14.5 21.5H15.5C16.0523 21.5 16.5 21.0523 16.5 20.5V19.5C16.5 18.9477 16.0523 18.5 15.5 18.5ZM19.5 18.5H20.5C21.0523 18.5 21.5 18.9477 21.5 19.5V20.5C21.5 21.0523 21.0523 21.5 20.5 21.5H19.5C18.9477 21.5 18.5 21.0523 18.5 20.5V19.5C18.5 18.9477 18.9477 18.5 19.5 18.5Z" fill="currentColor" fillRule="evenodd" clipRule="evenodd" />
</svg>
