<svg width="24" height="24" viewBox="0 0 24 24" fill="none" xmlns="http://www.w3.org/2000/svg">
<path fill-rule="evenodd" clip-rule="evenodd" d="M15.3082 4.16725C14.2612 3.7245 13.1482 3.5 12 3.5C10.8518 3.5 9.73875 3.7245 8.69175 4.16725C7.67975 4.59525 6.7705 5.2085 5.9895 5.9895C5.20825 6.7705 4.59525 7.67975 4.16725 8.69175C3.7245 9.7385 3.5 10.8518 3.5 11.9997C3.5 13.1477 3.7245 14.2607 4.16725 15.3078C4.59525 16.3197 5.2085 17.229 5.9895 18.01C6.7705 18.791 7.67975 19.4042 8.69175 19.8322C9.73875 20.275 10.8518 20.4995 12 20.4995C13.1482 20.4995 14.2612 20.275 15.3082 19.8322C16.3202 19.4042 17.2295 18.791 18.0105 18.01C18.7915 17.229 19.4048 16.3197 19.8328 15.3078C20.2755 14.261 20.5 13.1477 20.5 11.9997C20.5 10.8518 20.2755 9.73875 19.8328 8.69175C19.4048 7.67975 18.7915 6.7705 18.0105 5.9895C17.2295 5.2085 16.3202 4.59525 15.3082 4.16725ZM2 12C2 6.47725 6.47725 2 12 2C17.5228 2 22 6.47725 22 12C22 17.5228 17.5228 22 12 22C6.47725 22 2 17.5228 2 12ZM17 12C17 14.7614 14.7614 17 12 17C9.23858 17 7 14.7614 7 12C7 9.23858 9.23858 7 12 7C14.7614 7 17 9.23858 17 12Z" fill="black"/>
</svg>
