<?xml version="1.0" encoding="UTF-8"?>
<svg xmlns:svg="http://www.w3.org/2000/svg" viewBox="0 0 24 24" fill="none">
<svg:path d="M15.3083 4.16725C14.2613 3.7245 13.1482 3.5 12 3.5C10.8518 3.5 9.73875 3.7245 8.69175 4.16725C7.67975 4.59525 6.7705 5.2085 5.9895 5.9895C5.2085 6.7705 4.59525 7.67975 4.16725 8.69175C3.7245 9.7385 3.5 10.8518 3.5 11.9997C3.5 13.1477 3.7245 14.2607 4.16725 15.3078C4.59525 16.3197 5.2085 17.229 5.9895 18.01C6.7705 18.791 7.67975 19.4042 8.69175 19.8322C9.73875 20.275 10.8518 20.4995 12 20.4995C13.1482 20.4995 14.2613 20.275 15.3083 19.8322C16.3203 19.4042 17.2295 18.791 18.0105 18.01C18.7915 17.229 19.4048 16.3197 19.8328 15.3078C20.2755 14.261 20.5 13.1477 20.5 11.9997C20.5 10.8518 20.2755 9.73875 19.8328 8.69175C19.4048 7.67975 18.7915 6.7705 18.0105 5.9895C17.2295 5.2085 16.3203 4.59525 15.3083 4.16725ZM2 12C2 6.47725 6.47725 2 12 2C17.5228 2 22 6.47725 22 12C22 17.5228 17.5228 22 12 22C6.47725 22 2 17.5228 2 12ZM13.6307 7.00025H10.0557V7C9.688 7 9.36325 7.24 9.25525 7.592L7.5375 13.1833C7.372 13.7225 7.7745 14.2685 8.338 14.2685H11.112V17.1595C11.112 17.9833 12.1735 18.3135 12.6395 17.6348L16.3512 12.2278C16.7332 11.6713 16.3355 10.914 15.6612 10.914H13.6245L14.436 8.06925C14.5887 7.5335 14.187 7.00025 13.6307 7.00025Z" fill="currentColor" fillRule="evenodd" clipRule="evenodd" />
</svg>
