<?xml version="1.0" encoding="UTF-8"?>
<svg xmlns:svg="http://www.w3.org/2000/svg" viewBox="0 0 24 24" fill="none">
<svg:path d="M12 2C6.47725 2 2 6.47725 2 12C2 17.5228 6.47725 22 12 22C17.5228 22 22 17.5228 22 12C22 6.47725 17.5228 2 12 2ZM16.3512 12.2277L12.6395 17.6348C12.1735 18.3135 11.112 17.9833 11.112 17.1595V14.2685H8.338C7.7745 14.2685 7.372 13.7225 7.5375 13.1833L9.25525 7.592C9.36325 7.24 9.688 7 10.0558 7H13.6307C14.187 7 14.5888 7.53325 14.436 8.069L13.6245 10.9137H15.6613C16.3355 10.9137 16.7332 11.671 16.3512 12.2275V12.2277Z" fill="currentColor" />
</svg>
