<?xml version="1.0" encoding="UTF-8"?>
<svg xmlns:svg="http://www.w3.org/2000/svg" viewBox="0 0 24 24" fill="none">
<svg:path d="M8.83435 2.00077C8.84565 2.00026 8.85698 2 8.86834 2H14.6295C16.0648 2 17.0157 3.41089 16.6508 4.74577L15.6019 8.58264H17.9016C19.6446 8.58264 20.5511 10.5702 19.6405 11.9545L13.6589 21.0484C13.0829 21.9243 12.1042 22.1627 11.2879 21.8977C10.4762 21.6342 9.82009 20.8744 9.82009 19.8374V15.7253H6.09957C4.6457 15.7253 3.69446 14.2817 4.09 12.9382L4.09002 12.9382L6.85831 3.53443C7.11799 2.6528 7.90473 2.01574 8.83435 2.00077ZM8.89524 3.50003C8.88613 3.50037 8.87699 3.50053 8.86784 3.50053C8.62722 3.50053 8.38352 3.66678 8.29769 3.95804L8.29766 3.95814L5.5294 13.3618C5.39083 13.8324 5.73745 14.2253 6.09957 14.2253H10.5703C10.9847 14.2253 11.3205 14.5611 11.3205 14.9753V19.8374C11.3205 20.1854 11.5199 20.3959 11.7513 20.471C11.9783 20.5447 12.2304 20.49 12.4051 20.2244L12.4052 20.2243L18.3868 11.1304C18.7076 10.6427 18.3317 10.0827 17.9016 10.0827H14.6192C14.3853 10.0827 14.1648 9.97362 14.0229 9.78777C13.8809 9.60191 13.8339 9.36051 13.8955 9.13495L15.2034 4.35035C15.3311 3.88318 14.9871 3.50003 14.6295 3.50003H8.89524Z" fill="currentColor" fillRule="evenodd" clipRule="evenodd" />
</svg>
