<svg width="24" height="24" viewBox="0 0 24 24" fill="none" xmlns="http://www.w3.org/2000/svg">
<path fill-rule="evenodd" clip-rule="evenodd" d="M21.2498 22C21.0578 22 20.8658 21.9268 20.7195 21.7803L16.1678 17.2286L13.6568 21.0465C13.2543 21.6585 12.6173 22 11.9372 22C11.738 22 11.535 21.9708 11.333 21.9103C10.9113 21.784 10.5313 21.5232 10.2637 21.176C9.97275 20.7982 9.81875 20.3347 9.81875 19.8352V15.7234H6.099C5.44225 15.7234 4.836 15.4167 4.43575 14.8817C4.023 14.3302 3.89375 13.6029 4.08975 12.9366L5.86053 6.92126L2.21975 3.28048C1.92675 2.98749 1.92675 2.51274 2.21975 2.21975C2.51249 1.92675 2.98749 1.92675 3.28048 2.21975L6.343 5.28229L21.7803 20.7195C22.0733 21.0125 22.0733 21.4873 21.7803 21.7803C21.6338 21.9268 21.4418 22 21.25 22H21.2498ZM17.8512 14.6694L19.6375 11.9534C20.0835 11.2754 20.1205 10.4091 19.734 9.69285C19.3587 8.99734 18.6728 8.58208 17.8988 8.58208H15.5992L16.648 4.74553C16.8315 4.07378 16.6965 3.37377 16.2775 2.82501C15.877 2.30075 15.2755 2 14.627 2H8.86675C8.40875 2 7.973 2.1495 7.60675 2.43226C7.247 2.71001 6.988 3.09101 6.8575 3.53377L6.82525 3.64327L17.8512 14.6694Z" fill="black"/>
</svg>
