<?xml version="1.0" encoding="UTF-8"?>
<svg xmlns:svg="http://www.w3.org/2000/svg" viewBox="0 0 24 24" fill="none">
<svg:path d="M2.21967 2.21967C2.51256 1.92678 2.98744 1.92678 3.28033 2.21967L6.34288 5.28222L6.34304 5.28167L7.55132 6.48998L7.55116 6.4905L15.9267 14.8661V14.8656L17.0097 15.9487L17.0096 15.9489L21.7803 20.7197C22.0732 21.0126 22.0732 21.4874 21.7803 21.7803C21.4874 22.0732 21.0126 22.0732 20.7197 21.7803L16.1679 17.2286L13.6569 21.0465C13.2544 21.6585 12.6174 22 11.9374 22C11.7381 22 11.5351 21.9708 11.3331 21.9102C10.9114 21.784 10.5314 21.5232 10.2639 21.176C9.97286 20.7982 9.81886 20.3347 9.81886 19.8351V15.7232H6.09904C5.44228 15.7232 4.83602 15.4164 4.43576 14.8814C4.023 14.3299 3.89375 13.6026 4.08975 12.9363L5.86044 6.9211L2.21967 3.28033C1.92678 2.98744 1.92678 2.51256 2.21967 2.21967ZM5.52903 13.3601L7.06873 8.12939L15.0851 16.1458L12.4037 20.2229C12.1842 20.5567 11.8829 20.5097 11.7636 20.4739C11.5489 20.4097 11.3194 20.2082 11.3194 19.8359V14.9739C11.3194 14.5596 10.9836 14.2239 10.5694 14.2239H6.09929C5.85378 14.2239 5.70453 14.0734 5.63728 13.9834C5.50428 13.8056 5.46478 13.5786 5.52903 13.3601ZM8.43858 3.78059C8.21308 4.27061 7.56657 4.38412 7.18506 4.0026L7.18456 4.00285C6.95505 3.77334 6.8923 3.42507 7.02781 3.13006C7.05156 3.07855 7.07456 3.03305 7.09481 3.00005C7.22931 2.78229 7.40156 2.59053 7.60657 2.43227C7.97282 2.14951 8.40858 2 8.86659 2H14.6269C15.2755 2 15.877 2.30077 16.2775 2.82504C16.6965 3.37382 16.8315 4.07385 16.648 4.74564L15.5992 8.58233H17.8988C18.6728 8.58233 19.3588 8.9976 19.734 9.69314C20.1205 10.4094 20.0835 11.2757 19.6375 11.9537L18.3573 13.9003C18.0963 14.2974 17.5363 14.3546 17.2002 14.0186C16.9487 13.7671 16.9085 13.3733 17.104 13.0761L18.3843 11.1295C18.5288 10.9097 18.5398 10.6387 18.4138 10.4049C18.3613 10.3077 18.2065 10.0819 17.899 10.0819H14.6312C14.4474 10.0819 14.2667 10.0207 14.1277 9.9004C13.9047 9.70764 13.8182 9.40912 13.8934 9.13411L15.2012 4.34987C15.2605 4.13286 15.2182 3.90885 15.0855 3.73484C15.0185 3.64708 14.8697 3.49958 14.6274 3.49958H8.86709C8.74859 3.49958 8.63634 3.53758 8.54183 3.60508C8.51783 3.62208 8.48133 3.68783 8.43858 3.78059Z" fill="currentColor" fillRule="evenodd" clipRule="evenodd" />
</svg>
