<?xml version="1.0" encoding="UTF-8"?>
<svg xmlns:svg="http://www.w3.org/2000/svg" viewBox="0 0 24 24" fill="none">
<svg:path d="M13.9852 3H8.01475C5.7975 3 4 4.7975 4 7.01475V16.9852C4 19.2025 5.7975 21 8.01475 21H14.5H16H19C20.3807 21 21.5 19.8807 21.5 18.5V16V15C21.5 13.3432 20.1568 12 18.5 12H18V7.01475C18 4.7975 16.2025 3 13.9852 3ZM18 13.5V16V17V18.5C18 19.0515 18.4485 19.5 19 19.5C19.5515 19.5 20 19.0515 20 18.5V16V15C20 14.173 19.327 13.5 18.5 13.5H18ZM16.5 12V7.01475C16.5 5.628 15.372 4.5 13.9852 4.5H8.01475C6.628 4.5 5.5 5.628 5.5 7.01475V16.9852C5.5 18.372 6.628 19.5 8.01475 19.5H14.5H16H16.708C16.5742 19.1938 16.5 18.8556 16.5 18.5V17V16V12ZM7.25 8C7.25 7.58579 7.58579 7.25 8 7.25H14C14.4142 7.25 14.75 7.58579 14.75 8C14.75 8.41421 14.4142 8.75 14 8.75H8C7.58579 8.75 7.25 8.41421 7.25 8ZM7.25 12C7.25 11.5858 7.58579 11.25 8 11.25H14C14.4142 11.25 14.75 11.5858 14.75 12C14.75 12.4142 14.4142 12.75 14 12.75H8C7.58579 12.75 7.25 12.4142 7.25 12ZM8 15.25C7.58579 15.25 7.25 15.5858 7.25 16C7.25 16.4142 7.58579 16.75 8 16.75H11C11.4142 16.75 11.75 16.4142 11.75 16C11.75 15.5858 11.4142 15.25 11 15.25H8Z" fill="currentColor" fillRule="evenodd" clipRule="evenodd" />
</svg>
