<svg width="24" height="24" viewBox="0 0 24 24" fill="none" xmlns="http://www.w3.org/2000/svg">
<path fill-rule="evenodd" clip-rule="evenodd" d="M8.01475 3H13.9852C16.2025 3 18 4.7975 18 7.01475V12H18.5C20.1568 12 21.5 13.3432 21.5 15V16V18.5C21.5 19.8807 20.3807 21 19 21H16.9H14.5H8.01475C5.7975 21 4 19.2025 4 16.9852V7.01475C4 4.7975 5.7975 3 8.01475 3ZM18 13.5V16V18.5C18 19.0515 18.4485 19.5 19 19.5C19.5515 19.5 20 19.0515 20 18.5V16V15C20 14.173 19.327 13.5 18.5 13.5H18ZM7.25 8C7.25 7.58579 7.58579 7.25 8 7.25H14C14.4142 7.25 14.75 7.58579 14.75 8C14.75 8.41421 14.4142 8.75 14 8.75H8C7.58579 8.75 7.25 8.41421 7.25 8ZM8 11.25C7.58579 11.25 7.25 11.5858 7.25 12C7.25 12.4142 7.58579 12.75 8 12.75H14C14.4142 12.75 14.75 12.4142 14.75 12C14.75 11.5858 14.4142 11.25 14 11.25H8ZM7.25 16C7.25 15.5858 7.58579 15.25 8 15.25H11C11.4142 15.25 11.75 15.5858 11.75 16C11.75 16.4142 11.4142 16.75 11 16.75H8C7.58579 16.75 7.25 16.4142 7.25 16Z" fill="black"/>
</svg>
