<?xml version="1.0" encoding="UTF-8"?>
<svg xmlns:svg="http://www.w3.org/2000/svg" viewBox="0 0 24 24" fill="none">
<svg:path d="M8.5 4C7.67157 4 7 4.67157 7 5.5V6.5C7 7.32843 7.67157 8 8.5 8H9.5C10.3284 8 11 7.32843 11 6.5V5.5C11 4.67157 10.3284 4 9.5 4H8.5ZM14.5 4C13.6716 4 13 4.67157 13 5.5V6.5C13 7.32843 13.6716 8 14.5 8H15.5C16.3284 8 17 7.32843 17 6.5V5.5C17 4.67157 16.3284 4 15.5 4H14.5ZM8.5 10C7.67157 10 7 10.6716 7 11.5V12.5C7 13.3284 7.67157 14 8.5 14H9.5C10.3284 14 11 13.3284 11 12.5V11.5C11 10.6716 10.3284 10 9.5 10H8.5ZM14.5 10C13.6716 10 13 10.6716 13 11.5V12.5C13 13.3284 13.6716 14 14.5 14H15.5C16.3284 14 17 13.3284 17 12.5V11.5C17 10.6716 16.3284 10 15.5 10H14.5ZM8.5 16C7.67157 16 7 16.6716 7 17.5V18.5C7 19.3284 7.67157 20 8.5 20H9.5C10.3284 20 11 19.3284 11 18.5V17.5C11 16.6716 10.3284 16 9.5 16H8.5ZM14.5 16C13.6716 16 13 16.6716 13 17.5V18.5C13 19.3284 13.6716 20 14.5 20H15.5C16.3284 20 17 19.3284 17 18.5V17.5C17 16.6716 16.3284 16 15.5 16H14.5Z" fill="currentColor" fillRule="evenodd" clipRule="evenodd" />
</svg>
