<?xml version="1.0" encoding="UTF-8"?>
<svg xmlns:svg="http://www.w3.org/2000/svg" viewBox="0 0 24 24" fill="none">
<svg:path d="M8.5 4.5H9.5C10.0522 4.5 10.5 4.94775 10.5 5.5V6.5C10.5 7.05225 10.0522 7.5 9.5 7.5H8.5C7.94775 7.5 7.5 7.05225 7.5 6.5V5.5C7.5 4.94775 7.94775 4.5 8.5 4.5ZM8.5 10.5H9.5C10.0522 10.5 10.5 10.9478 10.5 11.5V12.5C10.5 13.0523 10.0522 13.5 9.5 13.5H8.5C7.94775 13.5 7.5 13.0523 7.5 12.5V11.5C7.5 10.9478 7.94775 10.5 8.5 10.5ZM9.5 16.5H8.5C7.94775 16.5 7.5 16.9477 7.5 17.5V18.5C7.5 19.0523 7.94775 19.5 8.5 19.5H9.5C10.0522 19.5 10.5 19.0523 10.5 18.5V17.5C10.5 16.9477 10.0522 16.5 9.5 16.5ZM14.5 4.5H15.5C16.0523 4.5 16.5 4.94775 16.5 5.5V6.5C16.5 7.05225 16.0523 7.5 15.5 7.5H14.5C13.9477 7.5 13.5 7.05225 13.5 6.5V5.5C13.5 4.94775 13.9477 4.5 14.5 4.5ZM15.5 10.5H14.5C13.9477 10.5 13.5 10.9478 13.5 11.5V12.5C13.5 13.0523 13.9477 13.5 14.5 13.5H15.5C16.0523 13.5 16.5 13.0523 16.5 12.5V11.5C16.5 10.9478 16.0523 10.5 15.5 10.5ZM14.5 16.5H15.5C16.0523 16.5 16.5 16.9477 16.5 17.5V18.5C16.5 19.0523 16.0523 19.5 15.5 19.5H14.5C13.9477 19.5 13.5 19.0523 13.5 18.5V17.5C13.5 16.9477 13.9477 16.5 14.5 16.5Z" fill="currentColor" fillRule="evenodd" clipRule="evenodd" />
</svg>
