<?xml version="1.0" encoding="UTF-8"?>
<svg xmlns:svg="http://www.w3.org/2000/svg" viewBox="0 0 24 24" fill="none">
<svg:path d="M19.5 9.5V8.5C19.5 7.94775 19.0522 7.5 18.5 7.5H17.5C16.9478 7.5 16.5 7.94775 16.5 8.5V9.5C16.5 10.0523 16.9478 10.5 17.5 10.5H18.5C19.0522 10.5 19.5 10.0523 19.5 9.5ZM13.5 9.5V8.5C13.5 7.94775 13.0522 7.5 12.5 7.5H11.5C10.9477 7.5 10.5 7.94775 10.5 8.5V9.5C10.5 10.0523 10.9477 10.5 11.5 10.5H12.5C13.0522 10.5 13.5 10.0523 13.5 9.5ZM7.5 8.5L7.5 9.5C7.5 10.0522 7.05225 10.5 6.5 10.5H5.5C4.94775 10.5 4.5 10.0522 4.5 9.5V8.5C4.5 7.94775 4.94775 7.5 5.5 7.5H6.5C7.05225 7.5 7.5 7.94775 7.5 8.5ZM18.5 16.5C19.0522 16.5 19.5 16.0522 19.5 15.5V14.5C19.5 13.9477 19.0522 13.5 18.5 13.5H17.5C16.9478 13.5 16.5 13.9477 16.5 14.5V15.5C16.5 16.0522 16.9478 16.5 17.5 16.5H18.5ZM13.5 14.5V15.5C13.5 16.0522 13.0522 16.5 12.5 16.5H11.5C10.9477 16.5 10.5 16.0522 10.5 15.5L10.5 14.5C10.5 13.9477 10.9477 13.5 11.5 13.5H12.5C13.0522 13.5 13.5 13.9477 13.5 14.5ZM7.5 15.5V14.5C7.5 13.9477 7.05225 13.5 6.5 13.5H5.5C4.94775 13.5 4.5 13.9477 4.5 14.5V15.5C4.5 16.0523 4.94775 16.5 5.5 16.5H6.5C7.05225 16.5 7.5 16.0522 7.5 15.5Z" fill="currentColor" fillRule="evenodd" clipRule="evenodd" />
</svg>
