<?xml version="1.0" encoding="UTF-8"?>
<svg xmlns:svg="http://www.w3.org/2000/svg" viewBox="0 0 24 24" fill="none">
<svg:path d="M17.7803 7.28033C18.0732 6.98744 18.0732 6.51256 17.7803 6.21967C17.4874 5.92678 17.0126 5.92678 16.7197 6.21967L6.21967 16.7197C5.92678 17.0126 5.92678 17.4874 6.21967 17.7803C6.51256 18.0732 6.98744 18.0732 7.28033 17.7803L17.7803 7.28033ZM17.7803 12.2803C18.0732 11.9874 18.0732 11.5126 17.7803 11.2197C17.4874 10.9268 17.0126 10.9268 16.7197 11.2197L11.2197 16.7197C10.9268 17.0126 10.9268 17.4874 11.2197 17.7803C11.5126 18.0732 11.9874 18.0732 12.2803 17.7803L17.7803 12.2803Z" fill="currentColor" fillRule="evenodd" clipRule="evenodd" />
</svg>
