<?xml version="1.0" encoding="UTF-8"?>
<svg xmlns:svg="http://www.w3.org/2000/svg" viewBox="0 0 24 24" fill="none">
<svg:path d="M2.50019 11.4395L1.28032 10.2197C0.987416 9.92677 0.512543 9.92678 0.219657 10.2197C-0.0732292 10.5126 -0.0732174 10.9875 0.219683 11.2803L1.659 12.7196C2.53767 13.5982 3.96233 13.5982 4.84099 12.7196L6.28032 11.2803C6.57322 10.9875 6.57323 10.5126 6.28034 10.2197C5.98746 9.92678 5.51258 9.92677 5.21968 10.2197L4.00048 11.4388C4.0083 10.3797 4.21937 9.35314 4.62825 8.3865C5.031 7.434 5.60825 6.57825 6.34325 5.84325C7.0785 5.108 7.93425 4.531 8.8865 4.12825C9.23086 3.98259 9.58283 3.86203 9.94116 3.76683L9.5708 8.76781L9.5708 8.76786C9.53722 9.22072 9.36753 9.65267 9.08388 10.0072L9.08385 10.0072L8.32204 10.9595L8.32185 10.9597C7.78958 11.6246 7.5 12.4509 7.5 13.3023V19.1164C7.08756 18.8352 6.70098 18.5147 6.34304 18.1568C5.74879 17.5625 5.25779 16.8895 4.87879 16.1503C4.83979 16.0743 4.76629 15.9113 4.69179 15.7397C4.56079 15.4387 4.24829 15.2583 3.92229 15.297L3.92129 15.2971L3.92112 15.2971C3.91501 15.2978 3.90892 15.2985 3.90304 15.2992C3.40404 15.3572 3.10579 15.8825 3.30904 16.342C3.32029 16.3678 3.33179 16.3933 3.34354 16.4188C4.83604 19.7105 8.15054 22 12 22C17.2266 22 21.4673 17.7794 21.4999 12.5606L22.7197 13.7803C23.0126 14.0732 23.4875 14.0732 23.7803 13.7803C24.0732 13.4874 24.0732 13.0125 23.7803 12.7197L22.341 11.2804C21.4623 10.4018 20.0377 10.4018 19.159 11.2804L17.7197 12.7197C17.4268 13.0125 17.4268 13.4874 17.7197 13.7803C18.0125 14.0732 18.4874 14.0732 18.7803 13.7803L19.9993 12.5614C19.9915 13.6204 19.7804 14.6469 19.3715 15.6135C18.9688 16.566 18.3915 17.4218 17.6565 18.1568C17.2987 18.5146 16.9122 18.835 16.5 19.1161V13.3023C16.5 12.4509 16.2104 11.6246 15.6782 10.9597L15.678 10.9595L14.9162 10.0072L14.9161 10.0072C14.6325 9.65267 14.4628 9.22072 14.4292 8.76786L14.4292 8.76781L14.0588 3.76683C14.4172 3.86203 14.7691 3.98259 15.1135 4.12825C16.066 4.531 16.9218 5.10825 17.6568 5.84325C18.291 6.4775 18.8078 7.2015 19.1963 8C19.2185 8.0455 19.2618 8.1435 19.3103 8.257C19.44 8.5595 19.7527 8.7415 20.0798 8.70275L20.0871 8.70191L20.0936 8.70114L20.099 8.7005C20.5968 8.64275 20.8945 8.1185 20.6917 7.66C19.2167 4.32625 15.88 2 12 2C6.77344 2 2.53275 6.22058 2.50019 11.4395ZM12.5363 3.51775C12.3585 3.50609 12.1797 3.50025 12 3.50025C11.8203 3.50025 11.6415 3.50609 11.4637 3.51775L11.0667 8.87869C11.0108 9.63331 10.728 10.3533 10.2551 10.9443L9.49296 11.897C9.17385 12.2956 9 12.7912 9 13.3023V19.9188C9.95199 20.3044 10.9605 20.4998 11.9998 20.4998C13.0392 20.4998 14.0479 20.3043 15 19.9187V13.3023C15 12.7912 14.8262 12.2956 14.507 11.897L13.7449 10.9443C13.272 10.3533 12.9892 9.63331 12.9333 8.87869L12.5363 3.51775Z" fill="currentColor" fillRule="evenodd" clipRule="evenodd" />
</svg>
