<?xml version="1.0" encoding="UTF-8"?>
<svg xmlns:svg="http://www.w3.org/2000/svg" viewBox="0 0 24 24" fill="none">
<svg:path d="M15.1715 4.5C15.305 4.5 15.4305 4.552 15.525 4.6465L19.3535 8.475C19.448 8.5695 19.5 8.695 19.5 8.8285V17C19.5 18.2073 18.6397 19.2175 17.5 19.4498V14C17.5 12.8955 16.6045 12 15.5 12H8.5C7.3955 12 6.5 12.8955 6.5 14V19.4498C5.36026 19.2175 4.5 18.2073 4.5 17V7C4.5 5.6215 5.6215 4.5 7 4.5V8C7 9.1045 7.8955 10 9 10H13C14.1045 10 15 9.1045 15 8V4.5H15.1715ZM13.5 4.5H8.5V8C8.5 8.27575 8.72425 8.5 9 8.5H13C13.2758 8.5 13.5 8.27575 13.5 8V4.5ZM13.6348 3H15.1715C15.702 3 16.2108 3.21075 16.5858 3.58575L20.4142 7.41425C20.7892 7.78925 21 8.298 21 8.8285V17C21 19.2093 19.2093 21 17 21H16.221H7.87675H7C4.79075 21 3 19.2093 3 17V7C3 4.79075 4.79075 3 7 3H13.6348ZM16 14V19.5H8V14C8 13.7242 8.22425 13.5 8.5 13.5H15.5C15.7758 13.5 16 13.7242 16 14Z" fill="currentColor" fillRule="evenodd" clipRule="evenodd" />
</svg>
