<?xml version="1.0" encoding="UTF-8"?>
<svg xmlns:svg="http://www.w3.org/2000/svg" viewBox="0 0 24 24" fill="none">
<svg:path d="M12.835 4.971C12.0963 4.6585 11.3107 4.5 10.5 4.5C9.68925 4.5 8.90375 4.6585 8.165 4.971C7.4505 5.27325 6.80875 5.70575 6.25725 6.2575C5.70575 6.80925 5.27275 7.451 4.97075 8.16525C4.65825 8.904 4.49975 9.6895 4.49975 10.5003C4.49975 11.311 4.65825 12.0965 4.97075 12.8352C5.273 13.5497 5.70575 14.1915 6.25725 14.743C6.809 15.2945 7.45075 15.7275 8.165 16.0295C8.90375 16.342 9.68925 16.5005 10.5 16.5005C11.3107 16.5005 12.0963 16.342 12.835 16.0295C13.5495 15.7273 14.1913 15.2945 14.7428 14.743C15.2943 14.1912 15.7273 13.5495 16.0292 12.8352C16.3417 12.0965 16.5003 11.311 16.5003 10.5003C16.5003 9.6895 16.3417 8.904 16.0292 8.16525C15.727 7.45075 15.2945 6.809 14.7428 6.2575C14.191 5.706 13.5493 5.273 12.835 4.971ZM3 10.5C3 6.35775 6.35775 3 10.5 3C14.6423 3 18 6.35775 18 10.5C18 12.301 17.3652 13.9537 16.3073 15.2466L20.7803 19.7197C21.0732 20.0126 21.0732 20.4874 20.7803 20.7803C20.4874 21.0732 20.0126 21.0732 19.7197 20.7803L15.2466 16.3073C13.9537 17.3652 12.301 18 10.5 18C6.35775 18 3 14.6423 3 10.5Z" fill="currentColor" fillRule="evenodd" clipRule="evenodd" />
</svg>
