<svg width="24" height="24" viewBox="0 0 24 24" fill="none" xmlns="http://www.w3.org/2000/svg">
<path d="M19.7017 9.44758L6.88561 2.77775C5.78058 2.20277 4.49238 2.39535 3.60401 3.26894C2.71538 4.14227 2.49948 5.42777 3.05424 6.54395C3.05424 6.54395 4.14078 8.7393 4.82424 10.1313C5.16034 10.8161 5.8563 11.2498 6.61847 11.2498C8.47368 11.2498 11.8555 11.2498 12.983 11.2498C13.3923 11.2498 13.7387 11.5709 13.7492 11.9803C13.7602 12.4037 13.4203 12.7504 12.9998 12.7504H6.61847C5.8563 12.7504 5.16034 13.184 4.82424 13.8688C4.14078 15.2608 3.05424 17.4562 3.05424 17.4562C2.49973 18.5724 2.71563 19.8579 3.60401 20.7312C4.15252 21.2704 4.85297 21.55 5.56892 21.55C6.01273 21.55 6.46279 21.4425 6.88561 21.2224L19.7017 14.5526C20.6568 14.0556 21.25 13.0775 21.25 12.0003C21.25 10.9231 20.6568 9.94502 19.7017 9.44808V9.44758Z" fill="black"/>
</svg>
