<?xml version="1.0" encoding="UTF-8"?>
<svg xmlns:svg="http://www.w3.org/2000/svg" viewBox="0 0 24 24" fill="none">
<svg:path d="M10.9923 2H13.0076C14.1206 2 15.0228 2.89552 15.0228 4.00005V5.07183C15.0228 5.65559 15.5056 6.07335 16.0318 6.07335C16.1996 6.07335 16.3718 6.03085 16.5341 5.93785L17.4693 5.40184C17.7868 5.22008 18.1331 5.13358 18.4751 5.13358C19.1713 5.13358 19.8488 5.49234 20.2221 6.13385L21.2296 7.8659C21.7861 8.82242 21.4558 10.0457 20.4921 10.598L19.5568 11.134C18.8851 11.5187 18.8851 12.481 19.5568 12.866L20.4921 13.402C21.4558 13.9543 21.7861 15.1776 21.2296 16.1341L20.2221 17.8661C19.8488 18.5077 19.1716 18.8664 18.4751 18.8664C18.1331 18.8664 17.7866 18.7799 17.4693 18.5982L16.5341 18.0622C16.3718 17.9692 16.1996 17.9266 16.0318 17.9266C15.5056 17.9266 15.0228 18.3444 15.0228 18.9282V19.9999C15.0228 21.1045 14.1206 22 13.0076 22H10.9923C9.87934 22 8.97709 21.1045 8.97709 19.9999V18.9282C8.97709 18.3444 8.49434 17.9266 7.96809 17.9266C7.80034 17.9266 7.62809 17.9692 7.46584 18.0622L6.53059 18.5982C6.21309 18.7799 5.86684 18.8664 5.52484 18.8664C4.82859 18.8664 4.15109 18.5077 3.77784 17.8661L2.77034 16.1341C2.21384 15.1776 2.54409 13.9543 3.50784 13.402L4.44309 12.866C5.11484 12.4813 5.11484 11.519 4.44309 11.134L3.50784 10.598C2.54409 10.0457 2.21384 8.82242 2.77034 7.8659L3.77784 6.13385C4.15109 5.49234 4.82834 5.13358 5.52484 5.13358C5.86684 5.13358 6.21334 5.22008 6.53059 5.40184L7.46584 5.93785C7.62809 6.03085 7.80034 6.07335 7.96809 6.07335C8.49434 6.07335 8.97709 5.65559 8.97709 5.07183V4.00005C8.97709 2.89552 9.87934 2 10.9923 2ZM8.50009 12C8.50009 10.067 10.0671 8.5 12.0001 8.5C13.9331 8.5 15.5001 10.067 15.5001 12C15.5001 13.933 13.9331 15.5 12.0001 15.5C10.0671 15.5 8.50009 13.933 8.50009 12Z" fill="currentColor" fillRule="evenodd" clipRule="evenodd" />
</svg>
