<?xml version="1.0" encoding="UTF-8"?>
<svg xmlns:svg="http://www.w3.org/2000/svg" viewBox="0 0 24 24" fill="none">
<svg:path d="M13.5228 4.00005C13.5228 3.72429 13.2916 3.50004 13.0076 3.50004H10.9923C10.7081 3.50004 10.4771 3.72429 10.4771 4.00005V5.07183C10.4771 5.76234 10.2026 6.40386 9.70384 6.87837C9.23259 7.32663 8.61634 7.57339 7.96809 7.57339C7.53309 7.57339 7.10134 7.45789 6.72009 7.23938L5.78484 6.70337C5.70409 6.65712 5.61659 6.63362 5.52484 6.63362C5.33534 6.63362 5.16709 6.72862 5.07434 6.88812L4.06684 8.62017C3.98209 8.76567 3.99284 8.90242 4.01684 8.99167C4.03684 9.06618 4.09409 9.20518 4.25359 9.29643L5.18884 9.83245C5.58509 10.0595 5.91059 10.3877 6.13059 10.7815C6.33734 11.152 6.44684 11.5735 6.44684 12C6.44684 12.4265 6.33759 12.848 6.13059 13.2185C5.91059 13.6123 5.58484 13.9405 5.18884 14.1676L4.25359 14.7036C4.09409 14.7948 4.03684 14.9336 4.01684 15.0083C3.99284 15.0976 3.98234 15.2343 4.06684 15.3798L5.07434 17.1119C5.18359 17.2994 5.37859 17.3664 5.52484 17.3664C5.61659 17.3664 5.70409 17.3429 5.78484 17.2966L6.72009 16.7606C7.10134 16.5421 7.53284 16.4266 7.96809 16.4266C8.61634 16.4266 9.23259 16.6734 9.70384 17.1216C10.2023 17.5961 10.4771 18.2377 10.4771 18.9282V19.9999C10.4771 20.2757 10.7083 20.5 10.9923 20.5H13.0076C13.2918 20.5 13.5228 20.2757 13.5228 19.9999V18.9282C13.5228 18.2377 13.7973 17.5961 14.2961 17.1216C14.7673 16.6734 15.3836 16.4266 16.0318 16.4266C16.4671 16.4266 16.8986 16.5421 17.2798 16.7606L18.2151 17.2966C18.2958 17.3429 18.3833 17.3664 18.4751 17.3664C18.6643 17.3664 18.8328 17.2714 18.9256 17.1119L19.9331 15.3798C20.0178 15.2343 20.0071 15.0976 19.9831 15.0083C19.9631 14.9338 19.9058 14.7948 19.7463 14.7036L18.8111 14.1676C18.4148 13.9405 18.0893 13.6123 17.8693 13.2185C17.6626 12.848 17.5531 12.4265 17.5531 12C17.5531 11.5735 17.6623 11.152 17.8693 10.7815C18.0893 10.3877 18.4151 10.0595 18.8111 9.83245L19.7463 9.29643C19.9058 9.20518 19.9631 9.06643 19.9831 8.99167C20.0071 8.90242 20.0176 8.76567 19.9331 8.62017L18.9256 6.88812C18.8163 6.70062 18.6213 6.63362 18.4751 6.63362C18.3833 6.63362 18.2958 6.65712 18.2151 6.70337L17.2798 7.23938C16.8986 7.45789 16.4671 7.57339 16.0318 7.57339C15.3836 7.57339 14.7673 7.32663 14.2961 6.87837C13.7976 6.40386 13.5228 5.76234 13.5228 5.07183V4.00005ZM10.9923 2H13.0076C14.1206 2 15.0228 2.89552 15.0228 4.00005V5.07183C15.0228 5.65559 15.5056 6.07335 16.0318 6.07335C16.1996 6.07335 16.3718 6.03085 16.5341 5.93785L17.4693 5.40184C17.7868 5.22008 18.1331 5.13358 18.4751 5.13358C19.1713 5.13358 19.8488 5.49234 20.2221 6.13385L21.2296 7.8659C21.7861 8.82242 21.4558 10.0457 20.4921 10.598L19.5568 11.134C18.8851 11.5187 18.8851 12.481 19.5568 12.866L20.4921 13.402C21.4558 13.9543 21.7861 15.1776 21.2296 16.1341L20.2221 17.8661C19.8488 18.5077 19.1716 18.8664 18.4751 18.8664C18.1331 18.8664 17.7866 18.7799 17.4693 18.5982L16.5341 18.0622C16.3718 17.9692 16.1996 17.9266 16.0318 17.9266C15.5056 17.9266 15.0228 18.3444 15.0228 18.9282V19.9999C15.0228 21.1045 14.1206 22 13.0076 22H10.9923C9.87934 22 8.97709 21.1045 8.97709 19.9999V18.9282C8.97709 18.3444 8.49434 17.9266 7.96809 17.9266C7.80034 17.9266 7.62809 17.9692 7.46584 18.0622L6.53059 18.5982C6.21309 18.7799 5.86684 18.8664 5.52484 18.8664C4.82859 18.8664 4.15109 18.5077 3.77784 17.8661L2.77034 16.1341C2.21384 15.1776 2.54409 13.9543 3.50784 13.402L4.44309 12.866C5.11484 12.4813 5.11484 11.519 4.44309 11.134L3.50784 10.598C2.54409 10.0457 2.21384 8.82242 2.77034 7.8659L3.77784 6.13385C4.15109 5.49234 4.82834 5.13358 5.52484 5.13358C5.86684 5.13358 6.21334 5.22008 6.53059 5.40184L7.46584 5.93785C7.62809 6.03085 7.80034 6.07335 7.96809 6.07335C8.49434 6.07335 8.97709 5.65559 8.97709 5.07183V4.00005C8.97709 2.89552 9.87934 2 10.9923 2ZM14.0001 12C14.0001 10.8973 13.1028 10 12.0001 10C10.8973 10 10.0001 10.8973 10.0001 12C10.0001 13.1027 10.8973 14 12.0001 14C13.1028 14 14.0001 13.1027 14.0001 12ZM8.50009 12C8.50009 10.067 10.0671 8.5 12.0001 8.5C13.9331 8.5 15.5001 10.067 15.5001 12C15.5001 13.933 13.9331 15.5 12.0001 15.5C10.0671 15.5 8.50009 13.933 8.50009 12Z" fill="currentColor" fillRule="evenodd" clipRule="evenodd" />
</svg>
