<?xml version="1.0" encoding="UTF-8"?>
<svg xmlns:svg="http://www.w3.org/2000/svg" viewBox="0 0 24 24" fill="none">
<svg:path d="M17.5 2C15.567 2 14 3.567 14 5.5C14 5.88641 14.0626 6.25819 14.1783 6.60575L8.05304 10.1058C7.4145 9.42519 6.50691 9 5.5 9C3.567 9 2 10.567 2 12.5C2 14.433 3.567 16 5.5 16C6.52637 16 7.44955 15.5582 8.08976 14.8544L14.1586 17.4553C14.0555 17.7852 14 18.1361 14 18.5C14 20.433 15.567 22 17.5 22C19.433 22 21 20.433 21 18.5C21 16.567 19.433 15 17.5 15C16.4736 15 15.5505 15.4418 14.9102 16.1456L8.84142 13.5447C8.94447 13.2148 9 12.8639 9 12.5C9 12.1135 8.93737 11.7417 8.8217 11.3941L14.9469 7.89409C15.5854 8.57477 16.493 9 17.5 9C19.433 9 21 7.433 21 5.5C21 3.567 19.433 2 17.5 2Z" fill="currentColor" fillRule="evenodd" clipRule="evenodd" />
</svg>
