<?xml version="1.0" encoding="UTF-8"?>
<svg xmlns:svg="http://www.w3.org/2000/svg" viewBox="0 0 24 24" fill="none">
<svg:path d="M10.5 18.0005C10.5 19.0123 10.6985 19.9947 11.09 20.9203H11.0898C11.2288 21.2488 11.3897 21.5648 11.572 21.8673L7.51525 19.2868C6.1355 18.409 4.99 17.1875 4.203 15.7543C3.416 14.321 3 12.6995 3 11.0645V6.00525C3 5.46175 3.44275 5.01325 3.98675 5.00575C6.77775 4.967 8.6465 4.23275 9.723 3.62375C10.8517 2.98525 11.3698 2.34675 11.4018 2.30625C11.5428 2.11375 11.7613 2 12 2C12.2387 2 12.457 2.11375 12.5982 2.30625C12.6305 2.34675 13.1485 2.98525 14.277 3.62375C15.3535 4.23275 17.2223 4.967 20.0133 5.00575C20.5573 5.0135 21 5.46175 21 6.00525V11.0645C21 11.0746 20.9999 11.0847 20.9998 11.0949C20.9996 11.105 20.9995 11.1151 20.9995 11.1252C20.9898 11.121 20.98 11.1167 20.9703 11.1124C20.9535 11.105 20.9367 11.0976 20.9198 11.0905C19.9943 10.699 19.0117 10.5005 18 10.5005C16.9883 10.5005 16.0057 10.699 15.0802 11.0905C14.187 11.4685 13.385 12.009 12.6968 12.6972C12.0085 13.3855 11.4678 14.1875 11.09 15.0808C10.6985 16.0063 10.5 16.9888 10.5 18.0005ZM12 18C12 14.6863 14.6863 12 18 12C21.3137 12 24 14.6863 24 18C24 21.3137 21.3137 24 18 24C14.6863 24 12 21.3137 12 18ZM18.5 18.5H20.75C21.0262 18.5 21.25 18.2762 21.25 18C21.25 17.7238 21.0262 17.5 20.75 17.5H18.5V15.25C18.5 14.9738 18.2762 14.75 18 14.75C17.7238 14.75 17.5 14.9738 17.5 15.25V17.5H15.25C14.9738 17.5 14.75 17.7238 14.75 18C14.75 18.2762 14.9738 18.5 15.25 18.5H17.5V20.75C17.5 21.0262 17.7238 21.25 18 21.25C18.2762 21.25 18.5 21.0262 18.5 20.75V18.5Z" fill="currentColor" fillRule="evenodd" clipRule="evenodd" />
</svg>
