<?xml version="1.0" encoding="UTF-8"?>
<svg xmlns:svg="http://www.w3.org/2000/svg" viewBox="0 0 24 24" fill="none">
<svg:path d="M11.5973 21.8825C11.7203 21.9608 11.86 21.9998 12 21.9998V22C12.14 22 12.28 21.961 12.4027 21.8828L16.4848 19.2863C17.8645 18.4086 19.01 17.1871 19.797 15.7539C20.584 14.3207 21 12.6992 21 11.0643V6.00515C21 5.46166 20.5573 5.01317 20.0133 5.00567C17.2223 4.96693 15.3535 4.23269 14.277 3.62371C13.1482 2.98523 12.6302 2.34674 12.5982 2.30624C12.4572 2.11375 12.2387 2 12 2C11.7613 2 11.543 2.11375 11.4018 2.30624C11.3695 2.34674 10.8515 2.98523 9.723 3.62371C8.6465 4.23269 6.77775 4.96693 3.98675 5.00567C3.44275 5.01342 3 5.46166 3 6.00515V11.0643C3 12.699 3.416 14.3207 4.20325 15.7537C4.99025 17.1869 6.1355 18.4083 7.5155 19.2861L11.5973 21.8825ZM4.5 11.0643V6.49139C8.66375 6.31939 10.9945 4.74143 12 3.8357C13.0055 4.74143 15.3363 6.31964 19.5 6.49139V11.0643C19.5 12.4475 19.148 13.8197 18.482 15.0324C17.816 16.2451 16.8468 17.2786 15.6793 18.0213L12 20.3615L8.32075 18.0213C7.15325 17.2786 6.184 16.2451 5.518 15.0324C4.852 13.8197 4.5 12.4477 4.5 11.0643ZM12 6.75013C11.269 6.75013 10.5795 7.03712 10.0583 7.55837C9.537 8.07963 9.25 8.76913 9.25 9.50013C9.25 9.91438 9.58575 10.2501 10 10.2501C10.4143 10.2501 10.75 9.91438 10.75 9.50013C10.75 9.16988 10.881 8.85687 11.119 8.61912C11.357 8.38112 11.6698 8.25013 12 8.25013C12.7368 8.25013 13.25 8.90888 13.25 9.50013C13.25 10.1892 12.9396 10.4997 12.4701 10.9695L12.4698 10.9699C11.9263 11.5134 11.25 12.1896 11.25 13.5001C11.25 13.9144 11.5857 14.2501 12 14.2501C12.4143 14.2501 12.75 13.9144 12.75 13.5001C12.75 12.811 13.0604 12.5005 13.5299 12.0307L13.5302 12.0304C14.0737 11.4869 14.75 10.8106 14.75 9.50013C14.75 8.81613 14.4685 8.12687 13.9777 7.60912C13.4525 7.05512 12.7503 6.75013 12 6.75013ZM12 17.2499C12.5523 17.2499 13 16.8022 13 16.2499C13 15.6976 12.5523 15.2499 12 15.2499C11.4477 15.2499 11 15.6976 11 16.2499C11 16.8022 11.4477 17.2499 12 17.2499Z" fill="currentColor" fillRule="evenodd" clipRule="evenodd" />
</svg>
