<?xml version="1.0" encoding="UTF-8"?>
<svg xmlns:svg="http://www.w3.org/2000/svg" viewBox="0 0 24 24" fill="none">
<svg:path d="M14.2772 3.62371C15.3537 4.23269 17.2224 4.96693 20.0135 5.00567H20.0132C20.5572 5.01342 21 5.46166 21 6.00515V11.0643C21 12.6992 20.584 14.3207 19.797 15.7539C19.01 17.1871 17.8647 18.4086 16.4847 19.2863L12.4026 21.8828C12.2796 21.961 12.1399 22 11.9999 22C11.8599 22 11.7199 21.961 11.5971 21.8828L7.51531 19.2863C6.13554 18.4086 4.99003 17.1871 4.20302 15.7539C3.41601 14.3207 3 12.6992 3 11.0643V6.00515C3 5.46166 3.44276 5.01317 3.98677 5.00567C6.77781 4.96693 8.64657 4.23269 9.72309 3.62371C10.8519 2.98523 11.3699 2.34674 11.4019 2.30624C11.5429 2.11375 11.7614 2 12.0001 2C12.2389 2 12.4571 2.11375 12.5984 2.30624C12.6306 2.34674 13.1486 2.98523 14.2772 3.62371ZM12 7C13.1045 7 14 7.8955 14 9C14 10.1045 13.1045 11 12 11C10.8955 11 10 10.1045 10 9C10 7.8955 10.8955 7 12 7ZM15.75 13.5C15.75 15.433 14.183 17 12.25 17H11.75C9.817 17 8.25 15.433 8.25 13.5C8.25 12.6715 8.9215 12 9.75 12H14.25C15.0785 12 15.75 12.6715 15.75 13.5Z" fill="currentColor" fillRule="evenodd" clipRule="evenodd" />
</svg>
