<?xml version="1.0" encoding="UTF-8"?>
<svg xmlns:svg="http://www.w3.org/2000/svg" viewBox="0 0 24 24" fill="none">
<svg:path d="M12 21.9997C11.86 21.9997 11.7203 21.9608 11.5973 21.8825L7.5155 19.2861C6.1355 18.4083 4.99025 17.1869 4.20325 15.7537C3.416 14.3207 3 12.699 3 11.0643V6.00515C3 5.46166 3.44275 5.01342 3.98675 5.00567C6.77775 4.96693 8.6465 4.23269 9.723 3.62371C10.8515 2.98523 11.3695 2.34674 11.4018 2.30624C11.543 2.11375 11.7613 2 12 2C12.2388 2 12.4572 2.11375 12.5982 2.30624C12.6302 2.34674 13.1482 2.98523 14.277 3.62371C15.3535 4.23269 17.2223 4.96693 20.0133 5.00567C20.5573 5.01317 21 5.46166 21 6.00515V11.0643C21 12.6992 20.584 14.3207 19.797 15.7539C19.01 17.1871 17.8645 18.4086 16.4848 19.2863L12.4027 21.8828C12.28 21.961 12.14 22 12 22V21.9997ZM4.5 6.49139V11.0643C4.5 12.4477 4.852 13.8197 5.518 15.0324C6.184 16.2451 7.15325 17.2786 8.32075 18.0213L12 20.3615L15.6793 18.0213C16.8468 17.2786 17.816 16.2451 18.482 15.0324C19.148 13.8197 19.5 12.4475 19.5 11.0643V6.49139C15.3363 6.31964 13.0055 4.74143 12 3.8357C10.9945 4.74143 8.66375 6.31939 4.5 6.49139Z" fill="currentColor" />
</svg>
