<?xml version="1.0" encoding="UTF-8"?>
<svg xmlns:svg="http://www.w3.org/2000/svg" viewBox="0 0 24 24" fill="none">
<svg:path d="M11.5973 21.8825C11.7203 21.9608 11.86 21.9998 12 21.9998V22C12.14 22 12.28 21.961 12.4027 21.8828L16.4848 19.2863C17.8645 18.4086 19.01 17.1871 19.797 15.7539C20.584 14.3207 21 12.6992 21 11.0643V6.00515C21 5.46166 20.5573 5.01317 20.0133 5.00567C17.2223 4.96693 15.3535 4.23269 14.277 3.62371C13.1482 2.98523 12.6302 2.34674 12.5982 2.30624C12.4572 2.11375 12.2387 2 12 2C11.7613 2 11.543 2.11375 11.4018 2.30624C11.3695 2.34674 10.8515 2.98523 9.723 3.62371C8.6465 4.23269 6.77775 4.96693 3.98675 5.00567C3.44275 5.01342 3 5.46166 3 6.00515V11.0643C3 12.699 3.416 14.3207 4.20325 15.7537C4.99025 17.1869 6.1355 18.4083 7.5155 19.2861L11.5973 21.8825ZM4.5 11.0643V6.49139C8.66375 6.31939 10.9945 4.74143 12 3.8357C13.0055 4.74143 15.3363 6.31964 19.5 6.49139V11.0643C19.5 12.4475 19.148 13.8197 18.482 15.0324C17.816 16.2451 16.8468 17.2786 15.6793 18.0213L12 20.3615L8.32075 18.0213C7.15325 17.2786 6.184 16.2451 5.518 15.0324C4.852 13.8197 4.5 12.4477 4.5 11.0643ZM16.5762 9.7269C16.8413 9.40953 16.7983 8.93786 16.4801 8.67339C16.1619 8.40892 15.689 8.4518 15.4238 8.76916L11.1247 13.9144C11.0308 14.0268 10.86 14.0347 10.7561 13.931L8.53033 11.7111C8.23744 11.419 7.76256 11.419 7.46967 11.7111C7.17678 12.0033 7.17678 12.4769 7.46967 12.769L9.69542 14.9888C10.4229 15.7144 11.6185 15.6605 12.2772 14.872L12.2773 14.8718L16.5762 9.7269Z" fill="currentColor" fillRule="evenodd" clipRule="evenodd" />
</svg>
