<svg width="24" height="24" viewBox="0 0 24 24" fill="none" xmlns="http://www.w3.org/2000/svg">
<path fill-rule="evenodd" clip-rule="evenodd" d="M14.277 3.62371C15.3535 4.23269 17.2223 4.96693 20.0133 5.00567C20.5573 5.01342 21 5.46166 21 6.00515V11.0643C21 12.6992 20.584 14.3207 19.797 15.7539C19.01 17.1871 17.8648 18.4086 16.4848 19.2863L12.4027 21.8828C12.2797 21.961 12.14 22 12 22C11.86 22 11.72 21.961 11.5973 21.8828L7.51525 19.2863C6.1355 18.4086 4.99 17.1871 4.203 15.7539C3.416 14.3207 3 12.6992 3 11.0643V6.00515C3 5.46166 3.44275 5.01317 3.98675 5.00567C6.77775 4.96693 8.6465 4.23269 9.723 3.62371C10.8518 2.98523 11.3697 2.34674 11.4017 2.30624C11.5427 2.11375 11.7613 2 12 2C12.2387 2 12.457 2.11375 12.5983 2.30624C12.6305 2.34674 13.1485 2.98523 14.277 3.62371ZM16.5762 9.7269C16.8413 9.40953 16.7983 8.93786 16.4801 8.67339C16.1619 8.40892 15.689 8.4518 15.4238 8.76916L11.1247 13.9144C11.0308 14.0268 10.86 14.0347 10.7561 13.931L8.53033 11.7111C8.23744 11.419 7.76256 11.419 7.46967 11.7111C7.17678 12.0033 7.17678 12.4769 7.46967 12.769L9.69542 14.9888C10.4229 15.7144 11.6185 15.6605 12.2772 14.872L12.2773 14.8718L16.5762 9.7269Z" fill="black"/>
</svg>
