<?xml version="1.0" encoding="UTF-8"?>
<svg xmlns:svg="http://www.w3.org/2000/svg" viewBox="0 0 24 24" fill="none">
<svg:path d="M12 2C12.2388 2 12.4574 2.11415 12.5986 2.30664C12.6336 2.35045 13.1521 2.98738 14.2773 3.62402C15.2866 4.19492 16.9922 4.87543 19.501 4.99023L20.0137 5.00586C20.5574 5.01384 20.9999 5.46166 21 6.00488V11.0645C21 12.6994 20.5839 14.3207 19.7969 15.7539C19.0099 17.1871 17.8644 18.4084 16.4844 19.2861L12.4023 21.8828C12.2794 21.9609 12.1399 22 12 22C11.86 22 11.7194 21.9611 11.5967 21.8828L7.51562 19.2861C6.13587 18.4084 4.99013 17.1871 4.20312 15.7539C3.41614 14.3207 3.00003 12.6994 3 11.0645V6.00488C3.00015 5.46166 3.44261 5.0136 3.98633 5.00586C6.77697 4.96712 8.64607 4.23296 9.72266 3.62402C10.8513 2.98559 11.3703 2.34723 11.4023 2.30664C11.5433 2.11418 11.7613 2.00004 12 2ZM12 15C11.4478 15 11 15.4478 11 16C11 16.5522 11.4478 17 12 17C12.5523 17 13 16.5522 13 16C13 15.4478 12.5523 15 12 15ZM12 7.25C11.5858 7.25 11.25 7.58575 11.25 8V13C11.25 13.4142 11.5858 13.75 12 13.75C12.4143 13.75 12.75 13.4142 12.75 13V8C12.75 7.58575 12.4143 7.25 12 7.25Z" fill="currentColor" />
</svg>
