<?xml version="1.0" encoding="UTF-8"?>
<svg xmlns:svg="http://www.w3.org/2000/svg" viewBox="0 0 24 24" fill="none">
<svg:path d="M14.2772 3.62371C15.3537 4.23269 17.2224 4.96693 20.0135 5.00567H20.0132C20.5572 5.01342 21 5.46166 21 6.00515V11.0643C21 12.6992 20.584 14.3207 19.797 15.7539C19.01 17.1871 17.8647 18.4086 16.4847 19.2863L12.4026 21.8828C12.2796 21.961 12.1399 22 11.9999 22C11.8599 22 11.7199 21.961 11.5971 21.8828L7.51531 19.2863C6.13554 18.4086 4.99003 17.1871 4.20302 15.7539C3.41601 14.3207 3 12.6992 3 11.0643V6.00515C3 5.46166 3.44276 5.01317 3.98677 5.00567C6.77781 4.96693 8.64657 4.23269 9.72309 3.62371C10.8519 2.98523 11.3699 2.34674 11.4019 2.30624C11.5429 2.11375 11.7614 2 12.0001 2C12.2389 2 12.4571 2.11375 12.5984 2.30624C12.6306 2.34674 13.1486 2.98523 14.2772 3.62371ZM13.5302 12.0275C13.0602 12.4972 12.75 12.8073 12.75 13.4965C12.75 13.9105 12.4143 14.2461 12 14.2461C11.5857 14.2461 11.25 13.9105 11.25 13.4965C11.25 12.1864 11.9263 11.5105 12.4698 10.9675C12.9398 10.4978 13.25 10.1877 13.25 9.49856C13.25 8.90762 12.7368 8.24922 12 8.24922C11.6698 8.24922 11.3567 8.38015 11.119 8.61802C10.881 8.8559 10.75 9.16848 10.75 9.49856C10.75 9.91259 10.4143 10.2482 10 10.2482C9.58575 10.2482 9.25 9.91259 9.25 9.49856C9.25 8.76794 9.537 8.0788 10.0583 7.55783C10.5795 7.03685 11.269 6.75 12 6.75C12.731 6.75 13.4525 7.05484 13.9777 7.60855C14.4685 8.12603 14.75 8.81492 14.75 9.49856C14.75 10.8086 14.0737 11.4845 13.5302 12.0275ZM12 17.25C11.4478 17.25 11 16.8025 11 16.2505C11 15.6986 11.4478 15.251 12 15.251C12.5523 15.251 13 15.6986 13 16.2505C13 16.8025 12.5523 17.25 12 17.25Z" fill="currentColor" fillRule="evenodd" clipRule="evenodd" />
</svg>
