<svg width="24" height="24" viewBox="0 0 24 24" fill="none" xmlns="http://www.w3.org/2000/svg">
<path fill-rule="evenodd" clip-rule="evenodd" d="M12 3.75C10.205 3.75 8.75 5.20496 8.75 7H15.25C15.25 5.20496 13.795 3.75 12 3.75ZM7.25 7V7.07019C5.39928 7.42121 4 9.0471 4 11V18C4 20.2093 5.79075 22 8 22H16C18.2093 22 20 20.2093 20 18V11C20 9.0471 18.6007 7.42121 16.75 7.07019V7C16.75 4.37654 14.6235 2.25 12 2.25C9.37654 2.25 7.25 4.37654 7.25 7ZM16 8.5C17.3785 8.5 18.5 9.6215 18.5 11V18C18.5 19.3785 17.3785 20.5 16 20.5H8C6.6215 20.5 5.5 19.3785 5.5 18V11C5.5 9.6215 6.6215 8.5 8 8.5H16ZM9.25 11C9.25 10.5858 8.91421 10.25 8.5 10.25C8.08579 10.25 7.75 10.5858 7.75 11V11.5C7.75 13.8472 9.65279 15.75 12 15.75C14.3472 15.75 16.25 13.8472 16.25 11.5V11C16.25 10.5858 15.9142 10.25 15.5 10.25C15.0858 10.25 14.75 10.5858 14.75 11V11.5C14.75 13.0188 13.5188 14.25 12 14.25C10.4812 14.25 9.25 13.0188 9.25 11.5V11Z" fill="black"/>
</svg>
