<?xml version="1.0" encoding="UTF-8"?>
<svg xmlns:svg="http://www.w3.org/2000/svg" viewBox="0 0 24 24" fill="none">
<svg:path d="M2.1212 7.84125C2.15695 7.786 3.01846 6.47475 4.65648 5.1645C5.61999 4.39375 6.65725 3.779 7.74001 3.337C9.10053 2.78175 10.5338 2.50025 12.0001 2.50025C13.4663 2.50025 14.8996 2.78175 16.2601 3.337C17.3429 3.779 18.3804 4.39375 19.3436 5.1645C19.7862 5.5185 20.1719 5.87275 20.5002 6.202V2.75C20.5002 2.33575 20.8359 2 21.2502 2C21.6644 2 22.0002 2.33575 22.0002 2.75V6.75C22.0002 7.99075 20.9909 9 19.7502 9H15.7501C15.3359 9 15.0001 8.66425 15.0001 8.25C15.0001 7.83575 15.3359 7.5 15.7501 7.5H19.6701C19.3351 7.14525 18.9134 6.741 18.4064 6.3355C17.5554 5.65475 16.6426 5.113 15.6931 4.7255C14.5133 4.244 13.2708 3.99975 12.0001 3.99975C10.7293 3.99975 9.50678 4.24 8.33577 4.7135C7.39101 5.09575 6.48175 5.63075 5.63349 6.3035C4.16948 7.4645 3.38572 8.64775 3.37897 8.6585C3.23521 8.8795 2.99471 8.99975 2.74946 8.99975C2.60946 8.99975 2.46771 8.9605 2.34145 8.8785C1.9942 8.65275 1.89545 8.1885 2.1212 7.84125ZM9.5 12.25C9.5 11.9467 9.31727 11.6732 9.03701 11.5571C8.75676 11.441 8.43417 11.5052 8.21967 11.7197L6.21967 13.7197C5.92678 14.0126 5.92678 14.4875 6.21967 14.7804C6.51256 15.0732 6.98744 15.0732 7.28033 14.7804L8 14.0607V19.5H7.25C6.83579 19.5 6.5 19.8358 6.5 20.25C6.5 20.6642 6.83579 21 7.25 21H10.25C10.6642 21 11 20.6642 11 20.25C11 19.8358 10.6642 19.5 10.25 19.5H9.5V12.25ZM16.5 14.5V18C16.5 18.8285 15.8284 19.5 15 19.5C14.1716 19.5 13.5 18.8285 13.5 18V14.5C13.5 13.6716 14.1716 13 15 13C15.8284 13 16.5 13.6716 16.5 14.5ZM12 14.5C12 12.8432 13.3431 11.5 15 11.5C16.6569 11.5 18 12.8432 18 14.5V18C18 19.6569 16.6569 21 15 21C13.3431 21 12 19.6569 12 18V14.5Z" fill="currentColor" fillRule="evenodd" clipRule="evenodd" />
</svg>
