<svg width="24" height="24" viewBox="0 0 24 24" fill="none" xmlns="http://www.w3.org/2000/svg">
<path fill-rule="evenodd" clip-rule="evenodd" d="M4.65648 5.1645C3.01846 6.47475 2.15695 7.786 2.1212 7.84125C1.89545 8.1885 1.9942 8.65275 2.34145 8.8785C2.46771 8.9605 2.60946 8.99975 2.74946 8.99975C2.99471 8.99975 3.23521 8.8795 3.37897 8.6585C3.38572 8.64775 4.16948 7.4645 5.63349 6.3035C6.48175 5.63075 7.39101 5.09575 8.33577 4.7135C9.50678 4.24 10.7293 3.99975 12.0001 3.99975C13.2708 3.99975 14.5133 4.244 15.6931 4.7255C16.6426 5.113 17.5554 5.65475 18.4064 6.3355C18.9134 6.741 19.3351 7.14525 19.6701 7.5H15.7501C15.3359 7.5 15.0001 7.83575 15.0001 8.25C15.0001 8.66425 15.3359 9 15.7501 9H19.7502C20.9909 9 22.0002 7.99075 22.0002 6.75V2.75C22.0002 2.33575 21.6644 2 21.2502 2C20.8359 2 20.5002 2.33575 20.5002 2.75V6.202C20.1719 5.87275 19.7862 5.5185 19.3436 5.1645C18.3804 4.39375 17.3429 3.779 16.2601 3.337C14.8996 2.78175 13.4663 2.50025 12.0001 2.50025C10.5338 2.50025 9.10053 2.78175 7.74001 3.337C6.65725 3.779 5.61999 4.39375 4.65648 5.1645ZM14.2276 13L14.0498 14.659C14.3624 14.5556 14.6869 14.5009 15.0001 14.5C16.5151 14.5043 17.75 15.7339 17.75 17.25V18.25C17.75 19.7687 16.5187 21 15.0001 21H14.7501C13.7386 21 12.8289 20.452 12.3509 19.6255C12.1435 19.267 12.2661 18.8082 12.6246 18.6008C12.9831 18.3934 13.4419 18.516 13.6493 18.8745C13.8628 19.2435 14.2811 19.5 14.7501 19.5H15.0001C15.6903 19.5 16.25 18.9403 16.25 18.25V17.25C16.25 16.5604 15.6913 16.001 15.0019 16C14.4879 16.0007 13.9744 16.2922 13.7804 16.6152C13.7606 16.6506 13.7381 16.6842 13.7132 16.7156C13.5747 16.8911 13.3682 16.9911 13.1541 16.9996C13.0664 17.003 12.9775 16.9912 12.8915 16.9629C12.8064 16.9351 12.7286 16.8927 12.6606 16.839C12.4846 16.7005 12.3842 16.4937 12.3756 16.2792C12.3739 16.2373 12.3758 16.1951 12.3812 16.153L12.7542 12.6722C12.7854 12.367 12.9254 12.089 13.1233 11.8838C13.323 11.6765 13.6268 11.5 14.0001 11.5H17C17.4142 11.5 17.75 11.8358 17.75 12.25C17.75 12.6642 17.4142 13 17 13H14.2276ZM9.75 12.25C9.75 11.9467 9.56727 11.6732 9.28701 11.5571C9.00676 11.441 8.68417 11.5052 8.46967 11.7197L6.46967 13.7197C6.17678 14.0126 6.17678 14.4875 6.46967 14.7804C6.76256 15.0732 7.23744 15.0732 7.53033 14.7804L8.25 14.0607V19.5H7.5C7.08579 19.5 6.75 19.8358 6.75 20.25C6.75 20.6642 7.08579 21 7.5 21H10.5C10.9142 21 11.25 20.6642 11.25 20.25C11.25 19.8358 10.9142 19.5 10.5 19.5H9.75V12.25Z" fill="black"/>
</svg>
