<?xml version="1.0" encoding="UTF-8"?>
<svg xmlns:svg="http://www.w3.org/2000/svg" viewBox="0 0 24 24" fill="none">
<svg:path d="M20 3C20 2.44772 20.4477 2 21 2C21.5523 2 22 2.44772 22 3V7C22 8.38078 20.8808 9.5 19.5 9.5H15.5C14.9477 9.5 14.5 9.05228 14.5 8.5C14.5 7.94772 14.9477 7.5 15.5 7.5H18.8599C18.6224 7.26498 18.3535 7.0186 18.054 6.77235C16.6502 5.61819 14.6175 4.49996 12 4.49996C9.38247 4.49996 7.34975 5.61819 5.94602 6.77235C5.24522 7.34856 4.71207 7.92545 4.35601 8.35596C4.17845 8.57066 4.04625 8.74736 3.96052 8.86712C3.91769 8.92695 3.88656 8.97241 3.86729 9.00113L3.85457 9.02021L3.85185 9.02434L3.85002 9.02713L3.84731 9.03128L3.84596 9.03335L3.84416 9.03613C3.54853 9.5015 2.93179 9.63987 2.4656 9.34503C1.99884 9.04983 1.85977 8.43214 2.15497 7.96538L2.20682 7.88635C2.23671 7.84182 2.27923 7.77987 2.33427 7.70298C2.44428 7.54931 2.60473 7.33539 2.81483 7.08135C3.23412 6.57438 3.85637 5.90129 4.67584 5.22752C6.31263 3.88173 8.77985 2.5 12 2.5C15.2201 2.5 17.6874 3.88173 19.3242 5.22752C19.5668 5.427 19.7921 5.62642 20 5.82149V3ZM14.7022 14L14.5872 15.0727C14.8092 15.0253 15.0324 15.0007 15.2501 15C16.9028 15.0048 18.25 16.3462 18.25 18V19C18.25 20.6568 16.9068 22 15.2501 22H15.0001C13.8982 22 12.9067 21.4034 12.3845 20.5007C12.108 20.0226 12.2714 19.4109 12.7495 19.1344C13.2275 18.8578 13.8392 19.0212 14.1157 19.4993C14.2851 19.7921 14.6215 20 15.0001 20H15.2501C15.8023 20 16.2501 19.5522 16.2501 19V18C16.2501 17.4484 15.8014 17.001 15.2501 17C14.8095 17.0007 14.3883 17.2571 14.2459 17.492C14.2274 17.5248 14.207 17.5563 14.1851 17.5866C14.0011 17.8413 13.7137 17.9871 13.4151 17.9993C13.305 18.0038 13.1935 17.9902 13.085 17.9572C12.9467 17.9155 12.8221 17.845 12.7173 17.7534C12.6389 17.6851 12.5732 17.6062 12.5209 17.5201C12.421 17.3565 12.3674 17.1631 12.3758 16.9597C12.3768 16.9331 12.3789 16.9065 12.3821 16.8799L12.7554 13.3961C12.7929 13.0318 12.9593 12.7029 13.1931 12.4603C13.4296 12.2149 13.7951 12 14.25 12H17.25C17.8023 12 18.25 12.4477 18.25 13C18.25 13.5523 17.8023 14 17.25 14H14.7022ZM9.75 13C9.75 12.5956 9.50636 12.2309 9.13268 12.0761C8.75901 11.9214 8.32889 12.0069 8.04289 12.2929L6.04289 14.2929C5.65237 14.6834 5.65237 15.3166 6.04289 15.7071C6.43342 16.0977 7.06658 16.0977 7.45711 15.7071L7.75 15.4142V20H7.25C6.69771 20 6.25 20.4477 6.25 21C6.25 21.5523 6.69771 22 7.25 22H8.74694L8.75 22L8.75306 22H10.25C10.8023 22 11.25 21.5523 11.25 21C11.25 20.4477 10.8023 20 10.25 20H9.75V13Z" fill="currentColor" fillRule="evenodd" clipRule="evenodd" />
</svg>
