<svg width="24" height="24" viewBox="0 0 24 24" fill="none" xmlns="http://www.w3.org/2000/svg">
<path fill-rule="evenodd" clip-rule="evenodd" d="M3 2C3.55228 2 4 2.44772 4 3V5.82149C4.20789 5.62642 4.43322 5.427 4.67584 5.22752C6.31263 3.88173 8.77985 2.5 12 2.5C15.2201 2.5 17.6874 3.88173 19.3242 5.22752C20.1436 5.90129 20.7659 6.57438 21.1852 7.08135C21.3953 7.33539 21.5557 7.54931 21.6657 7.70298C21.7208 7.77987 21.7633 7.84182 21.7932 7.88635L21.845 7.96538C22.1402 8.43214 22.0012 9.04983 21.5344 9.34503C21.0682 9.63987 20.4512 9.50103 20.1555 9.03566L20.154 9.03335L20.1527 9.03128L20.1506 9.02803L20.1481 9.02434L20.1454 9.02021L20.1327 9.00113C20.1134 8.97241 20.0823 8.92695 20.0395 8.86712C19.9538 8.74736 19.8216 8.57066 19.644 8.35596C19.2879 7.92545 18.7548 7.34856 18.054 6.77235C16.6502 5.61819 14.6175 4.49996 12 4.49996C9.38247 4.49996 7.34975 5.61819 5.94603 6.77235C5.64653 7.0186 5.37765 7.26498 5.14012 7.5H8.5C9.05228 7.5 9.5 7.94772 9.5 8.5C9.5 9.05228 9.05228 9.5 8.5 9.5H4.5C3.11922 9.5 2 8.38078 2 7V3C2 2.44772 2.44772 2 3 2ZM8.88268 12.0761C9.25636 12.2309 9.5 12.5956 9.5 13V20H10C10.5523 20 11 20.4477 11 21C11 21.5523 10.5523 22 10 22H8.50306L8.5 22L8.49694 22H7C6.44771 22 6 21.5523 6 21C6 20.4477 6.44771 20 7 20H7.5V15.4142L7.20711 15.7071C6.81658 16.0977 6.18342 16.0977 5.79289 15.7071C5.40237 15.3166 5.40237 14.6834 5.79289 14.2929L7.79289 12.2929C8.07889 12.0069 8.50901 11.9214 8.88268 12.0761ZM16.5 18.5V15.5C16.5 14.6716 15.8284 14 15 14C14.1716 14 13.5 14.6716 13.5 15.5V18.5C13.5 19.3284 14.1716 20 15 20C15.8284 20 16.5 19.3284 16.5 18.5ZM15 12C13.067 12 11.5 13.567 11.5 15.5V18.5C11.5 20.433 13.067 22 15 22C16.933 22 18.5 20.433 18.5 18.5V15.5C18.5 13.567 16.933 12 15 12Z" fill="black"/>
</svg>
