<?xml version="1.0" encoding="UTF-8"?>
<svg xmlns:svg="http://www.w3.org/2000/svg" viewBox="0 0 24 24" fill="none">
<svg:path d="M19.3437 5.1645C20.9817 6.47475 21.8432 7.786 21.879 7.84125C22.1047 8.1885 22.006 8.65275 21.6587 8.8785C21.5325 8.9605 21.3907 8.99975 21.2507 8.99975C21.0055 8.99975 20.765 8.8795 20.6212 8.6585C20.6145 8.64775 19.8307 7.4645 18.3667 6.3035C17.5184 5.63075 16.6092 5.09575 15.6644 4.7135C14.4934 4.24 13.2709 3.99975 12.0001 3.99975C10.7293 3.99975 9.48683 4.244 8.30707 4.7255C7.35756 5.113 6.4448 5.65475 5.59379 6.3355C5.08678 6.741 4.66503 7.14525 4.33003 7.5H8.25007C8.66432 7.5 9.00008 7.83575 9.00008 8.25C9.00008 8.66425 8.66432 9 8.25007 9H4.25003C3.00926 9 2 7.99075 2 6.75V2.75C2 2.33575 2.33575 2 2.75001 2C3.16426 2 3.50002 2.33575 3.50002 2.75V6.202C3.82827 5.87275 4.21403 5.5185 4.65653 5.1645C5.61979 4.39375 6.6573 3.779 7.74006 3.337C9.10058 2.78175 10.5338 2.50025 12.0001 2.50025C13.4664 2.50025 14.8996 2.78175 16.2602 3.337C17.3429 3.779 18.3802 4.39375 19.3437 5.1645ZM9.03701 11.5571C9.31727 11.6732 9.5 11.9467 9.5 12.25V19.5H10.25C10.6642 19.5 11 19.8358 11 20.25C11 20.6642 10.6642 21 10.25 21H7.25C6.83579 21 6.5 20.6642 6.5 20.25C6.5 19.8358 6.83579 19.5 7.25 19.5H8V14.0607L7.28033 14.7804C6.98744 15.0732 6.51256 15.0732 6.21967 14.7804C5.92678 14.4875 5.92678 14.0126 6.21967 13.7197L8.21967 11.7197C8.43417 11.5052 8.75676 11.441 9.03701 11.5571ZM16.5 18V14.5C16.5 13.6716 15.8284 13 15 13C14.1716 13 13.5 13.6716 13.5 14.5V18C13.5 18.8285 14.1716 19.5 15 19.5C15.8284 19.5 16.5 18.8285 16.5 18ZM15 11.5C13.3431 11.5 12 12.8432 12 14.5V18C12 19.6569 13.3431 21 15 21C16.6569 21 18 19.6569 18 18V14.5C18 12.8432 16.6569 11.5 15 11.5Z" fill="currentColor" fillRule="evenodd" clipRule="evenodd" />
</svg>
