<?xml version="1.0" encoding="UTF-8"?>
<svg xmlns:svg="http://www.w3.org/2000/svg" viewBox="0 0 24 24" fill="none">
<svg:path d="M21 2C20.4477 2 20 2.44772 20 3V5.82149C19.7921 5.62642 19.5668 5.427 19.3242 5.22752C17.6874 3.88173 15.2201 2.5 12 2.5C8.77985 2.5 6.31263 3.88173 4.67584 5.22752C3.85637 5.90129 3.23412 6.57438 2.81483 7.08135C2.60473 7.33539 2.44428 7.54931 2.33427 7.70298C2.27923 7.77987 2.23671 7.84182 2.20682 7.88635L2.15497 7.96538C1.85977 8.43214 1.99884 9.04983 2.4656 9.34503C2.93179 9.63987 3.54853 9.5015 3.84416 9.03613L3.84596 9.03335L3.84731 9.03128L3.85002 9.02713L3.85185 9.02434L3.85457 9.02021L3.86729 9.00113C3.88656 8.97241 3.91769 8.92695 3.96052 8.86712C4.04625 8.74736 4.17845 8.57066 4.35602 8.35596C4.71207 7.92545 5.24522 7.34856 5.94602 6.77235C7.34975 5.61819 9.38247 4.49996 12 4.49996C14.6175 4.49996 16.6502 5.61819 18.054 6.77235C18.3535 7.0186 18.6224 7.26498 18.8599 7.5H15.5C14.9477 7.5 14.5 7.94772 14.5 8.5C14.5 9.05228 14.9477 9.5 15.5 9.5H19.5C20.8808 9.5 22 8.38078 22 7V3C22 2.44772 21.5523 2 21 2ZM9.5 13C9.5 12.5956 9.25636 12.2309 8.88268 12.0761C8.50901 11.9214 8.07889 12.0069 7.79289 12.2929L5.79289 14.2929C5.40237 14.6834 5.40237 15.3166 5.79289 15.7071C6.18342 16.0977 6.81658 16.0977 7.20711 15.7071L7.5 15.4142V20H7C6.44771 20 6 20.4477 6 21C6 21.5523 6.44771 22 7 22H8.49694L8.5 22L8.50306 22H10C10.5523 22 11 21.5523 11 21C11 20.4477 10.5523 20 10 20H9.5V13ZM15 14C15.8284 14 16.5 14.6716 16.5 15.5V18.5C16.5 19.3284 15.8284 20 15 20C14.1716 20 13.5 19.3284 13.5 18.5V15.5C13.5 14.6716 14.1716 14 15 14ZM11.5 15.5C11.5 13.567 13.067 12 15 12C16.933 12 18.5 13.567 18.5 15.5V18.5C18.5 20.433 16.933 22 15 22C13.067 22 11.5 20.433 11.5 18.5V15.5Z" fill="currentColor" fillRule="evenodd" clipRule="evenodd" />
</svg>
