<?xml version="1.0" encoding="UTF-8"?>
<svg xmlns:svg="http://www.w3.org/2000/svg" viewBox="0 0 24 24" fill="none">
<svg:path d="M12.75 3C12.75 2.58579 12.4142 2.25 12 2.25C11.5858 2.25 11.25 2.58579 11.25 3V6.18934L8.53033 3.46967C8.23744 3.17678 7.76256 3.17678 7.46967 3.46967C7.17678 3.76256 7.17678 4.23744 7.46967 4.53033L11.25 8.31066V11.25H8.31066L4.53033 7.46967C4.23744 7.17678 3.76256 7.17678 3.46967 7.46967C3.17678 7.76256 3.17678 8.23744 3.46967 8.53033L6.18934 11.25H3C2.58579 11.25 2.25 11.5858 2.25 12C2.25 12.4142 2.58579 12.75 3 12.75H6.18934L3.46967 15.4697C3.17678 15.7626 3.17678 16.2374 3.46967 16.5303C3.76256 16.8232 4.23744 16.8232 4.53033 16.5303L8.31066 12.75H11.25V15.6893L7.46967 19.4697C7.17678 19.7626 7.17678 20.2374 7.46967 20.5303C7.76256 20.8232 8.23744 20.8232 8.53033 20.5303L11.25 17.8107V21C11.25 21.4142 11.5858 21.75 12 21.75C12.4142 21.75 12.75 21.4142 12.75 21V17.8107L15.4697 20.5303C15.7626 20.8232 16.2374 20.8232 16.5303 20.5303C16.8232 20.2374 16.8232 19.7626 16.5303 19.4697L12.75 15.6893V12.75H15.6893L19.4697 16.5303C19.7626 16.8232 20.2374 16.8232 20.5303 16.5303C20.8232 16.2374 20.8232 15.7626 20.5303 15.4697L17.8107 12.75H21C21.4142 12.75 21.75 12.4142 21.75 12C21.75 11.5858 21.4142 11.25 21 11.25H17.8107L20.5303 8.53033C20.8232 8.23744 20.8232 7.76256 20.5303 7.46967C20.2374 7.17678 19.7626 7.17678 19.4697 7.46967L15.6893 11.25H12.75V8.31066L16.5303 4.53033C16.8232 4.23744 16.8232 3.76256 16.5303 3.46967C16.2374 3.17678 15.7626 3.17678 15.4697 3.46967L12.75 6.18934V3Z" fill="currentColor" fillRule="evenodd" clipRule="evenodd" />
</svg>
