<?xml version="1.0" encoding="UTF-8"?>
<svg xmlns:svg="http://www.w3.org/2000/svg" viewBox="0 0 24 24" fill="none">
<svg:path d="M15.4997 4C15.4997 3.72425 15.2755 3.5 14.9997 3.5H9C8.72425 3.5 8.5 3.72425 8.5 4V10.25H15.4997V4ZM9 2H15C16.1045 2 17 2.8955 17 4V13C17 15.5066 15.1557 17.5823 12.75 17.9441V20.5H15C15.4142 20.5 15.75 20.8358 15.75 21.25C15.75 21.6642 15.4142 22 15 22H9C8.58579 22 8.25 21.6642 8.25 21.25C8.25 20.8358 8.58579 20.5 9 20.5H11.25V17.9441C8.84431 17.5823 7 15.5066 7 13V4C7 2.8955 7.8955 2 9 2Z" fill="currentColor" fillRule="evenodd" clipRule="evenodd" />
</svg>
