<?xml version="1.0" encoding="UTF-8"?>
<svg xmlns:svg="http://www.w3.org/2000/svg" viewBox="0 0 24 24" fill="none">
<svg:path d="M12 6.52632C12.335 6.52632 12.6563 6.39323 12.8932 6.15635C13.1301 5.91946 13.2632 5.59817 13.2632 5.26316C13.2632 4.92815 13.1301 4.60686 12.8932 4.36997C12.6563 4.13308 12.335 4 12 4C11.665 4 11.3437 4.13308 11.1068 4.36997C10.8699 4.60686 10.7368 4.92815 10.7368 5.26316C10.7368 5.59817 10.8699 5.91946 11.1068 6.15635C11.3437 6.39323 11.665 6.52632 12 6.52632ZM6.52632 12C6.52632 12.335 6.39323 12.6563 6.15635 12.8932C5.91946 13.1301 5.59817 13.2632 5.26316 13.2632C4.92815 13.2632 4.60686 13.1301 4.36997 12.8932C4.13308 12.6563 4 12.335 4 12C4 11.665 4.13308 11.3437 4.36997 11.1068C4.60686 10.8699 4.92815 10.7368 5.26316 10.7368C5.59817 10.7368 5.91946 10.8699 6.15635 11.1068C6.39323 11.3437 6.52632 11.665 6.52632 12ZM20 12C20 12.335 19.8669 12.6563 19.63 12.8932C19.3931 13.1301 19.0719 13.2632 18.7368 13.2632C18.4018 13.2632 18.0805 13.1301 17.8437 12.8932C17.6068 12.6563 17.4737 12.335 17.4737 12C17.4737 11.665 17.6068 11.3437 17.8437 11.1068C18.0805 10.8699 18.4018 10.7368 18.7368 10.7368C19.0719 10.7368 19.3931 10.8699 19.63 11.1068C19.8669 11.3437 20 11.665 20 12ZM13.2632 18.7368C13.2632 19.0719 13.1301 19.3931 12.8932 19.63C12.6563 19.8669 12.335 20 12 20C11.665 20 11.3437 19.8669 11.1068 19.63C10.8699 19.3931 10.7368 19.0719 10.7368 18.7368C10.7368 18.4018 10.8699 18.0805 11.1068 17.8437C11.3437 17.6068 11.665 17.4737 12 17.4737C12.335 17.4737 12.6563 17.6068 12.8932 17.8437C13.1301 18.0805 13.2632 18.4018 13.2632 18.7368ZM6.34358 8.12968C6.4601 8.25033 6.59948 8.34656 6.75359 8.41276C6.9077 8.47896 7.07346 8.51381 7.24118 8.51526C7.4089 8.51672 7.57523 8.48476 7.73047 8.42125C7.88571 8.35774 8.02674 8.26394 8.14534 8.14534C8.26394 8.02674 8.35774 7.88571 8.42125 7.73047C8.48476 7.57523 8.51672 7.4089 8.51526 7.24118C8.51381 7.07346 8.47896 6.9077 8.41276 6.75359C8.34656 6.59948 8.25033 6.4601 8.12968 6.34358C7.89145 6.11348 7.57237 5.98617 7.24118 5.98904C6.90998 5.99192 6.59317 6.12477 6.35897 6.35897C6.12477 6.59317 5.99192 6.90998 5.98904 7.24118C5.98617 7.57237 6.11348 7.89145 6.34358 8.12968ZM17.6564 17.6564C17.5399 17.7771 17.4005 17.8733 17.2464 17.9395C17.0923 18.0057 16.9265 18.0405 16.7588 18.042C16.5911 18.0435 16.4248 18.0115 16.2695 17.948C16.1143 17.8845 15.9733 17.7907 15.8547 17.6721C15.7361 17.5535 15.6423 17.4124 15.5788 17.2572C15.5152 17.102 15.4833 16.9356 15.4847 16.7679C15.4862 16.6002 15.521 16.4344 15.5872 16.2803C15.6534 16.1262 15.7497 15.9868 15.8703 15.8703C16.1086 15.6402 16.4276 15.5129 16.7588 15.5158C17.09 15.5187 17.4068 15.6515 17.641 15.8857C17.8752 16.1199 18.0081 16.4367 18.011 16.7679C18.0138 17.0991 17.8865 17.4182 17.6564 17.6564ZM6.34358 17.6564C6.4601 17.7771 6.59948 17.8733 6.75359 17.9395C6.9077 18.0057 7.07346 18.0405 7.24118 18.042C7.4089 18.0435 7.57523 18.0115 7.73047 17.948C7.88571 17.8845 8.02674 17.7907 8.14534 17.6721C8.26394 17.5535 8.35774 17.4124 8.42125 17.2572C8.48476 17.102 8.51672 16.9356 8.51526 16.7679C8.51381 16.6002 8.47896 16.4344 8.41276 16.2803C8.34656 16.1262 8.25033 15.9868 8.12968 15.8703C7.89145 15.6402 7.57237 15.5129 7.24118 15.5158C6.90998 15.5187 6.59317 15.6515 6.35897 15.8857C6.12477 16.1199 5.99192 16.4367 5.98904 16.7679C5.98617 17.0991 6.11348 17.4182 6.34358 17.6564Z" fill="currentColor" fillRule="evenodd" clipRule="evenodd" />
</svg>
