<?xml version="1.0" encoding="UTF-8"?>
<svg xmlns:svg="http://www.w3.org/2000/svg" viewBox="0 0 24 24" fill="none">
<svg:path d="M19.9063 5.87705C19.5336 5.39654 19.1183 4.95079 18.6658 4.54578C18.1956 4.12478 17.6851 3.74777 17.1411 3.42102C16.8906 3.27052 16.6331 3.13076 16.3691 3.00226C16.3669 3.00101 16.3644 3.00001 16.3621 2.99876C16.2996 2.96851 16.2366 2.93876 16.1734 2.90976C16.1676 2.90701 16.1619 2.90451 16.1561 2.90176C16.0946 2.87351 16.0326 2.84601 15.9704 2.81901C15.9634 2.81601 15.9564 2.81301 15.9497 2.81001C15.8874 2.78326 15.8249 2.75701 15.7619 2.73126C15.7564 2.72901 15.7509 2.72676 15.7454 2.72451C14.5879 2.2575 13.324 2 11.9997 2C10.6755 2 9.41156 2.2575 8.25484 2.72501C8.24934 2.72726 8.24384 2.72951 8.23834 2.73176C8.17535 2.75726 8.11285 2.78351 8.0506 2.81051C8.0436 2.81351 8.0366 2.81651 8.02985 2.81951C7.9676 2.84651 7.90585 2.87401 7.8441 2.90226C7.83835 2.90501 7.8326 2.90751 7.82685 2.91026C7.76361 2.93926 7.70061 2.96901 7.63811 2.99926C7.63586 3.00051 7.63336 3.00151 7.63111 3.00276C7.36712 3.13126 7.10937 3.27102 6.85913 3.42152C6.31514 3.74827 5.80465 4.12528 5.33442 4.54628C4.88193 4.95129 4.46644 5.39679 4.09395 5.8773C2.78123 7.56907 2 9.69335 2 12.0001C2 12.3034 2.0135 12.6034 2.04 12.8996C2.04475 12.9516 2.04975 13.0034 2.05525 13.0551C2.057 13.0706 2.0585 13.0864 2.06025 13.1019C2.06475 13.1436 2.06975 13.1854 2.07475 13.2271C2.07575 13.2361 2.077 13.2451 2.078 13.2541C2.0845 13.3061 2.09125 13.3579 2.09875 13.4094C2.09975 13.4171 2.101 13.4246 2.10225 13.4324C2.1085 13.4764 2.11525 13.5204 2.122 13.5644C2.12425 13.5779 2.12625 13.5914 2.1285 13.6051C2.1355 13.6491 2.143 13.6931 2.15075 13.7369C2.152 13.7444 2.15325 13.7516 2.1545 13.7591C2.1635 13.8101 2.173 13.8611 2.183 13.9121C2.18475 13.9209 2.1865 13.9296 2.18825 13.9384C2.19625 13.9792 2.20449 14.0199 2.21299 14.0607C2.21624 14.0757 2.21924 14.0907 2.22249 14.1059C2.23324 14.1557 2.24424 14.2057 2.25549 14.2552C2.25549 14.2552 2.25549 14.2554 2.25549 14.2557C3.08447 17.8522 5.8534 20.7072 9.40131 21.6592C9.54081 21.6967 9.68181 21.7312 9.82355 21.7627C9.82605 21.7632 9.82855 21.7637 9.83105 21.7645C9.90005 21.7797 9.9693 21.7942 10.0388 21.808C10.0425 21.8087 10.0463 21.8095 10.05 21.8102C10.1203 21.8242 10.1908 21.8372 10.2618 21.8497C10.2623 21.8497 10.2628 21.8497 10.263 21.8497C10.481 21.888 10.7013 21.919 10.9238 21.9428C10.9245 21.9428 10.9253 21.9428 10.9263 21.943C11.0003 21.951 11.0745 21.958 11.1493 21.9643C11.4298 21.988 11.7135 22 12 22C12.2865 22 12.5702 21.9878 12.8507 21.9643C12.9252 21.958 12.9995 21.9508 13.0737 21.943C13.0745 21.943 13.0752 21.943 13.0762 21.9428C13.2987 21.919 13.5192 21.888 13.737 21.8497C13.7375 21.8497 13.738 21.8497 13.7382 21.8497C13.809 21.8372 13.8795 21.8242 13.95 21.8102C13.9537 21.8095 13.9575 21.8087 13.9612 21.808C14.0307 21.7942 14.0999 21.7797 14.1689 21.7645C14.1714 21.764 14.1739 21.7635 14.1764 21.7627C14.3184 21.7312 14.4592 21.6967 14.5987 21.6592C18.1466 20.707 20.9155 17.8522 21.7445 14.2557C21.7445 14.2557 21.7445 14.2554 21.7445 14.2552C21.756 14.2057 21.7668 14.1559 21.7775 14.1059C21.7808 14.0909 21.7838 14.0759 21.787 14.0607C21.7955 14.0199 21.8038 13.9792 21.8118 13.9384C21.8135 13.9296 21.8153 13.9209 21.817 13.9121C21.8268 13.8614 21.8363 13.8104 21.8455 13.7591C21.8468 13.7516 21.848 13.7444 21.8493 13.7369C21.857 13.6931 21.8643 13.6491 21.8715 13.6051C21.8738 13.5916 21.8758 13.5781 21.878 13.5644C21.885 13.5204 21.8915 13.4766 21.8978 13.4324C21.8988 13.4246 21.9 13.4171 21.9013 13.4094C21.9085 13.3576 21.9155 13.3059 21.922 13.2541C21.9233 13.2451 21.9243 13.2361 21.9253 13.2271C21.9303 13.1854 21.9353 13.1436 21.9398 13.1019C21.9415 13.0864 21.9433 13.0706 21.9448 13.0551C21.9503 13.0034 21.9553 12.9516 21.96 12.8996C21.9865 12.6034 22 12.3034 22 12.0001C22 9.69335 21.2188 7.56907 19.9068 5.87705H19.9063ZM11.9997 3.50002C12.632 3.50002 13.2532 3.56852 13.859 3.70352L12.7947 4.36878C12.3082 4.67278 11.6913 4.67278 11.2048 4.36878L10.1405 3.70352C10.7463 3.56852 11.3675 3.50002 11.9997 3.50002ZM12.8885 10.3351L13.6265 10.8781C14.1457 11.2601 14.3627 11.9311 14.1659 12.5446L13.8727 13.4584C13.6735 14.0792 13.0962 14.5002 12.4445 14.5002H11.5548C10.903 14.5002 10.3258 14.0792 10.1265 13.4584L9.8333 12.5446C9.63631 11.9309 9.85355 11.2599 10.3728 10.8781L11.1108 10.3351C11.375 10.1406 11.6873 10.0434 11.9995 10.0434C12.3117 10.0434 12.624 10.1406 12.8882 10.3351H12.8885ZM4.1672 8.69208C4.28019 8.42458 4.40669 8.16458 4.54519 7.91207L4.81793 9.13909C4.92918 9.63985 4.77693 10.1626 4.41444 10.5251L3.51971 11.4199C3.58271 10.4769 3.79946 9.56184 4.1672 8.69233V8.69208ZM6.07065 18.09L7.05237 18.1555C7.62286 18.1935 8.12185 18.5525 8.33959 19.081L8.63983 19.8102C7.68336 19.3982 6.81988 18.82 6.07065 18.09ZM8.72133 15.7382L8.57934 15.9639C8.28584 16.4309 7.75986 16.6992 7.20962 16.6624L5.60091 16.5552C5.06767 16.5197 4.59094 16.2047 4.35669 15.7244C4.28994 15.5877 4.22669 15.4489 4.1672 15.3082C4.03145 14.9872 3.9162 14.6599 3.8217 14.3272C3.67321 13.8039 3.81945 13.2409 4.20419 12.8564L5.28642 11.7741C5.69041 11.3701 6.28889 11.2306 6.82988 11.4146L7.31112 11.5784C7.76061 11.7314 8.11135 12.0881 8.25634 12.5401L8.87933 14.4817C9.01457 14.9034 8.95683 15.3632 8.72108 15.7382H8.72133ZM9.12632 9.93285C8.73133 10.2236 8.21884 10.3026 7.75461 10.1446L7.28037 9.98335C6.78463 9.81485 6.41264 9.39984 6.29914 8.88859L5.89865 7.08681C5.78366 6.56906 5.95065 6.02905 6.33764 5.66655C6.40989 5.5988 6.47314 5.54129 6.51664 5.50454C6.81713 5.25029 7.13337 5.01804 7.46436 4.80904C7.95385 4.49978 8.57609 4.49478 9.06682 4.80154L10.5448 5.7253C10.9833 5.9993 11.2498 6.48006 11.2498 6.99731V7.61232C11.2498 8.08933 11.0228 8.53783 10.6385 8.82059L9.12632 9.9331V9.93285ZM14.3647 18.287L13.8417 19.5567C13.624 20.0857 13.1245 20.446 12.5537 20.4825C12.37 20.4942 12.1855 20.5002 11.9997 20.5002C11.814 20.5002 11.6295 20.4942 11.4458 20.4825C10.875 20.446 10.3755 20.0855 10.1578 19.5567L9.63481 18.287C9.45006 17.8384 9.49381 17.3282 9.75181 16.9177L9.8873 16.7022C10.1618 16.2654 10.6415 16.0004 11.1573 16.0004H12.8422C13.358 16.0004 13.8377 16.2654 14.1122 16.7022L14.2477 16.9177C14.5057 17.3284 14.5494 17.8384 14.3647 18.287ZM13.361 8.82034C12.9767 8.53758 12.7497 8.08908 12.7497 7.61207V6.99706C12.7497 6.47981 13.0162 5.99905 13.4547 5.72505L14.9327 4.80129C15.4237 4.49453 16.0459 4.49953 16.5351 4.80879C16.8661 5.01804 17.1824 5.25004 17.4829 5.50429C17.5264 5.54104 17.5894 5.59854 17.6619 5.6663C18.0488 6.0288 18.2158 6.56881 18.1008 7.08656L17.7004 8.88834C17.5869 9.39959 17.2149 9.8146 16.7191 9.9831L16.2449 10.1444C15.7804 10.3024 15.2682 10.2231 14.8732 9.9326L13.361 8.82009V8.82034ZM15.3597 19.8102L15.6599 19.081C15.8777 18.5525 16.3766 18.1935 16.9471 18.1555L17.9289 18.09C17.1796 18.82 16.3161 19.3982 15.3597 19.8102ZM20.1775 14.3274C20.083 14.6599 19.9681 14.9874 19.8321 15.3084C19.7726 15.4492 19.7093 15.5879 19.6426 15.7247C19.4081 16.2049 18.9313 16.5199 18.3983 16.5554L16.7896 16.6627C16.2394 16.6994 15.7134 16.4312 15.4199 15.9642L15.2779 15.7384C15.0422 15.3634 14.9844 14.9037 15.1197 14.4819L15.7427 12.5404C15.8877 12.0881 16.2384 11.7314 16.6879 11.5786L17.1691 11.4149C17.7101 11.2309 18.3086 11.3704 18.7126 11.7744L19.7948 12.8566C20.1795 13.2414 20.3258 13.8041 20.1773 14.3274H20.1775ZM19.5851 10.5249C19.2223 10.1621 19.0703 9.63935 19.1816 9.13884L19.4543 7.91182C19.5928 8.16433 19.7193 8.42433 19.8323 8.69183C20.2 9.56135 20.4168 10.4766 20.4798 11.4194L19.5851 10.5246V10.5249Z" fill="currentColor" />
</svg>
