<?xml version="1.0" encoding="UTF-8"?>
<svg xmlns:svg="http://www.w3.org/2000/svg" viewBox="0 0 24 24" fill="none">
<svg:path d="M19.9048 5.8775C19.5321 5.397 19.1168 4.95125 18.6643 4.54625C18.1941 4.12525 17.6836 3.74825 17.1396 3.4215C16.8891 3.271 16.6316 3.13125 16.3676 3.00275C16.3654 3.0015 16.3629 3.0005 16.3606 2.99925C16.2981 2.969 16.2351 2.93925 16.1719 2.91025C16.1661 2.9075 16.1604 2.905 16.1546 2.90225C16.0931 2.874 16.0311 2.8465 15.9689 2.8195C15.9619 2.8165 15.9549 2.8135 15.9482 2.8105C15.8859 2.78375 15.8234 2.7575 15.7604 2.73175C15.7549 2.7295 15.7494 2.72725 15.7439 2.725C14.5872 2.2575 13.3232 2 11.999 2C10.6748 2 9.41081 2.2575 8.25409 2.725C8.24859 2.72725 8.24309 2.7295 8.23759 2.73175C8.1746 2.75725 8.1121 2.7835 8.04985 2.8105C8.04285 2.8135 8.03585 2.8165 8.0291 2.8195C7.96685 2.8465 7.9051 2.874 7.84335 2.90225C7.8376 2.905 7.83185 2.9075 7.8261 2.91025C7.76286 2.93925 7.69986 2.969 7.63736 2.99925C7.63511 3.0005 7.63261 3.0015 7.63036 3.00275C7.36637 3.13125 7.10862 3.271 6.85838 3.4215C6.31439 3.74825 5.8039 4.12525 5.33367 4.54625C4.88118 4.95125 4.46569 5.39675 4.0932 5.87725C2.78123 7.56925 2 9.6935 2 12.0002C2 12.3035 2.0135 12.6035 2.04 12.8997C2.04475 12.9517 2.04975 13.0035 2.05525 13.0552C2.057 13.0707 2.0585 13.0865 2.06025 13.102C2.06475 13.1437 2.06975 13.1855 2.07475 13.2273C2.07575 13.2363 2.077 13.2453 2.078 13.2543C2.0845 13.3063 2.09125 13.358 2.09875 13.4095C2.09975 13.4172 2.101 13.4248 2.10225 13.4325C2.1085 13.4765 2.11525 13.5205 2.122 13.5645C2.12425 13.578 2.12625 13.5915 2.1285 13.6052C2.1355 13.6492 2.143 13.6933 2.15075 13.737C2.152 13.7445 2.15325 13.7517 2.1545 13.7592C2.1635 13.8102 2.173 13.8612 2.183 13.9122C2.18475 13.921 2.1865 13.9298 2.18825 13.9385C2.19625 13.9793 2.20449 14.02 2.21299 14.0607C2.21624 14.0757 2.21924 14.0907 2.22249 14.106C2.23324 14.1557 2.24424 14.2057 2.25549 14.2552C2.25549 14.2552 2.25549 14.2555 2.25549 14.2558C3.08447 17.8523 5.8534 20.7073 9.40131 21.6593C9.54081 21.6968 9.68181 21.7313 9.82355 21.7628C9.82605 21.7633 9.82855 21.7638 9.83105 21.7645C9.90005 21.7798 9.9693 21.7943 10.0388 21.808C10.0425 21.8088 10.0463 21.8095 10.05 21.8103C10.1203 21.8243 10.1908 21.8373 10.2618 21.8498C10.2623 21.8498 10.2628 21.8498 10.263 21.8498C10.481 21.888 10.7013 21.919 10.9238 21.9428C10.9245 21.9428 10.9253 21.9428 10.9263 21.943C11.0003 21.951 11.0745 21.958 11.1493 21.9643C11.4298 21.988 11.7135 22 12 22C12.2865 22 12.5702 21.9878 12.8507 21.9643C12.9252 21.958 12.9995 21.9508 13.0737 21.943C13.0745 21.943 13.0752 21.943 13.0762 21.9428C13.2987 21.919 13.5192 21.888 13.737 21.8498C13.7375 21.8498 13.738 21.8498 13.7382 21.8498C13.809 21.8373 13.8795 21.8243 13.95 21.8103C13.9537 21.8095 13.9575 21.8088 13.9612 21.808C14.0307 21.7943 14.0999 21.7798 14.1689 21.7645C14.1714 21.764 14.1739 21.7635 14.1764 21.7628C14.3184 21.7313 14.4592 21.6968 14.5987 21.6593C18.1466 20.707 20.9155 17.8523 21.7445 14.2558C21.7445 14.2558 21.7445 14.2555 21.7445 14.2552C21.756 14.2057 21.7668 14.156 21.7775 14.106C21.7808 14.091 21.7838 14.076 21.787 14.0607C21.7955 14.02 21.8038 13.9793 21.8118 13.9385C21.8135 13.9298 21.8153 13.921 21.817 13.9122C21.8268 13.8615 21.8363 13.8105 21.8455 13.7592C21.8468 13.7517 21.848 13.7445 21.8493 13.737C21.857 13.6933 21.8643 13.6492 21.8715 13.6052C21.8738 13.5917 21.8758 13.5782 21.878 13.5645C21.885 13.5205 21.8915 13.4768 21.8978 13.4325C21.8988 13.4248 21.9 13.4172 21.9013 13.4095C21.9085 13.3577 21.9155 13.306 21.922 13.2543C21.9233 13.2453 21.9243 13.2363 21.9253 13.2273C21.9303 13.1855 21.9353 13.1437 21.9398 13.102C21.9415 13.0865 21.9433 13.0707 21.9448 13.0552C21.9503 13.0035 21.9553 12.9517 21.96 12.8997C21.9865 12.6035 22 12.3035 22 12.0002C22 9.6935 21.2188 7.56925 19.9068 5.87725L19.9048 5.8775ZM8.71983 15.7385L8.57784 15.9643C8.28434 16.4313 7.75836 16.6995 7.20812 16.6628L5.59941 16.5555C5.06617 16.52 4.58944 16.205 4.35519 15.7247C4.28844 15.588 4.22519 15.4493 4.1657 15.3085C4.02995 14.9875 3.9147 14.6603 3.8202 14.3275C3.67171 13.8043 3.81795 13.2412 4.20269 12.8567L5.28492 11.7745C5.68891 11.3705 6.28739 11.231 6.82838 11.415L7.30962 11.5787C7.75911 11.7317 8.10985 12.0885 8.25484 12.5405L8.87783 14.482C9.01307 14.9038 8.95533 15.3635 8.71958 15.7385H8.71983ZM9.12482 9.93325C8.72983 10.224 8.21734 10.303 7.75311 10.145L7.27887 9.98375C6.78313 9.81525 6.41114 9.40025 6.29764 8.889L5.89715 7.08725C5.78216 6.5695 5.94915 6.0295 6.33614 5.667C6.40839 5.59925 6.47164 5.54175 6.51514 5.505C6.81563 5.25075 7.13187 5.0185 7.46286 4.8095C7.95235 4.50025 8.57459 4.49525 9.06532 4.802L10.5433 5.72575C10.9818 5.99975 11.2483 6.4805 11.2483 6.99775V7.61275C11.2483 8.08975 11.0213 8.53825 10.637 8.821L9.12482 9.9335V9.93325ZM14.3632 18.2872L13.8402 19.557C13.6225 20.086 13.123 20.4463 12.5522 20.4828C12.3685 20.4945 12.184 20.5005 11.9982 20.5005C11.8125 20.5005 11.628 20.4945 11.4443 20.4828C10.8735 20.4463 10.374 20.0858 10.1563 19.557L9.63331 18.2872C9.44856 17.8387 9.49231 17.3285 9.75031 16.918L9.8858 16.7025C10.1603 16.2658 10.64 16.0008 11.1558 16.0008H12.8407C13.3565 16.0008 13.8362 16.2658 14.1107 16.7025L14.2462 16.918C14.5042 17.3288 14.5479 17.8387 14.3632 18.2872ZM13.3595 8.82075C12.9752 8.538 12.7482 8.0895 12.7482 7.6125V6.9975C12.7482 6.48025 13.0147 5.9995 13.4532 5.7255L14.9312 4.80175C15.4222 4.495 16.0444 4.5 16.5336 4.80925C16.8646 5.0185 17.1809 5.2505 17.4814 5.50475C17.5249 5.5415 17.5879 5.599 17.6604 5.66675C18.0473 6.02925 18.2143 6.56925 18.0993 7.087L17.6989 8.88875C17.5854 9.4 17.2134 9.815 16.7176 9.9835L16.2434 10.1447C15.7789 10.3027 15.2667 10.2235 14.8717 9.933L13.3595 8.8205V8.82075ZM20.176 14.3278C20.0815 14.6603 19.9666 14.9878 19.8306 15.3088C19.7711 15.4495 19.7078 15.5883 19.6411 15.725C19.4066 16.2053 18.9298 16.5203 18.3968 16.5558L16.7881 16.663C16.2379 16.6998 15.7119 16.4315 15.4184 15.9645L15.2764 15.7388C15.0407 15.3638 14.9829 14.904 15.1182 14.4823L15.7412 12.5407C15.8862 12.0885 16.2369 11.7318 16.6864 11.579L17.1676 11.4152C17.7086 11.2312 18.3071 11.3707 18.7111 11.7747L19.7933 12.857C20.178 13.2418 20.3243 13.8045 20.1758 14.3278H20.176Z" fill="currentColor" />
</svg>
