<?xml version="1.0" encoding="UTF-8"?>
<svg xmlns:svg="http://www.w3.org/2000/svg" viewBox="0 0 24 24" fill="none">
<svg:path d="M12 4C12.352 4 12.7042 4.18625 12.8857 4.55875L14.4408 7.74925C14.7293 8.34125 15.2858 8.75125 15.929 8.84575L19.4015 9.35675C20.2134 9.47625 20.5369 10.491 19.9484 11.072L17.4429 13.545C16.9749 14.007 16.7612 14.674 16.8719 15.3275L17.4639 18.8225C17.5739 19.472 17.0661 20 16.4899 20C16.3384 20 16.1822 19.9635 16.0312 19.883L12.9172 18.2253C12.63 18.0723 12.315 17.996 12 17.996C11.685 17.996 11.37 18.0725 11.0828 18.2253L7.96878 19.883C7.8178 19.9635 7.66156 20 7.51007 20C6.93386 20 6.42614 19.472 6.53614 18.8225L7.12809 15.3275C7.23884 14.674 7.0251 14.007 6.55713 13.545L4.05156 11.072C3.4631 10.491 3.78658 9.47625 4.59852 9.35675L8.07103 8.84575C8.71423 8.751 9.27069 8.341 9.55917 7.74925L11.1143 4.55875C11.2958 4.18625 11.648 4 12 4ZM12 2.5C11.0433 2.5 10.1874 3.037 9.76616 3.9015L8.21102 7.092C8.13952 7.2385 8.00578 7.33925 7.85279 7.36175L4.38029 7.87275C3.44135 8.011 2.67391 8.66 2.37693 9.567C2.07795 10.4805 2.31593 11.4662 2.99814 12.1395L5.50371 14.6125C5.6242 14.7313 5.6787 14.905 5.64945 15.077L5.05749 18.572C4.93325 19.3053 5.13498 20.0487 5.6112 20.6123C6.08792 21.1765 6.77987 21.5 7.51032 21.5C7.91179 21.5 8.31401 21.3987 8.67373 21.2072L11.7878 19.5495C11.8543 19.514 11.9258 19.496 12 19.496C12.0742 19.496 12.1457 19.514 12.2122 19.5495L15.3263 21.2072C15.686 21.3987 16.0885 21.5 16.4897 21.5C17.2199 21.5 17.9121 21.1765 18.3888 20.6123C18.8648 20.0487 19.0665 19.3053 18.9425 18.572L18.3505 15.077C18.3213 14.905 18.376 14.7315 18.4963 14.6125L21.0019 12.1395C21.6841 11.4662 21.922 10.4805 21.6231 9.567C21.3261 8.66 20.5586 8.01075 19.6197 7.87275L16.1472 7.36175C15.9942 7.33925 15.8605 7.2385 15.789 7.092L14.2338 3.9015C13.8126 3.037 12.9564 2.5 12 2.5Z" fill="currentColor" />
</svg>
