<svg width="24" height="24" viewBox="0 0 24 24" fill="none" xmlns="http://www.w3.org/2000/svg">
<path d="M21.25 11.25C16.5555 11.25 12.75 7.4445 12.75 2.75C12.75 2.33575 12.4143 2 12 2C11.5858 2 11.25 2.33575 11.25 2.75C11.25 7.4445 7.4445 11.25 2.75 11.25C2.33575 11.25 2 11.5858 2 12C2 12.4143 2.33575 12.75 2.75 12.75C7.4445 12.75 11.25 16.5555 11.25 21.25C11.25 21.6643 11.5858 22 12 22C12.4143 22 12.75 21.6643 12.75 21.25C12.75 16.5555 16.5555 12.75 21.25 12.75C21.6643 12.75 22 12.4143 22 12C22 11.5858 21.6643 11.25 21.25 11.25Z" fill="black"/>
</svg>
