<svg width="24" height="24" viewBox="0 0 24 24" fill="none" xmlns="http://www.w3.org/2000/svg">
<path fill-rule="evenodd" clip-rule="evenodd" d="M15.3083 4.16725C14.2613 3.7245 13.1482 3.5 12 3.5C10.8518 3.5 9.73875 3.7245 8.69175 4.16725C7.67975 4.59525 6.7705 5.2085 5.9895 5.9895C5.2085 6.7705 4.59525 7.67975 4.16725 8.69175C3.7245 9.7385 3.5 10.8515 3.5 11.9997C3.5 13.148 3.7245 14.261 4.16725 15.308C4.59525 16.32 5.2085 17.2292 5.9895 18.0102C6.7705 18.7912 7.67975 19.4045 8.69175 19.8325C9.73875 20.2753 10.8518 20.4998 12 20.4998C13.1482 20.4998 14.2613 20.2753 15.3083 19.8325C16.3203 19.4045 17.2295 18.7912 18.0105 18.0102C18.7915 17.2292 19.4048 16.32 19.8328 15.308C20.2755 14.261 20.5 13.1477 20.5 11.9997C20.5 10.8518 20.2755 9.73875 19.8328 8.69175C19.4048 7.67975 18.7915 6.7705 18.0105 5.9895C17.2295 5.2085 16.3203 4.59525 15.3083 4.16725ZM2 12C2 6.47725 6.47725 2 12 2C17.5228 2 22 6.47725 22 12C22 17.5228 17.5228 22 12 22C6.47725 22 2 17.5228 2 12ZM12 6.75C11.496 6.75 11.0436 7.02949 10.8191 7.47948L9.92363 9.27419C9.86738 9.38694 9.75814 9.46519 9.63114 9.48344L7.63177 9.77093C7.12905 9.84318 6.71982 10.1877 6.56433 10.6699C6.40934 11.1504 6.53908 11.6671 6.90306 12.0181L8.34572 13.4091C8.43597 13.4963 8.47747 13.6213 8.45622 13.7438L8.11549 15.7098C8.04924 16.0925 8.15374 16.4815 8.40247 16.777C8.65546 17.0778 9.02443 17.25 9.41491 17.25C9.6249 17.25 9.83588 17.198 10.0251 17.0998L11.818 16.1673C11.8738 16.1383 11.9368 16.1228 12 16.1228C12.0632 16.1228 12.1262 16.138 12.182 16.1673L13.9749 17.0998C14.1639 17.198 14.3749 17.25 14.5851 17.25C14.9756 17.25 15.3445 17.0775 15.5975 16.777C15.8463 16.4813 15.951 16.0923 15.8845 15.7098L15.5438 13.7438C15.5225 13.6213 15.5638 13.4963 15.6543 13.4091L17.0969 12.0181C17.4609 11.6671 17.5907 11.1506 17.4357 10.6699C17.2799 10.1877 16.871 9.84343 16.3682 9.77093L14.3689 9.48344C14.2421 9.46519 14.1326 9.38694 14.0764 9.27419L13.1809 7.47948C12.9564 7.02949 12.504 6.75 12 6.75Z" fill="black"/>
</svg>
