<svg width="24" height="24" viewBox="0 0 24 24" fill="none" xmlns="http://www.w3.org/2000/svg">
<path d="M12 3.5C12.4143 3.5 12.75 3.83575 12.75 4.25C12.75 8.116 15.884 11.25 19.75 11.25C20.1643 11.25 20.5 11.5858 20.5 12C20.5 12.4143 20.1643 12.75 19.75 12.75C15.884 12.75 12.75 15.884 12.75 19.75C12.75 20.1643 12.4143 20.5 12 20.5C11.5858 20.5 11.25 20.1643 11.25 19.75C11.25 15.884 8.116 12.75 4.25 12.75C3.83575 12.75 3.5 12.4143 3.5 12C3.5 11.5858 3.83575 11.25 4.25 11.25C8.116 11.25 11.25 8.116 11.25 4.25C11.25 3.83575 11.5858 3.5 12 3.5ZM12 2C10.7593 2 9.75 3.00925 9.75 4.25C9.75 5.719 9.178 7.10025 8.139 8.139C7.1 9.17775 5.719 9.75 4.25 9.75C3.00925 9.75 2 10.7593 2 12C2 13.2408 3.00925 14.25 4.25 14.25C5.719 14.25 7.10025 14.822 8.139 15.861C9.17775 16.9 9.75 18.281 9.75 19.75C9.75 20.9908 10.7593 22 12 22C13.2408 22 14.25 20.9908 14.25 19.75C14.25 18.281 14.822 16.8998 15.861 15.861C16.8998 14.8223 18.281 14.25 19.75 14.25C20.9908 14.25 22 13.2408 22 12C22 10.7593 20.9908 9.75 19.75 9.75C18.281 9.75 16.8998 9.178 15.861 8.139C14.8223 7.10025 14.25 5.719 14.25 4.25C14.25 3.00925 13.2408 2 12 2Z" fill="black"/>
</svg>
