<svg width="24" height="24" viewBox="0 0 24 24" fill="none" xmlns="http://www.w3.org/2000/svg">
<path fill-rule="evenodd" clip-rule="evenodd" d="M12.8857 4.55875C12.7042 4.18625 12.352 4 12 4V17.996C12.315 17.996 12.63 18.0723 12.9172 18.2253L16.0312 19.883C16.1822 19.9635 16.3384 20 16.4899 20C17.0661 20 17.5739 19.472 17.4639 18.8225L16.8719 15.3275C16.7612 14.674 16.9749 14.007 17.4429 13.545L19.9484 11.072C20.5369 10.491 20.2134 9.47625 19.4015 9.35675L15.929 8.84575C15.2858 8.75125 14.7293 8.34125 14.4408 7.74925L12.8857 4.55875ZM9.76616 3.9015C10.1874 3.037 11.0433 2.5 12 2.5C12.9564 2.5 13.8126 3.037 14.2338 3.9015L15.789 7.092C15.8605 7.2385 15.9942 7.33925 16.1472 7.36175L19.6197 7.87275C20.5586 8.01075 21.3261 8.66 21.6231 9.567C21.922 10.4805 21.6841 11.4662 21.0019 12.1395L18.4963 14.6125C18.376 14.7315 18.3213 14.905 18.3506 15.077L18.9425 18.572C19.0665 19.3053 18.8648 20.0488 18.3888 20.6123C17.9121 21.1765 17.2199 21.5 16.4897 21.5C16.0885 21.5 15.686 21.3987 15.3263 21.2072L12.2122 19.5495C12.1457 19.514 12.0742 19.496 12 19.496C11.9258 19.496 11.8543 19.514 11.7878 19.5495L8.67374 21.2072C8.31401 21.3987 7.91179 21.5 7.51032 21.5C6.77987 21.5 6.08792 21.1765 5.6112 20.6123C5.13499 20.0488 4.93325 19.3053 5.05749 18.572L5.64945 15.077C5.6787 14.905 5.6242 14.7313 5.50371 14.6125L2.99814 12.1395C2.31593 11.4662 2.07795 10.4805 2.37693 9.567C2.67391 8.66 3.44135 8.011 4.38029 7.87275L7.85279 7.36175C8.00578 7.33925 8.13952 7.2385 8.21102 7.092L9.76616 3.9015Z" fill="black"/>
</svg>
