<?xml version="1.0" encoding="UTF-8"?>
<svg xmlns:svg="http://www.w3.org/2000/svg" viewBox="0 0 24 24" fill="none">
<svg:path d="M12 2.5C11.0433 2.5 10.1874 3.037 9.76616 3.9015L8.21102 7.092C8.13952 7.2385 8.00578 7.33925 7.85279 7.36175L4.38029 7.87275C3.44135 8.011 2.67391 8.66 2.37693 9.567C2.07795 10.4805 2.31593 11.4662 2.99814 12.1395L5.50371 14.6125C5.6242 14.7313 5.6787 14.905 5.64945 15.077L5.05749 18.572C4.93325 19.3053 5.13499 20.0487 5.6112 20.6123C6.08792 21.1765 6.77987 21.5 7.51032 21.5C7.91179 21.5 8.31401 21.3987 8.67374 21.2072L11.7878 19.5495C11.8543 19.514 11.9258 19.496 12 19.496C12.0742 19.496 12.1457 19.514 12.2122 19.5495L15.3263 21.2072C15.686 21.3987 16.0885 21.5 16.4897 21.5C17.2199 21.5 17.9121 21.1765 18.3888 20.6123C18.8648 20.0487 19.0665 19.3053 18.9425 18.572L18.3506 15.077C18.3213 14.905 18.376 14.7315 18.4963 14.6125L21.0019 12.1395C21.6841 11.4662 21.922 10.4805 21.6231 9.567C21.3261 8.66 20.5586 8.01075 19.6197 7.87275L16.1472 7.36175C15.9942 7.33925 15.8605 7.2385 15.789 7.092L14.2338 3.9015C13.8126 3.037 12.9564 2.5 12 2.5Z" fill="currentColor" />
</svg>
