<svg width="24" height="24" viewBox="0 0 24 24" fill="none" xmlns="http://www.w3.org/2000/svg">
<g clip-path="url(#clip0_1_689)">
<path fill-rule="evenodd" clip-rule="evenodd" d="M13.2288 19.4467C12.6888 19.9867 12.337 20.6702 12.2115 21.4235H12.2113L12.1153 22H7.00004C4.79079 22 3.00004 20.2092 3.00004 18V11.299C2.94029 11.2342 2.88229 11.1675 2.82654 11.0982C2.11079 10.2062 1.84229 9.05375 2.09029 7.93675L2.58229 5.71975C2.81554 4.66875 3.40604 3.71875 4.24504 3.045C5.08404 2.37125 6.13879 2 7.21454 2H16.7855C17.8613 2 18.916 2.371 19.755 3.045C20.594 3.71875 21.1845 4.66875 21.4178 5.71975L21.9098 7.93675C22.1578 9.05375 21.8893 10.206 21.1735 11.0982C21.1178 11.1675 21.0598 11.2342 21 11.299V12.16C20.943 12.1795 20.8863 12.2007 20.83 12.2235C20.408 12.3947 20.03 12.6455 19.7065 12.969L19.3073 13.3682L18.5608 14.1147L17.893 14.7825L13.2288 19.4467ZM9.50404 8V8.75H9.50379C9.50379 9.99075 10.5113 11 11.75 11H12.2493C13.4878 11 14.4955 9.99075 14.4955 8.75V8C14.4955 7.58575 14.8313 7.25 15.2455 7.25C15.6598 7.25 15.9955 7.58575 15.9955 8V8.75C15.9955 9.99075 17.003 11 18.2418 11H18.252C18.9363 11 19.5745 10.6935 20.003 10.1595C20.4328 9.624 20.5938 8.93225 20.445 8.26175L19.953 6.04475C19.7935 5.3255 19.3895 4.6755 18.8155 4.2145C18.2418 3.75375 17.5208 3.5 16.7853 3.5H7.21429C6.47879 3.5 5.75779 3.75375 5.18404 4.2145C4.61029 4.6755 4.20629 5.3255 4.04654 6.04475L3.55454 8.26175C3.40579 8.93225 3.56679 9.624 3.99654 10.1595C4.42529 10.6937 5.06329 11 5.74754 11H5.75779C6.99629 11 8.00404 9.99075 8.00404 8.75V8C8.00404 7.58575 8.33979 7.25 8.75404 7.25C9.16829 7.25 9.50404 7.58575 9.50404 8ZM22.6926 17.4856L23.4454 16.7328C24.1849 15.9933 24.1849 14.7944 23.4454 14.0546C22.7059 13.3151 21.5069 13.3151 20.7671 14.0546L20.0143 14.8074L22.6926 17.4856ZM19.3076 15.5146L14.2898 20.5323C13.974 20.848 13.7647 21.2545 13.6912 21.695L13.515 22.7522C13.3942 23.4772 14.0228 24.106 14.7478 23.985L15.805 23.8087C16.2455 23.7352 16.652 23.5262 16.9678 23.2102L21.9856 18.1926L19.3076 15.5146Z" fill="black"/>
</g>
<defs>
<clipPath id="clip0_1_689">
<rect width="24" height="24" fill="white"/>
</clipPath>
</defs>
</svg>
