<svg width="24" height="24" viewBox="0 0 24 24" fill="none" xmlns="http://www.w3.org/2000/svg">
<path fill-rule="evenodd" clip-rule="evenodd" d="M15.9961 8.74975V7.99975C15.9961 7.5855 15.6606 7.24975 15.2468 7.24975C14.8331 7.24975 14.4976 7.5855 14.4976 7.99975V8.74975C14.4976 9.9905 13.4893 10.9997 12.25 10.9997H11.7505C10.5112 10.9997 9.50294 9.9905 9.50294 8.74975V7.99975C9.50294 7.5855 9.16744 7.24975 8.75368 7.24975C8.33992 7.24975 8.00441 7.5855 8.00441 7.99975V8.74975C8.00441 9.9905 6.99614 10.9997 5.75686 10.9997H5.74661C5.06134 10.9997 4.42233 10.6927 3.99357 10.1578C3.56481 9.6225 3.40406 8.9315 3.55281 8.26175L4.04482 6.04475C4.20458 5.3255 4.60858 4.67575 5.1826 4.21475C5.75661 3.75375 6.47813 3.5 7.21389 3.5H16.7861C17.5221 3.5 18.2434 3.754 18.8174 4.21475C19.3914 4.67575 19.7954 5.32575 19.9552 6.04475L20.4472 8.26175C20.5959 8.9315 20.4352 9.6225 20.0064 10.1578C19.9807 10.19 19.9542 10.2212 19.9269 10.2517C19.6594 10.551 19.6652 11.0043 19.9489 11.2883L19.9494 11.2887C20.2532 11.5925 20.7497 11.5793 21.0367 11.2595C21.0842 11.2068 21.1302 11.1523 21.175 11.0965C21.8897 10.2045 22.1575 9.05275 21.9097 7.9365L21.4177 5.7195C21.1845 4.6685 20.5939 3.7185 19.7549 3.04475C18.9159 2.371 17.8616 2 16.7861 2H7.21389C6.13837 2 5.08384 2.371 4.24508 3.04475C3.40631 3.7185 2.81554 4.6685 2.58229 5.7195L2.09028 7.9365C1.84252 9.05275 2.11028 10.2045 2.82504 11.0965C2.88124 11.1666 2.9396 11.2344 3 11.2998V18C3 20.2093 4.79075 22 7 22H11.25C11.6643 22 12 21.6643 12 21.25C12 20.8358 11.6643 20.5 11.25 20.5H7C5.61925 20.5 4.5 19.3807 4.5 18V12.288C4.8948 12.427 5.31533 12.5 5.74686 12.5H5.75711C6.98114 12.5 8.06991 11.9093 8.75393 10.9978C9.43794 11.9095 10.5267 12.5 11.7507 12.5H12.2503C13.4743 12.5 14.5631 11.9093 15.2471 10.9978C15.4566 11.2773 15.7043 11.5262 15.9821 11.7377C16.2811 11.9652 16.7021 11.9383 16.9676 11.6725C17.2901 11.35 17.2504 10.819 16.8871 10.543C16.3461 10.1317 15.9961 9.48125 15.9961 8.75025V8.74975ZM23.443 19.2711L22.9262 18.9763C22.555 18.7646 22.555 18.2354 22.9262 18.0237L23.443 17.7289C23.9757 17.4252 24.1582 16.7525 23.8505 16.2263L23.2937 15.2736C22.9862 14.7476 22.3053 14.5671 21.7725 14.8709L21.2558 15.1656C20.8846 15.3773 20.4206 15.1126 20.4206 14.6894V14.0999C20.4206 13.4925 19.9221 13 19.3069 13H18.1931C17.5782 13 17.0794 13.4925 17.0794 14.0999V14.6894C17.0794 15.1129 16.6154 15.3773 16.2442 15.1656L15.7275 14.8709C15.1947 14.5671 14.5138 14.7474 14.2063 15.2736L13.6495 16.2263C13.342 16.7522 13.5245 17.4249 14.057 17.7289L14.5738 18.0237C14.945 18.2354 14.945 18.7646 14.5738 18.9763L14.057 19.2711C13.5243 19.5748 13.3418 20.2475 13.6495 20.7737L14.2063 21.7264C14.5138 22.2524 15.1947 22.4329 15.7275 22.1291L16.2442 21.8344C16.6154 21.6227 17.0794 21.8874 17.0794 22.3106V22.9001C17.0794 23.5075 17.5779 24 18.1931 24H19.3069C19.9218 24 20.4206 23.5075 20.4206 22.9001V22.3106C20.4206 21.8871 20.8846 21.6227 21.2558 21.8344L21.7725 22.1291C22.3053 22.4329 22.9862 22.2526 23.2937 21.7264L23.8505 20.7737C24.158 20.2478 23.9755 19.5751 23.443 19.2711ZM18.7501 20.3333C17.7397 20.3333 16.9207 19.5126 16.9207 18.5001C16.9207 17.4877 17.7397 16.667 18.7501 16.667C19.7606 16.667 20.5796 17.4877 20.5796 18.5001C20.5796 19.5126 19.7606 20.3333 18.7501 20.3333Z" fill="black"/>
</svg>
