<?xml version="1.0" encoding="UTF-8"?>
<svg xmlns:svg="http://www.w3.org/2000/svg" viewBox="0 0 24 24" fill="none">
<svg:g clipPath="url(#clip0_1_684)">
<svg:path d="M12.0893 19.554C11.909 20.2267 12.0035 20.9287 12.3553 21.5305V21.5307L12.6295 22H7.00004C4.79079 22 3.00004 20.2093 3.00004 18V11.299C2.94029 11.2343 2.88229 11.1675 2.82654 11.0982C2.11079 10.2063 1.84229 9.05375 2.09029 7.93675L2.58229 5.71975C2.81554 4.66875 3.40604 3.71875 4.24504 3.045C5.08404 2.37125 6.13879 2 7.21454 2H16.7855C17.8613 2 18.916 2.371 19.755 3.045C20.594 3.71875 21.1845 4.66875 21.4178 5.71975L21.9098 7.93675C22.1578 9.05375 21.8893 10.206 21.1735 11.0982C21.1178 11.1675 21.0598 11.2343 21 11.299V12.1212C20.5435 11.734 19.9523 11.5 19.3068 11.5H18.1933C17.04 11.5 16.059 12.247 15.713 13.2802C15.5358 13.2427 15.3545 13.2235 15.1723 13.2235C14.7248 13.2235 14.282 13.3385 13.8918 13.5563C13.4855 13.783 13.1468 14.1152 12.912 14.5167L12.3553 15.4695C12.0035 16.0712 11.909 16.7733 12.0893 17.446C12.1958 17.843 12.39 18.2015 12.656 18.5C12.39 18.7985 12.1958 19.1567 12.0893 19.554ZM9.50404 7.99975V8.74975H9.50379C9.50379 9.9905 10.5113 10.9997 11.75 10.9997H12.2493C13.4878 10.9997 14.4955 9.9905 14.4955 8.74975V7.99975C14.4955 7.5855 14.8313 7.24975 15.2455 7.24975C15.6598 7.24975 15.9955 7.5855 15.9955 7.99975V8.74975C15.9955 9.9905 17.003 10.9997 18.2418 10.9997H18.252C18.9363 10.9997 19.5745 10.6932 20.003 10.1592C20.4328 9.62375 20.5938 8.932 20.445 8.2615L19.953 6.0445C19.7935 5.32525 19.3895 4.67525 18.8155 4.21425C18.2418 3.7535 17.5208 3.49975 16.7853 3.49975H7.21429C6.47879 3.49975 5.75779 3.7535 5.18404 4.21425C4.61029 4.67525 4.20629 5.32525 4.04654 6.0445L3.55454 8.2615C3.40579 8.932 3.56679 9.62375 3.99654 10.1592C4.42529 10.6935 5.06329 10.9997 5.74754 10.9997H5.75779C6.99629 10.9997 8.00404 9.9905 8.00404 8.74975V7.99975C8.00404 7.5855 8.33979 7.24975 8.75404 7.24975C9.16829 7.24975 9.50404 7.5855 9.50404 7.99975ZM22.9263 18.9763L23.443 19.2711C23.9755 19.5751 24.158 20.2478 23.8505 20.7737L23.2938 21.7264C22.9863 22.2526 22.3053 22.4329 21.7726 22.1291L21.2558 21.8344C20.8846 21.6227 20.4206 21.8871 20.4206 22.3106V22.9001C20.4206 23.5075 19.9219 24 19.3069 24H18.1932C17.578 24 17.0795 23.5075 17.0795 22.9001V22.3106C17.0795 21.8874 16.6155 21.6227 16.2442 21.8344L15.7275 22.1291C15.1948 22.4329 14.5138 22.2524 14.2063 21.7264L13.6496 20.7737C13.3418 20.2475 13.5243 19.5748 14.0571 19.2711L14.5738 18.9763C14.945 18.7646 14.945 18.2354 14.5738 18.0237L14.0571 17.7289C13.5246 17.4249 13.3421 16.7522 13.6496 16.2263L14.2063 15.2736C14.5138 14.7474 15.1948 14.5671 15.7275 14.8709L16.2442 15.1656C16.6155 15.3773 17.0795 15.1129 17.0795 14.6894V14.0999C17.0795 13.4925 17.5782 13 18.1932 13H19.3069C19.9221 13 20.4206 13.4925 20.4206 14.0999V14.6894C20.4206 15.1126 20.8846 15.3773 21.2558 15.1656L21.7726 14.8709C22.3053 14.5671 22.9863 14.7476 23.2938 15.2736L23.8505 16.2263C24.1582 16.7525 23.9758 17.4252 23.443 17.7289L22.9263 18.0237C22.555 18.2354 22.555 18.7646 22.9263 18.9763ZM16.9207 18.5001C16.9207 19.5126 17.7397 20.3333 18.7502 20.3333C19.7606 20.3333 20.5796 19.5126 20.5796 18.5001C20.5796 17.4877 19.7606 16.667 18.7502 16.667C17.7397 16.667 16.9207 17.4877 16.9207 18.5001Z" fill="currentColor" fillRule="evenodd" clipRule="evenodd" />
</svg:g>
<svg:defs>
<svg:clipPath id="clip0_1_684">
<svg:rect width="24" height="24" fill="currentColor" />
</svg:clipPath>
</svg:defs>
</svg>
