<?xml version="1.0" encoding="UTF-8"?>
<svg xmlns:svg="http://www.w3.org/2000/svg" viewBox="0 0 24 24" fill="none">
<svg:path d="M12.2503 12.5C12.5586 12.5 12.8581 12.4625 13.1446 12.3918C13.7969 11.7843 14.5511 11.3118 15.3887 10.9868C15.8894 10.7925 16.4067 10.6563 16.9352 10.5783C16.3669 10.1696 15.9962 9.50232 15.9962 8.75009V8.00011C15.9962 7.58587 15.6607 7.25013 15.2469 7.25013C14.8331 7.25013 14.4976 7.58587 14.4976 8.00011V8.75009C14.4976 9.99081 13.4894 11 12.2501 11H11.7506C10.5113 11 9.50299 9.99081 9.50299 8.75009V8.00011C9.50299 7.58587 9.16748 7.25013 8.75372 7.25013C8.33996 7.25013 8.00445 7.58587 8.00445 8.00011V8.75009C8.00445 9.99081 6.99617 11 5.75688 11H5.74663C5.06136 11 4.42234 10.693 3.99358 10.1581C3.56482 9.62282 3.40407 8.93184 3.55282 8.2621L4.04483 6.04515C4.20459 5.32592 4.6086 4.67619 5.18262 4.2152C5.75663 3.75421 6.47815 3.50046 7.21392 3.50046H16.7859C17.522 3.50046 18.2432 3.75446 18.8173 4.2152C19.3913 4.67619 19.7953 5.32617 19.955 6.04515L20.447 8.2621C20.5638 8.78834 20.4898 9.32758 20.2445 9.79406C20.2358 9.81081 20.2193 9.83581 20.1968 9.86656C19.9088 10.2616 20.0808 10.8218 20.5415 10.985C20.5445 10.9861 20.5475 10.9871 20.5505 10.9881C20.554 10.9894 20.5574 10.9906 20.5608 10.9918C20.8848 11.107 21.2456 10.9813 21.4256 10.6883C21.5691 10.4548 21.7188 10.1896 21.7838 10.0073C22.0176 9.35183 22.0653 8.63709 21.9096 7.93636L21.4176 5.71941C21.1843 4.66844 20.5938 3.71846 19.7548 3.04473C18.9158 2.37099 17.8615 2 16.7859 2H7.21392C6.13839 2 5.08386 2.37099 4.24509 3.04473C3.40607 3.71846 2.81555 4.66844 2.58229 5.71941L2.09028 7.93636C1.84252 9.05258 2.11028 10.2043 2.82505 11.0963C2.88125 11.1664 2.93961 11.2342 3 11.2996V18C3 20.2093 4.79075 22 7 22H11.4573C12.0438 22 12.3907 21.3498 12.0707 20.8583L12.0588 20.8395C11.9225 20.6288 11.69 20.5 11.439 20.5H11.4387H7C5.61925 20.5 4.5 19.3807 4.5 18V12.2877C4.8948 12.4267 5.31535 12.4997 5.74688 12.4997H5.75713C6.98117 12.4997 8.06995 11.909 8.75372 10.9975C9.43774 11.909 10.5265 12.4997 11.7506 12.4997H12.2501L12.2503 12.5ZM15.2471 10.9978C15.2471 10.9978 15.2484 10.9993 15.2489 11H15.2454C15.2454 11 15.2457 10.9996 15.2461 10.9991C15.2465 10.9987 15.2469 10.9981 15.2471 10.9978ZM21.8893 13.541C22.414 14.043 22.8205 14.6288 23.0973 15.2818C23.3645 15.9123 23.5 16.5783 23.5 17.2616C23.5 17.9449 23.3645 18.6109 23.0973 19.2414C22.8205 19.8944 22.414 20.4799 21.8893 20.9822L19.2542 23.503C18.9192 23.8235 18.4738 24 18 24C17.5262 24 17.0808 23.8235 16.7458 23.503L14.1107 20.9822C13.586 20.4802 13.1795 19.8944 12.9027 19.2414C12.6355 18.6109 12.5 17.9449 12.5 17.2616C12.5 16.5783 12.6355 15.9123 12.9027 15.2818C13.1795 14.6288 13.586 14.0433 14.1107 13.541C14.6358 13.039 15.248 12.65 15.9305 12.3853C16.5483 12.1457 17.1989 12.0167 17.8663 12.0015C17.9108 12.0005 17.9554 12 18 12H18.0003L18.0084 12C18.0502 12.0001 18.092 12.0006 18.1337 12.0015C18.8011 12.0167 19.4517 12.1455 20.0695 12.3853C20.7523 12.65 21.3645 13.0388 21.8893 13.541ZM15.75 16.4998C15.75 17.7406 16.7593 18.7499 18 18.7499C19.2408 18.7499 20.25 17.7406 20.25 16.4998C20.25 15.2591 19.2408 14.2498 18 14.2498C16.7593 14.2498 15.75 15.2591 15.75 16.4998Z" fill="currentColor" fillRule="evenodd" clipRule="evenodd" />
</svg>
