<svg width="24" height="24" viewBox="0 0 24 24" fill="none" xmlns="http://www.w3.org/2000/svg">
<path fill-rule="evenodd" clip-rule="evenodd" d="M11 17.2617C11 18.147 11.1755 19.01 11.5218 19.8267C11.8668 20.6402 12.366 21.3708 13.0065 22H7.00004C4.79079 22 3.00004 20.2092 3.00004 18V11.299C2.94029 11.2342 2.88229 11.1675 2.82654 11.0983C2.11079 10.2063 1.84229 9.05375 2.09029 7.93675L2.58229 5.71975C2.81554 4.66875 3.40604 3.71875 4.24504 3.045C5.08404 2.37125 6.13879 2 7.21454 2H16.7855C17.8613 2 18.916 2.371 19.755 3.045C20.594 3.71875 21.1845 4.66875 21.4178 5.71975L21.9098 7.93675C22.0633 8.62875 22.0188 9.33425 21.7925 9.983C21.7323 10.1565 21.5745 10.4357 21.424 10.6827C21.244 10.9782 20.8815 11.106 20.5558 10.9902C20.5495 10.988 20.543 10.9858 20.5365 10.9835C20.076 10.8205 19.9003 10.2585 20.1903 9.86525C20.226 9.8165 20.2523 9.77725 20.2648 9.75225C20.4925 9.2955 20.5588 8.7725 20.4455 8.262L19.9535 6.045C19.794 5.32575 19.39 4.67575 18.816 4.21475C18.2423 3.754 17.5213 3.50025 16.7858 3.50025H7.21479C6.47929 3.50025 5.75829 3.754 5.18454 4.21475C4.61079 4.67575 4.20679 5.32575 4.04704 6.045L3.55504 8.262C3.40629 8.9325 3.56729 9.62425 3.99704 10.1598C4.42579 10.694 5.06379 11.0003 5.74804 11.0003H5.75829C6.99679 11.0003 8.00454 9.991 8.00454 8.75025V8.00025C8.00454 7.579 8.35179 7.239 8.77554 7.2505C9.18404 7.26175 9.50454 7.607 9.50454 8.01575V8.75025C9.50454 9.991 10.512 11.0003 11.7508 11.0003H12.25C13.4885 11.0003 14.4963 9.991 14.4963 8.75025V8.00025C14.4963 7.579 14.8435 7.23875 15.2673 7.2505C15.6758 7.26175 15.9963 7.607 15.9963 8.01575V8.75025C15.9963 9.5025 16.3668 10.1698 16.9348 10.5785C16.406 10.6565 15.8888 10.7928 15.388 10.987C14.5208 11.3235 13.742 11.8182 13.074 12.4575C12.4008 13.1015 11.8785 13.8547 11.5218 14.6967C11.1755 15.5132 11 16.3765 11 17.2617ZM21.8893 13.5413C22.414 14.0433 22.8205 14.629 23.0973 15.282C23.3645 15.9125 23.5 16.5785 23.5 17.2617C23.5 17.945 23.3645 18.611 23.0973 19.2415C22.8205 19.8945 22.414 20.48 21.8893 20.9823L19.2543 23.503C18.9193 23.8235 18.4738 24 18 24C17.5263 24 17.0808 23.8235 16.7458 23.503L14.1108 20.9823C13.586 20.4802 13.1795 19.8945 12.9028 19.2415C12.6355 18.611 12.5 17.945 12.5 17.2617C12.5 16.5785 12.6355 15.9125 12.9028 15.282C13.1795 14.629 13.586 14.0435 14.1108 13.5413C14.6358 13.0393 15.248 12.6503 15.9305 12.3855C16.5895 12.13 17.2858 12.0003 18 12.0003C18.7143 12.0003 19.4105 12.1298 20.0695 12.3855C20.7523 12.6503 21.3645 13.039 21.8893 13.5413ZM15.75 16.5C15.75 17.7408 16.7593 18.75 18 18.75C19.2408 18.75 20.25 17.7408 20.25 16.5C20.25 15.2592 19.2408 14.25 18 14.25C16.7593 14.25 15.75 15.2592 15.75 16.5Z" fill="black"/>
</svg>
