<?xml version="1.0" encoding="UTF-8"?>
<svg xmlns:svg="http://www.w3.org/2000/svg" viewBox="0 0 24 24" fill="none">
<svg:path d="M2.825 11.0965C2.88121 11.1667 2.93959 11.2345 3 11.2999V18C3 20.2093 4.79075 22 7 22H17C19.2093 22 21 20.2093 21 18V11.2998C21.0604 11.2344 21.1188 11.1666 21.175 11.0965C21.8897 10.2045 22.1575 9.05275 21.9097 7.9365L21.4177 5.7195C21.1845 4.6685 20.594 3.7185 19.755 3.04475C18.9159 2.371 17.8614 2 16.7859 2H7.21405C6.13828 2 5.08403 2.371 4.24502 3.04475C3.40601 3.7185 2.81549 4.6685 2.58224 5.7195L2.09024 7.9365C1.84249 9.05275 2.1105 10.2045 2.825 11.0965ZM15.9964 8V8.75C15.9964 9.99075 17.0047 11 18.2439 11H18.2542C18.9394 11 19.5784 10.693 20.0072 10.158C20.436 9.62275 20.5967 8.93175 20.448 8.262L19.956 6.045C19.7962 5.32575 19.3922 4.676 18.8182 4.215C18.2442 3.754 17.5227 3.50025 16.7869 3.50025H7.21505C6.47904 3.50025 5.75778 3.75425 5.18377 4.215C4.60977 4.676 4.20577 5.326 4.04601 6.045L3.554 8.262C3.40525 8.93175 3.566 9.62275 3.99476 10.158C4.42351 10.6933 5.06252 11 5.74778 11H5.75803C6.9973 11 8.00556 9.99075 8.00556 8.75V8C8.00556 7.58575 8.34107 7.25 8.75482 7.25C9.16858 7.25 9.50407 7.58575 9.50407 8V8.75C9.50407 9.99075 10.5123 11 11.7516 11H12.2511C13.4904 11 14.4986 9.99075 14.4986 8.75V8C14.4986 7.58575 14.8341 7.25 15.2479 7.25C15.6616 7.25 15.9972 7.58575 15.9972 8H15.9964ZM12.75 15C12.75 14.5858 12.4142 14.25 12 14.25C11.5858 14.25 11.25 14.5858 11.25 15V18C11.25 18.4142 11.5858 18.75 12 18.75C12.4142 18.75 12.75 18.4142 12.75 18V15Z" fill="currentColor" fillRule="evenodd" clipRule="evenodd" />
</svg>
