<svg width="24" height="24" viewBox="0 0 24 24" fill="none" xmlns="http://www.w3.org/2000/svg">
<path fill-rule="evenodd" clip-rule="evenodd" d="M4.20403 11.7367C6.03695 9.45818 8.84822 8 12 8C15.1519 8 17.9633 9.45832 19.7962 11.737C20.2317 11.287 20.5 10.6743 20.5 10C20.5 8.6215 19.3785 7.5 18 7.5C17.7158 7.5 17.4372 7.54725 17.172 7.64025C17.008 7.69775 16.8403 7.72525 16.6755 7.72525C16.0695 7.72525 15.5003 7.35525 15.2733 6.7575C15.024 6.101 14.5865 5.53925 14.0082 5.133C13.4188 4.719 12.7245 4.5 12.0002 4.5C11.276 4.5 10.5817 4.719 9.99225 5.133C9.41425 5.539 8.97675 6.10075 8.72725 6.7575C8.50025 7.3555 7.931 7.72525 7.325 7.72525C7.16025 7.72525 6.99275 7.69775 6.8285 7.64025C6.56325 7.54725 6.28475 7.5 6.0005 7.5C4.622 7.5 3.5005 8.6215 3.5005 10C3.5005 10.674 3.76872 11.2866 4.20403 11.7367ZM20.6565 12.9903C21.4807 12.2577 22 11.1895 22 10C22 7.79075 20.2093 6 18 6C17.5358 6 17.09 6.0795 16.6753 6.22475C15.9593 4.33975 14.1363 3 12 3C9.86375 3 8.04075 4.33975 7.32475 6.22475C6.91025 6.07925 6.4645 6 6 6C3.79075 6 2 7.79075 2 10C2 11.1895 2.51928 12.2576 3.3435 12.9903C2.48914 14.4634 2 16.1746 2 18C2 19.6568 3.34325 21 5 21H19C20.6568 21 22 19.6568 22 18C22 16.1746 21.5109 14.4634 20.6565 12.9903ZM7.28025 16.7803L7.78025 16.2803H7.7805C8.0735 15.9873 8.0735 15.5125 7.7805 15.2195C7.4875 14.9265 7.01275 14.9265 6.71975 15.2195L6.21975 15.7195C5.92675 16.0125 5.92675 16.4873 6.21975 16.7803C6.366 16.9268 6.55825 17 6.75 17C6.94175 17 7.13375 16.9268 7.28025 16.7803ZM10.25 14C10.4418 14 10.6338 13.9268 10.7802 13.7803H10.7805C11.0735 13.4873 11.0735 13.0125 10.7805 12.7195L10.2805 12.2195C9.9875 11.9265 9.51275 11.9265 9.21975 12.2195C8.92675 12.5125 8.92675 12.9873 9.21975 13.2803L9.71975 13.7803C9.866 13.9268 10.0582 14 10.25 14ZM14.2803 13.7803L14.7803 13.2803H14.7805C15.0735 12.9873 15.0735 12.5125 14.7805 12.2195C14.4875 11.9265 14.0127 11.9265 13.7197 12.2195L13.2197 12.7195C12.9268 13.0125 12.9268 13.4873 13.2197 13.7803C13.366 13.9268 13.5583 14 13.75 14C13.9417 14 14.1338 13.9268 14.2803 13.7803ZM17.25 17C17.4417 17 17.6338 16.9268 17.7803 16.7803H17.7805C18.0735 16.4873 18.0735 16.0125 17.7805 15.7195L17.2805 15.2195C16.9875 14.9265 16.5127 14.9265 16.2197 15.2195C15.9268 15.5125 15.9268 15.9873 16.2197 16.2803L16.7197 16.7803C16.866 16.9268 17.0583 17 17.25 17Z" fill="black"/>
</svg>
