<?xml version="1.0" encoding="UTF-8"?>
<svg xmlns:svg="http://www.w3.org/2000/svg" viewBox="0 0 24 24" fill="none">
<svg:path d="M4.20414 11.7366C6.03706 9.45813 8.84828 8 12 8C15.152 8 17.9635 9.45843 19.7964 11.7373C20.2319 11.2872 20.5002 10.6745 20.5002 10.0003C20.5002 8.62175 19.3787 7.50025 18.0002 7.50025C17.716 7.50025 17.4375 7.5475 17.1722 7.6405C17.0082 7.698 16.8405 7.7255 16.6757 7.7255C16.0697 7.7255 15.5005 7.3555 15.2735 6.75775C15.0243 6.10125 14.5867 5.5395 14.0085 5.13325C13.419 4.71925 12.7248 4.50025 12.0005 4.50025C11.2763 4.50025 10.582 4.71925 9.9925 5.13325C9.4145 5.53925 8.977 6.101 8.7275 6.75775C8.5005 7.35575 7.93125 7.7255 7.32525 7.7255C7.1605 7.7255 6.993 7.698 6.82875 7.6405C6.5635 7.5475 6.285 7.50025 6.00075 7.50025C4.62225 7.50025 3.50075 8.62175 3.50075 10.0003C3.50075 10.6741 3.76898 11.2865 4.20414 11.7366ZM20.6566 12.9905C21.4808 12.2577 22 11.1896 22 10C22 7.79075 20.2093 6 18 6C17.5358 6 17.09 6.0795 16.6752 6.22475C15.9592 4.33975 14.1363 3 12 3C9.86375 3 8.04075 4.33975 7.32475 6.22475C6.91025 6.07925 6.4645 6 6 6C3.79075 6 2 7.79075 2 10C2 11.1894 2.51924 12.2577 3.34339 12.9905C2.4891 14.4635 2 16.1746 2 18C2 19.6568 3.34325 21 5 21H19C20.6568 21 22 19.6568 22 18C22 16.1746 21.5109 14.4635 20.6566 12.9905ZM15.308 10.1673C14.2613 9.7245 13.1482 9.5 12 9.5C10.8518 9.5 9.73875 9.7245 8.69175 10.1673C7.67975 10.5953 6.7705 11.2085 5.9895 11.9895C5.2085 12.7705 4.59525 13.6798 4.16725 14.6917C3.7245 15.7385 3.5 16.8515 3.5 17.9997C3.5 18.8268 4.173 19.4998 5 19.4998H18.9998C19.8268 19.4998 20.4998 18.8268 20.4998 17.9997C20.4998 16.8518 20.2753 15.7387 19.8325 14.6917C19.4045 13.6798 18.7912 12.7705 18.0102 11.9895C17.2292 11.2085 16.32 10.5953 15.308 10.1673ZM6.74991 17C6.55793 17 6.36595 16.9268 6.21972 16.7803C5.92676 16.4873 5.92676 16.0126 6.21972 15.7197L6.71966 15.2197C7.01262 14.9268 7.48731 14.9268 7.78028 15.2197C8.07324 15.5127 8.07324 15.9874 7.78028 16.2803L7.28034 16.7803C7.13386 16.9268 6.94188 17 6.75016 17H6.74991ZM13.2197 13.7803C13.366 13.9268 13.5579 14 13.7499 14H13.7502C13.9419 14 14.1339 13.9268 14.2803 13.7803L14.7803 13.2803C15.0732 12.9874 15.0732 12.5127 14.7803 12.2197C14.4873 11.9268 14.0126 11.9268 13.7197 12.2197L13.2197 12.7197C12.9268 13.0126 12.9268 13.4873 13.2197 13.7803ZM17.2498 17C17.0579 17 16.8659 16.9268 16.7197 16.7803L16.2197 16.2803C15.9268 15.9874 15.9268 15.5127 16.2197 15.2197C16.5127 14.9268 16.9874 14.9268 17.2803 15.2197L17.7803 15.7197C18.0732 16.0126 18.0732 16.4873 17.7803 16.7803C17.6338 16.9268 17.4418 17 17.2501 17H17.2498ZM9.71966 13.7803C9.86589 13.9268 10.0579 14 10.2498 14H10.2501C10.4418 14 10.6338 13.9268 10.7803 13.7803C11.0732 13.4873 11.0732 13.0126 10.7803 12.7197L10.2803 12.2197C9.98738 11.9268 9.51269 11.9268 9.21972 12.2197C8.92676 12.5127 8.92676 12.9874 9.21972 13.2803L9.71966 13.7803Z" fill="currentColor" fillRule="evenodd" clipRule="evenodd" />
</svg>
