<?xml version="1.0" encoding="UTF-8"?>
<svg xmlns:svg="http://www.w3.org/2000/svg" viewBox="0 0 24 24" fill="none">
<svg:path d="M19.333 9.75015C18.8827 9.53466 18.3058 9.36016 17.5735 9.21791L17.4168 8.87466C17.4057 8.85066 17.395 8.82692 17.3839 8.80342L17.3696 8.77292L17.3684 8.77042L17.3671 8.76792C17.2714 8.56492 17.1605 8.40717 17.0846 8.30067V7.74318C17.0846 6.98069 17.0126 6.21345 16.8705 5.46271L16.8647 5.43171L16.8587 5.40646C16.8529 5.38096 16.8469 5.35146 16.8414 5.32221C16.872 5.16446 16.8792 5.00371 16.8622 4.84396C16.8777 4.66547 16.8599 4.52947 16.8519 4.46672L16.8467 4.42722L16.8394 4.38797C16.7509 3.90898 16.4475 3.49623 16.0075 3.25598C15.829 3.15849 15.6342 3.09099 15.4123 3.04949C15.2343 3.01624 15.038 2.99999 14.8119 2.99999C14.7938 2.99999 14.778 2.99999 14.7645 2.99999H14.7525H14.7349H14.7344C14.7201 2.99999 14.7038 2.99999 14.6863 2.99999C14.5381 2.99999 14.3137 3.00524 14.0765 3.05099C14.0743 3.05149 14.0723 3.05199 14.07 3.05249C13.9246 2.72774 13.6734 2.45324 13.3472 2.27275C13.1619 2.17025 12.9586 2.09875 12.7257 2.0545C12.5324 2.01775 12.317 2 12.0676 2C12.045 2 12.0252 2 12.0086 2.00025H11.9944H11.9939H11.9786C11.9658 2.00025 11.9507 2.00025 11.9337 2.00025C11.6872 2.00025 11.4746 2.017 11.2836 2.05175C11.0519 2.09375 10.8499 2.16175 10.6656 2.2595C10.3271 2.43924 10.0666 2.71774 9.9172 3.04999C9.68229 3.00524 9.46041 2.99999 9.31374 2.99999C9.29594 2.99999 9.27964 2.99999 9.2651 2.99999H9.2473H9.23577C9.22223 2.99999 9.20618 2.99999 9.18788 2.99999C8.96199 2.99999 8.76543 3.01624 8.58742 3.04949C8.36554 3.09099 8.17074 3.15849 7.99223 3.25598C7.55198 3.49623 7.24887 3.90873 7.16037 4.38772L7.1531 4.42697L7.14783 4.46647C7.12953 4.60772 7.12878 4.73347 7.13755 4.84246C7.1205 5.00246 7.12777 5.16396 7.15836 5.32196C7.15284 5.35121 7.14683 5.38071 7.14106 5.40646L7.13404 5.43646L7.12928 5.46246C6.98712 6.21345 6.91517 6.98069 6.91517 7.74343V8.30117C6.83945 8.40767 6.72839 8.56542 6.63262 8.76867L6.63136 8.77117L6.63011 8.77367L6.61582 8.80417C6.60529 8.82666 6.59451 8.84991 6.58373 8.87341L6.42703 9.21641C5.69445 9.35841 5.11731 9.53316 4.66703 9.7489C3.43402 10.3396 3.25 11.2276 3.25 11.7044C3.25 12.0769 3.36182 12.6324 3.89483 13.1621C4.1473 13.4131 4.46571 13.6311 4.86785 13.8286C5.19929 13.9914 5.58614 14.1373 6.01586 14.2628C5.66461 18.9228 5.60319 19.7503 5.59241 19.9388H5.59141C5.5726 20.3758 5.73256 20.7938 6.04169 21.1155C6.35834 21.445 6.74468 21.5833 7.00793 21.6588C7.27369 21.735 7.60538 21.7955 8.02207 21.844C8.9121 21.9475 10.2504 22 12.0001 22C13.7499 22 15.0821 21.9483 15.9697 21.8458C16.8304 21.7465 17.4957 21.5868 17.9445 21.1295C18.2537 20.8148 18.4189 20.4035 18.4098 19.9713H18.4096C18.4046 19.8518 18.3617 19.2648 17.9844 14.2631C18.4139 14.1378 18.8005 13.9924 19.1314 13.8301C19.5343 13.6326 19.8532 13.4141 20.1059 13.1626C20.6384 12.6329 20.75 12.0771 20.75 11.7041C20.75 11.2276 20.5657 10.3401 19.3325 9.74965L19.333 9.75015ZM14.6266 9.37566C14.6286 9.37566 14.6306 9.37566 14.6324 9.37591C14.589 9.24166 14.5336 9.10491 14.4664 8.96966C14.3954 8.82741 14.314 8.70867 14.2392 8.60717C14.2249 8.58642 14.2112 8.56667 14.1979 8.54767C14.161 8.49542 14.1287 8.44942 14.1079 8.40717C14.0512 8.29192 14.0226 8.15317 14.0226 8.00743V7.28218C14.0226 7.08919 14.0191 6.89269 14.0086 6.69594C14.0016 6.55694 14.0086 6.41469 14.0264 6.2757C14.057 6.04495 14.0908 5.8672 14.1124 5.75445L14.1151 5.7402C14.1151 5.7402 14.2357 5.21496 14.1718 5.10671C14.1156 5.01146 14.15 4.96071 14.1926 4.89696L14.2044 4.87946L14.2109 4.86946C14.2217 4.85596 14.2287 4.84246 14.2357 4.82546C14.2357 4.82421 14.2357 4.82296 14.236 4.82146L14.2365 4.81871C14.237 4.81646 14.2372 4.81421 14.2372 4.81196C14.2372 4.80971 14.2367 4.80746 14.2357 4.80521C14.2322 4.79846 14.2252 4.79846 14.2179 4.79496C14.1931 4.78472 14.1613 4.77122 14.1505 4.74422C14.14 4.71722 14.1435 4.68672 14.147 4.65947C14.1746 4.51022 14.5145 4.49997 14.6868 4.49997C14.7021 4.49997 14.7158 4.49997 14.7281 4.49997H14.7537H14.7735C14.7843 4.49997 14.7973 4.49997 14.8121 4.49997C14.9718 4.49997 15.3329 4.51022 15.3604 4.65947C15.3639 4.68672 15.3674 4.71697 15.3569 4.74422C15.3484 4.76597 15.3263 4.77672 15.305 4.78722L15.3033 4.78797C15.2985 4.79022 15.294 4.79271 15.2895 4.79496C15.2825 4.79496 15.2752 4.80171 15.2717 4.80521C15.2704 4.80771 15.2699 4.81046 15.2702 4.81296C15.2702 4.81496 15.2707 4.81696 15.2709 4.81871L15.2714 4.82121C15.2714 4.82271 15.2717 4.82396 15.2717 4.82546C15.2737 4.83021 15.2759 4.83471 15.2784 4.83896C15.281 4.84371 15.284 4.84821 15.2867 4.85271C15.2905 4.85846 15.2937 4.86396 15.2967 4.86946C15.3025 4.87771 15.308 4.88571 15.3135 4.89346C15.3599 4.95871 15.396 5.00971 15.3359 5.10671C15.2719 5.21521 15.3925 5.7402 15.3925 5.7402C15.4457 6.02145 15.5806 6.76344 15.5806 7.74268V8.36267C15.5806 8.55242 15.6197 8.74567 15.7011 8.92166C15.7428 9.00616 15.7972 9.08241 15.8513 9.15866C15.908 9.23841 15.9646 9.31791 16.0063 9.40616L16.0206 9.43666C16.0296 9.45616 16.0389 9.47591 16.0479 9.49566M10.5299 9.24616C10.5793 9.14491 10.6445 9.05366 10.7092 8.96316C10.7749 8.87116 10.8401 8.77992 10.8882 8.67917C10.9875 8.47542 11.0301 8.25142 11.0301 8.02717V7.30043C11.0301 6.1527 11.1863 5.28321 11.25 4.95396C11.25 4.95396 11.3884 4.33922 11.3139 4.21022C11.2472 4.09772 11.2886 4.03697 11.3413 3.95948C11.3475 3.95048 11.3538 3.94123 11.3601 3.93173C11.3708 3.91473 11.3814 3.89773 11.3884 3.88073C11.3884 3.87848 11.3886 3.87598 11.3891 3.87348C11.3899 3.86773 11.3909 3.86173 11.3884 3.85698C11.3849 3.85023 11.3741 3.84348 11.3671 3.84348C11.3387 3.82998 11.2996 3.81623 11.2856 3.78573C11.2713 3.75523 11.2748 3.71773 11.2821 3.68723C11.3164 3.51073 11.7529 3.50023 11.9339 3.50023C11.948 3.50023 11.9605 3.50023 11.971 3.50023H11.9916H11.9951C12.0114 3.50023 12.0365 3.49998 12.0681 3.49998C12.2571 3.49998 12.6713 3.51248 12.7046 3.68723C12.7116 3.71773 12.7152 3.75523 12.7011 3.78573C12.7011 3.78573 12.6728 3.82548 12.6467 3.83748L12.6339 3.84348C12.6269 3.84698 12.6161 3.85023 12.6126 3.85698C12.6079 3.86173 12.6096 3.86773 12.6111 3.87348C12.6119 3.87598 12.6126 3.87848 12.6126 3.88073C12.6196 3.89773 12.6304 3.91473 12.6409 3.93173C12.6477 3.94198 12.6545 3.95198 12.661 3.96148C12.7129 4.03722 12.753 4.09547 12.6871 4.21022C12.6091 4.33922 12.751 4.95396 12.751 4.95396L12.7515 4.95621C12.8122 5.28721 12.9711 6.1552 12.9711 7.30043V8.02717C12.9711 8.25117 13.0138 8.47542 13.113 8.67917C13.1634 8.78242 13.2291 8.87516 13.2948 8.96766C13.3587 9.05766 13.4222 9.14741 13.4713 9.24616C13.4838 9.27191 13.4959 9.29766 13.5077 9.32341C13.5114 9.32341 13.5152 9.32366 13.5189 9.32391C13.0321 9.30816 12.5251 9.29991 12.0011 9.29991C11.4771 9.29991 10.9747 9.30791 10.4901 9.32341C10.4921 9.32341 10.4936 9.32341 10.4936 9.32341C10.5056 9.29741 10.5177 9.27141 10.5304 9.24616H10.5299ZM7.9802 9.43791L7.99449 9.40741C8.03611 9.31916 8.09277 9.23941 8.14943 9.15991C8.20358 9.08366 8.25799 9.00741 8.29961 8.92291C8.38134 8.74667 8.4202 8.55342 8.4202 8.36367V7.74343C8.4202 6.76419 8.55508 6.02195 8.60823 5.7407C8.60823 5.7407 8.72883 5.21546 8.66489 5.10696C8.60472 5.00996 8.64083 4.95921 8.68721 4.89371C8.69272 4.88596 8.69824 4.87796 8.70401 4.86971C8.70676 4.86421 8.71027 4.85871 8.71403 4.85296C8.71679 4.84846 8.71955 4.84396 8.72231 4.83921C8.72481 4.83496 8.72707 4.83046 8.72908 4.82571C8.72908 4.82421 8.72908 4.82296 8.72933 4.82146L8.72983 4.81896C8.73008 4.81696 8.73058 4.81496 8.73058 4.81321C8.73058 4.81072 8.73058 4.80797 8.72908 4.80547C8.72557 4.80197 8.7183 4.79522 8.71128 4.79522C8.70676 4.79272 8.70225 4.79047 8.69749 4.78822L8.69573 4.78747C8.67442 4.77697 8.65236 4.76622 8.64383 4.74447C8.6333 4.71747 8.63681 4.68697 8.64032 4.65972C8.6679 4.51047 9.02893 4.50022 9.18863 4.50022C9.20342 4.50022 9.21646 4.50022 9.22724 4.50022H9.24705H9.27262C9.28491 4.50022 9.2987 4.50022 9.31399 4.50022C9.48623 4.50022 9.8262 4.51047 9.85377 4.65972C9.85728 4.68697 9.86079 4.71722 9.85026 4.74447C9.83948 4.77172 9.80764 4.78522 9.78282 4.79522C9.7758 4.79872 9.76853 4.79872 9.76502 4.80547C9.76377 4.80772 9.76352 4.80996 9.76352 4.81221C9.76352 4.81446 9.76402 4.81671 9.76427 4.81896L9.76477 4.82171C9.76477 4.82296 9.76502 4.82446 9.76502 4.82571C9.77204 4.84271 9.77931 4.85621 9.78984 4.86971L9.79636 4.87971L9.80814 4.89721C9.85102 4.96096 9.88511 5.01171 9.82895 5.10696C9.76502 5.21546 9.88561 5.7407 9.88561 5.7407L9.88837 5.75495C9.90993 5.8677 9.94378 6.04545 9.97437 6.2762C9.99217 6.41519 9.99919 6.55744 9.99217 6.69644C9.98164 6.89294 9.97788 7.08944 9.97788 7.28268V8.00793C9.97788 8.15367 9.94955 8.29267 9.89263 8.40792C9.87183 8.45017 9.83948 8.49617 9.80263 8.54842C9.78934 8.56742 9.77555 8.58717 9.76126 8.60792C9.6868 8.70967 9.60507 8.82816 9.53411 8.97041C9.46717 9.10541 9.41177 9.24191 9.36839 9.37566C9.36965 9.37566 9.37115 9.37566 9.37266 9.37566C8.87073 9.40641 8.39613 9.44666 7.95362 9.49566H7.95337C7.96215 9.47641 7.97117 9.45716 7.97995 9.43816L7.9802 9.43791ZM16.3876 13.0854C16.3876 13.0854 16.9063 19.9625 16.9063 20.0028C16.9098 20.1708 16.4122 20.5 12.0006 20.5C7.58909 20.5 7.08791 20.1675 7.09493 20.0028C7.09493 19.9658 7.61366 13.0854 7.61366 13.0854C5.87722 12.7999 4.75503 12.2254 4.75503 11.7046C4.75503 10.7941 7.96315 10.3004 12.0006 10.3004C16.0381 10.3004 19.2462 10.7976 19.2462 11.7046C19.2462 12.2286 18.124 12.7999 16.3876 13.0854Z" fill="currentColor" />
</svg>
