<?xml version="1.0" encoding="UTF-8"?>
<svg xmlns:svg="http://www.w3.org/2000/svg" viewBox="0 0 24 24" fill="none">
<svg:path d="M12.0005 8.99733C12.6351 8.99734 13.2477 9.00759 13.8351 9.02734C13.7991 8.92707 13.7564 8.82855 13.7084 8.73003C13.6514 8.61425 13.5774 8.50923 13.5031 8.40396C13.4266 8.29569 13.3501 8.18692 13.2916 8.06589C13.1761 7.82734 13.1266 7.56479 13.1266 7.30224V6.45106C13.1266 5.11079 12.942 4.09498 12.8713 3.70634L12.8713 3.70633L12.8711 3.70525L12.8706 3.70275C12.8706 3.70275 12.7056 2.98285 12.7964 2.83182C12.8733 2.69784 12.8266 2.62932 12.7662 2.5406L12.7661 2.54051C12.7584 2.52926 12.7506 2.51775 12.7426 2.5055L12.7418 2.5042L12.7418 2.5042C12.7298 2.48487 12.7177 2.4653 12.7096 2.44574C12.7096 2.44324 12.7089 2.44024 12.7079 2.43724L12.7077 2.43665C12.706 2.43029 12.704 2.42308 12.7096 2.41798C12.7128 2.41154 12.7216 2.40769 12.7292 2.40435C12.731 2.40354 12.7328 2.40276 12.7344 2.40198L12.7494 2.39498C12.7799 2.38098 12.8129 2.33447 12.8129 2.33447C12.8294 2.29871 12.8251 2.25495 12.8169 2.21919C12.7741 1.99481 12.1982 1.99896 12.0201 2.00025C12.0089 2.00033 11.9992 2.0004 11.9914 2.0004H11.9634C11.7909 1.9994 11.2049 1.9964 11.1619 2.21919C11.1536 2.25495 11.1496 2.29871 11.1661 2.33447C11.1803 2.36517 11.2158 2.3813 11.2465 2.39522C11.2516 2.39752 11.2565 2.39975 11.2611 2.40198C11.2694 2.40198 11.2819 2.40998 11.2859 2.41798C11.2886 2.42349 11.2876 2.43074 11.2866 2.43724C11.2861 2.44024 11.2859 2.44324 11.2859 2.44574C11.2783 2.46406 11.2672 2.48218 11.256 2.50047L11.2529 2.5055C11.2456 2.51675 11.2384 2.52751 11.2311 2.53801L11.2311 2.53806C11.1699 2.62855 11.1217 2.69981 11.1994 2.83157C11.2861 2.9826 11.1251 3.7025 11.1251 3.7025C11.0509 4.08833 10.8691 5.10654 10.8691 6.45106V7.30224C10.8691 7.56479 10.8196 7.82734 10.7041 8.06589C10.6484 8.18347 10.5727 8.29013 10.4968 8.39724L10.4959 8.39846C10.4204 8.50473 10.3447 8.6115 10.2872 8.73003C10.2392 8.82555 10.1964 8.92607 10.1602 9.02734C10.749 9.00759 11.3636 8.99734 12.0005 8.99733ZM9.33132 9.06185L9.33114 9.0626L9.33139 9.06185L9.33132 9.06185ZM9.58338 8.38596C9.47101 8.61225 9.38608 8.84228 9.33132 9.06185C8.73786 9.0926 8.17489 9.13411 7.64741 9.18587C7.67866 9.1006 7.71716 9.01709 7.75491 8.93607L7.77166 8.90006C7.82066 8.79604 7.88716 8.70227 7.95391 8.6085L7.95607 8.60546C8.0191 8.51671 8.08221 8.42784 8.13065 8.32945C8.22665 8.1219 8.27265 7.89436 8.27265 7.67081V6.94041C8.27265 5.78717 8.4314 4.913 8.4939 4.58168C8.4939 4.58168 8.6359 3.96305 8.56065 3.83527C8.48991 3.72127 8.53238 3.66126 8.58686 3.58427L8.5869 3.58422C8.59221 3.57687 8.59752 3.56918 8.60296 3.5613L8.60297 3.56128L8.60298 3.56127L8.60665 3.55597C8.60945 3.55037 8.61299 3.54476 8.61664 3.539L8.61665 3.53898L8.61666 3.53897L8.6184 3.53621C8.61924 3.53482 8.62011 3.53338 8.62101 3.53191L8.62101 3.53191C8.62332 3.52813 8.62574 3.52417 8.6279 3.52021L8.62791 3.52019L8.62791 3.52018L8.62791 3.52018C8.63066 3.51494 8.6334 3.5097 8.63565 3.50421C8.63565 3.50265 8.63584 3.50129 8.63606 3.49978L8.63606 3.49978L8.63615 3.49921L8.63665 3.4962C8.63715 3.49395 8.63765 3.4917 8.63765 3.48945C8.6379 3.48645 8.6374 3.4832 8.6359 3.4802C8.63165 3.4762 8.62315 3.4682 8.6149 3.4682C8.60965 3.46545 8.60415 3.4627 8.59865 3.45995L8.5964 3.45895C8.5714 3.44669 8.5454 3.43394 8.5354 3.40844C8.5229 3.37643 8.5269 3.34067 8.53115 3.30867C8.56665 3.11663 9.06989 3.11988 9.22164 3.12088H9.24514H9.27539C9.45314 3.11988 9.92388 3.11738 9.95913 3.30867C9.96313 3.34067 9.96738 3.37643 9.95488 3.40844C9.94238 3.44019 9.90488 3.4562 9.87563 3.4682C9.87316 3.4694 9.87069 3.47024 9.86833 3.47104C9.8628 3.47292 9.85786 3.4746 9.85488 3.4802C9.85338 3.48295 9.85288 3.48545 9.85288 3.4882C9.85288 3.49074 9.8533 3.49307 9.85376 3.49557L9.85388 3.4962L9.85438 3.49946C9.85488 3.5012 9.85488 3.5027 9.85488 3.5042V3.50421C9.86338 3.52421 9.87163 3.54021 9.88413 3.55622L9.89188 3.56797L9.90563 3.58872L9.90568 3.5888C9.95591 3.66378 9.9961 3.72379 9.93013 3.83577C9.85488 3.96355 9.99688 4.58218 9.99688 4.58218L10.0001 4.59893L10.0011 4.60385L10.0011 4.60388L10.0011 4.60394C10.0264 4.73695 10.0658 4.9444 10.1014 5.21281C10.1221 5.37634 10.1304 5.54387 10.1221 5.70766C10.1096 5.93921 10.1054 6.1705 10.1054 6.39805V7.25222C10.1054 7.42401 10.0719 7.58754 10.0051 7.72332C9.98063 7.77308 9.94263 7.82734 9.89938 7.88886C9.88363 7.91111 9.86738 7.93437 9.85063 7.95887C9.76288 8.07864 9.66688 8.21842 9.58338 8.38596ZM20.5 11.6501C20.5 10.5827 16.7366 9.99754 12.0001 9.99754H11.9999C7.26344 9.99754 3.5 10.5787 3.5 11.6501C3.5 12.263 4.81673 12.9389 6.8537 13.275C6.8537 13.275 6.24521 21.3714 6.24521 21.4149C6.23696 21.6087 6.82495 22 12.0001 22C17.1753 22 17.759 21.6127 17.755 21.4149C17.755 21.3676 17.1463 13.275 17.1463 13.275C19.1835 12.9389 20.5 12.2668 20.5 11.6501ZM13.8948 7.25248V6.3983L13.8951 6.3988C13.8951 6.1715 13.8908 5.93996 13.8783 5.70841C13.8698 5.54488 13.8783 5.37709 13.8991 5.21356C13.9347 4.94457 13.9743 4.73643 13.9996 4.60348L14.0003 4.59968L14.0036 4.58293C14.0036 4.58293 14.1456 3.9643 14.0703 3.83653C14.0044 3.72442 14.0445 3.66467 14.0946 3.58982L14.0948 3.58947L14.1086 3.56872L14.1163 3.55697C14.1288 3.54096 14.1373 3.52496 14.1456 3.50496C14.1456 3.50356 14.1459 3.50233 14.146 3.50113C14.1461 3.50082 14.1461 3.50051 14.1461 3.50021L14.1466 3.49696L14.1467 3.49632C14.1472 3.49382 14.1476 3.49149 14.1476 3.48895C14.1473 3.4862 14.1468 3.4837 14.1456 3.48095C14.1428 3.47535 14.1378 3.47367 14.1322 3.4718C14.1298 3.47099 14.1273 3.47015 14.1248 3.46895C14.0956 3.4572 14.0581 3.44119 14.0456 3.40919C14.0331 3.37718 14.0371 3.34142 14.0413 3.30942C14.0766 3.11798 14.5468 3.12063 14.7248 3.12163L14.7251 3.12163H14.7553H14.7788C14.9306 3.12063 15.4338 3.11738 15.4693 3.30942C15.4733 3.34142 15.4776 3.37718 15.4651 3.40919C15.4551 3.43469 15.4291 3.44745 15.4041 3.4597L15.4018 3.4607C15.3963 3.46345 15.3908 3.4662 15.3856 3.46895C15.3773 3.46895 15.3693 3.47652 15.3649 3.48062L15.3646 3.48095C15.3628 3.4842 15.3628 3.4872 15.3628 3.4902C15.3631 3.49245 15.3633 3.49471 15.3638 3.49696L15.3643 3.49996C15.3648 3.50171 15.3648 3.50321 15.3648 3.50496C15.3671 3.51071 15.3698 3.51596 15.3726 3.52096C15.3756 3.52646 15.3788 3.53171 15.3821 3.53696C15.3863 3.54372 15.3903 3.55022 15.3938 3.55672C15.4006 3.56647 15.4071 3.57572 15.4136 3.58497L15.4136 3.585C15.4683 3.662 15.5108 3.72176 15.4398 3.83603C15.3646 3.9638 15.5066 4.58243 15.5066 4.58243C15.5691 4.9135 15.7278 5.78768 15.7278 6.94116V7.67156C15.7278 7.89511 15.7738 8.12265 15.8698 8.3302C15.9186 8.42914 15.9824 8.51889 16.0459 8.60836L16.0466 8.60925L16.0485 8.61206C16.1144 8.70489 16.1803 8.79783 16.2288 8.90081L16.2456 8.93682C16.2836 9.01809 16.3221 9.10185 16.3533 9.18762C15.8256 9.13561 15.2626 9.0941 14.6691 9.0631C14.6146 8.8433 14.5293 8.61301 14.4168 8.38621C14.3333 8.21867 14.2373 8.0789 14.1496 7.95912C14.1328 7.93462 14.1166 7.91136 14.1008 7.88911C14.0576 7.82759 14.0196 7.77333 13.9951 7.72357C13.9283 7.58779 13.8948 7.42401 13.8948 7.25248Z" fill="currentColor" fillRule="evenodd" clipRule="evenodd" />
</svg>
