<?xml version="1.0" encoding="UTF-8"?>
<svg xmlns:svg="http://www.w3.org/2000/svg" viewBox="0 0 24 24" fill="none">
<svg:path d="M5.75 3C5.75 2.58579 5.41421 2.25 5 2.25C4.58579 2.25 4.25 2.58579 4.25 3C4.25 4.12936 5.03011 4.7118 5.49974 5.06242L5.49974 5.06242C5.51693 5.07525 5.5337 5.08777 5.55 5.1C6.08826 5.5037 6.25 5.67069 6.25 6C6.25 6.41421 6.58579 6.75 7 6.75C7.41421 6.75 7.75 6.41421 7.75 6C7.75 4.87064 6.96989 4.2882 6.50026 3.93758C6.48307 3.92475 6.4663 3.91223 6.45 3.9C5.91174 3.4963 5.75 3.32931 5.75 3ZM16.0002 9.5C16.8272 9.5 17.5002 10.173 17.5002 11V14.5C17.5002 15.3108 17.3417 16.0963 17.0292 16.835C16.7272 17.5493 16.2942 18.191 15.7427 18.7428C15.1912 19.2943 14.5495 19.727 13.835 20.0292C13.0962 20.3417 12.3107 20.5003 11.5 20.5003C10.6893 20.5003 9.90374 20.3417 9.16499 20.0292C8.45074 19.7272 7.809 19.2943 7.2575 18.7428C6.706 18.1913 6.27325 17.5495 5.971 16.835C5.6585 16.0963 5.5 15.3108 5.5 14.5V11C5.5 10.173 6.173 9.5 7 9.5H12V11.5H11.5368C10.688 11.5 10 12.188 10 13.0368V15.9632C10 16.812 10.688 17.5 11.5368 17.5H13.9632C14.812 17.5 15.5 16.812 15.5 15.9632V13.0368C15.5 12.188 14.812 11.5 13.9632 11.5H13.5V9.5H16H16.0002ZM16 8H7C5.34325 8 4 9.34325 4 11V14.5C4 18.6423 7.35775 22 11.5 22C14.5756 22 17.2187 20.1489 18.376 17.5H19.5C21.433 17.5 23 15.933 23 14C23 12.067 21.433 10.5 19.5 10.5H19C18.9861 10.5 18.9724 10.5004 18.9587 10.5011C18.7211 9.08178 17.4868 8 16 8ZM19.5 16H18.85C18.9484 15.5153 19 15.0137 19 14.5V12H19.5C20.6045 12 21.5 12.8955 21.5 14C21.5 15.1045 20.6045 16 19.5 16ZM9 2.25C9.41421 2.25 9.75 2.58579 9.75 3C9.75 3.32931 9.91174 3.4963 10.45 3.9C10.4663 3.91223 10.4831 3.92475 10.5003 3.93758C10.9699 4.2882 11.75 4.87064 11.75 6C11.75 6.41421 11.4142 6.75 11 6.75C10.5858 6.75 10.25 6.41421 10.25 6C10.25 5.67069 10.0883 5.5037 9.55 5.1C9.5337 5.08777 9.51693 5.07525 9.49974 5.06242C9.03011 4.7118 8.25 4.12936 8.25 3C8.25 2.58579 8.58579 2.25 9 2.25ZM13.75 3C13.75 2.58579 13.4142 2.25 13 2.25C12.5858 2.25 12.25 2.58579 12.25 3C12.25 4.12936 13.0301 4.7118 13.4997 5.06242C13.5169 5.07525 13.5337 5.08777 13.55 5.1C14.0883 5.5037 14.25 5.67069 14.25 6C14.25 6.41421 14.5858 6.75 15 6.75C15.4142 6.75 15.75 6.41421 15.75 6C15.75 4.87064 14.9699 4.2882 14.5003 3.93758C14.4831 3.92475 14.4663 3.91223 14.45 3.9C13.9117 3.4963 13.75 3.32931 13.75 3ZM13.9632 13.0001C13.9834 13.0001 13.9999 13.0166 13.9999 13.0368V15.9632C13.9999 15.9834 13.9834 15.9999 13.9632 15.9999H11.5368C11.5166 15.9999 11.5001 15.9834 11.5001 15.9632V13.0368C11.5001 13.0166 11.5166 13.0001 11.5368 13.0001H13.9632Z" fill="currentColor" fillRule="evenodd" clipRule="evenodd" />
</svg>
