<?xml version="1.0" encoding="UTF-8"?>
<svg xmlns:svg="http://www.w3.org/2000/svg" viewBox="0 0 24 24" fill="none">
<svg:path d="M11.4997 3.5C12.163 3.5 12.7897 3.76125 13.2639 4.23575C13.7384 4.71025 13.9996 5.33675 13.9996 6V12.7353C13.9996 13.1175 14.1456 13.4855 14.4079 13.7637C15.1118 14.5112 15.4996 15.483 15.4996 16.5C15.4996 17.517 15.0906 18.543 14.3481 19.2985C13.6064 20.0533 12.6214 20.4795 11.5747 20.499H11.5642C11.545 20.4995 11.524 20.4998 11.5022 20.4998H11.4997H11.4973C11.4755 20.4998 11.4548 20.4995 11.4353 20.499H11.4248C10.3781 20.4795 9.3931 20.0533 8.65138 19.2985C7.90891 18.543 7.49993 17.5492 7.49993 16.5C7.49993 15.4508 7.88766 14.5112 8.59163 13.7637C8.85387 13.4855 8.99986 13.1175 8.99986 12.7353V6C8.99986 5.33675 9.2611 4.71 9.73558 4.23575C10.2101 3.76125 10.8365 3.5 11.4997 3.5ZM11.4997 2C9.29985 2 7.49993 3.8 7.49993 6V12.7353C6.57122 13.7213 6 15.047 6 16.5C6 19.4905 8.41914 21.9433 11.397 21.9988C11.43 21.9995 11.463 22 11.4962 22H11.5H11.5037C11.537 22 11.57 21.9995 11.603 21.9988C14.5809 21.9435 17 19.4908 17 16.5C17 15.047 16.4288 13.721 15.5001 12.7353V6C15.5001 3.8 13.7001 2 11.5002 2H11.4997ZM12.25 6C12.25 5.58579 11.9142 5.25 11.5 5.25C11.0858 5.25 10.75 5.58579 10.75 6V14.1145C9.73572 14.433 9 15.3806 9 16.5C9 17.8807 10.1193 19 11.5 19C12.8807 19 14 17.8807 14 16.5C14 15.3806 13.2643 14.433 12.25 14.1145V6ZM18 5.25C17.5858 5.25 17.25 5.58579 17.25 6C17.25 6.41421 17.5858 6.75 18 6.75H21C21.4142 6.75 21.75 6.41421 21.75 6C21.75 5.58579 21.4142 5.25 21 5.25H18ZM19.25 12C19.25 11.5858 19.5858 11.25 20 11.25H21C21.4142 11.25 21.75 11.5858 21.75 12C21.75 12.4142 21.4142 12.75 21 12.75H20C19.5858 12.75 19.25 12.4142 19.25 12ZM20 8.25C19.5858 8.25 19.25 8.58579 19.25 9C19.25 9.41421 19.5858 9.75 20 9.75H21C21.4142 9.75 21.75 9.41421 21.75 9C21.75 8.58579 21.4142 8.25 21 8.25H20Z" fill="currentColor" fillRule="evenodd" clipRule="evenodd" />
</svg>
