<?xml version="1.0" encoding="UTF-8"?>
<svg xmlns:svg="http://www.w3.org/2000/svg" viewBox="0 0 24 24" fill="none">
<svg:path d="M15.4996 6V12.7353H15.5001C16.4288 13.721 17 15.047 17 16.5C17 19.4908 14.5809 21.9435 11.603 21.9988C11.57 21.9995 11.537 22 11.5037 22H11.5H11.4962C11.463 22 11.43 21.9995 11.397 21.9988C8.41914 21.9433 6 19.4908 6 16.5C6 15.047 6.57122 13.7213 7.49993 12.7353V6C7.49993 3.8 9.29985 2 11.4997 2C13.6996 2 15.4996 3.8 15.4996 6ZM8.99986 16.5C8.99986 17.8807 10.1191 19 11.4997 19C12.8804 19 13.9996 17.8807 13.9996 16.5C13.9996 15.3805 13.2639 14.433 12.2497 14.1145V9C12.2497 8.58575 11.914 8.25 11.4997 8.25C11.0855 8.25 10.7498 8.58575 10.7498 9V14.1145C9.73558 14.433 8.99986 15.3805 8.99986 16.5ZM18 8.25C17.5858 8.25 17.25 8.58579 17.25 9C17.25 9.41421 17.5858 9.75 18 9.75H21C21.4142 9.75 21.75 9.41421 21.75 9C21.75 8.58579 21.4142 8.25 21 8.25H18ZM19.25 12C19.25 11.5858 19.5858 11.25 20 11.25H21C21.4142 11.25 21.75 11.5858 21.75 12C21.75 12.4142 21.4142 12.75 21 12.75H20C19.5858 12.75 19.25 12.4142 19.25 12ZM20 5.25C19.5858 5.25 19.25 5.58579 19.25 6C19.25 6.41421 19.5858 6.75 20 6.75H21C21.4142 6.75 21.75 6.41421 21.75 6C21.75 5.58579 21.4142 5.25 21 5.25H20Z" fill="currentColor" fillRule="evenodd" clipRule="evenodd" />
</svg>
