<?xml version="1.0" encoding="UTF-8"?>
<svg xmlns:svg="http://www.w3.org/2000/svg" viewBox="0 0 24 24" fill="none">
<svg:path d="M6 13.5C6.827 13.5 7.5 12.827 7.5 12V4.5H5C4.173 4.5 3.5 5.173 3.5 6V12C3.5 12.827 4.173 13.5 5 13.5H6ZM7.5 3H9H16.2075C17.248 3 18.2372 3.33125 19.0677 3.95774H19.068C19.8987 4.58448 20.489 5.44447 20.7748 6.44496L21.8532 10.2197C22.1795 11.3614 21.9565 12.5601 21.2413 13.5081C20.5263 14.4561 19.435 14.9999 18.2475 14.9999H16.421C16.1885 14.9999 15.973 15.1051 15.8298 15.2883C15.6868 15.4716 15.637 15.7061 15.6933 15.9318L16.57 19.439C16.7855 20.301 16.5955 21.1973 16.0488 21.8978C15.502 22.5983 14.6785 23 13.79 23C12.7122 23 11.736 22.4048 11.2425 21.4465L8.24951 15.6366C8.04999 15.2493 7.88873 14.8425 7.76763 14.4241C7.27188 14.7863 6.66088 15 6 15H5C3.34325 15 2 13.6568 2 12V6C2 4.34325 3.34325 3 5 3H7.5ZM9.58274 14.9494C9.20149 14.2091 9 13.3779 9 12.5451L9.00024 12.5456V4.50023H16.2077C16.9195 4.50023 17.5965 4.72673 18.1647 5.15547C18.733 5.58422 19.137 6.17271 19.3325 6.8572L20.411 10.6319C20.6065 11.3169 20.4727 12.0361 20.0438 12.6049C19.6148 13.1736 18.96 13.4999 18.2475 13.4999H16.421C15.7232 13.4999 15.0768 13.8151 14.6475 14.3651C14.2183 14.9149 14.069 15.6186 14.2383 16.2953L15.115 19.8025C15.2177 20.2133 15.1273 20.6405 14.8665 20.9743C14.606 21.308 14.2135 21.4995 13.79 21.4995C13.2762 21.4995 12.811 21.216 12.5758 20.7593L9.58274 14.9494Z" fill="currentColor" fillRule="evenodd" clipRule="evenodd" />
</svg>
