<?xml version="1.0" encoding="UTF-8"?>
<svg xmlns:svg="http://www.w3.org/2000/svg" viewBox="0 0 24 24" fill="none">
<svg:path d="M9 21H16.2075H16.2077C17.2482 21 18.2372 20.6688 19.068 20.0423C19.8987 19.4155 20.489 18.5555 20.7748 17.555L21.8532 13.7803C22.1795 12.6386 21.9563 11.4399 21.2413 10.4919C20.5263 9.54389 19.435 9.00015 18.2475 9.00015H16.421C16.1882 9.00015 15.973 8.8949 15.8298 8.71165C15.6865 8.52841 15.6368 8.29366 15.6933 8.06816L16.57 4.56096C16.7857 3.69872 16.5955 2.80273 16.0488 2.10224C15.502 1.40174 14.6785 1 13.79 1C12.7122 1 11.736 1.59524 11.2425 2.55348L8.24951 8.36341C8.04999 8.75074 7.88873 9.1575 7.76763 9.57587C7.27188 9.21374 6.66088 9 6 9H5C3.34325 9 2 10.3433 2 12V18C2 19.6568 3.34325 21 5 21H7.5H9ZM7.5 19.5V12C7.5 11.173 6.827 10.5 6 10.5H5C4.173 10.5 3.5 11.173 3.5 12V18C3.5 18.827 4.173 19.5 5 19.5H7.5Z" fill="currentColor" fillRule="evenodd" clipRule="evenodd" />
</svg>
