<svg width="24" height="24" viewBox="0 0 24 24" fill="none" xmlns="http://www.w3.org/2000/svg">
<path d="M15.3623 3.49998C15.3623 3.75323 15.387 4.00098 15.4316 4.24147C15.6389 5.35471 16.3026 6.31045 17.2228 6.90744C17.8637 7.32318 18.6278 7.56593 19.4477 7.56593V10.4886C17.9251 10.4886 16.5136 10.0039 15.362 9.18116V15.1206C15.362 18.0868 12.9374 20.4998 9.9572 20.4998C8.80559 20.4998 7.73735 20.1385 6.85963 19.525C5.46543 18.551 4.5519 16.9406 4.5519 15.1206C4.5519 12.1541 6.97654 9.7409 9.9567 9.7409C10.2038 9.7409 10.6802 9.7609 10.919 9.7934V12.7771C10.6885 12.7054 10.2108 12.6636 9.9567 12.6636C8.59605 12.6636 7.4885 13.7659 7.4885 15.1206C7.4885 16.0638 8.02625 16.8833 8.81185 17.2948C9.15458 17.4743 9.54362 17.5771 9.9572 17.5771C11.2866 17.5771 12.3716 16.5243 12.4209 15.2126L12.4256 3.49998H15.3623ZM15.3623 2H12.4256C11.5962 2 10.9238 2.67124 10.9236 3.49948L10.9215 8.31217C10.9103 8.31042 10.899 8.30867 10.8875 8.30717C10.5598 8.26267 10.2554 8.24117 9.9567 8.24117C6.14813 8.24117 3.0498 11.3274 3.0498 15.1208C3.0498 16.2441 3.32945 17.3598 3.85818 18.3475C4.3684 19.3003 5.10843 20.1325 5.99842 20.7543C7.1643 21.569 8.53321 22 9.9572 22C13.7658 22 16.8641 18.914 16.8641 15.1208V11.5901C17.6978 11.8546 18.5667 11.9886 19.4477 11.9886C20.2774 11.9886 20.9498 11.3171 20.9498 10.4886V7.56593C20.9498 6.73744 20.2774 6.06595 19.4477 6.06595C18.9473 6.06595 18.4608 5.92195 18.041 5.6497C17.4489 5.26571 17.0361 4.65272 16.9084 3.96823C16.8791 3.80973 16.8641 3.65223 16.8641 3.50023C16.8641 2.67174 16.1917 2.00025 15.362 2.00025L15.3623 2ZM9.95745 16.0771C9.80073 16.0771 9.65002 16.0398 9.50983 15.9663C9.18963 15.7986 8.99085 15.4746 8.99085 15.1203C8.99085 14.5926 9.42421 14.1633 9.95695 14.1633C10.0478 14.1633 10.14 14.1783 10.2388 14.2091C10.385 14.2546 10.5355 14.2768 10.6852 14.2768C10.7638 14.2768 10.8419 14.2706 10.9193 14.2586V15.1778C10.9045 15.4161 10.8014 15.6388 10.6266 15.8071C10.4459 15.9813 10.2081 16.0771 9.95745 16.0771Z" fill="black"/>
</svg>
