<?xml version="1.0" encoding="UTF-8"?>
<svg xmlns:svg="http://www.w3.org/2000/svg" viewBox="0 0 24 24" fill="none">
<svg:path d="M12 2.5C12.827 2.5 13.5 3.173 13.5 4H10.5C10.5 3.173 11.173 2.5 12 2.5ZM5.5 5.5H9H15H18.5C18.7758 5.5 19 5.72425 19 6V7C19 7.27575 18.7758 7.5 18.5 7.5H5.5C5.22425 7.5 5 7.27575 5 7V6C5 5.72425 5.22425 5.5 5.5 5.5ZM5.5 4H9C9 2.34325 10.3433 1 12 1C13.6567 1 15 2.34325 15 4H18.5C19.6045 4 20.5 4.8955 20.5 6V7C20.5 7.84424 19.9768 8.56638 19.237 8.85982C19.2493 8.92461 19.2531 8.9921 19.2475 9.06102L18.4163 19.244C18.2893 20.801 16.9886 22 15.4262 22H8.57375C7.01143 22 5.71076 20.801 5.58373 19.244L5.58373 19.244L4.75248 9.06102C4.74686 8.9921 4.75074 8.92461 4.76302 8.85982C4.0232 8.56637 3.5 7.84424 3.5 7V6C3.5 4.8955 4.3955 4 5.5 4ZM6.25249 9L7.07876 19.122L7.07877 19.122C7.14226 19.9005 7.79258 20.5 8.57375 20.5H15.4262C16.2074 20.5 16.8577 19.9005 16.9212 19.122L16.9212 19.122L17.7475 9H6.25249ZM10 11.25C10.4142 11.25 10.75 11.5858 10.75 12V17C10.75 17.4142 10.4142 17.75 10 17.75C9.58579 17.75 9.25 17.4142 9.25 17V12C9.25 11.5858 9.58579 11.25 10 11.25ZM14.75 12C14.75 11.5858 14.4142 11.25 14 11.25C13.5858 11.25 13.25 11.5858 13.25 12V17C13.25 17.4142 13.5858 17.75 14 17.75C14.4142 17.75 14.75 17.4142 14.75 17V12Z" fill="currentColor" fillRule="evenodd" clipRule="evenodd" />
</svg>
