<?xml version="1.0" encoding="UTF-8"?>
<svg xmlns:svg="http://www.w3.org/2000/svg" viewBox="0 0 24 24" fill="none">
<svg:path d="M12 2.5C12.827 2.5 13.5 3.173 13.5 4H10.5C10.5 3.173 11.173 2.5 12 2.5ZM5.5 4H9C9 2.34325 10.3433 1 12 1C13.6568 1 15 2.34325 15 4H18.5C19.6046 4 20.5 4.89543 20.5 6V7C20.5 8.10457 19.6046 9 18.5 9H5.5C4.39543 9 3.5 8.10457 3.5 7V6C3.5 4.89543 4.39543 4 5.5 4ZM4.82075 9.89825C5.041 9.949 5.2685 9.97525 5.5 9.97525H18.5C18.7315 9.97525 18.959 9.949 19.1792 9.89825L18.4162 19.2443C18.3547 19.9973 18.015 20.694 17.4595 21.206C16.9037 21.718 16.1818 22 15.4263 22H8.57375C7.818 22 7.096 21.718 6.5405 21.206C5.985 20.694 5.64525 19.9973 5.58375 19.2443L4.82075 9.89825ZM10 19.2253C10.4143 19.2253 10.75 18.8895 10.75 18.4753V13.4753C10.75 13.061 10.4143 12.7253 10 12.7253C9.58575 12.7253 9.25 13.061 9.25 13.4753V18.4753C9.25 18.8895 9.58575 19.2253 10 19.2253ZM14 19.2253C14.4143 19.2253 14.75 18.8895 14.75 18.4753V13.4753C14.75 13.061 14.4143 12.7253 14 12.7253C13.5857 12.7253 13.25 13.061 13.25 13.4753V18.4753C13.25 18.8895 13.5857 19.2253 14 19.2253Z" fill="currentColor" fillRule="evenodd" clipRule="evenodd" />
</svg>
