<?xml version="1.0" encoding="UTF-8"?>
<svg xmlns:svg="http://www.w3.org/2000/svg" viewBox="0 0 24 24" fill="none">
<svg:path d="M20.6022 12.1904L20.7651 12.3224C20.8958 12.4332 21.065 12.5 21.2498 12.5H21.25C21.5676 12.5 21.8508 12.2999 21.9569 12.0005C21.9885 11.9114 22.0024 11.8192 21.9997 11.7284C21.9881 6.35364 17.6273 2 12.2499 2H11.7499C6.36522 2 2 6.3653 2 11.75C2 12.0392 2.16623 12.3026 2.42725 12.427C2.68827 12.5514 2.99757 12.5147 3.22222 12.3327L3.47147 12.1307L3.47161 12.1306C4.84825 11.0143 6.81842 11.0143 8.19506 12.1306L8.1952 12.1307L8.44445 12.3327C8.71979 12.5558 9.11376 12.5558 9.38905 12.3325L9.70625 12.0753L9.70629 12.0753C11.0571 10.9801 12.9835 10.9572 14.3599 12.0201L14.779 12.3436C15.0598 12.5605 15.4542 12.5508 15.7241 12.3205L15.8059 12.2508L15.8059 12.2508C17.1811 11.0772 19.1978 11.0518 20.6022 12.1903L20.6022 12.1904ZM12.7499 13C12.7499 12.5858 12.4142 12.25 11.9999 12.25C11.5857 12.25 11.2499 12.5858 11.2499 13V19.25C11.2499 19.9403 10.6902 20.5 9.99997 20.5C9.30971 20.5 8.75 19.9403 8.75 19.25V18.25C8.75 17.8358 8.41421 17.5 8 17.5C7.58579 17.5 7.25 17.8358 7.25 18.25V19.25C7.25 20.7687 8.48126 22 9.99997 22C11.5187 22 12.7499 20.7687 12.7499 19.25V13Z" fill="currentColor" fillRule="evenodd" clipRule="evenodd" />
</svg>
