<?xml version="1.0" encoding="UTF-8"?>
<svg xmlns:svg="http://www.w3.org/2000/svg" viewBox="0 0 24 24" fill="none">
<svg:path d="M8.49992 7.5C8.49992 6.673 7.82693 6 6.99994 6H4.99996C4.17297 6 3.49998 6.673 3.49998 7.5V9.5C3.49998 10.327 4.17297 11 4.99996 11H6.5H6.99994C7.82693 11 8.49992 10.327 8.49992 9.5V7.5ZM2 9.5C2 10.6237 2.6179 11.6031 3.53244 12.1171C2.59301 12.9419 2 14.1517 2 15.5V16.5C2 17.6045 2.8955 18.5 4 18.5H4.04146C4.27952 19.9188 5.51356 21 6.99994 21C8.48632 21 9.72035 19.9188 9.95841 18.5H14.0415C14.2795 19.9188 15.5136 21 17 21C18.4863 21 19.7204 19.9188 19.9584 18.5H20C21.1045 18.5 22 17.6045 22 16.5C22 13.6863 19.8185 11.3545 17.011 11.1675L16 11.1001V9.372C16.2346 9.4549 16.487 9.5 16.75 9.5H18C18.8284 9.5 19.4999 8.8285 19.4999 8V6.5C19.4999 5.6715 18.8284 5 18 5H16.75C16.2971 5 15.8755 5.13376 15.5225 5.36393C15.1107 4.83798 14.4698 4.5 13.75 4.5H13.25C12.8358 4.5 12.5 4.83579 12.5 5.25C12.5 5.66421 12.8358 6 13.25 6H13.75C14.1643 6 14.5 6.33571 14.5 6.75V7.25V11H14.4997V15.75C14.4997 16.4402 13.9402 17 13.2497 17C12.5593 17 11.9995 16.4402 11.9997 15.7497V15.4997C12.0001 13.6666 10.904 12.0893 9.3314 11.388C9.74943 10.8724 9.9999 10.2154 9.9999 9.5V7.5C9.9999 5.84325 8.65667 4.5 6.99994 4.5H4.99996C3.34323 4.5 2 5.84325 2 7.5V9.5ZM18.4999 18C18.4999 17.173 17.827 16.5 17 16.5C16.173 16.5 15.5 17.173 15.5 18C15.5 18.827 16.173 19.5 17 19.5C17.827 19.5 18.4999 18.827 18.4999 18ZM8.49992 18C8.49992 17.173 7.82693 16.5 6.99994 16.5C6.17295 16.5 5.49996 17.173 5.49996 18C5.49996 18.827 6.17295 19.5 6.99994 19.5C7.82693 19.5 8.49992 18.827 8.49992 18Z" fill="currentColor" fillRule="evenodd" clipRule="evenodd" />
</svg>
