<?xml version="1.0" encoding="UTF-8"?>
<svg xmlns:svg="http://www.w3.org/2000/svg" viewBox="0 0 24 24" fill="none">
<svg:path d="M13 4.5H6C4.6215 4.5 3.5 5.6215 3.5 7V16C3.5 17.0525 4.15382 17.9552 5.07665 18.3233C5.38352 16.9924 6.57595 16 8 16C9.4864 16 10.7204 17.0812 10.9585 18.5H13C13.0139 18.5 13.0277 18.4999 13.0415 18.4997C13.2524 17.2438 14.2438 16.2524 15.4997 16.0415C15.4999 16.0277 15.5 16.0139 15.5 16V13.5V12V7C15.5 5.6215 14.3785 4.5 13 4.5ZM16.874 6H17.8378C18.3233 6 18.7884 6.11684 19.2015 6.32778C19.8869 6.67779 20.429 7.2869 20.6838 8.05125L21.75 11.25H21.7469C21.9147 11.8089 22 12.3895 22 12.9738V12.975V13.5V17C22 18.6568 20.6568 20 19 20H18.8293C18.4174 21.1651 17.3061 22 16 22C14.6926 22 13.5804 21.1635 13.1695 19.9965C13.1133 19.9988 13.0568 20 13 20H10.8293C10.4174 21.1651 9.30612 22 8 22C6.65948 22 5.5242 21.1206 5.13965 19.9073C3.34394 19.5137 2 17.9139 2 16V7C2 4.79075 3.79075 3 6 3H13C14.8639 3 16.43 4.27471 16.874 6ZM20.5 13.5H17V16V16.1707C18.0132 16.5289 18.7766 17.4159 18.9585 18.5H19C19.827 18.5 20.5 17.827 20.5 17V16.5H19.75C19.3358 16.5 19 16.1642 19 15.75C19 15.3358 19.3358 15 19.75 15H20.5V13.5ZM20.269 11.5507L19.2608 8.52575C19.2352 8.44906 19.2039 8.37552 19.1674 8.30553C18.9121 7.81563 18.4037 7.5 17.8378 7.5H17V12H20.3935C20.3597 11.8488 20.3183 11.6988 20.269 11.5507ZM9.5 19C9.5 18.173 8.827 17.5 8 17.5C7.173 17.5 6.5 18.173 6.5 19C6.5 19.827 7.173 20.5 8 20.5C8.827 20.5 9.5 19.827 9.5 19ZM16 17.5C16.827 17.5 17.5 18.173 17.5 19C17.5 19.827 16.827 20.5 16 20.5C15.173 20.5 14.5 19.827 14.5 19C14.5 18.173 15.173 17.5 16 17.5Z" fill="currentColor" fillRule="evenodd" clipRule="evenodd" />
</svg>
