<svg width="24" height="24" viewBox="0 0 24 24" fill="none" xmlns="http://www.w3.org/2000/svg">
<path fill-rule="evenodd" clip-rule="evenodd" d="M0 6C0 2.68625 2.68625 0 6 0C9.31375 0 12 2.68625 12 6C12 9.31375 9.31375 12 6 12C2.68625 12 0 9.31375 0 6ZM6.0605 7.854L9.3535 4.561C9.54875 4.3655 9.54875 4.049 9.3535 3.85375C9.158 3.6585 8.8415 3.6585 8.64625 3.85375L5.35325 7.14675C5.1585 7.34175 4.84125 7.34175 4.64625 7.14675L3.35325 5.85375C3.15775 5.6585 2.84125 5.6585 2.646 5.85375C2.45075 6.04925 2.45075 6.36575 2.646 6.561L3.939 7.854C4.2315 8.14625 4.6155 8.2925 4.99975 8.2925C5.384 8.2925 5.768 8.1465 6.0605 7.854ZM13.2434 4.09325C13.2447 4.09758 13.2459 4.10191 13.2472 4.10623C13.2477 4.10789 13.2482 4.10955 13.2487 4.11121L13.2491 4.11275C13.3184 4.3485 13.4991 4.53775 13.7339 4.61C14.7554 4.92425 15.5 5.87675 15.5 7V16C15.5 16.0021 15.4999 16.0042 15.4999 16.0063C15.4999 16.0082 15.4999 16.0101 15.4999 16.0119C15.4999 16.015 15.4999 16.018 15.4999 16.0211C15.4998 16.0279 15.4997 16.0347 15.4996 16.0416C14.2436 16.2525 13.2522 17.2439 13.0415 18.5H10.9585C10.7204 17.0812 9.4864 16 8 16C6.57596 16 5.38354 16.9924 5.07665 18.3233C4.15385 17.9552 3.50005 17.0525 3.50005 16H3.4998V13.5573C3.4998 13.2675 3.33079 13.0045 3.06753 12.8838C3.06591 12.883 3.06429 12.8822 3.06266 12.8815C3.0614 12.8809 3.06014 12.8803 3.05888 12.8797C3.05602 12.8784 3.05315 12.8771 3.05029 12.8758C2.55927 12.6505 2 13.0083 2 13.5485V16C2 17.9139 3.34393 19.5136 5.13965 19.9072C5.52419 21.1206 6.65947 22 8 22C9.30612 22 10.4174 21.1651 10.8293 20H13.1707C13.5826 21.1651 14.6939 22 16 22C17.3061 22 18.4174 21.1651 18.8293 20H19C20.6568 20 22 18.6568 22 17V13.5V13.15V12.9738C22 12.3288 21.896 11.6883 21.692 11.0765L21.5832 10.75H21.5833L20.6838 8.05125C20.4286 7.28562 19.8851 6.67576 19.198 6.32603C18.7858 6.11619 18.322 6 17.8378 6H16.874C16.6035 4.94919 15.9166 4.06547 14.9999 3.53525C14.7547 3.39325 14.4929 3.27675 14.2182 3.189C14.2039 3.1845 14.1432 3.1745 14.0549 3.16125C13.5251 3.08175 13.0914 3.57975 13.2434 4.0935V4.09325ZM17 13.5V16V16.1707C18.0132 16.5289 18.7766 17.4159 18.9585 18.5H19C19.827 18.5 20.5 17.827 20.5 17V16.5H19.75C19.3358 16.5 19 16.1642 19 15.75C19 15.3358 19.3358 15 19.75 15H20.5V13.5H17ZM20.3935 12C20.3598 11.8488 20.3182 11.6988 20.269 11.5508L19.2607 8.52575C19.0562 7.91225 18.4845 7.5 17.8378 7.5H17V12H20.3935ZM9.5 19C9.5 18.173 8.827 17.5 8 17.5C7.173 17.5 6.5 18.173 6.5 19C6.5 19.827 7.173 20.5 8 20.5C8.827 20.5 9.5 19.827 9.5 19ZM16 17.5C16.827 17.5 17.5 18.173 17.5 19C17.5 19.827 16.827 20.5 16 20.5C15.173 20.5 14.5 19.827 14.5 19C14.5 18.173 15.173 17.5 16 17.5Z" fill="black"/>
</svg>
