<?xml version="1.0" encoding="UTF-8"?>
<svg xmlns:svg="http://www.w3.org/2000/svg" viewBox="0 0 24 24" fill="none">
<svg:path d="M7.31972 1.74063L11.7895 8.75497C12.3835 9.75023 11.6492 11 10.47 11H1.53022C0.350972 11 -0.383778 9.75023 0.210472 8.75497L4.68022 1.74063C5.26997 0.753122 6.73022 0.753122 7.31972 1.74063ZM5.99997 3.2499C5.72372 3.2499 5.49997 3.47366 5.49997 3.74991V6.24994C5.49997 6.52619 5.72372 6.74995 5.99997 6.74995C6.27622 6.74995 6.49997 6.52619 6.49997 6.24994V3.74991C6.49997 3.47366 6.27622 3.2499 5.99997 3.2499ZM5.24997 8.49997C5.24997 8.91422 5.58572 9.24998 5.99997 9.24998C6.41422 9.24998 6.74997 8.91422 6.74997 8.49997C6.74997 8.08571 6.41422 7.74996 5.99997 7.74996C5.58572 7.74996 5.24997 8.08571 5.24997 8.49997ZM9.49998 19C9.49998 18.4942 9.24825 18.046 8.86352 17.7742C8.61918 17.6015 8.32118 17.5 7.99998 17.5C7.79323 17.5 7.5961 17.5421 7.41671 17.6181C6.87855 17.8461 6.5 18.3798 6.5 19C6.5 19.6202 6.87855 20.1539 7.41671 20.3819C7.5961 20.4579 7.79325 20.5 8 20.5C8.20674 20.5 8.40386 20.4579 8.58324 20.3819C9.12141 20.1539 9.49998 19.6203 9.49998 19ZM5.07748 19.893C5.09799 19.8978 5.11847 19.9018 5.13888 19.9049C5.3428 20.5502 5.75898 21.1011 6.30548 21.4759C6.78763 21.8065 7.37123 22 7.99998 22C8.5714 22 9.10554 21.8402 9.56012 21.5629C10.1446 21.2063 10.5976 20.6554 10.8293 20H11H13.1707C13.378 20.5865 13.7626 21.0893 14.26 21.4441C14.7507 21.7941 15.3513 22 16 22C16.6213 22 17.1985 21.8111 17.6773 21.4876C18.2051 21.131 18.6133 20.6109 18.8293 20H19C20.6567 20 22 18.6567 22 17V13.5V13.05V12.9738C22 12.3288 21.896 11.6882 21.692 11.0765L21.6583 10.975L20.6838 8.05125C20.4334 7.2999 19.9052 6.69855 19.2363 6.34586C18.8828 6.15946 18.49 6.04252 18.078 6.00958C17.9986 6.00323 17.9184 6 17.8377 6H16.874C16.43 4.27471 14.8639 3 13 3H11.2682C10.6762 3 10.3175 3.65375 10.6357 4.153C10.7735 4.369 11.012 4.5 11.2682 4.5H13C14.3807 4.5 15.5 5.61925 15.5 7V16C15.5 16.0139 15.4999 16.0277 15.4996 16.0415C15.1856 16.0943 14.8882 16.1958 14.6153 16.338C13.7967 16.7647 13.1995 17.5579 13.0415 18.5H10.9585C10.8255 17.707 10.3813 17.0195 9.75581 16.5673C9.33212 16.2609 8.82525 16.0626 8.27554 16.0125C8.1848 16.0042 8.09287 16 7.99998 16C7.46596 16 6.96452 16.1396 6.53014 16.3842C6.08278 16.6361 5.70654 16.9995 5.43908 17.4366L5.42825 17.434L5.41627 17.4745C5.26229 17.7348 5.14651 18.0202 5.07663 18.3232C4.1539 17.9552 3.49998 17.0524 3.49998 16V14.25C3.49998 13.8357 3.16423 13.5 2.74998 13.5C2.33573 13.5 1.99998 13.8357 1.99998 14.25V16C1.99998 17.8918 3.31323 19.4767 5.07748 19.893ZM17.8249 16.6188C17.6367 16.4743 17.4309 16.3517 17.2113 16.2546C17.1422 16.2241 17.0717 16.1961 17 16.1707V13.5H20.5V15H19.75C19.3358 15 19 15.3358 19 15.75C19 16.1642 19.3358 16.5 19.75 16.5H20.5V17C20.5 17.827 19.827 18.5 19 18.5H18.9585C18.8304 17.7365 18.4139 17.0708 17.8249 16.6188ZM17.5 19C17.5 18.494 17.2481 18.0457 16.8631 17.7739C16.6582 17.6292 16.4155 17.5345 16.1531 17.5078C16.1027 17.5026 16.0517 17.5 16 17.5C15.6899 17.5 15.4014 17.5946 15.1619 17.7566C14.7629 18.0264 14.5 18.4831 14.5 19C14.5 19.517 14.763 19.9738 15.1622 20.2436C15.4016 20.4054 15.69 20.5 16 20.5C16.2972 20.5 16.5745 20.4131 16.8078 20.2633C17.2238 19.9964 17.5 19.5298 17.5 19ZM17.9581 7.50478C18.5545 7.55232 19.069 7.95059 19.2608 8.52575L20.269 11.5507C20.3182 11.6988 20.3598 11.8488 20.3935 12H17V7.5H17.8377C17.8782 7.5 17.9183 7.50161 17.9581 7.50478Z" fill="currentColor" fillRule="evenodd" clipRule="evenodd" />
</svg>
