<svg width="24" height="24" viewBox="0 0 24 24" fill="none" xmlns="http://www.w3.org/2000/svg">
<path fill-rule="evenodd" clip-rule="evenodd" d="M0 6C0 2.68625 2.68625 0 6 0C9.31375 0 12 2.68625 12 6C12 9.31375 9.31375 12 6 12C2.68625 12 0 9.31375 0 6ZM8.3535 8.35375C8.54875 8.15825 8.54875 7.84175 8.3535 7.6465L6.70699 6L8.3535 4.3535C8.54875 4.158 8.54875 3.8415 8.3535 3.64625C8.15825 3.451 7.84175 3.451 7.6465 3.64625L6 5.29275L4.3535 3.64625C4.15825 3.451 3.84175 3.45075 3.6465 3.64625C3.45125 3.84175 3.45125 4.15825 3.6465 4.3535L5.29301 6L3.6465 7.6465C3.45125 7.842 3.45125 8.1585 3.6465 8.35375C3.744 8.4515 3.872 8.50025 4 8.50025C4.128 8.50025 4.25575 8.4515 4.3535 8.35375L6 6.70725L7.6465 8.35375C7.744 8.4515 7.872 8.50025 8 8.50025C8.128 8.50025 8.25575 8.4515 8.3535 8.35375ZM13.2451 4.09902C13.2455 4.10034 13.2459 4.10167 13.2462 4.103L13.2463 4.10321C13.2466 4.1041 13.2468 4.10499 13.2471 4.10588L13.2475 4.10733L13.2482 4.10979C13.2485 4.11078 13.2488 4.11176 13.2491 4.11275C13.3184 4.3485 13.4991 4.53775 13.7339 4.61C14.7554 4.92425 15.5 5.87675 15.5 7V16C15.5 16.0139 15.4998 16.0277 15.4996 16.0416C14.2436 16.2525 13.2522 17.2439 13.0415 18.5H10.9585C10.7204 17.0812 9.4864 16 8 16C6.57596 16 5.38354 16.9924 5.07665 18.3233C4.15385 17.9552 3.50005 17.0525 3.50005 16H3.4998V13.5573C3.4998 13.2675 3.3308 13.0045 3.06754 12.8838C3.06466 12.8824 3.06177 12.8811 3.05889 12.8797C3.05602 12.8784 3.05316 12.8771 3.05029 12.8758C2.55927 12.6505 2 13.0083 2 13.5485V16C2 17.9139 3.34393 19.5136 5.13965 19.9072C5.52419 21.1206 6.65947 22 8 22C9.30612 22 10.4174 21.1651 10.8293 20H13.1707C13.5826 21.1651 14.6939 22 16 22C17.3061 22 18.4174 21.1651 18.8293 20H19C20.6568 20 22 18.6568 22 17V13.5V13.175V12.9738C22 12.3288 21.896 11.6883 21.692 11.0765L21.5998 10.8H21.6L20.6838 8.05125C20.4318 7.2952 19.8986 6.69103 19.2237 6.33927C18.8051 6.12108 18.3321 6 17.8377 6H16.874C16.6035 4.94919 15.9166 4.06547 14.9999 3.53525C14.7547 3.39325 14.4929 3.27675 14.2182 3.189C14.2039 3.1845 14.1432 3.1745 14.0549 3.16125C13.5251 3.08175 13.0914 3.57975 13.2434 4.0935V4.09325C13.244 4.09517 13.2445 4.0971 13.2451 4.09902ZM17 13.5L17 16L17 16.0035V16.1707C18.0132 16.5289 18.7766 17.4159 18.9585 18.5H19C19.827 18.5 20.5 17.827 20.5 17V16.5H19.75C19.3358 16.5 19 16.1642 19 15.75C19 15.3358 19.3358 15 19.75 15H20.5V13.5H17ZM20.3935 12C20.3598 11.8488 20.3182 11.6988 20.269 11.5508L19.2608 8.52575C19.069 7.95059 18.5545 7.55232 17.9581 7.50478C17.9183 7.50161 17.8782 7.5 17.8377 7.5H17V12H20.3935ZM9.5 19C9.5 18.173 8.827 17.5 8 17.5C7.173 17.5 6.5 18.173 6.5 19C6.5 19.827 7.173 20.5 8 20.5C8.827 20.5 9.5 19.827 9.5 19ZM16 17.5C16.827 17.5 17.5 18.173 17.5 19C17.5 19.827 16.827 20.5 16 20.5C15.173 20.5 14.5 19.827 14.5 19C14.5 18.173 15.173 17.5 16 17.5Z" fill="black"/>
</svg>
