<?xml version="1.0" encoding="UTF-8"?>
<svg xmlns:svg="http://www.w3.org/2000/svg" viewBox="0 0 24 24" fill="none">
<svg:path d="M7.25 3H0.75C0.335786 3 0 3.33579 0 3.75C0 4.16421 0.335786 4.5 0.75 4.5H7.25C7.66421 4.5 8 4.16421 8 3.75C8 3.33579 7.66421 3 7.25 3ZM17.9581 7.50478C18.5545 7.55232 19.069 7.95059 19.2608 8.52575L20.269 11.5508C20.3182 11.6988 20.3598 11.8488 20.3935 12H17V7.5H17.8377C17.8782 7.5 17.9183 7.50161 17.9581 7.50478ZM16.874 6C16.43 4.27471 14.8639 3 13 3H10.1715C9.76299 3 9.43324 3.332 9.43374 3.7405V3.7595C9.43324 4.168 9.76299 4.5 10.1715 4.5H13C14.3807 4.5 15.5 5.61925 15.5 7V16C15.5 16.0139 15.4999 16.0277 15.4996 16.0415C14.2436 16.2525 13.2522 17.2439 13.0415 18.5H10.9585C10.7204 17.0812 9.4864 16 8 16C6.57595 16 5.38352 16.9924 5.07665 18.3233C4.15382 17.9552 3.5 17.0525 3.5 16V12.75C3.5 12.3357 3.16425 12 2.75 12C2.33575 12 2 12.3357 2 12.75V16C2 17.9139 3.34394 19.5137 5.13965 19.9073C5.5242 21.1206 6.65948 22 8 22C9.30612 22 10.4174 21.1651 10.8293 20H13.1707C13.5826 21.1651 14.6939 22 16 22C17.3061 22 18.4174 21.1651 18.8293 20H19C20.6568 20 22 18.6568 22 17V13.5V13.025V12.9738C22 12.3288 21.896 11.6883 21.692 11.0765L21.6582 10.975H21.6583L20.6838 8.05125C20.4318 7.2952 19.8986 6.69103 19.2237 6.33927C18.8051 6.12108 18.3321 6 17.8377 6H16.874ZM17 13.5V16.1707C18.0132 16.5289 18.7766 17.4159 18.9585 18.5H19C19.827 18.5 20.5 17.827 20.5 17V16.5H19.75C19.3358 16.5 19 16.1642 19 15.75C19 15.3358 19.3358 15 19.75 15H20.5V13.5H17ZM9.5 19C9.5 18.173 8.827 17.5 8 17.5C7.173 17.5 6.5 18.173 6.5 19C6.5 19.827 7.173 20.5 8 20.5C8.827 20.5 9.5 19.827 9.5 19ZM16 17.5C16.827 17.5 17.5 18.173 17.5 19C17.5 19.827 16.827 20.5 16 20.5C15.173 20.5 14.5 19.827 14.5 19C14.5 18.173 15.173 17.5 16 17.5ZM0.75 6H5.25C5.66421 6 6 6.33579 6 6.75C6 7.16421 5.66421 7.5 5.25 7.5H0.75C0.335786 7.5 0 7.16421 0 6.75C0 6.33579 0.335786 6 0.75 6ZM3.25 9H0.75C0.335786 9 0 9.33579 0 9.75C0 10.1642 0.335786 10.5 0.75 10.5H3.25C3.66421 10.5 4 10.1642 4 9.75C4 9.33579 3.66421 9 3.25 9Z" fill="currentColor" fillRule="evenodd" clipRule="evenodd" />
</svg>
