<svg width="24" height="24" viewBox="0 0 24 24" fill="none" xmlns="http://www.w3.org/2000/svg">
<path fill-rule="evenodd" clip-rule="evenodd" d="M6 0C2.68625 0 0 2.68625 0 6C0 9.31375 2.68625 12 6 12C9.31375 12 12 9.31375 12 6C12 2.68625 9.31375 0 6 0ZM8.3535 8.3535C8.25575 8.45125 8.128 8.5 8 8.5C7.872 8.5 7.744 8.45125 7.6465 8.3535L6.08575 6.79275C5.708 6.415 5.5 5.91275 5.5 5.3785V2.99975C5.5 2.7235 5.72375 2.49975 6 2.49975C6.27625 2.49975 6.5 2.7235 6.5 2.99975V5.3785C6.5 5.6455 6.60401 5.89675 6.79301 6.08575L8.35375 7.6465C8.549 7.84175 8.549 8.15825 8.35375 8.3535H8.3535ZM13.2475 4.10737L13.247 4.10546L13.2462 4.103C13.2453 4.09975 13.2444 4.0965 13.2434 4.09325V4.0935C13.0914 3.57975 13.5251 3.08175 14.0549 3.16125C14.1432 3.1745 14.2039 3.1845 14.2182 3.189C14.4929 3.27675 14.7547 3.39325 14.9999 3.53525C15.9166 4.06547 16.6035 4.94919 16.874 6H17.8377C17.9184 6 17.9986 6.00323 18.078 6.00958C18.49 6.04252 18.8828 6.15946 19.2363 6.34586C19.9052 6.69855 20.4334 7.2999 20.6838 8.05125L22 12V12.9738V13.5V17C22 18.6568 20.6568 20 19 20H18.8293C18.4174 21.1651 17.3061 22 16 22C14.6939 22 13.5826 21.1651 13.1707 20H10.8293C10.4174 21.1651 9.30612 22 8 22C6.65947 22 5.52419 21.1206 5.13965 19.9072C3.34393 19.5136 2 17.9139 2 16V13.5485C2 13.0083 2.55927 12.6505 3.05029 12.8758C3.05315 12.8771 3.05601 12.8784 3.05886 12.8797L3.05888 12.8797L3.05889 12.8797C3.06177 12.8811 3.06466 12.8824 3.06754 12.8838C3.3308 13.0045 3.4998 13.2675 3.4998 13.5573V16H3.50005C3.50005 17.0525 4.15385 17.9552 5.07665 18.3233C5.38354 16.9924 6.57596 16 8 16C9.4864 16 10.7204 17.0812 10.9585 18.5H13.0415C13.2522 17.2439 14.2436 16.2525 15.4996 16.0416C15.4997 16.0347 15.4998 16.0279 15.4999 16.0211C15.4999 16.018 15.4999 16.015 15.4999 16.0119C15.4999 16.008 15.5 16.004 15.5 16V7C15.5 5.87675 14.7554 4.92425 13.7339 4.61C13.4991 4.53775 13.3184 4.3485 13.2491 4.11275C13.2486 4.11096 13.248 4.10916 13.2475 4.10737ZM20.5 13.5H17V16V16.1707C18.0132 16.5289 18.7766 17.4159 18.9585 18.5H19C19.827 18.5 20.5 17.827 20.5 17V16.5H19.75C19.3358 16.5 19 16.1642 19 15.75C19 15.3358 19.3358 15 19.75 15H20.5V13.5ZM19.1674 8.30553C18.9121 7.81563 18.4037 7.5 17.8377 7.5H17V12H20.3935C20.3598 11.8488 20.3182 11.6988 20.269 11.5508L19.2608 8.52575C19.2352 8.44906 19.2039 8.37552 19.1674 8.30553ZM8 17.5C8.827 17.5 9.5 18.173 9.5 19C9.5 19.827 8.827 20.5 8 20.5C7.173 20.5 6.5 19.827 6.5 19C6.5 18.173 7.173 17.5 8 17.5ZM17.5 19C17.5 18.173 16.827 17.5 16 17.5C15.173 17.5 14.5 18.173 14.5 19C14.5 19.827 15.173 20.5 16 20.5C16.827 20.5 17.5 19.827 17.5 19Z" fill="black"/>
</svg>
