<?xml version="1.0" encoding="UTF-8"?>
<svg xmlns:svg="http://www.w3.org/2000/svg" viewBox="0 0 24 24" fill="none">
<svg:path d="M17.4499 6.5C17.2176 5.36025 16.2074 4.5 15.0001 4.5H4.50011C3.94861 4.5 3.50011 4.9485 3.50011 5.5C3.50011 6.0515 3.94861 6.5 4.50011 6.5H7.00011H17.4499ZM18.9824 6.6215C18.7918 4.58979 17.0817 3 15.0001 3H4.50011C3.11936 3 2.00011 4.11925 2.00011 5.5V9V10V11.8188C2.00011 12.518 2.87836 12.83 3.31936 12.2875C3.32436 12.2813 3.32936 12.2752 3.33411 12.2692C3.44161 12.1368 3.50011 11.9718 3.50011 11.8012V10V9V7.79199C3.80634 7.92578 4.14455 8 4.50011 8H7.00011H18.0001C19.3809 8 20.5001 9.11925 20.5001 10.5V11.5H17.7501C16.2314 11.5 15.0001 12.7313 15.0001 14.25C15.0001 15.7688 16.2314 17 17.7501 17H20.5001V17.9852C20.5001 19.374 19.3741 20.5 17.9854 20.5H12.4131C11.9569 20.5 11.6094 20.9095 11.6839 21.3598C11.6851 21.367 11.6864 21.3742 11.6874 21.3813C11.7464 21.7383 12.0549 22 12.4166 22H17.9854C20.2026 22 22.0001 20.2025 22.0001 17.9852V17V11.5V10.5C22.0001 8.6297 20.7167 7.05933 18.9824 6.6215ZM20.5001 15.5V13H17.7501C17.0609 13 16.5001 13.5607 16.5001 14.25C16.5001 14.9393 17.0609 15.5 17.7501 15.5H20.5001ZM11.9219 16.5276C12.1059 17.0804 11.9594 17.6771 11.5396 18.0846L11.5401 18.0844L9.99818 19.5812C9.92393 19.6532 9.89043 19.7584 9.90843 19.8624L10.2727 21.9777C10.3489 22.4215 10.2249 22.8715 9.93192 23.2125C9.63843 23.554 9.21269 23.7498 8.7632 23.7498C8.5162 23.7498 8.26871 23.6885 8.04722 23.5725L6.131 22.5692C6.09 22.548 6.04599 22.537 6.00024 22.537C5.95449 22.537 5.9105 22.5477 5.8695 22.5692L3.95328 23.5727C3.73179 23.6888 3.4843 23.75 3.23731 23.75C2.78781 23.75 2.36182 23.5542 2.06858 23.2127C1.77558 22.8717 1.65132 22.4217 1.72782 21.978L2.09207 19.8627C2.11007 19.7584 2.07632 19.6534 2.00232 19.5814L0.460353 18.0846C0.0406109 17.6771 -0.105887 17.0806 0.0781093 16.5276C0.260856 15.9786 0.733099 15.5856 1.31084 15.5021L3.4478 15.1928C3.54205 15.1793 3.62429 15.1183 3.66829 15.0296L4.62527 13.0983C4.88451 12.575 5.41126 12.25 6 12.25C6.58874 12.25 7.11549 12.575 7.37473 13.0983L8.33171 15.0296C8.37571 15.1181 8.4582 15.1793 8.5522 15.1928L10.6892 15.5021C11.2669 15.5856 11.7391 15.9786 11.9219 16.5276Z" fill="currentColor" fillRule="evenodd" clipRule="evenodd" />
</svg>
