<?xml version="1.0" encoding="UTF-8"?>
<svg xmlns:svg="http://www.w3.org/2000/svg" viewBox="0 0 24 24" fill="none">
<svg:path d="M15 4.5C16.2072 4.5 17.2175 5.36025 17.4497 6.5H7H4.5C3.9485 6.5 3.5 6.0515 3.5 5.5C3.5 4.9485 3.9485 4.5 4.5 4.5H15ZM15 3C17.0816 3 18.7917 4.58979 18.9823 6.6215C20.7166 7.05933 22 8.6297 22 10.5V11.5V17V17.9852C22 20.2025 20.2025 22 17.9852 22H16H15H12.75C12.336 22 12 21.664 12 21.25C12 20.836 12.336 20.5 12.75 20.5H15H16H17.9852C19.372 20.5 20.5 19.372 20.5 17.9852V17H17.75C16.2313 17 15 15.7688 15 14.25C15 12.7313 16.2313 11.5 17.75 11.5H20.5V10.5C20.5 9.1215 19.3785 8 18 8H7H4.5C4.14444 8 3.80623 7.92578 3.5 7.79199V9V10V11.75C3.5 12.1643 3.16425 12.5 2.75 12.5C2.33575 12.5 2 12.1643 2 11.75V10V9V5.5C2 4.11925 3.11925 3 4.5 3H15ZM17.75 13H20.5V15.5H17.75C17.0608 15.5 16.5 14.9393 16.5 14.25C16.5 13.5607 17.0608 13 17.75 13ZM2.52277 18.5233L5.25271 15.8695L5.275 23.0023C5.2763 23.4166 5.61313 23.7513 6.02734 23.75C6.44156 23.7487 6.77629 23.4119 6.775 22.9977L6.75275 15.8794L9.47622 18.5368C9.77269 18.8261 10.2475 18.8202 10.5368 18.5238C10.8261 18.2273 10.8202 17.7525 10.5238 17.4632L7.22963 14.249L7.22961 14.2489C6.54859 13.5845 5.45228 13.5837 4.77018 14.2467L1.47723 17.4477C1.18022 17.7364 1.1735 18.2113 1.46222 18.5083C1.75094 18.8053 2.22577 18.812 2.52277 18.5233Z" fill="currentColor" fillRule="evenodd" clipRule="evenodd" />
</svg>
