<?xml version="1.0" encoding="UTF-8"?>
<svg xmlns:svg="http://www.w3.org/2000/svg" viewBox="0 0 24 24" fill="none">
<svg:path d="M0.469748 23.53C0.615996 23.6765 0.807993 23.7498 0.999991 23.7498L1.00024 23.75C1.19199 23.75 1.38399 23.6767 1.53048 23.5303L3.75599 21.3047C4.39948 21.7435 5.17712 22 6.01475 22H17.9853C20.2025 22 22 20.2025 22 17.9852V17H17.75C16.2313 17 15 15.7688 15 14.25C15 12.7313 16.2313 11.5 17.75 11.5H22V10.5C22 8.62975 20.7163 7.0595 18.982 6.62175C18.967 6.46201 18.9426 6.30503 18.9094 6.15134L22.5303 2.53049C22.8232 2.23749 22.8232 1.76274 22.5303 1.46975C22.2373 1.17675 21.7625 1.17675 21.4695 1.46975L0.469748 22.4693C0.176751 22.7623 0.176751 23.237 0.469748 23.53ZM17.75 15.5C17.0608 15.5 16.5 14.9393 16.5 14.25C16.5 13.5608 17.0608 13 17.75 13H22V15.5H17.75ZM14.3177 6.5H4.5185C3.9725 6.5 3.513 6.07 3.5 5.524C3.48675 4.96175 3.94025 4.5 4.49975 4.5H14.9997C15.2348 4.5 15.4622 4.53275 15.678 4.59375C15.9385 4.6675 16.2188 4.59925 16.4103 4.40775L16.429 4.389C16.8265 3.9915 16.6522 3.313 16.1122 3.15675C15.7593 3.05475 15.386 3 15 3H4.5C3.11925 3 2 4.11925 2 5.5V17.9852C2 18.2453 2.025 18.4995 2.07225 18.7458L14.318 6.5H14.3177Z" fill="currentColor" fillRule="evenodd" clipRule="evenodd" />
</svg>
