<svg width="24" height="24" viewBox="0 0 24 24" fill="none" xmlns="http://www.w3.org/2000/svg">
<path fill-rule="evenodd" clip-rule="evenodd" d="M15 4.5C16.2072 4.5 17.2175 5.36025 17.4498 6.5H7H4.5C3.9485 6.5 3.5 6.0515 3.5 5.5C3.5 4.9485 3.9485 4.5 4.5 4.5H15ZM7 8H4.5C4.14444 8 3.80623 7.92578 3.5 7.79199V9V10V11.75C3.5 12.1643 3.16425 12.5 2.75 12.5C2.33575 12.5 2 12.1643 2 11.75V10V9V5.5C2 4.11925 3.11925 3 4.5 3H15C17.0816 3 18.7917 4.58979 18.9823 6.6215C20.7166 7.05933 22 8.6297 22 10.5V11.5V17V17.9852C22 20.2025 20.2025 22 17.9853 22H16H15H12.75C12.336 22 12 21.664 12 21.25C12 20.836 12.336 20.5 12.75 20.5H15H16H17.9853C19.372 20.5 20.5 19.372 20.5 17.9852V17H17.75C16.2313 17 15 15.7688 15 14.25C15 12.7313 16.2313 11.5 17.75 11.5H20.5V10.5C20.5 9.1215 19.3785 8 18 8H7ZM20.5 13H17.75C17.0608 13 16.5 13.5607 16.5 14.25C16.5 14.9393 17.0608 15.5 17.75 15.5H20.5V13ZM6.725 14.4977C6.7237 14.0834 6.38687 13.7487 5.97266 13.75C5.55845 13.7513 5.22371 14.0881 5.225 14.5023L5.24725 21.6206L2.52378 18.9632C2.22732 18.6739 1.75248 18.6798 1.4632 18.9762C1.17392 19.2727 1.17975 19.7475 1.47622 20.0368L4.77036 23.2511L4.77038 23.2511C5.45141 23.9155 6.54772 23.9163 7.22981 23.2533L7.22987 23.2533L10.5228 20.0523C10.8198 19.7636 10.8265 19.2887 10.5378 18.9917C10.2491 18.6947 9.77424 18.688 9.47723 18.9767L6.74729 21.6305L6.725 14.4977Z" fill="black"/>
</svg>
