<?xml version="1.0" encoding="UTF-8"?>
<svg xmlns:svg="http://www.w3.org/2000/svg" viewBox="0 0 24 24" fill="none">
<svg:path d="M15 4.5C16.2072 4.5 17.2175 5.36025 17.4497 6.5H7H4.5C3.9485 6.5 3.5 6.0515 3.5 5.5C3.5 4.9485 3.9485 4.5 4.5 4.5H15ZM2 10V14.8477L3.7245 13.1712C4.3355 12.5772 5.14325 12.25 5.9985 12.25H6.0015C6.858 12.2508 7.666 12.5795 8.277 13.1753L11.5713 16.3895C12.4593 17.256 12.4768 18.6832 11.6103 19.5712C11.3953 19.7917 11.142 19.963 10.858 20.08C10.5848 20.1928 10.296 20.25 9.9995 20.25C9.409 20.25 8.851 20.023 8.42825 19.6105L8.2635 19.4498L8.2715 22H17.9848C20.202 22 21.9995 20.2025 21.9995 17.9852V17H17.7495C16.2307 17 14.9995 15.7688 14.9995 14.25C14.9995 12.7313 16.2307 11.5 17.7495 11.5H17.75H22V10.5C22 8.6297 20.7166 7.05933 18.9823 6.6215C18.7917 4.58979 17.0816 3 15 3H4.5C3.11925 3 2 4.11925 2 5.5V7V10ZM16.5 14.25C16.5 14.9393 17.0608 15.5 17.75 15.5H22V13H17.75C17.0608 13 16.5 13.5607 16.5 14.25ZM10.5238 17.4633L7.22961 14.249C6.90037 13.9278 6.46362 13.7505 6.00038 13.75H5.99863C5.53589 13.75 5.09965 13.9262 4.77016 14.2468L1.47723 17.4477C1.18023 17.7365 1.17348 18.2113 1.46223 18.5083C1.75097 18.8053 2.22571 18.812 2.52271 18.5233L5.25265 15.8695L5.2749 23.0023C5.27615 23.4158 5.61164 23.75 6.02488 23.75H6.02738C6.44163 23.7488 6.77637 23.4117 6.77512 22.9977L6.75287 15.8795L9.47631 18.5367C9.62206 18.679 9.81106 18.75 10.0001 18.75C10.195 18.75 10.39 18.6745 10.5368 18.5238C10.826 18.2273 10.8203 17.7525 10.5238 17.4633Z" fill="currentColor" fillRule="evenodd" clipRule="evenodd" />
</svg>
