<?xml version="1.0" encoding="UTF-8"?>
<svg xmlns:svg="http://www.w3.org/2000/svg" viewBox="0 0 24 24" fill="none">
<svg:path d="M15 4.5C16.2072 4.5 17.2175 5.36025 17.4497 6.5H7H4.5C3.9485 6.5 3.5 6.0515 3.5 5.5C3.5 4.9485 3.9485 4.5 4.5 4.5H15ZM2 6.99999V5.5C2 4.11925 3.11925 3 4.5 3H15C17.0816 3 18.7917 4.58978 18.9823 6.62149C20.7166 7.05932 22 8.62966 22 10.4999V11.4999H17.75V11.5002C16.2313 11.5002 15 12.7314 15 14.2501C15 15.7689 16.2313 17.0001 17.75 17.0001H22V17.9853C22 20.2025 20.2025 22 17.9853 22H10.671L11.5682 21.1278C11.9992 20.7088 12.2413 20.1473 12.2497 19.5463C12.2582 18.9453 12.0323 18.3771 11.6133 17.9461C11.1923 17.5128 10.589 17.2643 10 17.2643C9.411 17.2643 8.854 17.4906 8.43175 17.9011L8.23625 18.0911L8.225 14.4929C8.223 13.8931 7.988 13.3299 7.56325 12.9064C7.13875 12.4829 6.5745 12.2499 5.975 12.2499H5.9725H5.97025H5.968C4.72725 12.2537 3.721 13.2661 3.725 14.5069L3.736 18.0501L3.57125 17.8893C3.1485 17.4771 2.5905 17.2498 2 17.2498V10V6.99999ZM17.75 15.5C17.0608 15.5 16.5 14.9393 16.5 14.25C16.5 13.5607 17.0608 13 17.75 13H22V15.5H17.75ZM10.5378 18.9917C10.249 18.6947 9.77429 18.688 9.47729 18.9768L6.74735 21.6305L6.7251 14.4977C6.72385 14.0843 6.38836 13.75 5.97511 13.75H5.97262C5.55837 13.7512 5.22363 14.0883 5.22488 14.5023L5.24713 21.6205L2.52368 18.9633C2.22719 18.674 1.75245 18.6798 1.46321 18.9762C1.17396 19.2727 1.17971 19.7475 1.47621 20.0367L4.77039 23.251C5.09963 23.5722 5.53637 23.7495 5.99961 23.75H6.00137C6.46411 23.75 6.90034 23.5738 7.22984 23.2533L10.5228 20.0523C10.8198 19.7635 10.8265 19.2887 10.5378 18.9917Z" fill="currentColor" fillRule="evenodd" clipRule="evenodd" />
</svg>
