<?xml version="1.0" encoding="UTF-8"?>
<svg xmlns:svg="http://www.w3.org/2000/svg" viewBox="0 0 24 24" fill="none">
<svg:path d="M15 4.5C16.2072 4.5 17.2175 5.36025 17.4497 6.5H7H4.5C3.9485 6.5 3.5 6.0515 3.5 5.5C3.5 4.9485 3.9485 4.5 4.5 4.5H15ZM18.9823 6.6215C18.7917 4.58979 17.0816 3 15 3H4.5C3.11925 3 2 4.11925 2 5.5V9V10V17.9852C2 20.2025 3.7975 22 6.01475 22H17.9852C20.2025 22 22 20.2025 22 17.9852V17H17.75C16.2313 17 15 15.7688 15 14.25C15 12.7313 16.2313 11.5 17.75 11.5H22V10.5C22 8.6297 20.7166 7.05933 18.9823 6.6215ZM22 13H17.75C17.0608 13 16.5 13.5607 16.5 14.25C16.5 14.9393 17.0608 15.5 17.75 15.5H22V13Z" fill="currentColor" fillRule="evenodd" clipRule="evenodd" />
</svg>
