<?xml version="1.0" encoding="UTF-8"?>
<svg xmlns:svg="http://www.w3.org/2000/svg" viewBox="0 0 24 24" fill="none">
<svg:path d="M15.0001 4.5C16.2074 4.5 17.2176 5.36025 17.4499 6.5H7.00005H4.50011C3.94861 6.5 3.50011 6.0515 3.50011 5.5C3.50011 4.9485 3.94861 4.5 4.50011 4.5H15.0001ZM2.00011 7.00001V5.5C2.00011 4.11925 3.11936 3 4.50011 3H15.0001C17.0817 3 18.7918 4.58981 18.9824 6.62155C20.7166 7.05947 21.9999 8.62981 21.9999 10.5001V11.5001H17.7499L17.7502 11.4998C16.2314 11.4998 15.0002 12.7311 15.0002 14.2499C15.0002 15.7686 16.2314 16.9999 17.7502 16.9999H22.0001V17.9852C22.0001 20.2025 20.2026 22 17.9854 22H11.7852C11.778 21.9077 11.7665 21.8155 11.7507 21.7232L11.492 20.2212L12.5845 19.1607C12.9927 18.7642 13.2795 18.2654 13.414 17.7179C13.5487 17.1692 13.525 16.5937 13.3452 16.0537C13.1672 15.5186 12.8447 15.0461 12.413 14.6869C11.9832 14.3296 11.4615 14.0981 10.904 14.0174L9.39627 13.7991L8.71878 12.4321C8.46678 11.9236 8.07928 11.4981 7.59854 11.2013C7.12005 10.9061 6.5673 10.7501 6.00006 10.7501C5.43282 10.7501 4.88008 10.9061 4.40158 11.2013C3.92059 11.4978 3.53334 11.9236 3.28134 12.4321L2.60385 13.7991L2.00011 13.8866V10V7.00001ZM11.5396 18.0846C11.9594 17.6771 12.1059 17.0804 11.9219 16.5276C11.7391 15.9786 11.2669 15.5856 10.6892 15.5021L8.5522 15.1928C8.4582 15.1793 8.37571 15.1181 8.33171 15.0296L7.37473 13.0983C7.11549 12.575 6.58874 12.25 6 12.25C5.41126 12.25 4.88451 12.575 4.62527 13.0983L3.66829 15.0296C3.62429 15.1183 3.54205 15.1793 3.4478 15.1928L1.31084 15.5021C0.733099 15.5856 0.260856 15.9786 0.0781093 16.5276C-0.105887 17.0806 0.0406109 17.6771 0.460353 18.0846L2.00232 19.5814C2.07632 19.6534 2.11007 19.7584 2.09207 19.8627L1.72782 21.978C1.65132 22.4217 1.77558 22.8717 2.06858 23.2127C2.36182 23.5542 2.78781 23.75 3.23731 23.75C3.4843 23.75 3.73179 23.6888 3.95328 23.5727L5.8695 22.5692C5.9105 22.5477 5.95449 22.537 6.00024 22.537C6.04599 22.537 6.09 22.548 6.131 22.5692L8.04722 23.5725C8.26871 23.6885 8.5162 23.7498 8.7632 23.7498C9.21269 23.7498 9.63843 23.554 9.93192 23.2125C10.2249 22.8715 10.3489 22.4215 10.2727 21.9777L9.90843 19.8624C9.89043 19.7584 9.92393 19.6532 9.99818 19.5812L11.5401 18.0844L11.5396 18.0846ZM16.5001 14.25C16.5001 14.9393 17.0609 15.5 17.7501 15.5H22.0001V13H17.7501C17.0609 13 16.5001 13.5607 16.5001 14.25Z" fill="currentColor" fillRule="evenodd" clipRule="evenodd" />
</svg>
