<?xml version="1.0" encoding="UTF-8"?>
<svg xmlns:svg="http://www.w3.org/2000/svg" viewBox="0 0 24 24" fill="none">
<svg:path d="M12 2C6.47725 2 2 6.47725 2 12C2 17.5228 6.47725 22 12 22C17.5228 22 22 17.5228 22 12C22 6.47725 17.5228 2 12 2ZM12 6.25C12.4142 6.25 12.75 6.58579 12.75 7V13C12.75 13.4142 12.4142 13.75 12 13.75C11.5858 13.75 11.25 13.4142 11.25 13V7C11.25 6.58579 11.5858 6.25 12 6.25ZM10.75 16.25C10.75 15.5598 11.3098 15 12 15C12.6902 15 13.25 15.5598 13.25 16.25C13.25 16.9402 12.6902 17.5 12 17.5C11.3098 17.5 10.75 16.9402 10.75 16.25Z" fill="currentColor" fillRule="evenodd" clipRule="evenodd" />
</svg>
