<svg width="24" height="24" viewBox="0 0 24 24" fill="none" xmlns="http://www.w3.org/2000/svg">
<path fill-rule="evenodd" clip-rule="evenodd" d="M12 3.5C13.1482 3.5 14.2612 3.7245 15.308 4.16725C16.32 4.59525 17.2293 5.20825 18.0103 5.9895C18.7913 6.7705 19.4045 7.67975 19.8325 8.69175C20.2753 9.73875 20.4998 10.8518 20.4998 12C20.4998 13.1482 20.2753 14.2613 19.8325 15.308C19.4045 16.32 18.7915 17.2292 18.0103 18.0102C17.2293 18.7912 16.32 19.4045 15.308 19.8325C14.261 20.2753 13.148 20.4998 12 20.4998C10.852 20.4998 9.73875 20.2753 8.69175 19.8325C7.67975 19.4045 6.7705 18.7912 5.9895 18.0102C5.2085 17.2292 4.59525 16.32 4.16725 15.308C3.7245 14.261 3.5 13.148 3.5 12C3.5 10.852 3.7245 9.73875 4.16725 8.69175C4.59525 7.67975 5.20825 6.7705 5.9895 5.9895C6.7705 5.2085 7.67975 4.59525 8.69175 4.16725C9.73875 3.7245 10.8518 3.5 12 3.5ZM12 2C6.47725 2 2 6.47725 2 12C2 17.5228 6.47725 22 12 22C17.5228 22 22 17.5228 22 12C22 6.47725 17.5228 2 12 2ZM12 6.25C12.4142 6.25 12.75 6.58579 12.75 7V13C12.75 13.4142 12.4142 13.75 12 13.75C11.5858 13.75 11.25 13.4142 11.25 13V7C11.25 6.58579 11.5858 6.25 12 6.25ZM10.75 16.25C10.75 15.5598 11.3098 15 12 15C12.6902 15 13.25 15.5598 13.25 16.25C13.25 16.9402 12.6902 17.5 12 17.5C11.3098 17.5 10.75 16.9402 10.75 16.25Z" fill="black"/>
</svg>
