<svg width="24" height="24" viewBox="0 0 24 24" fill="none" xmlns="http://www.w3.org/2000/svg">
<path fill-rule="evenodd" clip-rule="evenodd" d="M12 4C12.413 4 12.8168 4.10875 13.1678 4.31475C13.5485 4.538 13.8533 4.86375 14.074 5.28275L20.2093 16.9343C20.4205 17.3358 20.5175 17.7625 20.4975 18.2027C20.4785 18.616 20.3545 19.0235 20.1388 19.381C19.9343 19.7197 19.6543 20.001 19.3288 20.1945C18.9878 20.3973 18.6078 20.5 18.199 20.5H5.80103C5.39228 20.5 5.01228 20.3973 4.67128 20.1945C4.34578 20.0013 4.06578 19.7197 3.86128 19.381C3.64553 19.0235 3.52153 18.616 3.50253 18.2027C3.48228 17.7625 3.57928 17.3358 3.79078 16.9343L9.92603 5.28275C10.1468 4.86375 10.4515 4.538 10.8323 4.31475C11.1833 4.10875 11.587 4 12 4ZM12 2.5C10.665 2.5 9.33028 3.19475 8.59878 4.584L2.46353 16.2358C1.09353 18.8375 2.92478 22 5.80103 22H18.199C21.0753 22 22.9065 18.8372 21.5365 16.2358L15.4013 4.584C14.6698 3.19475 13.3348 2.5 12 2.5ZM12 7.75C12.4143 7.75 12.75 8.08579 12.75 8.5V13.5C12.75 13.9142 12.4143 14.25 12 14.25C11.5858 14.25 11.25 13.9142 11.25 13.5V8.5C11.25 8.08579 11.5858 7.75 12 7.75ZM10.75 16.75C10.75 16.0598 11.3098 15.5 12 15.5C12.6903 15.5 13.25 16.0598 13.25 16.75C13.25 17.4402 12.6903 18 12 18C11.3098 18 10.75 17.4402 10.75 16.75Z" fill="black"/>
</svg>
