<svg width="24" height="24" viewBox="0 0 24 24" fill="none" xmlns="http://www.w3.org/2000/svg">
<path fill-rule="evenodd" clip-rule="evenodd" d="M12 2.5C10.665 2.5 9.33028 3.19475 8.59878 4.584L2.46353 16.2358C1.09353 18.8375 2.92478 22 5.80103 22H18.199C21.0753 22 22.9065 18.8372 21.5365 16.2358L15.4013 4.584C14.6698 3.19475 13.3348 2.5 12 2.5ZM12 7.75C12.4143 7.75 12.75 8.08579 12.75 8.5V13.5C12.75 13.9142 12.4143 14.25 12 14.25C11.5858 14.25 11.25 13.9142 11.25 13.5V8.5C11.25 8.08579 11.5858 7.75 12 7.75ZM10.75 16.75C10.75 16.0598 11.3098 15.5 12 15.5C12.6903 15.5 13.25 16.0598 13.25 16.75C13.25 17.4402 12.6903 18 12 18C11.3098 18 10.75 17.4402 10.75 16.75Z" fill="black"/>
</svg>
