<svg width="24" height="24" viewBox="0 0 24 24" fill="none" xmlns="http://www.w3.org/2000/svg">
<path fill-rule="evenodd" clip-rule="evenodd" d="M17.9723 5.9137C16.3818 4.35728 14.2792 3.50079 12.0425 3.49973L12.0423 3.49998C7.37975 3.49998 3.5855 7.27268 3.58375 11.9101C3.583 13.3861 3.97275 14.8388 4.71075 16.1113L5.02625 16.6553L4.8595 17.2616L4.136 19.8918L6.90075 19.17L7.4745 19.0203L7.9955 19.3033C9.22875 19.973 10.6267 20.327 12.0387 20.3275H12.0425C16.7048 20.3275 20.499 16.5546 20.5005 11.9169C20.5013 9.6709 19.6233 7.55843 18.0278 5.9692L17.9723 5.9137ZM2.08375 11.9096C2.08575 6.44544 6.553 2 12.0423 2L12.042 2.00025C14.706 2.00125 17.2063 3.03324 19.086 4.90646V4.90696C20.9663 6.78019 22.001 9.26966 22 11.9179C21.998 17.3821 17.5302 21.828 12.042 21.828H12.0377C10.3712 21.8275 8.7335 21.4118 7.279 20.622L2 22L3.413 16.8641C2.54175 15.3613 2.08275 13.6564 2.08375 11.9096ZM14.8402 13.1738C15.0681 13.2566 16.2898 13.8558 16.5383 13.9798H16.5385L16.538 13.9809C16.5868 14.0053 16.6324 14.0273 16.6747 14.0477C16.8477 14.1312 16.9647 14.1877 17.0144 14.2705C17.0764 14.3736 17.0764 14.8702 16.8694 15.4488C16.6624 16.0274 15.6696 16.5557 15.1922 16.627C14.764 16.6908 14.2224 16.7176 13.6272 16.5287C13.2664 16.4146 12.8032 16.262 12.2104 16.0066C9.88192 15.0036 8.30774 12.7537 8.00916 12.327C7.98812 12.2969 7.97341 12.2759 7.96522 12.265L7.96362 12.2629C7.83342 12.0898 6.95049 10.9158 6.95049 9.70167C6.95049 8.56029 7.51305 7.96191 7.77193 7.68655C7.78959 7.66776 7.80584 7.65048 7.8204 7.63463C8.04837 7.38647 8.31728 7.32468 8.48333 7.32468C8.64937 7.32468 8.81466 7.32593 8.95973 7.33319C8.97766 7.33413 8.99633 7.33405 9.01563 7.33397C9.16009 7.33336 9.34058 7.33261 9.51854 7.7587C9.59133 7.93264 9.69974 8.19568 9.81248 8.46925C10.0211 8.9755 10.2446 9.51781 10.2848 9.59836C10.3468 9.72243 10.3882 9.86702 10.3053 10.0324C10.2924 10.0581 10.2805 10.0824 10.2691 10.1055C10.2076 10.2308 10.162 10.3236 10.0569 10.4456C10.0139 10.4954 9.9695 10.5492 9.92517 10.6029C9.84092 10.705 9.75696 10.8067 9.68383 10.8797C9.55999 11.0027 9.43015 11.1368 9.57522 11.385C9.72029 11.6334 10.2192 12.4444 10.9577 13.1016C11.7516 13.8073 12.4415 14.1057 12.7915 14.2571C12.8601 14.2867 12.9156 14.3107 12.9563 14.3311C13.2047 14.4551 13.3495 14.4346 13.4946 14.2693C13.6394 14.1044 14.1158 13.5461 14.2813 13.2979C14.4466 13.0498 14.6122 13.091 14.8402 13.1738Z" fill="black"/>
</svg>
