<svg width="24" height="24" viewBox="0 0 24 24" fill="none" xmlns="http://www.w3.org/2000/svg">
<path fill-rule="evenodd" clip-rule="evenodd" d="M3.70714 2.29289C3.31662 1.90237 2.68345 1.90237 2.29293 2.29289C1.90241 2.68342 1.90241 3.31658 2.29293 3.70711L4.50266 5.91684C3.63212 6.46738 2.8235 7.11397 2.08603 7.8505C1.47003 8.4655 0.910783 9.1375 0.423533 9.84775C0.114783 10.298 0.229033 10.9172 0.678783 11.228L0.687283 11.2338C0.855283 11.35 1.05053 11.4105 1.25053 11.4105C1.31103 11.4105 1.37203 11.405 1.43303 11.3938C1.69678 11.3453 1.92578 11.1963 2.07803 10.9745C2.49528 10.3668 2.97403 9.7915 3.50153 9.26475C4.24259 8.52487 5.06516 7.89184 5.95859 7.37276L7.43343 8.8476C6.50636 9.32174 5.66289 9.93561 4.91854 10.6788C4.47279 11.1238 4.06879 11.6103 3.71779 12.1248C3.41004 12.5758 3.52629 13.1963 3.97704 13.508C4.14629 13.625 4.34254 13.6858 4.54404 13.6858C4.60529 13.6858 4.66704 13.6803 4.72854 13.6687C4.99279 13.6198 5.22204 13.4708 5.37404 13.2488C5.65554 12.8373 5.97854 12.4485 6.33454 12.0933C7.09165 11.3372 7.97321 10.7499 8.93808 10.3523L10.5197 11.9339C10.2255 12.0085 9.93655 12.1058 9.65404 12.2255C8.92329 12.535 8.26954 12.9798 7.71153 13.5475C7.45254 13.811 7.21729 14.0983 7.01228 14.4018C6.70654 14.8543 6.82328 15.4753 7.27279 15.786C7.49429 15.939 7.76204 15.996 8.02679 15.9463C8.29354 15.896 8.52454 15.7443 8.67704 15.5185C9.42554 14.411 10.6678 13.75 12 13.75C12.1179 13.75 12.235 13.7552 12.3512 13.7654L20.2929 21.7071C20.6835 22.0976 21.3166 22.0976 21.7071 21.7071C22.0977 21.3166 22.0977 20.6834 21.7071 20.2929L3.70714 2.29289ZM23.5765 9.8475C23.0895 9.13725 22.53 8.4655 21.914 7.85025C20.6268 6.56475 19.1273 5.5555 17.4578 4.8505C15.7285 4.12025 13.8925 3.75 12 3.75C11.1904 3.75 10.3881 3.81855 9.5998 3.9544C8.81667 4.08936 8.57317 5.03778 9.13513 5.59965Lnan nanLnan nanL9.13513 5.59965C9.38612 5.8506 9.7461 5.955 10.0966 5.8994C10.7228 5.80009 11.3598 5.74975 12 5.74975C13.623 5.74975 15.1968 6.067 16.678 6.6925C18.109 7.29675 19.3945 8.16225 20.4985 9.26475C21.026 9.7915 21.505 10.3665 21.922 10.9742C22.0743 11.196 22.3033 11.3448 22.567 11.3935C22.628 11.4048 22.689 11.4103 22.7495 11.4103C22.9495 11.4103 23.1448 11.3498 23.3125 11.2338L23.3213 11.2277C23.7708 10.917 23.8853 10.2978 23.5765 9.8475ZM12 20C13.1063 20 14.003 19.1046 14.003 18C14.003 16.8954 13.1063 16 12 16C10.8938 16 9.99703 16.8954 9.99703 18C9.99703 19.1046 10.8938 20 12 20ZM15.3778 10.4913C14.8633 10.2522 14.3272 10.0704 13.775 9.94674C13.5383 9.89371 13.3175 9.78174 13.146 9.61024Lnan nanLnan nanL13.146 9.61024C12.429 8.89348 12.8989 7.73807 13.8946 7.92844C13.9298 7.93516 13.9649 7.94208 14 7.94918C14.6487 8.08052 15.283 8.27659 15.8983 8.5365C17.091 9.04 18.1618 9.761 19.0813 10.679C19.527 11.124 19.931 11.6105 20.282 12.125C20.5898 12.576 20.4735 13.1965 20.0228 13.508C19.8535 13.625 19.657 13.6858 19.4558 13.6858C19.3948 13.6858 19.333 13.6803 19.2715 13.6687C19.0073 13.62 18.778 13.4708 18.6263 13.2488C18.3448 12.8373 18.0215 12.4485 17.6658 12.0933C16.9953 11.424 16.2255 10.885 15.3778 10.4913Z" fill="black"/>
</svg>
