<svg width="24" height="24" viewBox="0 0 24 24" fill="none" xmlns="http://www.w3.org/2000/svg">
<path fill-rule="evenodd" clip-rule="evenodd" d="M1.87222 10.833C1.63747 11.175 1.17097 11.2643 0.829716 11.0283H0.829966L0.821466 11.0223C0.484216 10.789 0.398466 10.327 0.630466 9.989C1.10972 9.29 1.65497 8.6345 2.26322 8.02725C3.52772 6.76475 5.00022 5.77325 6.63997 5.08075C8.33797 4.36375 10.1415 4 12 4C13.8585 4 15.662 4.3635 17.36 5.08075C18.9997 5.7735 20.4725 6.76475 21.7367 8.02725C22.3447 8.6345 22.89 9.29 23.3695 9.989C23.6015 10.3273 23.516 10.789 23.1785 11.0223L23.17 11.0283C22.8285 11.264 22.3622 11.175 22.1275 10.833C21.7007 10.2115 21.2157 9.62825 20.6745 9.088C19.5477 7.96275 18.2357 7.0795 16.775 6.4625C15.263 5.824 13.6565 5.50025 12 5.50025C10.3435 5.50025 8.73697 5.824 7.22497 6.4625C5.76422 7.07925 4.45222 7.96275 3.32522 9.088C2.78397 9.62825 2.29897 10.2113 1.87222 10.833ZM14.0025 18C14.0025 19.1046 13.1057 20 11.9995 20C10.8932 20 9.99646 19.1046 9.99646 18C9.99646 16.8954 10.8932 16 11.9995 16C13.1057 16 14.0025 16.8954 14.0025 18ZM4.11921 13.3023C4.46221 13.5393 4.93196 13.4515 5.16721 13.1075C5.45621 12.685 5.78696 12.286 6.15721 11.9162C7.71771 10.358 9.79246 9.5 11.9992 9.5C14.206 9.5 16.2807 10.3582 17.8412 11.9162C18.2115 12.286 18.5422 12.685 18.8312 13.1075C19.0665 13.4515 19.5365 13.5393 19.8792 13.3023C20.2175 13.0683 20.3057 12.6052 20.074 12.2658C19.731 11.763 19.34 11.2918 18.9032 10.8558C18.0067 9.9605 16.9627 9.25775 15.7997 8.7665C14.5955 8.258 13.3167 8 11.999 8C10.6812 8 9.40246 8.258 8.19821 8.7665C7.03546 9.2575 5.99121 9.9605 5.09471 10.8558C4.65796 11.2918 4.26696 11.763 3.92396 12.2658C3.69221 12.6052 3.78046 13.0685 4.11871 13.3023H4.11921ZM8.46972 15.3785C8.23422 15.727 7.76097 15.8198 7.41471 15.5803C7.07597 15.346 6.98872 14.883 7.21922 14.5418C7.41522 14.2518 7.63922 13.9775 7.88971 13.7228C8.96422 12.6295 10.4235 12.011 11.9575 12C13.5112 11.989 14.974 12.588 16.0715 13.684C16.337 13.949 16.5732 14.2355 16.7787 14.5393C17.01 14.8813 16.9245 15.3453 16.5847 15.5803C16.2385 15.8198 15.7652 15.727 15.5297 15.3785C14.7645 14.2463 13.4677 13.5 11.9997 13.5C10.5317 13.5 9.23497 14.246 8.46972 15.3785Z" fill="black"/>
</svg>
