<?xml version="1.0" encoding="UTF-8"?>
<svg xmlns:svg="http://www.w3.org/2000/svg" viewBox="0 0 24 24" fill="none">
<svg:path d="M21.9143 7.85025C22.5303 8.4655 23.0898 9.1375 23.5768 9.8475L23.5765 9.84725C23.8853 10.2975 23.7708 10.9168 23.3213 11.2275L23.3125 11.2335C23.1448 11.3495 22.9495 11.41 22.7495 11.41C22.689 11.41 22.6278 11.4045 22.567 11.3933C22.3033 11.3445 22.0743 11.1957 21.922 10.974C21.505 10.3665 21.026 9.79125 20.4985 9.2645C19.3945 8.162 18.109 7.2965 16.678 6.69225C15.1967 6.06675 13.6229 5.7495 11.9999 5.7495C10.3769 5.7495 8.80287 6.06675 7.32186 6.69225C5.89084 7.29675 4.60558 8.162 3.50132 9.2645C2.97381 9.79125 2.49506 10.3665 2.0778 10.9743C1.92555 11.196 1.69655 11.345 1.4328 11.3935C1.17104 11.4417 0.90629 11.385 0.687287 11.2338L0.678787 11.2277C0.229032 10.917 0.114781 10.2978 0.423535 9.8475C0.91054 9.13725 1.47005 8.4655 2.08605 7.85025C3.37332 6.565 4.87258 5.55575 6.54235 4.8505C8.27162 4.12025 10.1076 3.75 12.0002 3.75C13.8927 3.75 15.7287 4.12025 17.458 4.8505C19.1277 5.5555 20.627 6.56475 21.9143 7.85025ZM14.0032 18C14.0032 19.1046 13.1064 20 12.0002 20C10.8939 20 9.99714 19.1046 9.99714 18C9.99714 16.8954 10.8939 16 12.0002 16C13.1064 16 14.0032 16.8954 14.0032 18ZM19.0815 10.6787C18.162 9.76075 17.0912 9.03975 15.8985 8.53625C14.6632 8.0145 13.3517 7.75 12.0002 7.75C10.6486 7.75 9.33713 8.0145 8.10187 8.53625C6.90911 9.04 5.83834 9.76075 4.91883 10.6787C4.47333 11.1237 4.06932 11.6103 3.71807 12.1247C3.41032 12.5758 3.52657 13.1962 3.97732 13.5078C4.19808 13.6602 4.46483 13.7175 4.72883 13.6685C4.99308 13.6195 5.22234 13.4705 5.37409 13.2485C5.65559 12.837 5.9786 12.4482 6.3346 12.093C7.84787 10.582 9.86014 9.74975 12.0004 9.74975C14.1407 9.74975 16.1527 10.582 17.6662 12.093C18.022 12.4482 18.3452 12.837 18.6267 13.2485C18.7785 13.4705 19.0077 13.6197 19.272 13.6685C19.3335 13.68 19.3952 13.6855 19.4565 13.6855C19.6577 13.6855 19.8542 13.6247 20.0235 13.5078C20.4743 13.1962 20.5905 12.5758 20.2827 12.1247C19.9315 11.6103 19.5275 11.1235 19.082 10.6787H19.0815ZM11.9562 11.7503C13.5777 11.7393 15.1027 12.3628 16.249 13.5073H16.2485C16.523 13.781 16.771 14.0813 16.9862 14.3993C17.2932 14.853 17.1772 15.4753 16.7275 15.786C16.506 15.939 16.2382 15.996 15.9735 15.9463C15.7067 15.896 15.4757 15.7443 15.3232 15.5185C14.5747 14.4113 13.3324 13.75 12.0002 13.75C10.6679 13.75 9.42563 14.411 8.67713 15.5185C8.52462 15.7443 8.29362 15.896 8.02687 15.9463C7.96437 15.958 7.90187 15.9638 7.83962 15.9638C7.63836 15.9638 7.44211 15.903 7.27286 15.786C6.82336 15.4753 6.7066 14.8543 7.01236 14.4018C7.21736 14.0985 7.45261 13.811 7.71162 13.5475C8.26962 12.98 8.92338 12.535 9.65414 12.2255C10.3854 11.9158 11.1599 11.756 11.9562 11.7503Z" fill="currentColor" fillRule="evenodd" clipRule="evenodd" />
</svg>
