<?xml version="1.0" encoding="UTF-8"?>
<svg xmlns:svg="http://www.w3.org/2000/svg" viewBox="0 0 24 24" fill="none">
<svg:path d="M18.0083 4.3715L18.7905 8.02225C18.9298 8.67225 19 9.33525 19 10C19 13.6126 16.2633 16.5861 12.75 16.9603V20.5H16C16.4142 20.5 16.75 20.8358 16.75 21.25C16.75 21.6642 16.4142 22 16 22H8C7.58579 22 7.25 21.6642 7.25 21.25C7.25 20.8358 7.58579 20.5 8 20.5H11.25V16.9603C7.73667 16.5861 5 13.6126 5 10C5 9.33525 5.07025 8.67225 5.2095 8.02225L5.99175 4.3715C6.28825 2.98825 7.51075 2 8.92525 2H15.0747C16.4895 2 17.7118 2.98825 18.0083 4.3715ZM7.4585 4.68575L6.909 7.25H17.091L16.5415 4.68575C16.4697 4.35125 16.2838 4.0485 16.0178 3.8335C15.7518 3.6185 15.4167 3.5 15.0747 3.5H8.92525C8.58325 3.5 8.24825 3.6185 7.98225 3.8335C7.71625 4.0485 7.53025 4.35125 7.4585 4.68575ZM15.889 13.889C16.6512 13.1268 17.162 12.1805 17.38 11.1503L17.3798 11.1505C17.4783 10.6862 17.1195 10.2503 16.6447 10.2503C16.2912 10.2503 15.9853 10.497 15.9115 10.8427C15.7523 11.5895 15.381 12.2758 14.8283 12.8285C14.223 13.4338 13.458 13.821 12.6283 13.9512C12.2653 14.008 11.9997 14.324 11.9997 14.6913C11.9997 15.1515 12.411 15.504 12.8658 15.4325C14.006 15.2533 15.0573 14.7207 15.889 13.889Z" fill="currentColor" fillRule="evenodd" clipRule="evenodd" />
</svg>
