<?xml version="1.0" encoding="UTF-8"?>
<svg xmlns:svg="http://www.w3.org/2000/svg" viewBox="0 0 24 24" fill="none">
<svg:path d="M4.06325 15.0504C3.87136 14.552 3.72808 14.0394 3.63405 13.5159C5.09816 13.5883 6.51856 13.9124 7.865 14.482C9.35325 15.1115 10.6902 16.013 11.8387 17.1615V17.1613C12.7519 18.0744 13.509 19.107 14.0973 20.2399C13.5828 20.3705 13.0562 20.4522 12.5207 20.4842C12.0434 19.6615 11.4605 18.904 10.7783 18.2217C9.767 17.2105 8.5905 16.417 7.28075 15.8632C6.2521 15.4282 5.17367 15.1561 4.06325 15.0504ZM18.0105 18.0102C17.2855 18.7353 16.4499 19.3157 15.5243 19.7376C15.3396 19.369 15.1391 19.0097 14.9237 18.6606C15.046 18.5233 15.1726 18.3891 15.3035 18.2583C16.1772 17.3843 17.1937 16.6988 18.3245 16.2205C18.7455 16.0424 19.1763 15.896 19.6152 15.7816C19.2061 16.6051 18.6677 17.3531 18.0105 18.0102ZM14.2427 17.1977C14.1764 17.2641 14.111 17.3312 14.0467 17.399C13.7376 17.0026 13.4076 16.6232 13.0584 16.2626C13.0994 16.2205 13.1406 16.1786 13.1822 16.137C14.3307 14.9885 15.6677 14.087 17.156 13.4575C18.2232 13.0062 19.3366 12.7091 20.4814 12.5691C20.4469 13.0955 20.3644 13.6133 20.2345 14.1194C19.3782 14.2586 18.5441 14.499 17.7402 14.839C16.4307 15.393 15.254 16.1865 14.2427 17.1977ZM10.6739 20.3976C10.386 20.0043 10.0669 19.6319 9.7175 19.2825C8.84375 18.4085 7.82725 17.723 6.6965 17.2447C6.11782 16.9999 5.52057 16.8149 4.90909 16.6905C5.22216 17.1628 5.58312 17.6039 5.9895 18.0102C6.7705 18.7915 7.67975 19.4045 8.69175 19.8325C9.33023 20.1025 9.99326 20.2913 10.6739 20.3976ZM2 12C2 6.47725 6.47725 2 12 2C17.5228 2 22 6.47725 22 12C22 17.5228 17.5228 22 12 22C6.47725 22 2 17.5228 2 12ZM8.25 8C8.25 9.51625 9.48375 10.75 11 10.75C12.5163 10.75 13.75 9.51625 13.75 8C13.75 6.48375 12.5163 5.25 11 5.25C9.48375 5.25 8.25 6.48375 8.25 8Z" fill="currentColor" fillRule="evenodd" clipRule="evenodd" />
</svg>
