<svg width="24" height="24" viewBox="0 0 24 24" fill="none" xmlns="http://www.w3.org/2000/svg">
<path fill-rule="evenodd" clip-rule="evenodd" d="M15.0747 3.5C15.4167 3.5 15.7517 3.6185 16.0177 3.8335C16.2837 4.0485 16.4698 4.35125 16.5415 4.68575L17.0909 7.25H6.90906L7.4585 4.68575C7.53025 4.35125 7.71625 4.0485 7.98225 3.8335C8.24825 3.6185 8.58325 3.5 8.92525 3.5H15.0747ZM6.59906 8.75H17.4009C17.4668 9.16324 17.5 9.58211 17.5 10C17.5 11.469 16.928 12.8503 15.889 13.889C14.8503 14.9277 13.469 15.5 12 15.5C10.531 15.5 9.14975 14.928 8.111 13.889C7.07225 12.8503 6.5 11.469 6.5 10C6.5 9.58211 6.53323 9.16324 6.59906 8.75ZM15.0747 2H8.92525C7.51075 2 6.28825 2.98825 5.99175 4.3715L5.2095 8.02225C5.07025 8.67225 5 9.33525 5 10C5 13.6126 7.73667 16.5861 11.25 16.9603V20.5H8C7.58579 20.5 7.25 20.8358 7.25 21.25C7.25 21.6642 7.58579 22 8 22H16C16.4142 22 16.75 21.6642 16.75 21.25C16.75 20.8358 16.4142 20.5 16 20.5H12.75V16.9603C16.2633 16.5861 19 13.6126 19 10C19 9.33525 18.9298 8.67225 18.7905 8.02225L18.0082 4.3715C17.7117 2.98825 16.4895 2 15.0747 2ZM12.5716 12.434C13.3552 12.25 13.9981 11.696 14.3048 10.967C14.423 10.686 14.6944 10.5 14.9994 10.5C15.5365 10.5 15.8979 11.047 15.6907 11.5425C15.2031 12.7088 14.1788 13.5947 12.9268 13.892C12.4542 14.0042 12 13.6488 12 13.1628C12 12.817 12.2352 12.513 12.5716 12.434Z" fill="black"/>
</svg>
