<?xml version="1.0" encoding="UTF-8"?>
<svg xmlns:svg="http://www.w3.org/2000/svg" viewBox="0 0 24 24" fill="none">
<svg:path d="M13.0295 4.51C12.2295 4.1715 11.3785 4 10.5 4C9.6215 4 8.7705 4.1715 7.9705 4.51C7.19675 4.83725 6.50125 5.30625 5.90375 5.90375C5.30625 6.5015 4.83725 7.19675 4.51 7.9705C4.1715 8.7705 4 9.6215 4 10.5C4 11.3785 4.1715 12.2295 4.51 13.0295C4.83725 13.8033 5.30625 14.4987 5.90375 15.0962C6.50125 15.6938 7.19675 16.1627 7.9705 16.49C8.7705 16.8285 9.6215 17 10.5 17C11.3785 17 12.2295 16.8285 13.0295 16.49C13.8033 16.1627 14.4987 15.6938 15.0962 15.0962C15.6938 14.4985 16.1627 13.8033 16.49 13.0295C16.8285 12.2295 17 11.3785 17 10.5C17 9.6215 16.8285 8.7705 16.49 7.9705C16.1627 7.19675 15.6938 6.50125 15.0962 5.90375C14.4987 5.30625 13.8033 4.83725 13.0295 4.51ZM2 10.5C2 5.8055 5.8055 2 10.5 2C15.1945 2 19 5.8055 19 10.5C19 12.4869 18.3183 14.3146 17.1761 15.7618L21.7071 20.2929C22.0976 20.6834 22.0976 21.3166 21.7071 21.7071C21.3166 22.0976 20.6834 22.0976 20.2929 21.7071L15.7618 17.1761C14.3146 18.3183 12.4869 19 10.5 19C5.8055 19 2 15.1945 2 10.5ZM10.5 6C11.0523 6 11.5 6.44772 11.5 7V9.5H14C14.5523 9.5 15 9.94772 15 10.5C15 11.0523 14.5523 11.5 14 11.5H11.5V14C11.5 14.5523 11.0523 15 10.5 15C9.94772 15 9.5 14.5523 9.5 14V11.5H7C6.44772 11.5 6 11.0523 6 10.5C6 9.94772 6.44772 9.5 7 9.5H9.5V7C9.5 6.44772 9.94772 6 10.5 6Z" fill="currentColor" fillRule="evenodd" clipRule="evenodd" />
</svg>
