<?xml version="1.0" encoding="UTF-8"?>
<svg xmlns:svg="http://www.w3.org/2000/svg" viewBox="0 0 24 24" fill="none">
<svg:path d="M10.5 3.5C11.4458 3.5 12.3622 3.68475 13.2242 4.0495C14.0575 4.402 14.8065 4.907 15.4497 5.55025C16.093 6.1935 16.598 6.94225 16.9505 7.77575C17.315 8.63775 17.5 9.55425 17.5 10.5C17.5 11.4458 17.3153 12.3622 16.9505 13.2242C16.598 14.0575 16.093 14.8065 15.4497 15.4497C14.8065 16.093 14.0577 16.598 13.2242 16.9505C12.3622 17.315 11.4458 17.5 10.5 17.5C9.55425 17.5 8.63775 17.3153 7.77575 16.9505C6.9425 16.598 6.1935 16.093 5.55025 15.4497C4.907 14.8065 4.402 14.0577 4.0495 13.2242C3.685 12.3622 3.5 11.4458 3.5 10.5C3.5 9.55425 3.68475 8.63775 4.0495 7.77575C4.402 6.9425 4.907 6.1935 5.55025 5.55025C6.1935 4.907 6.94225 4.402 7.77575 4.0495C8.63775 3.685 9.55425 3.5 10.5 3.5ZM10.5 2C5.8055 2 2 5.8055 2 10.5C2 15.1945 5.8055 19 10.5 19C12.5772 19 14.4804 18.2549 15.9568 17.0175L20.4697 21.5303C20.7626 21.8232 21.2374 21.8232 21.5303 21.5303C21.8232 21.2374 21.8232 20.7626 21.5303 20.4697L17.0175 15.9568C18.2549 14.4804 19 12.5772 19 10.5C19 5.8055 15.1945 2 10.5 2ZM10.5 6.25C10.9142 6.25 11.25 6.58579 11.25 7V9.75H14C14.4142 9.75 14.75 10.0858 14.75 10.5C14.75 10.9142 14.4142 11.25 14 11.25H11.25V14C11.25 14.4142 10.9142 14.75 10.5 14.75C10.0858 14.75 9.75 14.4142 9.75 14V11.25H7C6.58579 11.25 6.25 10.9142 6.25 10.5C6.25 10.0858 6.58579 9.75 7 9.75H9.75V7C9.75 6.58579 10.0858 6.25 10.5 6.25Z" fill="currentColor" fillRule="evenodd" clipRule="evenodd" />
</svg>
