<?xml version="1.0" encoding="UTF-8"?>
<svg xmlns:svg="http://www.w3.org/2000/svg" viewBox="0 0 24 24" fill="none">
<svg:path d="M10.5 4C11.3783 4 12.2295 4.1715 13.0295 4.51C13.8033 4.83725 14.4985 5.30625 15.0962 5.90375C15.6938 6.50125 16.1627 7.19675 16.49 7.9705C16.8285 8.7705 17 9.6215 17 10.5C17 11.3785 16.8285 12.2295 16.49 13.0295C16.1627 13.8033 15.6938 14.4985 15.0962 15.0962C14.4987 15.6938 13.8033 16.1627 13.0295 16.49C12.2295 16.8285 11.3785 17 10.5 17C9.6215 17 8.7705 16.8285 7.9705 16.49C7.19675 16.1627 6.5015 15.6938 5.90375 15.0962C5.30625 14.4987 4.83725 13.8033 4.51 13.0295C4.1715 12.2295 4 11.3785 4 10.5C4 9.6215 4.1715 8.7705 4.51 7.9705C4.83725 7.19675 5.30625 6.5015 5.90375 5.90375C6.50125 5.30625 7.19675 4.83725 7.9705 4.51C8.7705 4.1715 9.6215 4 10.5 4ZM10.5 2C5.8055 2 2 5.8055 2 10.5C2 15.1945 5.8055 19 10.5 19C12.4869 19 14.3146 18.3183 15.7618 17.1761L20.2929 21.7071C20.6834 22.0976 21.3166 22.0976 21.7071 21.7071C22.0976 21.3166 22.0976 20.6834 21.7071 20.2929L17.1761 15.7618C18.3183 14.3146 19 12.4869 19 10.5C19 5.8055 15.1945 2 10.5 2ZM7 9.5C6.44772 9.5 6 9.94772 6 10.5C6 11.0523 6.44772 11.5 7 11.5H14C14.5523 11.5 15 11.0523 15 10.5C15 9.94772 14.5523 9.5 14 9.5H7Z" fill="currentColor" fillRule="evenodd" clipRule="evenodd" />
</svg>
