<?xml version="1.0" encoding="UTF-8"?>
<svg xmlns:svg="http://www.w3.org/2000/svg" viewBox="0 0 24 24" fill="none">
<svg:path d="M13.1487 8.13298C13.1617 8.16477 13.1756 8.19871 13.2244 8.19955V8.20006C13.2336 8.19624 13.2431 8.19237 13.2527 8.18845C13.2745 8.17954 13.2969 8.17035 13.3191 8.16081C13.6103 8.03667 13.9015 7.91249 14.1927 7.7883C15.3752 7.28394 16.5577 6.77956 17.7416 6.27906C17.8636 6.22731 17.8534 6.17431 17.8064 6.07731C17.5294 5.50381 17.2531 4.92956 16.9856 4.35156C16.9349 4.24156 16.8941 4.22581 16.7886 4.28081C16.56 4.39985 16.328 4.51271 16.096 4.6256C16.026 4.65969 15.9559 4.69378 15.8859 4.72806C15.5668 4.8843 15.2478 5.0405 14.9287 5.19671C14.1291 5.58813 13.3294 5.97958 12.5301 6.37181C12.5168 6.37834 12.5021 6.38373 12.4874 6.3891C12.423 6.41273 12.3593 6.43606 12.4161 6.55481C12.5867 6.91071 12.7516 7.26934 12.9165 7.628C12.9914 7.79084 13.0662 7.9537 13.1416 8.11631C13.1441 8.12166 13.1464 8.12729 13.1487 8.13298ZM20.7543 15.1455C21.1526 15.5204 21.546 15.8907 21.9419 16.2583L21.9421 16.2586C22.0132 16.3243 22.0179 16.3673 21.9614 16.4466C20.9126 17.9198 19.5904 19.0071 17.7764 19.3783C16.6799 19.6028 15.5899 19.5863 14.5216 19.1966C13.3816 18.7806 12.5091 18.0488 11.9054 16.9986C11.8339 16.8738 11.7799 16.8423 11.6354 16.8913C10.1425 17.3983 8.64873 17.9029 7.15499 18.4076C5.85697 18.8462 4.55894 19.2847 3.2614 19.7248C3.1164 19.774 3.05015 19.7586 2.97665 19.6141C2.6779 19.0271 2.36915 18.4451 2.0504 17.8688C1.9734 17.7296 1.9869 17.6411 2.0754 17.5171C3.63503 15.3296 5.19133 13.1397 6.74764 10.9498C7.00022 10.5944 7.2528 10.239 7.5054 9.88355C7.54052 9.83415 7.57518 9.78442 7.60939 9.73533C7.62609 9.71138 7.64267 9.68758 7.65915 9.66405C7.63208 9.61204 7.5926 9.617 7.55621 9.62157C7.54554 9.62291 7.53514 9.62422 7.5254 9.62405L7.37474 9.62121C5.76821 9.5909 4.16167 9.56059 2.5549 9.5378C2.3919 9.53555 2.3454 9.5053 2.3664 9.33005C2.45415 8.5983 2.5274 7.86455 2.5964 7.13055C2.60815 7.0043 2.6384 6.96705 2.76965 6.9733C5.0979 7.08455 7.42615 7.1913 9.75465 7.29505C9.85415 7.29955 9.90015 7.3348 9.9399 7.4223C10.2146 8.0283 10.4906 8.6338 10.7771 9.2343C10.8351 9.35605 10.7889 9.42705 10.7269 9.5148C9.82157 10.7962 8.91685 12.078 8.01214 13.3598C7.75965 13.7176 7.50715 14.0753 7.25465 14.4331C7.16712 14.5571 7.07957 14.6811 6.99202 14.8052C6.69524 15.2257 6.39842 15.6462 6.1019 16.0671C6.07741 16.102 6.05413 16.1378 6.02459 16.1832C6.00739 16.2096 5.98806 16.2394 5.96515 16.2741C6.1861 16.207 6.40082 16.1418 6.61175 16.0778C6.94378 15.977 7.26642 15.879 7.58915 15.7813C7.84099 15.705 8.09278 15.6286 8.34458 15.5521C9.23832 15.2807 10.1321 15.0094 11.0281 14.7461C11.2006 14.6953 11.2514 14.6333 11.2389 14.4493C11.0941 12.3156 12.2789 10.1991 14.1886 9.26855C15.3841 8.68605 16.6404 8.60255 17.8714 9.1613C19.9442 10.1023 19.9714 12.4043 18.9721 13.6743C18.4287 14.3651 17.7046 14.7963 16.9004 15.0978C16.1682 15.3722 15.4262 15.6205 14.6845 15.8687C14.6429 15.8827 14.6013 15.8966 14.5596 15.9106C14.3852 15.9688 14.3754 16.0203 14.4854 16.1591C15.1016 16.9358 15.9211 17.1938 16.8761 17.1111C17.9261 17.0201 18.7734 16.5133 19.5189 15.8053C19.8397 15.5008 20.1246 15.1628 20.3949 14.8073C20.5153 14.9205 20.635 15.0332 20.7543 15.1455ZM13.7997 13.887C13.86 13.8689 13.9158 13.8526 13.9685 13.8373C14.0749 13.8063 14.1686 13.779 14.2611 13.7481C14.4679 13.6792 14.6769 13.6169 14.8859 13.5546C15.3061 13.4294 15.7264 13.3042 16.1289 13.1256C16.4229 12.9951 16.6774 12.8156 16.8606 12.5476C17.2659 11.9548 17.0249 11.1891 16.3719 11.0236C15.9189 10.9088 15.4781 10.9656 15.0816 11.2228C14.1247 11.844 13.8465 12.7946 13.7997 13.887Z" fill="currentColor" fillRule="evenodd" clipRule="evenodd" />
</svg>
