<svg width="24" height="24" viewBox="0 0 24 24" fill="none" xmlns="http://www.w3.org/2000/svg">
<path fill-rule="evenodd" clip-rule="evenodd" d="M17.6013 4.83475C17.831 5.33425 18.0665 5.826 18.2882 6.28725L18.288 6.2875C18.548 6.828 18.4725 7.2865 18.3635 7.57575C18.2941 7.75961 18.1372 8.06178 17.8045 8.30145C18.8606 8.84402 19.5862 9.7448 19.8576 10.8577C20.0039 11.457 20.0091 12.1005 19.8724 12.7185C19.8479 12.8297 19.8187 12.9397 19.7854 13.048C19.9236 13.1145 20.0524 13.2023 20.1664 13.31C20.2739 13.4112 20.3806 13.5122 20.4869 13.613L20.538 13.6614L20.538 13.6614C20.8587 13.9648 21.1634 14.2532 21.4751 14.5442L21.4743 14.544C22.0838 15.1135 22.173 15.9865 21.6911 16.6675C21.1208 17.4733 20.5086 18.1107 19.8197 18.6165C19.0367 19.191 18.1595 19.5812 17.212 19.7762C16.7118 19.8792 16.2183 19.9315 15.7454 19.9315C15.0114 19.9315 14.2987 19.8063 13.6267 19.5598C12.673 19.2095 11.8758 18.659 11.2463 17.9172C10.2776 18.2475 9.3052 18.578 8.3575 18.9C7.27556 19.2677 6.15686 19.648 5.05717 20.023C4.85618 20.0917 4.66444 20.125 4.47095 20.125C3.84273 20.125 3.29001 19.774 2.99253 19.186C2.74729 18.7012 2.49055 18.2145 2.22957 17.74C1.88834 17.1195 1.92908 16.4302 2.34131 15.8487C3.38426 14.3775 4.4397 12.885 5.4754 11.4195C4.96618 11.4107 4.45695 11.4025 3.95098 11.3952C3.30751 11.386 2.91678 11.092 2.70229 10.847C2.48755 10.6015 2.24732 10.1755 2.32281 9.5405C2.40281 8.8685 2.46731 8.203 2.5143 7.69825C2.54905 7.32625 2.68229 7.0055 2.91003 6.745C3.21602 6.39525 3.65024 6.2025 4.13322 6.2025C4.16422 6.2025 4.19597 6.20325 4.22721 6.20475C6.08687 6.29425 8.02727 6.38425 10.1594 6.47975C10.4458 6.49249 10.7123 6.57237 10.9435 6.70886C10.946 6.70248 10.9485 6.69611 10.9511 6.68975C11.0659 6.4075 11.3126 6.032 11.8388 5.81875C12.3249 5.5788 12.8166 5.33672 13.3006 5.09842C13.457 5.0214 13.6126 4.94478 13.767 4.86875C13.9126 4.79701 14.0582 4.72528 14.2039 4.65354C14.3496 4.58178 14.4953 4.51001 14.6409 4.43825C14.6791 4.41931 14.7174 4.40057 14.7556 4.38184C14.7785 4.37065 14.8013 4.35947 14.8242 4.34825C15.0171 4.25375 15.1991 4.1645 15.3751 4.0725C15.6254 3.9415 15.8864 3.875 16.1506 3.875C16.5741 3.875 16.971 4.042 17.2688 4.3455C17.4048 4.48425 17.5135 4.64425 17.6013 4.83475ZM13.8739 8.39568C14.8759 7.96589 15.878 7.53609 16.8813 7.1095V7.10975C16.9848 7.0655 16.976 7.02025 16.9363 6.93725C16.7006 6.447 16.4661 5.95625 16.2386 5.462C16.2111 5.4025 16.1873 5.37525 16.1506 5.37525C16.1293 5.37525 16.1038 5.38425 16.0711 5.4015C15.8753 5.50412 15.6769 5.60122 15.4784 5.69833C15.4201 5.72684 15.3618 5.75535 15.3036 5.784C15.0919 5.88826 14.8802 5.99249 14.6684 6.09673C13.9292 6.46062 13.1901 6.82448 12.4513 7.18925C12.4399 7.1949 12.4273 7.19954 12.4148 7.20417C12.3601 7.22435 12.3061 7.24428 12.3545 7.34575C12.4994 7.64968 12.6395 7.95608 12.7796 8.26245C12.8433 8.40189 12.9071 8.54132 12.9713 8.6805C12.9734 8.68517 12.9755 8.69009 12.9775 8.69506C12.9886 8.72201 13.0004 8.75066 13.0418 8.7515C13.0509 8.74769 13.0602 8.74384 13.0697 8.73994C13.087 8.73285 13.1047 8.72558 13.1222 8.718C13.3728 8.61059 13.6233 8.50314 13.8739 8.39568ZM20.4674 15.8012C19.5759 17.0607 18.452 17.99 16.9103 18.3075C16.5208 18.3877 16.1326 18.4318 15.7459 18.4318C15.2074 18.4318 14.6724 18.346 14.1439 18.152C13.1747 17.7962 12.4335 17.1707 11.9201 16.273C11.8773 16.1982 11.8421 16.1625 11.7821 16.1625C11.7568 16.1625 11.7271 16.1687 11.6906 16.1812C10.4132 16.6175 9.13513 17.0518 7.85709 17.4862L7.85539 17.4867C6.76118 17.8586 5.66697 18.2304 4.5732 18.6035C4.53295 18.6173 4.4997 18.625 4.4712 18.625C4.41245 18.625 4.37321 18.5917 4.33121 18.5087C4.07747 18.007 3.81499 17.5095 3.544 17.017C3.4785 16.898 3.49 16.8225 3.56525 16.7163C4.91264 14.8157 6.25697 12.9131 7.60125 11.0106C7.79433 10.7373 7.98742 10.464 8.18051 10.1907C8.2083 10.1514 8.2357 10.1119 8.26277 10.0728C8.27905 10.0493 8.2952 10.026 8.31125 10.003C8.29475 9.9715 8.273 9.9645 8.25075 9.9645C8.24165 9.9645 8.23248 9.96568 8.22355 9.96684C8.21507 9.96793 8.2068 9.969 8.19901 9.969H8.19751L7.9061 9.96351L7.90576 9.96351C6.59483 9.9388 5.28389 9.9141 3.97273 9.89525C3.83423 9.89325 3.79449 9.86725 3.81249 9.7175C3.88698 9.09175 3.94948 8.46475 4.00798 7.83725C4.01722 7.73675 4.04022 7.70225 4.13322 7.70225H4.13323C4.14023 7.70225 4.14747 7.70225 4.15522 7.70275C6.13411 7.79775 8.11301 7.889 10.0922 7.97775C10.1769 7.9815 10.2159 8.01175 10.2497 8.0865C10.4834 8.6045 10.7179 9.12225 10.9614 9.6355C11.0109 9.7395 10.9714 9.8005 10.9186 9.87525C10.2059 10.8895 9.49391 11.9041 8.78187 12.9188L8.78 12.9214C8.50911 13.3075 8.23821 13.6935 7.96727 14.0795C7.64054 14.545 7.3138 15.0105 6.98732 15.4762C6.96591 15.5069 6.94555 15.5384 6.91948 15.5787C6.90537 15.6006 6.8896 15.625 6.87108 15.6532C7.02902 15.605 7.18325 15.5579 7.33498 15.5116L7.33571 15.5113L7.33932 15.5102C7.65026 15.4153 7.95076 15.3235 8.25125 15.232C8.48006 15.1623 8.70879 15.0925 8.93752 15.0227L8.93768 15.0226C9.68254 14.7951 10.4273 14.5677 11.1744 14.347C11.3211 14.3037 11.3641 14.2505 11.3533 14.0932C11.2303 12.2692 12.2373 10.46 13.8605 9.6645C14.4109 9.39475 14.9764 9.25025 15.5454 9.25025C16.0268 9.25025 16.5111 9.35375 16.9908 9.57275C18.7525 10.377 18.7757 12.345 17.9265 13.4305C17.4645 14.021 16.8493 14.3898 16.1656 14.6475C15.5503 14.8794 14.9267 15.0895 14.3035 15.2994C14.2611 15.3136 14.2186 15.3279 14.1762 15.3422C14.028 15.3922 14.0195 15.436 14.1132 15.5547C14.5754 16.1405 15.1719 16.3812 15.8634 16.3812C15.9556 16.3812 16.0498 16.377 16.1453 16.3687C17.0378 16.291 17.758 15.8577 18.3915 15.2525C18.664 14.9922 18.9062 14.7032 19.1359 14.3992C19.2503 14.5073 19.364 14.6149 19.4772 14.722L19.4781 14.7228C19.8041 15.0314 20.1265 15.3365 20.4509 15.6395C20.5111 15.6957 20.5151 15.7325 20.4671 15.8002L20.4674 15.8012ZM16.1326 12.4685C16.4771 11.9617 16.2721 11.307 15.7171 11.1657C15.5916 11.1337 15.4674 11.1175 15.3451 11.1175C15.0919 11.1175 14.8477 11.1877 14.6204 11.3362C13.807 11.8672 13.5705 12.68 13.5307 13.614C13.5804 13.5991 13.6264 13.5855 13.67 13.5727L13.6701 13.5727C13.7621 13.5456 13.8431 13.5218 13.9232 13.495C14.0991 13.4361 14.2768 13.3828 14.4546 13.3295L14.4546 13.3295C14.8116 13.2225 15.1687 13.1155 15.5109 12.9627C15.7609 12.8512 15.9771 12.698 16.1328 12.4687L16.1326 12.4685Z" fill="black"/>
</svg>
