<?xml version="1.0" encoding="UTF-8"?>
<svg xmlns:svg="http://www.w3.org/2000/svg" viewBox="0 0 24 24" fill="none">
<svg:path d="M15.308 4.16725C14.2613 3.7245 13.1482 3.5 12 3.5C10.852 3.5 9.739 3.7245 8.692 4.16725C7.68 4.59525 6.77075 5.2085 5.98975 5.9895C5.20875 6.7705 4.5955 7.67975 4.1675 8.69175C3.72475 9.7385 3.50025 10.8518 3.50025 11.9997C3.50025 13.1477 3.72475 14.2607 4.1675 15.3078C4.5955 16.3197 5.20875 17.229 5.98975 18.01C6.77075 18.791 7.68 19.4042 8.692 19.8322C9.73875 20.275 10.852 20.4995 12 20.4995C13.148 20.4995 14.261 20.275 15.308 19.8322C16.32 19.4042 17.2292 18.791 18.0102 18.01C18.7912 17.229 19.4045 16.3197 19.8325 15.3078C20.2753 14.261 20.4998 13.1477 20.4998 11.9997C20.4998 10.8518 20.2753 9.73875 19.8325 8.69175C19.4045 7.67975 18.7912 6.7705 18.0102 5.9895C17.2292 5.2085 16.32 4.59525 15.308 4.16725ZM2 12C2 6.47725 6.47725 2 12 2C17.5228 2 22 6.47725 22 12C22 17.5228 17.5228 22 12 22C6.47725 22 2 17.5228 2 12ZM10.9567 7.7523L9.02579 7.6795C8.74979 7.669 8.51779 7.88425 8.50729 8.16025L8.48854 8.66C8.47804 8.936 8.69329 9.168 8.96929 9.1785L13.0775 9.3335L8.54679 15.465C8.37254 15.7008 8.35179 16.0163 8.49329 16.273L8.76904 16.7725C8.90379 17.0168 9.15854 17.1603 9.42579 17.1603C9.50304 17.1603 9.58129 17.1483 9.65804 17.1233L11.891 16.396L12.0163 17.5538C12.0438 17.8075 12.258 18 12.5133 18H13.016C13.3135 18 13.545 17.742 13.513 17.4462L13.3482 15.9214L15.7548 15.1375C16.0173 15.052 16.1608 14.7698 16.0753 14.5073L15.9205 14.0318C15.835 13.7693 15.5528 13.6258 15.2903 13.7113L10.5723 15.248L14.6815 9.68675C14.846 9.46425 14.8745 9.16925 14.7558 8.91925L14.4558 8.2875C14.3358 8.035 14.0858 7.87025 13.8065 7.85975L12.4712 7.8094L12.3238 6.44625C12.2963 6.1925 12.082 6 11.8268 6H11.324C11.0265 6 10.795 6.258 10.827 6.55375L10.9567 7.7523Z" fill="currentColor" fillRule="evenodd" clipRule="evenodd" />
</svg>
